<svg width="24" height="24" viewBox="0 0 24 24" fill="none" xmlns="http://www.w3.org/2000/svg">
<path d="M2.05 11H7V13H4.062C4.28459 14.7624 5.08713 16.4007 6.34324 17.6568C7.59934 18.9129 9.23761 19.7154 11 19.938V9.874C10.0595 9.62827 9.24061 9.04864 8.6962 8.24333C8.15179 7.43802 7.9191 6.4621 8.04156 5.49778C8.16403 4.53346 8.63329 3.64669 9.36172 3.00303C10.0901 2.35937 11.0279 2.00284 12 2C12.9743 1.99904 13.9154 2.35369 14.6467 2.99738C15.3781 3.64107 15.8493 4.52954 15.9721 5.49605C16.0948 6.46255 15.8606 7.44062 15.3134 8.24669C14.7662 9.05276 13.9436 9.6314 13 9.874V19.938C14.7624 19.7154 16.4007 18.9129 17.6568 17.6568C18.9129 16.4007 19.7154 14.7624 19.938 13H17V11H21.95C21.983 11.329 22 11.663 22 12C22 17.523 17.523 22 12 22C6.477 22 2 17.523 2 12C2 11.663 2.017 11.329 2.05 11ZM12 8C12.5304 8 13.0391 7.78929 13.4142 7.41422C13.7893 7.03914 14 6.53044 14 6C14 5.46957 13.7893 4.96086 13.4142 4.58579C13.0391 4.21072 12.5304 4 12 4C11.4696 4 10.9609 4.21072 10.5858 4.58579C10.2107 4.96086 10 5.46957 10 6C10 6.53044 10.2107 7.03914 10.5858 7.41422C10.9609 7.78929 11.4696 8 12 8Z" fill="black"/>
</svg>
