<svg width="24" height="24" viewBox="0 0 24 24" fill="none" xmlns="http://www.w3.org/2000/svg">
<path d="M18.0001 3H6.00006C5.39605 3.00358 4.80718 3.1894 4.31052 3.53315C3.81385 3.8769 3.43251 4.36257 3.21641 4.92661C3.0003 5.49065 2.95949 6.10679 3.09931 6.6944C3.23913 7.28202 3.55307 7.81374 4.00006 8.22V18C4.00006 18.7956 4.31613 19.5587 4.87874 20.1213C5.44135 20.6839 6.20441 21 7.00006 21H17.0001C17.7957 21 18.5588 20.6839 19.1214 20.1213C19.684 19.5587 20.0001 18.7956 20.0001 18V8.22C20.447 7.81374 20.761 7.28202 20.9008 6.6944C21.0406 6.10679 20.9998 5.49065 20.7837 4.92661C20.5676 4.36257 20.1863 3.8769 19.6896 3.53315C19.1929 3.1894 18.6041 3.00358 18.0001 3ZM15.0001 13.13C15.0001 13.3607 14.9084 13.582 14.7452 13.7452C14.5821 13.9083 14.3608 14 14.1301 14H9.87006C9.63932 14 9.41803 13.9083 9.25488 13.7452C9.09172 13.582 9.00006 13.3607 9.00006 13.13V12.87C9.00006 12.6393 9.09172 12.418 9.25488 12.2548C9.41803 12.0917 9.63932 12 9.87006 12H14.1301C14.3608 12 14.5821 12.0917 14.7452 12.2548C14.9084 12.418 15.0001 12.6393 15.0001 12.87V13.13ZM18.0001 7H6.00006C5.73484 7 5.48049 6.89464 5.29295 6.70711C5.10542 6.51957 5.00006 6.26522 5.00006 6C5.00006 5.73478 5.10542 5.48043 5.29295 5.29289C5.48049 5.10536 5.73484 5 6.00006 5H18.0001C18.2653 5 18.5196 5.10536 18.7072 5.29289C18.8947 5.48043 19.0001 5.73478 19.0001 6C19.0001 6.26522 18.8947 6.51957 18.7072 6.70711C18.5196 6.89464 18.2653 7 18.0001 7Z" fill="black"/>
</svg>
