<svg width="24" height="24" viewBox="0 0 24 24" fill="none" xmlns="http://www.w3.org/2000/svg">
<path d="M11.9999 17C11.7447 16.9987 11.4929 16.9406 11.2628 16.8299C11.0328 16.7192 10.8302 16.5587 10.6699 16.36L6.45995 11.26C6.21394 10.953 6.05913 10.583 6.01316 10.1923C5.9672 9.80153 6.03191 9.40574 6.19995 9.05C6.33623 8.74083 6.55862 8.47741 6.84057 8.29122C7.12251 8.10503 7.45209 8.00393 7.78995 8H16.2099C16.5478 8.00393 16.8774 8.10503 17.1593 8.29122C17.4413 8.47741 17.6637 8.74083 17.7999 9.05C17.968 9.40574 18.0327 9.80153 17.9867 10.1923C17.9408 10.583 17.786 10.953 17.5399 11.26L13.3299 16.36C13.1696 16.5587 12.9671 16.7192 12.7371 16.8299C12.507 16.9406 12.2552 16.9987 11.9999 17Z" fill="black"/>
</svg>
