<svg width="24" height="24" viewBox="0 0 24 24" fill="none" xmlns="http://www.w3.org/2000/svg">
<path d="M12.71 7.29C12.6179 7.20005 12.5092 7.12874 12.39 7.08C12.2667 7.02746 12.1341 7.00026 12 7H11.9C11.8073 7.00457 11.716 7.02486 11.63 7.06C11.5614 7.08674 11.4973 7.12384 11.44 7.17C11.3944 7.19652 11.3509 7.22662 11.31 7.26L8.31001 10.12C8.11773 10.303 8.00602 10.5549 7.99945 10.8203C7.99289 11.0856 8.09201 11.3427 8.27501 11.535C8.45801 11.7273 8.7099 11.839 8.97526 11.8456C9.24062 11.8521 9.49773 11.753 9.69001 11.57L11 10.34V16C11 16.2652 11.1054 16.5196 11.2929 16.7071C11.4804 16.8946 11.7348 17 12 17C12.2652 17 12.5196 16.8946 12.7071 16.7071C12.8947 16.5196 13 16.2652 13 16V10.41L14.29 11.71C14.383 11.8037 14.4936 11.8781 14.6154 11.9289C14.7373 11.9797 14.868 12.0058 15 12.0058C15.132 12.0058 15.2627 11.9797 15.3846 11.9289C15.5064 11.8781 15.617 11.8037 15.71 11.71C15.8037 11.617 15.8781 11.5064 15.9289 11.3846C15.9797 11.2627 16.0058 11.132 16.0058 11C16.0058 10.868 15.9797 10.7373 15.9289 10.6154C15.8781 10.4936 15.8037 10.383 15.71 10.29L12.71 7.29Z" fill="black"/>
<path d="M12 2C10.0222 2 8.08879 2.58649 6.4443 3.6853C4.79981 4.78412 3.51809 6.3459 2.76121 8.17317C2.00433 10.0004 1.8063 12.0111 2.19215 13.9509C2.578 15.8907 3.53041 17.6725 4.92894 19.0711C6.32746 20.4696 8.10929 21.422 10.0491 21.8079C11.9889 22.1937 13.9996 21.9957 15.8268 21.2388C17.6541 20.4819 19.2159 19.2002 20.3147 17.5557C21.4135 15.9112 22 13.9778 22 12C22 10.6868 21.7413 9.38642 21.2388 8.17317C20.7363 6.95991 19.9997 5.85752 19.0711 4.92893C18.1425 4.00035 17.0401 3.26375 15.8268 2.7612C14.6136 2.25866 13.3132 2 12 2V2ZM12 20C10.4178 20 8.87104 19.5308 7.55544 18.6518C6.23985 17.7727 5.21447 16.5233 4.60897 15.0615C4.00347 13.5997 3.84504 11.9911 4.15372 10.4393C4.4624 8.88743 5.22433 7.46197 6.34315 6.34315C7.46197 5.22433 8.88743 4.4624 10.4393 4.15372C11.9911 3.84504 13.5997 4.00346 15.0615 4.60896C16.5233 5.21447 17.7727 6.23984 18.6518 7.55544C19.5308 8.87103 20 10.4177 20 12C20 14.1217 19.1572 16.1566 17.6569 17.6569C16.1566 19.1571 14.1217 20 12 20V20Z" fill="black"/>
</svg>
