<svg width="24" height="24" viewBox="0 0 24 24" fill="none" xmlns="http://www.w3.org/2000/svg">
<path d="M14.3099 12.41L12.9999 13.66V8C12.9999 7.73478 12.8946 7.48043 12.707 7.29289C12.5195 7.10536 12.2652 7 11.9999 7C11.7347 7 11.4804 7.10536 11.2928 7.29289C11.1053 7.48043 10.9999 7.73478 10.9999 8V13.59L9.70994 12.29C9.52164 12.1017 9.26624 11.9959 8.99994 11.9959C8.73364 11.9959 8.47825 12.1017 8.28994 12.29C8.10164 12.4783 7.99585 12.7337 7.99585 13C7.99585 13.2663 8.10164 13.5217 8.28994 13.71L11.2899 16.71C11.385 16.801 11.4972 16.8724 11.6199 16.92C11.7396 16.9729 11.8691 17.0002 11.9999 17.0002C12.1308 17.0002 12.2602 16.9729 12.3799 16.92C12.4387 16.8963 12.4929 16.8625 12.5399 16.82C12.5957 16.7962 12.6466 16.7623 12.6899 16.72L15.6899 13.86C15.8822 13.677 15.9939 13.4251 16.0005 13.1597C16.0071 12.8944 15.9079 12.6373 15.7249 12.445C15.5419 12.2527 15.2901 12.141 15.0247 12.1344C14.7593 12.1279 14.5022 12.227 14.3099 12.41V12.41Z" fill="black"/>
<path d="M12 2C10.0222 2 8.08879 2.58649 6.4443 3.6853C4.79981 4.78412 3.51809 6.3459 2.76121 8.17317C2.00433 10.0004 1.8063 12.0111 2.19215 13.9509C2.578 15.8907 3.53041 17.6725 4.92894 19.0711C6.32746 20.4696 8.10929 21.422 10.0491 21.8079C11.9889 22.1937 13.9996 21.9957 15.8268 21.2388C17.6541 20.4819 19.2159 19.2002 20.3147 17.5557C21.4135 15.9112 22 13.9778 22 12C22 10.6868 21.7413 9.38642 21.2388 8.17317C20.7363 6.95991 19.9997 5.85752 19.0711 4.92893C18.1425 4.00035 17.0401 3.26375 15.8268 2.7612C14.6136 2.25866 13.3132 2 12 2V2ZM12 20C10.4178 20 8.87104 19.5308 7.55544 18.6518C6.23985 17.7727 5.21447 16.5233 4.60897 15.0615C4.00347 13.5997 3.84504 11.9911 4.15372 10.4393C4.4624 8.88743 5.22433 7.46197 6.34315 6.34315C7.46197 5.22433 8.88743 4.4624 10.4393 4.15372C11.9911 3.84504 13.5997 4.00346 15.0615 4.60896C16.5233 5.21447 17.7727 6.23984 18.6518 7.55544C19.5308 8.87103 20 10.4177 20 12C20 14.1217 19.1572 16.1566 17.6569 17.6569C16.1566 19.1571 14.1217 20 12 20V20Z" fill="black"/>
</svg>
