<svg width="24" height="24" viewBox="0 0 24 24" fill="none" xmlns="http://www.w3.org/2000/svg">
<path d="M17.37 12.39L12 16.71L6.64003 12.23C6.53891 12.146 6.42223 12.0826 6.29665 12.0437C6.17106 12.0047 6.03904 11.9909 5.90811 12.003C5.77717 12.015 5.6499 12.0528 5.53356 12.114C5.41721 12.1753 5.31407 12.2589 5.23003 12.36C5.14598 12.4611 5.08268 12.5778 5.04372 12.7034C5.00477 12.829 4.99094 12.961 5.00301 13.0919C5.01508 13.2229 5.05282 13.3501 5.11408 13.4665C5.17534 13.5828 5.25891 13.686 5.36003 13.77L11.36 18.77C11.539 18.9171 11.7634 18.9975 11.995 18.9975C12.2267 18.9975 12.4511 18.9171 12.63 18.77L18.63 13.94C18.7328 13.8575 18.8182 13.7555 18.8813 13.6398C18.9445 13.5242 18.9842 13.3972 18.9981 13.2662C19.0121 13.1352 19 13.0027 18.9626 12.8763C18.9251 12.75 18.8631 12.6323 18.78 12.53C18.6968 12.428 18.5942 12.3435 18.4782 12.2812C18.3622 12.2189 18.2351 12.1802 18.1041 12.1672C17.9731 12.1542 17.8408 12.1672 17.7148 12.2054C17.5889 12.2436 17.4717 12.3064 17.37 12.39V12.39Z" fill="black"/>
<path d="M11.36 11.77C11.539 11.9171 11.7634 11.9975 11.995 11.9975C12.2267 11.9975 12.4511 11.9171 12.63 11.77L18.63 6.94C18.7328 6.85748 18.8182 6.75547 18.8813 6.63983C18.9445 6.52419 18.9842 6.39721 18.9981 6.26618C19.0121 6.13515 19 6.00266 18.9626 5.87632C18.9251 5.74998 18.8631 5.63229 18.78 5.53C18.6975 5.42727 18.5955 5.34187 18.4799 5.2787C18.3642 5.21552 18.2372 5.17582 18.1062 5.16189C17.9752 5.14795 17.8427 5.16004 17.7164 5.19747C17.59 5.2349 17.4723 5.29694 17.37 5.38L12 9.71L6.64003 5.23C6.43581 5.06026 6.17253 4.9786 5.90811 5.00298C5.64368 5.02736 5.39977 5.15578 5.23003 5.36C5.06029 5.56422 4.97863 5.8275 5.00301 6.09192C5.02739 6.35635 5.15581 6.60026 5.36003 6.77L11.36 11.77Z" fill="black"/>
</svg>
