<svg width="24" height="24" viewBox="0 0 24 24" fill="none" xmlns="http://www.w3.org/2000/svg">
<path d="M11.6401 5.22999C11.539 5.14579 11.4223 5.08235 11.2967 5.0433C11.1711 5.00426 11.0391 4.99038 10.9081 5.00245C10.7771 5.01453 10.6498 5.05233 10.5334 5.11368C10.4171 5.17503 10.314 5.25873 10.2301 5.35999L5.23005 11.36C5.08297 11.5389 5.00256 11.7634 5.00256 11.995C5.00256 12.2266 5.08297 12.4511 5.23005 12.63L10.0601 18.63C10.1542 18.746 10.2731 18.8395 10.4081 18.9035C10.543 18.9675 10.6907 19.0005 10.8401 19C11.0293 19.0006 11.2148 18.9476 11.3751 18.847C11.5354 18.7464 11.6638 18.6023 11.7455 18.4316C11.8272 18.2609 11.8588 18.0706 11.8366 17.8826C11.8143 17.6947 11.7393 17.517 11.6201 17.37L7.29005 12L11.7701 6.62999C11.937 6.42649 12.017 6.16537 11.9926 5.90329C11.9683 5.6412 11.8416 5.39927 11.6401 5.22999V5.22999Z" fill="black"/>
<path d="M14.2901 12L18.7701 6.62999C18.9398 6.42577 19.0215 6.16249 18.9971 5.89807C18.9727 5.63364 18.8443 5.38973 18.6401 5.21999C18.4358 5.05025 18.1726 4.96859 17.9081 4.99297C17.6437 5.01735 17.3998 5.14577 17.2301 5.34999L12.2301 11.35C12.083 11.5289 12.0026 11.7534 12.0026 11.985C12.0026 12.2166 12.083 12.4411 12.2301 12.62L17.0601 18.62C17.1542 18.736 17.2731 18.8295 17.4081 18.8935C17.543 18.9575 17.6907 18.9905 17.8401 18.99C18.0293 18.9906 18.2148 18.9376 18.3751 18.837C18.5354 18.7364 18.6638 18.5923 18.7455 18.4216C18.8272 18.251 18.8588 18.0606 18.8366 17.8726C18.8143 17.6847 18.7393 17.507 18.6201 17.36L14.2901 12Z" fill="black"/>
</svg>
