<svg width="24" height="24" viewBox="0 0 24 24" fill="none" xmlns="http://www.w3.org/2000/svg">
<path d="M13 2.00001C10.6354 1.77292 8.26716 2.39503 6.31941 3.75493C4.37167 5.11482 2.97165 7.12368 2.37006 9.42175C1.76847 11.7198 2.00461 14.157 3.0362 16.2968C4.06778 18.4366 5.82743 20.1393 8.00002 21.1C9.25825 21.669 10.6193 21.9752 12 22C14.198 22.0002 16.3348 21.2762 18.08 19.94C18.2906 19.7794 18.4289 19.5418 18.4646 19.2793C18.5002 19.0168 18.4302 18.7509 18.27 18.54C18.1904 18.4343 18.0906 18.3454 17.9764 18.2786C17.8622 18.2117 17.7359 18.1682 17.6047 18.1505C17.4736 18.1328 17.3402 18.1413 17.2124 18.1756C17.0845 18.2098 16.9648 18.2691 16.86 18.35C15.8229 19.1334 14.6105 19.6523 13.3278 19.8618C12.045 20.0714 10.7305 19.9652 9.49802 19.5525C8.26553 19.1398 7.15215 18.433 6.25421 17.4933C5.35627 16.5536 4.70082 15.4092 4.34455 14.1593C3.98829 12.9093 3.94195 11.5913 4.20954 10.3194C4.47712 9.04753 5.05059 7.85998 5.88031 6.85952C6.71002 5.85906 7.77101 5.07583 8.97147 4.57759C10.1719 4.07935 11.4757 3.8811 12.77 4.00001C14.7787 4.2325 16.6299 5.20165 17.9653 6.72001C19.3008 8.23837 20.0258 10.1981 20 12.22V12.9C19.9989 13.1297 19.9514 13.3569 19.8606 13.5679C19.7697 13.7789 19.6372 13.9694 19.4711 14.1281C19.3049 14.2867 19.1085 14.4103 18.8936 14.4914C18.6786 14.5725 18.4496 14.6094 18.22 14.6C17.7622 14.5497 17.3405 14.3278 17.0399 13.9789C16.7393 13.6301 16.5821 13.1802 16.6 12.72V8.40001C16.6 8.13479 16.4947 7.88044 16.3071 7.6929C16.1196 7.50536 15.8652 7.40001 15.6 7.40001C15.3559 7.39794 15.1194 7.48527 14.9352 7.64553C14.751 7.80579 14.6318 8.02791 14.6 8.27001C13.6694 7.39359 12.4384 6.90691 11.16 6.91001C10.2912 6.91652 9.4385 7.14532 8.68313 7.57463C7.92776 8.00394 7.29486 8.61946 6.84468 9.36259C6.39451 10.1057 6.14205 10.9517 6.11135 11.82C6.08065 12.6883 6.27273 13.55 6.6693 14.3231C7.06586 15.0961 7.65371 15.7548 8.37688 16.2364C9.10004 16.718 9.93445 17.0065 10.8006 17.0743C11.6668 17.1422 12.536 16.9872 13.3253 16.6241C14.1146 16.261 14.7979 15.7019 15.31 15C15.6003 15.449 15.9869 15.8278 16.4418 16.1087C16.8968 16.3896 17.4086 16.5657 17.94 16.6241C18.4715 16.6825 19.0093 16.6218 19.5144 16.4464C20.0195 16.271 20.4792 15.9853 20.86 15.61C21.2266 15.2613 21.5171 14.8405 21.7132 14.3742C21.9094 13.9078 22.0071 13.4059 22 12.9V12.22C22.0224 9.70698 21.1162 7.27416 19.4553 5.38811C17.7944 3.50207 15.4957 2.29557 13 2.00001V2.00001ZM11.18 15.09C10.5689 15.09 9.97145 14.9088 9.46331 14.5692C8.95516 14.2297 8.5591 13.7471 8.32523 13.1825C8.09136 12.6179 8.03016 11.9966 8.14939 11.3972C8.26862 10.7978 8.56291 10.2472 8.99506 9.81505C9.4272 9.3829 9.97779 9.08861 10.5772 8.96938C11.1766 8.85015 11.7979 8.91134 12.3625 9.14522C12.9271 9.37909 13.4097 9.77515 13.7493 10.2833C14.0888 10.7914 14.27 11.3889 14.27 12C14.2674 12.8187 13.941 13.6031 13.3621 14.1821C12.7831 14.761 11.9987 15.0874 11.18 15.09V15.09Z" fill="black"/>
</svg>
