<svg width="24" height="24" viewBox="0 0 24 24" fill="none" xmlns="http://www.w3.org/2000/svg">
<path d="M12 22C10.4491 22.0376 8.94653 21.4587 7.82179 20.3902C6.69705 19.3217 6.0419 17.8508 6 16.3V6.12999C6.02883 5.0089 6.50064 3.94489 7.31216 3.17085C8.12368 2.39682 9.20879 1.97582 10.33 1.99999C11.4529 1.97313 12.5406 2.39294 13.3543 3.16726C14.168 3.94158 14.6412 5.00713 14.67 6.12999V16.31C14.6284 16.9886 14.3295 17.6257 13.8343 18.0915C13.3391 18.5573 12.6849 18.8167 12.005 18.8167C11.3251 18.8167 10.6709 18.5573 10.1757 18.0915C9.68047 17.6257 9.38159 16.9886 9.34 16.31V6.91999C9.34 6.65478 9.44536 6.40042 9.63289 6.21289C9.82043 6.02535 10.0748 5.91999 10.34 5.91999C10.6052 5.91999 10.8596 6.02535 11.0471 6.21289C11.2346 6.40042 11.34 6.65478 11.34 6.91999V16.31C11.3599 16.4723 11.4386 16.6217 11.5611 16.7301C11.6836 16.8385 11.8415 16.8983 12.005 16.8983C12.1685 16.8983 12.3264 16.8385 12.4489 16.7301C12.5714 16.6217 12.6501 16.4723 12.67 16.31V6.12999C12.6389 5.5384 12.3758 4.98294 11.9377 4.58417C11.4996 4.18539 10.9219 3.97548 10.33 3.99999C9.73979 3.97817 9.16467 4.1893 8.72876 4.58779C8.29285 4.98629 8.0311 5.5402 8 6.12999V16.3C8.04163 17.3204 8.48597 18.2828 9.23569 18.9763C9.98541 19.6698 10.9794 20.0379 12 20C13.0206 20.0379 14.0146 19.6698 14.7643 18.9763C15.514 18.2828 15.9584 17.3204 16 16.3V6.12999C16 5.86478 16.1054 5.61042 16.2929 5.42289C16.4804 5.23535 16.7348 5.12999 17 5.12999C17.2652 5.12999 17.5196 5.23535 17.7071 5.42289C17.8946 5.61042 18 5.86478 18 6.12999V16.3C17.9581 17.8508 17.303 19.3217 16.1782 20.3902C15.0535 21.4587 13.5509 22.0376 12 22V22Z" fill="black"/>
</svg>
