<svg width="24" height="24" viewBox="0 0 24 24" fill="none" xmlns="http://www.w3.org/2000/svg">
<path d="M14.828 7.75701L9.17198 13.414C9.07647 13.5063 9.00029 13.6166 8.94788 13.7386C8.89547 13.8606 8.86789 13.9918 8.86673 14.1246C8.86558 14.2574 8.89088 14.3891 8.94116 14.512C8.99144 14.6349 9.06569 14.7465 9.15959 14.8404C9.25348 14.9343 9.36513 15.0086 9.48803 15.0588C9.61092 15.1091 9.7426 15.1344 9.87538 15.1333C10.0082 15.1321 10.1394 15.1045 10.2614 15.0521C10.3834 14.9997 10.4937 14.9235 10.586 14.828L16.243 9.17201C16.8056 8.60935 17.1217 7.84623 17.1217 7.05051C17.1217 6.25479 16.8056 5.49167 16.243 4.92901C15.6803 4.36635 14.9172 4.05026 14.1215 4.05026C13.3258 4.05026 12.5626 4.36635 12 4.92901L6.34298 10.586C5.86906 11.0481 5.49161 11.5998 5.23254 12.2089C4.97347 12.818 4.83793 13.4726 4.83378 14.1345C4.82963 14.7964 4.95696 15.4526 5.20838 16.0649C5.4598 16.6773 5.8303 17.2336 6.2984 17.7016C6.76649 18.1696 7.32286 18.5401 7.93524 18.7914C8.54761 19.0427 9.20379 19.17 9.86572 19.1657C10.5276 19.1615 11.1821 19.0258 11.7912 18.7667C12.4003 18.5075 12.9519 18.13 13.414 17.656L19.071 12L20.485 13.414L14.828 19.071C14.1779 19.7211 13.4062 20.2367 12.5569 20.5885C11.7076 20.9403 10.7973 21.1214 9.87798 21.1214C8.95868 21.1214 8.04838 20.9403 7.19906 20.5885C6.34974 20.2367 5.57802 19.7211 4.92798 19.071C4.27794 18.421 3.7623 17.6493 3.41049 16.7999C3.05869 15.9506 2.87762 15.0403 2.87762 14.121C2.87762 13.2017 3.05869 12.2914 3.41049 11.4421C3.7623 10.5928 4.27794 9.82105 4.92798 9.17101L10.586 3.51501C11.529 2.60422 12.792 2.10025 14.103 2.11164C15.414 2.12303 16.668 2.64888 17.5951 3.57592C18.5221 4.50296 19.048 5.75702 19.0594 7.068C19.0707 8.37899 18.5668 9.642 17.656 10.585L12 16.244C11.7213 16.5226 11.3905 16.7436 11.0264 16.8943C10.6624 17.0451 10.2722 17.1227 9.87813 17.1226C9.48408 17.1226 9.09391 17.0449 8.72987 16.8941C8.36584 16.7432 8.03508 16.5222 7.75648 16.2435C7.47788 15.9648 7.2569 15.634 7.10615 15.27C6.95539 14.9059 6.87783 14.5157 6.87787 14.1217C6.87792 13.7276 6.95558 13.3374 7.10642 12.9734C7.25725 12.6094 7.47832 12.2786 7.75698 12L13.414 6.34301L14.828 7.75701Z" fill="currentColor"/>
</svg>
