<svg width="24" height="24" viewBox="0 0 24 24" fill="none" xmlns="http://www.w3.org/2000/svg">
<path d="M15.88 18.71L15.29 18.12L14 16.78L13.93 16.71L6.58004 9.4L5.31004 8.14C5.29982 8.33653 5.29982 8.53346 5.31004 8.73V13.4L3.51004 15.21C3.28559 15.438 3.13274 15.7267 3.07033 16.0405C3.00791 16.3543 3.03865 16.6796 3.15876 16.9761C3.27887 17.2727 3.48311 17.5276 3.74631 17.7095C4.0095 17.8915 4.32017 17.9924 4.64004 18H8.00004V18.34C8.04675 19.3552 8.49399 20.3105 9.24377 20.9965C9.99354 21.6826 10.9847 22.0434 12 22C12.9446 22.0429 13.8724 21.7393 14.6089 21.1464C15.3455 20.5534 15.8402 19.7119 16 18.78L15.88 18.71ZM14 18.34C13.9446 18.821 13.7057 19.2621 13.3331 19.5713C12.9605 19.8805 12.483 20.0341 12 20C11.5171 20.0341 11.0395 19.8805 10.667 19.5713C10.2944 19.2621 10.0555 18.821 10 18.34V18H14V18.34Z" fill="black"/>
<path d="M7.13 4.30001L8.59 5.76001L18.12 15.29L20.12 17.29L20.43 17.59C20.626 17.429 20.7803 17.2232 20.88 16.99C21.0059 16.6923 21.0399 16.3636 20.9775 16.0464C20.9151 15.7292 20.7593 15.4379 20.53 15.21L18.73 13.4V8.94001C18.7536 7.28235 18.1761 5.67223 17.1043 4.40743C16.0326 3.14264 14.5391 2.30875 12.9 2.06001C11.9497 1.9327 10.9831 2.01053 10.0655 2.28825C9.14777 2.56597 8.30025 3.03714 7.58 3.67001C7.37645 3.83871 7.1828 4.01901 7 4.21001L7.13 4.30001Z" fill="black"/>
<path d="M20.7099 19.29L19.4099 18L17.4099 16L7.88994 6.47L6.41994 5L4.70994 3.29C4.6167 3.19676 4.50601 3.1228 4.38419 3.07234C4.26237 3.02188 4.1318 2.99591 3.99994 2.99591C3.86808 2.99591 3.73751 3.02188 3.61569 3.07234C3.49387 3.1228 3.38318 3.19676 3.28994 3.29C3.10164 3.47831 2.99585 3.7337 2.99585 4C2.99585 4.2663 3.10164 4.5217 3.28994 4.71L5.52994 7L7.27994 8.7L14.5899 16L14.6599 16.07L15.9999 17.41L16.5899 18L19.2899 20.71C19.3829 20.8037 19.4935 20.8781 19.6154 20.9289C19.7372 20.9797 19.8679 21.0058 19.9999 21.0058C20.132 21.0058 20.2627 20.9797 20.3845 20.9289C20.5064 20.8781 20.617 20.8037 20.7099 20.71C20.8037 20.617 20.8781 20.5064 20.9288 20.3846C20.9796 20.2627 21.0057 20.132 21.0057 20C21.0057 19.868 20.9796 19.7373 20.9288 19.6154C20.8781 19.4936 20.8037 19.383 20.7099 19.29V19.29Z" fill="black"/>
</svg>
