<svg width="24" height="24" viewBox="0 0 24 24" fill="none" xmlns="http://www.w3.org/2000/svg">
<path d="M13.63 12L17.6299 8.21C17.7543 8.09373 17.851 7.9511 17.9129 7.79258C17.9749 7.63406 18.0006 7.46367 17.9882 7.29392C17.9757 7.12417 17.9254 6.95936 17.8409 6.8116C17.7564 6.66383 17.6399 6.53686 17.5 6.44L12.8299 3.21C12.6548 3.08739 12.4494 3.01511 12.2361 3.00101C12.0228 2.9869 11.8097 3.03152 11.6199 3.13C11.4361 3.22541 11.2815 3.36869 11.1724 3.54471C11.0632 3.72072 11.0037 3.92294 10.9999 4.13V10.33L7.80995 6.33C7.63756 6.12313 7.39005 5.99322 7.12187 5.96884C6.8537 5.94446 6.58682 6.02761 6.37995 6.2C6.17308 6.37239 6.04317 6.6199 6.01879 6.88808C5.99441 7.15626 6.07756 7.42313 6.24995 7.63L9.71995 12L6.21995 16.43C6.05644 16.6372 5.9815 16.9007 6.01148 17.163C6.04145 17.4252 6.1739 17.665 6.37995 17.83C6.56227 17.9534 6.78021 18.0131 6.99995 18C7.15016 17.9993 7.29827 17.9648 7.43331 17.899C7.56834 17.8332 7.68682 17.7379 7.77995 17.62L10.9999 13.56V19.85C11.0026 20.1559 11.126 20.4484 11.3432 20.6638C11.5605 20.8792 11.854 21 12.1599 21C12.3996 21.0009 12.6337 20.9275 12.8299 20.79L17.4699 17.61C17.6083 17.5122 17.7238 17.3856 17.8084 17.2388C17.893 17.0921 17.9447 16.9287 17.9599 16.76C17.9731 16.5927 17.9495 16.4245 17.8908 16.2673C17.832 16.1101 17.7396 15.9677 17.62 15.85L13.63 12ZM12.9999 5.76L15.5 7.49L12.9999 9.85V5.76ZM12.9999 18.25V14.18L15.47 16.56L12.9999 18.25Z" fill="black"/>
</svg>
