<svg width="24" height="24" viewBox="0 0 24 24" fill="none" xmlns="http://www.w3.org/2000/svg">
<path d="M21 4.34C20.85 4.22084 20.6744 4.13806 20.487 4.09815C20.2996 4.05825 20.1056 4.0623 19.92 4.11L13 5.89V20.16L20.56 18.22C20.8304 18.1508 21.0699 17.9931 21.2402 17.772C21.4106 17.5509 21.502 17.2791 21.5 17V5.32C21.4969 5.12933 21.4503 4.9419 21.3636 4.77204C21.277 4.60217 21.1526 4.45439 21 4.34Z" fill="black"/>
<path d="M11 5.89001L4.05999 4.11001C3.87728 4.0677 3.68748 4.06638 3.5042 4.10615C3.32093 4.14592 3.14873 4.22578 2.99999 4.34001C2.84842 4.45851 2.72625 4.6104 2.64299 4.78385C2.55974 4.9573 2.51764 5.14762 2.51999 5.34001V17C2.5202 17.2774 2.61268 17.5469 2.78286 17.7659C2.95304 17.985 3.19126 18.1412 3.45999 18.21L11 20.16V5.89001Z" fill="black"/>
</svg>
