<svg width="24" height="24" viewBox="0 0 24 24" fill="none" xmlns="http://www.w3.org/2000/svg">
<path d="M20.6201 4.22C20.5039 4.12602 20.3681 4.05928 20.2228 4.02466C20.0774 3.99005 19.9261 3.98846 19.7801 4.02L12.0001 5.77L4.22006 4C4.07168 3.96649 3.91762 3.96727 3.76959 4.00228C3.62156 4.03729 3.48347 4.10561 3.36583 4.20204C3.24819 4.29847 3.15409 4.42047 3.09071 4.55874C3.02732 4.69702 2.99632 4.84794 3.00006 5V17.2C2.99441 17.4312 3.06904 17.6571 3.21126 17.8395C3.35347 18.0218 3.55448 18.1492 3.78006 18.2L11.7801 20H12.2201L20.2201 18.2C20.4456 18.1492 20.6466 18.0218 20.7889 17.8395C20.9311 17.6571 21.0057 17.4312 21.0001 17.2V5C20.9994 4.8498 20.9648 4.70168 20.8991 4.56664C20.8333 4.43161 20.7379 4.31313 20.6201 4.22ZM5.00006 6.25L11.0001 7.6V17.75L5.00006 16.4V6.25ZM19.0001 16.4L13.0001 17.75V7.6L19.0001 6.25V16.4Z" fill="black"/>
</svg>
