<svg width="24" height="24" viewBox="0 0 24 24" fill="none" xmlns="http://www.w3.org/2000/svg">
<path d="M20 6.83C20.0049 6.45861 19.9348 6.09005 19.7939 5.74639C19.653 5.40273 19.4442 5.09104 19.18 4.83C18.6419 4.31416 17.9253 4.02617 17.18 4.02617C16.4346 4.02617 15.718 4.31416 15.18 4.83L8.57996 11.43H8.35996C7.22741 11.4604 6.14978 11.9246 5.34959 12.7266C4.5494 13.5287 4.08775 14.6074 4.05996 15.74L3.99996 19C3.99652 19.135 4.02044 19.2692 4.07028 19.3947C4.12012 19.5201 4.19485 19.6342 4.28996 19.73C4.48464 19.9055 4.73789 20.0018 4.99996 20L8.25996 19.94C9.39258 19.9122 10.4713 19.4506 11.2733 18.6504C12.0754 17.8502 12.5395 16.7726 12.57 15.64V15.41L19.18 8.81C19.4427 8.552 19.6507 8.24369 19.7916 7.90349C19.9325 7.5633 20.0033 7.1982 20 6.83V6.83ZM8.24996 17.94L5.99996 18V15.77C6.01045 15.1404 6.26793 14.5402 6.71689 14.0987C7.16584 13.6573 7.77031 13.4099 8.39996 13.41C8.6857 13.41 8.96858 13.4669 9.23207 13.5774C9.49556 13.6879 9.73438 13.8499 9.93456 14.0538C10.1347 14.2577 10.2923 14.4995 10.3979 14.7649C10.5036 15.0304 10.5553 15.3143 10.55 15.6C10.5352 16.2091 10.2894 16.7899 9.86228 17.2244C9.43516 17.659 8.85875 17.9148 8.24996 17.94V17.94ZM17.77 7.39L11.9 13.26C11.7464 13.0314 11.5723 12.8172 11.38 12.62C11.1854 12.4248 10.9709 12.2505 10.74 12.1L16.61 6.24C16.7662 6.09084 16.9739 6.00762 17.19 6.00762C17.406 6.00762 17.6137 6.09084 17.77 6.24C17.846 6.31786 17.9055 6.41022 17.945 6.51159C17.9845 6.61296 18.0032 6.72125 18 6.83C18.0003 6.93388 17.9802 7.03681 17.9407 7.13291C17.9013 7.229 17.8432 7.31636 17.77 7.39V7.39Z" fill="black"/>
</svg>
