<svg width="24" height="24" viewBox="0 0 24 24" fill="none" xmlns="http://www.w3.org/2000/svg">
<path d="M12 7C10.9506 7 9.92778 7.33019 9.07645 7.94379C8.22512 8.55739 7.58844 9.4233 7.25658 10.4189C6.92473 11.4144 6.91453 12.4892 7.22743 13.4908C7.54033 14.4925 8.16047 15.3704 9 16V20C9 20.5304 9.21071 21.0391 9.58579 21.4142C9.96086 21.7893 10.4696 22 11 22H13C13.5304 22 14.0391 21.7893 14.4142 21.4142C14.7893 21.0391 15 20.5304 15 20V16C15.8395 15.3704 16.4597 14.4925 16.7726 13.4908C17.0855 12.4892 17.0753 11.4144 16.7434 10.4189C16.4116 9.4233 15.7749 8.55739 14.9236 7.94379C14.0722 7.33019 13.0494 7 12 7V7Z" fill="black"/>
<path d="M12 6C12.2652 6 12.5196 5.89464 12.7071 5.70711C12.8946 5.51957 13 5.26522 13 5V3C13 2.73478 12.8946 2.48043 12.7071 2.29289C12.5196 2.10536 12.2652 2 12 2C11.7348 2 11.4804 2.10536 11.2929 2.29289C11.1054 2.48043 11 2.73478 11 3V5C11 5.26522 11.1054 5.51957 11.2929 5.70711C11.4804 5.89464 11.7348 6 12 6Z" fill="black"/>
<path d="M21 11H19C18.7348 11 18.4804 11.1054 18.2929 11.2929C18.1054 11.4804 18 11.7348 18 12C18 12.2652 18.1054 12.5196 18.2929 12.7071C18.4804 12.8946 18.7348 13 19 13H21C21.2652 13 21.5196 12.8946 21.7071 12.7071C21.8946 12.5196 22 12.2652 22 12C22 11.7348 21.8946 11.4804 21.7071 11.2929C21.5196 11.1054 21.2652 11 21 11Z" fill="black"/>
<path d="M5 11H3C2.73478 11 2.48043 11.1054 2.29289 11.2929C2.10536 11.4804 2 11.7348 2 12C2 12.2652 2.10536 12.5196 2.29289 12.7071C2.48043 12.8946 2.73478 13 3 13H5C5.26522 13 5.51957 12.8946 5.70711 12.7071C5.89464 12.5196 6 12.2652 6 12C6 11.7348 5.89464 11.4804 5.70711 11.2929C5.51957 11.1054 5.26522 11 5 11Z" fill="black"/>
<path d="M7.65999 6.41999L6.21999 4.99999C6.02505 4.81567 5.76488 4.71633 5.4967 4.72383C5.22852 4.73133 4.97431 4.84506 4.78999 5.03999C4.60566 5.23493 4.50632 5.4951 4.51382 5.76328C4.52133 6.03145 4.63505 6.28567 4.82999 6.46999L6.26999 7.85999C6.36662 7.9533 6.48107 8.02619 6.60649 8.07429C6.73191 8.1224 6.86574 8.14475 6.99999 8.13999C7.13469 8.13948 7.2679 8.11175 7.39163 8.05848C7.51535 8.00521 7.62704 7.9275 7.71999 7.82999C7.89849 7.63481 7.9924 7.37686 7.98115 7.1126C7.96991 6.84834 7.85442 6.5993 7.65999 6.41999V6.41999Z" fill="black"/>
<path d="M19.19 5.04999C19.0026 4.86374 18.7492 4.7592 18.485 4.7592C18.2208 4.7592 17.9673 4.86374 17.78 5.04999L16.34 6.41999C16.1537 6.60736 16.0492 6.86081 16.0492 7.12499C16.0492 7.38918 16.1537 7.64263 16.34 7.82999C16.4329 7.9275 16.5446 8.00521 16.6683 8.05848C16.7921 8.11176 16.9253 8.13948 17.06 8.13999C17.3175 8.13897 17.5646 8.03867 17.75 7.85999L19.19 6.46999C19.2837 6.37703 19.3581 6.26643 19.4089 6.14457C19.4596 6.02271 19.4858 5.89201 19.4858 5.75999C19.4858 5.62798 19.4596 5.49728 19.4089 5.37542C19.3581 5.25356 19.2837 5.14296 19.19 5.04999V5.04999Z" fill="black"/>
</svg>
