<svg width="24" height="24" viewBox="0 0 24 24" fill="none" xmlns="http://www.w3.org/2000/svg">
<path d="M11.28 13H7.00004C6.82553 12.9989 6.65433 12.9522 6.50346 12.8645C6.35258 12.7768 6.2273 12.6511 6.14004 12.5C6.05227 12.348 6.00607 12.1755 6.00607 12C6.00607 11.8245 6.05227 11.652 6.14004 11.5L9.28004 6H4.17004C3.56065 6.03612 2.99033 6.31198 2.58372 6.76732C2.1771 7.22265 1.96726 7.82042 2.00004 8.43V15.57C1.96726 16.1796 2.1771 16.7774 2.58372 17.2327C2.99033 17.688 3.56065 17.9639 4.17004 18H8.42004L11.28 13Z" fill="black"/>
<path d="M15.83 6H11.58L8.71997 11H13C13.1745 11.0011 13.3457 11.0478 13.4966 11.1355C13.6474 11.2232 13.7727 11.3489 13.86 11.5C13.9477 11.652 13.9939 11.8245 13.9939 12C13.9939 12.1755 13.9477 12.348 13.86 12.5L10.72 18H15.83C16.4394 17.9639 17.0097 17.688 17.4163 17.2327C17.8229 16.7774 18.0328 16.1796 18 15.57V8.43C18.0328 7.82042 17.8229 7.22265 17.4163 6.76732C17.0097 6.31198 16.4394 6.03612 15.83 6V6Z" fill="black"/>
<path d="M21 9C20.7348 9 20.4804 9.10536 20.2929 9.29289C20.1054 9.48043 20 9.73478 20 10V14C20 14.2652 20.1054 14.5196 20.2929 14.7071C20.4804 14.8946 20.7348 15 21 15C21.2652 15 21.5196 14.8946 21.7071 14.7071C21.8946 14.5196 22 14.2652 22 14V10C22 9.73478 21.8946 9.48043 21.7071 9.29289C21.5196 9.10536 21.2652 9 21 9Z" fill="black"/>
</svg>
