<svg width="24" height="24" viewBox="0 0 24 24" fill="none" xmlns="http://www.w3.org/2000/svg">
<path d="M18 3H6C5.20435 3 4.44129 3.31607 3.87868 3.87868C3.31607 4.44129 3 5.20435 3 6V18C3 18.7956 3.31607 19.5587 3.87868 20.1213C4.44129 20.6839 5.20435 21 6 21H18C18.7956 21 19.5587 20.6839 20.1213 20.1213C20.6839 19.5587 21 18.7956 21 18V6C21 5.20435 20.6839 4.44129 20.1213 3.87868C19.5587 3.31607 18.7956 3 18 3ZM19 18C19 18.2652 18.8946 18.5196 18.7071 18.7071C18.5196 18.8946 18.2652 19 18 19H6C5.73478 19 5.48043 18.8946 5.29289 18.7071C5.10536 18.5196 5 18.2652 5 18V6C5 5.73478 5.10536 5.48043 5.29289 5.29289C5.48043 5.10536 5.73478 5 6 5H18C18.2652 5 18.5196 5.10536 18.7071 5.29289C18.8946 5.48043 19 5.73478 19 6V18Z" fill="black"/>
<path d="M14.6999 8.38999L10.9199 13.39L9.28994 11.28C9.12684 11.0705 8.88718 10.9343 8.62369 10.9015C8.3602 10.8687 8.09447 10.9419 7.88495 11.105C7.67542 11.2681 7.53928 11.5078 7.50646 11.7713C7.47364 12.0347 7.54684 12.3005 7.70994 12.51L10.1399 15.62C10.2341 15.7392 10.3542 15.8353 10.4911 15.9012C10.628 15.967 10.7781 16.0008 10.9299 16C11.0827 15.9996 11.2333 15.9643 11.3702 15.8967C11.5071 15.8291 11.6268 15.731 11.7199 15.61L16.2899 9.60999C16.4517 9.39782 16.5226 9.13007 16.487 8.86564C16.4513 8.60122 16.3121 8.36178 16.0999 8.19999C15.8878 8.03821 15.62 7.96734 15.3556 8.00297C15.0912 8.0386 14.8517 8.17782 14.6899 8.38999H14.6999Z" fill="black"/>
</svg>
