<svg width="24" height="24" viewBox="0 0 24 24" fill="none" xmlns="http://www.w3.org/2000/svg">
<path d="M18 3H6C5.20435 3 4.44129 3.31607 3.87868 3.87868C3.31607 4.44129 3 5.20435 3 6V18C3 18.7956 3.31607 19.5587 3.87868 20.1213C4.44129 20.6839 5.20435 21 6 21H18C18.7956 21 19.5587 20.6839 20.1213 20.1213C20.6839 19.5587 21 18.7956 21 18V6C21 5.20435 20.6839 4.44129 20.1213 3.87868C19.5587 3.31607 18.7956 3 18 3ZM16.3 9.61L11.73 15.61C11.6368 15.731 11.5172 15.8291 11.3803 15.8967C11.2433 15.9643 11.0927 15.9996 10.94 16C10.7881 16.0008 10.638 15.967 10.5011 15.9012C10.3643 15.8353 10.2442 15.7392 10.15 15.62L7.71 12.51C7.62924 12.4063 7.5697 12.2876 7.53478 12.1609C7.49987 12.0341 7.49026 11.9017 7.50652 11.7713C7.52277 11.6408 7.56455 11.5148 7.62949 11.4005C7.69443 11.2862 7.78126 11.1858 7.885 11.105C8.09452 10.9419 8.36026 10.8687 8.62374 10.9015C8.75421 10.9178 8.8802 10.9596 8.99451 11.0245C9.10883 11.0894 9.20924 11.1763 9.29 11.28L10.92 13.36L14.7 8.36C14.7801 8.25494 14.8801 8.16669 14.9943 8.10029C15.1085 8.03388 15.2347 7.99062 15.3657 7.97298C15.4966 7.95534 15.6297 7.96365 15.7574 7.99746C15.8851 8.03126 16.0049 8.08989 16.11 8.17C16.2151 8.25011 16.3033 8.35012 16.3697 8.46433C16.4361 8.57855 16.4794 8.70472 16.497 8.83565C16.5147 8.96658 16.5063 9.0997 16.4725 9.22742C16.4387 9.35514 16.3801 9.47494 16.3 9.58V9.61Z" fill="black"/>
</svg>
