<svg width="24" height="24" viewBox="0 0 24 24" fill="none" xmlns="http://www.w3.org/2000/svg">
<path d="M18 3H6C5.20435 3 4.44129 3.31607 3.87868 3.87868C3.31607 4.44129 3 5.20435 3 6V18C3 18.7956 3.31607 19.5587 3.87868 20.1213C4.44129 20.6839 5.20435 21 6 21H18C18.7956 21 19.5587 20.6839 20.1213 20.1213C20.6839 19.5587 21 18.7956 21 18V6C21 5.20435 20.6839 4.44129 20.1213 3.87868C19.5587 3.31607 18.7956 3 18 3ZM19 18C19 18.2652 18.8946 18.5196 18.7071 18.7071C18.5196 18.8946 18.2652 19 18 19H6C5.73478 19 5.48043 18.8946 5.29289 18.7071C5.10536 18.5196 5 18.2652 5 18V6C5 5.73478 5.10536 5.48043 5.29289 5.29289C5.48043 5.10536 5.73478 5 6 5H18C18.2652 5 18.5196 5.10536 18.7071 5.29289C18.8946 5.48043 19 5.73478 19 6V18Z" fill="black"/>
<path d="M14.7099 9.29C14.617 9.19627 14.5064 9.12188 14.3845 9.07111C14.2627 9.02034 14.132 8.9942 13.9999 8.9942C13.8679 8.9942 13.7372 9.02034 13.6154 9.07111C13.4935 9.12188 13.3829 9.19627 13.2899 9.29L11.9999 10.59L10.7099 9.29C10.5216 9.1017 10.2662 8.99591 9.99994 8.99591C9.73364 8.99591 9.47824 9.1017 9.28994 9.29C9.10164 9.4783 8.99585 9.7337 8.99585 10C8.99585 10.2663 9.10164 10.5217 9.28994 10.71L10.5899 12L9.28994 13.29C9.19621 13.383 9.12182 13.4936 9.07105 13.6154C9.02028 13.7373 8.99414 13.868 8.99414 14C8.99414 14.132 9.02028 14.2627 9.07105 14.3846C9.12182 14.5064 9.19621 14.617 9.28994 14.71C9.3829 14.8037 9.4935 14.8781 9.61536 14.9289C9.73722 14.9797 9.86793 15.0058 9.99994 15.0058C10.132 15.0058 10.2627 14.9797 10.3845 14.9289C10.5064 14.8781 10.617 14.8037 10.7099 14.71L11.9999 13.41L13.2899 14.71C13.3829 14.8037 13.4935 14.8781 13.6154 14.9289C13.7372 14.9797 13.8679 15.0058 13.9999 15.0058C14.132 15.0058 14.2627 14.9797 14.3845 14.9289C14.5064 14.8781 14.617 14.8037 14.7099 14.71C14.8037 14.617 14.8781 14.5064 14.9288 14.3846C14.9796 14.2627 15.0057 14.132 15.0057 14C15.0057 13.868 14.9796 13.7373 14.9288 13.6154C14.8781 13.4936 14.8037 13.383 14.7099 13.29L13.4099 12L14.7099 10.71C14.8037 10.617 14.8781 10.5064 14.9288 10.3846C14.9796 10.2627 15.0057 10.132 15.0057 10C15.0057 9.86799 14.9796 9.73728 14.9288 9.61542C14.8781 9.49356 14.8037 9.38296 14.7099 9.29V9.29Z" fill="black"/>
</svg>
