<svg width="24" height="24" viewBox="0 0 24 24" fill="none" xmlns="http://www.w3.org/2000/svg">
<path d="M8.64005 5.23001C8.539 5.1458 8.42234 5.08236 8.29673 5.04332C8.17113 5.00427 8.03906 4.99039 7.90808 5.00247C7.7771 5.01454 7.6498 5.05234 7.53345 5.11369C7.4171 5.17504 7.314 5.25875 7.23005 5.36001L2.23005 11.36C2.08297 11.5389 2.00256 11.7634 2.00256 11.995C2.00256 12.2266 2.08297 12.4511 2.23005 12.63L7.06005 18.63C7.15417 18.746 7.27309 18.8395 7.40807 18.9035C7.54305 18.9675 7.69066 19.0005 7.84005 19C8.02929 19.0007 8.21482 18.9476 8.3751 18.847C8.53538 18.7464 8.66382 18.6024 8.7455 18.4317C8.82719 18.261 8.85876 18.0706 8.83655 17.8827C8.81435 17.6947 8.73927 17.517 8.62005 17.37L4.29005 12L8.77005 6.64001C8.85425 6.53896 8.91769 6.42229 8.95674 6.29669C8.99578 6.17108 9.00966 6.03901 8.99759 5.90803C8.98551 5.77706 8.94772 5.64975 8.88636 5.5334C8.82501 5.41706 8.74131 5.31395 8.64005 5.23001V5.23001Z" fill="black"/>
<path d="M21.7801 11.37L17.0001 5.37C16.9175 5.26728 16.8155 5.18187 16.6999 5.1187C16.5842 5.05552 16.4573 5.01583 16.3262 5.00189C16.1952 4.98795 16.0627 5.00004 15.9364 5.03747C15.81 5.07491 15.6923 5.13694 15.5901 5.22C15.4873 5.30253 15.4019 5.40454 15.3387 5.52017C15.2756 5.63581 15.2359 5.76279 15.2219 5.89382C15.208 6.02485 15.2201 6.15734 15.2575 6.28368C15.295 6.41002 15.357 6.52772 15.4401 6.63L19.7101 12L15.2301 17.37C15.1458 17.4711 15.0824 17.5877 15.0434 17.7133C15.0043 17.8389 14.9904 17.971 15.0025 18.102C15.0146 18.233 15.0524 18.3603 15.1137 18.4766C15.1751 18.593 15.2588 18.6961 15.3601 18.78C15.5413 18.9255 15.7676 19.0033 16.0001 19C16.147 19.0002 16.2921 18.9681 16.4252 18.9059C16.5583 18.8437 16.676 18.7529 16.7701 18.64L21.7701 12.64C21.9185 12.4622 22.0007 12.2384 22.0025 12.0068C22.0044 11.7752 21.9257 11.5501 21.7801 11.37V11.37Z" fill="black"/>
</svg>
