<svg width="24" height="24" viewBox="0 0 24 24" fill="none" xmlns="http://www.w3.org/2000/svg">
<path d="M19.54 5.08001C18.5374 4.08443 17.346 3.29915 16.0358 2.77025C14.7255 2.24135 13.3229 1.97948 11.91 2.00001C9.25788 1.99338 6.7117 3.04059 4.83165 4.91126C2.9516 6.78194 1.89167 9.32284 1.88504 11.975C1.87841 14.6272 2.92562 17.1733 4.7963 19.0534C6.66697 20.9334 9.20788 21.9934 11.86 22C12.4315 22.0097 12.9901 21.8294 13.448 21.4873C13.9059 21.1452 14.2373 20.6608 14.39 20.11C14.4874 19.7123 14.4864 19.2968 14.3871 18.8995C14.2878 18.5022 14.0932 18.1351 13.82 17.83C13.7569 17.7581 13.7157 17.6697 13.7013 17.5751C13.6869 17.4805 13.7 17.3838 13.739 17.2964C13.7779 17.209 13.8411 17.1346 13.9211 17.0821C14.001 17.0296 14.0944 17.0011 14.19 17H15.84C17.393 17.0073 18.8912 16.4268 20.0338 15.375C21.1764 14.3233 21.8789 12.8782 22 11.33C22.0372 10.1756 21.8382 9.0258 21.4152 7.95107C20.9922 6.87633 20.3541 5.89934 19.54 5.08001V5.08001ZM6.84004 14.74C6.59451 14.9069 6.30499 14.9971 6.00813 14.9994C5.71128 15.0016 5.42044 14.9157 5.17243 14.7525C4.92443 14.5893 4.73042 14.3562 4.61497 14.0828C4.49952 13.8093 4.46782 13.5077 4.52388 13.2161C4.57995 12.9246 4.72125 12.6563 4.92991 12.4451C5.13856 12.2339 5.40518 12.0894 5.69602 12.0299C5.98685 11.9703 6.28881 11.9984 6.56367 12.1106C6.83852 12.2228 7.07392 12.414 7.24004 12.66C7.35136 12.8225 7.42935 13.0055 7.46951 13.1983C7.50967 13.3911 7.51119 13.59 7.474 13.7835C7.4368 13.9769 7.36162 14.161 7.2528 14.3252C7.14398 14.4894 7.00369 14.6304 6.84004 14.74V14.74ZM8.30004 9.25001C8.15776 9.51353 7.93985 9.72842 7.67438 9.86703C7.40891 10.0056 7.10803 10.0616 6.81047 10.0277C6.51292 9.99385 6.23232 9.87168 6.00479 9.67695C5.77727 9.48222 5.61325 9.22384 5.53384 8.93509C5.45443 8.64633 5.46327 8.34041 5.55923 8.05673C5.65519 7.77304 5.83387 7.52457 6.07226 7.34331C6.31065 7.16205 6.59784 7.05629 6.89686 7.03967C7.19587 7.02304 7.49302 7.0963 7.75004 7.25001C8.08168 7.44835 8.32399 7.76702 8.42645 8.13962C8.52892 8.51221 8.48363 8.90998 8.30004 9.25001V9.25001ZM11 7.00001C10.7034 7.00001 10.4134 6.91203 10.1667 6.74721C9.92001 6.58239 9.72775 6.34812 9.61422 6.07403C9.50069 5.79994 9.47099 5.49834 9.52886 5.20737C9.58674 4.9164 9.7296 4.64912 9.93938 4.43935C10.1492 4.22957 10.4164 4.08671 10.7074 4.02883C10.9984 3.97095 11.3 4.00066 11.5741 4.11419C11.8482 4.22772 12.0824 4.41998 12.2472 4.66665C12.4121 4.91332 12.5 5.20333 12.5 5.50001C12.5 5.89783 12.342 6.27936 12.0607 6.56067C11.7794 6.84197 11.3979 7.00001 11 7.00001V7.00001ZM16.75 7.80001C16.493 7.95372 16.1959 8.02697 15.8969 8.01035C15.5978 7.99372 15.3107 7.88796 15.0723 7.7067C14.8339 7.52544 14.6552 7.27697 14.5592 6.99329C14.4633 6.7096 14.4544 6.40368 14.5338 6.11493C14.6132 5.82617 14.7773 5.56779 15.0048 5.37306C15.2323 5.17833 15.5129 5.05616 15.8105 5.02229C16.108 4.98841 16.4089 5.04438 16.6744 5.18299C16.9399 5.32159 17.1578 5.53649 17.3 5.80001C17.4836 6.14004 17.5289 6.5378 17.4265 6.91039C17.324 7.28299 17.0817 7.60167 16.75 7.80001V7.80001Z" fill="black"/>
</svg>
