<svg width="24" height="24" viewBox="0 0 24 24" fill="none" xmlns="http://www.w3.org/2000/svg">
<path d="M10 8H14V6.5C14 5.80777 14.2053 5.13108 14.5899 4.55551C14.9744 3.97993 15.5211 3.53133 16.1606 3.26642C16.8002 3.00152 17.5039 2.9322 18.1828 3.06725C18.8618 3.2023 19.4854 3.53564 19.9749 4.02513C20.4644 4.51461 20.7977 5.13825 20.9328 5.81719C21.0678 6.49612 20.9985 7.19985 20.7336 7.83939C20.4687 8.47894 20.0201 9.02556 19.4445 9.41015C18.8689 9.79473 18.1922 10 17.5 10H16V14H17.5C18.1922 14 18.8689 14.2053 19.4445 14.5899C20.0201 14.9744 20.4687 15.5211 20.7336 16.1606C20.9985 16.8002 21.0678 17.5039 20.9328 18.1828C20.7977 18.8618 20.4644 19.4854 19.9749 19.9749C19.4854 20.4644 18.8618 20.7977 18.1828 20.9328C17.5039 21.0678 16.8002 20.9985 16.1606 20.7336C15.5211 20.4687 14.9744 20.0201 14.5899 19.4445C14.2053 18.8689 14 18.1922 14 17.5V16H10V17.5C10 18.1922 9.79473 18.8689 9.41015 19.4445C9.02556 20.0201 8.47894 20.4687 7.83939 20.7336C7.19985 20.9985 6.49612 21.0678 5.81719 20.9328C5.13825 20.7977 4.51461 20.4644 4.02513 19.9749C3.53564 19.4854 3.2023 18.8618 3.06725 18.1828C2.9322 17.5039 3.00152 16.8002 3.26642 16.1606C3.53133 15.5211 3.97993 14.9744 4.55551 14.5899C5.13108 14.2053 5.80777 14 6.5 14H8V10H6.5C5.80777 10 5.13108 9.79473 4.55551 9.41015C3.97993 9.02556 3.53133 8.47894 3.26642 7.83939C3.00152 7.19985 2.9322 6.49612 3.06725 5.81719C3.2023 5.13825 3.53564 4.51461 4.02513 4.02513C4.51461 3.53564 5.13825 3.2023 5.81719 3.06725C6.49612 2.9322 7.19985 3.00152 7.83939 3.26642C8.47894 3.53133 9.02556 3.97993 9.41015 4.55551C9.79473 5.13108 10 5.80777 10 6.5V8ZM8 8V6.5C8 6.20333 7.91203 5.91332 7.74721 5.66665C7.58238 5.41997 7.34812 5.22771 7.07403 5.11418C6.79994 5.00065 6.49834 4.97095 6.20737 5.02882C5.91639 5.0867 5.64912 5.22956 5.43934 5.43934C5.22956 5.64912 5.0867 5.91639 5.02882 6.20737C4.97095 6.49834 5.00065 6.79994 5.11418 7.07403C5.22771 7.34812 5.41997 7.58238 5.66665 7.74721C5.91332 7.91203 6.20333 8 6.5 8H8ZM8 16H6.5C6.20333 16 5.91332 16.088 5.66665 16.2528C5.41997 16.4176 5.22771 16.6519 5.11418 16.926C5.00065 17.2001 4.97095 17.5017 5.02882 17.7926C5.0867 18.0836 5.22956 18.3509 5.43934 18.5607C5.64912 18.7704 5.91639 18.9133 6.20737 18.9712C6.49834 19.0291 6.79994 18.9994 7.07403 18.8858C7.34812 18.7723 7.58238 18.58 7.74721 18.3334C7.91203 18.0867 8 17.7967 8 17.5V16ZM16 8H17.5C17.7967 8 18.0867 7.91203 18.3334 7.74721C18.58 7.58238 18.7723 7.34812 18.8858 7.07403C18.9994 6.79994 19.0291 6.49834 18.9712 6.20737C18.9133 5.91639 18.7704 5.64912 18.5607 5.43934C18.3509 5.22956 18.0836 5.0867 17.7926 5.02882C17.5017 4.97095 17.2001 5.00065 16.926 5.11418C16.6519 5.22771 16.4176 5.41997 16.2528 5.66665C16.088 5.91332 16 6.20333 16 6.5V8ZM16 16V17.5C16 17.7967 16.088 18.0867 16.2528 18.3334C16.4176 18.58 16.6519 18.7723 16.926 18.8858C17.2001 18.9994 17.5017 19.0291 17.7926 18.9712C18.0836 18.9133 18.3509 18.7704 18.5607 18.5607C18.7704 18.3509 18.9133 18.0836 18.9712 17.7926C19.0291 17.5017 18.9994 17.2001 18.8858 16.926C18.7723 16.6519 18.58 16.4176 18.3334 16.2528C18.0867 16.088 17.7967 16 17.5 16H16ZM10 10V14H14V10H10Z" fill="black"/>
</svg>
