<svg width="24" height="24" viewBox="0 0 24 24" fill="none" xmlns="http://www.w3.org/2000/svg">
<path d="M18.78 14.38C18.615 14.174 18.3752 14.0415 18.113 14.0115C17.8507 13.9816 17.5872 14.0565 17.38 14.22L14 16.92V8C14 7.20435 13.6839 6.44129 13.1213 5.87868C12.5587 5.31607 11.7956 5 11 5H6C5.73478 5 5.48043 5.10536 5.29289 5.29289C5.10536 5.48043 5 5.73478 5 6C5 6.26522 5.10536 6.51957 5.29289 6.70711C5.48043 6.89464 5.73478 7 6 7H11C11.2652 7 11.5196 7.10536 11.7071 7.29289C11.8946 7.48043 12 7.73478 12 8V16.92L8.62 14.22C8.41136 14.0813 8.15827 14.026 7.91079 14.065C7.66332 14.104 7.43949 14.2344 7.2836 14.4306C7.12771 14.6267 7.05112 14.8742 7.06897 15.1241C7.08682 15.3739 7.19782 15.608 7.38 15.78L12.38 19.78C12.5565 19.9195 12.775 19.9954 13 19.9954C13.225 19.9954 13.4435 19.9195 13.62 19.78L18.62 15.78C18.826 15.615 18.9585 15.3752 18.9885 15.113C19.0184 14.8507 18.9435 14.5872 18.78 14.38Z" fill="black"/>
</svg>
