<svg width="25" height="25" viewBox="0 0 25 25" fill="none" xmlns="http://www.w3.org/2000/svg">
<g clip-path="url(#clip0)">
<path d="M20 6C20 5.73478 19.8947 5.48043 19.7071 5.29289C19.5196 5.10536 19.2652 5 19 5C18.7348 5 18.4804 5.10536 18.2929 5.29289C18.1054 5.48043 18 5.73478 18 6V11C18.0008 11.1316 17.9756 11.2621 17.9258 11.3839C17.876 11.5057 17.8027 11.6166 17.71 11.71C17.6166 11.8027 17.5058 11.876 17.3839 11.9258C17.2621 11.9755 17.1316 12.0008 17 12H8.08001L10.77 8.61C10.8478 8.40871 10.8585 8.18765 10.8003 7.97983C10.7421 7.77201 10.6183 7.58858 10.4473 7.45695C10.2763 7.32531 10.0672 7.25253 9.85146 7.24948C9.63567 7.24642 9.42469 7.31326 9.25001 7.44L5.25001 12.44C5.10801 12.6174 5.03064 12.8378 5.03064 13.065C5.03064 13.2922 5.10801 13.5126 5.25001 13.69L9.25001 18.69C9.34413 18.806 9.46305 18.8995 9.59803 18.9635C9.73301 19.0275 9.88062 19.0605 10.03 19.06C10.2556 19.0587 10.4741 18.9812 10.65 18.84C10.7527 18.7575 10.8381 18.6555 10.9013 18.5398C10.9645 18.4242 11.0042 18.2972 11.0181 18.1662C11.0321 18.0352 11.02 17.9027 10.9825 17.7763C10.9451 17.65 10.8831 17.5323 10.8 17.43L8.14002 14.07H17.06C17.8557 14.07 18.6187 13.7539 19.1813 13.1913C19.7439 12.6287 20.06 11.8656 20.06 11.07L20 6Z" fill="black"/>
</g>
<defs>
<clipPath id="clip0">
<rect width="24.1" height="24.1" fill="white"/>
</clipPath>
</defs>
</svg>
