<svg width="24" height="24" viewBox="0 0 24 24" fill="none" xmlns="http://www.w3.org/2000/svg">
<path d="M18 17H13C12.7348 17 12.4804 16.8946 12.2929 16.7071C12.1053 16.5196 12 16.2652 12 16V7.08001L15.38 9.78001C15.5559 9.92117 15.7744 9.9987 16 10C16.1502 9.99931 16.2983 9.96479 16.4333 9.89901C16.5684 9.83322 16.6869 9.73786 16.78 9.62001C16.9435 9.41277 17.0184 9.1493 16.9885 8.88704C16.9585 8.62478 16.826 8.385 16.62 8.22001L11.62 4.22001C11.4434 4.0805 11.225 4.00461 11 4.00461C10.775 4.00461 10.5565 4.0805 10.38 4.22001L5.37998 8.22001C5.1978 8.39197 5.0868 8.62606 5.06895 8.87595C5.0511 9.12584 5.1277 9.37333 5.28358 9.56945C5.43947 9.76557 5.6633 9.89603 5.91077 9.93502C6.15825 9.97401 6.41134 9.91869 6.61998 9.78001L9.99998 7.08001V16C9.99998 16.7957 10.3161 17.5587 10.8787 18.1213C11.4413 18.6839 12.2043 19 13 19H18C18.2652 19 18.5196 18.8946 18.7071 18.7071C18.8946 18.5196 19 18.2652 19 18C19 17.7348 18.8946 17.4804 18.7071 17.2929C18.5196 17.1054 18.2652 17 18 17Z" fill="black"/>
</svg>
