<svg width="24" height="24" viewBox="0 0 24 24" fill="none" xmlns="http://www.w3.org/2000/svg">
<path d="M19.78 10.38L15.78 5.38C15.608 5.19781 15.3739 5.08682 15.1241 5.06896C14.8742 5.05111 14.6267 5.12771 14.4306 5.2836C14.2344 5.43949 14.104 5.66331 14.065 5.91079C14.026 6.15826 14.0813 6.41136 14.22 6.62L16.92 10H8C7.20435 10 6.44129 10.3161 5.87868 10.8787C5.31607 11.4413 5 12.2043 5 13V18C5 18.2652 5.10536 18.5196 5.29289 18.7071C5.48043 18.8946 5.73478 19 6 19C6.26522 19 6.51957 18.8946 6.70711 18.7071C6.89464 18.5196 7 18.2652 7 18V13C7 12.7348 7.10536 12.4804 7.29289 12.2929C7.48043 12.1054 7.73478 12 8 12H16.92L14.22 15.38C14.0565 15.5872 13.9816 15.8507 14.0115 16.113C14.0415 16.3752 14.174 16.615 14.38 16.78C14.5559 16.9212 14.7744 16.9987 15 17C15.1502 16.9993 15.2983 16.9648 15.4334 16.899C15.5684 16.8332 15.6869 16.7379 15.78 16.62L19.78 11.62C19.9195 11.4435 19.9954 11.225 19.9954 11C19.9954 10.775 19.9195 10.5565 19.78 10.38V10.38Z" fill="black"/>
</svg>
