<svg width="24" height="24" viewBox="0 0 24 24" fill="none" xmlns="http://www.w3.org/2000/svg">
<path d="M18 5H13C12.2043 5 11.4413 5.31607 10.8787 5.87868C10.3161 6.44129 9.99998 7.20435 9.99998 8V16.92L6.61998 14.22C6.41134 14.0813 6.15825 14.026 5.91077 14.065C5.6633 14.104 5.43947 14.2344 5.28358 14.4306C5.1277 14.6267 5.0511 14.8742 5.06895 15.1241C5.0868 15.3739 5.1978 15.608 5.37998 15.78L10.38 19.78C10.5565 19.9195 10.775 19.9954 11 19.9954C11.225 19.9954 11.4434 19.9195 11.62 19.78L16.62 15.78C16.7353 15.7033 16.8334 15.6036 16.9082 15.487C16.9829 15.3704 17.0327 15.2396 17.0542 15.1028C17.0758 14.966 17.0687 14.8263 17.0334 14.6924C16.9981 14.5585 16.9354 14.4334 16.8492 14.325C16.7631 14.2166 16.6553 14.1272 16.5328 14.0626C16.4104 13.9981 16.2758 13.9596 16.1377 13.9497C15.9995 13.9399 15.8609 13.9588 15.7304 14.0053C15.6 14.0518 15.4807 14.1249 15.38 14.22L12 16.92V8C12 7.73478 12.1053 7.48043 12.2929 7.29289C12.4804 7.10536 12.7348 7 13 7H18C18.2652 7 18.5196 6.89464 18.7071 6.70711C18.8946 6.51957 19 6.26522 19 6C19 5.73478 18.8946 5.48043 18.7071 5.29289C18.5196 5.10536 18.2652 5 18 5Z" fill="black"/>
</svg>
