<svg width="24" height="24" viewBox="0 0 24 24" fill="none" xmlns="http://www.w3.org/2000/svg">
<path d="M21 16H18V8.56C18 7.88105 17.7303 7.2299 17.2502 6.74981C16.7701 6.26971 16.119 6 15.44 6H8V3C8 2.73478 7.89464 2.48043 7.70711 2.29289C7.51957 2.10536 7.26522 2 7 2C6.73478 2 6.48043 2.10536 6.29289 2.29289C6.10536 2.48043 6 2.73478 6 3V6H3C2.73478 6 2.48043 6.10536 2.29289 6.29289C2.10536 6.48043 2 6.73478 2 7C2 7.26522 2.10536 7.51957 2.29289 7.70711C2.48043 7.89464 2.73478 8 3 8H6V15.44C6 16.119 6.26971 16.7701 6.74981 17.2502C7.2299 17.7303 7.88105 18 8.56 18H16V21C16 21.2652 16.1054 21.5196 16.2929 21.7071C16.4804 21.8946 16.7348 22 17 22C17.2652 22 17.5196 21.8946 17.7071 21.7071C17.8946 21.5196 18 21.2652 18 21V18H21C21.2652 18 21.5196 17.8946 21.7071 17.7071C21.8946 17.5196 22 17.2652 22 17C22 16.7348 21.8946 16.4804 21.7071 16.2929C21.5196 16.1054 21.2652 16 21 16ZM8.56 16C8.41148 16 8.26904 15.941 8.16402 15.836C8.059 15.731 8 15.5885 8 15.44V8H15.44C15.5885 8 15.731 8.059 15.836 8.16402C15.941 8.26904 16 8.41148 16 8.56V16H8.56Z" fill="black"/>
</svg>
