<svg width="24" height="24" viewBox="0 0 24 24" fill="none" xmlns="http://www.w3.org/2000/svg">
<path d="M15 4.58205V12C14.9997 12.6368 14.7967 13.2569 14.4206 13.7707C14.0444 14.2845 13.5145 14.6653 12.9076 14.8579C12.3007 15.0505 11.6482 15.0451 11.0446 14.8423C10.441 14.6395 9.91755 14.2499 9.55006 13.7299C9.18256 13.2099 8.99005 12.5864 9.0004 11.9497C9.01074 11.3131 9.2234 10.6962 9.60759 10.1884C9.99179 9.6806 10.5276 9.30822 11.1375 9.12514C11.7473 8.94207 12.3997 8.9578 13 9.17005V2.05005C18.053 2.55105 22 6.81505 22 12C22 17.523 17.523 22 12 22C6.477 22 2 17.523 2 12C2 6.81505 5.947 2.55105 11 2.05005V4.06205C8.98271 4.31873 7.13885 5.33392 5.84319 6.90127C4.54752 8.46862 3.89728 10.4705 4.02462 12.5001C4.15196 14.5296 5.04733 16.4346 6.52874 17.8277C8.01016 19.2208 9.96645 19.9975 12 20C13.8573 20.0011 15.6572 19.3558 17.0908 18.1749C18.5244 16.9941 19.5024 15.3512 19.8572 13.528C20.2119 11.7049 19.9213 9.81509 19.035 8.18283C18.1488 6.55056 16.7222 5.27752 15 4.58205Z" fill="black"/>
</svg>
