<svg width="25" height="25" viewBox="0 0 25 25" fill="none" xmlns="http://www.w3.org/2000/svg">
<g clip-path="url(#clip0)">
<path d="M12 21.1C11.0123 21.0916 10.0362 20.8855 9.12942 20.4939C8.2226 20.1024 7.40336 19.5332 6.71998 18.82C5.33252 17.3645 4.56687 15.4255 4.58554 13.4147C4.60421 11.4039 5.40573 9.47954 6.81998 8.05L11.46 3.4C11.5504 3.30266 11.6604 3.2256 11.7828 3.17388C11.9052 3.12217 12.0372 3.09699 12.17 3.1C12.303 3.10185 12.4343 3.13022 12.5562 3.18345C12.6781 3.23668 12.7882 3.3137 12.88 3.41L17.44 8.13C18.8288 9.58426 19.5962 11.5225 19.5794 13.5333C19.5626 15.5441 18.7629 17.4692 17.35 18.9C16.6541 19.6105 15.8209 20.1719 14.9012 20.5501C13.9814 20.9283 12.9943 21.1154 12 21.1Z" fill="black"/>
</g>
<defs>
<clipPath id="clip0">
<rect width="24.2" height="24.2" fill="white"/>
</clipPath>
</defs>
</svg>
