<svg width="24" height="24" viewBox="0 0 24 24" fill="none" xmlns="http://www.w3.org/2000/svg">
<path d="M19 20H5C4.73478 20 4.48043 20.1054 4.29289 20.2929C4.10536 20.4804 4 20.7348 4 21C4 21.2652 4.10536 21.5196 4.29289 21.7071C4.48043 21.8946 4.73478 22 5 22H19C19.2652 22 19.5196 21.8946 19.7071 21.7071C19.8946 21.5196 20 21.2652 20 21C20 20.7348 19.8946 20.4804 19.7071 20.2929C19.5196 20.1054 19.2652 20 19 20Z" fill="black"/>
<path d="M5.00005 18H5.09005L9.26005 17.62C9.71685 17.5745 10.1441 17.3732 10.4701 17.05L19.4701 8.05C19.8194 7.68097 20.0082 7.18851 19.995 6.68054C19.9819 6.17257 19.768 5.69051 19.4001 5.34L16.6601 2.6C16.3024 2.2641 15.8338 2.07136 15.3434 2.05845C14.8529 2.04555 14.3748 2.21337 14.0001 2.53L5.00005 11.53C4.67682 11.856 4.47556 12.2832 4.43005 12.74L4.00005 16.91C3.98658 17.0565 4.00559 17.2041 4.05571 17.3424C4.10584 17.4807 4.18585 17.6062 4.29005 17.71C4.38349 17.8027 4.49431 17.876 4.61615 17.9258C4.73798 17.9755 4.86845 18.0008 5.00005 18ZM15.2701 4L18.0001 6.73L16.0001 8.68L13.3201 6L15.2701 4ZM6.37005 12.91L12.0001 7.32L14.7001 10.02L9.10005 15.62L6.10005 15.9L6.37005 12.91Z" fill="black"/>
</svg>
