<svg width="24" height="24" viewBox="0 0 24 24" fill="none" xmlns="http://www.w3.org/2000/svg">
<path d="M7.737 13H16.263L12 6.60598L7.737 13ZM12.416 3.62398L19.482 14.223C19.5321 14.2983 19.5608 14.3857 19.5652 14.4761C19.5695 14.5664 19.5492 14.6562 19.5065 14.736C19.4639 14.8157 19.4003 14.8824 19.3228 14.9289C19.2452 14.9754 19.1564 14.9999 19.066 15H4.934C4.84356 14.9999 4.75482 14.9754 4.67724 14.9289C4.59966 14.8824 4.53615 14.8157 4.49346 14.736C4.45077 14.6562 4.43051 14.5664 4.43483 14.4761C4.43915 14.3857 4.4679 14.2983 4.518 14.223L11.584 3.62398C11.6297 3.5555 11.6915 3.49935 11.7641 3.46052C11.8367 3.42169 11.9177 3.40137 12 3.40137C12.0823 3.40137 12.1633 3.42169 12.2359 3.46052C12.3085 3.49935 12.3703 3.5555 12.416 3.62398ZM5 17H19C19.2652 17 19.5196 17.1053 19.7071 17.2929C19.8946 17.4804 20 17.7348 20 18C20 18.2652 19.8946 18.5196 19.7071 18.7071C19.5196 18.8946 19.2652 19 19 19H5C4.73478 19 4.48043 18.8946 4.29289 18.7071C4.10536 18.5196 4 18.2652 4 18C4 17.7348 4.10536 17.4804 4.29289 17.2929C4.48043 17.1053 4.73478 17 5 17Z" fill="black"/>
</svg>
