<svg width="24" height="24" viewBox="0 0 24 24" fill="none" xmlns="http://www.w3.org/2000/svg">
<path d="M20.7099 19.29L4.70994 3.29C4.6167 3.19676 4.50601 3.1228 4.38419 3.07234C4.26237 3.02188 4.1318 2.99591 3.99994 2.99591C3.86808 2.99591 3.73751 3.02188 3.61569 3.07234C3.49387 3.1228 3.38318 3.19676 3.28994 3.29C3.10164 3.47831 2.99585 3.7337 2.99585 4C2.99585 4.2663 3.10164 4.5217 3.28994 4.71L19.2899 20.71C19.3829 20.8037 19.4935 20.8781 19.6154 20.9289C19.7372 20.9797 19.8679 21.0058 19.9999 21.0058C20.132 21.0058 20.2627 20.9797 20.3845 20.9289C20.5064 20.8781 20.617 20.8037 20.7099 20.71C20.8037 20.617 20.8781 20.5064 20.9288 20.3846C20.9796 20.2627 21.0057 20.132 21.0057 20C21.0057 19.868 20.9796 19.7373 20.9288 19.6154C20.8781 19.4936 20.8037 19.383 20.7099 19.29V19.29Z" fill="black"/>
<path d="M12.54 18.06L12.81 15.64L10 12.8H6.87004L8.11004 10.94L6.67004 9.5L4.17004 13.24C4.06831 13.3905 4.0095 13.5659 3.99992 13.7473C3.99035 13.9287 4.03038 14.1093 4.11571 14.2697C4.20104 14.4301 4.32845 14.5642 4.48426 14.6576C4.64006 14.7511 4.81837 14.8003 5.00004 14.8H10.89L10.12 21.89C10.0952 22.1125 10.1457 22.3369 10.2636 22.5273C10.3815 22.7177 10.5598 22.863 10.77 22.94C10.879 22.9796 10.9941 22.9999 11.11 23C11.2738 23.0002 11.4352 22.9603 11.5799 22.8835C11.7247 22.8068 11.8483 22.6957 11.94 22.56L15.06 17.89L13.62 16.45L12.54 18.06Z" fill="black"/>
<path d="M11.4599 5.94L11.1899 8.36L13.9999 11.2H17.0999L15.8599 13.06L17.2999 14.5L19.7999 10.76C19.9004 10.6116 19.9591 10.4389 19.9699 10.2601C19.9807 10.0812 19.9433 9.90273 19.8615 9.74329C19.7798 9.58384 19.6567 9.4493 19.5051 9.35372C19.3535 9.25815 19.1791 9.20506 18.9999 9.2H13.1099L13.8799 2.11C13.8934 1.89561 13.8374 1.6826 13.7203 1.50249C13.6033 1.32239 13.4313 1.18476 13.2299 1.11C13.0205 1.0339 12.7916 1.02996 12.5796 1.09881C12.3676 1.16766 12.1847 1.30534 12.0599 1.49L8.93994 6.11L10.3799 7.55L11.4599 5.94Z" fill="black"/>
</svg>
