<svg width="24" height="24" viewBox="0 0 24 24" fill="none" xmlns="http://www.w3.org/2000/svg">
<path d="M6.09 19H18.09L16.79 20.29C16.6017 20.4783 16.4959 20.7337 16.4959 21C16.4959 21.2663 16.6017 21.5217 16.79 21.71C16.9783 21.8983 17.2337 22.0041 17.5 22.0041C17.7663 22.0041 18.0217 21.8983 18.21 21.71L21.21 18.71C21.3037 18.617 21.3781 18.5064 21.4289 18.3846C21.4797 18.2627 21.5058 18.132 21.5058 18C21.5058 17.868 21.4797 17.7373 21.4289 17.6154C21.3781 17.4936 21.3037 17.383 21.21 17.29L18.21 14.29C18.117 14.1963 18.0064 14.1219 17.8846 14.0711C17.7627 14.0203 17.632 13.9942 17.5 13.9942C17.368 13.9942 17.2373 14.0203 17.1154 14.0711C16.9936 14.1219 16.883 14.1963 16.79 14.29C16.6963 14.383 16.6219 14.4936 16.5711 14.6154C16.5203 14.7373 16.4942 14.868 16.4942 15C16.4942 15.132 16.5203 15.2627 16.5711 15.3846C16.6219 15.5064 16.6963 15.617 16.79 15.71L18.09 17H6.09C5.88513 17.004 5.68148 16.9676 5.49069 16.8928C5.29989 16.8181 5.1257 16.7065 4.97804 16.5644C4.83039 16.4223 4.71218 16.2525 4.63015 16.0647C4.54813 15.877 4.5039 15.6749 4.5 15.47V13C4.5 12.7348 4.39464 12.4804 4.20711 12.2929C4.01957 12.1054 3.76522 12 3.5 12C3.23478 12 2.98043 12.1054 2.79289 12.2929C2.60536 12.4804 2.5 12.7348 2.5 13V15.47C2.50392 15.9375 2.59989 16.3997 2.78244 16.8301C2.96498 17.2605 3.23051 17.6508 3.56388 17.9785C3.89724 18.3063 4.29191 18.5653 4.72534 18.7405C5.15878 18.9158 5.62249 19.004 6.09 19V19Z" fill="black"/>
<path d="M5.78994 9.71C5.97824 9.8983 6.23364 10.0041 6.49994 10.0041C6.76624 10.0041 7.02164 9.8983 7.20994 9.71C7.39824 9.5217 7.50403 9.2663 7.50403 9C7.50403 8.7337 7.39824 8.4783 7.20994 8.29L5.90994 7H17.9099C18.1148 6.99602 18.3185 7.03245 18.5093 7.10719C18.7 7.18193 18.8742 7.29353 19.0219 7.43561C19.1695 7.5777 19.2878 7.74747 19.3698 7.93525C19.4518 8.12303 19.496 8.32513 19.4999 8.53V11C19.4999 11.2652 19.6053 11.5196 19.7928 11.7071C19.9804 11.8946 20.2347 12 20.4999 12C20.7652 12 21.0195 11.8946 21.207 11.7071C21.3946 11.5196 21.4999 11.2652 21.4999 11V8.53C21.496 8.06249 21.4 7.60033 21.2175 7.16991C21.035 6.73949 20.7694 6.34924 20.4361 6.02145C20.1027 5.69366 19.708 5.43474 19.2746 5.25947C18.8412 5.08421 18.3774 4.99604 17.9099 5H5.90994L7.20994 3.71C7.30367 3.61704 7.37806 3.50644 7.42883 3.38458C7.4796 3.26272 7.50574 3.13201 7.50574 3C7.50574 2.86799 7.4796 2.73728 7.42883 2.61542C7.37806 2.49356 7.30367 2.38296 7.20994 2.29C7.11698 2.19627 7.00638 2.12188 6.88452 2.07111C6.76266 2.02034 6.63195 1.9942 6.49994 1.9942C6.36793 1.9942 6.23722 2.02034 6.11536 2.07111C5.9935 2.12188 5.8829 2.19627 5.78994 2.29L2.78994 5.29C2.69621 5.38296 2.62182 5.49356 2.57105 5.61542C2.52028 5.73728 2.49414 5.86799 2.49414 6C2.49414 6.13201 2.52028 6.26272 2.57105 6.38458C2.62182 6.50644 2.69621 6.61704 2.78994 6.71L5.78994 9.71Z" fill="black"/>
</svg>
