<svg width="24" height="24" viewBox="0 0 24 24" fill="none" xmlns="http://www.w3.org/2000/svg">
<path d="M14 13H13V12C13 11.7348 12.8946 11.4804 12.7071 11.2929C12.5196 11.1054 12.2652 11 12 11C11.7348 11 11.4804 11.1054 11.2929 11.2929C11.1054 11.4804 11 11.7348 11 12V13H10C9.73478 13 9.48043 13.1054 9.29289 13.2929C9.10536 13.4804 9 13.7348 9 14C9 14.2652 9.10536 14.5196 9.29289 14.7071C9.48043 14.8946 9.73478 15 10 15H11V16C11 16.2652 11.1054 16.5196 11.2929 16.7071C11.4804 16.8946 11.7348 17 12 17C12.2652 17 12.5196 16.8946 12.7071 16.7071C12.8946 16.5196 13 16.2652 13 16V15H14C14.2652 15 14.5196 14.8946 14.7071 14.7071C14.8946 14.5196 15 14.2652 15 14C15 13.7348 14.8946 13.4804 14.7071 13.2929C14.5196 13.1054 14.2652 13 14 13Z" fill="black"/>
<path d="M19.5 7.05H12.5L9.87 3.87C9.77695 3.75529 9.65964 3.66261 9.5265 3.59864C9.39336 3.53466 9.24771 3.50098 9.1 3.5H4.5C3.84661 3.49198 3.21666 3.74319 2.7481 4.19864C2.27953 4.65408 2.01053 5.27664 2 5.93V18.07C2.01053 18.7234 2.27953 19.3459 2.7481 19.8014C3.21666 20.2568 3.84661 20.508 4.5 20.5H19.5C20.1534 20.508 20.7833 20.2568 21.2519 19.8014C21.7205 19.3459 21.9895 18.7234 22 18.07V9.48C21.9895 8.82664 21.7205 8.20408 21.2519 7.74864C20.7833 7.29319 20.1534 7.04198 19.5 7.05V7.05ZM20 18.05C19.9962 18.1114 19.9802 18.1713 19.9529 18.2264C19.9255 18.2815 19.8874 18.3305 19.8408 18.3706C19.7942 18.4107 19.74 18.441 19.6815 18.4598C19.6229 18.4786 19.5612 18.4855 19.5 18.48H4.5C4.43876 18.4855 4.37706 18.4786 4.31852 18.4598C4.25998 18.441 4.20581 18.4107 4.1592 18.3706C4.11259 18.3305 4.07448 18.2815 4.04714 18.2264C4.0198 18.1713 4.00377 18.1114 4 18.05V5.93C4.00377 5.86864 4.0198 5.80865 4.04714 5.75359C4.07448 5.69853 4.11259 5.6495 4.1592 5.60942C4.20581 5.56933 4.25998 5.53899 4.31852 5.5202C4.37706 5.50141 4.43876 5.49454 4.5 5.5H8.63L11.23 8.68C11.3231 8.79471 11.4404 8.88739 11.5735 8.95136C11.7066 9.01534 11.8523 9.04902 12 9.05H19.5C19.5612 9.04454 19.6229 9.05141 19.6815 9.0702C19.74 9.08899 19.7942 9.11933 19.8408 9.15942C19.8874 9.1995 19.9255 9.24853 19.9529 9.30359C19.9802 9.35865 19.9962 9.41864 20 9.48V18.05Z" fill="black"/>
</svg>
