<svg width="24" height="24" viewBox="0 0 24 24" fill="none" xmlns="http://www.w3.org/2000/svg">
<path d="M4.64001 15.27V20.09C4.64265 20.3323 4.74074 20.5637 4.91299 20.7341C5.08524 20.9045 5.31774 21 5.56001 21H11.18V15.27H4.64001Z" fill="black"/>
<path d="M12.8199 21H18.4399C18.6822 21 18.9147 20.9045 19.087 20.7341C19.2592 20.5637 19.3573 20.3323 19.3599 20.09V15.27H12.8199V21Z" fill="black"/>
<path d="M20.1 7.09H18.26C18.4485 6.70722 18.5476 6.28666 18.55 5.86C18.5474 5.10056 18.2438 4.37313 17.7059 3.83706C17.1679 3.301 16.4394 3 15.68 3C14.8866 3.03762 14.1201 3.29891 13.4689 3.75367C12.8178 4.20843 12.3085 4.83811 12 5.57C11.6915 4.83811 11.1822 4.20843 10.5311 3.75367C9.87989 3.29891 9.11336 3.03762 8.32 3C7.56056 3 6.83207 3.301 6.29413 3.83706C5.75619 4.37313 5.45265 5.10056 5.45 5.86C5.45237 6.28666 5.55153 6.70722 5.74 7.09H3.9C3.4 7.09 3 7.68 3 8.4V12.33C3 13.05 3.4 13.64 3.9 13.64H11.18V7.09H12.82V13.64H20.1C20.6 13.64 21 13.05 21 12.33V8.4C21 7.68 20.6 7.09 20.1 7.09ZM8.32 7.09C8.14983 7.10539 7.97832 7.08516 7.8164 7.03059C7.65448 6.97602 7.50571 6.88832 7.37956 6.77307C7.25342 6.65782 7.15267 6.51755 7.08374 6.3612C7.01481 6.20486 6.97921 6.03587 6.97921 5.865C6.97921 5.69413 7.01481 5.52514 7.08374 5.3688C7.15267 5.21245 7.25342 5.07218 7.37956 4.95693C7.50571 4.84168 7.65448 4.75398 7.8164 4.69941C7.97832 4.64484 8.14983 4.62461 8.32 4.64C9.72 4.64 10.51 6.08 10.9 7.09H8.32ZM15.68 7.09H13.1C13.49 6.09 14.28 4.64 15.68 4.64C15.8502 4.62461 16.0217 4.64484 16.1836 4.69941C16.3455 4.75398 16.4943 4.84168 16.6204 4.95693C16.7466 5.07218 16.8473 5.21245 16.9163 5.3688C16.9852 5.52514 17.0208 5.69413 17.0208 5.865C17.0208 6.03587 16.9852 6.20486 16.9163 6.3612C16.8473 6.51755 16.7466 6.65782 16.6204 6.77307C16.4943 6.88832 16.3455 6.97602 16.1836 7.03059C16.0217 7.08516 15.8502 7.10539 15.68 7.09V7.09Z" fill="black"/>
</svg>
