<svg width="24" height="24" viewBox="0 0 24 24" fill="none" xmlns="http://www.w3.org/2000/svg">
<path d="M15 5H17C17.5305 5 18.0392 5.21071 18.4142 5.58579C18.7893 5.96086 19 6.46957 19 7V15.17C19.6675 15.4059 20.2301 15.8702 20.5884 16.4808C20.9467 17.0914 21.0775 17.809 20.9578 18.5068C20.8382 19.2046 20.4757 19.8375 19.9344 20.2939C19.3931 20.7502 18.708 21.0005 18 21.0005C17.2921 21.0005 16.6069 20.7502 16.0657 20.2939C15.5244 19.8375 15.1619 19.2046 15.0422 18.5068C14.9225 17.809 15.0534 17.0914 15.4117 16.4808C15.7699 15.8702 16.3325 15.4059 17 15.17V7H15V10L10.5 6L15 2V5ZM5.00003 8.83C4.33254 8.59409 3.76994 8.1298 3.41167 7.51919C3.0534 6.90859 2.92254 6.19098 3.04222 5.49321C3.16189 4.79545 3.5244 4.16246 4.06566 3.70613C4.60692 3.2498 5.29208 2.99951 6.00003 2.99951C6.70798 2.99951 7.39314 3.2498 7.9344 3.70613C8.47566 4.16246 8.83817 4.79545 8.95784 5.49321C9.07752 6.19098 8.94666 6.90859 8.58839 7.51919C8.23012 8.1298 7.66752 8.59409 7.00003 8.83V15.17C7.66752 15.4059 8.23012 15.8702 8.58839 16.4808C8.94666 17.0914 9.07752 17.809 8.95784 18.5068C8.83817 19.2046 8.47566 19.8375 7.9344 20.2939C7.39314 20.7502 6.70798 21.0005 6.00003 21.0005C5.29208 21.0005 4.60692 20.7502 4.06566 20.2939C3.5244 19.8375 3.16189 19.2046 3.04222 18.5068C2.92254 17.809 3.0534 17.0914 3.41167 16.4808C3.76994 15.8702 4.33254 15.4059 5.00003 15.17V8.83ZM6.00003 7C6.26525 7 6.5196 6.89464 6.70714 6.70711C6.89467 6.51957 7.00003 6.26522 7.00003 6C7.00003 5.73478 6.89467 5.48043 6.70714 5.29289C6.5196 5.10536 6.26525 5 6.00003 5C5.73481 5 5.48046 5.10536 5.29292 5.29289C5.10539 5.48043 5.00003 5.73478 5.00003 6C5.00003 6.26522 5.10539 6.51957 5.29292 6.70711C5.48046 6.89464 5.73481 7 6.00003 7ZM6.00003 19C6.26525 19 6.5196 18.8946 6.70714 18.7071C6.89467 18.5196 7.00003 18.2652 7.00003 18C7.00003 17.7348 6.89467 17.4804 6.70714 17.2929C6.5196 17.1054 6.26525 17 6.00003 17C5.73481 17 5.48046 17.1054 5.29292 17.2929C5.10539 17.4804 5.00003 17.7348 5.00003 18C5.00003 18.2652 5.10539 18.5196 5.29292 18.7071C5.48046 18.8946 5.73481 19 6.00003 19ZM18 19C18.2652 19 18.5196 18.8946 18.7071 18.7071C18.8947 18.5196 19 18.2652 19 18C19 17.7348 18.8947 17.4804 18.7071 17.2929C18.5196 17.1054 18.2652 17 18 17C17.7348 17 17.4805 17.1054 17.2929 17.2929C17.1054 17.4804 17 17.7348 17 18C17 18.2652 17.1054 18.5196 17.2929 18.7071C17.4805 18.8946 17.7348 19 18 19Z" fill="currentColor"/>
</svg>
