<svg width="24" height="24" viewBox="0 0 24 24" fill="none" xmlns="http://www.w3.org/2000/svg">
<path d="M7.10501 8.78995C7.27847 9.42479 7.65581 9.985 8.17892 10.3843C8.70202 10.7837 9.3419 11 10 10.9999H14C15.178 11 16.3182 11.416 17.2196 12.1745C18.1209 12.9329 18.7256 13.9853 18.927 15.1459C19.6057 15.3674 20.1832 15.8235 20.5559 16.4324C20.9286 17.0414 21.0719 17.7632 20.9603 18.4683C20.8486 19.1734 20.4892 19.8157 19.9467 20.2797C19.4041 20.7437 18.7139 20.999 18 20.9999C17.3015 21.0005 16.6248 20.7573 16.0864 20.3123C15.548 19.8673 15.1818 19.2484 15.0509 18.5623C14.9199 17.8763 15.0325 17.166 15.3691 16.554C15.7058 15.942 16.2454 15.4667 16.895 15.2099C16.7215 14.5751 16.3442 14.0149 15.8211 13.6156C15.298 13.2162 14.6581 12.9999 14 12.9999H10C8.9179 13.0015 7.86474 12.6505 7.00001 11.9999V15.1699C7.6675 15.4059 8.2301 15.8701 8.58837 16.4808C8.94663 17.0914 9.07749 17.809 8.95782 18.5067C8.83814 19.2045 8.47564 19.8375 7.93438 20.2938C7.39312 20.7502 6.70796 21.0004 6.00001 21.0004C5.29205 21.0004 4.60689 20.7502 4.06563 20.2938C3.52438 19.8375 3.16187 19.2045 3.0422 18.5067C2.92252 17.809 3.05338 17.0914 3.41165 16.4808C3.76991 15.8701 4.33251 15.4059 5.00001 15.1699V8.82995C4.33698 8.59586 3.77721 8.13639 3.41836 7.53172C3.05951 6.92704 2.92438 6.21557 3.03654 5.52143C3.1487 4.8273 3.50104 4.19459 4.03207 3.73371C4.56309 3.27283 5.23909 3.01305 5.9421 2.99969C6.64511 2.98633 7.33049 3.22025 7.87864 3.66062C8.42679 4.10099 8.80291 4.71986 8.94136 5.40923C9.07981 6.0986 8.97181 6.8147 8.63619 7.43256C8.30058 8.05043 7.75866 8.53084 7.10501 8.78995ZM6.00001 6.99995C6.26522 6.99995 6.51958 6.89459 6.70711 6.70706C6.89465 6.51952 7.00001 6.26517 7.00001 5.99995C7.00001 5.73473 6.89465 5.48038 6.70711 5.29284C6.51958 5.10531 6.26522 4.99995 6.00001 4.99995C5.73479 4.99995 5.48044 5.10531 5.2929 5.29284C5.10536 5.48038 5.00001 5.73473 5.00001 5.99995C5.00001 6.26517 5.10536 6.51952 5.2929 6.70706C5.48044 6.89459 5.73479 6.99995 6.00001 6.99995ZM6.00001 18.9999C6.26522 18.9999 6.51958 18.8946 6.70711 18.7071C6.89465 18.5195 7.00001 18.2652 7.00001 17.9999C7.00001 17.7347 6.89465 17.4804 6.70711 17.2928C6.51958 17.1053 6.26522 16.9999 6.00001 16.9999C5.73479 16.9999 5.48044 17.1053 5.2929 17.2928C5.10536 17.4804 5.00001 17.7347 5.00001 17.9999C5.00001 18.2652 5.10536 18.5195 5.2929 18.7071C5.48044 18.8946 5.73479 18.9999 6.00001 18.9999ZM18 18.9999C18.2652 18.9999 18.5196 18.8946 18.7071 18.7071C18.8947 18.5195 19 18.2652 19 17.9999C19 17.7347 18.8947 17.4804 18.7071 17.2928C18.5196 17.1053 18.2652 16.9999 18 16.9999C17.7348 16.9999 17.4804 17.1053 17.2929 17.2928C17.1054 17.4804 17 17.7347 17 17.9999C17 18.2652 17.1054 18.5195 17.2929 18.7071C17.4804 18.8946 17.7348 18.9999 18 18.9999Z" fill="black"/>
</svg>
