<svg width="24" height="24" viewBox="0 0 24 24" fill="none" xmlns="http://www.w3.org/2000/svg">
<path d="M15 5H17C17.5305 5 18.0392 5.21071 18.4142 5.58579C18.7893 5.96086 19 6.46957 19 7V15.17C19.6675 15.4059 20.2301 15.8702 20.5884 16.4808C20.9467 17.0914 21.0775 17.809 20.9578 18.5068C20.8382 19.2046 20.4757 19.8375 19.9344 20.2939C19.3931 20.7502 18.708 21.0005 18 21.0005C17.2921 21.0005 16.6069 20.7502 16.0657 20.2939C15.5244 19.8375 15.1619 19.2046 15.0422 18.5068C14.9225 17.809 15.0534 17.0914 15.4117 16.4808C15.7699 15.8702 16.3325 15.4059 17 15.17V7H15V10L10.5 6L15 2V5ZM5.00003 8.83C4.33254 8.59409 3.76994 8.1298 3.41167 7.51919C3.0534 6.90859 2.92254 6.19098 3.04222 5.49321C3.16189 4.79545 3.5244 4.16246 4.06566 3.70613C4.60692 3.2498 5.29208 2.99951 6.00003 2.99951C6.70798 2.99951 7.39314 3.2498 7.9344 3.70613C8.47566 4.16246 8.83817 4.79545 8.95784 5.49321C9.07752 6.19098 8.94666 6.90859 8.58839 7.51919C8.23012 8.1298 7.66752 8.59409 7.00003 8.83V15.17C7.66752 15.4059 8.23012 15.8702 8.58839 16.4808C8.94666 17.0914 9.07752 17.809 8.95784 18.5068C8.83817 19.2046 8.47566 19.8375 7.9344 20.2939C7.39314 20.7502 6.70798 21.0005 6.00003 21.0005C5.29208 21.0005 4.60692 20.7502 4.06566 20.2939C3.5244 19.8375 3.16189 19.2046 3.04222 18.5068C2.92254 17.809 3.0534 17.0914 3.41167 16.4808C3.76994 15.8702 4.33254 15.4059 5.00003 15.17V8.83Z" fill="black"/>
</svg>
