<svg width="24" height="24" viewBox="0 0 24 24" fill="none" xmlns="http://www.w3.org/2000/svg">
<path d="M12 2C9.2999 2.05257 6.73087 3.17378 4.85625 5.11775C2.98164 7.06173 1.95446 9.66979 1.99999 12.37V17C1.99999 17.7911 2.23458 18.5645 2.67411 19.2223C3.11363 19.8801 3.73835 20.3928 4.46925 20.6955C5.20016 20.9983 6.00442 21.0775 6.78035 20.9231C7.55627 20.7688 8.269 20.3878 8.82841 19.8284C9.38782 19.269 9.76879 18.5563 9.92313 17.7804C10.0775 17.0044 9.99826 16.2002 9.6955 15.4693C9.39275 14.7384 8.88006 14.1136 8.22227 13.6741C7.56447 13.2346 6.79111 13 5.99999 13C5.29503 13.003 4.60398 13.1964 3.99999 13.56V12.37C3.95436 10.2002 4.77079 8.10075 6.27036 6.53183C7.76993 4.96291 9.83031 4.05245 12 4C14.1697 4.05245 16.23 4.96291 17.7296 6.53183C19.2292 8.10075 20.0456 10.2002 20 12.37V13.56C19.396 13.1964 18.7049 13.003 18 13C17.2089 13 16.4355 13.2346 15.7777 13.6741C15.1199 14.1136 14.6072 14.7384 14.3045 15.4693C14.0017 16.2002 13.9225 17.0044 14.0768 17.7804C14.2312 18.5563 14.6121 19.269 15.1716 19.8284C15.731 20.3878 16.4437 20.7688 17.2196 20.9231C17.9955 21.0775 18.7998 20.9983 19.5307 20.6955C20.2616 20.3928 20.8863 19.8801 21.3259 19.2223C21.7654 18.5645 22 17.7911 22 17V12.37C22.0455 9.66979 21.0183 7.06173 19.1437 5.11775C17.2691 3.17378 14.7001 2.05257 12 2V2Z" fill="black"/>
</svg>
