<svg width="24" height="24" viewBox="0 0 24 24" fill="none" xmlns="http://www.w3.org/2000/svg">
<path d="M18 3H6C5.20435 3 4.44129 3.31607 3.87868 3.87868C3.31607 4.44129 3 5.20435 3 6V18C3 18.7956 3.31607 19.5587 3.87868 20.1213C4.44129 20.6839 5.20435 21 6 21H18C18.7956 21 19.5587 20.6839 20.1213 20.1213C20.6839 19.5587 21 18.7956 21 18V6C21 5.20435 20.6839 4.44129 20.1213 3.87868C19.5587 3.31607 18.7956 3 18 3ZM8 7C8.29667 7 8.58668 7.08797 8.83335 7.2528C9.08003 7.41762 9.27229 7.65189 9.38582 7.92597C9.49935 8.20006 9.52906 8.50166 9.47118 8.79264C9.4133 9.08361 9.27044 9.35088 9.06066 9.56066C8.85088 9.77044 8.58361 9.9133 8.29264 9.97118C8.00166 10.0291 7.70006 9.99935 7.42597 9.88582C7.15189 9.77229 6.91762 9.58003 6.7528 9.33335C6.58797 9.08668 6.5 8.79667 6.5 8.5C6.5 8.10218 6.65804 7.72064 6.93934 7.43934C7.22064 7.15804 7.60218 7 8 7V7ZM19 17.83C19.0221 18.1177 18.9292 18.4023 18.7418 18.6217C18.5543 18.841 18.2876 18.977 18 19H6L13.57 12.18C13.6971 12.0641 13.863 11.9998 14.035 11.9998C14.207 11.9998 14.3729 12.0641 14.5 12.18L19 16.66V17.83Z" fill="black"/>
</svg>
