<svg width="24" height="24" viewBox="0 0 24 24" fill="none" xmlns="http://www.w3.org/2000/svg">
<path d="M5 2C4.40666 2 3.82664 2.17595 3.33329 2.50559C2.83994 2.83524 2.45543 3.30377 2.22836 3.85195C2.0013 4.40013 1.94189 5.00333 2.05765 5.58527C2.1734 6.16721 2.45912 6.70176 2.87868 7.12132C3.29824 7.54088 3.83279 7.8266 4.41473 7.94236C4.99667 8.05811 5.59987 7.9987 6.14805 7.77164C6.69623 7.54458 7.16477 7.16006 7.49441 6.66671C7.82405 6.17336 8 5.59334 8 5C8 4.20435 7.68393 3.44129 7.12132 2.87868C6.55871 2.31607 5.79565 2 5 2Z" fill="black"/>
<path d="M12 2C11.4067 2 10.8266 2.17595 10.3333 2.50559C9.83994 2.83524 9.45543 3.30377 9.22836 3.85195C9.0013 4.40013 8.94189 5.00333 9.05765 5.58527C9.1734 6.16721 9.45912 6.70176 9.87868 7.12132C10.2982 7.54088 10.8328 7.8266 11.4147 7.94236C11.9967 8.05811 12.5999 7.9987 13.1481 7.77164C13.6962 7.54458 14.1648 7.16006 14.4944 6.66671C14.8241 6.17336 15 5.59334 15 5C15 4.20435 14.6839 3.44129 14.1213 2.87868C13.5587 2.31607 12.7957 2 12 2Z" fill="black"/>
<path d="M19 8C19.5933 8 20.1734 7.82405 20.6667 7.49441C21.1601 7.16476 21.5446 6.69623 21.7716 6.14805C21.9987 5.59987 22.0581 4.99667 21.9424 4.41473C21.8266 3.83279 21.5409 3.29824 21.1213 2.87868C20.7018 2.45912 20.1672 2.1734 19.5853 2.05764C19.0033 1.94189 18.4001 2.0013 17.8519 2.22836C17.3038 2.45542 16.8352 2.83994 16.5056 3.33329C16.1759 3.82664 16 4.40666 16 5C16 5.79565 16.3161 6.55871 16.8787 7.12132C17.4413 7.68393 18.2044 8 19 8Z" fill="black"/>
<path d="M5 9C4.40666 9 3.82664 9.17595 3.33329 9.50559C2.83994 9.83524 2.45543 10.3038 2.22836 10.8519C2.0013 11.4001 1.94189 12.0033 2.05765 12.5853C2.1734 13.1672 2.45912 13.7018 2.87868 14.1213C3.29824 14.5409 3.83279 14.8266 4.41473 14.9424C4.99667 15.0581 5.59987 14.9987 6.14805 14.7716C6.69623 14.5446 7.16477 14.1601 7.49441 13.6667C7.82405 13.1734 8 12.5933 8 12C8 11.2044 7.68393 10.4413 7.12132 9.87868C6.55871 9.31607 5.79565 9 5 9Z" fill="black"/>
<path d="M12 9C11.4067 9 10.8266 9.17595 10.3333 9.50559C9.83994 9.83524 9.45543 10.3038 9.22836 10.8519C9.0013 11.4001 8.94189 12.0033 9.05765 12.5853C9.1734 13.1672 9.45912 13.7018 9.87868 14.1213C10.2982 14.5409 10.8328 14.8266 11.4147 14.9424C11.9967 15.0581 12.5999 14.9987 13.1481 14.7716C13.6962 14.5446 14.1648 14.1601 14.4944 13.6667C14.8241 13.1734 15 12.5933 15 12C15 11.2044 14.6839 10.4413 14.1213 9.87868C13.5587 9.31607 12.7957 9 12 9Z" fill="black"/>
<path d="M19 9C18.4067 9 17.8266 9.17595 17.3333 9.50559C16.8399 9.83524 16.4554 10.3038 16.2284 10.8519C16.0013 11.4001 15.9419 12.0033 16.0576 12.5853C16.1734 13.1672 16.4591 13.7018 16.8787 14.1213C17.2982 14.5409 17.8328 14.8266 18.4147 14.9424C18.9967 15.0581 19.5999 14.9987 20.1481 14.7716C20.6962 14.5446 21.1648 14.1601 21.4944 13.6667C21.8241 13.1734 22 12.5933 22 12C22 11.2044 21.6839 10.4413 21.1213 9.87868C20.5587 9.31607 19.7957 9 19 9Z" fill="black"/>
<path d="M5 16C4.40666 16 3.82664 16.1759 3.33329 16.5056C2.83994 16.8352 2.45543 17.3038 2.22836 17.8519C2.0013 18.4001 1.94189 19.0033 2.05765 19.5853C2.1734 20.1672 2.45912 20.7018 2.87868 21.1213C3.29824 21.5409 3.83279 21.8266 4.41473 21.9424C4.99667 22.0581 5.59987 21.9987 6.14805 21.7716C6.69623 21.5446 7.16477 21.1601 7.49441 20.6667C7.82405 20.1734 8 19.5933 8 19C8 18.2044 7.68393 17.4413 7.12132 16.8787C6.55871 16.3161 5.79565 16 5 16V16Z" fill="black"/>
<path d="M12 16C11.4067 16 10.8266 16.1759 10.3333 16.5056C9.83994 16.8352 9.45543 17.3038 9.22836 17.8519C9.0013 18.4001 8.94189 19.0033 9.05765 19.5853C9.1734 20.1672 9.45912 20.7018 9.87868 21.1213C10.2982 21.5409 10.8328 21.8266 11.4147 21.9424C11.9967 22.0581 12.5999 21.9987 13.1481 21.7716C13.6962 21.5446 14.1648 21.1601 14.4944 20.6667C14.8241 20.1734 15 19.5933 15 19C15 18.2044 14.6839 17.4413 14.1213 16.8787C13.5587 16.3161 12.7957 16 12 16V16Z" fill="black"/>
<path d="M19 16C18.4067 16 17.8266 16.1759 17.3333 16.5056C16.8399 16.8352 16.4554 17.3038 16.2284 17.8519C16.0013 18.4001 15.9419 19.0033 16.0576 19.5853C16.1734 20.1672 16.4591 20.7018 16.8787 21.1213C17.2982 21.5409 17.8328 21.8266 18.4147 21.9424C18.9967 22.0581 19.5999 21.9987 20.1481 21.7716C20.6962 21.5446 21.1648 21.1601 21.4944 20.6667C21.8241 20.1734 22 19.5933 22 19C22 18.2044 21.6839 17.4413 21.1213 16.8787C20.5587 16.3161 19.7957 16 19 16V16Z" fill="black"/>
</svg>
