<svg width="24" height="24" viewBox="0 0 24 24" fill="none" xmlns="http://www.w3.org/2000/svg">
<path d="M9.99996 6C9.99996 5.46957 10.2107 4.96086 10.5857 4.58579C10.9608 4.21071 11.4695 4 12 4C12.5304 4 13.0391 4.21071 13.4142 4.58579C13.7892 4.96086 14 5.46957 14 6V11C14.0042 11.0532 14.0042 11.1068 14 11.16L15.6 12.75C15.8642 12.2045 16.0009 11.6061 16 11V6C15.9889 5.0122 15.6127 4.06342 14.9439 3.33644C14.275 2.60946 13.3608 2.1557 12.3773 2.06257C11.3938 1.96944 10.4107 2.24352 9.61727 2.83203C8.82383 3.42054 8.27623 4.28183 8.07996 5.25L9.99996 7.17V6Z" fill="black"/>
<path d="M19.0001 11C19.0001 10.7348 18.8947 10.4804 18.7072 10.2929C18.5196 10.1054 18.2653 10 18.0001 10C17.7348 10 17.4805 10.1054 17.293 10.2929C17.1054 10.4804 17.0001 10.7348 17.0001 11C16.9972 11.8737 16.7588 12.7304 16.3101 13.48L17.7801 15C18.5848 13.8221 19.0105 12.4265 19.0001 11V11Z" fill="black"/>
<path d="M12 15H12.16L8 10.83V11C8 12.0609 8.42143 13.0783 9.17157 13.8284C9.92172 14.5786 10.9391 15 12 15Z" fill="black"/>
<path d="M20.7099 19.29L4.70994 3.29C4.6167 3.19676 4.50601 3.1228 4.38419 3.07234C4.26237 3.02188 4.1318 2.99591 3.99994 2.99591C3.86808 2.99591 3.73751 3.02188 3.61569 3.07234C3.49387 3.1228 3.38318 3.19676 3.28994 3.29C3.10164 3.4783 2.99585 3.7337 2.99585 4C2.99585 4.2663 3.10164 4.5217 3.28994 4.71L19.2899 20.71C19.3829 20.8037 19.4935 20.8781 19.6154 20.9289C19.7372 20.9797 19.8679 21.0058 19.9999 21.0058C20.132 21.0058 20.2627 20.9797 20.3845 20.9289C20.5064 20.8781 20.617 20.8037 20.7099 20.71C20.8037 20.617 20.8781 20.5064 20.9288 20.3846C20.9796 20.2627 21.0057 20.132 21.0057 20C21.0057 19.868 20.9796 19.7373 20.9288 19.6154C20.8781 19.4936 20.8037 19.383 20.7099 19.29V19.29Z" fill="black"/>
<path d="M15 20H13V17.92C13.5659 17.8412 14.12 17.6935 14.65 17.48L13.05 15.88C12.7058 15.9605 12.3535 16.0007 12 16C10.6739 16 9.40215 15.4732 8.46447 14.5355C7.52678 13.5979 7 12.3261 7 11C7 10.7348 6.89464 10.4804 6.70711 10.2929C6.51957 10.1054 6.26522 10 6 10C5.73478 10 5.48043 10.1054 5.29289 10.2929C5.10536 10.4804 5 10.7348 5 11C5.00197 12.6818 5.60941 14.3068 6.71118 15.5775C7.81295 16.8482 9.3354 17.6797 11 17.92V20H9C8.73478 20 8.48043 20.1054 8.29289 20.2929C8.10536 20.4804 8 20.7348 8 21C8 21.2652 8.10536 21.5196 8.29289 21.7071C8.48043 21.8946 8.73478 22 9 22H15C15.2652 22 15.5196 21.8946 15.7071 21.7071C15.8946 21.5196 16 21.2652 16 21C16 20.7348 15.8946 20.4804 15.7071 20.2929C15.5196 20.1054 15.2652 20 15 20Z" fill="black"/>
</svg>
