<svg width="24" height="24" viewBox="0 0 24 24" fill="none" xmlns="http://www.w3.org/2000/svg">
<path d="M12 3C11.2043 3 10.4413 3.31607 9.87867 3.87868C9.31606 4.44129 8.99999 5.20435 8.99999 6V10C8.99999 10.7956 9.31606 11.5587 9.87867 12.1213C10.4413 12.6839 11.2043 13 12 13C12.7956 13 13.5587 12.6839 14.1213 12.1213C14.6839 11.5587 15 10.7956 15 10V6C15 5.20435 14.6839 4.44129 14.1213 3.87868C13.5587 3.31607 12.7956 3 12 3ZM12 1C12.6566 1 13.3068 1.12933 13.9134 1.3806C14.52 1.63188 15.0712 2.00017 15.5355 2.46447C15.9998 2.92876 16.3681 3.47995 16.6194 4.08658C16.8707 4.69321 17 5.34339 17 6V10C17 11.3261 16.4732 12.5979 15.5355 13.5355C14.5978 14.4732 13.3261 15 12 15C10.6739 15 9.40214 14.4732 8.46446 13.5355C7.52678 12.5979 6.99999 11.3261 6.99999 10V6C6.99999 4.67392 7.52678 3.40215 8.46446 2.46447C9.40214 1.52678 10.6739 1 12 1ZM3.05499 11H5.06999C5.31228 12.6648 6.14586 14.1867 7.41823 15.2873C8.69059 16.3879 10.3167 16.9936 11.999 16.9936C13.6813 16.9936 15.3074 16.3879 16.5798 15.2873C17.8521 14.1867 18.6857 12.6648 18.928 11H20.944C20.7166 13.0287 19.8066 14.9199 18.3632 16.3635C16.9198 17.8071 15.0287 18.7174 13 18.945V23H11V18.945C8.97113 18.7176 7.07978 17.8074 5.63617 16.3638C4.19256 14.9202 3.28241 13.0289 3.05499 11Z" fill="black"/>
</svg>
