<svg width="24" height="24" viewBox="0 0 24 24" fill="none" xmlns="http://www.w3.org/2000/svg">
<path d="M19 3H5C4.20435 3 3.44129 3.31607 2.87868 3.87868C2.31607 4.44129 2 5.20435 2 6V11H22V6C22 5.20435 21.6839 4.44129 21.1213 3.87868C20.5587 3.31607 19.7956 3 19 3Z" fill="black"/>
<path d="M2 14C2 14.7956 2.31607 15.5587 2.87868 16.1213C3.44129 16.6839 4.20435 17 5 17H11V19H7C6.73478 19 6.48043 19.1054 6.29289 19.2929C6.10536 19.4804 6 19.7348 6 20C6 20.2652 6.10536 20.5196 6.29289 20.7071C6.48043 20.8946 6.73478 21 7 21H17C17.2652 21 17.5196 20.8946 17.7071 20.7071C17.8946 20.5196 18 20.2652 18 20C18 19.7348 17.8946 19.4804 17.7071 19.2929C17.5196 19.1054 17.2652 19 17 19H13V17H19C19.7956 17 20.5587 16.6839 21.1213 16.1213C21.6839 15.5587 22 14.7956 22 14V13H2V14Z" fill="black"/>
</svg>
