<svg width="24" height="24" viewBox="0 0 24 24" fill="none" xmlns="http://www.w3.org/2000/svg">
<path d="M21.71 11.31L18.71 8.31C18.5217 8.1217 18.2663 8.01591 18 8.01591C17.7337 8.01591 17.4783 8.1217 17.29 8.31C17.1017 8.49831 16.9959 8.7537 16.9959 9.02C16.9959 9.2863 17.1017 9.5417 17.29 9.73L18.58 11H13V5.41L14.29 6.71C14.3835 6.80268 14.4943 6.87601 14.6161 6.92577C14.7379 6.97554 14.8684 7.00076 15 7C15.1316 7.00076 15.2621 6.97554 15.3839 6.92577C15.5058 6.87601 15.6166 6.80268 15.71 6.71C15.8037 6.61704 15.8781 6.50644 15.9289 6.38458C15.9797 6.26272 16.0058 6.13201 16.0058 6C16.0058 5.86799 15.9797 5.73728 15.9289 5.61542C15.8781 5.49357 15.8037 5.38296 15.71 5.29L12.71 2.29C12.6166 2.19732 12.5058 2.12399 12.3839 2.07423C12.2621 2.02447 12.1316 1.99924 12 2C11.7377 2.00111 11.4863 2.10526 11.3 2.29L8.30002 5.29C8.20678 5.38258 8.13269 5.49262 8.08198 5.61384C8.03126 5.73505 8.00493 5.86507 8.00446 5.99647C8.004 6.12786 8.02942 6.25806 8.07927 6.37963C8.12912 6.5012 8.20243 6.61176 8.29502 6.705C8.3876 6.79824 8.49764 6.87233 8.61885 6.92304C8.74007 6.97375 8.87009 7.00009 9.00148 7.00056C9.26685 7.0015 9.52171 6.89698 9.71002 6.71L11 5.42V11H5.41002L6.71002 9.71C6.89832 9.5217 7.00411 9.2663 7.00411 9C7.00411 8.7337 6.89832 8.47831 6.71002 8.29C6.52171 8.1017 6.26632 7.99591 6.00002 7.99591C5.73372 7.99591 5.47832 8.1017 5.29002 8.29L2.29002 11.29C2.19734 11.3834 2.12401 11.4943 2.07425 11.6161C2.02448 11.7379 1.99926 11.8684 2.00002 12C1.99926 12.1316 2.02448 12.2621 2.07425 12.3839C2.12401 12.5057 2.19734 12.6166 2.29002 12.71L5.29002 15.71C5.38346 15.8027 5.49427 15.876 5.61611 15.9258C5.73795 15.9755 5.86841 16.0008 6.00002 16C6.13162 16.0008 6.26209 15.9755 6.38392 15.9258C6.50576 15.876 6.61658 15.8027 6.71002 15.71C6.80375 15.617 6.87814 15.5064 6.92891 15.3846C6.97968 15.2627 7.00582 15.132 7.00582 15C7.00582 14.868 6.97968 14.7373 6.92891 14.6154C6.87814 14.4936 6.80375 14.383 6.71002 14.29L5.42002 13H11V18.59L9.71002 17.29C9.61678 17.1968 9.50609 17.1228 9.38427 17.0723C9.26244 17.0219 9.13188 16.9959 9.00002 16.9959C8.86816 16.9959 8.73759 17.0219 8.61577 17.0723C8.49394 17.1228 8.38326 17.1968 8.29002 17.29C8.19678 17.3832 8.12282 17.4939 8.07236 17.6158C8.0219 17.7376 7.99592 17.8681 7.99592 18C7.99592 18.1319 8.0219 18.2624 8.07236 18.3843C8.12282 18.5061 8.19678 18.6168 8.29002 18.71L11.29 21.71C11.3835 21.8027 11.4943 21.876 11.6161 21.9258C11.7379 21.9755 11.8684 22.0008 12 22C12.2624 21.9989 12.5138 21.8947 12.7 21.71L15.7 18.71C15.8883 18.5217 15.9941 18.2663 15.9941 18C15.9941 17.7337 15.8883 17.4783 15.7 17.29C15.5117 17.1017 15.2563 16.9959 14.99 16.9959C14.7237 16.9959 14.4683 17.1017 14.28 17.29L13 18.58V13H18.59L17.29 14.29C17.1963 14.383 17.1219 14.4936 17.0711 14.6154C17.0204 14.7373 16.9942 14.868 16.9942 15C16.9942 15.132 17.0204 15.2627 17.0711 15.3846C17.1219 15.5064 17.1963 15.617 17.29 15.71C17.3835 15.8027 17.4943 15.876 17.6161 15.9258C17.7379 15.9755 17.8684 16.0008 18 16C18.1316 16.0008 18.2621 15.9755 18.3839 15.9258C18.5058 15.876 18.6166 15.8027 18.71 15.71L21.71 12.71C21.8027 12.6166 21.876 12.5057 21.9258 12.3839C21.9756 12.2621 22.0008 12.1316 22 12C21.9963 11.7411 21.8924 11.4938 21.71 11.31V11.31Z" fill="black"/>
</svg>
