<svg width="24" height="24" viewBox="0 0 24 24" fill="none" xmlns="http://www.w3.org/2000/svg">
<path d="M18.9999 15V4C18.9992 3.84979 18.9647 3.70167 18.8989 3.56664C18.8332 3.4316 18.7378 3.31312 18.6199 3.22C18.5038 3.12602 18.368 3.05927 18.2226 3.02466C18.0773 2.99005 17.926 2.98846 17.7799 3.02L8.77994 5.02C8.55776 5.0701 8.35934 5.19455 8.21751 5.37275C8.07567 5.55096 7.99892 5.77224 7.99994 6V14.34C7.31727 14.0177 6.54851 13.9255 5.80897 14.0771C5.06944 14.2288 4.39902 14.6161 3.89828 15.1811C3.39754 15.746 3.09348 16.4581 3.03172 17.2105C2.96996 17.9629 3.15383 18.715 3.55574 19.354C3.95765 19.9931 4.55594 20.4846 5.26084 20.7548C5.96574 21.025 6.73926 21.0593 7.46534 20.8527C8.19143 20.646 8.83094 20.2095 9.28792 19.6087C9.74491 19.0078 9.99475 18.2749 9.99994 17.52C10.0103 17.3468 10.0103 17.1732 9.99994 17V6.8L16.9999 5.25V12.34C16.3169 12.0175 15.5477 11.9254 14.8078 12.0773C14.0679 12.2293 13.3972 12.6172 12.8966 13.1829C12.396 13.7485 12.0924 14.4613 12.0314 15.2141C11.9704 15.967 12.1553 16.7194 12.5583 17.3582C12.9614 17.997 13.5608 18.4878 14.2666 18.757C14.9724 19.0261 15.7464 19.0589 16.4725 18.8506C17.1985 18.6423 17.8374 18.204 18.2931 17.6017C18.7489 16.9993 18.9969 16.2653 18.9999 15.51C19.0094 15.3401 19.0094 15.1699 18.9999 15V15ZM6.53994 19C6.25812 18.9999 5.9821 18.9199 5.74393 18.7692C5.50576 18.6186 5.3152 18.4035 5.19436 18.1489C5.07353 17.8943 5.02738 17.6106 5.06127 17.3308C5.09516 17.051 5.20769 16.7866 5.38582 16.5682C5.56395 16.3498 5.80036 16.1864 6.06761 16.097C6.33487 16.0076 6.62201 15.9958 6.8957 16.063C7.16939 16.1302 7.41842 16.2736 7.61388 16.4766C7.80933 16.6797 7.9432 16.9339 7.99994 17.21C8.00977 17.3098 8.00977 17.4102 7.99994 17.51C8.00002 17.9 7.84716 18.2745 7.57419 18.5531C7.30122 18.8317 6.92989 18.9921 6.53994 19V19ZM15.5399 17C15.2552 17.0022 14.9757 16.9233 14.7341 16.7726C14.4926 16.6218 14.2989 16.4054 14.1758 16.1487C14.0526 15.8919 14.0051 15.6055 14.0388 15.3227C14.0724 15.0399 14.1859 14.7726 14.3659 14.552C14.5458 14.3313 14.7849 14.1664 15.0551 14.0766C15.3253 13.9868 15.6155 13.9758 15.8918 14.0448C16.1681 14.1138 16.419 14.26 16.6152 14.4663C16.8114 14.6727 16.9449 14.9306 16.9999 15.21C17.0098 15.3098 17.0098 15.4102 16.9999 15.51C16.9973 15.9044 16.8395 16.2818 16.5606 16.5607C16.2818 16.8396 15.9043 16.9974 15.5099 17H15.5399Z" fill="black"/>
</svg>
