<svg width="24" height="24" viewBox="0 0 24 24" fill="none" xmlns="http://www.w3.org/2000/svg">
<path d="M13.6699 22H13.6099C13.3899 21.9867 13.1803 21.9011 13.0139 21.7564C12.8476 21.6117 12.7336 21.4161 12.6899 21.2L11.1499 13.63C11.1108 13.4378 11.0159 13.2614 10.8772 13.1227C10.7385 12.984 10.5621 12.8892 10.3699 12.85L2.79995 11.31C2.58342 11.267 2.38721 11.1535 2.2419 10.9874C2.0966 10.8212 2.01038 10.6115 1.99668 10.3912C1.98298 10.1709 2.04257 9.95221 2.16617 9.76929C2.28977 9.58637 2.47042 9.44949 2.67995 9.38L18.68 4.05C18.8595 3.97584 19.0569 3.95561 19.2478 3.99179C19.4387 4.02796 19.6149 4.11896 19.7549 4.25368C19.895 4.3884 19.9927 4.56099 20.0362 4.75036C20.0797 4.93973 20.0671 5.13767 20 5.32L14.6699 21.32C14.6004 21.527 14.465 21.7055 14.2844 21.8283C14.1038 21.9511 13.888 22.0114 13.6699 22Z" fill="black"/>
</svg>
