<svg width="24" height="24" viewBox="0 0 24 24" fill="none" xmlns="http://www.w3.org/2000/svg">
<path d="M18.586 19.9999H4.00001C3.90715 19.9999 3.81613 19.9741 3.73714 19.9253C3.65815 19.8765 3.59432 19.8066 3.55279 19.7236C3.51127 19.6405 3.49369 19.5475 3.50203 19.455C3.51036 19.3626 3.54429 19.2742 3.60001 19.1999L4.00001 18.6669V9.99994C4.00001 8.66994 4.32401 7.41594 4.89901 6.31294L1.39301 2.80794L2.80801 1.39294L22.607 21.1929L21.192 22.6069L18.586 19.9999ZM6.40801 7.82194C6.13762 8.51622 5.99925 9.25488 6.00001 9.99994V17.9999H16.586L6.40801 7.82194ZM20 15.7859L18 13.7859V9.99994C18.0002 8.94761 17.7236 7.91373 17.198 7.00206C16.6724 6.09039 15.9163 5.33299 15.0055 4.80586C14.0947 4.27874 13.0613 4.00043 12.0089 3.99886C10.9566 3.9973 9.92236 4.27253 9.01001 4.79694L7.56001 3.34494C8.76474 2.54116 10.1651 2.07949 11.6116 2.00918C13.0582 1.93887 14.4967 2.26256 15.7737 2.94572C17.0507 3.62887 18.1183 4.64587 18.8626 5.88823C19.6069 7.13058 20 8.55169 20 9.99994V15.7859ZM9.50001 20.9999H14.5C14.5 21.663 14.2366 22.2989 13.7678 22.7677C13.2989 23.2366 12.663 23.4999 12 23.4999C11.337 23.4999 10.7011 23.2366 10.2322 22.7677C9.7634 22.2989 9.50001 21.663 9.50001 20.9999Z" fill="currentColor"/>
</svg>
