<svg width="24" height="24" viewBox="0 0 24 24" fill="none" xmlns="http://www.w3.org/2000/svg">
<path d="M19 9C18.3811 9.00174 17.7778 9.19488 17.2729 9.55294C16.7681 9.91099 16.3863 10.4164 16.18 11H3C2.73478 11 2.48043 11.1054 2.29289 11.2929C2.10536 11.4804 2 11.7348 2 12C2 12.2652 2.10536 12.5196 2.29289 12.7071C2.48043 12.8946 2.73478 13 3 13H16.18C16.3635 13.5189 16.6861 13.9773 17.1126 14.3251C17.5392 14.6729 18.0532 14.8966 18.5984 14.9718C19.1435 15.0471 19.6989 14.9709 20.2037 14.7516C20.7085 14.5323 21.1432 14.1784 21.4603 13.7286C21.7775 13.2788 21.9647 12.7504 22.0017 12.2013C22.0386 11.6522 21.9238 11.1035 21.6697 10.6153C21.4157 10.1271 21.0323 9.71812 20.5614 9.43322C20.0905 9.14833 19.5504 8.99845 19 9V9ZM19 13C18.8022 13 18.6089 12.9413 18.4444 12.8315C18.28 12.7216 18.1518 12.5654 18.0761 12.3827C18.0004 12.2 17.9806 11.9989 18.0192 11.8049C18.0578 11.6109 18.153 11.4327 18.2929 11.2929C18.4327 11.153 18.6109 11.0578 18.8049 11.0192C18.9989 10.9806 19.2 11.0004 19.3827 11.0761C19.5654 11.1518 19.7216 11.28 19.8315 11.4444C19.9414 11.6089 20 11.8022 20 12C20 12.2652 19.8946 12.5196 19.7071 12.7071C19.5196 12.8946 19.2652 13 19 13Z" fill="black"/>
<path d="M3 7H4.18C4.3902 7.57915 4.77363 8.07954 5.27817 8.43316C5.7827 8.78677 6.38388 8.97647 7 8.97647C7.61612 8.97647 8.2173 8.78677 8.72184 8.43316C9.22637 8.07954 9.6098 7.57915 9.82 7H21C21.2652 7 21.5196 6.89464 21.7071 6.7071C21.8946 6.51957 22 6.26521 22 6C22 5.73478 21.8946 5.48043 21.7071 5.29289C21.5196 5.10536 21.2652 5 21 5H9.82C9.6098 4.42085 9.22637 3.92046 8.72184 3.56684C8.2173 3.21322 7.61612 3.02352 7 3.02352C6.38388 3.02352 5.7827 3.21322 5.27817 3.56684C4.77363 3.92046 4.3902 4.42085 4.18 5H3C2.73478 5 2.48043 5.10536 2.29289 5.29289C2.10536 5.48043 2 5.73478 2 6C2 6.26521 2.10536 6.51957 2.29289 6.7071C2.48043 6.89464 2.73478 7 3 7V7ZM7 5C7.19778 5 7.39112 5.05865 7.55557 5.16853C7.72002 5.27841 7.84819 5.43459 7.92388 5.61731C7.99957 5.80004 8.01937 6.00111 7.98079 6.19509C7.9422 6.38907 7.84696 6.56725 7.70711 6.7071C7.56725 6.84696 7.38907 6.9422 7.19509 6.98078C7.00111 7.01937 6.80004 6.99957 6.61732 6.92388C6.43459 6.84819 6.27841 6.72002 6.16853 6.55557C6.05865 6.39112 6 6.19778 6 6C6 5.73478 6.10536 5.48043 6.29289 5.29289C6.48043 5.10536 6.73478 5 7 5V5Z" fill="black"/>
<path d="M21 17H13.82C13.6098 16.4208 13.2264 15.9205 12.7218 15.5668C12.2173 15.2132 11.6161 15.0235 11 15.0235C10.3839 15.0235 9.7827 15.2132 9.27816 15.5668C8.77363 15.9205 8.3902 16.4208 8.18 17H3C2.73478 17 2.48043 17.1054 2.29289 17.2929C2.10536 17.4804 2 17.7348 2 18C2 18.2652 2.10536 18.5196 2.29289 18.7071C2.48043 18.8946 2.73478 19 3 19H8.18C8.3902 19.5792 8.77363 20.0795 9.27816 20.4332C9.7827 20.7868 10.3839 20.9765 11 20.9765C11.6161 20.9765 12.2173 20.7868 12.7218 20.4332C13.2264 20.0795 13.6098 19.5792 13.82 19H21C21.2652 19 21.5196 18.8946 21.7071 18.7071C21.8946 18.5196 22 18.2652 22 18C22 17.7348 21.8946 17.4804 21.7071 17.2929C21.5196 17.1054 21.2652 17 21 17ZM11 19C10.8022 19 10.6089 18.9413 10.4444 18.8315C10.28 18.7216 10.1518 18.5654 10.0761 18.3827C10.0004 18.2 9.98063 17.9989 10.0192 17.8049C10.0578 17.6109 10.153 17.4327 10.2929 17.2929C10.4327 17.153 10.6109 17.0578 10.8049 17.0192C10.9989 16.9806 11.2 17.0004 11.3827 17.0761C11.5654 17.1518 11.7216 17.28 11.8315 17.4444C11.9414 17.6089 12 17.8022 12 18C12 18.2652 11.8946 18.5196 11.7071 18.7071C11.5196 18.8946 11.2652 19 11 19Z" fill="black"/>
</svg>
