<svg width="24" height="24" viewBox="0 0 24 24" fill="none" xmlns="http://www.w3.org/2000/svg">
<path d="M20 13.18H17.3L15.44 15.18L11.88 19L10.47 20.52L10 21H20C20.2652 21 20.5196 20.8946 20.7071 20.7071C20.8946 20.5196 21 20.2652 21 20V14.18C21 13.9148 20.8946 13.6604 20.7071 13.4729C20.5196 13.2854 20.2652 13.18 20 13.18Z" fill="black"/>
<path d="M18.19 9.3L14.05 5.44C13.958 5.3472 13.8467 5.27579 13.724 5.23086C13.6013 5.18592 13.4702 5.16856 13.34 5.18C13.2087 5.18317 13.0793 5.21217 12.9592 5.26536C12.8391 5.31855 12.7306 5.39489 12.64 5.49L11.82 6.38V17.09C11.8104 17.281 11.7904 17.4712 11.76 17.66L18.24 10.71C18.4198 10.5161 18.5154 10.2589 18.5061 9.99468C18.4967 9.73045 18.3831 9.48067 18.19 9.3V9.3Z" fill="black"/>
<path d="M10.82 4C10.82 3.73478 10.7146 3.48043 10.5271 3.29289C10.3396 3.10536 10.0852 3 9.82 3H4C3.73478 3 3.48043 3.10536 3.29289 3.29289C3.10536 3.48043 3 3.73478 3 4V17.09C3 18.127 3.41195 19.1215 4.14521 19.8548C4.87848 20.5881 5.873 21 6.91 21C7.947 21 8.94152 20.5881 9.67479 19.8548C10.4081 19.1215 10.82 18.127 10.82 17.09V4ZM8.82 17.09C8.82 17.5966 8.61877 18.0824 8.26057 18.4406C7.90238 18.7988 7.41656 19 6.91 19C6.40344 19 5.91762 18.7988 5.55943 18.4406C5.20123 18.0824 5 17.5966 5 17.09V15H8.82V17.09ZM8.82 13H5V10H8.82V13ZM8.82 8H5V5H8.82V8Z" fill="black"/>
</svg>
