<svg width="24" height="24" viewBox="0 0 24 24" fill="none" xmlns="http://www.w3.org/2000/svg">
<path d="M20.47 7.5L21.2 6.77C21.3949 6.57507 21.5044 6.31068 21.5044 6.035C21.5044 5.75932 21.3949 5.49494 21.2 5.3C21.005 5.10507 20.7406 4.99555 20.465 4.99555C20.1893 4.99555 19.9249 5.10507 19.73 5.3L19 6L18.27 5.27C18.0711 5.07507 17.8029 4.96714 17.5244 4.96995C17.2459 4.97276 16.9799 5.08609 16.785 5.285C16.59 5.48391 16.4821 5.75212 16.4849 6.03061C16.4877 6.3091 16.6011 6.57507 16.8 6.77L17.53 7.5L16.8 8.23C16.605 8.42494 16.4955 8.68932 16.4955 8.965C16.4955 9.24068 16.605 9.50507 16.8 9.7C16.9949 9.89494 17.2593 10.0044 17.535 10.0044C17.8106 10.0044 18.075 9.89494 18.27 9.7L19 9L19.73 9.73C19.9289 9.92494 20.1971 10.0329 20.4756 10.0301C20.7541 10.0272 21.02 9.91391 21.215 9.715C21.4099 9.51609 21.5178 9.24789 21.515 8.9694C21.5122 8.6909 21.3989 8.42494 21.2 8.23L20.47 7.5Z" fill="black"/>
<path d="M10 11C10.7911 11 11.5645 10.7654 12.2223 10.3259C12.8801 9.88635 13.3928 9.26164 13.6955 8.53074C13.9983 7.79983 14.0775 6.99556 13.9231 6.21964C13.7688 5.44372 13.3878 4.73098 12.8284 4.17157C12.269 3.61216 11.5563 3.2312 10.7804 3.07686C10.0044 2.92252 9.20017 3.00173 8.46927 3.30448C7.73836 3.60723 7.11365 4.11992 6.67412 4.77772C6.2346 5.43552 6 6.20888 6 7C6 8.06087 6.42143 9.07828 7.17157 9.82843C7.92172 10.5786 8.93913 11 10 11Z" fill="black"/>
<path d="M16 21C16.2652 21 16.5196 20.8946 16.7071 20.7071C16.8946 20.5196 17 20.2652 17 20C17 18.1435 16.2625 16.363 14.9497 15.0503C13.637 13.7375 11.8565 13 10 13C8.14348 13 6.36301 13.7375 5.05025 15.0503C3.7375 16.363 3 18.1435 3 20C3 20.2652 3.10536 20.5196 3.29289 20.7071C3.48043 20.8946 3.73478 21 4 21H16Z" fill="black"/>
</svg>
