<svg width="24" height="24" viewBox="0 0 24 24" fill="none" xmlns="http://www.w3.org/2000/svg">
<path d="M13.37 2.09395C10.9772 1.76481 8.54622 2.31251 6.5258 3.63591C4.50538 4.95932 3.03202 6.96906 2.37777 9.29402C1.72353 11.619 1.93258 14.1022 2.96634 16.285C4.00009 18.4679 5.78873 20.203 8.00197 21.17C7.94212 20.4018 7.99706 19.629 8.16497 18.877C8.34997 18.038 9.46097 13.414 9.46097 13.414C9.23974 12.9181 9.12918 12.3799 9.13697 11.837C9.13697 10.352 9.99397 9.24396 11.06 9.24396C11.2515 9.24117 11.4413 9.27965 11.6166 9.35679C11.792 9.43392 11.9486 9.5479 12.0759 9.69098C12.2032 9.83405 12.2983 10.0029 12.3545 10.1859C12.4108 10.369 12.427 10.5621 12.402 10.752C12.402 11.652 11.824 13.014 11.522 14.292C11.4623 14.5263 11.4585 14.7715 11.5109 15.0076C11.5633 15.2437 11.6705 15.4642 11.8237 15.6513C11.977 15.8384 12.172 15.9869 12.3932 16.0848C12.6144 16.1827 12.8554 16.2273 13.097 16.215C14.995 16.215 16.267 13.784 16.267 10.914C16.267 8.71395 14.81 7.06595 12.124 7.06595C11.4813 7.04098 10.8404 7.14688 10.2399 7.37721C9.63946 7.60754 9.09209 7.9575 8.63102 8.40584C8.16996 8.85419 7.80483 9.39156 7.5578 9.98533C7.31076 10.5791 7.18698 11.2169 7.19397 11.86C7.16534 12.5733 7.39548 13.2729 7.84197 13.83C7.92541 13.8922 7.98633 13.98 8.01555 14.0799C8.04477 14.1798 8.04071 14.2865 8.00397 14.384C7.95797 14.568 7.84197 15.007 7.79597 15.168C7.7864 15.2226 7.76415 15.2741 7.731 15.3186C7.69784 15.363 7.65472 15.399 7.6051 15.4237C7.55549 15.4484 7.50076 15.4611 7.44533 15.4608C7.3899 15.4605 7.33531 15.4472 7.28597 15.422C5.90197 14.868 5.24997 13.345 5.24997 11.606C5.24997 8.75896 7.63397 5.35095 12.404 5.35095C16.2 5.35095 18.724 8.12795 18.724 11.098C18.724 15.007 16.547 17.946 13.33 17.946C12.8492 17.9613 12.3722 17.8552 11.9433 17.6374C11.5144 17.4196 11.1473 17.0972 10.876 16.7C10.876 16.7 10.298 19.016 10.184 19.454C9.95127 20.2107 9.60788 20.9288 9.16497 21.585C10.088 21.865 11.047 22.005 12.011 22.001C13.3246 22.002 14.6254 21.7439 15.8391 21.2415C17.0528 20.7391 18.1555 20.0022 19.084 19.0731C20.0126 18.1439 20.7487 17.0407 21.2502 15.8267C21.7518 14.6126 22.0089 13.3115 22.007 11.998C22.0057 9.58295 21.1308 7.24995 19.5436 5.42973C17.9564 3.60952 15.7643 2.42502 13.372 2.09495L13.37 2.09395Z" fill="black"/>
</svg>
