<svg width="24" height="24" viewBox="0 0 24 24" fill="none" xmlns="http://www.w3.org/2000/svg">
<path d="M19.36 7H18V5C18.0217 4.49233 17.8413 3.99675 17.4983 3.62186C17.1553 3.24698 16.6776 3.02335 16.17 3H7.83002C7.32242 3.02335 6.84478 3.24698 6.50175 3.62186C6.15873 3.99675 5.97831 4.49233 6.00002 5V7H4.64002C3.93628 7.00529 3.26331 7.28924 2.7685 7.78968C2.27369 8.29011 1.99735 8.96625 2.00002 9.67V16.33C1.99735 17.0338 2.27369 17.7099 2.7685 18.2103C3.26331 18.7108 3.93628 18.9947 4.64002 19H5.50002C5.50002 19.5304 5.71073 20.0391 6.08581 20.4142C6.46088 20.7893 6.96959 21 7.50002 21H16.5C17.0305 21 17.5392 20.7893 17.9142 20.4142C18.2893 20.0391 18.5 19.5304 18.5 19H19.36C20.0638 18.9947 20.7367 18.7108 21.2315 18.2103C21.7264 17.7099 22.0027 17.0338 22 16.33V9.67C22.0027 8.96625 21.7264 8.29011 21.2315 7.78968C20.7367 7.28924 20.0638 7.00529 19.36 7ZM8.00002 5H16V7H8.00002V5ZM7.50002 19V15H16.5V19H7.50002ZM20 16.33C20.0027 16.5034 19.9371 16.6708 19.8174 16.7962C19.6976 16.9216 19.5333 16.9948 19.36 17H18.5V15C18.5 14.4696 18.2893 13.9609 17.9142 13.5858C17.5392 13.2107 17.0305 13 16.5 13H7.50002C6.96959 13 6.46088 13.2107 6.08581 13.5858C5.71073 13.9609 5.50002 14.4696 5.50002 15V17H4.64002C4.46672 16.9948 4.30244 16.9216 4.18269 16.7962C4.06293 16.6708 3.99731 16.5034 4.00002 16.33V9.67C3.99731 9.49664 4.06293 9.32919 4.18269 9.20382C4.30244 9.07845 4.46672 9.00523 4.64002 9H19.36C19.5333 9.00523 19.6976 9.07845 19.8174 9.20382C19.9371 9.32919 20.0027 9.49664 20 9.67V16.33Z" fill="black"/>
</svg>
