<svg width="24" height="24" viewBox="0 0 24 24" fill="none" xmlns="http://www.w3.org/2000/svg">
<path d="M14.173 9.763C15.9956 9.35774 17.6679 8.44932 19 7.141V4H5V7.141C6.33205 8.44932 8.00441 9.35774 9.827 9.763C10.0453 9.37921 10.3614 9.06008 10.7431 8.83809C11.1248 8.6161 11.5585 8.49915 12 8.49915C12.4415 8.49915 12.8752 8.6161 13.2569 8.83809C13.6386 9.06008 13.9547 9.37921 14.173 9.763ZM14.381 11.763C14.219 12.2671 13.9011 12.7067 13.4732 13.0186C13.0453 13.3305 12.5295 13.4986 12 13.4986C11.4705 13.4986 10.9547 13.3305 10.5268 13.0186C10.0989 12.7067 9.78105 12.2671 9.619 11.763C7.95359 11.4279 6.37886 10.7413 5 9.749V20H19V9.748C17.6213 10.741 16.0466 11.4283 14.381 11.764V11.763ZM4 2H20C20.2652 2 20.5196 2.10536 20.7071 2.29289C20.8946 2.48043 21 2.73478 21 3V21C21 21.2652 20.8946 21.5196 20.7071 21.7071C20.5196 21.8946 20.2652 22 20 22H4C3.73478 22 3.48043 21.8946 3.29289 21.7071C3.10536 21.5196 3 21.2652 3 21V3C3 2.73478 3.10536 2.48043 3.29289 2.29289C3.48043 2.10536 3.73478 2 4 2Z" fill="black"/>
</svg>
