<svg width="24" height="24" viewBox="0 0 24 24" fill="none" xmlns="http://www.w3.org/2000/svg">
<path d="M8 20V21.932C8.00015 22.027 7.97319 22.1202 7.92227 22.2005C7.87134 22.2808 7.79858 22.3449 7.7125 22.3854C7.62642 22.4258 7.53061 22.4408 7.43629 22.4287C7.34197 22.4166 7.25307 22.3778 7.18 22.317L3.06 18.884C2.98098 18.8181 2.92421 18.7294 2.89744 18.63C2.87067 18.5307 2.8752 18.4255 2.91042 18.3288C2.94563 18.2321 3.00982 18.1487 3.09421 18.0898C3.17861 18.031 3.27911 17.9996 3.382 18H18C18.5304 18 19.0391 17.7892 19.4142 17.4142C19.7893 17.0391 20 16.5304 20 16V7.99995H22V16C22 17.0608 21.5786 18.0782 20.8284 18.8284C20.0783 19.5785 19.0609 20 18 20H8ZM16 2.06795C15.9998 1.97286 16.0268 1.8797 16.0777 1.79939C16.1287 1.71908 16.2014 1.65496 16.2875 1.61454C16.3736 1.57413 16.4694 1.5591 16.5637 1.57121C16.658 1.58333 16.7469 1.62209 16.82 1.68295L20.94 5.11595C21.019 5.18179 21.0757 5.27037 21.1025 5.36963C21.1293 5.46888 21.1248 5.57398 21.0898 5.67061C21.0547 5.76724 20.9906 5.85071 20.9064 5.90964C20.8222 5.96858 20.7218 6.00011 20.619 5.99995H6C5.46957 5.99995 4.96086 6.21067 4.58579 6.58574C4.21071 6.96081 4 7.46952 4 7.99995V16H2V7.99995C2 6.93909 2.42143 5.92167 3.17157 5.17152C3.92172 4.42138 4.93913 3.99995 6 3.99995H16V2.06795ZM11 7.99995H13V16H11V9.99995H9V8.99995L11 7.99995Z" fill="black"/>
</svg>
