<svg width="24" height="24" viewBox="0 0 24 24" fill="none" xmlns="http://www.w3.org/2000/svg">
<path d="M18.45 6.19999C18.0942 6.03196 17.6984 5.96724 17.3077 6.01321C16.917 6.05918 16.547 6.21399 16.24 6.45999L11.5 10.38V7.78999C11.496 7.45214 11.3949 7.12256 11.2087 6.84061C11.0225 6.55867 10.7591 6.33627 10.45 6.19999C10.0942 6.03196 9.69843 5.96724 9.30769 6.01321C8.91696 6.05918 8.54699 6.21399 8.23996 6.45999L3.13996 10.67C2.93996 10.8292 2.77845 11.0315 2.66744 11.2617C2.55643 11.492 2.49878 11.7444 2.49878 12C2.49878 12.2556 2.55643 12.508 2.66744 12.7382C2.77845 12.9685 2.93996 13.1708 3.13996 13.33L8.23996 17.54C8.60758 17.8381 9.06665 18.0006 9.53996 18C9.85399 17.9981 10.1641 17.93 10.45 17.8C10.7591 17.6637 11.0225 17.4413 11.2087 17.1594C11.3949 16.8774 11.496 16.5478 11.5 16.21V13.62L16.24 17.54C16.6076 17.8381 17.0666 18.0006 17.54 18C17.854 17.9981 18.1641 17.93 18.45 17.8C18.7591 17.6637 19.0225 17.4413 19.2087 17.1594C19.3949 16.8774 19.496 16.5478 19.5 16.21V7.78999C19.496 7.45214 19.3949 7.12256 19.2087 6.84061C19.0225 6.55867 18.7591 6.33627 18.45 6.19999V6.19999ZM9.49996 16L4.67996 12L9.49996 8.08999V16ZM17.5 16L12.68 12L17.5 8.08999V16Z" fill="black"/>
</svg>
