<svg width="24" height="24" viewBox="0 0 24 24" fill="none" xmlns="http://www.w3.org/2000/svg">
<path d="M20.8601 10.67L15.7601 6.45999C15.453 6.21399 15.0831 6.05918 14.6923 6.01321C14.3016 5.96724 13.9058 6.03196 13.5501 6.19999C13.2409 6.33627 12.9775 6.55867 12.7913 6.84061C12.6051 7.12256 12.504 7.45214 12.5001 7.78999V10.38L7.76005 6.45999C7.45302 6.21399 7.08305 6.05918 6.69232 6.01321C6.30158 5.96724 5.90579 6.03196 5.55005 6.19999C5.25023 6.34353 4.99718 6.56905 4.82021 6.85044C4.64324 7.13183 4.54957 7.45758 4.55005 7.78999V16.21C4.54957 16.5424 4.64324 16.8682 4.82021 17.1495C4.99718 17.4309 5.25023 17.6565 5.55005 17.8C5.83592 17.93 6.14602 17.9981 6.46005 18C6.93336 18.0006 7.39243 17.8381 7.76005 17.54L12.5001 13.62V16.21C12.504 16.5478 12.6051 16.8774 12.7913 17.1594C12.9775 17.4413 13.2409 17.6637 13.5501 17.8C13.8359 17.93 14.146 17.9981 14.4601 18C14.9334 18.0006 15.3924 17.8381 15.7601 17.54L20.8601 13.33C21.06 13.1708 21.2216 12.9685 21.3326 12.7382C21.4436 12.508 21.5012 12.2556 21.5012 12C21.5012 11.7444 21.4436 11.492 21.3326 11.2617C21.2216 11.0315 21.06 10.8292 20.8601 10.67V10.67Z" fill="black"/>
</svg>
