<svg width="24" height="24" viewBox="0 0 24 24" fill="none" xmlns="http://www.w3.org/2000/svg">
<path d="M18 15C17.2144 15.0006 16.4604 15.3094 15.9 15.86L8.00003 12.34V12V11.67L15.9 8.13999C16.3949 8.62501 17.0423 8.9238 17.7324 8.9856C18.4225 9.04741 19.1128 8.86843 19.6859 8.47906C20.259 8.08969 20.6797 7.51393 20.8765 6.84958C21.0733 6.18523 21.034 5.47325 20.7654 4.83455C20.4968 4.19585 20.0154 3.66982 19.4029 3.3458C18.7905 3.02179 18.0848 2.91975 17.4056 3.05704C16.7265 3.19433 16.1158 3.56246 15.6773 4.09893C15.2388 4.63539 14.9995 5.30711 15 5.99999V6.33999L7.10003 9.85999C6.67839 9.44575 6.14378 9.16529 5.5633 9.05382C4.98282 8.94235 4.38235 9.00485 3.83726 9.23346C3.29218 9.46207 2.82677 9.84661 2.49947 10.3388C2.17217 10.831 1.99756 11.4089 1.99756 12C1.99756 12.5911 2.17217 13.169 2.49947 13.6612C2.82677 14.1534 3.29218 14.5379 3.83726 14.7665C4.38235 14.9951 4.98282 15.0576 5.5633 14.9462C6.14378 14.8347 6.67839 14.5542 7.10003 14.14L15 17.67V18C15 18.5933 15.176 19.1734 15.5056 19.6667C15.8353 20.16 16.3038 20.5446 16.852 20.7716C17.4002 20.9987 18.0034 21.0581 18.5853 20.9423C19.1672 20.8266 19.7018 20.5409 20.1214 20.1213C20.5409 19.7018 20.8266 19.1672 20.9424 18.5853C21.0581 18.0033 20.9987 17.4001 20.7717 16.8519C20.5446 16.3038 20.1601 15.8352 19.6667 15.5056C19.1734 15.1759 18.5934 15 18 15Z" fill="black"/>
</svg>
