<svg width="24" height="24" viewBox="0 0 24 24" fill="none" xmlns="http://www.w3.org/2000/svg">
<path d="M13.12 17.023L8.92099 14.733C8.37279 15.319 7.66098 15.7266 6.87807 15.9028C6.09515 16.0791 5.27734 16.0157 4.53091 15.721C3.78448 15.4263 3.14395 14.9139 2.69256 14.2504C2.24117 13.5869 1.99979 12.803 1.99979 12.0005C1.99979 11.198 2.24117 10.414 2.69256 9.75051C3.14395 9.08701 3.78448 8.57461 4.53091 8.27992C5.27734 7.98523 6.09515 7.92187 6.87807 8.09807C7.66098 8.27428 8.37279 8.6819 8.92099 9.26796L13.121 6.97796C12.8825 6.03403 12.9965 5.03555 13.4416 4.16966C13.8867 3.30378 14.6323 2.62994 15.5387 2.27446C16.445 1.91898 17.4499 1.90626 18.365 2.23869C19.28 2.57112 20.0425 3.22588 20.5093 4.08022C20.9761 4.93457 21.1154 5.92985 20.9009 6.8795C20.6864 7.82916 20.1329 8.668 19.3442 9.23877C18.5555 9.80954 17.5857 10.0731 16.6166 9.97995C15.6475 9.88684 14.7456 9.44347 14.08 8.73296L9.87999 11.023C10.0412 11.6643 10.0412 12.3356 9.87999 12.977L14.079 15.267C14.7446 14.5564 15.6465 14.1131 16.6156 14.02C17.5847 13.9268 18.5545 14.1904 19.3432 14.7611C20.1319 15.3319 20.6854 16.1708 20.8999 17.1204C21.1144 18.0701 20.9751 19.0654 20.5083 19.9197C20.0415 20.774 19.279 21.4288 18.364 21.7612C17.4489 22.0937 16.444 22.0809 15.5377 21.7255C14.6313 21.37 13.8857 20.6961 13.4406 19.8303C12.9955 18.9644 12.8815 17.9659 13.12 17.022V17.023ZM5.99999 14C6.53043 14 7.03913 13.7892 7.41421 13.4142C7.78928 13.0391 7.99999 12.5304 7.99999 12C7.99999 11.4695 7.78928 10.9608 7.41421 10.5857C7.03913 10.2107 6.53043 9.99996 5.99999 9.99996C5.46956 9.99996 4.96085 10.2107 4.58578 10.5857C4.21071 10.9608 3.99999 11.4695 3.99999 12C3.99999 12.5304 4.21071 13.0391 4.58578 13.4142C4.96085 13.7892 5.46956 14 5.99999 14ZM17 7.99996C17.5304 7.99996 18.0391 7.78925 18.4142 7.41417C18.7893 7.0391 19 6.53039 19 5.99996C19 5.46953 18.7893 4.96082 18.4142 4.58575C18.0391 4.21067 17.5304 3.99996 17 3.99996C16.4696 3.99996 15.9609 4.21067 15.5858 4.58575C15.2107 4.96082 15 5.46953 15 5.99996C15 6.53039 15.2107 7.0391 15.5858 7.41417C15.9609 7.78925 16.4696 7.99996 17 7.99996ZM17 20C17.5304 20 18.0391 19.7892 18.4142 19.4142C18.7893 19.0391 19 18.5304 19 18C19 17.4695 18.7893 16.9608 18.4142 16.5857C18.0391 16.2107 17.5304 16 17 16C16.4696 16 15.9609 16.2107 15.5858 16.5857C15.2107 16.9608 15 17.4695 15 18C15 18.5304 15.2107 19.0391 15.5858 19.4142C15.9609 19.7892 16.4696 20 17 20Z" fill="black"/>
</svg>
