<svg width="24" height="24" viewBox="0 0 24 24" fill="none" xmlns="http://www.w3.org/2000/svg">
<path d="M18 15C17.2144 15.0006 16.4604 15.3094 15.9 15.86L8.00003 12.34V12V11.67L15.9 8.13999C16.3949 8.62501 17.0423 8.9238 17.7324 8.9856C18.4225 9.04741 19.1128 8.86843 19.6859 8.47906C20.259 8.08969 20.6797 7.51393 20.8765 6.84958C21.0733 6.18523 21.034 5.47325 20.7654 4.83455C20.4968 4.19585 20.0154 3.66982 19.4029 3.3458C18.7905 3.02179 18.0848 2.91975 17.4056 3.05704C16.7265 3.19433 16.1158 3.56246 15.6773 4.09893C15.2388 4.63539 14.9995 5.30711 15 5.99999V6.33999L7.10003 9.85999C6.67839 9.44575 6.14378 9.16529 5.5633 9.05382C4.98282 8.94235 4.38235 9.00485 3.83726 9.23346C3.29218 9.46207 2.82677 9.84661 2.49947 10.3388C2.17217 10.831 1.99756 11.4089 1.99756 12C1.99756 12.5911 2.17217 13.169 2.49947 13.6612C2.82677 14.1534 3.29218 14.5379 3.83726 14.7665C4.38235 14.9951 4.98282 15.0576 5.5633 14.9462C6.14378 14.8347 6.67839 14.5542 7.10003 14.14L15 17.67V18C15 18.5933 15.176 19.1734 15.5056 19.6667C15.8353 20.16 16.3038 20.5446 16.852 20.7716C17.4002 20.9987 18.0034 21.0581 18.5853 20.9423C19.1672 20.8266 19.7018 20.5409 20.1214 20.1213C20.5409 19.7018 20.8266 19.1672 20.9424 18.5853C21.0581 18.0033 20.9987 17.4001 20.7717 16.8519C20.5446 16.3038 20.1601 15.8352 19.6667 15.5056C19.1734 15.1759 18.5934 15 18 15ZM18 4.99999C18.1978 4.99999 18.3912 5.05864 18.5556 5.16852C18.7201 5.2784 18.8482 5.43458 18.9239 5.61731C18.9996 5.80004 19.0194 6.0011 18.9808 6.19508C18.9422 6.38906 18.847 6.56725 18.7071 6.7071C18.5673 6.84695 18.3891 6.94219 18.1951 6.98078C18.0011 7.01936 17.8001 6.99956 17.6174 6.92387C17.4346 6.84818 17.2784 6.72001 17.1686 6.55556C17.0587 6.39111 17 6.19777 17 5.99999C17 5.73478 17.1054 5.48042 17.2929 5.29289C17.4805 5.10535 17.7348 4.99999 18 4.99999V4.99999ZM5.00003 13C4.80225 13 4.60891 12.9413 4.44446 12.8315C4.28001 12.7216 4.15184 12.5654 4.07615 12.3827C4.00047 12.2 3.98066 11.9989 4.01925 11.8049C4.05783 11.6109 4.15307 11.4327 4.29293 11.2929C4.43278 11.153 4.61096 11.0578 4.80494 11.0192C4.99892 10.9806 5.19999 11.0004 5.38272 11.0761C5.56544 11.1518 5.72162 11.28 5.8315 11.4444C5.94138 11.6089 6.00003 11.8022 6.00003 12C6.00003 12.2652 5.89468 12.5196 5.70714 12.7071C5.5196 12.8946 5.26525 13 5.00003 13ZM18 19C17.8023 19 17.6089 18.9413 17.4445 18.8315C17.28 18.7216 17.1518 18.5654 17.0762 18.3827C17.0005 18.1999 16.9807 17.9989 17.0192 17.8049C17.0578 17.6109 17.1531 17.4327 17.2929 17.2929C17.4328 17.153 17.611 17.0578 17.8049 17.0192C17.9989 16.9806 18.2 17.0004 18.3827 17.0761C18.5654 17.1518 18.7216 17.28 18.8315 17.4444C18.9414 17.6089 19 17.8022 19 18C19 18.2652 18.8947 18.5196 18.7071 18.7071C18.5196 18.8946 18.2653 19 18 19Z" fill="black"/>
</svg>
