<svg width="24" height="24" viewBox="0 0 24 24" fill="none" xmlns="http://www.w3.org/2000/svg">
<path d="M18.71 14.29C18.5217 14.1017 18.2663 13.9959 18 13.9959C17.7337 13.9959 17.4783 14.1017 17.29 14.29C17.1017 14.4783 16.9959 14.7337 16.9959 15C16.9959 15.2663 17.1017 15.5217 17.29 15.71L17.58 16H16C14.9391 16 13.9217 15.5786 13.1716 14.8284C12.4214 14.0783 12 13.0609 12 12C12 10.9391 12.4214 9.92172 13.1716 9.17158C13.9217 8.42143 14.9391 8 16 8H17.59L17.29 8.29C17.1963 8.38297 17.1219 8.49357 17.0711 8.61543C17.0203 8.73728 16.9942 8.86799 16.9942 9C16.9942 9.13201 17.0203 9.26272 17.0711 9.38458C17.1219 9.50644 17.1963 9.61704 17.29 9.71C17.3834 9.80268 17.4943 9.87601 17.6161 9.92577C17.7379 9.97554 17.8684 10.0008 18 10C18.1316 10.0008 18.2621 9.97554 18.3839 9.92577C18.5057 9.87601 18.6166 9.80268 18.71 9.71L20.71 7.71C20.8027 7.61656 20.876 7.50575 20.9258 7.38391C20.9755 7.26207 21.0008 7.13161 21 7C21.0008 6.8684 20.9755 6.73793 20.9258 6.6161C20.876 6.49426 20.8027 6.38344 20.71 6.29L18.71 4.29C18.6168 4.19676 18.5061 4.1228 18.3842 4.07234C18.2624 4.02188 18.1319 3.99591 18 3.99591C17.7337 3.99591 17.4783 4.1017 17.29 4.29C17.1017 4.47831 16.9959 4.7337 16.9959 5C16.9959 5.2663 17.1017 5.5217 17.29 5.71L17.58 6H16C15.0093 6.00073 14.0342 6.24677 13.1617 6.71616C12.2892 7.18555 11.5465 7.86368 11 8.69C10.4535 7.86368 9.71079 7.18555 8.83832 6.71616C7.96585 6.24677 6.99072 6.00073 6 6H4C3.73478 6 3.48043 6.10536 3.29289 6.2929C3.10536 6.48043 3 6.73479 3 7C3 7.26522 3.10536 7.51957 3.29289 7.70711C3.48043 7.89465 3.73478 8 4 8H6C7.06087 8 8.07828 8.42143 8.82843 9.17158C9.57857 9.92172 10 10.9391 10 12C10 13.0609 9.57857 14.0783 8.82843 14.8284C8.07828 15.5786 7.06087 16 6 16H4C3.73478 16 3.48043 16.1054 3.29289 16.2929C3.10536 16.4804 3 16.7348 3 17C3 17.2652 3.10536 17.5196 3.29289 17.7071C3.48043 17.8946 3.73478 18 4 18H6C6.99072 17.9993 7.96585 17.7532 8.83832 17.2838C9.71079 16.8145 10.4535 16.1363 11 15.31C11.5465 16.1363 12.2892 16.8145 13.1617 17.2838C14.0342 17.7532 15.0093 17.9993 16 18H17.59L17.29 18.29C17.1963 18.383 17.1219 18.4936 17.0711 18.6154C17.0203 18.7373 16.9942 18.868 16.9942 19C16.9942 19.132 17.0203 19.2627 17.0711 19.3846C17.1219 19.5064 17.1963 19.617 17.29 19.71C17.3834 19.8027 17.4943 19.876 17.6161 19.9258C17.7379 19.9755 17.8684 20.0008 18 20C18.1316 20.0008 18.2621 19.9755 18.3839 19.9258C18.5057 19.876 18.6166 19.8027 18.71 19.71L20.71 17.71C20.8027 17.6166 20.876 17.5057 20.9258 17.3839C20.9755 17.2621 21.0008 17.1316 21 17C21.0008 16.8684 20.9755 16.7379 20.9258 16.6161C20.876 16.4943 20.8027 16.3834 20.71 16.29L18.71 14.29Z" fill="black"/>
</svg>
