<svg width="24" height="24" viewBox="0 0 24 24" fill="none" xmlns="http://www.w3.org/2000/svg">
<path d="M16.0001 5.99999C15.7348 5.99999 15.4805 6.10535 15.2929 6.29289C15.1054 6.48042 15.0001 6.73478 15.0001 6.99999V10.82L14.8601 10.67L9.76005 6.45999C9.45302 6.21399 9.08305 6.05918 8.69232 6.01321C8.30158 5.96724 7.90579 6.03196 7.55005 6.19999C7.25023 6.34353 6.99718 6.56905 6.82021 6.85044C6.64324 7.13183 6.54957 7.45758 6.55005 7.78999V16.21C6.54957 16.5424 6.64324 16.8682 6.82021 17.1495C6.99718 17.4309 7.25023 17.6565 7.55005 17.8C7.83592 17.93 8.14602 17.9981 8.46005 18C8.93336 18.0006 9.39243 17.8381 9.76005 17.54L14.8601 13.33L15.0001 13.18V17C15.0001 17.2652 15.1054 17.5196 15.2929 17.7071C15.4805 17.8946 15.7348 18 16.0001 18C16.2653 18 16.5196 17.8946 16.7072 17.7071C16.8947 17.5196 17.0001 17.2652 17.0001 17V6.99999C17.0001 6.73478 16.8947 6.48042 16.7072 6.29289C16.5196 6.10535 16.2653 5.99999 16.0001 5.99999ZM8.50005 15.91V7.99999L13.3201 12L8.50005 15.91Z" fill="black"/>
</svg>
