<svg width="24" height="24" viewBox="0 0 24 24" fill="none" xmlns="http://www.w3.org/2000/svg">
<path d="M14.5 3C14.8978 3 15.2794 3.15804 15.5607 3.43934C15.842 3.72064 16 4.10218 16 4.5V9.5C16 9.89782 15.842 10.2794 15.5607 10.5607C15.2794 10.842 14.8978 11 14.5 11C14.1022 11 13.7206 10.842 13.4393 10.5607C13.158 10.2794 13 9.89782 13 9.5V4.5C13 4.10218 13.158 3.72064 13.4393 3.43934C13.7206 3.15804 14.1022 3 14.5 3ZM4.5 13H6V14.5C6 14.7967 5.91203 15.0867 5.7472 15.3334C5.58238 15.58 5.34811 15.7723 5.07403 15.8858C4.79994 15.9994 4.49834 16.0291 4.20737 15.9712C3.91639 15.9133 3.64912 15.7704 3.43934 15.5607C3.22956 15.3509 3.0867 15.0836 3.02882 14.7926C2.97094 14.5017 3.00065 14.2001 3.11418 13.926C3.22771 13.6519 3.41997 13.4176 3.66665 13.2528C3.91332 13.088 4.20333 13 4.5 13ZM13 18H14.5C14.7967 18 15.0867 18.088 15.3334 18.2528C15.58 18.4176 15.7723 18.6519 15.8858 18.926C15.9994 19.2001 16.0291 19.5017 15.9712 19.7926C15.9133 20.0836 15.7704 20.3509 15.5607 20.5607C15.3509 20.7704 15.0836 20.9133 14.7926 20.9712C14.5017 21.0291 14.2001 20.9993 13.926 20.8858C13.6519 20.7723 13.4176 20.58 13.2528 20.3334C13.088 20.0867 13 19.7967 13 19.5V18ZM14.5 13H19.5C19.8978 13 20.2794 13.158 20.5607 13.4393C20.842 13.7206 21 14.1022 21 14.5C21 14.8978 20.842 15.2794 20.5607 15.5607C20.2794 15.842 19.8978 16 19.5 16H14.5C14.1022 16 13.7206 15.842 13.4393 15.5607C13.158 15.2794 13 14.8978 13 14.5C13 14.1022 13.158 13.7206 13.4393 13.4393C13.7206 13.158 14.1022 13 14.5 13ZM19.5 8C19.8978 8 20.2794 8.15804 20.5607 8.43934C20.842 8.72064 21 9.10218 21 9.5C21 9.89782 20.842 10.2794 20.5607 10.5607C20.2794 10.842 19.8978 11 19.5 11H18V9.5C18 9.10218 18.158 8.72064 18.4393 8.43934C18.7206 8.15804 19.1022 8 19.5 8ZM4.5 8H9.5C9.89783 8 10.2794 8.15804 10.5607 8.43934C10.842 8.72064 11 9.10218 11 9.5C11 9.89782 10.842 10.2794 10.5607 10.5607C10.2794 10.842 9.89783 11 9.5 11H4.5C4.10218 11 3.72065 10.842 3.43934 10.5607C3.15804 10.2794 3 9.89782 3 9.5C3 9.10218 3.15804 8.72064 3.43934 8.43934C3.72065 8.15804 4.10218 8 4.5 8ZM9.5 3C9.89783 3 10.2794 3.15804 10.5607 3.43934C10.842 3.72064 11 4.10218 11 4.5V6H9.5C9.10218 6 8.72064 5.84196 8.43934 5.56066C8.15804 5.27936 8 4.89782 8 4.5C8 4.10218 8.15804 3.72064 8.43934 3.43934C8.72064 3.15804 9.10218 3 9.5 3ZM9.5 13C9.89783 13 10.2794 13.158 10.5607 13.4393C10.842 13.7206 11 14.1022 11 14.5V19.5C11 19.8978 10.842 20.2794 10.5607 20.5607C10.2794 20.842 9.89783 21 9.5 21C9.10218 21 8.72064 20.842 8.43934 20.5607C8.15804 20.2794 8 19.8978 8 19.5V14.5C8 14.1022 8.15804 13.7206 8.43934 13.4393C8.72064 13.158 9.10218 13 9.5 13Z" fill="currentColor"/>
</svg>
