<svg width="24" height="24" viewBox="0 0 24 24" fill="none" xmlns="http://www.w3.org/2000/svg">
<path d="M5 4V20H19V4H5ZM4 2H20C20.2652 2 20.5196 2.10536 20.7071 2.29289C20.8946 2.48043 21 2.73478 21 3V21C21 21.2652 20.8946 21.5196 20.7071 21.7071C20.5196 21.8946 20.2652 22 20 22H4C3.73478 22 3.48043 21.8946 3.29289 21.7071C3.10536 21.5196 3 21.2652 3 21V3C3 2.73478 3.10536 2.48043 3.29289 2.29289C3.48043 2.10536 3.73478 2 4 2ZM12 17C12.663 17 13.2989 16.7366 13.7678 16.2678C14.2366 15.7989 14.5 15.163 14.5 14.5C14.5 13.837 14.2366 13.2011 13.7678 12.7322C13.2989 12.2634 12.663 12 12 12C11.337 12 10.7011 12.2634 10.2322 12.7322C9.76339 13.2011 9.5 13.837 9.5 14.5C9.5 15.163 9.76339 15.7989 10.2322 16.2678C10.7011 16.7366 11.337 17 12 17ZM12 19C10.8065 19 9.66193 18.5259 8.81802 17.682C7.97411 16.8381 7.5 15.6935 7.5 14.5C7.5 13.3065 7.97411 12.1619 8.81802 11.318C9.66193 10.4741 10.8065 10 12 10C13.1935 10 14.3381 10.4741 15.182 11.318C16.0259 12.1619 16.5 13.3065 16.5 14.5C16.5 15.6935 16.0259 16.8381 15.182 17.682C14.3381 18.5259 13.1935 19 12 19ZM12 8.5C11.803 8.5 11.608 8.4612 11.426 8.38582C11.244 8.31044 11.0786 8.19995 10.9393 8.06066C10.8001 7.92137 10.6896 7.75601 10.6142 7.57403C10.5388 7.39204 10.5 7.19698 10.5 7C10.5 6.80302 10.5388 6.60796 10.6142 6.42597C10.6896 6.24399 10.8001 6.07863 10.9393 5.93934C11.0786 5.80005 11.244 5.68956 11.426 5.61418C11.608 5.5388 11.803 5.5 12 5.5C12.3978 5.5 12.7794 5.65804 13.0607 5.93934C13.342 6.22064 13.5 6.60218 13.5 7C13.5 7.39782 13.342 7.77936 13.0607 8.06066C12.7794 8.34196 12.3978 8.5 12 8.5Z" fill="black"/>
</svg>
