<svg width="24" height="24" viewBox="0 0 24 24" fill="none" xmlns="http://www.w3.org/2000/svg">
<path d="M20.083 15.1999L21.285 15.9209C21.3591 15.9653 21.4205 16.0282 21.4631 16.1034C21.5058 16.1786 21.5282 16.2635 21.5282 16.3499C21.5282 16.4364 21.5058 16.5213 21.4631 16.5965C21.4205 16.6717 21.3591 16.7346 21.285 16.7789L12.515 22.0409C12.3594 22.1344 12.1814 22.1838 12 22.1838C11.8185 22.1838 11.6405 22.1344 11.485 22.0409L2.71498 16.7789C2.64082 16.7346 2.57944 16.6717 2.53682 16.5965C2.4942 16.5213 2.4718 16.4364 2.4718 16.3499C2.4718 16.2635 2.4942 16.1786 2.53682 16.1034C2.57944 16.0282 2.64082 15.9653 2.71498 15.9209L3.91698 15.1999L12 20.0499L20.083 15.1999ZM20.083 10.4999L21.285 11.2209C21.3591 11.2653 21.4205 11.3282 21.4631 11.4034C21.5058 11.4786 21.5282 11.5635 21.5282 11.6499C21.5282 11.7364 21.5058 11.8213 21.4631 11.8965C21.4205 11.9717 21.3591 12.0346 21.285 12.0789L12 17.6499L2.71498 12.0789C2.64082 12.0346 2.57944 11.9717 2.53682 11.8965C2.4942 11.8213 2.4718 11.7364 2.4718 11.6499C2.4718 11.5635 2.4942 11.4786 2.53682 11.4034C2.57944 11.3282 2.64082 11.2653 2.71498 11.2209L3.91698 10.4999L12 15.3499L20.083 10.4999ZM12.514 1.30895L21.285 6.57095C21.3591 6.61534 21.4205 6.6782 21.4631 6.75338C21.5058 6.82857 21.5282 6.91352 21.5282 6.99995C21.5282 7.08637 21.5058 7.17132 21.4631 7.24651C21.4205 7.3217 21.3591 7.38455 21.285 7.42895L12 12.9999L2.71498 7.42895C2.64082 7.38455 2.57944 7.3217 2.53682 7.24651C2.4942 7.17132 2.4718 7.08637 2.4718 6.99995C2.4718 6.91352 2.4942 6.82857 2.53682 6.75338C2.57944 6.6782 2.64082 6.61534 2.71498 6.57095L11.485 1.30895C11.6405 1.2155 11.8185 1.16614 12 1.16614C12.1814 1.16614 12.3594 1.2155 12.515 1.30895H12.514ZM12 3.33195L5.88698 6.99995L12 10.6679L18.113 6.99995L12 3.33195Z" fill="currentColor"/>
</svg>
