<svg width="24" height="24" viewBox="0 0 24 24" fill="none" xmlns="http://www.w3.org/2000/svg">
<path d="M10.2545 14.4927H4.72727C4.26917 14.4927 3.82983 14.3064 3.50591 13.9748C3.18198 13.6433 3 13.1935 3 12.7246V10.8646C2.99977 10.6335 3.04378 10.4046 3.12955 10.1909L5.80336 3.54811C5.86838 3.38611 5.97894 3.24753 6.12101 3.14995C6.26308 3.05236 6.43027 3.00017 6.60136 3H21.1364C21.3654 3 21.5851 3.09314 21.747 3.25893C21.909 3.42473 22 3.64959 22 3.88406V12.7246C22 12.9591 21.909 13.1839 21.747 13.3497C21.5851 13.5155 21.3654 13.6087 21.1364 13.6087H18.1292C17.9909 13.6086 17.8547 13.6426 17.7319 13.7076C17.6091 13.7727 17.5034 13.867 17.4236 13.9826L12.7142 20.8128C12.6546 20.8992 12.5669 20.9609 12.4667 20.9866C12.3666 21.0124 12.2607 21.0006 12.1684 20.9534L10.6017 20.1507C10.1608 19.9251 9.80862 19.5519 9.6036 19.0931C9.39857 18.6342 9.35308 18.1174 9.47468 17.6285L10.2545 14.4927ZM16.8182 12.2048V4.76811H7.18L4.72727 10.8646V12.7246H10.2545C10.5176 12.7246 10.7772 12.7862 11.0135 12.9045C11.2498 13.0229 11.4565 13.195 11.618 13.4076C11.7794 13.6202 11.8913 13.8677 11.9451 14.1313C11.9989 14.3949 11.9931 14.6676 11.9283 14.9286L11.1484 18.0652C11.124 18.163 11.1331 18.2665 11.1741 18.3583C11.2151 18.4502 11.2856 18.5249 11.3738 18.57L11.9447 18.8617L16.0124 12.9633C16.2283 12.6503 16.5047 12.394 16.8182 12.2048V12.2048ZM18.5455 11.8406H20.2727V4.76811H18.5455V11.8406Z" fill="black"/>
</svg>
