<svg width="24" height="24" viewBox="0 0 24 24" fill="none" xmlns="http://www.w3.org/2000/svg">
<path d="M14.3636 9.50785H20.1818C20.664 9.50785 21.1265 9.69412 21.4675 10.0257C21.8084 10.3573 22 10.807 22 11.2759V13.1358C22.0002 13.3669 21.9539 13.5957 21.8636 13.8094L19.05 20.4528C18.9814 20.6148 18.8648 20.7532 18.7151 20.8507C18.5653 20.9481 18.3892 21.0001 18.2091 21H2.90909C2.66798 21 2.43675 20.9069 2.26627 20.7411C2.09578 20.5753 2 20.3504 2 20.116V11.2759C2 11.0414 2.09578 10.8166 2.26627 10.6508C2.43675 10.485 2.66798 10.3919 2.90909 10.3919H6.07454C6.22009 10.3919 6.36351 10.358 6.49276 10.2929C6.622 10.2278 6.73329 10.1335 6.81727 10.0179L11.7745 3.18716C11.8372 3.10081 11.9296 3.03914 12.035 3.01336C12.1404 2.98757 12.2519 2.99937 12.3491 3.04661L13.9982 3.8484C14.4623 4.07397 14.833 4.44716 15.0488 4.90596C15.2647 5.36476 15.3125 5.88156 15.1845 6.37049L14.3636 9.50785ZM7.45454 11.7957V19.232H17.6L20.1818 13.1358V11.2759H14.3636C14.0867 11.2758 13.8135 11.2143 13.5648 11.0959C13.316 10.9776 13.0984 10.8056 12.9284 10.593C12.7585 10.3804 12.6407 10.1328 12.5841 9.86925C12.5275 9.60567 12.5336 9.33299 12.6018 9.07203L13.4227 5.93556C13.4484 5.83772 13.4389 5.73428 13.3957 5.64244C13.3525 5.55061 13.2783 5.47591 13.1855 5.43078L12.5845 5.13906L8.30273 11.0372C8.07545 11.3501 7.78454 11.6065 7.45454 11.7957V11.7957ZM5.63636 12.1599H3.81818V19.232H5.63636V12.1599Z" fill="black"/>
</svg>
