<svg width="24" height="24" viewBox="0 0 24 24" fill="none" xmlns="http://www.w3.org/2000/svg">
<path d="M2.90909 10.1129H5.63636V21H2.90909C2.66798 21 2.43675 20.9044 2.26627 20.7343C2.09578 20.5641 2 20.3334 2 20.0927V11.0201C2 10.7795 2.09578 10.5488 2.26627 10.3786C2.43675 10.2085 2.66798 10.1129 2.90909 10.1129V10.1129ZM7.72091 8.93979L13.5391 3.13333C13.6164 3.05593 13.7191 3.009 13.8284 3.00117C13.9376 2.99333 14.046 3.02512 14.1336 3.09069L14.9091 3.67133C15.1245 3.83268 15.2871 4.05406 15.3766 4.30755C15.4661 4.56104 15.4783 4.8353 15.4118 5.09573L14.3636 9.20562H20.1818C20.664 9.20562 21.1265 9.39679 21.4675 9.73708C21.8084 10.0774 22 10.5389 22 11.0201V12.929C22.0002 13.1661 21.9539 13.401 21.8636 13.6203L19.05 20.4384C18.9814 20.6046 18.8648 20.7468 18.7151 20.8467C18.5653 20.9467 18.3892 21.0001 18.2091 21H8.36364C8.12253 21 7.8913 20.9044 7.72081 20.7343C7.55032 20.5641 7.45454 20.3334 7.45454 20.0927V9.58122C7.4546 9.34062 7.55041 9.1099 7.72091 8.93979Z" fill="black"/>
</svg>
