<svg width="24" height="24" viewBox="0 0 24 24" fill="none" xmlns="http://www.w3.org/2000/svg">
<path d="M21.0909 13.8871H18.3636V3H21.0909C21.332 3 21.5632 3.09559 21.7337 3.26573C21.9042 3.43587 22 3.66664 22 3.90726V12.9799C22 13.2205 21.9042 13.4512 21.7337 13.6214C21.5632 13.7915 21.332 13.8871 21.0909 13.8871ZM16.2791 15.0602L10.4609 20.8667C10.3836 20.9441 10.2809 20.991 10.1716 20.9988C10.0624 21.0067 9.95399 20.9749 9.86636 20.9093L9.09091 20.3287C8.87554 20.1673 8.71287 19.9459 8.6234 19.6924C8.53394 19.439 8.52168 19.1647 8.58818 18.9043L9.63636 14.7944H3.81818C3.33597 14.7944 2.87351 14.6032 2.53253 14.2629C2.19156 13.9226 2 13.4611 2 12.9799V11.071C1.99976 10.8339 2.04608 10.599 2.13636 10.3797L4.95091 3.5625C5.01935 3.39625 5.13572 3.25403 5.28527 3.15388C5.43482 3.05374 5.61081 3.00018 5.79091 3H15.6364C15.8775 3 16.1087 3.09559 16.2792 3.26573C16.4497 3.43587 16.5455 3.66664 16.5455 3.90726V14.4188C16.5454 14.6594 16.4496 14.8901 16.2791 15.0602Z" fill="black"/>
</svg>
