<svg width="24" height="24" viewBox="0 0 24 24" fill="none" xmlns="http://www.w3.org/2000/svg">
<path d="M15 5H9C7.14348 5 5.36301 5.7375 4.05025 7.05025C2.7375 8.36301 2 10.1435 2 12C2 13.8565 2.7375 15.637 4.05025 16.9497C5.36301 18.2625 7.14348 19 9 19H15C16.8565 19 18.637 18.2625 19.9497 16.9497C21.2625 15.637 22 13.8565 22 12C22 10.1435 21.2625 8.36301 19.9497 7.05025C18.637 5.7375 16.8565 5 15 5V5ZM15 17H9C7.67392 17 6.40215 16.4732 5.46447 15.5355C4.52678 14.5979 4 13.3261 4 12C4 10.6739 4.52678 9.40215 5.46447 8.46447C6.40215 7.52678 7.67392 7 9 7H15C16.3261 7 17.5979 7.52678 18.5355 8.46447C19.4732 9.40215 20 10.6739 20 12C20 13.3261 19.4732 14.5979 18.5355 15.5355C17.5979 16.4732 16.3261 17 15 17Z" fill="black"/>
<path d="M15 9C14.4067 9 13.8266 9.17595 13.3333 9.50559C12.8399 9.83524 12.4554 10.3038 12.2284 10.8519C12.0013 11.4001 11.9419 12.0033 12.0576 12.5853C12.1734 13.1672 12.4591 13.7018 12.8787 14.1213C13.2982 14.5409 13.8328 14.8266 14.4147 14.9424C14.9967 15.0581 15.5999 14.9987 16.1481 14.7716C16.6962 14.5446 17.1648 14.1601 17.4944 13.6667C17.8241 13.1734 18 12.5933 18 12C18 11.2044 17.6839 10.4413 17.1213 9.87868C16.5587 9.31607 15.7957 9 15 9V9ZM15 13C14.8022 13 14.6089 12.9414 14.4444 12.8315C14.28 12.7216 14.1518 12.5654 14.0761 12.3827C14.0004 12.2 13.9806 11.9989 14.0192 11.8049C14.0578 11.6109 14.153 11.4327 14.2929 11.2929C14.4327 11.153 14.6109 11.0578 14.8049 11.0192C14.9989 10.9806 15.2 11.0004 15.3827 11.0761C15.5654 11.1518 15.7216 11.28 15.8315 11.4444C15.9414 11.6089 16 11.8022 16 12C16 12.2652 15.8946 12.5196 15.7071 12.7071C15.5196 12.8946 15.2652 13 15 13Z" fill="black"/>
</svg>
