<svg width="24" height="24" viewBox="0 0 24 24" fill="none" xmlns="http://www.w3.org/2000/svg">
<path d="M15 5H9C7.14348 5 5.36301 5.7375 4.05025 7.05025C2.7375 8.36301 2 10.1435 2 12C2 13.8565 2.7375 15.637 4.05025 16.9497C5.36301 18.2625 7.14348 19 9 19H15C16.8565 19 18.637 18.2625 19.9497 16.9497C21.2625 15.637 22 13.8565 22 12C22 10.1435 21.2625 8.36301 19.9497 7.05025C18.637 5.7375 16.8565 5 15 5V5ZM15 17H9C7.67392 17 6.40215 16.4732 5.46447 15.5355C4.52678 14.5979 4 13.3261 4 12C4 10.6739 4.52678 9.40215 5.46447 8.46447C6.40215 7.52678 7.67392 7 9 7H15C16.3261 7 17.5979 7.52678 18.5355 8.46447C19.4732 9.40215 20 10.6739 20 12C20 13.3261 19.4732 14.5979 18.5355 15.5355C17.5979 16.4732 16.3261 17 15 17Z" fill="black"/>
<path d="M9 9C8.40666 9 7.82664 9.17595 7.33329 9.50559C6.83994 9.83524 6.45543 10.3038 6.22836 10.8519C6.0013 11.4001 5.94189 12.0033 6.05765 12.5853C6.1734 13.1672 6.45912 13.7018 6.87868 14.1213C7.29824 14.5409 7.83279 14.8266 8.41473 14.9424C8.99667 15.0581 9.59987 14.9987 10.1481 14.7716C10.6962 14.5446 11.1648 14.1601 11.4944 13.6667C11.8241 13.1734 12 12.5933 12 12C12 11.2044 11.6839 10.4413 11.1213 9.87868C10.5587 9.31607 9.79565 9 9 9ZM9 13C8.80222 13 8.60888 12.9414 8.44443 12.8315C8.27998 12.7216 8.15181 12.5654 8.07612 12.3827C8.00043 12.2 7.98063 11.9989 8.01922 11.8049C8.0578 11.6109 8.15304 11.4327 8.29289 11.2929C8.43275 11.153 8.61093 11.0578 8.80491 11.0192C8.99889 10.9806 9.19996 11.0004 9.38268 11.0761C9.56541 11.1518 9.72159 11.28 9.83147 11.4444C9.94135 11.6089 10 11.8022 10 12C10 12.2652 9.89464 12.5196 9.70711 12.7071C9.51957 12.8946 9.26522 13 9 13Z" fill="black"/>
</svg>
