<svg width="24" height="24" viewBox="0 0 24 24" fill="none" xmlns="http://www.w3.org/2000/svg">
<path d="M20.22 21C19.9916 21.0067 19.7678 20.9349 19.5858 20.7966C19.4039 20.6583 19.2748 20.4619 19.22 20.24C18.7698 18.456 17.7783 16.8551 16.3816 15.6573C14.985 14.4594 13.2518 13.7233 11.42 13.55V14.67C11.4199 15.0203 11.3164 15.3627 11.1225 15.6545C10.9286 15.9462 10.6529 16.1742 10.33 16.31C9.9799 16.471 9.59071 16.5273 9.20929 16.4723C8.82787 16.4173 8.47046 16.2533 8.18005 16L3.12005 11.59C2.92601 11.4248 2.77018 11.2194 2.66331 10.988C2.55644 10.7567 2.5011 10.5048 2.5011 10.25C2.5011 9.99515 2.55644 9.74334 2.66331 9.51198C2.77018 9.28062 2.92601 9.07522 3.12005 8.91L8.18005 4.49C8.47428 4.23231 8.83761 4.06655 9.22508 4.01323C9.61255 3.95991 10.0071 4.02136 10.36 4.19C10.6829 4.32578 10.9586 4.55382 11.1525 4.84554C11.3464 5.13727 11.4499 5.47972 11.45 5.83V7C14.1663 7.21001 16.7051 8.43047 18.5656 10.4206C20.4261 12.4106 21.4731 15.0258 21.5 17.75C21.4987 18.5895 21.3946 19.4258 21.19 20.24C21.1353 20.4619 21.0062 20.6583 20.8243 20.7966C20.6423 20.9349 20.4185 21.0067 20.19 21H20.22ZM10.45 11.5C12.1468 11.4874 13.8237 11.865 15.3513 12.6036C16.8789 13.3423 18.2163 14.4222 19.26 15.76C18.7591 13.8103 17.619 12.0847 16.0219 10.8593C14.4248 9.63382 12.463 8.97918 10.45 9C10.1848 9 9.93048 8.89464 9.74294 8.7071C9.5554 8.51957 9.45005 8.26521 9.45005 8V6.08L4.63005 10.25L9.45005 14.46V12.46C9.46038 12.2018 9.57029 11.9576 9.75671 11.7786C9.94314 11.5996 10.1916 11.4998 10.45 11.5V11.5Z" fill="black"/>
</svg>
