<svg width="24" height="24" viewBox="0 0 24 24" fill="none" xmlns="http://www.w3.org/2000/svg">
<path d="M20.22 21C19.9916 21.0067 19.7678 20.9349 19.5858 20.7966C19.4039 20.6583 19.2748 20.4619 19.22 20.24C18.7698 18.456 17.7783 16.8551 16.3816 15.6573C14.985 14.4594 13.2518 13.7233 11.42 13.55V14.67C11.4199 15.0203 11.3164 15.3627 11.1225 15.6545C10.9286 15.9462 10.6529 16.1742 10.33 16.31C9.9799 16.471 9.59071 16.5273 9.20929 16.4723C8.82787 16.4173 8.47046 16.2533 8.18005 16L3.12005 11.59C2.92601 11.4248 2.77018 11.2194 2.66331 10.988C2.55644 10.7567 2.5011 10.5049 2.5011 10.25C2.5011 9.99516 2.55644 9.74335 2.66331 9.51199C2.77018 9.28063 2.92601 9.07524 3.12005 8.91001L8.18005 4.49001C8.47428 4.23232 8.83761 4.06656 9.22508 4.01324C9.61255 3.95992 10.0071 4.02138 10.36 4.19001C10.6829 4.3258 10.9586 4.55383 11.1525 4.84556C11.3464 5.13728 11.4499 5.47973 11.45 5.83001V7.00001C14.1663 7.21002 16.7051 8.43048 18.5656 10.4206C20.4261 12.4107 21.4731 15.0258 21.5 17.75C21.4987 18.5896 21.3946 19.4258 21.19 20.24C21.1353 20.4619 21.0062 20.6583 20.8243 20.7966C20.6423 20.9349 20.4185 21.0067 20.19 21H20.22Z" fill="black"/>
</svg>
