<svg width="24" height="24" viewBox="0 0 24 24" fill="none" xmlns="http://www.w3.org/2000/svg">
<path d="M16.9999 15.59L14.9999 13.59L8.40994 7L6.40994 5L4.70994 3.29C4.6167 3.19676 4.50601 3.1228 4.38419 3.07234C4.26237 3.02188 4.1318 2.99591 3.99994 2.99591C3.86808 2.99591 3.73751 3.02188 3.61569 3.07234C3.49387 3.1228 3.38318 3.19676 3.28994 3.29C3.10164 3.47831 2.99585 3.7337 2.99585 4C2.99585 4.2663 3.10164 4.5217 3.28994 4.71L3.82994 5.24L5.58994 7L14.9299 16.34L16.3899 17.8L19.2899 20.71C19.3829 20.8037 19.4935 20.8781 19.6154 20.9289C19.7372 20.9797 19.8679 21.0058 19.9999 21.0058C20.132 21.0058 20.2627 20.9797 20.3845 20.9289C20.5064 20.8781 20.617 20.8037 20.7099 20.71C20.8037 20.617 20.8781 20.5064 20.9288 20.3846C20.9796 20.2627 21.0057 20.132 21.0057 20C21.0057 19.868 20.9796 19.7373 20.9288 19.6154C20.8781 19.4936 20.8037 19.383 20.7099 19.29L16.9999 15.59Z" fill="black"/>
<path d="M14 17H5C4.73478 17 4.48043 16.8946 4.29289 16.7071C4.10536 16.5196 4 16.2652 4 16V7.99999C4.00306 7.84813 4.04067 7.69897 4.10998 7.56382C4.17929 7.42867 4.27847 7.31109 4.4 7.21999L3 5.79999C2.68988 6.07731 2.44084 6.4161 2.26868 6.79484C2.09653 7.17358 2.00503 7.58399 2 7.99999V16C2 16.7956 2.31607 17.5587 2.87868 18.1213C3.44129 18.6839 4.20435 19 5 19H14C14.5921 19.001 15.1706 18.8233 15.66 18.49L14.14 17C14.0935 17.0047 14.0465 17.0047 14 17Z" fill="black"/>
<path d="M21 7.15C20.6961 7.0132 20.3588 6.9687 20.0299 7.02204C19.701 7.07537 19.395 7.22419 19.15 7.45L17 9.45V8C17 7.20435 16.6839 6.44129 16.1213 5.87868C15.5587 5.31607 14.7956 5 14 5H7.82996L9.82996 7H14C14.2652 7 14.5195 7.10536 14.7071 7.29289C14.8946 7.48043 15 7.73478 15 8V12.17L19.72 16.89C19.9119 16.9619 20.115 16.9992 20.32 17C20.558 16.9994 20.7932 16.9483 21.01 16.85C21.3049 16.7307 21.5576 16.5262 21.7357 16.2625C21.9138 15.9989 22.0093 15.6882 22.01 15.37V8.63C22.0085 8.31069 21.9116 7.99911 21.7316 7.73536C21.5516 7.47161 21.2968 7.26774 21 7.15V7.15ZM20 14.6L17.19 12L20 9.4V14.6Z" fill="black"/>
</svg>
