<svg width="24" height="24" viewBox="0 0 24 24" fill="none" xmlns="http://www.w3.org/2000/svg">
<path d="M17 21C16.7977 20.9989 16.5999 20.9399 16.43 20.83L10 16.43H5C4.73478 16.43 4.48043 16.3246 4.29289 16.1371C4.10536 15.9496 4 15.6952 4 15.43V8.56999C4 8.30477 4.10536 8.05042 4.29289 7.86288C4.48043 7.67535 4.73478 7.56999 5 7.56999H10L16.41 3.16999C16.5606 3.05984 16.7391 2.99403 16.9252 2.98003C17.1113 2.96602 17.2976 3.00436 17.463 3.09072C17.6285 3.17708 17.7664 3.30801 17.8613 3.46869C17.9562 3.62938 18.0043 3.81342 18 3.99999V20C18 20.2652 17.8946 20.5196 17.7071 20.7071C17.5196 20.8946 17.2652 21 17 21ZM6 14.43H10.33C10.5328 14.4275 10.7316 14.4868 10.9 14.6L16 18.1V5.89999L10.9 9.39999C10.7316 9.51316 10.5328 9.57245 10.33 9.56999H6V14.43Z" fill="black"/>
</svg>
