<svg width="24" height="24" viewBox="0 0 24 24" fill="none" xmlns="http://www.w3.org/2000/svg">
<path d="M16.91 14.08L18.35 15.52C19.1071 14.4785 19.509 13.221 19.4964 11.9334C19.4838 10.6459 19.0573 9.39651 18.28 8.36999C18.1129 8.16313 17.8705 8.0311 17.606 8.00297C17.3416 7.97484 17.0768 8.05291 16.87 8.22C16.6631 8.38708 16.5311 8.6295 16.5029 8.89393C16.4748 9.15836 16.5529 9.42313 16.72 9.62999C17.1892 10.2693 17.4578 11.0338 17.4916 11.8261C17.5255 12.6185 17.323 13.403 16.91 14.08V14.08Z" fill="black"/>
<path d="M21 12C20.9791 13.6349 20.3436 15.2021 19.22 16.39L20.64 17.81C22.1359 16.2432 22.9796 14.1661 23 12C22.9816 10.6922 22.6702 9.40511 22.0887 8.23351C21.5072 7.06191 20.6705 6.03557 19.64 5.23C19.5389 5.14595 19.4222 5.08265 19.2966 5.04369C19.1711 5.00474 19.039 4.99091 18.9081 5.00298C18.7772 5.01505 18.6499 5.05279 18.5336 5.11405C18.4172 5.17531 18.3141 5.25888 18.23 5.36C18.146 5.46112 18.0827 5.5778 18.0437 5.70338C18.0048 5.82897 17.9909 5.96099 18.003 6.09192C18.0151 6.22285 18.0528 6.35012 18.1141 6.46647C18.1753 6.58281 18.2589 6.68595 18.36 6.77C19.1621 7.38987 19.8154 8.18121 20.2721 9.08611C20.7289 9.99101 20.9776 10.9866 21 12V12Z" fill="black"/>
<path d="M15 12.17V3.99999C15.0015 3.81671 14.9527 3.63653 14.8587 3.47914C14.7648 3.32176 14.6294 3.19321 14.4674 3.10755C14.3054 3.02188 14.1229 2.9824 13.94 2.99341C13.757 3.00443 13.5806 3.06551 13.43 3.16999L9 6.19999L15 12.17Z" fill="black"/>
<path d="M4.74 7.57001H2C1.73478 7.57001 1.48043 7.67536 1.29289 7.8629C1.10536 8.05044 1 8.30479 1 8.57001V15.43C1 15.6952 1.10536 15.9496 1.29289 16.1371C1.48043 16.3246 1.73478 16.43 2 16.43H7L13.41 20.83C13.5856 20.9436 13.7909 21.0028 14 21C14.2652 21 14.5196 20.8947 14.7071 20.7071C14.8946 20.5196 15 20.2652 15 20V17.83L4.74 7.57001Z" fill="black"/>
<path d="M4.70994 3.29C4.6167 3.19676 4.50601 3.1228 4.38419 3.07234C4.26237 3.02188 4.1318 2.99591 3.99994 2.99591C3.86808 2.99591 3.73751 3.02188 3.61569 3.07234C3.49387 3.1228 3.38318 3.19676 3.28994 3.29C3.10164 3.47831 2.99585 3.7337 2.99585 4C2.99585 4.2663 3.10164 4.5217 3.28994 4.71L19.2899 20.71C19.3829 20.8037 19.4935 20.8781 19.6154 20.9289C19.7372 20.9797 19.8679 21.0058 19.9999 21.0058C20.132 21.0058 20.2627 20.9797 20.3845 20.9289C20.5064 20.8781 20.617 20.8037 20.7099 20.71C20.8037 20.617 20.8781 20.5064 20.9288 20.3846C20.9796 20.2627 21.0057 20.132 21.0057 20C21.0057 19.868 20.9796 19.7373 20.9288 19.6154C20.8781 19.4936 20.8037 19.383 20.7099 19.29L4.70994 3.29Z" fill="black"/>
</svg>
