<svg xmlns="http://www.w3.org/2000/svg" xmlns:xlink="http://www.w3.org/1999/xlink" viewBox="0 0 24 24" fill="none"><defs><rect id="path_0" x="0" y="0" width="24" height="24" /></defs><g opacity="1" transform="translate(0 0)  rotate(0 12 12)"><mask id="bg-mask-0" fill="white"><use xlink:href="#path_0"></use></mask><g mask="url(#bg-mask-0)" ><g opacity="1" transform="translate(2.00000188750888 3)  rotate(0 9.99999905624556 9)"><path id="路径 1" fill-rule="evenodd" style="fill:#000000" transform="translate(4.500017186809472 10.333)  rotate(0 5.499995336964943 3.8335)" opacity="1" d="M5.28,0.05C5.21,0.09 5.15,0.14 5.1,0.2L0.1,6.87C0.04,6.94 0.01,7.03 0,7.12C-0.01,7.21 0.01,7.31 0.05,7.39C0.09,7.47 0.16,7.54 0.24,7.59C0.32,7.64 0.41,7.67 0.5,7.67L10.5,7.67C10.59,7.67 10.68,7.64 10.76,7.59C10.84,7.54 10.91,7.47 10.95,7.39C10.99,7.31 11.01,7.21 11,7.12C10.99,7.03 10.96,6.94 10.9,6.87L5.9,0.2C5.85,0.14 5.79,0.09 5.72,0.05C5.65,0.02 5.58,0 5.5,0C5.42,0 5.35,0.02 5.28,0.05Z " /><path id="路径 2" fill-rule="evenodd" style="fill:#000000" transform="translate(0 0)  rotate(0 9.99999905624556 8)" opacity="1" d="M0.99,16L4,16L4,14L2,14L2,2L18,2L18,14L16,14L16,16L19.01,16C19.54,16 20,15.55 20,15L20,1C20,0.44 19.56,0 19.01,0L0.99,0C0.46,0 0,0.45 0,1L0,15C0,15.13 0.02,15.26 0.07,15.38C0.12,15.5 0.2,15.61 0.29,15.71C0.38,15.8 0.49,15.87 0.61,15.92C0.73,15.97 0.86,16 0.99,16Z " /></g></g></g></svg>