<svg xmlns="http://www.w3.org/2000/svg" xmlns:xlink="http://www.w3.org/1999/xlink" width="24" height="24" viewBox="0 0 24 24" fill="none"><defs><rect id="path_0" x="0" y="0" width="24" height="24" /></defs><g opacity="1" transform="translate(0 0)  rotate(0 12 12)"><mask id="bg-mask-0" fill="white"><use xlink:href="#path_0"></use></mask><g mask="url(#bg-mask-0)" ><path id="分组 1" fill-rule="evenodd" style="fill:#000000" transform="translate(2.00000188750888 3)  rotate(0 9.99999905624556 9)" opacity="1" d="M5.00002 18.003L15 18.003C15.09 18.003 15.18 17.973 15.26 17.923C15.34 17.873 15.41 17.803 15.45 17.723C15.49 17.643 15.51 17.543 15.5 17.453C15.49 17.363 15.46 17.273 15.4 17.203L10.4 10.533C10.35 10.473 10.29 10.423 10.22 10.383C10.15 10.353 10.08 10.333 10 10.333C9.92002 10.333 9.85002 10.353 9.78002 10.383C9.71002 10.423 9.65002 10.473 9.60002 10.533L4.60002 17.203C4.54002 17.273 4.51002 17.363 4.50002 17.453C4.49002 17.543 4.51002 17.643 4.55002 17.723C4.59002 17.803 4.66002 17.873 4.74002 17.923C4.82002 17.973 4.91002 18.003 5.00002 18.003Z M8 16L12 16L10 13.33L8 16Z M4 16L4 14L2 14L2 2L18 2L18 14L16 14L16 16L19.01 16C19.54 16 20 15.55 20 15L20 1C20 0.44 19.56 0 19.01 0L0.99 0C0.46 0 0 0.45 0 1L0 15C0 15.13 0.02 15.26 0.07 15.38C0.12 15.5 0.2 15.61 0.29 15.71C0.38 15.8 0.49 15.87 0.61 15.92C0.73 15.97 0.86 16 0.99 16L4 16Z " /></g></g></svg>