<svg width="24" height="24" fill="none" xmlns="http://www.w3.org/2000/svg"><mask id="a" style="mask-type:alpha" maskUnits="userSpaceOnUse" x="0" y="0" width="24" height="24"><path d="M24 0H0v24h24V0Z" fill="#fff"/></mask><g mask="url(#a)"><path fill-rule="evenodd" clip-rule="evenodd" d="M7 21.003h10c.09 0 .18-.03.26-.08a.52.52 0 0 0 .19-.2c.04-.08.06-.18.05-.27a.459.459 0 0 0-.1-.25l-5-6.67a.655.655 0 0 0-.18-.15.545.545 0 0 0-.22-.05c-.08 0-.15.02-.22.05-.07.04-.13.09-.18.15l-5 6.67c-.06.07-.09.16-.1.25-.01.09.01.19.05.27.04.08.11.15.19.2.08.05.17.08.26.08ZM10 19h4l-2-2.67L10 19Zm-4 0v-2H4V5h16v12h-2v2h3.01c.53 0 .99-.45.99-1V4c0-.56-.44-1-.99-1H2.99C2.46 3 2 3.45 2 4v14c0 .13.02.26.07.38s.13.23.22.33c.09.09.2.16.32.21.12.05.25.08.38.08H6Z" fill="currentColor"/></g></svg>