<svg xmlns="http://www.w3.org/2000/svg" xmlns:xlink="http://www.w3.org/1999/xlink" width="24" height="24" viewBox="0 0 24 24" fill="none"><defs><rect id="path_0" x="0" y="0" width="24" height="24" /></defs><g opacity="1" transform="translate(0 0)  rotate(0 12 12)"><mask id="bg-mask-0" fill="white"><use xlink:href="#path_0"></use></mask><g mask="url(#bg-mask-0)" ><path id="分组 1" fill-rule="evenodd" style="fill:#000000" transform="translate(2.8079800000000006 2)  rotate(0 9.19201 10)" opacity="1" d="M17.192 18L17.192 12C17.192 9.88 16.352 7.84 14.852 6.34C13.352 4.84 11.312 4 9.192 4C7.072 4 5.032 4.84 3.532 6.34C2.032 7.84 1.192 9.88 1.192 12L1.192 18L0.192 18L0.192 20L18.192 20L18.192 18L17.192 18Z M15.192 18L15.192 12C15.192 10.41 14.562 8.88 13.432 7.76C12.312 6.63 10.782 6 9.192 6C7.602 6 6.072 6.63 4.952 7.76C3.822 8.88 3.192 10.41 3.192 12L3.192 18L15.192 18Z M8.19202 3L10.192 3L10.192 0L8.19202 0L8.19202 3Z M14.849 4.928L16.259 6.348L18.389 4.218L16.969 2.808L14.849 4.928Z M2.12 6.348L3.53 4.928L1.41 2.808L0 4.218L2.12 6.348Z M6.192 12C6.192 11.2 6.512 10.44 7.072 9.88C7.632 9.32 8.392 9 9.192 9L9.192 7C7.862 7 6.592 7.53 5.652 8.46C4.722 9.4 4.192 10.67 4.192 12L6.192 12Z " /></g></g></svg>