<svg width="24" height="24" fill="none" xmlns="http://www.w3.org/2000/svg"><mask id="a" style="mask-type:alpha" maskUnits="userSpaceOnUse" x="0" y="0" width="24" height="24"><path d="M24 0H0v24h24V0Z" fill="#fff"/></mask><g mask="url(#a)"><path fill-rule="evenodd" clip-rule="evenodd" d="M21 22v-2h-1v-6c0-2.12-.84-4.16-2.34-5.66A8.008 8.008 0 0 0 12 6c-2.12 0-4.16.84-5.66 2.34A8.008 8.008 0 0 0 4 14v6H3v2h18ZM8 14c0-1.06.42-2.08 1.17-2.83S10.94 10 12 10V8c-1.59 0-3.12.63-4.24 1.76A5.97 5.97 0 0 0 6 14h2Zm3-9h2V2h-2v3Zm6.657 1.928 1.41 1.42 2.13-2.13-1.42-1.41-2.12 2.12ZM4.928 8.348l1.41-1.42-2.12-2.12-1.41 1.41 2.12 2.13Z" fill="currentColor"/></g></svg>