<svg width="24" height="24" fill="none" xmlns="http://www.w3.org/2000/svg"><mask id="a" style="mask-type:alpha" maskUnits="userSpaceOnUse" x="0" y="0" width="24" height="24"><path d="M24 0H0v24h24V0Z" fill="#fff"/></mask><g mask="url(#a)"><path fill-rule="evenodd" clip-rule="evenodd" d="M20 20v-6c0-2.12-.84-4.16-2.34-5.66A8.008 8.008 0 0 0 12 6c-2.12 0-4.16.84-5.66 2.34A8.008 8.008 0 0 0 4 14v6H3v2h18v-2h-1Zm-2 0v-6c0-1.59-.63-3.12-1.76-4.24A5.97 5.97 0 0 0 12 8c-1.59 0-3.12.63-4.24 1.76A5.97 5.97 0 0 0 6 14v6h12ZM11 5h2V2h-2v3Zm6.657 1.928 1.41 1.42 2.13-2.13-1.42-1.41-2.12 2.12ZM4.928 8.348l1.41-1.42-2.12-2.12-1.41 1.41 2.12 2.13ZM9 14c0-.8.32-1.56.88-2.12S11.2 11 12 11V9c-1.33 0-2.6.53-3.54 1.46C7.53 11.4 7 12.67 7 14h2Z" fill="currentColor"/></g></svg>