<svg width="24" height="24" fill="none" xmlns="http://www.w3.org/2000/svg"><mask id="a" style="mask-type:alpha" maskUnits="userSpaceOnUse" x="0" y="0" width="24" height="24"><path d="M24 0H0v24h24V0Z" fill="#fff"/></mask><g mask="url(#a)"><path fill-rule="evenodd" clip-rule="evenodd" d="M1.604 20.5c.09.15.22.28.37.37.15.08.32.13.5.13h19.05c.18 0 .35-.05.5-.13.15-.09.28-.22.37-.37.09-.15.13-.32.13-.5s-.04-.35-.13-.5L12.864 3c-.09-.15-.21-.28-.36-.37-.16-.08-.33-.13-.5-.13-.18 0-.35.05-.5.13-.16.09-.28.22-.37.37l-9.53 16.5c-.08.15-.13.32-.13.5s.05.35.13.5ZM19.796 19l-7.8-13.5L4.206 19h15.59ZM11 18h2v-2h-2v2Zm0-4h2V9h-2v5Z" fill="currentColor"/></g></svg>