<svg xmlns="http://www.w3.org/2000/svg" xmlns:xlink="http://www.w3.org/1999/xlink" width="24" height="24" viewBox="0 0 24 24" fill="none"><defs><rect id="path_0" x="0" y="0" width="24" height="24" /></defs><g opacity="1" transform="translate(0 0)  rotate(0 12 12)"><mask id="bg-mask-0" fill="white"><use xlink:href="#path_0"></use></mask><g mask="url(#bg-mask-0)" ><path id="分组 1" fill-rule="evenodd" style="fill:#000000" transform="translate(1.4740000000000002 2.5)  rotate(0 10.52595 9.25)" opacity="1" d="M20.92 18C21.01 17.85 21.05 17.68 21.05 17.5C21.05 17.32 21.01 17.15 20.92 17L11.39 0.5C11.3 0.35 11.18 0.22 11.03 0.13C10.87 0.05 10.7 0 10.53 0C10.35 0 10.18 0.05 10.03 0.13C9.87 0.22 9.75 0.35 9.66 0.5L0.13 17C0.05 17.15 0 17.32 0 17.5C0 17.68 0.05 17.85 0.13 18C0.22 18.15 0.35 18.28 0.5 18.37C0.65 18.45 0.82 18.5 1 18.5L20.05 18.5C20.23 18.5 20.4 18.45 20.55 18.37C20.7 18.28 20.83 18.15 20.92 18Z M9.526 15.5L11.526 15.5L11.526 13.5L9.526 13.5L9.526 15.5Z M9.526 11.5L11.526 11.5L11.526 6.49996L9.526 6.49996L9.526 11.5Z " /></g></g></svg>