<svg xmlns="http://www.w3.org/2000/svg" xmlns:xlink="http://www.w3.org/1999/xlink" viewBox="0 0 24 24" fill="none"><defs><rect id="path_0" x="0" y="0" width="24" height="24" /></defs><g opacity="1" transform="translate(0 0)  rotate(0 12 12)"><mask id="bg-mask-0" fill="white"><use xlink:href="#path_0"></use></mask><g mask="url(#bg-mask-0)" ><g opacity="1" transform="translate(3 4)  rotate(0 9 8.5)"><path id="路径 1" fill-rule="evenodd" style="fill:#000000" transform="translate(0 0)  rotate(0 9 1)" opacity="1" d="M0,2L18,2L18,0L0,0L0,2Z " /><path id="路径 2" fill-rule="evenodd" style="fill:#000000" transform="translate(2 15)  rotate(0 7 1)" opacity="1" d="M0,2L14,2L14,0L0,0L0,2Z " /><path id="路径 3" fill-rule="evenodd" style="fill:#000000" transform="translate(0 10)  rotate(0 9 1)" opacity="1" d="M0,2L18,2L18,0L0,0L0,2Z " /><path id="路径 4" fill-rule="evenodd" style="fill:#000000" transform="translate(2 5)  rotate(0 7 1)" opacity="1" d="M0,2L14,2L14,0L0,0L0,2Z " /></g></g></g></svg>