<svg xmlns="http://www.w3.org/2000/svg" xmlns:xlink="http://www.w3.org/1999/xlink" viewBox="0 0 24 24" fill="none"><g opacity="1" transform="translate(0 0)  rotate(0 12 12)"><g opacity="1" transform="translate(2 2)  rotate(0 10.000002713394395 10.000001041152345)"><path id="路径 2" fill-rule="evenodd" style="fill:#000000" transform="translate(0 0)  rotate(0 10.000002713394395 10.000001041152345)" opacity="1" d="M12.74,11.3C13.37,11.52 15.59,12.21 19.42,13.36C19.81,12.28 20,11.14 20,10C20,4.48 15.52,0 10,0C4.48,0 0,4.48 0,10C0,15.52 4.48,20 10,20C13.32,20 16.42,18.36 18.28,15.61C15.11,14.23 12.94,13.26 11.77,12.7C10.37,14.4 8.9,15.42 6.69,15.42C4.48,15.42 3,14.06 3.18,12.39C3.3,11.3 4.05,9.5 7.3,9.82C9.02,9.98 9.81,10.3 11.22,10.76C11.59,10.07 11.89,9.34 12.1,8.58L5.88,8.58L5.88,7.97L8.95,7.97L8.95,6.86L5.2,6.86L5.2,6.18L8.95,6.18L8.95,4.59C8.95,4.59 8.98,4.34 9.26,4.34L10.8,4.34L10.8,6.19L14.8,6.19L14.8,6.87L10.8,6.87L10.8,7.98L14.06,7.98C13.79,9.14 13.34,10.26 12.74,11.3Z " /><path id="路径 3" fill-rule="evenodd" style="fill:#000000" transform="translate(3.828052199221397 10.856000000000002)  rotate(0 3.281973900389302 1.7560000000000002)" opacity="1" d="M6.56,1.16C4.96,0.38 3.62,0 2.12,0C0.82,0 0.14,0.8 0.02,1.42C-0.1,2.03 0.27,3.51 2.6,3.51C4.04,3.51 5.43,2.64 6.56,1.16Z " /></g></g></svg>