<svg width="24" height="24" fill="none" xmlns="http://www.w3.org/2000/svg"><path fill-rule="evenodd" clip-rule="evenodd" d="M14.74 13.3c.63.22 2.85.91 6.68 2.06.39-1.08.58-2.22.58-3.36 0-5.52-4.48-10-10-10S2 6.48 2 12s4.48 10 10 10c3.32 0 6.42-1.64 8.28-4.39-3.17-1.38-5.34-2.35-6.51-2.91-1.4 1.7-2.87 2.72-5.08 2.72S5 16.06 5.18 14.39c.12-1.09.87-2.89 4.12-2.57 1.72.16 2.51.48 3.92.94.37-.69.67-1.42.88-2.18H7.88v-.61h3.07V8.86H7.2v-.68h3.75V6.59s.03-.25.31-.25h1.54v1.85h4v.68h-4v1.11h3.26c-.27 1.16-.72 2.28-1.32 3.32Z" fill="currentColor"/><path fill-rule="evenodd" clip-rule="evenodd" d="M12.388 14.016c-1.6-.78-2.94-1.16-4.44-1.16-1.3 0-1.98.8-2.1 1.42-.12.61.25 2.09 2.58 2.09 1.44 0 2.83-.87 3.96-2.35Z" fill="currentColor"/></svg>