<svg xmlns="http://www.w3.org/2000/svg" xmlns:xlink="http://www.w3.org/1999/xlink" viewBox="0 0 24 24" fill="none"><defs><rect id="path_0" x="0" y="0" width="24" height="24" /></defs><g opacity="1" transform="translate(0 0)  rotate(0 12 12)"><mask id="bg-mask-0" fill="white"><use xlink:href="#path_0"></use></mask><g mask="url(#bg-mask-0)" ><path id="分组 1" fill-rule="evenodd" style="fill:#000000" transform="translate(2 1.9999980561338866)  rotate(0 10 10.000000971933057)" opacity="1" d="M6.7 6.24C7.24 7.05 8.06 7.63 9 7.87L9 17.94C7.24 17.72 5.6 16.91 4.34 15.66C3.09 14.4 2.28 12.76 2.06 11L5 11L5 9L0.05 9C0.02 9.33 0 9.66 0 10C0 15.52 4.48 20 10 20C15.52 20 20 15.52 20 10C20 9.66 19.98 9.33 19.95 9L15 9L15 11L17.94 11C17.72 12.76 16.91 14.4 15.66 15.66C14.4 16.91 12.76 17.72 11 17.94L11 7.87C11.94 7.63 12.77 7.05 13.31 6.25C13.86 5.44 14.09 4.46 13.97 3.5C13.85 2.53 13.38 1.64 12.65 1C11.92 0.35 10.97 0 10 0C9.03 0 8.09 0.36 7.36 1C6.63 1.65 6.16 2.53 6.04 3.5C5.92 4.46 6.15 5.44 6.7 6.24Z M11.41 5.41C11.79 5.04 12 4.53 12 4C12 3.47 11.79 2.96 11.41 2.59C11.04 2.21 10.53 2 10 2C9.47 2 8.96 2.21 8.59 2.59C8.21 2.96 8 3.47 8 4C8 4.53 8.21 5.04 8.59 5.41C8.96 5.79 9.47 6 10 6C10.53 6 11.04 5.79 11.41 5.41Z " /></g></g></svg>