<svg width="24" height="24" fill="none" xmlns="http://www.w3.org/2000/svg"><mask id="a" style="mask-type:alpha" maskUnits="userSpaceOnUse" x="0" y="0" width="24" height="24"><path d="M24 0H0v24h24V0Z" fill="#fff"/></mask><g mask="url(#a)"><path fill-rule="evenodd" clip-rule="evenodd" d="M8.7 8.24c.54.81 1.36 1.39 2.3 1.63v10.07a8.05 8.05 0 0 1-4.66-2.28A8.05 8.05 0 0 1 4.06 13H7v-2H2.05c-.03.33-.05.66-.05 1 0 5.52 4.48 10 10 10s10-4.48 10-10c0-.34-.02-.67-.05-1H17v2h2.94a8.05 8.05 0 0 1-2.28 4.66A8.05 8.05 0 0 1 13 19.94V9.87c.94-.24 1.77-.82 2.31-1.62.55-.81.78-1.79.66-2.75-.12-.97-.59-1.86-1.32-2.5-.73-.65-1.68-1-2.65-1s-1.91.36-2.64 1a3.997 3.997 0 0 0-.66 5.24Zm4.71-.83c.38-.37.59-.88.59-1.41 0-.53-.21-1.04-.59-1.41C13.04 4.21 12.53 4 12 4c-.53 0-1.04.21-1.41.59-.38.37-.59.88-.59 1.41 0 .53.21 1.04.59 1.41.37.38.88.59 1.41.59.53 0 1.04-.21 1.41-.59Z" fill="currentColor"/></g></svg>