<svg xmlns="http://www.w3.org/2000/svg" xmlns:xlink="http://www.w3.org/1999/xlink" viewBox="0 0 24 24" fill="none"><defs><rect id="path_0" x="0" y="0" width="24" height="24" /></defs><g opacity="1" transform="translate(0 0)  rotate(0 12 12)"><mask id="bg-mask-0" fill="white"><use xlink:href="#path_0"></use></mask><g mask="url(#bg-mask-0)" ><path id="分组 1" fill-rule="evenodd" style="fill:#000000" transform="translate(2.7000100000000007 2)  rotate(0 9.299995000000001 10)" opacity="1" d="M15.309 14.383L16.429 4.673L9.299 2.123L2.169 4.673L3.289 14.383L3.759 14.643L9.299 2.213L14.819 14.653L15.309 14.383Z M12.926 15.26L11.756 12.34L6.826 12.34L5.656 15.26L4.876 15.26L9.296 17.71L13.726 15.26L12.926 15.26Z M0 3.32L1.42 15.63L9.3 20L17.18 15.63L18.6 3.32L9.3 0L0 3.32Z M9.30199 6.45L7.60199 10.54L11.002 10.54L9.30199 6.45Z " /></g></g></svg>