<svg width="24" height="24" fill="none" xmlns="http://www.w3.org/2000/svg"><mask id="a" style="mask-type:alpha" maskUnits="userSpaceOnUse" x="0" y="0" width="24" height="24"><path d="M24 0H0v24h24V0Z" fill="#fff"/></mask><g mask="url(#a)"><path fill-rule="evenodd" clip-rule="evenodd" d="m18.009 16.383 1.12-9.71-7.13-2.55-7.13 2.55 1.12 9.71.47.26 5.54-12.43 5.52 12.44.49-.27Zm-2.383.877-1.17-2.92h-4.93l-1.17 2.92h-.78l4.42 2.45 4.43-2.45h-.8ZM2.7 5.32l1.42 12.31L12 22l7.88-4.37L21.3 5.32 12 2 2.7 5.32Zm9.302 3.13-1.7 4.09h3.4l-1.7-4.09Z" fill="currentColor"/></g></svg>