<svg xmlns="http://www.w3.org/2000/svg" xmlns:xlink="http://www.w3.org/1999/xlink" viewBox="0 0 24 24" fill="none"><defs><rect id="path_0" x="0" y="0" width="24" height="24" /></defs><g opacity="1" transform="translate(0 0)  rotate(0 12 12)"><mask id="bg-mask-0" fill="white"><use xlink:href="#path_0"></use></mask><g mask="url(#bg-mask-0)" ><path id="分组 1" fill-rule="evenodd" style="fill:#000000" transform="translate(0.7570189999999997 3)  rotate(0 10.6214905 9)" opacity="1" d="M9.24298 17C9.24298 17.27 9.35298 17.52 9.53298 17.71C9.72298 17.89 9.97298 18 10.243 18L20.243 18C20.513 18 20.763 17.89 20.953 17.71C21.133 17.52 21.243 17.27 21.243 17L21.243 7C21.243 6.73 21.133 6.48 20.953 6.29C20.763 6.11 20.513 6 20.243 6L10.243 6C9.97298 6 9.72298 6.11 9.53298 6.29C9.35298 6.48 9.24298 6.73 9.24298 7L9.24298 17Z M11.243 16L19.243 16L19.243 8L11.243 8L11.243 16Z M7.07 5.76L5.24 7.59L5.24 5C5.24 4.2 5.56 3.44 6.12 2.88C6.68 2.32 7.45 2 8.24 2L12.24 2L12.24 0L8.24 0C6.92 0 5.65 0.53 4.71 1.46C3.77 2.4 3.24 3.67 3.24 5L3.24 7.59L1.42 5.76L0 7.17L4.24 11.41L8.49 7.17L7.07 5.76Z " /></g></g></svg>