<svg width="24" height="24" fill="none" xmlns="http://www.w3.org/2000/svg"><mask id="a" style="mask-type:alpha" maskUnits="userSpaceOnUse" x="0" y="0" width="24" height="24"><path d="M24 0H0v24h24V0Z" fill="#fff"/></mask><g mask="url(#a)"><path fill-rule="evenodd" clip-rule="evenodd" d="M10 20c0 .27.11.52.29.71.19.18.44.29.71.29h10c.27 0 .52-.11.71-.29.18-.19.29-.44.29-.71V10c0-.27-.11-.52-.29-.71-.19-.18-.44-.29-.71-.29H11c-.27 0-.52.11-.71.29-.18.19-.29.44-.29.71v10Zm2-1h8v-8h-8v8ZM7.827 8.76l-1.83 1.83V8c0-.8.32-1.56.88-2.12S8.207 5 8.997 5h4V3h-4c-1.32 0-2.59.53-3.53 1.46-.94.94-1.47 2.21-1.47 3.54v2.59l-1.82-1.83-1.42 1.41 4.24 4.24 4.25-4.24-1.42-1.41Z" fill="currentColor"/></g></svg>