<svg xmlns="http://www.w3.org/2000/svg" xmlns:xlink="http://www.w3.org/1999/xlink" viewBox="0 0 24 24" fill="none"><defs><rect id="path_0" x="0" y="0" width="24" height="24" /></defs><g opacity="1" transform="translate(0 0)  rotate(0 12 12)"><mask id="bg-mask-0" fill="white"><use xlink:href="#path_0"></use></mask><g mask="url(#bg-mask-0)" ><g opacity="1" transform="translate(1 3)  rotate(0 10.5 9)"><path id="路径 1" fill-rule="evenodd" style="fill:#000000" transform="translate(0 0)  rotate(0 6 6)" opacity="1" d="M12,0L8,0C6.67,0 5.4,0.53 4.46,1.46C3.53,2.4 3,3.67 3,5L3,7L0,7L4,12L8,7L5,7L5,5C5,4.2 5.32,3.44 5.88,2.88C6.44,2.32 7.2,2 8,2L12,2L12,0Z " /><path id="路径 2" fill-rule="evenodd" style="fill:#000000" transform="translate(9 6)  rotate(0 6 6)" opacity="1" d="M12,1C12,0.73 11.89,0.48 11.71,0.29C11.52,0.11 11.27,0 11,0L1,0C0.73,0 0.48,0.11 0.29,0.29C0.11,0.48 0,0.73 0,1L0,11C0,11.27 0.11,11.52 0.29,11.71C0.48,11.89 0.73,12 1,12L11,12C11.27,12 11.52,11.89 11.71,11.71C11.89,11.52 12,11.27 12,11L12,1Z " /></g></g></g></svg>