<svg width="24" height="24" fill="none" xmlns="http://www.w3.org/2000/svg"><mask id="a" style="mask-type:alpha" maskUnits="userSpaceOnUse" x="0" y="0" width="24" height="24"><path d="M24 0H0v24h24V0Z" fill="#fff"/></mask><g mask="url(#a)" fill-rule="evenodd" clip-rule="evenodd" fill="currentColor"><path d="M13 3H9c-1.33 0-2.6.53-3.54 1.46C4.53 5.4 4 6.67 4 8v2H1l4 5 4-5H6V8c0-.8.32-1.56.88-2.12S8.2 5 9 5h4V3ZM22 10c0-.27-.11-.52-.29-.71-.19-.18-.44-.29-.71-.29H11c-.27 0-.52.11-.71.29-.18.19-.29.44-.29.71v10c0 .27.11.52.29.71.19.18.44.29.71.29h10c.27 0 .52-.11.71-.29.18-.19.29-.44.29-.71V10Z"/></g></svg>