<svg width="24" height="24" fill="none" xmlns="http://www.w3.org/2000/svg"><mask id="a" style="mask-type:alpha" maskUnits="userSpaceOnUse" x="0" y="0" width="24" height="24"><path d="M24 0H0v24h24V0Z" fill="#fff"/></mask><g mask="url(#a)"><path fill-rule="evenodd" clip-rule="evenodd" d="M3.74 9.76c.8.79 1.88 1.24 3.01 1.24H11V6.75c0-.56-.11-1.11-.32-1.63-.22-.51-.53-.98-.92-1.38-.4-.39-.87-.7-1.38-.92a4.287 4.287 0 0 0-4.64.92c-.79.8-1.24 1.88-1.24 3.01s.45 2.21 1.24 3.01ZM5.5 8.62c.37.25.8.38 1.25.38H9V6.75c0-.45-.13-.88-.38-1.25s-.6-.66-1.01-.83c-.41-.17-.86-.21-1.3-.13-.44.09-.84.3-1.15.62-.32.31-.53.71-.62 1.15-.08.44-.04.89.13 1.3.17.41.46.76.83 1.01Zm-1.11 5.1c-.7.46-1.24 1.13-1.57 1.9-.32.78-.4 1.63-.24 2.46.17.82.57 1.58 1.16 2.18.6.59 1.36.99 2.18 1.16.83.16 1.68.08 2.46-.24A4.286 4.286 0 0 0 11 17.25V13H6.75c-.84 0-1.66.25-2.36.72Zm.77 5.12c.31.32.71.53 1.15.62.44.08.89.04 1.3-.13.41-.17.76-.46 1.01-.83.25-.37.38-.8.38-1.25V15H6.75c-.45 0-.88.13-1.25.38s-.66.6-.83 1.01c-.17.41-.21.86-.13 1.3.09.44.3.84.62 1.15Zm9.08-15.1c-.79.8-1.24 1.88-1.24 3.01V11h4.25c1.13 0 2.21-.45 3.01-1.24.79-.8 1.24-1.88 1.24-3.01s-.45-2.21-1.24-3.01c-.8-.79-1.88-1.24-3.01-1.24s-2.21.45-3.01 1.24Zm5.09 3.87c.17-.41.21-.86.13-1.3-.09-.44-.3-.84-.62-1.15-.31-.32-.71-.53-1.15-.62-.44-.08-.89-.04-1.3.13-.41.17-.76.46-1.01.83-.25.37-.38.8-.38 1.25V9h2.25c.45 0 .88-.13 1.25-.38s.66-.6.83-1.01ZM13 17.25a4.286 4.286 0 0 0 2.62 3.93c.78.32 1.63.4 2.46.24.82-.17 1.58-.57 2.18-1.16.59-.6.99-1.36 1.16-2.18.16-.83.08-1.68-.24-2.46A4.286 4.286 0 0 0 17.25 13H13v4.25Zm5.5-1.87c-.37-.25-.8-.38-1.25-.38H15v2.25c0 .45.13.88.38 1.25s.6.66 1.01.83c.41.17.86.21 1.3.13.44-.09.84-.3 1.15-.62.32-.31.53-.71.62-1.15.08-.44.04-.89-.13-1.3-.17-.41-.46-.76-.83-1.01Z" fill="currentColor"/></g></svg>