<svg xmlns="http://www.w3.org/2000/svg" xmlns:xlink="http://www.w3.org/1999/xlink" width="24" height="24" viewBox="0 0 24 24" fill="none"><defs><rect id="path_0" x="0" y="0" width="24" height="24" /></defs><g opacity="1" transform="translate(0 0)  rotate(0 12 12)"><mask id="bg-mask-0" fill="white"><use xlink:href="#path_0"></use></mask><g mask="url(#bg-mask-0)" ><path id="分组 1" fill-rule="evenodd" style="fill:#000000" transform="translate(2.499999413398559 2.5)  rotate(0 9.50000029330072 9.499994527913486)" opacity="1" d="M1.24 7.26C2.04 8.05 3.12 8.5 4.25 8.5L8.5 8.5L8.5 4.25C8.5 3.69 8.39 3.14 8.18 2.62C7.96 2.11 7.65 1.64 7.26 1.24C6.86 0.85 6.39 0.54 5.88 0.32C5.36 0.11 4.81 0 4.25 0C3.12 0 2.04 0.45 1.24 1.24C0.450001 2.04 5.86601e-07 3.12 5.86601e-07 4.25C5.86601e-07 5.38 0.450001 6.46 1.24 7.26Z M3 6.12C3.37 6.37 3.8 6.5 4.25 6.5L6.5 6.5L6.5 4.25C6.5 3.8 6.37 3.37 6.12 3C5.87 2.63 5.52 2.34 5.11 2.17C4.7 2 4.25 1.96 3.81 2.04C3.37 2.13 2.97 2.34 2.66 2.66C2.34 2.97 2.13 3.37 2.04 3.81C1.96 4.25 2 4.7 2.17 5.11C2.34 5.52 2.63 5.87 3 6.12Z M1.89 11.22C1.19 11.68 0.65 12.35 0.32 13.12C0 13.9 -0.08 14.75 0.08 15.58C0.25 16.4 0.65 17.16 1.24 17.76C1.84 18.35 2.6 18.75 3.42 18.92C4.25 19.08 5.1 19 5.88 18.68C6.65 18.35 7.32 17.81 7.78 17.11C8.25 16.41 8.5 15.59 8.5 14.75L8.5 10.5L4.25 10.5C3.41 10.5 2.59 10.75 1.89 11.22Z M2.66 16.34C2.97 16.66 3.37 16.87 3.81 16.96C4.25 17.04 4.7 17 5.11 16.83C5.52 16.66 5.87 16.37 6.12 16C6.37 15.63 6.5 15.2 6.5 14.75L6.5 12.5L4.25 12.5C3.8 12.5 3.37 12.63 3 12.88C2.63 13.13 2.34 13.48 2.17 13.89C2 14.3 1.96 14.75 2.04 15.19C2.13 15.63 2.34 16.03 2.66 16.34Z M11.74 1.24C10.95 2.04 10.5 3.12 10.5 4.25L10.5 8.5L14.75 8.5C15.88 8.5 16.96 8.05 17.76 7.26C18.55 6.46 19 5.38 19 4.25C19 3.12 18.55 2.04 17.76 1.24C16.96 0.45 15.88 0 14.75 0C13.62 0 12.54 0.45 11.74 1.24Z M16.83 5.11C17 4.7 17.04 4.25 16.96 3.81C16.87 3.37 16.66 2.97 16.34 2.66C16.03 2.34 15.63 2.13 15.19 2.04C14.75 1.96 14.3 2 13.89 2.17C13.48 2.34 13.13 2.63 12.88 3C12.63 3.37 12.5 3.8 12.5 4.25L12.5 6.5L14.75 6.5C15.2 6.5 15.63 6.37 16 6.12C16.37 5.87 16.66 5.52 16.83 5.11Z M10.5 14.75C10.5 15.59 10.75 16.41 11.22 17.11C11.68 17.81 12.35 18.35 13.12 18.68C13.9 19 14.75 19.08 15.58 18.92C16.4 18.75 17.16 18.35 17.76 17.76C18.35 17.16 18.75 16.4 18.92 15.58C19.08 14.75 19 13.9 18.68 13.12C18.35 12.35 17.81 11.68 17.11 11.22C16.41 10.75 15.59 10.5 14.75 10.5L10.5 10.5L10.5 14.75Z M16 12.88C15.63 12.63 15.2 12.5 14.75 12.5L12.5 12.5L12.5 14.75C12.5 15.2 12.63 15.63 12.88 16C13.13 16.37 13.48 16.66 13.89 16.83C14.3 17 14.75 17.04 15.19 16.96C15.63 16.87 16.03 16.66 16.34 16.34C16.66 16.03 16.87 15.63 16.96 15.19C17.04 14.75 17 14.3 16.83 13.89C16.66 13.48 16.37 13.13 16 12.88Z " /></g></g></svg>