<svg xmlns="http://www.w3.org/2000/svg" xmlns:xlink="http://www.w3.org/1999/xlink" width="24" height="24" viewBox="0 0 24 24" fill="none"><defs><rect id="path_0" x="0" y="0" width="24" height="24" /></defs><g opacity="1" transform="translate(0 0)  rotate(0 12 12)"><mask id="bg-mask-0" fill="white"><use xlink:href="#path_0"></use></mask><g mask="url(#bg-mask-0)" ><g opacity="1" transform="translate(2.499999413398559 2.5)  rotate(0 9.50000029330072 9.499994527913486)"><path id="路径 1" fill-rule="evenodd" style="fill:#000000" transform="translate(5.866014411992637e-7 0)  rotate(0 4.25 4.25)" opacity="1" d="M1.24,7.26C2.04,8.05 3.12,8.5 4.25,8.5L8.5,8.5L8.5,4.25C8.5,3.69 8.39,3.14 8.18,2.62C7.96,2.11 7.65,1.64 7.26,1.24C6.86,0.85 6.39,0.54 5.88,0.32C5.36,0.11 4.81,0 4.25,0C3.12,0 2.04,0.45 1.24,1.24C0.45,2.04 0,3.12 0,4.25C0,5.38 0.45,6.46 1.24,7.26Z " /><path id="路径 2" fill-rule="evenodd" style="fill:#000000" transform="translate(0 10.5)  rotate(0 4.250000293300721 4.249994527913486)" opacity="1" d="M8.5,4.25L8.5,0L4.25,0C3.41,0 2.59,0.25 1.89,0.72C1.19,1.18 0.65,1.85 0.32,2.62C0,3.4 -0.08,4.25 0.08,5.08C0.25,5.9 0.65,6.66 1.24,7.26C1.84,7.85 2.6,8.25 3.42,8.42C4.25,8.58 5.1,8.5 5.88,8.18C6.65,7.85 7.32,7.31 7.78,6.61C8.25,5.91 8.5,5.09 8.5,4.25Z " /><path id="路径 3" fill-rule="evenodd" style="fill:#000000" transform="translate(10.500000586601441 0)  rotate(0 4.25 4.25)" opacity="1" d="M1.24,1.24C0.45,2.04 0,3.12 0,4.25L0,8.5L4.25,8.5C5.38,8.5 6.46,8.05 7.26,7.26C8.05,6.46 8.5,5.38 8.5,4.25C8.5,3.12 8.05,2.04 7.26,1.24C6.46,0.45 5.38,0 4.25,0C3.12,0 2.04,0.45 1.24,1.24Z " /><path id="路径 4" fill-rule="evenodd" style="fill:#000000" transform="translate(10.500000586601441 10.5)  rotate(0 4.249994527913486 4.249994527913483)" opacity="1" d="M2.62,8.18C3.4,8.5 4.25,8.58 5.08,8.42C5.9,8.25 6.66,7.85 7.26,7.26C7.85,6.66 8.25,5.9 8.42,5.08C8.58,4.25 8.5,3.4 8.18,2.62C7.85,1.85 7.31,1.18 6.61,0.72C5.91,0.25 5.09,0 4.25,0L0,0L0,4.25C0,5.09 0.25,5.91 0.72,6.61C1.18,7.31 1.85,7.85 2.62,8.18Z " /></g></g></g></svg>