<svg width="24" height="24" fill="none" xmlns="http://www.w3.org/2000/svg"><mask id="a" style="mask-type:alpha" maskUnits="userSpaceOnUse" x="0" y="0" width="24" height="24"><path d="M24 0H0v24h24V0Z" fill="#fff"/></mask><g mask="url(#a)" fill-rule="evenodd" clip-rule="evenodd" fill="currentColor"><path d="M3.74 9.76c.8.79 1.88 1.24 3.01 1.24H11V6.75c0-.56-.11-1.11-.32-1.63-.22-.51-.53-.98-.92-1.38-.4-.39-.87-.7-1.38-.92a4.287 4.287 0 0 0-4.64.92c-.79.8-1.24 1.88-1.24 3.01s.45 2.21 1.24 3.01ZM11 17.25V13H6.75a4.286 4.286 0 0 0-3.93 2.62c-.32.78-.4 1.63-.24 2.46.17.82.57 1.58 1.16 2.18.6.59 1.36.99 2.18 1.16.83.16 1.68.08 2.46-.24A4.286 4.286 0 0 0 11 17.25ZM14.24 3.74c-.79.8-1.24 1.88-1.24 3.01V11h4.25c1.13 0 2.21-.45 3.01-1.24.79-.8 1.24-1.88 1.24-3.01s-.45-2.21-1.24-3.01c-.8-.79-1.88-1.24-3.01-1.24s-2.21.45-3.01 1.24ZM15.62 21.18c.78.32 1.63.4 2.46.24.82-.17 1.58-.57 2.18-1.16.59-.6.99-1.36 1.16-2.18.16-.83.08-1.68-.24-2.46A4.286 4.286 0 0 0 17.25 13H13v4.25a4.286 4.286 0 0 0 2.62 3.93Z"/></g></svg>