<svg width="24" height="24" fill="none" xmlns="http://www.w3.org/2000/svg"><mask id="a" style="mask-type:alpha" maskUnits="userSpaceOnUse" x="0" y="0" width="24" height="24"><path d="M24 0H0v24h24V0Z" fill="#fff"/></mask><g mask="url(#a)"><path fill-rule="evenodd" clip-rule="evenodd" d="M3.29 20.71c.09.09.2.16.32.21.12.05.25.08.38.08h16.02c.13 0 .26-.03.38-.08s.23-.12.32-.21c.09-.1.17-.21.22-.33.05-.12.07-.25.07-.38V10h1V4a.986.986 0 0 0-.29-.71.988.988 0 0 0-.32-.21.995.995 0 0 0-.38-.08H2.99C2.46 3 2 3.45 2 4v6h1v10c0 .13.02.26.07.38s.13.23.22.33ZM5 10v9h14v-9H5ZM4 8h16V5H4v3Zm5 6h6v-2H9v2Z" fill="currentColor"/></g></svg>