<svg xmlns="http://www.w3.org/2000/svg" xmlns:xlink="http://www.w3.org/1999/xlink" width="24" height="24" viewBox="0 0 24 24" fill="none"><defs><rect id="path_0" x="0" y="0" width="24" height="24" /></defs><g opacity="1" transform="translate(0 0)  rotate(0 12 12)"><mask id="bg-mask-0" fill="white"><use xlink:href="#path_0"></use></mask><g mask="url(#bg-mask-0)" ><path id="分组 1" fill-rule="evenodd" style="fill:#000000" transform="translate(2 2.9999979049675627)  rotate(0 10.000041547198958 9.000001047516218)" opacity="1" d="M1.29 17.71C1.38 17.8 1.49 17.87 1.61 17.92C1.73 17.97 1.86 18 1.99 18L18.01 18C18.14 18 18.27 17.97 18.39 17.92C18.51 17.87 18.62 17.8 18.71 17.71C18.8 17.61 18.88 17.5 18.93 17.38C18.98 17.26 19 17.13 19 17L19 7L20 7L20 1C20 0.87 19.98 0.74 19.93 0.62C19.88 0.5 19.81 0.39 19.71 0.29C19.62 0.2 19.51 0.13 19.39 0.08C19.27 0.03 19.14 0 19.01 0L0.99 0C0.46 0 0 0.45 0 1L0 7L1 7L1 17C1 17.13 1.02 17.26 1.07 17.38C1.12 17.5 1.2 17.61 1.29 17.71Z M3 7L3 16L17 16L17 7L3 7Z M2 5L18 5L18 2L2 2L2 5Z M7 11L13 11L13 9L7 9L7 11Z " /></g></g></svg>