<svg xmlns="http://www.w3.org/2000/svg" xmlns:xlink="http://www.w3.org/1999/xlink" viewBox="0 0 24 24" fill="none"><defs><rect id="path_0" x="0" y="0" width="24" height="24" /></defs><g opacity="1" transform="translate(0 0)  rotate(0 12 12)"><mask id="bg-mask-0" fill="white"><use xlink:href="#path_0"></use></mask><g mask="url(#bg-mask-0)" ><path id="分组 1" fill-rule="evenodd" style="fill:#000000" transform="translate(2 3)  rotate(0 10 9)" opacity="1" d="M19 7L0.999998 7L0.999998 17C0.999998 17.13 1.03 17.26 1.07 17.38C1.12 17.51 1.2 17.62 1.29 17.71C1.38 17.8 1.49 17.87 1.61 17.92C1.73 17.97 1.86 18 1.99 18L18.01 18C18.56 18 19 17.55 19 17L19 7Z M7 11L13 11L13 9L7 9L7 11Z M0 5L20 5L20 1C20 0.44 19.56 0 19.01 0L0.99 0C0.46 0 0 0.45 0 1L0 5Z " /></g></g></svg>