<svg width="24" height="24" fill="none" xmlns="http://www.w3.org/2000/svg"><mask id="a" style="mask-type:alpha" maskUnits="userSpaceOnUse" x="0" y="0" width="24" height="24"><path d="M24 0H0v24h24V0Z" fill="#fff"/></mask><g mask="url(#a)"><path fill-rule="evenodd" clip-rule="evenodd" d="M8.36 9.54 5.83 7H13c1.59 0 3.12.63 4.24 1.76A5.97 5.97 0 0 1 19 13c0 1.59-.63 3.12-1.76 4.24A5.97 5.97 0 0 1 13 19H4v2h9c2.12 0 4.16-.84 5.66-2.34S21 15.12 21 13s-.84-4.16-2.34-5.66A8.008 8.008 0 0 0 13 5H5.83l2.53-2.54-1.41-1.41L2 6l4.95 4.95 1.41-1.41Z" fill="currentColor"/></g></svg>