<svg xmlns="http://www.w3.org/2000/svg" xmlns:xlink="http://www.w3.org/1999/xlink" width="24" height="24" viewBox="0 0 24 24" fill="none"><defs><rect id="path_0" x="0" y="0" width="24" height="24" /></defs><g opacity="1" transform="translate(0 0)  rotate(0 12 12)"><mask id="bg-mask-0" fill="white"><use xlink:href="#path_0"></use></mask><g mask="url(#bg-mask-0)" ><path id="路径 1" fill-rule="evenodd" style="fill:#000000" transform="translate(2 1.0500500000000006)  rotate(0 9.5 9.974975)" opacity="1" d="M6.36,8.49L3.83,5.95L11,5.95C12.59,5.95 14.12,6.58 15.24,7.71C16.37,8.83 17,10.36 17,11.95C17,13.54 16.37,15.07 15.24,16.19C14.12,17.32 12.59,17.95 11,17.95L2,17.95L2,19.95L11,19.95C13.12,19.95 15.16,19.11 16.66,17.61C18.16,16.11 19,14.07 19,11.95C19,9.83 18.16,7.79 16.66,6.29C15.16,4.79 13.12,3.95 11,3.95L3.83,3.95L6.36,1.41L4.95,0L0,4.95L4.95,9.9L6.36,8.49Z " /></g></g></svg>