<svg xmlns="http://www.w3.org/2000/svg" xmlns:xlink="http://www.w3.org/1999/xlink" width="24" height="24" viewBox="0 0 24 24" fill="none"><defs><rect id="path_0" x="0" y="0" width="24" height="24" /></defs><g opacity="1" transform="translate(0 0)  rotate(0 12 12)"><mask id="bg-mask-0" fill="white"><use xlink:href="#path_0"></use></mask><g mask="url(#bg-mask-0)" ><g opacity="1" transform="translate(2.0499899999999993 3)  rotate(0 9.950004999999999 9)"><path id="路径 1" fill-rule="evenodd" style="fill:#000000" transform="translate(0 0)  rotate(0 4.950004999999999 8.5)" opacity="1" d="M9.9,4.95L4.95,0L0,4.95L1.41,6.36L3.95,3.83L3.95,17L5.95,17L5.95,3.83L8.49,6.36L9.9,4.95Z " /><path id="路径 2" fill-rule="evenodd" style="fill:#000000" transform="translate(10.00001 1)  rotate(0 4.949999999999999 8.5)" opacity="1" d="M8.49,10.64L5.95,13.17L5.95,0L3.95,0L3.95,13.17L1.41,10.64L0,12.05L4.95,17L9.9,12.05L8.49,10.64Z " /></g></g></g></svg>