<svg xmlns="http://www.w3.org/2000/svg" xmlns:xlink="http://www.w3.org/1999/xlink" viewBox="0 0 24 24" fill="none"><defs><rect id="path_0" x="0" y="0" width="24" height="24" /></defs><g opacity="1" transform="translate(0 0)  rotate(0 12 12)"><mask id="bg-mask-0" fill="white"><use xlink:href="#path_0"></use></mask><g mask="url(#bg-mask-0)" ><path id="路径 1" fill-rule="evenodd" style="fill:#000000" transform="translate(3 1.0500500000000006)  rotate(0 9.5 9.974975)" opacity="1" d="M8,19.95L17,19.95L17,17.95L8,17.95C6.41,17.95 4.88,17.32 3.76,16.19C2.63,15.07 2,13.54 2,11.95C2,10.36 2.63,8.83 3.76,7.71C4.88,6.58 6.41,5.95 8,5.95L15.17,5.95L12.64,8.49L14.05,9.9L19,4.95L14.05,0L12.64,1.41L15.17,3.95L8,3.95C5.88,3.95 3.84,4.79 2.34,6.29C0.84,7.79 0,9.83 0,11.95C0,14.07 0.84,16.11 2.34,17.61C3.84,19.11 5.88,19.95 8,19.95Z " /></g></g></svg>