<svg xmlns="http://www.w3.org/2000/svg" xmlns:xlink="http://www.w3.org/1999/xlink" width="24" height="24" viewBox="0 0 24 24" fill="none"><defs><rect id="path_0" x="0" y="0" width="24" height="24" /></defs><g opacity="1" transform="translate(0 0)  rotate(0 12 12)"><mask id="bg-mask-0" fill="white"><use xlink:href="#path_0"></use></mask><g mask="url(#bg-mask-0)" ><g opacity="1" transform="translate(3 2.0500500000000006)  rotate(0 9 9.950025)"><path id="路径 1" fill-rule="evenodd" style="fill:#000000" transform="translate(1 9.99995)  rotate(0 8.5 4.950049999999999)" opacity="1" d="M13.17,3.95L0,3.95L0,5.95L13.17,5.95L10.64,8.49L12.05,9.9L17,4.95L12.05,0L10.64,1.41L13.17,3.95Z " /><path id="路径 2" fill-rule="evenodd" style="fill:#000000" transform="translate(0 0)  rotate(0 8.5 4.949974999999999)" opacity="1" d="M6.36,1.41L4.95,0L0,4.95L4.95,9.9L6.36,8.49L3.83,5.95L17,5.95L17,3.95L3.83,3.95L6.36,1.41Z " /></g></g></g></svg>