<svg width="24" height="24" fill="none" xmlns="http://www.w3.org/2000/svg"><mask id="a" style="mask-type:alpha" maskUnits="userSpaceOnUse" x="0" y="0" width="24" height="24"><path d="M24 0H0v24h24V0Z" fill="#fff"/></mask><g mask="url(#a)"><path fill-rule="evenodd" clip-rule="evenodd" d="M11 21h9v-2h-9a5.97 5.97 0 0 1-4.24-1.76A5.97 5.97 0 0 1 5 13c0-1.59.63-3.12 1.76-4.24A5.97 5.97 0 0 1 11 7h7.17l-2.53 2.54 1.41 1.41L22 6l-4.95-4.95-1.41 1.41L18.17 5H11c-2.12 0-4.16.84-5.66 2.34A8.008 8.008 0 0 0 3 13c0 2.12.84 4.16 2.34 5.66S8.88 21 11 21Z" fill="currentColor"/></g></svg>