<svg width="24" height="24" fill="none" xmlns="http://www.w3.org/2000/svg"><mask id="a" style="mask-type:alpha" maskUnits="userSpaceOnUse" x="0" y="0" width="24" height="24"><path d="M24 0H0v24h24V0Z" fill="#fff"/></mask><g mask="url(#a)"><path fill-rule="evenodd" clip-rule="evenodd" d="M19.56 14.56A1.499 1.499 0 0 1 17 13.5V8h-2c-.77-.58-1.69-.92-2.65-.99a5.09 5.09 0 0 0-2.76.61 4.999 4.999 0 0 0-2.57 4.78c.07.96.43 1.88 1.01 2.64.59.77 1.38 1.35 2.29 1.67.91.32 1.89.38 2.83.16.93-.22 1.79-.71 2.45-1.4a3.49 3.49 0 0 0 1.74 1.33c.71.25 1.47.27 2.19.05.71-.22 1.34-.67 1.79-1.27.44-.6.68-1.33.68-2.08V12c0-5.52-4.48-10-10-10S2 6.48 2 12s4.48 10 10 10c1.98 0 3.91-.58 5.55-1.68l-1.11-1.66a7.998 7.998 0 0 1-9.82-.74 7.934 7.934 0 0 1-2.5-4.56c-.31-1.75-.01-3.56.83-5.13a7.94 7.94 0 0 1 3.81-3.54 7.988 7.988 0 0 1 9.55 2.39A8.031 8.031 0 0 1 20 12v1.5c0 .4-.16.78-.44 1.06ZM9.88 9.88a2.997 2.997 0 1 0 4.24 4.24 2.997 2.997 0 1 0-4.24-4.24Z" fill="currentColor"/></g></svg>