<svg xmlns="http://www.w3.org/2000/svg" xmlns:xlink="http://www.w3.org/1999/xlink" viewBox="0 0 24 24" fill="none"><defs><rect id="path_0" x="0" y="0" width="24" height="24" /></defs><g opacity="1" transform="translate(0 0)  rotate(0 12 12)"><mask id="bg-mask-0" fill="white"><use xlink:href="#path_0"></use></mask><g mask="url(#bg-mask-0)" ><path id="分组 1" fill-rule="evenodd" style="fill:#000000" transform="translate(2 2)  rotate(0 10.000000015618651 10.000006534697743)" opacity="1" d="M17.56 12.56C17.28 12.84 16.9 13 16.5 13C16.1 13 15.72 12.84 15.44 12.56C15.16 12.28 15 11.9 15 11.5L15 6L13 6C12.23 5.42 11.31 5.08 10.35 5.01C9.39 4.95 8.43 5.16 7.59 5.62C6.74 6.09 6.05 6.79 5.6 7.63C5.14 8.48 4.94 9.44 5.02 10.4C5.09 11.36 5.45 12.28 6.03 13.04C6.62 13.81 7.41 14.39 8.32 14.71C9.23 15.03 10.21 15.09 11.15 14.87C12.08 14.65 12.94 14.16 13.6 13.47C14.02 14.09 14.63 14.55 15.34 14.8C16.05 15.05 16.81 15.07 17.53 14.85C18.24 14.63 18.87 14.18 19.32 13.58C19.76 12.98 20 12.25 20 11.5L20 10C20 4.48 15.52 0 10 0C4.48 0 0 4.48 0 10C0 15.52 4.48 20 10 20C11.98 20 13.91 19.42 15.55 18.32L14.44 16.66C12.95 17.65 11.18 18.11 9.4 17.98C7.63 17.85 5.94 17.12 4.62 15.92C3.3 14.73 2.42 13.12 2.12 11.36C1.81 9.61 2.11 7.8 2.95 6.23C3.79 4.65 5.13 3.41 6.76 2.69C8.39 1.96 10.22 1.81 11.95 2.24C13.67 2.67 15.21 3.67 16.31 5.08C17.4 6.48 18 8.22 18 10L18 11.5C18 11.9 17.84 12.28 17.56 12.56Z M7.88 7.88C7.32 8.44 7 9.2 7 10C7 10.8 7.32 11.56 7.88 12.12C8.44 12.68 9.2 13 10 13C10.8 13 11.56 12.68 12.12 12.12C12.68 11.56 13 10.8 13 10C13 9.2 12.68 8.44 12.12 7.88C11.56 7.32 10.8 7 10 7C9.2 7 8.44 7.32 7.88 7.88Z " /></g></g></svg>