<svg xmlns="http://www.w3.org/2000/svg" xmlns:xlink="http://www.w3.org/1999/xlink" viewBox="0 0 24 24" fill="none"><defs><rect id="path_0" x="0" y="0" width="24" height="24" /></defs><g opacity="1" transform="translate(0 0)  rotate(0 12 12)"><mask id="bg-mask-0" fill="white"><use xlink:href="#path_0"></use></mask><g mask="url(#bg-mask-0)" ><path id="路径 1" fill-rule="evenodd" style="fill:#000000" transform="translate(2.8776200000000003 2.111451055009818)  rotate(0 8.80369 9.50497447249509)" opacity="1" d="M4.23,10.86C4.08,11.23 4,11.62 4,12.01C4,12.4 4.08,12.79 4.23,13.16C4.38,13.52 4.6,13.85 4.88,14.13C5.16,14.41 5.49,14.63 5.85,14.78C6.22,14.93 6.61,15.01 7,15.01C7.39,15.01 7.78,14.93 8.15,14.78C8.51,14.63 8.84,14.41 9.12,14.13L14.78,8.47C15.69,7.53 16.19,6.27 16.18,4.96C16.17,3.65 15.64,2.39 14.72,1.46C13.79,0.54 12.54,0.01 11.23,0C9.91,-0.01 8.65,0.49 7.71,1.4L2.05,7.06C1.4,7.71 0.88,8.48 0.53,9.33C0.18,10.18 0,11.09 0,12.01C0,12.93 0.18,13.84 0.53,14.69C0.88,15.54 1.4,16.31 2.05,16.96C2.7,17.61 3.47,18.13 4.32,18.48C5.17,18.83 6.08,19.01 7,19.01C7.92,19.01 8.83,18.83 9.68,18.48C10.53,18.13 11.3,17.61 11.95,16.96L17.61,11.3L16.19,9.89L10.54,15.54C10.07,16.02 9.52,16.4 8.91,16.66C8.3,16.91 7.65,17.05 6.99,17.05C6.33,17.06 5.67,16.93 5.06,16.68C4.45,16.43 3.89,16.06 3.42,15.59C2.95,15.12 2.58,14.57 2.33,13.95C2.08,13.34 1.95,12.68 1.96,12.02C1.96,11.36 2.1,10.71 2.35,10.1C2.61,9.49 2.99,8.94 3.47,8.47L9.12,2.82C9.68,2.25 10.45,1.94 11.24,1.94C12.04,1.94 12.8,2.25 13.37,2.82C13.93,3.38 14.24,4.14 14.24,4.94C14.24,5.73 13.93,6.5 13.37,7.06L7.71,12.72C7.62,12.81 7.51,12.89 7.38,12.94C7.26,12.99 7.13,13.02 7,13.02C6.86,13.02 6.73,13 6.61,12.95C6.49,12.9 6.38,12.82 6.28,12.73C6.19,12.64 6.11,12.52 6.06,12.4C6.01,12.28 5.99,12.15 5.99,12.01C5.99,11.88 6.02,11.75 6.07,11.63C6.12,11.51 6.2,11.39 6.29,11.3L11.95,5.65L10.54,4.23L4.88,9.89C4.6,10.17 4.38,10.5 4.23,10.86Z " /></g></g></svg>