<svg width="24" height="24" fill="none" xmlns="http://www.w3.org/2000/svg"><mask id="a" style="mask-type:alpha" maskUnits="userSpaceOnUse" x="0" y="0" width="24" height="24"><path d="M24 0H0v24h24V0Z" fill="#fff"/></mask><g mask="url(#a)"><path fill-rule="evenodd" clip-rule="evenodd" d="M7.108 12.971c-.15.37-.23.76-.23 1.15a3.008 3.008 0 0 0 3 3 3.008 3.008 0 0 0 2.12-.88l5.66-5.66c.91-.94 1.41-2.2 1.4-3.51a5.046 5.046 0 0 0-1.46-3.5 5.022 5.022 0 0 0-3.49-1.46c-1.32-.01-2.58.49-3.52 1.4l-5.66 5.66a6.967 6.967 0 0 0-2.05 4.95 6.967 6.967 0 0 0 2.05 4.95 6.967 6.967 0 0 0 4.95 2.05 6.967 6.967 0 0 0 4.95-2.05l5.66-5.66-1.42-1.41-5.65 5.65c-.47.48-1.02.86-1.63 1.12-.61.25-1.26.39-1.92.39-.66.01-1.32-.12-1.93-.37-.61-.25-1.17-.62-1.64-1.09-.47-.47-.84-1.02-1.09-1.64-.25-.61-.38-1.27-.37-1.93 0-.66.14-1.31.39-1.92.26-.61.64-1.16 1.12-1.63l5.65-5.65c.56-.57 1.33-.88 2.12-.88a2.988 2.988 0 0 1 3 3c0 .79-.31 1.56-.87 2.12l-5.66 5.66c-.09.09-.2.17-.33.22-.12.05-.25.08-.38.08-.14 0-.27-.02-.39-.07a1.19 1.19 0 0 1-.33-.22 1.06 1.06 0 0 1-.22-.33c-.05-.12-.07-.25-.07-.39 0-.13.03-.26.08-.38s.13-.24.22-.33l5.66-5.65-1.41-1.42-5.66 5.66c-.28.28-.5.61-.65.97Z" fill="currentColor"/></g></svg>