<svg xmlns="http://www.w3.org/2000/svg" xmlns:xlink="http://www.w3.org/1999/xlink" viewBox="0 0 24 24" fill="none"><defs><rect id="path_0" x="0" y="0" width="24" height="24" /></defs><g opacity="1" transform="translate(0 0)  rotate(0 12 12)"><mask id="bg-mask-0" fill="white"><use xlink:href="#path_0"></use></mask><g mask="url(#bg-mask-0)" ><path id="分组 1" fill-rule="evenodd" style="fill:#000000" transform="translate(4.000003172093276 1.0009800000000002)  rotate(0 7.999992461479749 10.808029323278905)" opacity="1" d="M12.63 1.47C11.27 0.51 9.66 0 8 0C6.34 0 4.73 0.51 3.37 1.47C2.02 2.43 1 3.79 0.45 5.35C-0.1 6.91 -0.15 8.61 0.31 10.2C0.77 11.8 1.71 13.21 3 14.25L3 21.12C3 21.2 3.02 21.29 3.07 21.37C3.11 21.44 3.18 21.51 3.25 21.55C3.33 21.59 3.42 21.62 3.51 21.62C3.59 21.62 3.68 21.59 3.76 21.55L8 19L12.24 21.55C12.32 21.59 12.41 21.62 12.49 21.62C12.58 21.62 12.67 21.59 12.75 21.55C12.82 21.51 12.89 21.44 12.93 21.37C12.98 21.29 13 21.2 13 21.12L13 14.24L13 14.25C14.29 13.21 15.23 11.8 15.69 10.2C16.15 8.61 16.1 6.91 15.55 5.35C15 3.79 13.98 2.43 12.63 1.47Z M12.24 12.239C13.37 11.119 14 9.58899 14 7.99899C14 6.40899 13.37 4.87899 12.24 3.75899C11.12 2.62899 9.59 1.99899 8 1.99899C6.41 1.99899 4.88 2.62899 3.76 3.75899C2.63 4.87899 2 6.40899 2 7.99899C2 9.58899 2.63 11.119 3.76 12.239C4.88 13.369 6.41 13.999 8 13.999C9.59 13.999 11.12 13.369 12.24 12.239Z M10.83 10.829C11.58 10.079 12 9.05899 12 7.99899C12 6.93899 11.58 5.91899 10.83 5.16899C10.08 4.41899 9.06 3.99899 8 3.99899C6.94 3.99899 5.92 4.41899 5.17 5.16899C4.42 5.91899 4 6.93899 4 7.99899C4 9.05899 4.42 10.079 5.17 10.829C5.92 11.579 6.94 11.999 8 11.999C9.06 11.999 10.08 11.579 10.83 10.829Z " /></g></g></svg>