<svg width="24" height="24" fill="none" xmlns="http://www.w3.org/2000/svg"><mask id="a" style="mask-type:alpha" maskUnits="userSpaceOnUse" x="0" y="0" width="24" height="24"><path d="M24 0H0v24h24V0Z" fill="#fff"/></mask><g mask="url(#a)"><path fill-rule="evenodd" clip-rule="evenodd" d="M7 22.121a.517.517 0 0 0 .25.43c.08.04.17.07.26.07.08 0 .17-.03.25-.07l4.24-2.55 4.24 2.55c.08.04.17.07.25.07.09 0 .18-.03.26-.07a.517.517 0 0 0 .25-.43v-6.88.01a8.058 8.058 0 0 0 2.69-4.05c.46-1.59.41-3.29-.14-4.85a8.048 8.048 0 0 0-2.92-3.88A8.01 8.01 0 0 0 12 1.001c-1.66 0-3.27.51-4.63 1.47a8.048 8.048 0 0 0-2.92 3.88c-.55 1.56-.6 3.26-.14 4.85.46 1.6 1.4 3.01 2.69 4.05v6.87Zm2-2.653 3-1.8 3 1.8v-3.05c-.95.39-1.97.58-3 .58s-2.05-.19-3-.58v3.05Zm7.24-6.228A5.97 5.97 0 0 0 18 9c0-1.59-.63-3.12-1.76-4.24A5.97 5.97 0 0 0 12 3c-1.59 0-3.12.63-4.24 1.76A5.97 5.97 0 0 0 6 9c0 1.59.63 3.12 1.76 4.24A5.97 5.97 0 0 0 12 15c1.59 0 3.12-.63 4.24-1.76Z" fill="currentColor"/></g></svg>