<svg width="24" height="24" fill="none" xmlns="http://www.w3.org/2000/svg"><mask id="a" style="mask-type:alpha" maskUnits="userSpaceOnUse" x="0" y="0" width="24" height="24"><path d="M24 0H0v24h24V0Z" fill="#fff"/></mask><g mask="url(#a)"><path fill-rule="evenodd" clip-rule="evenodd" d="M2 10v10c0 .27.11.52.29.71.19.18.44.29.71.29h18c.27 0 .52-.11.71-.29.18-.19.29-.44.29-.71V10H2Zm20-6c0-.27-.11-.52-.29-.71-.19-.18-.44-.29-.71-.29H3c-.27 0-.52.11-.71.29-.18.19-.29.44-.29.71v4h20V4Zm-7 14h4v-2h-4v2Z" fill="currentColor"/></g></svg>