<svg xmlns="http://www.w3.org/2000/svg" xmlns:xlink="http://www.w3.org/1999/xlink" width="24" height="24" viewBox="0 0 24 24" fill="none"><g opacity="1" transform="translate(0 0)  rotate(0 12 12)"><g opacity="1" transform="translate(3 2)  rotate(0 9.5 10)"><path id="路径 2" fill-rule="evenodd" style="fill:#000000" transform="translate(1 8)  rotate(0 2.5 4)" opacity="1" d="M5,0L0,0L0,8L5,8L5,0Z " /><path id="路径 3" fill-rule="evenodd" style="fill:#000000" transform="translate(7 4)  rotate(0 2.5 6)" opacity="1" d="M5,0L0,0L0,12L5,12L5,0Z " /><path id="路径 4" fill-rule="evenodd" style="fill:#000000" transform="translate(13 0)  rotate(0 2.5 8)" opacity="1" d="M5,0L0,0L0,16L5,16L5,0Z " /><path id="路径 5" fill-rule="evenodd" style="fill:#000000" transform="translate(0 18)  rotate(0 9.5 1)" opacity="1" d="M19,0L0,0L0,2L19,2L19,0Z " /></g></g></svg>