<svg xmlns="http://www.w3.org/2000/svg" xmlns:xlink="http://www.w3.org/1999/xlink" width="24" height="24" viewBox="0 0 24 24" fill="none"><g opacity="1" transform="translate(0 0)  rotate(0 12 12)"><path id="分组 1" fill-rule="evenodd" style="fill:#000000" transform="translate(3 2)  rotate(0 9.5 10)" opacity="1" d="M6 8L1 8L1 16L6 16L6 8Z M4 10L3 10L3 14L4 14L4 10Z M10 6L9 6L9 14L10 14L10 6Z M12 4L7 4L7 16L12 16L12 4Z M16 2L15 2L15 14L16 14L16 2Z M18 0L13 0L13 16L18 16L18 0Z M19 18L0 18L0 20L19 20L19 18Z " /></g></svg>