<svg xmlns="http://www.w3.org/2000/svg" xmlns:xlink="http://www.w3.org/1999/xlink" viewBox="0 0 24 24" fill="none"><g opacity="1" transform="translate(0 0)  rotate(0 12 12)"><path id="分组 1" fill-rule="evenodd" style="fill:#000000" transform="translate(2 3)  rotate(0 10 9)" opacity="1" d="M2 16L18 16L18 2L2 2L2 16Z M0 1L0 17C0 17.55 0.45 18 1 18L19 18C19.55 18 20 17.55 20 17L20 1C20 0.45 19.55 0 19 0L1 0C0.45 0 0 0.45 0 1Z M4 14L7 14L7 4L4 4L4 14Z M8 14L10 14L10 4L8 4L8 14Z M11 14L12 14L12 4L11 4L11 14Z M13 14L16 14L16 4L13 4L13 14Z " /></g></svg>