<svg xmlns="http://www.w3.org/2000/svg" xmlns:xlink="http://www.w3.org/1999/xlink" viewBox="0 0 24 24" fill="none"><defs><rect id="path_0" x="0" y="0" width="24" height="24" /></defs><g opacity="1" transform="translate(0 0)  rotate(0 12 12)"><mask id="bg-mask-0" fill="white"><use xlink:href="#path_0"></use></mask><g mask="url(#bg-mask-0)" ><g opacity="1" transform="translate(2 5)  rotate(0 10.5 7)"><path id="路径 1" fill-rule="evenodd" style="fill:#000000" transform="translate(0 0)  rotate(0 3.8125 7)" opacity="1" d="M0,13C0,13.27 0.11,13.52 0.29,13.71C0.48,13.89 0.73,14 1,14L6,14L6,12L2,12L2,2L6.46,2L7.63,0L1,0C0.73,0 0.48,0.11 0.29,0.29C0.11,0.48 0,0.73 0,1L0,13Z " /><path id="路径 2" fill-rule="evenodd" style="fill:#000000" transform="translate(10.375 0)  rotate(0 3.8125 7)" opacity="1" d="M7.63,13L7.63,1C7.63,0.73 7.52,0.48 7.33,0.29C7.14,0.11 6.89,0 6.62,0L1.62,0L1.62,2L5.63,2L5.63,12L1.17,12L0,14L6.62,14C6.89,14 7.14,13.89 7.33,13.71C7.52,13.52 7.63,13.27 7.63,13Z " /><path id="路径 3" fill-rule="evenodd" style="fill:#000000" transform="translate(19 4)  rotate(0 1 3)" opacity="1" d="M0,6L2,6L2,0L0,0L0,6Z " /><path id="路径 4" fill-rule="evenodd" style="fill:#000000" transform="translate(5 0)  rotate(0 4 7)" opacity="1" d="M5,0L0,8L3,8L3,14L8,6L5,6L5,0Z " /></g></g></g></svg>