<svg xmlns="http://www.w3.org/2000/svg" xmlns:xlink="http://www.w3.org/1999/xlink" width="24" height="24" viewBox="0 0 24 24" fill="none"><defs><rect id="path_0" x="0" y="0" width="24" height="24" /></defs><g opacity="1" transform="translate(0 0)  rotate(0 12 12)"><mask id="bg-mask-0" fill="white"><use xlink:href="#path_0"></use></mask><g mask="url(#bg-mask-0)" ><path id="分组 1" fill-rule="evenodd" style="fill:#000000" transform="translate(2 5)  rotate(0 10.5 7)" opacity="1" d="M10 0L5 8L8 8L8 14L13 6L10 6L10 0Z M17.71 0.29C17.52 0.11 17.27 0 17 0L1 0C0.73 0 0.48 0.11 0.29 0.29C0.11 0.48 0 0.73 0 1L0 13C0 13.27 0.11 13.52 0.29 13.71C0.48 13.89 0.73 14 1 14L17 14C17.27 14 17.52 13.89 17.71 13.71C17.89 13.52 18 13.27 18 13L18 1C18 0.73 17.89 0.48 17.71 0.29Z M19 10L21 10L21 4L19 4L19 10Z " /></g></g></svg>