<svg width="24" height="24" fill="none" xmlns="http://www.w3.org/2000/svg"><mask id="a" style="mask-type:alpha" maskUnits="userSpaceOnUse" x="0" y="0" width="24" height="24"><path d="M24 0H0v24h24V0Z" fill="#fff"/></mask><g mask="url(#a)" fill-rule="evenodd" clip-rule="evenodd" fill="currentColor"><path d="M20 6c0-.27-.11-.52-.29-.71-.19-.18-.44-.29-.71-.29H3c-.27 0-.52.11-.71.29-.18.19-.29.44-.29.71v12c0 .27.11.52.29.71.19.18.44.29.71.29h16c.27 0 .52-.11.71-.29.18-.19.29-.44.29-.71V6ZM21 15h2V9h-2v6Z"/></g></svg>