<svg width="24" height="24" fill="none" xmlns="http://www.w3.org/2000/svg"><mask id="a" style="mask-type:alpha" maskUnits="userSpaceOnUse" x="0" y="0" width="24" height="24"><path d="M24 0H0v24h24V0Z" fill="#fff"/></mask><g mask="url(#a)" fill-rule="evenodd" clip-rule="evenodd" fill="currentColor"><path d="M2 18c0 .27.11.52.29.71.19.18.44.29.71.29h5v-2H4V7h4.46l1.17-2H3c-.27 0-.52.11-.71.29-.18.19-.29.44-.29.71v12ZM20.005 18V6a1 1 0 0 0-.3-.71c-.19-.18-.44-.29-.71-.29h-5v2h4.01v10h-4.46l-1.17 2h6.62c.27 0 .52-.11.71-.29a1 1 0 0 0 .3-.71ZM21 15h2V9h-2v6Z"/><path d="m12 5-5 8h3v6l5-8h-3V5Z"/></g></svg>