<svg xmlns="http://www.w3.org/2000/svg" xmlns:xlink="http://www.w3.org/1999/xlink" viewBox="0 0 24 24" fill="none"><defs><rect id="path_0" x="0" y="0" width="24" height="24" /></defs><g opacity="1" transform="translate(0 0)  rotate(0 12 12)"><mask id="bg-mask-0" fill="white"><use xlink:href="#path_0"></use></mask><g mask="url(#bg-mask-0)" ><path id="分组 1" fill-rule="evenodd" style="fill:#000000" transform="translate(5.249019999999999 2.02905)  rotate(0 6.717490000000001 10.000025)" opacity="1" d="M5.78 9.52L5.78 10.49L0 16.26L1.42 17.68L5.78 13.31L5.78 20L7.78 20L13.43 14.34L9.09 10L9.09 10L13.43 5.66L7.78 0L5.78 0L5.78 6.69L1.42 2.32L0 3.74L5.78 9.52Z M7.77898 17.175L10.609 14.345L7.77898 11.515L7.77898 17.175Z M10.609 5.659L7.77898 2.829L7.77898 8.489L7.77898 8.489L10.609 5.659Z " /></g></g></svg>