<svg xmlns="http://www.w3.org/2000/svg" xmlns:xlink="http://www.w3.org/1999/xlink" viewBox="0 0 24 24" fill="none"><defs><rect id="path_0" x="0" y="0" width="24" height="24" /></defs><g opacity="1" transform="translate(0 0)  rotate(0 12 12)"><mask id="bg-mask-0" fill="white"><use xlink:href="#path_0"></use></mask><g mask="url(#bg-mask-0)" ><g opacity="1" transform="translate(1.3929399999999994 0.2719730000000009)  rotate(0 10.60698 11.1675135)"><path id="路径 1" fill-rule="evenodd" style="fill:#000000" transform="translate(0 1.120997)  rotate(0 10.60698 10.607015)" opacity="1" d="M19.8,21.21L21.21,19.8L1.41,0L0,1.41L4.04,5.45L4.04,5.45C2.45,7.16 1.58,9.42 1.62,11.75C1.66,14.09 2.6,16.31 4.25,17.96C5.9,19.61 8.13,20.56 10.46,20.6C12.8,20.64 15.06,19.77 16.76,18.17L19.8,21.21Z " /><path id="路径 2" fill-rule="evenodd" style="fill:#000000" transform="translate(6.8500000000000005 0)  rotate(0 6.379094181733489 7.9640135)" opacity="1" d="M0,3.76L12.17,15.93C12.79,14.31 12.92,12.54 12.56,10.84C12.19,9.15 11.35,7.59 10.12,6.36L3.76,0L0,3.76L0,3.76Z " /></g></g></g></svg>