<svg xmlns="http://www.w3.org/2000/svg" xmlns:xlink="http://www.w3.org/1999/xlink" viewBox="0 0 24 24" fill="none"><defs><rect id="path_0" x="0" y="0" width="24" height="24" /></defs><g opacity="1" transform="translate(0 0)  rotate(0 12 12)"><mask id="bg-mask-0" fill="white"><use xlink:href="#path_0"></use></mask><g mask="url(#bg-mask-0)" ><path id="分组 1" fill-rule="evenodd" style="fill:#000000" transform="translate(1.3930100000000003 0.2719730000000009)  rotate(0 10.606995 11.1675135)" opacity="1" d="M0 2.531L4.04 6.571C2.44 8.281 1.56 10.541 1.6 12.881C1.63 15.221 2.58 17.451 4.23 19.101C5.88 20.761 8.12 21.701 10.46 21.741C12.8 21.771 15.06 20.901 16.76 19.301L16.76 19.291L19.8 22.331L21.21 20.921L1.41 1.121L0 2.531Z M3.61044 12.87C3.65044 14.68 4.38044 16.4 5.66044 17.67C6.94044 18.95 8.66044 19.68 10.4604 19.72C12.2704 19.76 14.0204 19.1 15.3404 17.88L5.45044 7.99L5.45044 7.99C4.23044 9.32 3.57044 11.07 3.61044 12.87Z M16.97 6.36L10.61 0L6.85 3.76L8.26 5.17L10.61 2.83L15.56 7.78C16.4 8.62 17.01 9.67 17.34 10.81C17.67 11.96 17.69 13.17 17.42 14.33L19.02 15.93C19.64 14.31 19.77 12.54 19.41 10.84C19.04 9.15 18.2 7.59 16.97 6.36Z " /></g></g></svg>