<svg width="24" height="24" fill="none" xmlns="http://www.w3.org/2000/svg"><mask id="a" style="mask-type:alpha" maskUnits="userSpaceOnUse" x="0" y="0" width="24" height="24"><path d="M24 0H0v24h24V0Z" fill="#fff"/></mask><g mask="url(#a)"><path fill-rule="evenodd" clip-rule="evenodd" d="m1.393 2.803 4.04 4.04a9.014 9.014 0 0 0-2.44 6.31c.03 2.34.98 4.57 2.63 6.22a8.997 8.997 0 0 0 12.53.2v-.01l3.04 3.04 1.41-1.41-19.8-19.8-1.41 1.41Zm3.61 10.339c.04 1.81.77 3.53 2.05 4.8 1.28 1.28 3 2.01 4.8 2.05a6.96 6.96 0 0 0 4.88-1.84l-9.89-9.89a6.994 6.994 0 0 0-1.84 4.88Zm13.36-6.51-6.36-6.36-3.76 3.76 1.41 1.41 2.35-2.34 4.95 4.95c.84.84 1.45 1.89 1.78 3.03.33 1.15.35 2.36.08 3.52l1.6 1.6c.62-1.62.75-3.39.39-5.09a9.077 9.077 0 0 0-2.44-4.48Z" fill="currentColor"/></g></svg>