<svg width="24" height="24" fill="none" xmlns="http://www.w3.org/2000/svg"><mask id="a" style="mask-type:alpha" maskUnits="userSpaceOnUse" x="0" y="0" width="24" height="24"><path d="M24 0H0v24h24V0Z" fill="#fff"/></mask><g mask="url(#a)" fill-rule="evenodd" clip-rule="evenodd" fill="currentColor"><path d="m21.193 22.603 1.41-1.41-19.8-19.8-1.41 1.41 4.04 4.04a9.033 9.033 0 0 0-2.42 6.3c.04 2.34.98 4.56 2.63 6.21a9.012 9.012 0 0 0 6.21 2.64c2.34.04 4.6-.83 6.3-2.43l3.04 3.04ZM8.243 4.032l12.17 12.17c.62-1.62.75-3.39.39-5.09a9.077 9.077 0 0 0-2.44-4.48l-6.36-6.36-3.76 3.76Z"/></g></svg>