<svg width="24" height="24" fill="none" xmlns="http://www.w3.org/2000/svg"><mask id="a" style="mask-type:alpha" maskUnits="userSpaceOnUse" x="0" y="0" width="24" height="24"><path d="M24 0H0v24h24V0Z" fill="#fff"/></mask><g mask="url(#a)"><path fill-rule="evenodd" clip-rule="evenodd" d="M12.5 11c.66 0 1.3-.26 1.77-.73S15 9.16 15 8.5c0-.66-.26-1.3-.73-1.77S13.16 6 12.5 6H8v5h4.5Zm2.72 8.66a4.52 4.52 0 0 0 1.46-.98c.42-.42.75-.91.98-1.46.22-.54.34-1.13.34-1.72 0-.79-.21-1.56-.6-2.25-.39-.68-.96-1.25-1.64-1.64.6-.64 1.01-1.44 1.17-2.31.15-.87.05-1.76-.29-2.57a4.6 4.6 0 0 0-1.66-1.99A4.56 4.56 0 0 0 12.5 4H6v16h7.5c.59 0 1.18-.12 1.72-.34ZM8 18h5.5c.66 0 1.3-.26 1.77-.73s.73-1.11.73-1.77c0-.66-.26-1.3-.73-1.77S14.16 13 13.5 13H8v5Z" fill="currentColor"/></g></svg>