<svg xmlns="http://www.w3.org/2000/svg" xmlns:xlink="http://www.w3.org/1999/xlink" width="24" height="24" viewBox="0 0 24 24" fill="none"><defs><rect id="path_0" x="0" y="0" width="24" height="24" /></defs><g opacity="1" transform="translate(0 0)  rotate(0 12 12)"><mask id="bg-mask-0" fill="white"><use xlink:href="#path_0"></use></mask><g mask="url(#bg-mask-0)" ><path id="分组 1" fill-rule="evenodd" style="fill:#000000" transform="translate(6 4)  rotate(0 6.000000162654532 8)" opacity="1" d="M6.5 7C7.16 7 7.8 6.74 8.27 6.27C8.74 5.8 9 5.16 9 4.5C9 3.84 8.74 3.2 8.27 2.73C7.8 2.26 7.16 2 6.5 2L2 2L2 7L6.5 7Z M9.22 15.66C9.77 15.43 10.26 15.1 10.68 14.68C11.1 14.26 11.43 13.77 11.66 13.22C11.88 12.68 12 12.09 12 11.5C12 10.71 11.79 9.94 11.4 9.25C11.01 8.57 10.44 8 9.76 7.61C10.36 6.97 10.77 6.17 10.93 5.3C11.08 4.43 10.98 3.54 10.64 2.73C10.29 1.92 9.71 1.23 8.98 0.74C8.24 0.26 7.38 0 6.5 0L0 0L0 16L7.5 16C8.09 16 8.68 15.88 9.22 15.66Z M2 14L7.5 14C8.16 14 8.8 13.74 9.27 13.27C9.74 12.8 10 12.16 10 11.5C10 10.84 9.74 10.2 9.27 9.73C8.8 9.26 8.16 9 7.5 9L2 9L2 14Z " /></g></g></svg>