<svg xmlns="http://www.w3.org/2000/svg" xmlns:xlink="http://www.w3.org/1999/xlink" viewBox="0 0 24 24" fill="none"><defs><rect id="path_0" x="0" y="0" width="24" height="24" /></defs><g opacity="1" transform="translate(0 0)  rotate(0 12 12)"><mask id="bg-mask-0" fill="white"><use xlink:href="#path_0"></use></mask><g mask="url(#bg-mask-0)" ><path id="分组 1" fill-rule="evenodd" style="fill:#000000" transform="translate(3 2)  rotate(0 9 10)" opacity="1" d="M17 0L3 0C2.2 0 1.44 0.32 0.88 0.88C0.32 1.44 0 2.2 0 3L0 16.5C0 17.43 0.37 18.32 1.03 18.97C1.68 19.63 2.57 20 3.5 20L17 20C17.27 20 17.52 19.89 17.71 19.71C17.89 19.52 18 19.27 18 19L18 1C18 0.73 17.89 0.48 17.71 0.29C17.52 0.11 17.27 0 17 0Z M16 15L3.5 15C3.1 15 2.72 15.16 2.44 15.44C2.16 15.72 2 16.1 2 16.5C2 16.9 2.16 17.28 2.44 17.56C2.72 17.84 3.1 18 3.5 18L16 18L16 15Z " /></g></g></svg>