<svg xmlns="http://www.w3.org/2000/svg" xmlns:xlink="http://www.w3.org/1999/xlink" width="24" height="24" viewBox="0 0 24 24" fill="none"><defs><rect id="path_0" x="0" y="0" width="24" height="24" /></defs><g opacity="1" transform="translate(0 0)  rotate(0 12 12)"><mask id="bg-mask-0" fill="white"><use xlink:href="#path_0"></use></mask><g mask="url(#bg-mask-0)" ><path id="分组 1" fill-rule="evenodd" style="fill:#000000" transform="translate(2 2.999997219689398)  rotate(0 10 10.000001390155301)" opacity="1" d="M9 20L11 20L11 18L19 18C19.27 18 19.52 17.89 19.71 17.71C19.89 17.52 20 17.27 20 17L20 1C20 0.73 19.89 0.48 19.71 0.29C19.52 0.11 19.27 0 19 0L13 0C12.43 0 11.87 0.12 11.35 0.35C10.84 0.59 10.38 0.93 10 1.35C9.63 0.93 9.16 0.59 8.65 0.35C8.13 0.12 7.57 0 7 0L1 0C0.73 0 0.48 0.11 0.29 0.29C0.11 0.48 0 0.73 0 1L0 17C0 17.27 0.11 17.52 0.29 17.71C0.48 17.89 0.73 18 1 18L9 18L9 20Z M18 2L13 2C12.47 2 11.96 2.21 11.59 2.59C11.21 2.96 11 3.47 11 4L11 16L18 16L18 2Z M9 4C9 3.47 8.79 2.96 8.41 2.59C8.04 2.21 7.53 2 7 2L2 2L2 16L9 16L9 4Z " /></g></g></svg>