<svg xmlns="http://www.w3.org/2000/svg" xmlns:xlink="http://www.w3.org/1999/xlink" viewBox="0 0 24 24" fill="none"><defs><rect id="path_0" x="0" y="0" width="24" height="24" /></defs><g opacity="1" transform="translate(0 0)  rotate(0 12 12)"><mask id="bg-mask-0" fill="white"><use xlink:href="#path_0"></use></mask><g mask="url(#bg-mask-0)" ><g opacity="1" transform="translate(2 3)  rotate(0 10 10)"><path id="路径 1" fill-rule="evenodd" style="fill:#000000" transform="translate(11 0)  rotate(0 4.5 9)" opacity="1" d="M8,0L3,0C2.2,0 1.44,0.32 0.88,0.88C0.32,1.44 0,2.2 0,3L0,18L8,18C8.27,18 8.52,17.89 8.71,17.71C8.89,17.52 9,17.27 9,17L9,1C9,0.73 8.89,0.48 8.71,0.29C8.52,0.11 8.27,0 8,0Z " /><path id="路径 2" fill-rule="evenodd" style="fill:#000000" transform="translate(0 0)  rotate(0 4.5 9)" opacity="1" d="M0,1L0,17C0,17.27 0.11,17.52 0.29,17.71C0.48,17.89 0.73,18 1,18L9,18L9,3C9,2.2 8.68,1.44 8.12,0.88C7.56,0.32 6.8,0 6,0L1,0C0.73,0 0.48,0.11 0.29,0.29C0.11,0.48 0,0.73 0,1Z " /><path id="路径 3" fill-rule="evenodd" style="fill:#000000" transform="translate(9 18)  rotate(0 1 1)" opacity="1" d="M0,2L2,2L2,0L0,0L0,2Z " /></g></g></g></svg>