<svg width="24" height="24" fill="none" xmlns="http://www.w3.org/2000/svg"><mask id="a" style="mask-type:alpha" maskUnits="userSpaceOnUse" x="0" y="0" width="24" height="24"><path d="M24 0H0v24h24V0Z" fill="#fff"/></mask><g mask="url(#a)" fill-rule="evenodd" clip-rule="evenodd" fill="currentColor"><path d="M21 3h-5c-.8 0-1.56.32-2.12.88S13 5.2 13 6v15h8c.27 0 .52-.11.71-.29.18-.19.29-.44.29-.71V4c0-.27-.11-.52-.29-.71-.19-.18-.44-.29-.71-.29ZM2 4v16c0 .27.11.52.29.71.19.18.44.29.71.29h8V6c0-.8-.32-1.56-.88-2.12S8.8 3 8 3H3c-.27 0-.52.11-.71.29-.18.19-.29.44-.29.71ZM11 23h2v-2h-2v2Z"/></g></svg>