<svg width="24" height="24" fill="none" xmlns="http://www.w3.org/2000/svg"><mask id="a" style="mask-type:alpha" maskUnits="userSpaceOnUse" x="0" y="0" width="24" height="24"><path d="M24 0H0v24h24V0Z" fill="#fff"/></mask><g mask="url(#a)"><path fill-rule="evenodd" clip-rule="evenodd" d="M4.51 22.64c.09 0 .18-.03.26-.07L12 18.03l7.23 4.54c.08.04.17.07.26.07.09.01.17-.02.25-.06a.484.484 0 0 0 .26-.44V3c0-.27-.11-.52-.29-.71-.19-.18-.44-.29-.71-.29H5c-.27 0-.52.11-.71.29-.18.19-.29.44-.29.71v19.14a.484.484 0 0 0 .26.44c.08.04.16.06.25.06ZM6 4v15.43l6-3.76 6 3.76V4H6Z" fill="currentColor"/></g></svg>