<svg xmlns="http://www.w3.org/2000/svg" xmlns:xlink="http://www.w3.org/1999/xlink" viewBox="0 0 24 24" fill="none"><defs><rect id="path_0" x="0" y="0" width="24" height="24" /></defs><g opacity="1" transform="translate(0 0)  rotate(0 12 12)"><mask id="bg-mask-0" fill="white"><use xlink:href="#path_0"></use></mask><g mask="url(#bg-mask-0)" ><path id="路径 1" fill-rule="evenodd" style="fill:#000000" transform="translate(4 2)  rotate(0 8.000000156914297 10.321797812222757)" opacity="1" d="M1,0C0.73,0 0.48,0.11 0.29,0.29C0.11,0.48 0,0.73 0,1L0,20.14C0,20.23 0.02,20.32 0.07,20.4C0.11,20.47 0.18,20.54 0.26,20.58C0.34,20.62 0.42,20.64 0.51,20.64C0.6,20.64 0.69,20.61 0.77,20.57L8,16.03L15.23,20.57C15.31,20.61 15.4,20.64 15.49,20.64C15.58,20.65 15.66,20.62 15.74,20.58C15.82,20.54 15.89,20.47 15.93,20.4C15.98,20.32 16,20.23 16,20.14L16,1C16,0.73 15.89,0.48 15.71,0.29C15.52,0.11 15.27,0 15,0L1,0Z " /></g></g></svg>