<svg width="24" height="24" fill="none" xmlns="http://www.w3.org/2000/svg"><mask id="a" style="mask-type:alpha" maskUnits="userSpaceOnUse" x="0" y="0" width="24" height="24"><path d="M24 0H0v24h24V0Z" fill="#fff"/></mask><g mask="url(#a)"><path fill-rule="evenodd" clip-rule="evenodd" d="M11 23h2v-2h8c.27 0 .52-.11.71-.29.18-.19.29-.44.29-.71V4c0-.27-.11-.52-.29-.71-.19-.18-.44-.29-.71-.29h-6c-.57 0-1.13.12-1.65.35-.51.24-.97.58-1.35 1a4.17 4.17 0 0 0-1.35-1C10.13 3.12 9.57 3 9 3H3c-.27 0-.52.11-.71.29-.18.19-.29.44-.29.71v16c0 .27.11.52.29.71.19.18.44.29.71.29h8v2Zm9-18h-5c-.53 0-1.04.21-1.41.59-.38.37-.59.88-.59 1.41v12h7V5Zm-9 2c0-.53-.21-1.04-.59-1.41C10.04 5.21 9.53 5 9 5H4v14h7V7Z" fill="currentColor"/></g></svg>