<svg xmlns="http://www.w3.org/2000/svg" xmlns:xlink="http://www.w3.org/1999/xlink" width="24" height="24" viewBox="0 0 24 24" fill="none"><defs><rect id="path_0" x="0" y="0" width="24" height="24" /></defs><g opacity="1" transform="translate(0 0)  rotate(0 12 12)"><mask id="bg-mask-0" fill="white"><use xlink:href="#path_0"></use></mask><g mask="url(#bg-mask-0)" ><path id="分组 1" fill-rule="evenodd" style="fill:#000000" transform="translate(2 1)  rotate(0 10 10)" opacity="1" d="M6 0C5.73 0 5.48 0.11 5.29 0.29C5.11 0.48 5 0.73 5 1L5 4L1 4C0.73 4 0.48 4.11 0.29 4.29C0.11 4.48 0 4.73 0 5L0 19C0 19.27 0.11 19.52 0.29 19.71C0.48 19.89 0.73 20 1 20L19 20C19.27 20 19.52 19.89 19.71 19.71C19.89 19.52 20 19.27 20 19L20 5C20 4.73 19.89 4.48 19.71 4.29C19.52 4.11 19.27 4 19 4L15 4L15 1C15 0.73 14.89 0.48 14.71 0.29C14.52 0.11 14.27 0 14 0L6 0Z M2 18L18 18L18 14L2 14L2 18Z M9 12L11 12L11 10L9 10L9 12Z M7 4L13 4L13 2L7 2L7 4Z " /></g></g></svg>