<svg width="24" height="24" fill="none" xmlns="http://www.w3.org/2000/svg"><mask id="a" style="mask-type:alpha" maskUnits="userSpaceOnUse" x="0" y="0" width="24" height="24"><path d="M24 0H0v24h24V0Z" fill="#fff"/></mask><g mask="url(#a)"><path fill-rule="evenodd" clip-rule="evenodd" d="M13 19c0 1.66 1.34 3 3 3s3-1.34 3-3-1.34-3-3-3-3 1.34-3 3ZM2 16c0 2.21 1.79 4 4 4s4-1.79 4-4-1.79-4-4-4-4 1.79-4 4Zm13 3c0 .55.45 1 1 1s1-.45 1-1-.45-1-1-1-1 .45-1 1ZM4 16c0 1.11.89 2 2 2 1.11 0 2-.89 2-2 0-1.11-.89-2-2-2-1.11 0-2 .89-2 2Zm5-8.5c0 3.04 2.46 5.5 5.5 5.5S20 10.54 20 7.5 17.54 2 14.5 2 9 4.46 9 7.5Zm2 0c0 1.93 1.57 3.5 3.5 3.5S18 9.43 18 7.5 16.43 4 14.5 4 11 5.57 11 7.5Z" fill="currentColor"/></g></svg>