<svg xmlns="http://www.w3.org/2000/svg" xmlns:xlink="http://www.w3.org/1999/xlink" viewBox="0 0 24 24" fill="none"><defs><rect id="path_0" x="0" y="0" width="24" height="24" /></defs><g opacity="1" transform="translate(0 0)  rotate(0 12 12)"><mask id="bg-mask-0" fill="white"><use xlink:href="#path_0"></use></mask><g mask="url(#bg-mask-0)" ><path id="分组 1" fill-rule="evenodd" style="fill:#000000" transform="translate(2 2)  rotate(0 9 10)" opacity="1" d="M11 17C11 18.66 12.34 20 14 20C15.66 20 17 18.66 17 17C17 15.34 15.66 14 14 14C12.34 14 11 15.34 11 17Z M0 14C0 16.21 1.79 18 4 18C6.21 18 8 16.21 8 14C8 11.79 6.21 10 4 10C1.79 10 0 11.79 0 14Z M13 17C13 17.55 13.45 18 14 18C14.55 18 15 17.55 15 17C15 16.45 14.55 16 14 16C13.45 16 13 16.45 13 17Z M2 14C2 15.11 2.89 16 4 16C5.11 16 6 15.11 6 14C6 12.89 5.11 12 4 12C2.89 12 2 12.89 2 14Z M7 5.5C7 8.54 9.46 11 12.5 11C15.54 11 18 8.54 18 5.5C18 2.46 15.54 0 12.5 0C9.46 0 7 2.46 7 5.5Z M9 5.5C9 7.43 10.57 9 12.5 9C14.43 9 16 7.43 16 5.5C16 3.57 14.43 2 12.5 2C10.57 2 9 3.57 9 5.5Z " /></g></g></svg>