<svg xmlns="http://www.w3.org/2000/svg" xmlns:xlink="http://www.w3.org/1999/xlink" width="24" height="24" viewBox="0 0 24 24" fill="none"><g opacity="1" transform="translate(0 0)  rotate(0 12 12)"><path id="分组 1" fill-rule="evenodd" style="fill:#000000" transform="translate(1 3)  rotate(0 11 9)" opacity="1" d="M0 18L22 18L22 16L20 16L20 7C20 6.45 19.55 6 19 6L16 6L16 8L18 8L18 16L14 16L14 1C14 0.45 13.55 0 13 0L3 0C2.45 0 2 0.45 2 1L2 16L0 16L0 18Z M4 16L12 16L12 2L4 2L4 16Z M6 10L10 10L10 8L6 8L6 10Z M6 6L10 6L10 4L6 4L6 6Z " /></g></svg>