<svg xmlns="http://www.w3.org/2000/svg" xmlns:xlink="http://www.w3.org/1999/xlink" viewBox="0 0 24 24" fill="none"><defs><rect id="path_0" x="0" y="0" width="24" height="24" /></defs><g opacity="1" transform="translate(0 0)  rotate(0 12 12)"><mask id="bg-mask-0" fill="white"><use xlink:href="#path_0"></use></mask><g mask="url(#bg-mask-0)" ><path id="分组 1" fill-rule="evenodd" style="fill:#000000" transform="translate(2 1)  rotate(0 10 10)" opacity="1" d="M5 0L5 2L1 2C0.73 2 0.48 2.11 0.29 2.29C0.11 2.48 0 2.73 0 3L0 19C0 19.27 0.11 19.52 0.29 19.71C0.48 19.89 0.73 20 1 20L19 20C19.27 20 19.52 19.89 19.71 19.71C19.89 19.52 20 19.27 20 19L20 3C20 2.73 19.89 2.48 19.71 2.29C19.52 2.11 19.27 2 19 2L15 2L15 0L13 0L13 2L7 2L7 0L5 0Z M2 7L2 18L18 18L18 7L2 7Z M13.034 9.136L13.034 9.136L13.034 9.136L13.034 9.136Z M9.504 12.676L7.384 10.546L5.964 11.966L9.504 15.496L14.454 10.546L13.034 9.136L9.504 12.676Z " /></g></g></svg>