<svg xmlns="http://www.w3.org/2000/svg" xmlns:xlink="http://www.w3.org/1999/xlink" viewBox="0 0 24 24" fill="none"><defs><rect id="path_0" x="0" y="0" width="24" height="24" /></defs><g opacity="1" transform="translate(0 0)  rotate(0 12 12)"><mask id="bg-mask-0" fill="white"><use xlink:href="#path_0"></use></mask><g mask="url(#bg-mask-0)" ><g opacity="1" transform="translate(2 1)  rotate(0 10 10)"><path id="路径 1" fill-rule="evenodd" style="fill:#000000" transform="translate(0 10)  rotate(0 10 5)" opacity="1" d="M0,9C0,9.27 0.11,9.52 0.29,9.71C0.48,9.89 0.73,10 1,10L19,10C19.27,10 19.52,9.89 19.71,9.71C19.89,9.52 20,9.27 20,9L20,0L0,0L0,9Z " /><path id="路径 2" fill-rule="evenodd" style="fill:#000000" transform="translate(0 0)  rotate(0 10 4)" opacity="1" d="M0,8L20,8L20,3C20,2.73 19.89,2.48 19.71,2.29C19.52,2.11 19.27,2 19,2L15,2L15,0L13,0L13,2L7,2L7,0L5,0L5,2L1,2C0.73,2 0.48,2.11 0.29,2.29C0.11,2.48 0,2.73 0,3L0,8Z " /></g></g></g></svg>