<svg width="24" height="24" fill="none" xmlns="http://www.w3.org/2000/svg"><mask id="a" style="mask-type:alpha" maskUnits="userSpaceOnUse" x="0" y="0" width="24" height="24"><path d="M24 0H0v24h24V0Z" fill="#fff"/></mask><g mask="url(#a)"><path fill-rule="evenodd" clip-rule="evenodd" d="M7 1v2H3c-.27 0-.52.11-.71.29-.18.19-.29.44-.29.71v16c0 .27.11.52.29.71.19.18.44.29.71.29h18c.27 0 .52-.11.71-.29.18-.19.29-.44.29-.71V4c0-.27-.11-.52-.29-.71-.19-.18-.44-.29-.71-.29h-4V1h-2v2H9V1H7ZM4 8v11h16V8H4Zm7.504 5.676-2.12-2.13-1.42 1.42 3.54 3.53 4.95-4.95-1.42-1.41-3.53 3.54Z" fill="currentColor"/></g></svg>