<svg xmlns="http://www.w3.org/2000/svg" xmlns:xlink="http://www.w3.org/1999/xlink" width="24" height="24" viewBox="0 0 24 24" fill="none"><defs><rect id="path_0" x="0" y="0" width="24" height="24" /></defs><g opacity="1" transform="translate(0 0)  rotate(0 12 12)"><mask id="bg-mask-0" fill="white"><use xlink:href="#path_0"></use></mask><g mask="url(#bg-mask-0)" ><path id="分组 1" fill-rule="evenodd" style="fill:#000000" transform="translate(2 1)  rotate(0 10 10)" opacity="1" d="M0.29 19.71C0.48 19.89 0.73 20 1 20L19 20C19.27 20 19.52 19.89 19.71 19.71C19.89 19.52 20 19.27 20 19L20 3C20 2.73 19.89 2.48 19.71 2.29C19.52 2.11 19.27 2 19 2L15 2L15 0L13 0L13 2L7 2L7 0L5 0L5 2L1 2C0.73 2 0.48 2.11 0.29 2.29C0.11 2.48 0 2.73 0 3L0 19C0 19.27 0.11 19.52 0.29 19.71Z M7 4L7 6L5 6L5 4L2 4L2 8L18 8L18 4L15 4L15 6L13 6L13 4L7 4Z M2 10L2 18L18 18L18 10L2 10Z " /></g></g></svg>