<svg width="24" height="24" fill="none" xmlns="http://www.w3.org/2000/svg"><mask id="a" style="mask-type:alpha" maskUnits="userSpaceOnUse" x="0" y="0" width="24" height="24"><path d="M24 0H0v24h24V0Z" fill="#fff"/></mask><g mask="url(#a)"><path fill-rule="evenodd" clip-rule="evenodd" d="M7.83 7H4v12h16V7h-3.83l-2-2H9.83l-2 2ZM21 21c.27 0 .52-.11.71-.29.18-.19.29-.44.29-.71V6c0-.27-.11-.52-.29-.71-.19-.18-.44-.29-.71-.29h-4l-2-2H9L7 5H3c-.27 0-.52.11-.71.29-.18.19-.29.44-.29.71v14c0 .27.11.52.29.71.19.18.44.29.71.29h18Zm-5.11-4.61a5.503 5.503 0 0 0-7.78-7.78 5.503 5.503 0 0 0 7.78 7.78Zm-1.42-1.42c.66-.65 1.03-1.54 1.03-2.47 0-.93-.37-1.82-1.03-2.47A3.464 3.464 0 0 0 12 9c-.93 0-1.82.37-2.47 1.03-.66.65-1.03 1.54-1.03 2.47 0 .93.37 1.82 1.03 2.47.65.66 1.54 1.03 2.47 1.03.93 0 1.82-.37 2.47-1.03Z" fill="currentColor"/></g></svg>