<svg width="24" height="24" fill="none" xmlns="http://www.w3.org/2000/svg"><mask id="a" style="mask-type:alpha" maskUnits="userSpaceOnUse" x="0" y="0" width="24" height="24"><path d="M24 0H0v24h24V0Z" fill="#fff"/></mask><g mask="url(#a)"><path fill-rule="evenodd" clip-rule="evenodd" d="m1.393 2.803 2.19 2.2h-.58a.99.99 0 0 0-1 1v14c0 .26.1.52.29.7a1 1 0 0 0 .71.3h16.58l1.61 1.6 1.41-1.41-19.8-19.8-1.41 1.41ZM11.67 18a5.552 5.552 0 0 1-3.57-1.6 5.552 5.552 0 0 1-1.6-3.57c-.08-1.35.34-2.68 1.18-3.74L5.59 7H4v12h13.59l-2.18-2.18A5.496 5.496 0 0 1 11.67 18Zm-3.151-5.175c.07.81.43 1.57 1.01 2.15.57.58 1.33.94 2.15 1.01.81.08 1.62-.13 2.3-.59l-4.87-4.87c-.46.67-.67 1.49-.59 2.3ZM8.997 3l-.89.89 1.41 1.42.31-.31h4.34l2 2h3.83v8.78l2 2v.01V6c0-.27-.1-.52-.29-.71-.19-.18-.44-.29-.71-.29h-4l-2-2h-6Zm4.606 6.39c.65.33 1.18.86 1.51 1.51l2.34 2.34c.11-.84.03-1.7-.24-2.5s-.72-1.53-1.32-2.13c-.6-.6-1.33-1.05-2.13-1.32-.81-.27-1.66-.35-2.5-.24l2.34 2.34Z" fill="currentColor"/></g></svg>