<svg xmlns="http://www.w3.org/2000/svg" xmlns:xlink="http://www.w3.org/1999/xlink" viewBox="0 0 24 24" fill="none"><defs><rect id="path_0" x="0" y="0" width="24" height="24" /></defs><g opacity="1" transform="translate(0 0)  rotate(0 12 12)"><mask id="bg-mask-0" fill="white"><use xlink:href="#path_0"></use></mask><g mask="url(#bg-mask-0)" ><g opacity="1" transform="translate(1.998537267427127 1.9999990426201506)  rotate(0 10.001451782351923 10.000006645429247)"><path id="路径 1" fill-rule="evenodd" style="fill:#000000" transform="translate(7.828452732572872 12.00000095737985)  rotate(0 4.007504999999999 4.000006166739324)" opacity="1" d="M2.17,8C4.27,8 6.31,7.34 8.02,6.12L4.48,0L0,7.76C0.7,7.92 1.43,8 2.17,8Z " /><path id="路径 2" fill-rule="evenodd" style="fill:#000000" transform="translate(0.45945273257287234 13.00000095737985)  rotate(0 4.482505 3.0600000000000005)" opacity="1" d="M5.43,6.12L8.97,0L0,0C0.42,1.34 1.13,2.58 2.06,3.64C3,4.69 4.15,5.54 5.43,6.12L5.43,6.12Z " /><path id="路径 3" fill-rule="evenodd" style="fill:#000000" transform="translate(0 3.2390109573798496)  rotate(0 3.556726366286436 3.880495)" opacity="1" d="M7.11,7.76L2.63,0C1.68,1.04 0.96,2.27 0.51,3.6C0.06,4.94 -0.09,6.36 0.05,7.76L7.11,7.76Z " /><path id="路径 4" fill-rule="evenodd" style="fill:#000000" transform="translate(4.160452732572873 0)  rotate(0 4.0070049999999995 4.000000478689925)" opacity="1" d="M3.53,8L8.01,0.24C7.31,0.08 6.59,0 5.84,0C3.74,0 1.7,0.66 0,1.88L3.53,8Z " /><path id="路径 5" fill-rule="evenodd" style="fill:#000000" transform="translate(10.578462732572874 0.8800109573798491)  rotate(0 4.482500000000001 3.0599999999999996)" opacity="1" d="M3.53,0L0,6.12L8.97,6.12C8.54,4.78 7.84,3.54 6.9,2.48C5.97,1.43 4.82,0.58 3.53,0L3.53,0Z " /><path id="路径 6" fill-rule="evenodd" style="fill:#000000" transform="translate(12.889462732572873 9.00000095737985)  rotate(0 3.5567204160654855 3.8804999999999996)" opacity="1" d="M7.06,0L0,0L4.48,7.76C5.43,6.72 6.16,5.5 6.6,4.16C7.05,2.82 7.21,1.4 7.06,0L7.06,0Z " /></g></g></g></svg>