<svg width="24" height="24" fill="none" xmlns="http://www.w3.org/2000/svg"><mask id="a" style="mask-type:alpha" maskUnits="userSpaceOnUse" x="0" y="0" width="24" height="24"><path d="M24 0H0v24h24V0Z" fill="#fff"/></mask><g mask="url(#a)"><path fill-rule="evenodd" clip-rule="evenodd" d="M12 16H5.07a7.993 7.993 0 0 0 4.79 3.71L12 16Zm-3.46-2.001-3.47-6a8.043 8.043 0 0 0-.82 6h4.29ZM8.535 10l3.47-6c-2.1 0-4.12.82-5.61 2.29L8.535 10ZM12 8h6.93a7.993 7.993 0 0 0-4.79-3.71L12 8Zm3.464 2 3.46 6a7.923 7.923 0 0 0 .82-6h-4.28Zm.006 4L12 20c2.1 0 4.11-.82 5.61-2.29L15.47 14ZM22 12c0-5.52-4.48-10-10-10S2 6.48 2 12s4.48 10 10 10 10-4.48 10-10Zm-11.159-2-1.15 2 1.15 2h2.31l1.16-2-1.16-2h-2.31Z" fill="currentColor"/></g></svg>