<svg width="24" height="24" fill="none" xmlns="http://www.w3.org/2000/svg"><mask id="a" style="mask-type:alpha" maskUnits="userSpaceOnUse" x="0" y="0" width="24" height="24"><path d="M24 0H0v24h24V0Z" fill="#fff"/></mask><g mask="url(#a)"><path fill-rule="evenodd" clip-rule="evenodd" d="M2.293 5.293a.99.99 0 0 0-.29.71v14c0 .26.1.52.29.7a1 1 0 0 0 .71.3h16.58l1.61 1.6 1.41-1.41-19.8-19.8-1.41 1.41 2.19 2.2h-.58c-.27 0-.52.1-.71.29Zm6.88 10.537a3.93 3.93 0 0 1-1.17-2.68c-.04-1.01.31-2 .97-2.76l-1.42-1.42a6.014 6.014 0 0 0-1.55 4.18 6 6 0 0 0 1.76 4.09 6 6 0 0 0 4.09 1.76c1.54.03 3.04-.52 4.18-1.56l-1.42-1.41c-.76.66-1.75 1.01-2.76.97a3.974 3.974 0 0 1-2.68-1.17Zm12.823 1.95v.01V6c0-.27-.1-.52-.29-.71-.19-.18-.44-.29-.71-.29h-4l-2-2h-6l-.89.89 3.15 3.15c.91-.11 1.83-.01 2.69.28a6.015 6.015 0 0 1 3.73 3.73c.3.86.39 1.78.28 2.69l4.04 4.04Zm-6.288-6.287c-.2-.5-.5-.95-.88-1.32a4.02 4.02 0 0 0-1.32-.88l2.2 2.2Z" fill="currentColor"/></g></svg>