<svg width="24" height="24" fill="none" xmlns="http://www.w3.org/2000/svg"><mask id="a" style="mask-type:alpha" maskUnits="userSpaceOnUse" x="0" y="0" width="24" height="24"><path d="M24 0H0v24h24V0Z" fill="#fff"/></mask><g mask="url(#a)"><path fill-rule="evenodd" clip-rule="evenodd" d="M21.71 20.71c.18-.19.29-.44.29-.71V6c0-.27-.11-.52-.29-.71-.19-.18-.44-.29-.71-.29h-4l-2-2H9L7 5H3c-.27 0-.52.11-.71.29-.18.19-.29.44-.29.71v14c0 .27.11.52.29.71.19.18.44.29.71.29h18c.27 0 .52-.11.71-.29Zm-5.47-3.47A5.97 5.97 0 0 0 18 13c0-1.59-.63-3.12-1.76-4.24A5.97 5.97 0 0 0 12 7c-1.59 0-3.12.63-4.24 1.76A5.97 5.97 0 0 0 6 13c0 1.59.63 3.12 1.76 4.24A5.97 5.97 0 0 0 12 19c1.59 0 3.12-.63 4.24-1.76Zm-1.41-1.41a4.004 4.004 0 0 0 0-5.66 4.004 4.004 0 0 0-5.66 0 4.004 4.004 0 0 0 0 5.66 4.004 4.004 0 0 0 5.66 0Z" fill="currentColor"/></g></svg>