<svg xmlns="http://www.w3.org/2000/svg" xmlns:xlink="http://www.w3.org/1999/xlink" width="24" height="24" viewBox="0 0 24 24" fill="none"><defs><rect id="path_0" x="0" y="0" width="24" height="24" /></defs><g opacity="1" transform="translate(0 0)  rotate(0 12 12)"><mask id="bg-mask-0" fill="white"><use xlink:href="#path_0"></use></mask><g mask="url(#bg-mask-0)" ><path id="分组 1" fill-rule="evenodd" style="fill:#000000" transform="translate(1.3930100000000003 1.3929399999999994)  rotate(0 10.606995 10.60698)" opacity="1" d="M0 1.41L2.19 3.61L1.61 3.61C1.34 3.61 1.09 3.71 0.9 3.9C0.71 4.09 0.61 4.34 0.61 4.61L0.61 18.61C0.61 18.87 0.71 19.13 0.9 19.31C1.09 19.5 1.34 19.61 1.61 19.61L18.19 19.61L19.8 21.21L21.21 19.8L1.41 0L0 1.41Z M10.277 16.607C8.937 16.527 7.667 15.957 6.707 15.007C5.757 14.047 5.187 12.777 5.107 11.437C5.027 10.087 5.447 8.757 6.287 7.697L4.197 5.607L2.607 5.607L2.607 17.607L16.197 17.607L14.017 15.427C12.957 16.267 11.627 16.687 10.277 16.607Z M7.1255 11.432C7.1955 12.242 7.5555 13.002 8.1355 13.582C8.7055 14.162 9.4655 14.522 10.2855 14.592C11.0955 14.672 11.9055 14.462 12.5855 14.002L7.7155 9.13196C7.2555 9.80196 7.0455 10.622 7.1255 11.432Z M7.604 1.607L6.714 2.497L8.124 3.917L8.434 3.607L12.774 3.607L14.774 5.607L18.604 5.607L18.604 14.387L20.604 16.387L20.604 16.397L20.604 4.607C20.604 4.337 20.504 4.087 20.314 3.897C20.124 3.717 19.874 3.607 19.604 3.607L15.604 3.607L13.604 1.607L7.604 1.607Z M12.21 7.99731C12.86 8.32731 13.39 8.85731 13.72 9.50731L16.06 11.8473C16.17 11.0073 16.09 10.1473 15.82 9.34731C15.55 8.54731 15.1 7.81731 14.5 7.21731C13.9 6.61731 13.17 6.16731 12.37 5.89731C11.56 5.62731 10.71 5.54731 9.86999 5.65731L12.21 7.99731Z " /></g></g></svg>