<svg xmlns="http://www.w3.org/2000/svg" xmlns:xlink="http://www.w3.org/1999/xlink" width="24" height="24" viewBox="0 0 24 24" fill="none"><defs><rect id="path_0" x="0" y="0" width="24" height="24" /></defs><g opacity="1" transform="translate(0 0)  rotate(0 12 12)"><mask id="bg-mask-0" fill="white"><use xlink:href="#path_0"></use></mask><g mask="url(#bg-mask-0)" ><path id="分组 1" fill-rule="evenodd" style="fill:#000000" transform="translate(2 3)  rotate(0 10 9)" opacity="1" d="M5.83 4L2 4L2 16L18 16L18 4L14.17 4L12.17 2L7.83 2L5.83 4Z M19 18C19.27 18 19.52 17.89 19.71 17.71C19.89 17.52 20 17.27 20 17L20 3C20 2.73 19.89 2.48 19.71 2.29C19.52 2.11 19.27 2 19 2L15 2L13 0L7 0L5 2L1 2C0.73 2 0.48 2.11 0.29 2.29C0.11 2.48 0 2.73 0 3L0 17C0 17.27 0.11 17.52 0.29 17.71C0.48 17.89 0.73 18 1 18L19 18Z M13.89 13.39C14.92 12.36 15.5 10.96 15.5 9.5C15.5 8.04 14.92 6.64 13.89 5.61C12.86 4.58 11.46 4 10 4C8.54 4 7.14 4.58 6.11 5.61C5.08 6.64 4.5 8.04 4.5 9.5C4.5 10.96 5.08 12.36 6.11 13.39C7.14 14.42 8.54 15 10 15C11.46 15 12.86 14.42 13.89 13.39Z M12.47 11.97C13.13 11.32 13.5 10.43 13.5 9.5C13.5 8.57 13.13 7.68 12.47 7.03C11.82 6.37 10.93 6 10 6C9.07 6 8.18 6.37 7.53 7.03C6.87 7.68 6.5 8.57 6.5 9.5C6.5 10.43 6.87 11.32 7.53 11.97C8.18 12.63 9.07 13 10 13C10.93 13 11.82 12.63 12.47 11.97Z " /></g></g></svg>