<svg xmlns="http://www.w3.org/2000/svg" xmlns:xlink="http://www.w3.org/1999/xlink" viewBox="0 0 24 24" fill="none"><defs><rect id="path_0" x="0" y="0" width="24" height="24" /></defs><g opacity="1" transform="translate(0 0)  rotate(0 12 12)"><mask id="bg-mask-0" fill="white"><use xlink:href="#path_0"></use></mask><g mask="url(#bg-mask-0)" ><path id="分组 1" fill-rule="evenodd" style="fill:#000000" transform="translate(2 2)  rotate(0 10 10)" opacity="1" d="M10 14L3.07 14C4.12 15.82 5.84 17.15 7.86 17.71L10 14Z M6.53999 11.999L3.06999 5.999C2.36999 7.219 1.99999 8.599 1.99999 9.999C1.99999 10.689 2.08999 11.359 2.24999 11.999L6.53999 11.999Z M6.535 7.99999L10.005 1.99999C7.905 1.99999 5.885 2.81999 4.395 4.28999L6.535 7.99999Z M10 6L16.93 6C15.88 4.18 14.16 2.85 12.14 2.29L10 6Z M13.464 8L16.924 14C17.634 12.79 18.004 11.4 18.004 10C18.004 9.31 17.914 8.64 17.744 8L13.464 8Z M13.47 12L10 18C12.1 18 14.11 17.18 15.61 15.71L13.47 12Z M20 10C20 4.48 15.52 0 10 0C4.48 0 0 4.48 0 10C0 15.52 4.48 20 10 20C15.52 20 20 15.52 20 10Z M8.841 8L7.691 10L8.841 12L11.151 12L12.311 10L11.151 8L8.841 8Z " /></g></g></svg>