<svg xmlns="http://www.w3.org/2000/svg" xmlns:xlink="http://www.w3.org/1999/xlink" viewBox="0 0 24 24" fill="none"><defs><rect id="path_0" x="0" y="0" width="24" height="24" /></defs><g opacity="1" transform="translate(0 0)  rotate(0 12 12)"><mask id="bg-mask-0" fill="white"><use xlink:href="#path_0"></use></mask><g mask="url(#bg-mask-0)" ><path id="分组 1" fill-rule="evenodd" style="fill:#000000" transform="translate(1.3929399999999994 1.3929399999999994)  rotate(0 10.60698 10.60698)" opacity="1" d="M0.9 3.9C0.71 4.09 0.61 4.34 0.61 4.61L0.61 18.61C0.61 18.87 0.71 19.13 0.9 19.31C1.09 19.5 1.34 19.61 1.61 19.61L18.19 19.61L19.8 21.21L21.21 19.8L1.41 0L0 1.41L2.19 3.61L1.61 3.61C1.34 3.61 1.09 3.71 0.9 3.9Z M7.77929 14.437C7.05929 13.727 6.63929 12.767 6.60929 11.757C6.56929 10.747 6.91929 9.757 7.57929 8.997L6.15929 7.577C5.12929 8.717 4.56929 10.217 4.60929 11.757C4.64929 13.297 5.27929 14.757 6.36929 15.847C7.45929 16.937 8.91929 17.567 10.4593 17.607C11.9993 17.637 13.4993 17.087 14.6393 16.047L13.2193 14.637C12.4593 15.297 11.4693 15.647 10.4593 15.607C9.44929 15.567 8.48929 15.157 7.77929 14.437Z M6.15929 7.577C6.15929 7.577 6.15929 7.577 6.15929 7.577L6.15929 7.577L6.15929 7.577Z M20.603 16.387L20.603 16.397L20.603 4.607C20.603 4.337 20.503 4.087 20.313 3.897C20.123 3.717 19.873 3.607 19.603 3.607L15.603 3.607L13.603 1.607L7.603 1.607L6.713 2.497L9.863 5.647C10.773 5.537 11.693 5.637 12.553 5.927C13.423 6.227 14.203 6.717 14.853 7.367C15.493 8.007 15.983 8.797 16.283 9.657C16.583 10.517 16.673 11.437 16.563 12.347L20.603 16.387Z M14.315 10.1C14.115 9.6 13.815 9.15 13.435 8.78C13.055 8.4 12.605 8.1 12.115 7.9L14.315 10.1Z " /></g></g></svg>