<svg xmlns="http://www.w3.org/2000/svg" xmlns:xlink="http://www.w3.org/1999/xlink" width="24" height="24" viewBox="0 0 24 24" fill="none"><defs><rect id="path_0" x="0" y="0" width="24" height="24" /></defs><g opacity="1" transform="translate(0 0)  rotate(0 12 12)"><mask id="bg-mask-0" fill="white"><use xlink:href="#path_0"></use></mask><g mask="url(#bg-mask-0)" ><path id="分组 1" fill-rule="evenodd" style="fill:#000000" transform="translate(2 3)  rotate(0 10 9)" opacity="1" d="M19.71 17.71C19.89 17.52 20 17.27 20 17L20 3C20 2.73 19.89 2.48 19.71 2.29C19.52 2.11 19.27 2 19 2L15 2L13 0L7 0L5 2L1 2C0.73 2 0.48 2.11 0.29 2.29C0.11 2.48 0 2.73 0 3L0 17C0 17.27 0.11 17.52 0.29 17.71C0.48 17.89 0.73 18 1 18L19 18C19.27 18 19.52 17.89 19.71 17.71Z M14.24 14.24C15.37 13.12 16 11.59 16 10C16 8.41 15.37 6.88 14.24 5.76C13.12 4.63 11.59 4 10 4C8.41 4 6.88 4.63 5.76 5.76C4.63 6.88 4 8.41 4 10C4 11.59 4.63 13.12 5.76 14.24C6.88 15.37 8.41 16 10 16C11.59 16 13.12 15.37 14.24 14.24Z M12.83 12.83C13.58 12.08 14 11.06 14 10C14 8.94 13.58 7.92 12.83 7.17C12.08 6.42 11.06 6 10 6C8.94 6 7.92 6.42 7.17 7.17C6.42 7.92 6 8.94 6 10C6 11.06 6.42 12.08 7.17 12.83C7.92 13.58 8.94 14 10 14C11.06 14 12.08 13.58 12.83 12.83Z " /></g></g></svg>