<svg width="24" height="24" fill="none" xmlns="http://www.w3.org/2000/svg"><mask id="a" style="mask-type:alpha" maskUnits="userSpaceOnUse" x="0" y="0" width="24" height="24"><path d="M24 0H0v24h24V0Z" fill="#fff"/></mask><g mask="url(#a)" fill-rule="evenodd" clip-rule="evenodd" fill="currentColor"><path d="M11.997 22c2.1 0 4.14-.66 5.85-1.88L14.307 14l-4.48 7.76c.7.16 1.43.24 2.17.24ZM7.888 21.12l3.54-6.12h-8.97c.42 1.34 1.13 2.58 2.06 3.64.94 1.05 2.09 1.9 3.37 2.48ZM9.109 12.999l-4.48-7.76c-.95 1.04-1.67 2.27-2.12 3.6-.45 1.34-.6 2.76-.46 4.16h7.06ZM9.689 10l4.48-7.76a10.013 10.013 0 0 0-8.01 1.64L9.689 10ZM16.107 2.88 12.577 9h8.97c-.43-1.34-1.13-2.58-2.07-3.64a9.97 9.97 0 0 0-3.37-2.48ZM21.948 11h-7.06l4.48 7.76a9.944 9.944 0 0 0 2.12-3.6c.45-1.34.61-2.76.46-4.16Z"/></g></svg>