<svg width="24" height="24" fill="none" xmlns="http://www.w3.org/2000/svg"><mask id="a" style="mask-type:alpha" maskUnits="userSpaceOnUse" x="0" y="0" width="24" height="24"><path d="M24 0H0v24h24V0Z" fill="#fff"/></mask><g mask="url(#a)" fill-rule="evenodd" clip-rule="evenodd" fill="currentColor"><path d="M4 5h16v14h-5.15c.1.66.15 1.33.15 2h6c.27 0 .52-.11.71-.29.18-.19.29-.44.29-.71V4c0-.27-.11-.52-.29-.71-.19-.18-.44-.29-.71-.29H3c-.27 0-.52.11-.71.29-.18.19-.29.44-.29.71v4c.67 0 1.34.05 2 .15V5Z"/><path d="M2 10v2c2.39 0 4.68.95 6.36 2.64A8.967 8.967 0 0 1 11 21h2c0-6.07-4.93-11-11-11Z"/><path d="M6.95 16.05A7.001 7.001 0 0 0 2 14v2c.66 0 1.31.13 1.91.38.61.25 1.16.62 1.63 1.08.46.47.83 1.02 1.08 1.63.25.6.38 1.25.38 1.91h2c0-1.86-.74-3.64-2.05-4.95ZM4.12 18.88C3.56 18.32 2.8 18 2 18v3h3c0-.8-.32-1.56-.88-2.12ZM18 17V7H6v1.63c1.96.63 3.74 1.72 5.19 3.18A12.86 12.86 0 0 1 14.37 17H18Z"/></g></svg>