<svg xmlns="http://www.w3.org/2000/svg" xmlns:xlink="http://www.w3.org/1999/xlink" width="24" height="24" viewBox="0 0 24 24" fill="none"><defs><rect id="path_0" x="0" y="0" width="24" height="24" /></defs><g opacity="1" transform="translate(0 0)  rotate(0 12 12)"><mask id="bg-mask-0" fill="white"><use xlink:href="#path_0"></use></mask><g mask="url(#bg-mask-0)" ><g opacity="1" transform="translate(2 3)  rotate(0 10 9)"><path id="路径 1" fill-rule="evenodd" style="fill:#000000" transform="translate(0 0)  rotate(0 10 9)" opacity="1" d="M19,0L1,0C0.73,0 0.48,0.11 0.29,0.29C0.11,0.48 0,0.73 0,1L0,5C0.67,5 1.34,5.05 2,5.15L2,2L18,2L18,16L12.85,16C12.95,16.66 13,17.33 13,18L19,18C19.27,18 19.52,17.89 19.71,17.71C19.89,17.52 20,17.27 20,17L20,1C20,0.73 19.89,0.48 19.71,0.29C19.52,0.11 19.27,0 19,0Z " /><path id="路径 2" fill-rule="evenodd" style="fill:#000000" transform="translate(0 7)  rotate(0 5.5 5.5)" opacity="1" d="M0,0L0,2C2.39,2 4.68,2.95 6.36,4.64C8.05,6.32 9,8.61 9,11L11,11C11,4.93 6.07,0 0,0Z " /><path id="路径 3" fill-rule="evenodd" style="fill:#000000" transform="translate(0 11)  rotate(0 3.5 3.5)" opacity="1" d="M4.95,2.05C3.64,0.74 1.86,0 0,0L0,2C0.66,2 1.31,2.13 1.91,2.38C2.52,2.63 3.07,3 3.54,3.46C4,3.93 4.37,4.48 4.62,5.09C4.87,5.69 5,6.34 5,7L7,7C7,5.14 6.26,3.36 4.95,2.05Z " /><path id="路径 4" fill-rule="evenodd" style="fill:#000000" transform="translate(0 15)  rotate(0 1.5 1.5)" opacity="1" d="M2.12,0.88C1.56,0.32 0.8,0 0,0L0,3L3,3C3,2.2 2.68,1.44 2.12,0.88Z " /></g></g></g></svg>