<svg xmlns="http://www.w3.org/2000/svg" xmlns:xlink="http://www.w3.org/1999/xlink" width="24" height="24" viewBox="0 0 24 24" fill="none"><g opacity="1" transform="translate(0 0)  rotate(0 12 12)"><path id="分组 1" fill-rule="evenodd" style="fill:#000000" transform="translate(2 3)  rotate(0 10 9.75)" opacity="1" d="M19 16C19.55 16 20 15.55 20 15L20 1C20 0.45 19.55 0 19 0L1 0C0.45 0 0 0.45 0 1L0 19.5L4.46 16L19 16Z M5 9L7 9L7 7L5 7L5 9Z M9 9L11 9L11 7L9 7L9 9Z M13 9L15 9L15 7L13 7L13 9Z " /></g></svg>