<svg xmlns="http://www.w3.org/2000/svg" xmlns:xlink="http://www.w3.org/1999/xlink" viewBox="0 0 24 24" fill="none"><g opacity="1" transform="translate(0 0)  rotate(0 12 12)"><path id="分组 1" fill-rule="evenodd" style="fill:#000000" transform="translate(1.999988713499988 2)  rotate(0 10.000005643250221 10.000005643250223)" opacity="1" d="M10 20C15.52 20 20 15.52 20 10C20 4.48 15.52 0 10 0C4.48 0 0 4.48 0 10C0 11.64 0.4 13.26 1.18 14.71L0 20L5.29 18.82C6.74 19.6 8.36 20 10 20Z M3.29001 14.42L2.63001 17.37L5.58001 16.71L6.23001 17.06C7.39001 17.68 8.69001 18 10 18C14.42 18 18 14.42 18 10C18 5.58 14.42 2 10 2C5.58001 2 2.00001 5.58 2.00001 10C2.00001 11.33 2.33001 12.62 2.94001 13.77L3.29001 14.42Z " /></g></svg>