<svg xmlns="http://www.w3.org/2000/svg" xmlns:xlink="http://www.w3.org/1999/xlink" width="24" height="24" viewBox="0 0 24 24" fill="none"><g opacity="1" transform="translate(0 0)  rotate(0 12 12)"><path id="分组 1" fill-rule="evenodd" style="fill:#000000" transform="translate(1.9999986569118846 2.9999916384765584)  rotate(0 10.000000671544083 9.00000418076171)" opacity="1" d="M0 12.01C0 15.31 2.69 18 6 18L20 18L20 5.99C20 2.7 17.31 0 14 0L6 0C4.41 0 2.88 0.63 1.76 1.75C0.63 2.88 0 4.4 0 5.99L0 12.01Z M18 5.99C17.99 3.79 16.21 2 14 2L6 2C4.94 2 3.92 2.42 3.17 3.17C2.42 3.92 2 4.93 2 5.99L2 12.01C2.01 14.21 3.79 16 6 16L18 16L18 5.99Z M12 10L14 10L14 8.00001L12 8.00001L12 10Z M6 10L8 10L8 8.00001L6 8.00001L6 10Z " /></g></svg>