<svg xmlns="http://www.w3.org/2000/svg" xmlns:xlink="http://www.w3.org/1999/xlink" viewBox="0 0 24 24" fill="none"><defs><rect id="path_0" x="0" y="0" width="24" height="24" /></defs><g opacity="1" transform="translate(0 0)  rotate(0 12 12)"><mask id="bg-mask-0" fill="white"><use xlink:href="#path_0"></use></mask><g mask="url(#bg-mask-0)" ><path id="分组 1" fill-rule="evenodd" style="fill:#000000" transform="translate(1.9999995141586346 2)  rotate(0 10.000000242920683 10.000000144235393)" opacity="1" d="M19.71 14.71C19.89 14.52 20 14.27 20 14L20 1C20 0.73 19.89 0.48 19.71 0.29C19.52 0.11 19.27 0 19 0L6 0C5.73 0 5.48 0.11 5.29 0.29C5.11 0.48 5 0.73 5 1L5 5L1.01 5C0.45 5 0 5.45 0 6.01L0 18.99C0 19.13 0.03 19.26 0.08 19.38C0.13 19.5 0.2 19.61 0.29 19.71C0.39 19.8 0.5 19.87 0.62 19.92C0.74 19.97 0.87 20 1.01 20L13.99 20C14.55 20 15 19.55 15 18.99L15 15L19 15C19.27 15 19.52 14.89 19.71 14.71Z M13.99 5C14.55 5 15 5.45 15 6.01L15 13L18 13L18 2L7 2L7 5L13.99 5Z M2 7L2 18L13 18L13 7L2 7Z M12.157 10.339L10.747 8.929L6.507 13.169L4.377 11.049L2.967 12.469L6.507 15.999L12.157 10.339Z " /></g></g></svg>