<svg width="24" height="24" fill="none" xmlns="http://www.w3.org/2000/svg"><mask id="a" style="mask-type:alpha" maskUnits="userSpaceOnUse" x="0" y="0" width="24" height="24"><path d="M24 0H0v24h24V0Z" fill="#fff"/></mask><g mask="url(#a)"><path fill-rule="evenodd" clip-rule="evenodd" d="M17 17h4c.27 0 .52-.11.71-.29.18-.19.29-.44.29-.71V3c0-.27-.11-.52-.29-.71-.19-.18-.44-.29-.71-.29H8c-.27 0-.52.11-.71.29-.18.19-.29.44-.29.71v4H3.01C2.45 7 2 7.45 2 8.01v12.98c0 .14.03.27.08.39s.12.23.21.33c.1.09.21.16.33.21.12.05.25.08.39.08h12.98c.56 0 1.01-.45 1.01-1.01V17ZM15.99 7c.56 0 1.01.45 1.01 1.01V15h3V4H9v3h6.99Zm-1.834 5.339-1.41-1.41-4.24 4.24-2.13-2.12-1.41 1.42 3.54 3.53 5.65-5.66Z" fill="currentColor"/></g></svg>