<svg width="24" height="24" fill="none" xmlns="http://www.w3.org/2000/svg"><mask id="a" style="mask-type:alpha" maskUnits="userSpaceOnUse" x="0" y="0" width="24" height="24"><path d="M24 0H0v24h24V0Z" fill="#fff"/></mask><g mask="url(#a)"><path fill-rule="evenodd" clip-rule="evenodd" d="M3.29 3.29C3.11 3.48 3 3.73 3 4v16c0 .27.11.52.29.71.19.18.44.29.71.29h16c.27 0 .52-.11.71-.29.18-.19.29-.44.29-.71V4c0-.27-.11-.52-.29-.71-.19-.18-.44-.29-.71-.29H4c-.27 0-.52.11-.71.29Zm14.78 5.635-1.41-1.41-5.66 5.66-2.83-2.83-1.41 1.41 4.24 4.25 7.07-7.08Z" fill="currentColor"/></g></svg>