<svg xmlns="http://www.w3.org/2000/svg" xmlns:xlink="http://www.w3.org/1999/xlink" viewBox="0 0 24 24" fill="none"><defs><rect id="path_0" x="0" y="0" width="24" height="24" /></defs><g opacity="1" transform="translate(0 0)  rotate(0 12 12)"><mask id="bg-mask-0" fill="white"><use xlink:href="#path_0"></use></mask><g mask="url(#bg-mask-0)" ><g opacity="1" transform="translate(1 5.978999999999999)  rotate(0 10.947 6.0105)"><path id="路径 1" fill-rule="evenodd" style="fill:#000000" transform="translate(5.65 0.7270000000000003)  rotate(0 8.122 5.647)" opacity="1" d="M1.41,3.52L0,4.93L6.36,11.29L16.24,1.41L14.83,0L6.36,8.47L4.95,7.05L4.95,7.05L3.54,5.64L1.41,3.52Z " /><path id="路径 2" fill-rule="evenodd" style="fill:#000000" transform="translate(10.604 0)  rotate(0 3.181000000000001 3.1815)" opacity="1" d="M1.41,6.36L6.36,1.41L4.95,0L0,4.95L1.41,6.36Z " /><path id="路径 3" fill-rule="evenodd" style="fill:#000000" transform="translate(0 4.242999999999999)  rotate(0 3.8884999999999996 3.8890000000000002)" opacity="1" d="M2.83,1.41L2.83,1.41L1.41,0L0,1.41L6.36,7.78L7.78,6.37L2.83,1.41Z " /></g></g></g></svg>