<svg width="24" height="24" fill="none" xmlns="http://www.w3.org/2000/svg"><mask id="a" style="mask-type:alpha" maskUnits="userSpaceOnUse" x="0" y="0" width="24" height="24"><path d="M24 0H0v24h24V0Z" fill="#fff"/></mask><g mask="url(#a)" fill-rule="evenodd" clip-rule="evenodd" fill="currentColor"><path d="m9.83 21.758 2.77-4.79c-.99.12-1.99-.06-2.88-.52a4.955 4.955 0 0 1-2.1-2.03l-4.28-7.42a9.966 9.966 0 0 0-1.34 5c0 4.78 3.35 8.77 7.83 9.76ZM22 12c0-1.05-.16-2.05-.46-3H16c.65.86 1 1.92 1 3 0 .91-.25 1.8-.71 2.57L12 22c5.52 0 10-4.48 10-10Z"/><path d="M14.6 13.5c.26-.45.4-.97.4-1.49 0-.53-.14-1.04-.39-1.5-.26-.45-.64-.83-1.09-1.1-.45-.26-.97-.4-1.49-.41-.53 0-1.04.13-1.5.38-.46.26-.84.63-1.11 1.08-.26.45-.41.97-.42 1.49-.01.52.12 1.04.37 1.5l.03.05c.26.45.64.83 1.09 1.09.45.27.96.41 1.48.41.53.01 1.04-.13 1.5-.38.45-.26.83-.63 1.1-1.08l.03-.04Z"/><path d="M7.402 10.03c.38-.9 1.03-1.66 1.84-2.2.82-.54 1.78-.83 2.76-.83h8.66c-.88-1.52-2.14-2.78-3.66-3.66a9.99 9.99 0 0 0-5-1.34c-1.39 0-2.76.29-4.03.84-1.27.56-2.4 1.38-3.34 2.4l2.77 4.79Z"/></g></svg>