<svg width="24" height="24" fill="none" xmlns="http://www.w3.org/2000/svg"><mask id="a" style="mask-type:alpha" maskUnits="userSpaceOnUse" x="0" y="0" width="24" height="24"><path d="M24 0H0v24h24V0Z" fill="#fff"/></mask><g mask="url(#a)"><path fill-rule="evenodd" clip-rule="evenodd" d="M9.838 15.95a4.588 4.588 0 0 1-1.78-1.77l-3.26-5.66a7.996 7.996 0 0 0 .02 7.01 8.018 8.018 0 0 0 5.55 4.3l1.93-3.34c-.86.06-1.71-.13-2.46-.54ZM16.5 12c0 .82-.22 1.62-.64 2.32l-3.27 5.66c1.21-.09 2.39-.45 3.44-1.07a8.01 8.01 0 0 0 3.9-5.83c.16-1.2.05-2.43-.33-3.58h-3.86c.5.74.76 1.61.76 2.5Zm-4.48-2.5c-.43 0-.86.11-1.24.32-.38.21-.7.52-.93.9-.22.37-.34.8-.35 1.24-.01.43.1.87.31 1.25l.03.04c.21.38.52.69.9.91.38.22.8.34 1.24.34.43 0 .86-.11 1.24-.32.38-.21.7-.52.92-.89l.03-.04c.21-.38.33-.81.33-1.24 0-.44-.11-.87-.33-1.25-.22-.38-.53-.69-.9-.92-.38-.22-.81-.34-1.25-.34Zm-.025-2h6.62a7.967 7.967 0 0 0-2.87-2.57 8.039 8.039 0 0 0-3.75-.93c-1.12 0-2.24.24-3.26.7a7.977 7.977 0 0 0-2.7 1.97l1.93 3.34c.37-.75.95-1.39 1.66-1.83a4.44 4.44 0 0 1 2.37-.68ZM22 12c0-5.52-4.48-10-10-10S2 6.48 2 12s4.48 10 10 10 10-4.48 10-10Z" fill="currentColor"/></g></svg>