<svg xmlns="http://www.w3.org/2000/svg" xmlns:xlink="http://www.w3.org/1999/xlink" viewBox="0 0 24 24" fill="none"><defs><rect id="path_0" x="0" y="0" width="24" height="24" /></defs><g opacity="1" transform="translate(0 0)  rotate(0 12 12)"><mask id="bg-mask-0" fill="white"><use xlink:href="#path_0"></use></mask><g mask="url(#bg-mask-0)" ><path id="分组 1" fill-rule="evenodd" style="fill:#000000" transform="translate(2 2)  rotate(0 10 10)" opacity="1" d="M7.83814 13.95C7.08814 13.54 6.47814 12.92 6.05814 12.18L2.79814 6.52C2.26814 7.61 1.99814 8.81 1.99814 10.03C1.99814 11.25 2.28814 12.44 2.81814 13.53C3.35814 14.62 4.13814 15.58 5.09814 16.32C6.05814 17.07 7.17814 17.58 8.36814 17.83L8.36814 17.83L10.2981 14.49C9.43814 14.55 8.58814 14.36 7.83814 13.95Z M14.5 10C14.5 10.82 14.28 11.62 13.86 12.32L10.59 17.98L10.59 17.98C11.8 17.89 12.98 17.53 14.03 16.91C15.08 16.3 15.98 15.46 16.65 14.45C17.33 13.44 17.76 12.29 17.93 11.08C18.09 9.88 17.98 8.65 17.6 7.5L13.74 7.5C14.24 8.24 14.5 9.11 14.5 10Z M10.0199 7.50014C9.58985 7.50014 9.15985 7.61014 8.77985 7.82014C8.39985 8.03014 8.07985 8.34014 7.84985 8.72014C7.62985 9.09014 7.50985 9.52014 7.49985 9.96014C7.48985 10.3901 7.59985 10.8301 7.80985 11.2101L7.83985 11.2501C8.04985 11.6301 8.35985 11.9401 8.73985 12.1601C9.11985 12.3801 9.53985 12.5001 9.97985 12.5001C10.4099 12.5001 10.8399 12.3901 11.2199 12.1801C11.5999 11.9701 11.9199 11.6601 12.1399 11.2901L12.1699 11.2501C12.3799 10.8701 12.4999 10.4401 12.4999 10.0101C12.4999 9.57014 12.3899 9.14014 12.1699 8.76014C11.9499 8.38014 11.6399 8.07014 11.2699 7.84014C10.8899 7.62014 10.4599 7.50014 10.0199 7.50014Z M9.995 5.49999L16.615 5.49999C15.885 4.41999 14.895 3.53999 13.745 2.92999C12.585 2.31999 11.305 1.99999 9.995 1.99999C8.875 1.99999 7.755 2.23999 6.735 2.69999C5.705 3.15999 4.785 3.82999 4.035 4.66999L5.965 8.01C6.335 7.25999 6.915 6.61999 7.625 6.17999C8.335 5.72999 9.165 5.49999 9.995 5.49999Z M4.035 4.66999L4.035 4.66999C4.035 4.66999 4.035 4.66999 4.035 4.66999L4.035 4.66999Z M20 10C20 4.48 15.52 0 10 0C4.48 0 0 4.48 0 10C0 15.52 4.48 20 10 20C15.52 20 20 15.52 20 10Z " /></g></g></svg>