<svg xmlns="http://www.w3.org/2000/svg" xmlns:xlink="http://www.w3.org/1999/xlink" width="24" height="24" viewBox="0 0 24 24" fill="none"><defs><rect id="path_0" x="0" y="0" width="24" height="24" /></defs><g opacity="1" transform="translate(0 0)  rotate(0 12 12)"><mask id="bg-mask-0" fill="white"><use xlink:href="#path_0"></use></mask><g mask="url(#bg-mask-0)" ><g opacity="1" transform="translate(2 2.0000035163669914)  rotate(0 10 9.999998241816504)"><path id="路径 1" fill-rule="evenodd" style="fill:#000000" transform="translate(0 4.998006483633009)  rotate(0 5.299 7.3824950000000005)" opacity="1" d="M7.83,14.76L10.6,9.97C9.61,10.09 8.61,9.91 7.72,9.45C6.83,9 6.1,8.29 5.62,7.42L1.34,0C0.49,1.47 0,3.18 0,5C0,9.78 3.35,13.77 7.83,14.76L7.83,14.76Z " /><path id="路径 2" fill-rule="evenodd" style="fill:#000000" transform="translate(10 7.000006483633008)  rotate(0 5 6.499995)" opacity="1" d="M10,3C10,1.95 9.84,0.95 9.54,0L4,0C4.65,0.86 5,1.92 5,3C5,3.91 4.75,4.8 4.29,5.57L0,13C5.52,13 10,8.52 10,3Z " /><path id="路径 3" fill-rule="evenodd" style="fill:#000000" transform="translate(6.9996112347658315 7.000548846349304)  rotate(0 2.99999831331868 3.00037947988017)" opacity="1" d="M5.6,4.5C5.86,4.05 6,3.53 6,3.01C6,2.48 5.86,1.97 5.61,1.51C5.35,1.06 4.97,0.68 4.52,0.41C4.07,0.15 3.55,0.01 3.03,0C2.5,0 1.99,0.13 1.53,0.38C1.07,0.64 0.69,1.01 0.42,1.46C0.16,1.91 0.01,2.43 0,2.95C-0.01,3.47 0.12,3.99 0.37,4.45L0.4,4.5C0.66,4.95 1.04,5.33 1.49,5.59C1.94,5.86 2.45,6 2.97,6C3.5,6.01 4.01,5.87 4.47,5.62C4.92,5.36 5.3,4.99 5.57,4.54L5.6,4.5Z " /><path id="路径 4" fill-rule="evenodd" style="fill:#000000" transform="translate(2.6319999999999997 0)  rotate(0 8.015 4.017498241816504)" opacity="1" d="M2.77,8.03C3.15,7.13 3.8,6.37 4.61,5.83C5.43,5.29 6.39,5 7.37,5L16.03,5C15.15,3.48 13.89,2.22 12.37,1.34C10.85,0.46 9.12,0 7.37,0C5.98,0 4.61,0.29 3.34,0.84C2.07,1.4 0.94,2.22 0,3.24L2.77,8.03Z " /></g></g></g></svg>