<svg xmlns="http://www.w3.org/2000/svg" xmlns:xlink="http://www.w3.org/1999/xlink" width="24" height="24" viewBox="0 0 24 24" fill="none"><defs><rect id="path_0" x="0" y="0" width="24" height="24" /></defs><g opacity="1" transform="translate(0 0)  rotate(0 12 12)"><mask id="bg-mask-0" fill="white"><use xlink:href="#path_0"></use></mask><g mask="url(#bg-mask-0)" ><g opacity="1" transform="translate(3 2)  rotate(0 9 10)"><path id="路径 1" fill-rule="evenodd" style="fill:#000000" transform="translate(0 2)  rotate(0 9 9)" opacity="1" d="M0.99,18L17.01,18C17.27,18 17.52,17.9 17.71,17.71C17.9,17.52 18,17.27 18,17.01L18,0.99C18,0.45 17.56,0 17.01,0L15,0L15,4L3,4L3,0L0.99,0C0.44,0 0,0.45 0,0.99L0,17.01C0,17.27 0.1,17.52 0.29,17.71C0.48,17.9 0.73,18 0.99,18Z " /><path id="路径 2" fill-rule="evenodd" style="fill:#000000" transform="translate(5 0)  rotate(0 4 2)" opacity="1" d="M0,4L8,4L8,0L0,0L0,4Z " /></g></g></g></svg>