<svg width="24" height="24" fill="none" xmlns="http://www.w3.org/2000/svg"><mask id="a" style="mask-type:alpha" maskUnits="userSpaceOnUse" x="0" y="0" width="24" height="24"><path d="M24 0H0v24h24V0Z" fill="#fff"/></mask><g mask="url(#a)"><path fill-rule="evenodd" clip-rule="evenodd" d="M7 2v2H3.99c-.55 0-.99.45-.99.99v16.02c0 .26.1.51.29.7.19.19.44.29.7.29h16.02c.26 0 .51-.1.7-.29.19-.19.29-.44.29-.7V4.99c0-.54-.44-.99-.99-.99H17V2H7ZM5 6v14h14V6h-2v2H7V6H5Zm4 0h6V4H9v2Z" fill="currentColor"/></g></svg>