<svg xmlns="http://www.w3.org/2000/svg" xmlns:xlink="http://www.w3.org/1999/xlink" viewBox="0 0 24 24" fill="none"><defs><rect id="path_0" x="0" y="0" width="24" height="24" /></defs><g opacity="1" transform="translate(0 0)  rotate(0 12 12)"><mask id="bg-mask-0" fill="white"><use xlink:href="#path_0"></use></mask><g mask="url(#bg-mask-0)" ><path id="分组 1" fill-rule="evenodd" style="fill:#000000" transform="translate(3 2)  rotate(0 9 10)" opacity="1" d="M4 0L4 2L0.99 2C0.44 2 0 2.45 0 2.99L0 19.01C0 19.27 0.1 19.52 0.29 19.71C0.48 19.9 0.73 20 0.99 20L17.01 20C17.27 20 17.52 19.9 17.71 19.71C17.9 19.52 18 19.27 18 19.01L18 2.99C18 2.45 17.56 2 17.01 2L14 2L14 0L4 0Z M2 4L2 18L16 18L16 4L14 4L14 6L4 6L4 4L2 4Z M6 4L12 4L12 2L6 2L6 4Z " /></g></g></svg>