<svg width="24" height="24" fill="none" xmlns="http://www.w3.org/2000/svg"><mask id="a" style="mask-type:alpha" maskUnits="userSpaceOnUse" x="0" y="0" width="24" height="24"><path d="M24 0H0v24h24V0Z" fill="#fff"/></mask><g mask="url(#a)" fill-rule="evenodd" clip-rule="evenodd" fill="currentColor"><path d="M3.99 22h16.02c.26 0 .51-.1.7-.29.19-.19.29-.44.29-.7V4.99c0-.54-.44-.99-.99-.99H18v4H6V4H3.99c-.55 0-.99.45-.99.99v16.02c0 .26.1.51.29.7.19.19.44.29.7.29Z"/><path d="M8 6h8V2H8v4Z"/></g></svg>