<svg width="24" height="24" fill="none" xmlns="http://www.w3.org/2000/svg"><mask id="a" style="mask-type:alpha" maskUnits="userSpaceOnUse" x="0" y="0" width="24" height="24"><path d="M24 0H0v24h24V0Z" fill="#fff"/></mask><g mask="url(#a)"><path fill-rule="evenodd" clip-rule="evenodd" d="M15 5c.8 0 1.56.32 2.12.88S18 7.2 18 8v2.59l-1.83-1.83-1.41 1.41L19 14.41l4.24-4.24-1.41-1.41L20 10.59V8c0-1.33-.53-2.6-1.46-3.54A5.036 5.036 0 0 0 15 3h-4v2h4Zm-1 15V10c0-.27-.11-.52-.29-.71-.19-.18-.44-.29-.71-.29H3c-.27 0-.52.11-.71.29-.18.19-.29.44-.29.71v10c0 .27.11.52.29.71.19.18.44.29.71.29h10c.27 0 .52-.11.71-.29.18-.19.29-.44.29-.71ZM4 11v8h8v-8H4Z" fill="currentColor"/></g></svg>