<svg width="24" height="24" fill="none" xmlns="http://www.w3.org/2000/svg"><mask id="a" style="mask-type:alpha" maskUnits="userSpaceOnUse" x="0" y="0" width="24" height="24"><path d="M24 0H0v24h24V0Z" fill="#fff"/></mask><g mask="url(#a)" fill-rule="evenodd" clip-rule="evenodd" fill="currentColor"><path d="M18 8v2h-3l4 5 4-5h-3V8c0-1.33-.53-2.6-1.46-3.54A5.036 5.036 0 0 0 15 3h-4v2h4c.8 0 1.56.32 2.12.88S18 7.2 18 8ZM2.29 9.29c-.18.19-.29.44-.29.71v10c0 .27.11.52.29.71.19.18.44.29.71.29h10c.27 0 .52-.11.71-.29.18-.19.29-.44.29-.71V10c0-.27-.11-.52-.29-.71-.19-.18-.44-.29-.71-.29H3c-.27 0-.52.11-.71.29Z"/></g></svg>