<svg xmlns="http://www.w3.org/2000/svg" xmlns:xlink="http://www.w3.org/1999/xlink" width="24" height="24" viewBox="0 0 24 24" fill="none"><defs><rect id="path_0" x="0" y="0" width="24" height="24" /></defs><g opacity="1" transform="translate(0 0)  rotate(0 12 12)"><mask id="bg-mask-0" fill="white"><use xlink:href="#path_0"></use></mask><g mask="url(#bg-mask-0)" ><g opacity="1" transform="translate(2 3)  rotate(0 10.5 9)"><path id="路径 1" fill-rule="evenodd" style="fill:#000000" transform="translate(9 0)  rotate(0 6 6)" opacity="1" d="M7,5L7,7L4,7L8,12L12,7L9,7L9,5C9,3.67 8.47,2.4 7.54,1.46C6.6,0.53 5.33,0 4,0L0,0L0,2L4,2C4.8,2 5.56,2.32 6.12,2.88C6.68,3.44 7,4.2 7,5Z " /><path id="路径 2" fill-rule="evenodd" style="fill:#000000" transform="translate(0 6)  rotate(0 6 6)" opacity="1" d="M0.29,0.29C0.11,0.48 0,0.73 0,1L0,11C0,11.27 0.11,11.52 0.29,11.71C0.48,11.89 0.73,12 1,12L11,12C11.27,12 11.52,11.89 11.71,11.71C11.89,11.52 12,11.27 12,11L12,1C12,0.73 11.89,0.48 11.71,0.29C11.52,0.11 11.27,0 11,0L1,0C0.73,0 0.48,0.11 0.29,0.29Z " /></g></g></g></svg>