<svg xmlns="http://www.w3.org/2000/svg" xmlns:xlink="http://www.w3.org/1999/xlink" width="24" height="24" viewBox="0 0 24 24" fill="none"><defs><rect id="path_0" x="0" y="0" width="24" height="24" /></defs><g opacity="1" transform="translate(0 0)  rotate(0 12 12)"><mask id="bg-mask-0" fill="white"><use xlink:href="#path_0"></use></mask><g mask="url(#bg-mask-0)" ><path id="分组 1" fill-rule="evenodd" style="fill:#000000" transform="translate(2 3)  rotate(0 10.6215 9)" opacity="1" d="M13 2C13.8 2 14.56 2.32 15.12 2.88C15.68 3.44 16 4.2 16 5L16 7.59L14.17 5.76L12.76 7.17L17 11.41L21.24 7.17L19.83 5.76L18 7.59L18 5C18 3.67 17.47 2.4 16.54 1.46C15.6 0.53 14.33 0 13 0L9 0L9 2L13 2Z M12 17L12 7C12 6.73 11.89 6.48 11.71 6.29C11.52 6.11 11.27 6 11 6L1 6C0.73 6 0.48 6.11 0.29 6.29C0.11 6.48 0 6.73 0 7L0 17C0 17.27 0.11 17.52 0.29 17.71C0.48 17.89 0.73 18 1 18L11 18C11.27 18 11.52 17.89 11.71 17.71C11.89 17.52 12 17.27 12 17Z M2 8L2 16L10 16L10 8L2 8Z " /></g></g></svg>