<svg width="24" height="24" fill="none" xmlns="http://www.w3.org/2000/svg"><mask id="a" style="mask-type:alpha" maskUnits="userSpaceOnUse" x="0" y="0" width="24" height="24"><path d="M24 0H0v24h24V0Z" fill="#fff"/></mask><g mask="url(#a)"><path fill-rule="evenodd" clip-rule="evenodd" d="M22 12c0-5.52-4.48-10-10-10S2 6.48 2 12s4.48 10 10 10 10-4.48 10-10Zm-4.34 5.66C19.16 16.16 20 14.12 20 12s-.84-4.16-2.34-5.66A8.008 8.008 0 0 0 12 4c-2.12 0-4.16.84-5.66 2.34A8.008 8.008 0 0 0 4 12c0 2.12.84 4.16 2.34 5.66S9.88 20 12 20s4.16-.84 5.66-2.34Zm-9.903-2.833 1.42 1.42 2.82-2.83 2.83 2.83 1.42-1.42-2.83-2.83 2.83-2.82-1.42-1.42-2.83 2.83-2.82-2.83-1.42 1.42 2.83 2.82-2.83 2.83Z" fill="currentColor"/></g></svg>