<svg xmlns="http://www.w3.org/2000/svg" xmlns:xlink="http://www.w3.org/1999/xlink" width="24" height="24" viewBox="0 0 24 24" fill="none"><defs><rect id="path_0" x="0" y="0" width="24" height="24" /></defs><g opacity="1" transform="translate(0 0)  rotate(0 12 12)"><mask id="bg-mask-0" fill="white"><use xlink:href="#path_0"></use></mask><g mask="url(#bg-mask-0)" ><path id="分组 1" fill-rule="evenodd" style="fill:#000000" transform="translate(0.9962143057310318 2.0000001693795912)  rotate(0 11.002147351986437 10.303499915310203)" opacity="1" d="M4.36 4.78001C4.09 5.60001 3.97 6.47001 4.01 7.34001C2.68 7.81001 1.55 8.74001 0.83 9.96001C0.11 11.18 -0.15 12.61 0.09 14.01C0.32 15.41 1.05 16.67 2.13 17.59C3.22 18.5 4.59 19 6 19L16 19C16.75 19 17.49 18.86 18.18 18.59L20.2 20.61L21.61 19.19L2.52 0.10001L1.1 1.51001L4.36 4.78001Z M2.55811 10.975C2.07811 11.785 1.90811 12.745 2.06811 13.675C2.22811 14.605 2.70811 15.445 3.42811 16.055C4.14811 16.665 5.05811 16.995 6.00811 16.995L16.0081 16.995C16.1881 16.995 16.3681 16.985 16.5481 16.965L6.03811 6.44501C6.01811 6.62501 6.00811 6.81501 6.00811 6.99501C6.00811 7.08501 6.00811 7.16501 6.00811 7.24501L6.07811 8.73501L4.67811 9.22501C3.78811 9.53501 3.03811 10.155 2.55811 10.975Z M17.5678 4.56C17.2378 3.67 16.7278 2.86 16.0678 2.17C15.4178 1.49 14.6278 0.94 13.7578 0.57C12.8878 0.19 11.9478 0 11.0078 0C9.44779 0 7.92779 0.52 6.69779 1.48L8.12779 2.91C8.87779 2.38 9.75779 2.07 10.6678 2.01C11.5878 1.95 12.4978 2.14 13.3078 2.56C14.1178 2.98 14.7978 3.62 15.2778 4.4C15.7478 5.19 16.0078 6.08 16.0078 7C14.9178 7 13.8978 7.29 13.0178 7.8L14.5078 9.29C15.2378 9 16.0378 8.92 16.8078 9.08C17.5778 9.23 18.2778 9.61 18.8378 10.17C19.3878 10.72 19.7678 11.43 19.9278 12.2C20.0778 12.97 20.0078 13.77 19.7178 14.5L21.2078 15.99C21.6478 15.23 21.9078 14.37 21.9878 13.5C22.0578 12.62 21.9378 11.74 21.6278 10.91C21.3178 10.09 20.8378 9.34 20.2078 8.72C19.5778 8.1 18.8278 7.63 17.9978 7.34C18.0378 6.39 17.8978 5.45 17.5678 4.56Z " /></g></g></svg>