<svg xmlns="http://www.w3.org/2000/svg" xmlns:xlink="http://www.w3.org/1999/xlink" viewBox="0 0 24 24" fill="none"><defs><rect id="path_0" x="0" y="0" width="24" height="24" /></defs><g opacity="1" transform="translate(0 0)  rotate(0 12 12)"><mask id="bg-mask-0" fill="white"><use xlink:href="#path_0"></use></mask><g mask="url(#bg-mask-0)" ><path id="路径 1" fill-rule="evenodd" style="fill:#000000" transform="translate(0.9962143057310318 1.9923073065767642)  rotate(0 11.001892847134483 9.503846952547434)" opacity="1" d="M11.45,6.43C12.79,5.5 14.38,5.01 16,5.01C16.6,5.01 17.19,5.07 17.77,5.2C17.32,3.53 16.28,2.08 14.83,1.14C13.38,0.19 11.63,-0.18 9.93,0.08C8.22,0.35 6.67,1.24 5.57,2.58C4.48,3.92 3.93,5.62 4.01,7.35C2.68,7.82 1.55,8.74 0.83,9.96C0.11,11.19 -0.15,12.62 0.09,14.02C0.32,15.41 1.05,16.68 2.13,17.59C3.22,18.51 4.59,19.01 6,19.01L16,19.01C17.6,19.01 19.12,18.38 20.25,17.25C21.37,16.13 22,14.6 22,13.01C22,11.6 21.51,10.24 20.61,9.17C19.71,8.09 18.45,7.36 17.07,7.11C15.69,6.86 14.26,7.1 13.04,7.79C11.82,8.49 10.88,9.59 10.38,10.9L8.51,10.2C9.08,8.67 10.11,7.36 11.45,6.43Z " /></g></g></svg>