<svg width="24" height="24" fill="none" xmlns="http://www.w3.org/2000/svg"><mask id="a" style="mask-type:alpha" maskUnits="userSpaceOnUse" x="0" y="0" width="24" height="24"><path d="M24 0H0v24h24V0Z" fill="#fff"/></mask><g mask="url(#a)"><path fill-rule="evenodd" clip-rule="evenodd" d="M18.33 18.61a4.517 4.517 0 0 0 2.45-2.73c.19-.6.26-1.23.19-1.86a4.61 4.61 0 0 0-.58-1.78c-.32-.55-.75-1.02-1.26-1.39-.51-.37-1.1-.63-1.71-.75a4.58 4.58 0 0 0-1.88 0 6.475 6.475 0 0 0-2.39-2.98 6.516 6.516 0 0 0-8.25.78A6.51 6.51 0 0 0 3 12.5c0 1.72.68 3.38 1.9 4.6A6.51 6.51 0 0 0 9.5 19h7c.63 0 1.26-.13 1.83-.39ZM9.502 21h7a6.504 6.504 0 0 0 6.52-6.39c.02-1.71-.62-3.36-1.8-4.6A6.525 6.525 0 0 0 16.712 8a8.506 8.506 0 0 0-3.18-2.98A8.504 8.504 0 0 0 9.282 4a8.528 8.528 0 0 0-7.21 4.37 8.513 8.513 0 0 0 .1 8.44 8.555 8.555 0 0 0 3.11 3.07c1.28.73 2.74 1.12 4.22 1.12Z" fill="currentColor"/></g></svg>