<svg xmlns="http://www.w3.org/2000/svg" xmlns:xlink="http://www.w3.org/1999/xlink" viewBox="0 0 24 24" fill="none"><defs><rect id="path_0" x="0" y="0" width="24" height="24" /></defs><g opacity="1" transform="translate(0 0)  rotate(0 12 12)"><mask id="bg-mask-0" fill="white"><use xlink:href="#path_0"></use></mask><g mask="url(#bg-mask-0)" ><path id="分组 1" fill-rule="evenodd" style="fill:#000000" transform="translate(0.9962143057310318 2.004390000000001)  rotate(0 11.00379030902057 9.497805605835778)" opacity="1" d="M11 0C10.06 0 9.12 0.19 8.25 0.57C7.38 0.94 6.59 1.48 5.94 2.17C5.28 2.86 4.78 3.67 4.44 4.55C4.11 5.44 3.97 6.39 4.01 7.33C2.68 7.8 1.55 8.73 0.83 9.95C0.11 11.17 -0.15 12.61 0.09 14.01C0.32 15.4 1.05 16.67 2.13 17.58C3.22 18.5 4.59 19 6 19L16 19C17.42 19 18.79 18.5 19.88 17.58C20.96 16.67 21.68 15.4 21.92 14.01C22.16 12.61 21.9 11.17 21.18 9.95C20.46 8.73 19.33 7.8 18 7.33C18.04 6.39 17.89 5.44 17.56 4.55C17.23 3.67 16.72 2.86 16.07 2.17C15.42 1.48 14.63 0.94 13.76 0.57C12.89 0.19 11.95 0 11 0Z M17.5481 9.3037C16.8681 9.0237 16.1281 8.9337 15.3981 9.0437C14.6681 9.1537 13.9881 9.4637 13.4281 9.9337C12.8581 10.4137 12.4381 11.0337 12.2081 11.7337L10.3081 11.0937C10.7081 9.9037 11.4681 8.8637 12.4981 8.1237C13.5181 7.3937 14.7481 6.9937 16.0081 6.9937C16.0081 6.3237 15.8681 5.6637 15.6081 5.0537C15.3581 4.4437 14.9781 3.8837 14.4981 3.4137C14.0181 2.9537 13.4581 2.5837 12.8281 2.3437C12.2081 2.0937 11.5481 1.9837 10.8781 1.9937C10.2181 2.0137 9.55811 2.1637 8.94811 2.4337C8.33811 2.7037 7.79811 3.1037 7.33811 3.5937C6.88811 4.0737 6.53811 4.6537 6.30811 5.2837C6.07811 5.9037 5.97811 6.5737 6.00811 7.2337L6.07811 8.7237L4.67811 9.2237C3.78811 9.5337 3.03811 10.1537 2.55811 10.9637C2.07811 11.7837 1.90811 12.7337 2.06811 13.6637C2.22811 14.5937 2.70811 15.4437 3.42811 16.0537C4.14811 16.6637 5.05811 16.9937 6.00811 16.9937L16.0081 16.9937C16.7381 16.9937 17.4581 16.7937 18.0881 16.4037C18.7181 16.0237 19.2281 15.4737 19.5681 14.8137C19.8981 14.1637 20.0481 13.4237 19.9881 12.6937C19.9381 11.9537 19.6781 11.2537 19.2481 10.6537C18.8181 10.0637 18.2281 9.5937 17.5481 9.3037Z " /></g></g></svg>