<svg xmlns="http://www.w3.org/2000/svg" xmlns:xlink="http://www.w3.org/1999/xlink" width="24" height="24" viewBox="0 0 24 24" fill="none"><defs><rect id="path_0" x="0" y="0" width="24" height="24" /></defs><g opacity="1" transform="translate(0 0)  rotate(0 12 12)"><mask id="bg-mask-0" fill="white"><use xlink:href="#path_0"></use></mask><g mask="url(#bg-mask-0)" ><path id="路径 1" fill-rule="evenodd" style="fill:#000000" transform="translate(1.002566058397555 4.00085178339355)  rotate(0 11.002450501858629 8.499574108303225)" opacity="1" d="M8,16.99L8,17L16,17L16,16.98C17.66,16.85 19.2,16.1 20.32,14.86C21.44,13.63 22.04,12.02 22,10.36C21.97,8.69 21.29,7.11 20.12,5.93C18.95,4.74 17.37,4.06 15.71,4C14.94,2.76 13.86,1.75 12.58,1.05C11.31,0.34 9.87,-0.02 8.41,0C6.95,0.02 5.52,0.41 4.26,1.13C2.99,1.86 1.94,2.9 1.19,4.16C0.45,5.41 0.04,6.84 0,8.29C-0.03,9.75 0.31,11.19 0.99,12.48C1.67,13.77 2.68,14.86 3.91,15.65C5.13,16.44 6.54,16.9 8,16.99Z " /></g></g></svg>