<svg width="24" height="24" fill="none" xmlns="http://www.w3.org/2000/svg"><mask id="a" style="mask-type:alpha" maskUnits="userSpaceOnUse" x="0" y="0" width="24" height="24"><path d="M24 0H0v24h24V0Z" fill="#fff"/></mask><g mask="url(#a)" fill-rule="evenodd" clip-rule="evenodd" fill="currentColor"><path d="M6.062 3.878c-1.82.87-3.25 2.4-3.98 4.28a7.985 7.985 0 0 0-.01 5.85h11.93v3.99h3.5c.76 0 1.52-.16 2.22-.47.7-.31 1.33-.76 1.84-1.33.52-.57.91-1.24 1.15-1.96.24-.73.33-1.5.26-2.26-.07-.76-.31-1.5-.68-2.17-.38-.67-.89-1.25-1.5-1.71-.61-.46-1.32-.79-2.06-.96-.75-.17-1.52-.18-2.28-.04-1-1.75-2.63-3.05-4.56-3.65-1.93-.6-4.01-.45-5.83.43ZM6 22h10v-2H6v2Z"/><path d="M2 18h10v-2H2v2Z"/></g></svg>