<svg xmlns="http://www.w3.org/2000/svg" xmlns:xlink="http://www.w3.org/1999/xlink" viewBox="0 0 24 24" fill="none"><defs><rect id="path_0" x="0" y="0" width="24" height="24" /></defs><g opacity="1" transform="translate(0 0)  rotate(0 12 12)"><mask id="bg-mask-0" fill="white"><use xlink:href="#path_0"></use></mask><g mask="url(#bg-mask-0)" ><g opacity="1" transform="translate(1.5224583991046892 3.088014284094349)  rotate(0 10.736708556858941 9.455992857952825)"><path id="路径 1" fill-rule="evenodd" style="fill:#000000" transform="translate(0 0)  rotate(0 10.736708556858941 7.455992857952825)" opacity="1" d="M4.54,0.79C2.72,1.66 1.29,3.19 0.56,5.07C-0.18,6.95 -0.19,9.04 0.55,10.92L12.48,10.92L12.48,14.91L12.48,14.91L15.98,14.91C16.74,14.91 17.5,14.75 18.2,14.44C18.9,14.13 19.53,13.68 20.04,13.11C20.56,12.54 20.95,11.87 21.19,11.15C21.43,10.42 21.52,9.65 21.45,8.89C21.38,8.13 21.14,7.39 20.77,6.72C20.39,6.05 19.88,5.47 19.27,5.01C18.66,4.55 17.95,4.22 17.21,4.05C16.46,3.88 15.69,3.87 14.93,4.01C13.93,2.26 12.3,0.96 10.37,0.36C8.44,-0.24 6.36,-0.09 4.54,0.79Z " /><path id="路径 2" fill-rule="evenodd" style="fill:#000000" transform="translate(4.477561600895311 16.91198571590565)  rotate(0 4.99999 1)" opacity="1" d="M0,2L10,2L10,0L0,0L0,2Z " /><path id="路径 3" fill-rule="evenodd" style="fill:#000000" transform="translate(0.4775616008953112 12.91198571590565)  rotate(0 4.99999 1)" opacity="1" d="M0,2L10,2L10,0L0,0L0,2Z " /></g></g></g></svg>