<svg xmlns="http://www.w3.org/2000/svg" xmlns:xlink="http://www.w3.org/1999/xlink" viewBox="0 0 24 24" fill="none"><defs><rect id="path_0" x="0" y="0" width="24" height="24" /></defs><g opacity="1" transform="translate(0 0)  rotate(0 12 12)"><mask id="bg-mask-0" fill="white"><use xlink:href="#path_0"></use></mask><g mask="url(#bg-mask-0)" ><g opacity="1" transform="translate(0.9962143057310318 2.0000001693795912)  rotate(0 11.001549412198948 10.303499915310203)"><path id="路径 1" fill-rule="evenodd" style="fill:#000000" transform="translate(0 0.10000983062040891)  rotate(0 10.805392847134483 10.253495)" opacity="1" d="M2.13,17.49C3.22,18.4 4.59,18.9 6,18.9L16,18.9C16.75,18.9 17.49,18.76 18.18,18.49L20.2,20.51L21.61,19.09L2.52,0L1.1,1.41L4.36,4.68C4.09,5.5 3.97,6.37 4.01,7.24C2.68,7.71 1.55,8.64 0.83,9.86C0.11,11.08 -0.15,12.51 0.09,13.91C0.32,15.31 1.05,16.57 2.13,17.49Z " /><path id="路径 2" fill-rule="evenodd" style="fill:#000000" transform="translate(13.013785694268968 7.000009830620408)  rotate(0 4.494656565064463 4.494495000000001)" opacity="1" d="M0,0.8L8.19,8.99C8.72,8.08 8.99,7.04 8.99,5.99C8.99,4.94 8.71,3.91 8.18,3C7.65,2.08 6.9,1.33 5.99,0.8C5.08,0.28 4.04,0 2.99,0C1.9,0 0.88,0.29 0,0.8Z " /><path id="路径 3" fill-rule="evenodd" style="fill:#000000" transform="translate(6.697785694268968 0)  rotate(0 5.535500000000001 3.1725049153102045)" opacity="1" d="M0,1.48L4.86,6.35C5.77,5.74 6.78,5.33 7.85,5.13C8.92,4.94 10.01,4.96 11.07,5.2C10.67,3.7 9.79,2.39 8.57,1.45C7.35,0.51 5.85,0 4.31,0C2.75,0 1.23,0.52 0,1.48Z " /></g></g></g></svg>