<svg xmlns="http://www.w3.org/2000/svg" xmlns:xlink="http://www.w3.org/1999/xlink" viewBox="0 0 24 24" fill="none"><defs><rect id="path_0" x="0" y="0" width="24" height="24" /></defs><g opacity="1" transform="translate(0 0)  rotate(0 12 12)"><mask id="bg-mask-0" fill="white"><use xlink:href="#path_0"></use></mask><g mask="url(#bg-mask-0)" ><path id="分组 1" fill-rule="evenodd" style="fill:#000000" transform="translate(1.0020096919847727 3.999996717484219)  rotate(0 11.008191534803833 8.500014486394257)" opacity="1" d="M17.328 14.61C17.908 14.35 18.418 13.98 18.838 13.51C19.268 13.04 19.578 12.48 19.778 11.88C19.968 11.28 20.038 10.65 19.968 10.02C19.898 9.39 19.698 8.78 19.388 8.24C19.068 7.69 18.638 7.22 18.128 6.85C17.618 6.48 17.028 6.22 16.418 6.1C15.798 5.97 15.158 5.97 14.538 6.1C14.058 4.89 13.228 3.85 12.148 3.12C11.068 2.39 9.79798 2 8.49798 2C6.77798 2 5.11798 2.68 3.89798 3.9C2.67798 5.12 1.99798 6.78 1.99798 8.5C1.99798 10.22 2.67798 11.88 3.89798 13.1C5.11798 14.32 6.77798 15 8.49798 15L15.498 15C16.128 15 16.758 14.87 17.328 14.61Z M8.5 17L15.5 17C17.21 17 18.85 16.34 20.07 15.14C21.29 13.94 21.99 12.32 22.02 10.61C22.04 8.9 21.4 7.25 20.22 6.01C19.04 4.78 17.42 4.05 15.71 4C14.93 2.75 13.83 1.72 12.53 1.02C11.23 0.31 9.76 -0.03 8.28 0C6.81 0.04 5.36 0.46 4.1 1.23C2.83 2 1.79 3.08 1.07 4.37C0.35 5.67 -0.02 7.13 0 8.61C0.02 10.09 0.42 11.54 1.17 12.81C1.92 14.09 3 15.14 4.28 15.88C5.56 16.61 7.02 17 8.5 17Z " /></g></g></svg>