<svg width="24" height="24" fill="none" xmlns="http://www.w3.org/2000/svg"><mask id="a" style="mask-type:alpha" maskUnits="userSpaceOnUse" x="0" y="0" width="24" height="24"><path d="M24 0H0v24h24V0Z" fill="#fff"/></mask><g mask="url(#a)"><path fill-rule="evenodd" clip-rule="evenodd" d="M11.996 2.004c-.94 0-1.88.19-2.75.57-.87.37-1.66.91-2.31 1.6-.66.69-1.16 1.5-1.5 2.38-.33.89-.47 1.84-.43 2.78-1.33.47-2.46 1.4-3.18 2.62a5.996 5.996 0 0 0-.74 4.06c.23 1.39.96 2.66 2.04 3.57 1.09.92 2.46 1.42 3.87 1.42h10a6.005 6.005 0 0 0 2-11.67c.04-.94-.11-1.89-.44-2.78-.33-.88-.84-1.69-1.49-2.38a6.85 6.85 0 0 0-2.31-1.6 6.89 6.89 0 0 0-2.76-.57Zm6.548 9.304a4.05 4.05 0 0 0-2.15-.26 3.988 3.988 0 0 0-3.19 2.69l-1.9-.64a6.009 6.009 0 0 1 5.7-4.1c0-.67-.14-1.33-.4-1.94a4.91 4.91 0 0 0-2.78-2.71c-.62-.25-1.28-.36-1.95-.35-.66.02-1.32.17-1.93.44-.61.27-1.15.67-1.61 1.16-.45.48-.8 1.06-1.03 1.69-.23.62-.33 1.29-.3 1.95l.07 1.49-1.4.5c-.89.31-1.64.93-2.12 1.74-.48.82-.65 1.77-.49 2.7.16.93.64 1.78 1.36 2.39.72.61 1.63.94 2.58.94h10c.73 0 1.45-.2 2.08-.59.63-.38 1.14-.93 1.48-1.59.33-.65.48-1.39.42-2.12-.05-.74-.31-1.44-.74-2.04a4.097 4.097 0 0 0-1.7-1.35Z" fill="currentColor"/></g></svg>