<svg width="24" height="24" fill="none" xmlns="http://www.w3.org/2000/svg"><mask id="a" style="mask-type:alpha" maskUnits="userSpaceOnUse" x="0" y="0" width="24" height="24"><path d="M24 0H0v24h24V0Z" fill="#fff"/></mask><g mask="url(#a)"><path fill-rule="evenodd" clip-rule="evenodd" d="M9.003 20.99V21h8v-.02c1.66-.13 3.2-.88 4.32-2.12a6.449 6.449 0 0 0 1.68-4.5 6.454 6.454 0 0 0-1.88-4.43A6.502 6.502 0 0 0 16.713 8a8.441 8.441 0 0 0-3.13-2.95A8.313 8.313 0 0 0 9.413 4c-1.46.02-2.89.41-4.15 1.13a8.492 8.492 0 0 0-3.07 3.03 8.595 8.595 0 0 0-1.19 4.13 8.6 8.6 0 0 0 .99 4.19 8.47 8.47 0 0 0 2.92 3.17c1.22.79 2.63 1.25 4.09 1.34Z" fill="currentColor"/></g></svg>