<svg width="24" height="24" fill="none" xmlns="http://www.w3.org/2000/svg"><mask id="a" style="mask-type:alpha" maskUnits="userSpaceOnUse" x="0" y="0" width="24" height="24"><path d="M24 0H0v24h24V0Z" fill="#fff"/></mask><g mask="url(#a)"><path fill-rule="evenodd" clip-rule="evenodd" d="M12.446 8.422a7.98 7.98 0 0 1 4.55-1.42c.6 0 1.19.06 1.77.19a7.013 7.013 0 0 0-7.84-5.12 7.067 7.067 0 0 0-4.36 2.5 7.039 7.039 0 0 0-1.56 4.77 6.017 6.017 0 0 0-3.18 2.61 6.006 6.006 0 0 0-.74 4.06c.23 1.39.96 2.66 2.04 3.57 1.09.92 2.46 1.42 3.87 1.42h10a5.993 5.993 0 0 0 6-6c0-1.41-.49-2.77-1.39-3.84a6.012 6.012 0 0 0-7.57-1.38c-1.22.7-2.16 1.8-2.66 3.11l-1.87-.7c.57-1.53 1.6-2.84 2.94-3.77Z" fill="currentColor"/></g></svg>