<svg xmlns="http://www.w3.org/2000/svg" xmlns:xlink="http://www.w3.org/1999/xlink" viewBox="0 0 24 24" fill="none"><defs><rect id="path_0" x="0" y="0" width="24" height="24" /></defs><g opacity="1" transform="translate(0 0)  rotate(0 12 12)"><mask id="bg-mask-0" fill="white"><use xlink:href="#path_0"></use></mask><g mask="url(#bg-mask-0)" ><g opacity="1" transform="translate(0.9999973772443553 2.000000384947679)  rotate(0 10.998425781323597 10.00324980752616)"><path id="路径 1" fill-rule="evenodd" style="fill:#000000" transform="translate(0 0)  rotate(0 10.998425781323597 8.00324980752616)" opacity="1" d="M21.72,12.24C21.96,11.52 22.04,10.75 21.97,9.98C21.9,9.22 21.67,8.48 21.29,7.81C20.92,7.15 20.41,6.56 19.79,6.1C19.18,5.64 18.48,5.32 17.73,5.15C16.98,4.97 16.21,4.96 15.46,5.11C14.78,3.37 13.52,1.92 11.89,1.01C10.26,0.1 8.36,-0.21 6.52,0.14C4.69,0.48 3.03,1.46 1.84,2.89C0.65,4.33 0,6.14 0,8.01L0,8.01L2,8.01L2,8.01C2,6.42 2.63,4.89 3.76,3.76C4.88,2.64 6.41,2.01 8,2.01C9.59,2.01 11.12,2.64 12.24,3.76C13.37,4.89 14,6.42 14,8.01L14,8.06C14.4,7.64 14.9,7.34 15.45,7.17C16,6.99 16.59,6.96 17.16,7.07C17.72,7.18 18.25,7.42 18.7,7.79C19.15,8.15 19.5,8.62 19.73,9.15C19.95,9.68 20.04,10.26 19.98,10.84C19.93,11.41 19.73,11.96 19.41,12.44C19.1,12.92 18.66,13.32 18.15,13.59C17.65,13.86 17.08,14.01 16.5,14.01L13,14.01L13,16.01L16.5,16.01C17.27,16.01 18.02,15.85 18.72,15.54C19.42,15.22 20.05,14.77 20.57,14.2C21.08,13.64 21.47,12.97 21.72,12.24Z " /><path id="路径 2" fill-rule="evenodd" style="fill:#000000" transform="translate(5.000002622755645 18.00649961505232)  rotate(0 5 1)" opacity="1" d="M0,2L10,2L10,0L0,0L0,2Z " /><path id="路径 3" fill-rule="evenodd" style="fill:#000000" transform="translate(5.000002622755645 10.006499615052322)  rotate(0 4 1)" opacity="1" d="M0,2L8,2L8,0L0,0L0,2Z " /><path id="路径 4" fill-rule="evenodd" style="fill:#000000" transform="translate(1.000002622755645 14.00649961505232)  rotate(0 5 1)" opacity="1" d="M0,2L10,2L10,0L0,0L0,2Z " /></g></g></g></svg>