<svg width="24" height="24" fill="none" xmlns="http://www.w3.org/2000/svg"><mask id="a" style="mask-type:alpha" maskUnits="userSpaceOnUse" x="0" y="0" width="24" height="24"><path d="M24 0H0v24h24V0Z" fill="#fff"/></mask><g mask="url(#a)" fill-rule="evenodd" clip-rule="evenodd" fill="currentColor"><path d="M3.126 19.59c1.09.91 2.46 1.41 3.87 1.41h10c.75 0 1.49-.14 2.18-.41l2.02 2.02 1.41-1.42L3.516 2.1l-1.42 1.41 3.26 3.27c-.27.82-.39 1.69-.35 2.56-1.33.47-2.46 1.4-3.18 2.62a5.968 5.968 0 0 0-.74 4.05c.23 1.4.96 2.66 2.04 3.58ZM14.01 9.8l8.19 8.19a5.965 5.965 0 0 0-.01-5.99A6.001 6.001 0 0 0 20 9.8c-.91-.52-1.95-.8-3-.8-1.09 0-2.11.29-2.99.8ZM7.694 3.48l4.86 4.87c.91-.61 1.92-1.02 2.99-1.22a8.12 8.12 0 0 1 3.22.07 7.005 7.005 0 0 0-6.76-5.2c-1.56 0-3.08.52-4.31 1.48Z"/></g></svg>