<svg width="24" height="24" fill="none" xmlns="http://www.w3.org/2000/svg"><mask id="a" style="mask-type:alpha" maskUnits="userSpaceOnUse" x="0" y="0" width="24" height="24"><path d="M24 0H0v24h24V0Z" fill="#fff"/></mask><g mask="url(#a)" fill-rule="evenodd" clip-rule="evenodd" fill="currentColor"><path d="M22.72 14.24c.24-.72.32-1.49.25-2.26-.07-.76-.3-1.5-.68-2.17-.37-.66-.88-1.25-1.5-1.71-.61-.46-1.31-.78-2.06-.95a5.27 5.27 0 0 0-2.27-.04 8.046 8.046 0 0 0-3.57-4.1 7.962 7.962 0 0 0-5.37-.87 8.007 8.007 0 0 0-4.68 2.75A8.035 8.035 0 0 0 1 10.01h2c0-1.59.63-3.12 1.76-4.25A6.002 6.002 0 0 1 9 4.01c1.59 0 3.12.63 4.24 1.75A6.01 6.01 0 0 1 15 10.01v.05c.4-.42.9-.72 1.45-.89a3.42 3.42 0 0 1 1.71-.1c.56.11 1.09.35 1.54.72.45.36.8.83 1.03 1.36.22.53.31 1.11.25 1.69-.05.57-.25 1.12-.57 1.6a3.4 3.4 0 0 1-1.26 1.15c-.5.27-1.07.42-1.65.42H14v2h3.5c.77 0 1.52-.16 2.22-.47.7-.32 1.33-.77 1.85-1.34.51-.56.9-1.23 1.15-1.96ZM6 22.006h10v-2H6v2Z"/><path d="M6 14.007h8v-2H6v2ZM2 18.006h10v-2H2v2Z"/></g></svg>