<svg width="24" height="24" fill="none" xmlns="http://www.w3.org/2000/svg"><mask id="a" style="mask-type:alpha" maskUnits="userSpaceOnUse" x="0" y="0" width="24" height="24"><path d="M24 0H0v24h24V0Z" fill="#fff"/></mask><g mask="url(#a)"><path fill-rule="evenodd" clip-rule="evenodd" d="M5.356 6.78c-.27.82-.39 1.69-.35 2.56-1.33.47-2.46 1.4-3.18 2.62a5.968 5.968 0 0 0-.74 4.05c.23 1.4.96 2.66 2.04 3.58 1.09.91 2.46 1.41 3.87 1.41h10c.75 0 1.49-.14 2.18-.41l2.02 2.02 1.41-1.42L3.516 2.1l-1.42 1.41 3.26 3.27Zm-1.802 6.195c-.48.81-.65 1.77-.49 2.7.16.93.64 1.77 1.36 2.38.72.61 1.63.94 2.58.94h10c.18 0 .36-.01.54-.03L7.034 8.445c-.02.18-.03.37-.03.55v.25l.07 1.49-1.4.49c-.89.31-1.64.93-2.12 1.75Zm15.01-6.415c-.33-.89-.84-1.7-1.5-2.39a6.996 6.996 0 0 0-2.31-1.6c-.87-.38-1.81-.57-2.75-.57-1.56 0-3.08.52-4.31 1.48l1.43 1.43c.75-.53 1.63-.84 2.54-.9.92-.06 1.83.13 2.64.55.81.42 1.49 1.06 1.97 1.84.47.79.73 1.68.73 2.6-1.09 0-2.11.29-2.99.8l1.49 1.49a4.02 4.02 0 0 1 2.3-.21c.77.15 1.47.53 2.03 1.09.55.55.93 1.26 1.09 2.03.15.77.08 1.57-.21 2.3l1.49 1.49c.44-.76.7-1.62.78-2.49a6.019 6.019 0 0 0-1.78-4.78 5.937 5.937 0 0 0-2.21-1.38c.04-.95-.1-1.89-.43-2.78Z" fill="currentColor"/></g></svg>