<svg width="24" height="24" fill="none" xmlns="http://www.w3.org/2000/svg"><mask id="a" style="mask-type:alpha" maskUnits="userSpaceOnUse" x="0" y="0" width="24" height="24"><path d="M24 0H0v24h24V0Z" fill="#fff"/></mask><g mask="url(#a)"><path fill-rule="evenodd" clip-rule="evenodd" d="M13 15.532v3.6l6.2-4.13-2.7-1.8-3.5 2.33Zm-.997-5.33-2.7 1.8 2.7 1.8 2.69-1.8-2.69-1.8Zm6.3 1.797 1.7 1.13v-2.26l-1.7 1.13ZM13 4.869v3.6l3.5 2.33 2.7-1.8-6.2-4.13Zm-1.997 3.6v-3.6l-6.2 4.13 2.7 1.8 3.5-2.33Zm0 10.663v-3.6l-3.5-2.33-2.7 1.8 6.2 4.13ZM5.7 11.999 4 10.869v2.26l1.7-1.13Zm16.3 3V9a1.015 1.015 0 0 0-.44-.83l-9-6C12.39 2.06 12.2 2 12 2c-.2 0-.39.06-.55.17l-9 6c-.14.09-.25.21-.33.36-.08.14-.12.31-.12.47v6c0 .16.04.33.12.47.08.15.19.27.33.36l9 6c.16.11.35.17.55.17.2 0 .39-.06.56-.17l9-6A1.015 1.015 0 0 0 22 15Z" fill="currentColor"/></g></svg>