<svg xmlns="http://www.w3.org/2000/svg" xmlns:xlink="http://www.w3.org/1999/xlink" width="24" height="24" viewBox="0 0 24 24" fill="none"><defs><rect id="path_0" x="0" y="0" width="24" height="24" /></defs><g opacity="1" transform="translate(0 0)  rotate(0 12 12)"><mask id="bg-mask-0" fill="white"><use xlink:href="#path_0"></use></mask><g mask="url(#bg-mask-0)" ><path id="分组 1" fill-rule="evenodd" style="fill:#000000" transform="translate(1.9999999926144216 1.9998799999999992)  rotate(0 10.000000003692788 10.00016)" opacity="1" d="M11 13.5321L11 17.1321L17.2 13.0021L14.5 11.2021L11 13.5321Z M10.003 8.20212L7.303 10.0021L10.003 11.8021L12.693 10.0021L10.003 8.20212Z M16.303 9.99912L18.003 11.1291L18.003 8.86912L18.003 8.86912L16.303 9.99912Z M11 2.86915L11 6.46915L14.5 8.79915L17.2 6.99915L11 2.86915Z M9.003 6.46915L9.003 2.86915L2.803 6.99915L5.503 8.79915L9.003 6.46915Z M9.003 17.1321L9.003 13.5321L5.503 11.2021L2.803 13.0021L9.003 17.1321Z M3.7 9.99912L2 8.86912L2 11.1291L3.7 9.99912Z M20 13L20 7C20 6.84 19.96 6.67 19.88 6.53C19.8 6.38 19.69 6.26 19.56 6.17L10.56 0.17C10.39 0.06 10.2 0 10 0C9.8 0 9.61 0.06 9.45 0.17L0.45 6.17C0.31 6.26 0.2 6.38 0.12 6.53C0.04 6.67 0 6.84 0 7L0 13C0 13.16 0.04 13.33 0.12 13.47C0.2 13.62 0.31 13.74 0.45 13.83L9.45 19.83C9.61 19.94 9.8 20 10 20C10.2 20 10.39 19.94 10.56 19.83L19.56 13.83C19.69 13.74 19.8 13.62 19.88 13.47C19.96 13.33 20 13.16 20 13Z " /></g></g></svg>