<svg xmlns="http://www.w3.org/2000/svg" xmlns:xlink="http://www.w3.org/1999/xlink" viewBox="0 0 24 24" fill="none"><defs><rect id="path_0" x="0" y="0" width="24" height="24" /></defs><g opacity="1" transform="translate(0 0)  rotate(0 12 12)"><mask id="bg-mask-0" fill="white"><use xlink:href="#path_0"></use></mask><g mask="url(#bg-mask-0)" ><g opacity="1" transform="translate(0 3)  rotate(0 12 9)"><path id="路径 1" fill-rule="evenodd" style="fill:#000000" transform="translate(16.929 3.343)  rotate(0 3.5355000000000008 5.657)" opacity="1" d="M1.41,0L0,1.41L4.24,5.66L0,9.9L1.41,11.31L7.07,5.66L1.41,0Z " /><path id="路径 2" fill-rule="evenodd" style="fill:#000000" transform="translate(0 3.343)  rotate(0 3.5355 5.657)" opacity="1" d="M7.07,1.41L5.66,0L0,5.66L5.66,11.31L7.07,9.9L2.83,5.66L7.07,1.41Z " /><path id="路径 3" fill-rule="evenodd" style="fill:#000000" transform="translate(7.66 0)  rotate(0 4.34 9)" opacity="1" d="M8.68,0L6.55,0L0,18L2.13,18L8.68,0Z " /></g></g></g></svg>