<svg xmlns="http://www.w3.org/2000/svg" xmlns:xlink="http://www.w3.org/1999/xlink" viewBox="0 0 24 24" fill="none"><defs><rect id="path_0" x="0" y="0" width="24" height="24" /></defs><g opacity="1" transform="translate(0 0)  rotate(0 12 12)"><mask id="bg-mask-0" fill="white"><use xlink:href="#path_0"></use></mask><g mask="url(#bg-mask-0)" ><path id="分组 1" fill-rule="evenodd" style="fill:#000000" transform="translate(2.9999975975766677 2.9999975975766677)  rotate(0 9.00001241369565 9.00001241369565)" opacity="1" d="M7 14.5L7 13L11 13L11 14.5C11 15.19 11.21 15.87 11.59 16.44C11.97 17.02 12.52 17.47 13.16 17.73C13.8 18 14.5 18.07 15.18 17.93C15.86 17.8 16.49 17.46 16.97 16.97C17.46 16.49 17.8 15.86 17.93 15.18C18.07 14.5 18 13.8 17.73 13.16C17.47 12.52 17.02 11.97 16.44 11.59C15.87 11.21 15.19 11 14.5 11L13 11L13 7L14.5 7C15.19 7 15.87 6.79 16.44 6.41C17.02 6.03 17.47 5.48 17.73 4.84C18 4.2 18.07 3.5 17.93 2.82C17.8 2.14 17.46 1.51 16.97 1.03C16.49 0.54 15.86 0.2 15.18 0.07C14.5 -0.07 13.8 0 13.16 0.27C12.52 0.53 11.97 0.98 11.59 1.56C11.21 2.13 11 2.81 11 3.5L11 5L7 5L7 3.5C7 2.81 6.79 2.13 6.41 1.56C6.03 0.98 5.48 0.53 4.84 0.27C4.2 0 3.5 -0.07 2.82 0.07C2.14 0.2 1.51 0.54 1.03 1.03C0.54 1.51 0.2 2.14 0.07 2.82C-0.07 3.5 0 4.2 0.27 4.84C0.53 5.48 0.98 6.03 1.56 6.41C2.13 6.79 2.81 7 3.5 7L5 7L5 11L3.5 11C2.81 11 2.13 11.21 1.56 11.59C0.98 11.97 0.53 12.52 0.27 13.16C0 13.8 -0.07 14.5 0.07 15.18C0.2 15.86 0.54 16.49 1.03 16.97C1.51 17.46 2.14 17.8 2.82 17.93C3.5 18.07 4.2 18 4.84 17.73C5.48 17.47 6.03 17.02 6.41 16.44C6.79 15.87 7 15.19 7 14.5Z M2.67 4.75C2.91 4.91 3.2 5 3.5 5L5 5L5 3.5C5 3.2 4.91 2.91 4.75 2.67C4.58 2.42 4.35 2.23 4.07 2.11C3.8 2 3.5 1.97 3.21 2.03C2.92 2.09 2.65 2.23 2.44 2.44C2.23 2.65 2.09 2.92 2.03 3.21C1.97 3.5 2 3.8 2.11 4.07C2.23 4.35 2.42 4.58 2.67 4.75Z M5 13L3.5 13C3.2 13 2.91 13.09 2.67 13.25C2.42 13.42 2.23 13.65 2.11 13.93C2 14.2 1.97 14.5 2.03 14.79C2.09 15.08 2.23 15.35 2.44 15.56C2.65 15.77 2.92 15.91 3.21 15.97C3.5 16.03 3.8 16 4.07 15.89C4.35 15.77 4.58 15.58 4.75 15.33C4.91 15.09 5 14.8 5 14.5L5 13Z M13.25 2.67C13.09 2.91 13 3.2 13 3.5L13 5L14.5 5C14.8 5 15.09 4.91 15.33 4.75C15.58 4.58 15.77 4.35 15.89 4.07C16 3.8 16.03 3.5 15.97 3.21C15.91 2.92 15.77 2.65 15.56 2.44C15.35 2.23 15.08 2.09 14.79 2.03C14.5 1.97 14.2 2 13.93 2.11C13.65 2.23 13.42 2.42 13.25 2.67Z M13 13L13 14.5C13 14.8 13.09 15.09 13.25 15.33C13.42 15.58 13.65 15.77 13.93 15.89C14.2 16 14.5 16.03 14.79 15.97C15.08 15.91 15.35 15.77 15.56 15.56C15.77 15.35 15.91 15.08 15.97 14.79C16.03 14.5 16 14.2 15.89 13.93C15.77 13.65 15.58 13.42 15.33 13.25C15.09 13.09 14.8 13 14.5 13L13 13Z M7 11L11 11L11 7L7 7L7 11Z " /></g></g></svg>