<svg width="24" height="24" fill="none" xmlns="http://www.w3.org/2000/svg"><mask id="a" style="mask-type:alpha" maskUnits="userSpaceOnUse" x="0" y="0" width="24" height="24"><path d="M24 0H0v24h24V0Z" fill="#fff"/></mask><g mask="url(#a)"><path fill-rule="evenodd" clip-rule="evenodd" d="M10 17.5V16h4v1.5c0 .69.21 1.37.59 1.94.38.58.93 1.03 1.57 1.29.64.27 1.34.34 2.02.2.68-.13 1.31-.47 1.79-.96.49-.48.83-1.11.96-1.79.14-.68.07-1.38-.2-2.02-.26-.64-.71-1.19-1.29-1.57-.57-.38-1.25-.59-1.94-.59H16v-4h1.5c.69 0 1.37-.21 1.94-.59.58-.38 1.03-.93 1.29-1.57.27-.64.34-1.34.2-2.02-.13-.68-.47-1.31-.96-1.79-.48-.49-1.11-.83-1.79-.96-.68-.14-1.38-.07-2.02.2-.64.26-1.19.71-1.57 1.29-.38.57-.59 1.25-.59 1.94V8h-4V6.5c0-.69-.21-1.37-.59-1.94-.38-.58-.93-1.03-1.57-1.29-.64-.27-1.34-.34-2.02-.2-.68.13-1.31.47-1.79.96-.49.48-.83 1.11-.96 1.79-.14.68-.07 1.38.2 2.02.26.64.71 1.19 1.29 1.57.57.38 1.25.59 1.94.59H8v4H6.5c-.69 0-1.37.21-1.94.59-.58.38-1.03.93-1.29 1.57-.27.64-.34 1.34-.2 2.02.13.68.47 1.31.96 1.79.48.49 1.11.83 1.79.96.68.14 1.38.07 2.02-.2.64-.26 1.19-.71 1.57-1.29.38-.57.59-1.25.59-1.94ZM5.67 7.75c.24.16.53.25.83.25H8V6.5a1.5 1.5 0 0 0-.93-1.39c-.27-.11-.57-.14-.86-.08-.29.06-.56.2-.77.41-.21.21-.35.48-.41.77-.06.29-.03.59.08.86.12.28.31.51.56.68ZM8 16H6.5a1.5 1.5 0 0 0-1.39.93c-.11.27-.14.57-.08.86.06.29.2.56.41.77.21.21.48.35.77.41.29.06.59.03.86-.08A1.5 1.5 0 0 0 8 17.5V16Zm8.25-10.33a1.5 1.5 0 0 0-.25.83V8h1.5a1.5 1.5 0 0 0 1.39-.93c.11-.27.14-.57.08-.86-.06-.29-.2-.56-.41-.77-.21-.21-.48-.35-.77-.41-.29-.06-.59-.03-.86.08-.28.12-.51.31-.68.56ZM16 16v1.5a1.5 1.5 0 0 0 .93 1.39c.27.11.57.14.86.08.29-.06.56-.2.77-.41.21-.21.35-.48.41-.77.06-.29.03-.59-.08-.86A1.5 1.5 0 0 0 17.5 16H16Zm-6-2h4v-4h-4v4Z" fill="currentColor"/></g></svg>