<svg xmlns="http://www.w3.org/2000/svg" xmlns:xlink="http://www.w3.org/1999/xlink" width="24" height="24" viewBox="0 0 24 24" fill="none"><defs><rect id="path_0" x="0" y="0" width="24" height="24" /></defs><g opacity="1" transform="translate(0 0)  rotate(0 12 12)"><mask id="bg-mask-0" fill="white"><use xlink:href="#path_0"></use></mask><g mask="url(#bg-mask-0)" ><path id="路径 1" fill-rule="evenodd" style="fill:#000000" transform="translate(1.9999990235136558 3)  rotate(0 10.000000488243172 9.5)" opacity="1" d="M11,15L19.01,15C19.55,15 20,14.55 20,13.99L20,1.01C20,0.45 19.56,0 19.01,0L0.99,0C0.46,0 0,0.45 0,1.01L0,13.99C0,14.12 0.02,14.25 0.07,14.38C0.12,14.5 0.19,14.61 0.29,14.7C0.38,14.8 0.49,14.87 0.61,14.92C0.73,14.97 0.86,15 0.99,15L9,15L9,17L5,17L5,19L15,19L15,17L11,17L11,15Z " /></g></g></svg>