<svg xmlns="http://www.w3.org/2000/svg" xmlns:xlink="http://www.w3.org/1999/xlink" width="24" height="24" viewBox="0 0 24 24" fill="none"><defs><rect id="path_0" x="0" y="0" width="24" height="24" /></defs><g opacity="1" transform="translate(0 0)  rotate(0 12 12)"><mask id="bg-mask-0" fill="white"><use xlink:href="#path_0"></use></mask><g mask="url(#bg-mask-0)" ><path id="分组 1" fill-rule="evenodd" style="fill:#000000" transform="translate(2 2)  rotate(0 10 10)" opacity="1" d="M16 16L16 4L4 4L4 16L16 16Z M6 0L6 2L3 2C2.73 2 2.48 2.11 2.29 2.29C2.11 2.48 2 2.73 2 3L2 6L0 6L0 8L2 8L2 12L0 12L0 14L2 14L2 17C2 17.27 2.11 17.52 2.29 17.71C2.48 17.89 2.73 18 3 18L6 18L6 20L8 20L8 18L12 18L12 20L14 20L14 18L17 18C17.27 18 17.52 17.89 17.71 17.71C17.89 17.52 18 17.27 18 17L18 14L20 14L20 12L18 12L18 8L20 8L20 6L18 6L18 3C18 2.73 17.89 2.48 17.71 2.29C17.52 2.11 17.27 2 17 2L14 2L14 0L12 0L12 2L8 2L8 0L6 0Z M6 14L14 14L14 6L6 6L6 14Z " /></g></g></svg>