<svg xmlns="http://www.w3.org/2000/svg" xmlns:xlink="http://www.w3.org/1999/xlink" viewBox="0 0 24 24" fill="none"><defs><rect id="path_0" x="0" y="0" width="24" height="24" /></defs><g opacity="1" transform="translate(0 0)  rotate(0 12 12)"><mask id="bg-mask-0" fill="white"><use xlink:href="#path_0"></use></mask><g mask="url(#bg-mask-0)" ><path id="路径 1" fill-rule="evenodd" style="fill:#000000" transform="translate(2 2)  rotate(0 10 10)" opacity="1" d="M5,3L5,0L3,0L3,3L0,3L0,5L3,5L3,16C3,16.27 3.11,16.52 3.29,16.71C3.48,16.89 3.73,17 4,17L15,17L15,20L17,20L17,17L20,17L20,15L17,15L17,4C17,3.73 16.89,3.48 16.71,3.29C16.52,3.11 16.27,3 16,3L5,3Z " /></g></g></svg>