<svg xmlns="http://www.w3.org/2000/svg" xmlns:xlink="http://www.w3.org/1999/xlink" width="24" height="24" viewBox="0 0 24 24" fill="none"><defs><rect id="path_0" x="0" y="0" width="24" height="24" /></defs><g opacity="1" transform="translate(0 0)  rotate(0 12 12)"><mask id="bg-mask-0" fill="white"><use xlink:href="#path_0"></use></mask><g mask="url(#bg-mask-0)" ><g opacity="1" transform="translate(2 2)  rotate(0 10 10)"><path id="路径 1" fill-rule="evenodd" style="fill:#000000" transform="translate(0 0)  rotate(0 6.5 8.5)" opacity="1" d="M3.29,16.71C3.48,16.89 3.73,17 4,17L13,17L13,15L5,15L5,0L3,0L3,3L0,3L0,5L3,5L3,16C3,16.27 3.11,16.52 3.29,16.71Z " /><path id="路径 2" fill-rule="evenodd" style="fill:#000000" transform="translate(7 3)  rotate(0 6.5 8.5)" opacity="1" d="M0,2L8,2L8,17L10,17L10,14L13,14L13,12L10,12L10,1C10,0.73 9.89,0.48 9.71,0.29C9.52,0.11 9.27,0 9,0L0,0L0,2Z " /></g></g></g></svg>