<svg width="24" height="24" fill="none" xmlns="http://www.w3.org/2000/svg"><mask id="a" style="mask-type:alpha" maskUnits="userSpaceOnUse" x="0" y="0" width="24" height="24"><path d="M24 0H0v24h24V0Z" fill="#fff"/></mask><g mask="url(#a)"><path fill-rule="evenodd" clip-rule="evenodd" d="M18 10h2c.53 0 1.04-.21 1.41-.59.38-.37.59-.88.59-1.41V5c0-.53-.21-1.04-.59-1.41C21.04 3.21 20.53 3 20 3H5c-.27 0-.52.11-.71.29-.18.19-.29.44-.29.71v9c0 1.06.42 2.08 1.17 2.83S6.94 17 8 17h6c1.06 0 2.08-.42 2.83-1.17S18 14.06 18 13v-3Zm0-2h2V5h-2v3ZM2 21h18v-2H2v2Z" fill="currentColor"/></g></svg>