<svg xmlns="http://www.w3.org/2000/svg" xmlns:xlink="http://www.w3.org/1999/xlink" viewBox="0 0 24 24" fill="none"><defs><rect id="path_0" x="0" y="0" width="24" height="24" /></defs><g opacity="1" transform="translate(0 0)  rotate(0 12 12)"><mask id="bg-mask-0" fill="white"><use xlink:href="#path_0"></use></mask><g mask="url(#bg-mask-0)" ><path id="分组 1" fill-rule="evenodd" style="fill:#000000" transform="translate(2 3)  rotate(0 10 9)" opacity="1" d="M14 2L4 2L4 10C4 10.53 4.21 11.04 4.59 11.41C4.96 11.79 5.47 12 6 12L12 12C12.53 12 13.04 11.79 13.41 11.41C13.79 11.04 14 10.53 14 10L14 2Z M19.41 0.59C19.04 0.21 18.53 0 18 0L3 0C2.73 0 2.48 0.11 2.29 0.29C2.11 0.48 2 0.73 2 1L2 10C2 11.06 2.42 12.08 3.17 12.83C3.92 13.58 4.94 14 6 14L12 14C13.06 14 14.08 13.58 14.83 12.83C15.58 12.08 16 11.06 16 10L16 7L18 7C18.53 7 19.04 6.79 19.41 6.41C19.79 6.04 20 5.53 20 5L20 2C20 1.47 19.79 0.96 19.41 0.59Z M16 5L18 5L18 2L16 2L16 5Z M0 18L18 18L18 16L0 16L0 18Z " /></g></g></svg>