<svg xmlns="http://www.w3.org/2000/svg" xmlns:xlink="http://www.w3.org/1999/xlink" width="24" height="24" viewBox="0 0 24 24" fill="none"><defs><rect id="path_0" x="0" y="0" width="24" height="24" /></defs><g opacity="1" transform="translate(0 0)  rotate(0 12 12)"><mask id="bg-mask-0" fill="white"><use xlink:href="#path_0"></use></mask><g mask="url(#bg-mask-0)" ><path id="分组 1" fill-rule="evenodd" style="fill:#000000" transform="translate(3 3)  rotate(0 9 9)" opacity="1" d="M18 18L18 8L10 8L10 18L18 18Z M8 10L8 0L0 0L0 10L8 10Z M6 2L2 2L2 8L6 8L6 2Z M8 18L8 12L0 12L0 18L8 18Z M6 16L6 14L2 14L2 16L6 16Z M16 16L16 10L12 10L12 16L16 16Z M10 6L18 6L18 0L10 0L10 6Z M12 4L16 4L16 2L12 2L12 4Z " /></g></g></svg>