<svg xmlns="http://www.w3.org/2000/svg" xmlns:xlink="http://www.w3.org/1999/xlink" viewBox="0 0 24 24" fill="none"><defs><rect id="path_0" x="0" y="0" width="24" height="24" /></defs><g opacity="1" transform="translate(0 0)  rotate(0 12 12)"><mask id="bg-mask-0" fill="white"><use xlink:href="#path_0"></use></mask><g mask="url(#bg-mask-0)" ><path id="分组 1" fill-rule="evenodd" style="fill:#000000" transform="translate(3 3)  rotate(0 9 9.5)" opacity="1" d="M3.53 10.889C4.91 11.589 6.88 11.999 9 11.999C11.12 11.999 13.09 11.589 14.47 10.889C15.54 10.359 16 9.809 16 9.499L16 7.329C14.35 8.349 11.83 8.999 9 8.999C6.17 8.999 3.65 8.349 2 7.329L2 9.499C2 9.809 2.46 10.359 3.53 10.889Z M9 13.999C6.17 13.999 3.65 13.349 2 12.329L2 14.499C2 14.809 2.46 15.359 3.53 15.889C4.91 16.589 6.88 16.999 9 16.999C11.12 16.999 13.09 16.589 14.47 15.889C15.54 15.359 16 14.809 16 14.499L16 12.329C14.35 13.349 11.83 13.999 9 13.999Z M9 19C13.97 19 18 16.99 18 14.5L18 4.5C18 2.02 13.97 0 9 0C4.03 0 0 2.02 0 4.5L0 14.5C0 16.99 4.03 19 9 19Z M14.47 5.89C15.54 5.36 16 4.81 16 4.5C16 4.19 15.54 3.64 14.47 3.11C13.09 2.42 11.12 2 9 2C6.88 2 4.91 2.42 3.53 3.11C2.46 3.64 2 4.19 2 4.5C2 4.81 2.46 5.36 3.53 5.89C4.91 6.59 6.88 7 9 7C11.12 7 13.09 6.59 14.47 5.89Z " /></g></g></svg>