<svg width="24" height="24" fill="none" xmlns="http://www.w3.org/2000/svg"><mask id="a" style="mask-type:alpha" maskUnits="userSpaceOnUse" x="0" y="0" width="24" height="24"><path d="M24 0H0v24h24V0Z" fill="#fff"/></mask><g mask="url(#a)"><path fill-rule="evenodd" clip-rule="evenodd" d="M6.53 13.889c1.38.7 3.35 1.11 5.47 1.11 2.12 0 4.09-.41 5.47-1.11 1.07-.53 1.53-1.08 1.53-1.39v-2.17c-1.65 1.02-4.17 1.67-7 1.67s-5.35-.65-7-1.67v2.17c0 .31.46.86 1.53 1.39Zm5.47 3.11c-2.83 0-5.35-.65-7-1.67v2.17c0 .31.46.86 1.53 1.39 1.38.7 3.35 1.11 5.47 1.11 2.12 0 4.09-.41 5.47-1.11 1.07-.53 1.53-1.08 1.53-1.39v-2.17c-1.65 1.02-4.17 1.67-7 1.67ZM12 22c4.97 0 9-2.01 9-4.5v-10C21 5.02 16.97 3 12 3S3 5.02 3 7.5v10c0 2.49 4.03 4.5 9 4.5Zm5.47-13.11C18.54 8.36 19 7.81 19 7.5c0-.31-.46-.86-1.53-1.39C16.09 5.42 14.12 5 12 5c-2.12 0-4.09.42-5.47 1.11C5.46 6.64 5 7.19 5 7.5c0 .31.46.86 1.53 1.39C7.91 9.59 9.88 10 12 10c2.12 0 4.09-.41 5.47-1.11Z" fill="currentColor"/></g></svg>