<svg width="24" height="24" fill="none" xmlns="http://www.w3.org/2000/svg"><mask id="a" style="mask-type:alpha" maskUnits="userSpaceOnUse" x="0" y="0" width="24" height="24"><path d="M24 0H0v24h24V0Z" fill="#fff"/></mask><g mask="url(#a)" fill-rule="evenodd" clip-rule="evenodd" fill="currentColor"><path d="M12 14c-4.97 0-9-2.02-9-4.5v3c0 2.49 4.03 4.5 9 4.5s9-2.01 9-4.5v-3c0 2.48-4.03 4.5-9 4.5Z"/><path d="M3 17.5c0 2.49 4.03 4.5 9 4.5s9-2.01 9-4.5v-3c0 2.48-4.03 4.5-9 4.5s-9-2.02-9-4.5v3ZM21 7.5C21 5.01 16.97 3 12 3S3 5.01 3 7.5 7.03 12 12 12s9-2.01 9-4.5Z"/></g></svg>