<svg xmlns="http://www.w3.org/2000/svg" xmlns:xlink="http://www.w3.org/1999/xlink" viewBox="0 0 24 24" fill="none"><defs><rect id="path_0" x="0" y="0" width="24" height="24" /></defs><g opacity="1" transform="translate(0 0)  rotate(0 12 12)"><mask id="bg-mask-0" fill="white"><use xlink:href="#path_0"></use></mask><g mask="url(#bg-mask-0)" ><g opacity="1" transform="translate(3 3)  rotate(0 9 9.5)"><path id="路径 1" fill-rule="evenodd" style="fill:#000000" transform="translate(0 6.5)  rotate(0 9 3.75)" opacity="1" d="M9,4.5C4.03,4.5 0,2.48 0,0L0,3C0,5.49 4.03,7.5 9,7.5C13.97,7.5 18,5.49 18,3L18,0C18,2.48 13.97,4.5 9,4.5Z " /><path id="路径 2" fill-rule="evenodd" style="fill:#000000" transform="translate(0 11.5)  rotate(0 9 3.75)" opacity="1" d="M0,3C0,5.49 4.03,7.5 9,7.5C13.97,7.5 18,5.49 18,3L18,0C18,2.48 13.97,4.5 9,4.5C4.03,4.5 0,2.48 0,0L0,3Z " /><path id="路径 3" fill-rule="evenodd" style="fill:#000000" transform="translate(0 0)  rotate(0 9 4.5)" opacity="1" d="M18,4.5C18,2.01 13.97,0 9,0C4.03,0 0,2.01 0,4.5C0,6.99 4.03,9 9,9C13.97,9 18,6.99 18,4.5Z " /></g></g></g></svg>