<svg xmlns="http://www.w3.org/2000/svg" xmlns:xlink="http://www.w3.org/1999/xlink" viewBox="0 0 24 24" fill="none"><defs><rect id="path_0" x="0" y="0" width="24" height="24" /></defs><g opacity="1" transform="translate(0 0)  rotate(0 12 12)"><mask id="bg-mask-0" fill="white"><use xlink:href="#path_0"></use></mask><g mask="url(#bg-mask-0)" ><path id="分组 1" fill-rule="evenodd" style="fill:#000000" transform="translate(0.20184300000000022 2.999999992614421)  rotate(0 10.8990785 9.000000003692788)" opacity="1" d="M0.17 8.45C0.06 8.61 0 8.8 0 9C0 9.2 0.06 9.39 0.17 9.56L5.5 17.56C5.59 17.69 5.72 17.8 5.86 17.88C6.01 17.96 6.17 18 6.33 18L20.8 18C21.06 18 21.32 17.89 21.51 17.71C21.69 17.52 21.8 17.27 21.8 17L21.8 1C21.8 0.73 21.69 0.48 21.51 0.29C21.32 0.11 21.06 0 20.8 0L6.33 0C6.17 0 6.01 0.04 5.86 0.12C5.72 0.2 5.59 0.31 5.5 0.45L0.17 8.45Z M2.20215 9L6.87215 16L19.8021 16L19.8021 2L6.87215 2L2.20215 9Z M9.97515 13.247L12.7951 10.417L15.6251 13.247L17.0451 11.827L14.2151 8.997L17.0451 6.177L15.6251 4.757L12.7951 7.587L9.97515 4.757L8.55515 6.177L11.3851 8.997L8.55515 11.827L9.97515 13.247Z " /></g></g></svg>