<svg width="24" height="24" fill="none" xmlns="http://www.w3.org/2000/svg"><mask id="a" style="mask-type:alpha" maskUnits="userSpaceOnUse" x="0" y="0" width="24" height="24"><path d="M24 0H0v24h24V0Z" fill="#fff"/></mask><g mask="url(#a)"><path fill-rule="evenodd" clip-rule="evenodd" d="M5 22h14c.27 0 .52-.11.71-.29.18-.19.29-.44.29-.71V8h2V6h-5V3c0-.27-.11-.52-.29-.71-.19-.18-.44-.29-.71-.29H8c-.27 0-.52.11-.71.29-.18.19-.29.44-.29.71v3H2v2h2v13c0 .27.11.52.29.71.19.18.44.29.71.29Zm4-5h2v-6H9v6Zm4 0h2v-6h-2v6ZM9 6h6V4H9v2Z" fill="currentColor"/></g></svg>