<svg xmlns="http://www.w3.org/2000/svg" xmlns:xlink="http://www.w3.org/1999/xlink" width="24" height="24" viewBox="0 0 24 24" fill="none"><defs><rect id="path_0" x="0" y="0" width="24" height="24" /></defs><g opacity="1" transform="translate(0 0)  rotate(0 12 12)"><mask id="bg-mask-0" fill="white"><use xlink:href="#path_0"></use></mask><g mask="url(#bg-mask-0)" ><path id="分组 1" fill-rule="evenodd" style="fill:#000000" transform="translate(2 2)  rotate(0 10 10)" opacity="1" d="M17 20C17.27 20 17.52 19.89 17.71 19.71C17.89 19.52 18 19.27 18 19L18 6L20 6L20 4L15 4L15 1C15 0.73 14.89 0.48 14.71 0.29C14.52 0.11 14.27 0 14 0L6 0C5.73 0 5.48 0.11 5.29 0.29C5.11 0.48 5 0.73 5 1L5 4L0 4L0 6L2 6L2 19C2 19.27 2.11 19.52 2.29 19.71C2.48 19.89 2.73 20 3 20L17 20Z M4 6L4 18L16 18L16 6L4 6Z M7 15L9 15L9 9L7 9L7 15Z M11 15L13 15L13 9L11 9L11 15Z M7 4L13 4L13 2L7 2L7 4Z " /></g></g></svg>