<svg width="24" height="24" fill="none" xmlns="http://www.w3.org/2000/svg"><mask id="a" style="mask-type:alpha" maskUnits="userSpaceOnUse" x="0" y="0" width="24" height="24"><path d="M24 0H0v24h24V0Z" fill="#fff"/></mask><g mask="url(#a)"><path fill-rule="evenodd" clip-rule="evenodd" d="M.372 11.45c-.11.16-.17.35-.17.55 0 .2.06.39.17.56l5.33 8c.09.13.22.24.36.32.15.08.31.12.47.12h14.47c.26 0 .52-.11.71-.29.18-.19.29-.44.29-.71V4c0-.27-.11-.52-.29-.71-.19-.18-.45-.29-.71-.29H6.532a.995.995 0 0 0-.83.45l-5.33 8Zm2.032.55 4.67 7h12.93V5H7.074l-4.67 7Zm7.773 4.247 2.82-2.83 2.83 2.83 1.42-1.42-2.83-2.83 2.83-2.82-1.42-1.42-2.83 2.83-2.82-2.83-1.42 1.42 2.83 2.82-2.83 2.83 1.42 1.42Z" fill="currentColor"/></g></svg>