<svg xmlns="http://www.w3.org/2000/svg" xmlns:xlink="http://www.w3.org/1999/xlink" width="24" height="24" viewBox="0 0 24 24" fill="none"><defs><rect id="path_0" x="0" y="0" width="24" height="24" /></defs><g opacity="1" transform="translate(0 0)  rotate(0 12 12)"><mask id="bg-mask-0" fill="white"><use xlink:href="#path_0"></use></mask><g mask="url(#bg-mask-0)" ><path id="路径 1" fill-rule="evenodd" style="fill:#000000" transform="translate(2 2.0500500000000006)  rotate(0 10 9.974975)" opacity="1" d="M11,7.12C10.4,6.91 9.75,6.89 9.14,7.08C8.53,7.26 7.99,7.63 7.61,8.14C7.22,8.65 7.01,9.26 7,9.9C6.99,10.54 7.18,11.16 7.55,11.68C7.92,12.2 8.44,12.59 9.04,12.79C9.65,13 10.3,13 10.91,12.81C11.51,12.62 12.04,12.23 12.42,11.72C12.8,11.21 13,10.59 13,9.95L13,2.53C14.72,3.23 16.15,4.5 17.04,6.13C17.92,7.77 18.21,9.65 17.86,11.48C17.5,13.3 16.52,14.94 15.09,16.12C13.66,17.31 11.86,17.95 10,17.95C7.97,17.95 6.01,17.17 4.53,15.78C3.05,14.38 2.15,12.48 2.02,10.45C1.9,8.42 2.55,6.42 3.84,4.85C5.14,3.28 6.98,2.27 9,2.01L9,0C3.95,0.5 0,4.77 0,9.95C0,15.47 4.48,19.95 10,19.95C15.52,19.95 20,15.47 20,9.95C20,4.77 16.05,0.5 11,0L11,7.12Z " /></g></g></svg>