<svg xmlns="http://www.w3.org/2000/svg" xmlns:xlink="http://www.w3.org/1999/xlink" width="24" height="24" viewBox="0 0 24 24" fill="none"><defs><rect id="path_0" x="0" y="0" width="24" height="24" /></defs><g opacity="1" transform="translate(0 0)  rotate(0 12 12)"><mask id="bg-mask-0" fill="white"><use xlink:href="#path_0"></use></mask><g mask="url(#bg-mask-0)" ><path id="路径 1" fill-rule="evenodd" style="fill:#000000" transform="translate(2 2)  rotate(0 10 10)" opacity="1" d="M9.04,12.84C8.44,12.64 7.92,12.25 7.55,11.73C7.18,11.21 6.99,10.59 7,9.95C7.01,9.31 7.22,8.7 7.61,8.19C7.99,7.68 8.53,7.31 9.14,7.13C9.75,6.94 10.4,6.96 11,7.17L11,0.05C10.67,0.02 10.34,0 10,0C4.48,0 0,4.48 0,10C0,15.52 4.48,20 10,20C15.52,20 20,15.52 20,10C20,5.52 17.06,1.73 13,0.46L13,10C13,10.64 12.8,11.26 12.42,11.77C12.04,12.28 11.51,12.67 10.91,12.86C10.3,13.05 9.65,13.05 9.04,12.84Z " /></g></g></svg>