<svg width="24" height="24" fill="none" xmlns="http://www.w3.org/2000/svg"><mask id="a" style="mask-type:alpha" maskUnits="userSpaceOnUse" x="0" y="0" width="24" height="24"><path d="M24 0H0v24h24V0Z" fill="#fff"/></mask><g mask="url(#a)"><path fill-rule="evenodd" clip-rule="evenodd" d="M11.04 14.84A2.994 2.994 0 0 1 9 11.95c.01-.64.22-1.25.61-1.76.38-.51.92-.88 1.53-1.06.61-.19 1.26-.17 1.86.04V2.05c-.33-.03-.66-.05-1-.05C6.48 2 2 6.48 2 12s4.48 10 10 10 10-4.48 10-10c0-4.48-2.94-8.27-7-9.54V12c0 .64-.2 1.26-.58 1.77-.38.51-.91.9-1.51 1.09-.61.19-1.26.19-1.87-.02Z" fill="currentColor"/></g></svg>