<svg width="24" height="24" fill="none" xmlns="http://www.w3.org/2000/svg"><mask id="a" style="mask-type:alpha" maskUnits="userSpaceOnUse" x="0" y="0" width="24" height="24"><path d="M24 0H0v24h24V0Z" fill="#fff"/></mask><g mask="url(#a)"><path fill-rule="evenodd" clip-rule="evenodd" d="M13 9.17c-.6-.21-1.25-.23-1.86-.04-.61.18-1.15.55-1.53 1.06-.39.51-.6 1.12-.61 1.76a2.994 2.994 0 0 0 2.04 2.89c.61.21 1.26.21 1.87.02.6-.19 1.13-.58 1.51-1.09.38-.51.58-1.13.58-1.77V4.58c1.72.7 3.15 1.97 4.04 3.6a8.08 8.08 0 0 1 .82 5.35 8.041 8.041 0 0 1-2.77 4.64A7.945 7.945 0 0 1 12 20c-2.03 0-3.99-.78-5.47-2.17a8.045 8.045 0 0 1-2.51-5.33 8.07 8.07 0 0 1 1.82-5.6A8.016 8.016 0 0 1 11 4.06V2.05c-5.05.5-9 4.77-9 9.95 0 5.52 4.48 10 10 10s10-4.48 10-10c0-5.18-3.95-9.45-9-9.95v7.12Z" fill="currentColor"/></g></svg>