<svg xmlns="http://www.w3.org/2000/svg" xmlns:xlink="http://www.w3.org/1999/xlink" viewBox="0 0 24 24" fill="none"><defs><rect id="path_0" x="0" y="0" width="24" height="24" /></defs><g opacity="1" transform="translate(0 0)  rotate(0 12 12)"><mask id="bg-mask-0" fill="white"><use xlink:href="#path_0"></use></mask><g mask="url(#bg-mask-0)" ><g opacity="1" transform="translate(5 5)  rotate(0 7 7)"><path id="路径 1" fill-rule="evenodd" style="fill:#000000" transform="translate(0 6)  rotate(0 7 1)" opacity="1" d="M0,2L14,2L14,0L0,0L0,2Z " /><path id="路径 2" fill-rule="evenodd" style="fill:#000000" transform="translate(5.5 0)  rotate(0 1.5 1.5)" opacity="1" d="M2.56,2.56C2.84,2.28 3,1.9 3,1.5C3,1.1 2.84,0.72 2.56,0.44C2.28,0.16 1.9,0 1.5,0C1.1,0 0.72,0.16 0.44,0.44C0.16,0.72 0,1.1 0,1.5C0,1.9 0.16,2.28 0.44,2.56C0.72,2.84 1.1,3 1.5,3C1.9,3 2.28,2.84 2.56,2.56Z " /><path id="路径 3" fill-rule="evenodd" style="fill:#000000" transform="translate(5.5 11)  rotate(0 1.5 1.5)" opacity="1" d="M2.56,2.56C2.84,2.28 3,1.9 3,1.5C3,1.1 2.84,0.72 2.56,0.44C2.28,0.16 1.9,0 1.5,0C1.1,0 0.72,0.16 0.44,0.44C0.16,0.72 0,1.1 0,1.5C0,1.9 0.16,2.28 0.44,2.56C0.72,2.84 1.1,3 1.5,3C1.9,3 2.28,2.84 2.56,2.56Z " /></g></g></g></svg>