<svg width="24" height="24" fill="none" xmlns="http://www.w3.org/2000/svg"><mask id="a" style="mask-type:alpha" maskUnits="userSpaceOnUse" x="0" y="0" width="24" height="24"><path d="M24 0H0v24h24V0Z" fill="#fff"/></mask><g mask="url(#a)"><path fill-rule="evenodd" clip-rule="evenodd" d="M17 20.978c1.37-.1 2.66-.64 3.71-1.52a6.574 6.574 0 0 0 2.11-3.41 6.527 6.527 0 0 0-2.88-7.07 8.03 8.03 0 0 0-2.65-4.99A8.045 8.045 0 0 0 12 1.998c-1.95 0-3.82.71-5.29 1.99a8.03 8.03 0 0 0-2.65 4.99c-.93.59-1.71 1.4-2.24 2.37-.54.96-.82 2.05-.82 3.15 0 3.42 2.64 6.23 6 6.5l10-.02ZM7.148 18.99l.18.01h9.35l.17-.01c.95-.08 1.84-.45 2.57-1.06.72-.61 1.23-1.44 1.46-2.36.22-.92.15-1.89-.21-2.77-.36-.88-.98-1.62-1.79-2.12l-.81-.51-.12-.94a5.993 5.993 0 0 0-5.95-5.23c-1.46 0-2.87.53-3.96 1.49-1.1.97-1.8 2.3-1.99 3.74l-.12.94-.8.51c-.81.5-1.44 1.24-1.8 2.12-.35.88-.43 1.85-.2 2.77.22.92.73 1.74 1.46 2.36.72.61 1.62.98 2.56 1.06ZM13 8h-2v4H8l4 5 4-5h-3V8Z" fill="currentColor"/></g></svg>