<svg width="24" height="24" fill="none" xmlns="http://www.w3.org/2000/svg"><path fill-rule="evenodd" clip-rule="evenodd" d="M21 8h-5V6h-2v2H9c-.55 0-1 .45-1 1v5H6v2h2v5c0 .55.45 1 1 1h11.04l-1.78-3.09-2.22 2.15L16 13l6 3.5V9c0-.55-.45-1-1-1Z" fill="currentColor"/><path fill-rule="evenodd" clip-rule="evenodd" d="m19.992 17.908 1.96 3.4c.03-.1.05-.2.05-.31v-3.66l-2.01.57ZM2 14v2h2v-2H2ZM2 10v2h2v-2H2ZM2 6v2h2V6H2ZM2 2v2h2V2H2ZM6 2v2h2V2H6ZM10 2v2h2V2h-2ZM14 2v2h2V2h-2Z" fill="currentColor"/></svg>