<svg xmlns="http://www.w3.org/2000/svg" xmlns:xlink="http://www.w3.org/1999/xlink" viewBox="0 0 24 24" fill="none"><defs><rect id="path_0" x="0" y="0" width="24" height="24" /></defs><g opacity="1" transform="translate(0 0)  rotate(0 12 12)"><mask id="bg-mask-0" fill="white"><use xlink:href="#path_0"></use></mask><g mask="url(#bg-mask-0)" ><path id="路径 1" fill-rule="evenodd" style="fill:#000000" transform="translate(2 2)  rotate(0 10 10)" opacity="1" d="M12.83,14.34L11,16.17L11,11L16.17,11L14.34,12.83L15.76,14.24L20,10L15.76,5.76L14.34,7.17L16.17,9L11,9L11,3.83L12.83,5.66L14.24,4.24L10,0L5.76,4.24L7.17,5.66L9,3.83L9,9L3.83,9L5.66,7.17L4.24,5.76L0,10L4.24,14.24L5.66,12.83L3.83,11L9,11L9,16.17L7.17,14.34L5.76,15.76L10,20L14.24,15.76L12.83,14.34Z " /></g></g></svg>