<svg width="24" height="24" fill="none" xmlns="http://www.w3.org/2000/svg"><mask id="a" style="mask-type:alpha" maskUnits="userSpaceOnUse" x="0" y="0" width="24" height="24"><path d="M24 0H0v24h24V0Z" fill="#fff"/></mask><g mask="url(#a)"><path fill-rule="evenodd" clip-rule="evenodd" d="M14.83 16.34 13 18.17V13h5.17l-1.83 1.83 1.42 1.41L22 12l-4.24-4.24-1.42 1.41L18.17 11H13V5.83l1.83 1.83 1.41-1.42L12 2 7.76 6.24l1.41 1.42L11 5.83V11H5.83l1.83-1.83-1.42-1.41L2 12l4.24 4.24 1.42-1.41L5.83 13H11v5.17l-1.83-1.83-1.41 1.42L12 22l4.24-4.24-1.41-1.42Z" fill="currentColor"/></g></svg>