<svg xmlns="http://www.w3.org/2000/svg" xmlns:xlink="http://www.w3.org/1999/xlink" width="24" height="24" viewBox="0 0 24 24" fill="none"><g opacity="1" transform="translate(0 0)  rotate(0 12 12)"><g opacity="1" transform="translate(2 2)  rotate(0 10.482 10.296500000000002)"><path id="路径 2" fill-rule="evenodd" style="fill:#000000" transform="translate(14 11)  rotate(0 3.4819999999999993 4.796500000000002)" opacity="1" d="M0.04,8.06L2.26,5.91L4.38,9.59L6.12,8.59L3.99,4.91L6.96,4.06L0,0L0.04,8.06Z " /><path id="路径 3" fill-rule="evenodd" style="fill:#000000" transform="translate(4 4)  rotate(0 8 8)" opacity="1" d="M3,2C2.45,2 2,2.45 2,3L2,8L0,8L0,10L2,10L2,15C2,15.55 2.45,16 3,16L8,16L8,14L4,14L4,4L14,4L14,7L16,7L16,3C16,2.45 15.55,2 15,2L10,2L10,0L8,0L8,2L3,2Z " /><path id="路径 4" fill-rule="evenodd" style="fill:#000000" transform="translate(0 12)  rotate(0 1 1)" opacity="1" d="M0,0L0,2L2,2L2,0L0,0Z " /><path id="路径 5" fill-rule="evenodd" style="fill:#000000" transform="translate(0 8)  rotate(0 1 1)" opacity="1" d="M0,0L0,2L2,2L2,0L0,0Z " /><path id="路径 6" fill-rule="evenodd" style="fill:#000000" transform="translate(0 4)  rotate(0 1 1)" opacity="1" d="M0,0L0,2L2,2L2,0L0,0Z " /><path id="路径 7" fill-rule="evenodd" style="fill:#000000" transform="translate(0 0)  rotate(0 1 1)" opacity="1" d="M0,0L0,2L2,2L2,0L0,0Z " /><path id="路径 8" fill-rule="evenodd" style="fill:#000000" transform="translate(4 0)  rotate(0 1 1)" opacity="1" d="M0,0L0,2L2,2L2,0L0,0Z " /><path id="路径 9" fill-rule="evenodd" style="fill:#000000" transform="translate(8 0)  rotate(0 1 1)" opacity="1" d="M0,0L0,2L2,2L2,0L0,0Z " /><path id="路径 10" fill-rule="evenodd" style="fill:#000000" transform="translate(12 0)  rotate(0 1 1)" opacity="1" d="M0,0L0,2L2,2L2,0L0,0Z " /></g></g></svg>