<svg xmlns="http://www.w3.org/2000/svg" xmlns:xlink="http://www.w3.org/1999/xlink" width="24" height="24" viewBox="0 0 24 24" fill="none"><g opacity="1" transform="translate(0 0)  rotate(0 12 12)"><g opacity="1" transform="translate(2 2)  rotate(0 10.000000202829218 10)"><path id="路径 2" fill-rule="evenodd" style="fill:#000000" transform="translate(4 4)  rotate(0 8 8)" opacity="1" d="M15,2L10,2L10,0L8,0L8,2L3,2C2.45,2 2,2.45 2,3L2,8L0,8L0,10L2,10L2,15C2,15.55 2.45,16 3,16L14.04,16L12.26,12.91L10.04,15.06L10,7L16,10.5L16,3C16,2.45 15.55,2 15,2Z " /><path id="路径 3" fill-rule="evenodd" style="fill:#000000" transform="translate(17.992 15.338000000000001)  rotate(0 1.0040002028292179 1.9845000000000095)" opacity="1" d="M0,0.57L1.96,3.97C1.99,3.87 2.01,3.77 2.01,3.66L2.01,0L0,0.57Z " /><path id="路径 4" fill-rule="evenodd" style="fill:#000000" transform="translate(0 12)  rotate(0 1 1)" opacity="1" d="M0,0L0,2L2,2L2,0L0,0Z " /><path id="路径 5" fill-rule="evenodd" style="fill:#000000" transform="translate(0 8)  rotate(0 1 1)" opacity="1" d="M0,0L0,2L2,2L2,0L0,0Z " /><path id="路径 6" fill-rule="evenodd" style="fill:#000000" transform="translate(0 4)  rotate(0 1 1)" opacity="1" d="M0,0L0,2L2,2L2,0L0,0Z " /><path id="路径 7" fill-rule="evenodd" style="fill:#000000" transform="translate(0 0)  rotate(0 1 1)" opacity="1" d="M0,0L0,2L2,2L2,0L0,0Z " /><path id="路径 8" fill-rule="evenodd" style="fill:#000000" transform="translate(4 0)  rotate(0 1 1)" opacity="1" d="M0,0L0,2L2,2L2,0L0,0Z " /><path id="路径 9" fill-rule="evenodd" style="fill:#000000" transform="translate(8 0)  rotate(0 1 1)" opacity="1" d="M0,0L0,2L2,2L2,0L0,0Z " /><path id="路径 10" fill-rule="evenodd" style="fill:#000000" transform="translate(12 0)  rotate(0 1 1)" opacity="1" d="M0,0L0,2L2,2L2,0L0,0Z " /></g></g></svg>