<svg xmlns="http://www.w3.org/2000/svg" xmlns:xlink="http://www.w3.org/1999/xlink" width="24" height="24" viewBox="0 0 24 24" fill="none"><defs><rect id="path_0" x="0" y="0" width="24" height="24" /></defs><g opacity="1" transform="translate(0 0)  rotate(0 12 12)"><mask id="bg-mask-0" fill="white"><use xlink:href="#path_0"></use></mask><g mask="url(#bg-mask-0)" ><path id="分组 1" fill-rule="evenodd" style="fill:#000000" transform="translate(2 2)  rotate(0 10 10)" opacity="1" d="M16.413 5.221C16.133 5.531 15.823 5.821 15.493 6.091C14.493 6.921 13.383 7.601 12.183 8.101C12.353 8.451 12.503 8.791 12.643 9.111L12.643 9.111C12.673 9.201 12.713 9.291 12.743 9.381C14.263 9.211 15.863 9.271 17.403 9.481C17.613 9.511 17.803 9.541 17.993 9.571C17.903 8.001 17.363 6.481 16.413 5.221Z M11.294 6.38999C12.524 5.90999 13.534 5.29999 14.344 4.62999C14.624 4.38999 14.894 4.13999 15.144 3.86999C13.704 2.65999 11.884 1.99999 10.004 1.99999C9.534 1.99999 9.064 2.03999 8.604 2.11999L8.604 2.11999C9.574 3.49999 10.474 4.91999 11.294 6.38999Z M4.293 7.875C5.933 7.725 7.563 7.455 9.153 7.055C8.323 5.605 7.423 4.195 6.453 2.825C5.423 3.335 4.513 4.065 3.793 4.955C3.063 5.845 2.543 6.885 2.253 7.995C2.933 7.975 3.613 7.935 4.293 7.875Z M3.78 15.033C3.78 15.033 3.78 15.033 3.78 15.033C3.78 15.033 3.78 15.033 3.78 15.033L3.78 15.033Z M5.36 13.133C6.81 11.643 8.53 10.483 10.51 9.843L10.58 9.823C10.41 9.463 10.26 9.143 10.1 8.833C8.26 9.373 6.33 9.703 4.4 9.873C3.46 9.963 2.62 9.993 2 10.003C2 11.833 2.63 13.613 3.78 15.033C4.17 14.463 4.68 13.833 5.36 13.133Z M11.376 11.706C9.376 12.436 7.776 13.496 6.546 14.766C6.046 15.266 5.606 15.826 5.226 16.416C6.606 17.446 8.276 18.006 9.996 17.996C11.026 18.006 12.046 17.806 13.006 17.416L13.006 17.416C12.616 15.466 12.076 13.556 11.376 11.706Z M17.86 11.4712C17.52 11.3812 17.09 11.3012 16.62 11.2312C15.57 11.0812 14.5 11.0712 13.44 11.2012C14.04 12.8812 14.52 14.6012 14.88 16.3412L14.88 16.3412C16.44 15.1412 17.5 13.4012 17.86 11.4712Z M20 10C20 4.48 15.52 0 10 0C4.48 0 0 4.48 0 10C0 15.52 4.48 20 10 20C15.52 20 20 15.52 20 10Z " /></g></g></svg>