<svg width="24" height="24" fill="none" xmlns="http://www.w3.org/2000/svg"><mask id="a" style="mask-type:alpha" maskUnits="userSpaceOnUse" x="0" y="0" width="24" height="24"><path d="M24 0H0v24h24V0Z" fill="#fff"/></mask><g mask="url(#a)"><path fill-rule="evenodd" clip-rule="evenodd" d="M18.413 7.221c-.28.31-.59.6-.92.87-1 .83-2.11 1.51-3.31 2.01.17.35.32.69.46 1.01.03.09.07.18.1.27 1.52-.17 3.12-.11 4.66.1.21.03.4.06.59.09a7.981 7.981 0 0 0-1.58-4.35ZM13.294 8.39c1.23-.48 2.24-1.09 3.05-1.76.28-.24.55-.49.8-.76A7.987 7.987 0 0 0 12.004 4c-.47 0-.94.04-1.4.12.97 1.38 1.87 2.8 2.69 4.27ZM6.293 9.875c1.64-.15 3.27-.42 4.86-.82-.83-1.45-1.73-2.86-2.7-4.23a7.985 7.985 0 0 0-2.66 2.13c-.73.89-1.25 1.93-1.54 3.04.68-.02 1.36-.06 2.04-.12Zm1.067 5.258c1.45-1.49 3.17-2.65 5.15-3.29l.07-.02c-.17-.36-.32-.68-.48-.99-1.84.54-3.77.87-5.7 1.04-.94.09-1.78.12-2.4.13 0 1.83.63 3.61 1.78 5.03.39-.57.9-1.2 1.58-1.9Zm6.016-1.427c-2 .73-3.6 1.79-4.83 3.06-.5.5-.94 1.06-1.32 1.65a7.897 7.897 0 0 0 4.77 1.58 7.79 7.79 0 0 0 3.01-.58c-.39-1.95-.93-3.86-1.63-5.71Zm6.484-.235c-.34-.09-.77-.17-1.24-.24-1.05-.15-2.12-.16-3.18-.03.6 1.68 1.08 3.4 1.44 5.14a8 8 0 0 0 2.98-4.87ZM22 12c0-5.52-4.48-10-10-10S2 6.48 2 12s4.48 10 10 10 10-4.48 10-10Z" fill="currentColor"/></g></svg>