<svg xmlns="http://www.w3.org/2000/svg" xmlns:xlink="http://www.w3.org/1999/xlink" width="24" height="24" viewBox="0 0 24 24" fill="none"><defs><rect id="path_0" x="0" y="0" width="24" height="24" /></defs><g opacity="1" transform="translate(0 0)  rotate(0 12 12)"><mask id="bg-mask-0" fill="white"><use xlink:href="#path_0"></use></mask><g mask="url(#bg-mask-0)" ><g opacity="1" transform="translate(1.004090040487938 2.00305194229437)  rotate(0 10.993743932534136 10.498474028852815)"><path id="路径 1" fill-rule="evenodd" style="fill:#000000" transform="translate(0 0)  rotate(0 10.993743932534136 7.998974028852816)" opacity="1" d="M4.53,3.1C5.43,2.47 6.48,2.09 7.58,2.01C8.68,1.94 9.78,2.16 10.75,2.67C11.73,3.18 12.55,3.94 13.12,4.88C13.69,5.82 14,6.9 14,8L14,8.05C14.4,7.63 14.9,7.33 15.45,7.16C16,6.98 16.59,6.95 17.15,7.06C17.72,7.17 18.25,7.41 18.7,7.78C19.15,8.14 19.5,8.61 19.72,9.14C19.95,9.67 20.03,10.25 19.98,10.83C19.93,11.4 19.73,11.95 19.41,12.43C19.09,12.91 18.66,13.31 18.15,13.58C17.64,13.85 17.07,14 16.5,14L16,14L16,16L16,16L16.5,16C17.26,16 18.02,15.83 18.72,15.52C19.42,15.21 20.05,14.76 20.56,14.19C21.07,13.63 21.47,12.96 21.71,12.23C21.95,11.5 22.04,10.74 21.96,9.97C21.89,9.21 21.66,8.47 21.28,7.81C20.91,7.14 20.4,6.56 19.79,6.1C19.17,5.64 18.47,5.31 17.73,5.14C16.98,4.97 16.21,4.95 15.45,5.09C14.96,3.82 14.14,2.69 13.08,1.82C12.02,0.95 10.76,0.37 9.41,0.13C8.06,-0.12 6.67,-0.01 5.38,0.44C4.09,0.89 2.93,1.66 2.02,2.69C1.11,3.71 0.48,4.95 0.18,6.29C-0.11,7.63 -0.05,9.02 0.35,10.33C0.75,11.64 1.48,12.83 2.46,13.78C3.45,14.72 4.67,15.4 6,15.74L6,13.66C4.96,13.29 4.04,12.64 3.35,11.79C2.65,10.94 2.2,9.91 2.05,8.82C1.9,7.73 2.05,6.62 2.49,5.62C2.93,4.61 3.63,3.74 4.53,3.1Z " /><path id="路径 2" fill-rule="evenodd" style="fill:#000000" transform="translate(7.995889959512063 13.99694805770563)  rotate(0 1.0000099999999996 2)" opacity="1" d="M0,4L2,4L2,0L0,0L0,4Z " /><path id="路径 3" fill-rule="evenodd" style="fill:#000000" transform="translate(11.995909959512062 16.99694805770563)  rotate(0 1 2)" opacity="1" d="M0,4L2,4L2,0L0,0L0,4Z " /></g></g></g></svg>