<svg width="24" height="24" fill="none" xmlns="http://www.w3.org/2000/svg"><mask id="a" style="mask-type:alpha" maskUnits="userSpaceOnUse" x="0" y="0" width="24" height="24"><path d="M24 0H0v24h24V0Z" fill="#fff"/></mask><g mask="url(#a)" fill-rule="evenodd" clip-rule="evenodd" fill="currentColor"><path d="M5.534 5.103c.9-.63 1.95-1.01 3.05-1.09 1.1-.07 2.2.15 3.17.66.98.51 1.8 1.27 2.37 2.21.57.94.88 2.02.88 3.12v.05c.4-.42.9-.72 1.45-.89.55-.18 1.14-.21 1.7-.1.57.11 1.1.35 1.55.72.45.36.8.83 1.02 1.36a3.48 3.48 0 0 1-.31 3.29c-.32.48-.75.88-1.26 1.15-.51.27-1.08.42-1.65.42h-.5v2h.5c.76 0 1.52-.17 2.22-.48.7-.31 1.33-.76 1.84-1.33a5.457 5.457 0 0 0 1.4-4.22c-.07-.76-.3-1.5-.68-2.16-.37-.67-.88-1.25-1.49-1.71a5.55 5.55 0 0 0-2.06-.96c-.75-.17-1.52-.19-2.28-.05a7.976 7.976 0 0 0-6.04-4.96 7.883 7.883 0 0 0-4.03.31 8.04 8.04 0 0 0-5.2 5.85 8.02 8.02 0 0 0 .17 4.04c.4 1.31 1.13 2.5 2.11 3.45.99.94 2.21 1.62 3.54 1.96v-2.08a6.015 6.015 0 0 1-2.65-1.87c-.7-.85-1.15-1.88-1.3-2.97-.15-1.09 0-2.2.44-3.2a6.046 6.046 0 0 1 2.04-2.52Z"/><path d="M9 20h2v-4H9v4ZM13 23h2v-4h-2v4Z"/></g></svg>