<svg width="24" height="24" fill="none" xmlns="http://www.w3.org/2000/svg"><mask id="a" style="mask-type:alpha" maskUnits="userSpaceOnUse" x="0" y="0" width="24" height="24"><path d="M24 0H0v24h24V0Z" fill="#fff"/></mask><g mask="url(#a)" fill-rule="evenodd" clip-rule="evenodd" fill="currentColor"><path d="M1.923 13.73c.68 1.29 1.7 2.37 2.95 3.12 1.24.75 2.67 1.15 4.13 1.15v3h2v-3h6.5a5.532 5.532 0 0 0 4.07-1.8c.51-.57.9-1.24 1.14-1.96.25-.73.33-1.5.26-2.26-.07-.77-.3-1.51-.68-2.17-.38-.67-.89-1.25-1.5-1.71-.61-.46-1.31-.79-2.06-.96a5.43 5.43 0 0 0-2.27-.04 8.016 8.016 0 0 0-2.57-3.43 8.075 8.075 0 0 0-3.98-1.62 8.09 8.09 0 0 0-4.23.67 8.001 8.001 0 0 0-3.28 2.76 8.1 8.1 0 0 0-1.39 4.06c-.08 1.45.23 2.9.91 4.19Z"/><path d="M13 23h2v-3h-2v3Z"/></g></svg>