<svg xmlns="http://www.w3.org/2000/svg" xmlns:xlink="http://www.w3.org/1999/xlink" viewBox="0 0 24 24" fill="none"><defs><rect id="path_0" x="0" y="0" width="24" height="24" /></defs><g opacity="1" transform="translate(0 0)  rotate(0 12 12)"><mask id="bg-mask-0" fill="white"><use xlink:href="#path_0"></use></mask><g mask="url(#bg-mask-0)" ><g opacity="1" transform="translate(1.0025660703009418 2.000000348985436)  rotate(0 10.997147477972604 10.499999825507281)"><path id="路径 1" fill-rule="evenodd" style="fill:#000000" transform="translate(0 0)  rotate(0 10.997147477972604 9.499999825507281)" opacity="1" d="M0.92,11.73C1.6,13.02 2.62,14.1 3.87,14.85C5.11,15.6 6.54,16 8,16L8,19L10,19L10,16L16.5,16C17.26,16 18.02,15.84 18.72,15.53C19.42,15.22 20.05,14.77 20.57,14.2C21.08,13.63 21.47,12.96 21.71,12.24C21.96,11.51 22.04,10.74 21.97,9.98C21.9,9.21 21.67,8.47 21.29,7.81C20.91,7.14 20.4,6.56 19.79,6.1C19.18,5.64 18.48,5.31 17.73,5.14C16.98,4.97 16.21,4.95 15.46,5.1C14.93,3.74 14.04,2.56 12.89,1.67C11.73,0.78 10.36,0.22 8.91,0.05C7.47,-0.11 6,0.12 4.68,0.72C3.35,1.33 2.22,2.28 1.4,3.48C0.58,4.68 0.1,6.09 0.01,7.54C-0.07,8.99 0.24,10.44 0.92,11.73Z " /><path id="路径 2" fill-rule="evenodd" style="fill:#000000" transform="translate(11.997433929699058 17.999999651014562)  rotate(0 1 1.5)" opacity="1" d="M0,3L2,3L2,0L0,0L0,3Z " /></g></g></g></svg>