<svg xmlns="http://www.w3.org/2000/svg" xmlns:xlink="http://www.w3.org/1999/xlink" viewBox="0 0 24 24" fill="none"><defs><rect id="path_0" x="0" y="0" width="24" height="24" /></defs><g opacity="1" transform="translate(0 0)  rotate(0 12 12)"><mask id="bg-mask-0" fill="white"><use xlink:href="#path_0"></use></mask><g mask="url(#bg-mask-0)" ><path id="路径 1" fill-rule="evenodd" style="fill:#000000" transform="translate(3.00000101471592 0.27197299999999913)  rotate(0 8.999997882489595 10.8639635)" opacity="1" d="M14,20.21C15.48,19.22 16.63,17.82 17.31,16.17C18,14.53 18.17,12.72 17.83,10.97C17.48,9.23 16.62,7.62 15.36,6.36L9,0L2.64,6.36C1.38,7.62 0.52,9.23 0.17,10.97C-0.17,12.72 0,14.53 0.69,16.17C1.37,17.82 2.52,19.22 4,20.21C5.48,21.2 7.22,21.73 9,21.73C10.78,21.73 12.52,21.2 14,20.21Z " /></g></g></svg>