<svg width="24" height="24" fill="none" xmlns="http://www.w3.org/2000/svg"><mask id="a" style="mask-type:alpha" maskUnits="userSpaceOnUse" x="0" y="0" width="24" height="24"><path d="M24 0H0v24h24V0Z" fill="#fff"/></mask><g mask="url(#a)"><path fill-rule="evenodd" clip-rule="evenodd" d="M5.13 11.63a7.008 7.008 0 0 0 10.76 7.19 7.008 7.008 0 0 0 2.98-7.19c-.27-1.35-.94-2.6-1.92-3.58L12 3.1 7.05 8.05c-.98.98-1.65 2.23-1.92 3.58Zm13.23-4.998L12 .272l-6.36 6.36a9.055 9.055 0 0 0-2.47 4.61c-.34 1.75-.17 3.56.52 5.2a8.994 8.994 0 0 0 8.31 5.56 8.994 8.994 0 0 0 8.31-5.56c.69-1.64.86-3.45.52-5.2a9.055 9.055 0 0 0-2.47-4.61Z" fill="currentColor"/></g></svg>