<svg width="24" height="24" fill="none" xmlns="http://www.w3.org/2000/svg"><mask id="a" style="mask-type:alpha" maskUnits="userSpaceOnUse" x="0" y="0" width="24" height="24"><path d="M24 0H0v24h24V0Z" fill="#fff"/></mask><g mask="url(#a)"><path fill-rule="evenodd" clip-rule="evenodd" d="M17 20.482a8.962 8.962 0 0 0 3.31-4.04c.69-1.64.86-3.45.52-5.2a9.055 9.055 0 0 0-2.47-4.61L12 .272l-6.36 6.36a9.055 9.055 0 0 0-2.47 4.61c-.34 1.75-.17 3.56.52 5.2a8.994 8.994 0 0 0 8.31 5.56c1.78 0 3.52-.53 5-1.52Z" fill="currentColor"/></g></svg>