<svg xmlns="http://www.w3.org/2000/svg" xmlns:xlink="http://www.w3.org/1999/xlink" viewBox="0 0 24 24" fill="none"><defs><rect id="path_0" x="0" y="0" width="24" height="24" /></defs><g opacity="1" transform="translate(0 0)  rotate(0 12 12)"><mask id="bg-mask-0" fill="white"><use xlink:href="#path_0"></use></mask><g mask="url(#bg-mask-0)" ><path id="分组 1" fill-rule="evenodd" style="fill:#000000" transform="translate(2 2)  rotate(0 10 10)" opacity="1" d="M14.1161 11.045C14.4461 11.535 14.6861 11.645 15.0561 11.805C15.2261 11.885 15.4261 11.975 15.7061 12.135C16.3561 12.505 16.3561 12.925 16.3561 13.845L16.3561 13.955C16.3561 14.345 16.3161 14.685 16.2561 14.985C17.0261 14.025 17.5561 12.895 17.8161 11.695C18.0761 10.485 18.0561 9.245 17.7561 8.045C17.4561 6.855 16.8861 5.745 16.0861 4.805C15.2861 3.875 14.2861 3.135 13.1561 2.645C12.5961 3.015 11.8361 3.545 11.5761 3.915C11.4361 4.095 11.2461 5.045 10.6261 5.125C10.4661 5.145 10.2461 5.125 10.0161 5.115C9.38607 5.075 8.53607 5.015 8.26607 5.755C8.09607 6.225 8.06607 7.495 8.62607 8.155C8.71607 8.265 8.72607 8.455 8.66607 8.675C8.58607 8.965 8.42607 9.135 8.37607 9.175C8.28607 9.115 8.08607 8.895 7.95607 8.745C7.64607 8.375 7.25607 7.925 6.74607 7.785C6.56607 7.735 6.36607 7.685 6.16607 7.645C5.61607 7.535 4.99607 7.405 4.84607 7.095C4.74607 6.865 4.74607 6.555 4.74607 6.225C4.74607 5.815 4.74607 5.345 4.53607 4.885C4.46607 4.715 4.36607 4.575 4.23607 4.455C2.95607 5.775 2.17607 7.495 2.02607 9.325C1.86607 11.165 2.34607 12.985 3.38607 14.505C4.41607 16.025 5.94607 17.145 7.70607 17.665C9.46607 18.195 11.3561 18.095 13.0561 17.395C13.1661 16.645 12.9161 15.925 12.8161 15.675C12.5861 15.115 11.8261 14.155 10.5561 12.835C10.2161 12.475 10.2461 12.205 10.3661 11.395L10.3761 11.305C10.4561 10.745 10.5961 10.425 12.4661 10.125C13.4061 9.975 13.6561 10.355 14.0061 10.875L14.1161 11.045Z M20 10C20 4.48 15.52 0 10 0C4.48 0 0 4.48 0 10C0 15.52 4.48 20 10 20C15.52 20 20 15.52 20 10Z " /></g></g></svg>