<svg width="24" height="24" fill="none" xmlns="http://www.w3.org/2000/svg"><mask id="a" style="mask-type:alpha" maskUnits="userSpaceOnUse" x="0" y="0" width="24" height="24"><path d="M24 0H0v24h24V0Z" fill="#fff"/></mask><g mask="url(#a)"><path fill-rule="evenodd" clip-rule="evenodd" d="M22 12c0-5.52-4.48-10-10-10S2 6.48 2 12s4.48 10 10 10 10-4.48 10-10Zm-3.647 3.952v-.1c0-.93 0-1.35-.65-1.72-.21-.12-.42-.23-.65-.33-.36-.16-.61-.27-.93-.75-.04-.06-.08-.12-.12-.17-.34-.53-.59-.91-1.54-.76-1.87.3-2 .63-2.09 1.18l-.01.09c-.12.81-.14 1.08.2 1.44 1.26 1.33 2.02 2.28 2.25 2.84.11.28.4 1.1.2 1.92 1.21-.48 2.3-1.25 3.15-2.24.11-.37.19-.84.19-1.4ZM6.854 9.093c.14.31.76.44 1.31.55.2.05.4.09.58.14.51.14.9.59 1.21.96.14.15.33.37.43.43.05-.04.21-.21.29-.5.06-.22.04-.41-.05-.52-.56-.66-.53-1.93-.36-2.4.28-.74 1.13-.68 1.75-.64.23.01.45.03.61.01.62-.08.82-1.03.95-1.21.29-.4 1.19-1.01 1.74-1.38-1.04-.46-2.17-.7-3.31-.7-2.32 0-4.41.97-5.9 2.52.18.12.33.29.44.53.2.46.2.93.2 1.35 0 .32 0 .64.11.86Z" fill="currentColor"/></g></svg>