<svg width="24" height="24" fill="none" xmlns="http://www.w3.org/2000/svg"><mask id="a" style="mask-type:alpha" maskUnits="userSpaceOnUse" x="0" y="0" width="24" height="24"><path d="M24 0H0v24h24V0Z" fill="#fff"/></mask><g mask="url(#a)"><path fill-rule="evenodd" clip-rule="evenodd" d="M16.116 13.045c.33.49.57.6.94.76.17.08.37.17.65.33.65.37.65.79.65 1.71v.11c0 .39-.04.73-.1 1.03.77-.96 1.3-2.09 1.56-3.29.26-1.21.24-2.45-.06-3.65-.3-1.19-.87-2.3-1.67-3.24-.8-.93-1.8-1.67-2.93-2.16-.56.37-1.32.9-1.58 1.27-.14.18-.33 1.13-.95 1.21-.16.02-.38 0-.61-.01-.63-.04-1.48-.1-1.75.64-.17.47-.2 1.74.36 2.4.09.11.1.3.04.52-.08.29-.24.46-.29.5-.09-.06-.29-.28-.42-.43-.31-.37-.7-.82-1.21-.96-.18-.05-.38-.1-.58-.14-.55-.11-1.17-.24-1.32-.55-.1-.23-.1-.54-.1-.87 0-.41 0-.88-.21-1.34-.07-.17-.17-.31-.3-.43a7.922 7.922 0 0 0-2.21 4.87c-.16 1.84.32 3.66 1.36 5.18a7.945 7.945 0 0 0 4.32 3.16c1.76.53 3.65.43 5.35-.27.11-.75-.14-1.47-.24-1.72-.23-.56-.99-1.52-2.26-2.84-.34-.36-.31-.63-.19-1.44l.01-.09c.08-.56.22-.88 2.09-1.18.94-.15 1.19.23 1.54.75l.11.17ZM22 12c0-5.52-4.48-10-10-10S2 6.48 2 12s4.48 10 10 10 10-4.48 10-10Z" fill="currentColor"/></g></svg>