<svg xmlns="http://www.w3.org/2000/svg" xmlns:xlink="http://www.w3.org/1999/xlink" width="24" height="24" viewBox="0 0 24 24" fill="none"><defs><rect id="path_0" x="0" y="0" width="24" height="24" /></defs><g opacity="1" transform="translate(0 0)  rotate(0 12 12)"><mask id="bg-mask-0" fill="white"><use xlink:href="#path_0"></use></mask><g mask="url(#bg-mask-0)" ><path id="分组 1" fill-rule="evenodd" style="fill:#000000" transform="translate(2 2)  rotate(0 10 10)" opacity="1" d="M20 10C20 4.48 15.52 0 10 0C4.48 0 0 4.48 0 10C0 15.52 4.48 20 10 20C15.52 20 20 15.52 20 10Z M16.353 13.9519L16.353 13.8519C16.353 12.9219 16.353 12.5019 15.703 12.1319C15.493 12.0119 15.283 11.9019 15.053 11.8019C14.693 11.6419 14.443 11.5319 14.123 11.0519C14.083 10.9919 14.043 10.9319 14.003 10.8819C13.663 10.3519 13.413 9.97185 12.463 10.1219C10.593 10.4219 10.463 10.7519 10.373 11.3019L10.363 11.3919C10.243 12.2019 10.223 12.4719 10.563 12.8319C11.823 14.1619 12.583 15.1119 12.813 15.6719C12.923 15.9519 13.213 16.7719 13.013 17.5919C14.223 17.1119 15.313 16.3419 16.163 15.3519C16.273 14.9819 16.353 14.5119 16.353 13.9519Z M4.854 7.093C4.994 7.403 5.614 7.533 6.164 7.643C6.364 7.693 6.564 7.733 6.744 7.783C7.254 7.923 7.644 8.373 7.954 8.743C8.094 8.893 8.284 9.113 8.384 9.173C8.434 9.133 8.594 8.963 8.674 8.673C8.734 8.453 8.714 8.263 8.624 8.153C8.064 7.493 8.094 6.223 8.264 5.753C8.544 5.013 9.394 5.073 10.014 5.113C10.244 5.123 10.464 5.143 10.624 5.123C11.244 5.043 11.444 4.093 11.574 3.913C11.864 3.513 12.764 2.903 13.314 2.533C12.274 2.073 11.144 1.833 10.004 1.833C7.684 1.833 5.594 2.803 4.104 4.353C4.284 4.473 4.434 4.643 4.544 4.883C4.744 5.343 4.744 5.813 4.744 6.233C4.744 6.553 4.744 6.873 4.854 7.093Z " /></g></g></svg>