<svg width="24" height="24" fill="none" xmlns="http://www.w3.org/2000/svg"><mask id="a" style="mask-type:alpha" maskUnits="userSpaceOnUse" x="0" y="0" width="24" height="24"><path d="M24 0H0v24h24V0Z" fill="#fff"/></mask><g mask="url(#a)"><path fill-rule="evenodd" clip-rule="evenodd" d="m6.41 19.002 9.32-9.32-1.42-1.41L5 17.582v1.42h1.41ZM17.14 3.029c-.26 0-.52.11-.71.29L3 16.76V21h18v-2H9.24L20.68 7.57c.19-.19.29-.45.29-.71 0-.27-.1-.52-.29-.71l-2.83-2.83c-.19-.18-.44-.29-.71-.29Zm-.002 5.245 1.42-1.42-1.42-1.41-1.41 1.41 1.41 1.42Z" fill="currentColor"/></g></svg>