<svg width="24" height="24" fill="none" xmlns="http://www.w3.org/2000/svg"><mask id="a" style="mask-type:alpha" maskUnits="userSpaceOnUse" x="0" y="0" width="24" height="24"><path d="M24 0H0v24h24V0Z" fill="#fff"/></mask><g mask="url(#a)" fill-rule="evenodd" clip-rule="evenodd" fill="currentColor"><path d="M12.69 4.03c.84.07 1.66.27 2.44.6l1.5-1.5C15.2 2.39 13.61 2 12 2 6.48 2 2 6.48 2 12s4.48 10 10 10 10-4.48 10-10c0-1.61-.39-3.2-1.13-4.63l-1.5 1.51c.33.77.53 1.6.6 2.44.14 1.63-.22 3.27-1.05 4.69a8.001 8.001 0 0 1-12.58 1.65A8.001 8.001 0 0 1 7.99 5.08a7.944 7.944 0 0 1 4.69-1.05h.01Z"/><path d="M11.294 11.29v1.42h1.41l9.2-9.19-1.42-1.42-9.19 9.19Z"/></g></svg>