<svg xmlns="http://www.w3.org/2000/svg" xmlns:xlink="http://www.w3.org/1999/xlink" viewBox="0 0 24 24" fill="none"><defs><rect id="path_0" x="0" y="0" width="24" height="24" /></defs><g opacity="1" transform="translate(0 0)  rotate(0 12 12)"><mask id="bg-mask-0" fill="white"><use xlink:href="#path_0"></use></mask><g mask="url(#bg-mask-0)" ><g opacity="1" transform="translate(2 1.9999960654794595)  rotate(0 10.000011062862871 10.00000196726027)"><path id="路径 1" fill-rule="evenodd" style="fill:#000000" transform="translate(0 0)  rotate(0 10.000011062862871 10.00000196726027)" opacity="1" d="M10.69,2.03C11.53,2.1 12.35,2.3 13.13,2.63L14.63,1.13C13.2,0.39 11.61,0 10,0C4.48,0 0,4.48 0,10C0,15.52 4.48,20 10,20C15.52,20 20,15.52 20,10C20,8.39 19.61,6.8 18.87,5.37L17.37,6.88C17.7,7.65 17.9,8.48 17.97,9.32C18.11,10.95 17.75,12.59 16.92,14.01C16.1,15.43 14.86,16.56 13.38,17.25C11.89,17.95 10.22,18.16 8.61,17.88C6.99,17.59 5.5,16.82 4.34,15.66C3.18,14.5 2.41,13.01 2.12,11.39C1.84,9.78 2.05,8.11 2.75,6.62C3.44,5.14 4.57,3.9 5.99,3.08C7.41,2.25 9.05,1.89 10.68,2.03L10.69,2.03Z " /><path id="路径 2" fill-rule="evenodd" style="fill:#000000" transform="translate(9.294 0.10000393452054035)  rotate(0 5.302999999999999 5.305000000000001)" opacity="1" d="M0,9.19L0,10.61L1.41,10.61L10.61,1.42L9.19,0L0,9.19Z " /></g></g></g></svg>