<svg xmlns="http://www.w3.org/2000/svg" xmlns:xlink="http://www.w3.org/1999/xlink" width="24" height="24" viewBox="0 0 24 24" fill="none"><defs><rect id="path_0" x="0" y="0" width="24" height="24" /></defs><g opacity="1" transform="translate(0 0)  rotate(0 12 12)"><mask id="bg-mask-0" fill="white"><use xlink:href="#path_0"></use></mask><g mask="url(#bg-mask-0)" ><g opacity="1" transform="translate(2 2)  rotate(0 10.000004230945358 10)"><path id="路径 1" fill-rule="evenodd" style="fill:#000000" transform="translate(0 0)  rotate(0 10.000004230945358 10)" opacity="1" d="M14.63,1.13C13.24,0.41 11.67,0 10,0C4.48,0 0,4.48 0,10C0,15.52 4.48,20 10,20C15.52,20 20,15.52 20,10C20,8.39 19.61,6.8 18.87,5.37L11.54,12.71L7.3,12.71L7.29,8.47L14.63,1.13Z " /><path id="路径 2" fill-rule="evenodd" style="fill:#000000" transform="translate(9.293 0.10000000000000009)  rotate(0 5.303000000000001 5.305000000000001)" opacity="1" d="M9.19,0L0,9.19L0,10.61L1.41,10.61L10.61,1.42L9.19,0L9.19,0Z " /></g></g></g></svg>