<svg width="24" height="24" fill="none" xmlns="http://www.w3.org/2000/svg"><mask id="a" style="mask-type:alpha" maskUnits="userSpaceOnUse" x="0" y="0" width="24" height="24"><path d="M24 0H0v24h24V0Z" fill="#fff"/></mask><g mask="url(#a)" fill-rule="evenodd" clip-rule="evenodd" fill="currentColor"><path d="M4 21h16c.27 0 .52-.11.71-.29.18-.19.29-.44.29-.71V7.24l-7.46 7.47H9.3l-.01-4.24L16.76 3H4c-.27 0-.52.11-.71.29-.18.19-.29.44-.29.71v16c0 .27.11.52.29.71.19.18.44.29.71.29Z"/><path d="M11.294 11.29v1.42h1.41l9.2-9.19-1.42-1.42-9.19 9.19Z"/></g></svg>