<svg xmlns="http://www.w3.org/2000/svg" xmlns:xlink="http://www.w3.org/1999/xlink" width="24" height="24" viewBox="0 0 24 24" fill="none"><defs><rect id="path_0" x="0" y="0" width="24" height="24" /></defs><g opacity="1" transform="translate(0 0)  rotate(0 12 12)"><mask id="bg-mask-0" fill="white"><use xlink:href="#path_0"></use></mask><g mask="url(#bg-mask-0)" ><g opacity="1" transform="translate(3 3.0291700000000006)  rotate(0 9 8.985415)"><path id="路径 1" fill-rule="evenodd" style="fill:#000000" transform="translate(0 3.82779)  rotate(0 9 7.07152)" opacity="1" d="M6.24,12.14L14.14,4.24L9.9,0L0,9.9L0,14.14L18,14.14L18,12.14L6.24,12.14L6.24,12.14Z " /><path id="路径 2" fill-rule="evenodd" style="fill:#000000" transform="translate(11.313 0)  rotate(0 3.3289 3.3283949999999995)" opacity="1" d="M2.12,0.29L0,2.41L0,2.41L4.24,6.66L6.37,4.54C6.55,4.35 6.66,4.09 6.66,3.83C6.66,3.56 6.55,3.31 6.37,3.12L3.54,0.29C3.35,0.11 3.09,0 2.83,0C2.56,0 2.31,0.11 2.12,0.29Z " /></g></g></g></svg>