<svg xmlns="http://www.w3.org/2000/svg" xmlns:xlink="http://www.w3.org/1999/xlink" viewBox="0 0 24 24" fill="none"><defs><rect id="path_0" x="0" y="0" width="24" height="24" /></defs><g opacity="1" transform="translate(0 0)  rotate(0 12 12)"><mask id="bg-mask-0" fill="white"><use xlink:href="#path_0"></use></mask><g mask="url(#bg-mask-0)" ><g opacity="1" transform="translate(3 2.0999800000000004)  rotate(0 9.45 9.450009999999999)"><path id="路径 1" fill-rule="evenodd" style="fill:#000000" transform="translate(0 0.8999999999999999)  rotate(0 9 9.00001)" opacity="1" d="M18,4.24L16,6.24L16,16L2,16L2,2L11.76,2L13.76,0L1,0C0.73,0 0.48,0.11 0.29,0.29C0.11,0.48 0,0.73 0,1L0,17C0,17.27 0.11,17.52 0.29,17.71C0.48,17.89 0.73,18 1,18L17,18C17.27,18 17.52,17.89 17.71,17.71C17.89,17.52 18,17.27 18,17L18,4.24Z " /><path id="路径 2" fill-rule="evenodd" style="fill:#000000" transform="translate(8.294 0)  rotate(0 5.302999999999999 5.30551)" opacity="1" d="M0,9.19L0,10.61L1.41,10.61L10.61,1.42L9.19,0L0,9.19Z " /></g></g></g></svg>