<svg width="24" height="24" fill="none" xmlns="http://www.w3.org/2000/svg"><mask id="a" style="mask-type:alpha" maskUnits="userSpaceOnUse" x="0" y="0" width="24" height="24"><path d="M24 0H0v24h24V0Z" fill="#fff"/></mask><g mask="url(#a)"><path fill-rule="evenodd" clip-rule="evenodd" d="m16.267 12.996-4.27-6.39-4.26 6.39h8.53Zm2.797 2.005c.09 0 .18-.03.26-.07.08-.05.14-.12.18-.2.04-.08.07-.16.06-.26 0-.09-.03-.17-.08-.25l-7.07-10.6a.464.464 0 0 0-.18-.16.465.465 0 0 0-.23-.06c-.09 0-.17.02-.24.06-.07.04-.13.09-.18.16l-7.07 10.6c-.05.08-.08.16-.08.25 0 .1.02.18.06.26.04.08.11.15.18.2.08.04.17.07.26.07h14.13Zm.646 3.709c.18-.19.29-.44.29-.71 0-.27-.11-.52-.29-.71-.19-.18-.44-.29-.71-.29H5c-.27 0-.52.11-.71.29-.18.19-.29.44-.29.71 0 .27.11.52.29.71.19.18.44.29.71.29h14c.27 0 .52-.11.71-.29Z" fill="currentColor"/></g></svg>