<svg xmlns="http://www.w3.org/2000/svg" xmlns:xlink="http://www.w3.org/1999/xlink" viewBox="0 0 24 24" fill="none"><defs><rect id="path_0" x="0" y="0" width="24" height="24" /></defs><g opacity="1" transform="translate(0 0)  rotate(0 12 12)"><mask id="bg-mask-0" fill="white"><use xlink:href="#path_0"></use></mask><g mask="url(#bg-mask-0)" ><g opacity="1" transform="translate(4 3.40137)  rotate(0 8 7.799315)"><path id="路径 1" fill-rule="evenodd" style="fill:#000000" transform="translate(0.43425909395997486 0)  rotate(0 7.565753051464285 5.799315)" opacity="1" d="M15.13,11.07C15.13,10.98 15.1,10.9 15.05,10.82L7.98,0.22C7.94,0.15 7.87,0.1 7.8,0.06C7.73,0.02 7.65,0 7.57,0C7.48,0 7.4,0.02 7.33,0.06C7.26,0.1 7.2,0.15 7.15,0.22L0.08,10.82C0.03,10.9 0,10.98 0,11.07C0,11.17 0.02,11.25 0.06,11.33C0.1,11.41 0.17,11.48 0.24,11.53C0.32,11.57 0.41,11.6 0.5,11.6L14.63,11.6C14.72,11.6 14.81,11.57 14.89,11.53C14.97,11.48 15.03,11.41 15.07,11.33C15.11,11.25 15.14,11.17 15.13,11.07Z " /><path id="路径 2" fill-rule="evenodd" style="fill:#000000" transform="translate(0 13.59863)  rotate(0 8 1)" opacity="1" d="M1,2L15,2C15.27,2 15.52,1.89 15.71,1.71C15.89,1.52 16,1.27 16,1C16,0.73 15.89,0.48 15.71,0.29C15.52,0.11 15.27,0 15,0L1,0C0.73,0 0.48,0.11 0.29,0.29C0.11,0.48 0,0.73 0,1C0,1.27 0.11,1.52 0.29,1.71C0.48,1.89 0.73,2 1,2Z " /></g></g></g></svg>