<svg xmlns="http://www.w3.org/2000/svg" xmlns:xlink="http://www.w3.org/1999/xlink" width="24" height="24" viewBox="0 0 24 24" fill="none"><defs><rect id="path_0" x="0" y="0" width="24" height="24" /></defs><g opacity="1" transform="translate(0 0)  rotate(0 12 12)"><mask id="bg-mask-0" fill="white"><use xlink:href="#path_0"></use></mask><g mask="url(#bg-mask-0)" ><path id="分组 1" fill-rule="evenodd" style="fill:#000000" transform="translate(4 3.40137)  rotate(0 8 7.799315)" opacity="1" d="M12.267 9.59461L7.997 3.20461L3.737 9.59461L12.267 9.59461Z M15.0643 11.6C15.1543 11.6 15.2443 11.57 15.3243 11.53C15.4043 11.48 15.4643 11.41 15.5043 11.33C15.5443 11.25 15.5743 11.17 15.5643 11.07C15.5643 10.98 15.5343 10.9 15.4843 10.82L8.41426 0.22C8.37426 0.15 8.30426 0.1 8.23426 0.06C8.16426 0.02 8.08426 0 8.00426 0C7.91426 0 7.83426 0.02 7.76426 0.06C7.69426 0.1 7.63426 0.15 7.58426 0.22L0.514259 10.82C0.464259 10.9 0.434259 10.98 0.434259 11.07C0.434259 11.17 0.454259 11.25 0.494259 11.33C0.534259 11.41 0.604259 11.48 0.674259 11.53C0.754259 11.57 0.844259 11.6 0.934259 11.6L15.0643 11.6Z M15.71 15.3086C15.89 15.1186 16 14.8686 16 14.5986C16 14.3286 15.89 14.0786 15.71 13.8886C15.52 13.7086 15.27 13.5986 15 13.5986L1 13.5986C0.73 13.5986 0.48 13.7086 0.29 13.8886C0.11 14.0786 0 14.3286 0 14.5986C0 14.8686 0.11 15.1186 0.29 15.3086C0.48 15.4886 0.73 15.5986 1 15.5986L15 15.5986C15.27 15.5986 15.52 15.4886 15.71 15.3086Z " /></g></g></svg>