<svg xmlns="http://www.w3.org/2000/svg" xmlns:xlink="http://www.w3.org/1999/xlink" width="24" height="24" viewBox="0 0 24 24" fill="none"><defs><rect id="path_0" x="0" y="0" width="24" height="24" /></defs><g opacity="1" transform="translate(0 0)  rotate(0 12 12)"><mask id="bg-mask-0" fill="white"><use xlink:href="#path_0"></use></mask><g mask="url(#bg-mask-0)" ><path id="分组 1" fill-rule="evenodd" style="fill:#000000" transform="translate(2 2)  rotate(0 10 10)" opacity="1" d="M20 10C20 4.48 15.52 0 10 0C4.48 0 0 4.48 0 10C0 15.52 4.48 20 10 20C15.52 20 20 15.52 20 10Z M15.66 15.66C17.16 14.16 18 12.12 18 10C18 7.88 17.16 5.84 15.66 4.34C14.16 2.84 12.12 2 10 2C7.88 2 5.84 2.84 4.34 4.34C2.84 5.84 2 7.88 2 10C2 12.12 2.84 14.16 4.34 15.66C5.84 17.16 7.88 18 10 18C12.12 18 14.16 17.16 15.66 15.66Z M15 15C15 13.67 14.47 12.4 13.54 11.46C12.6 10.53 11.33 10 10 10C8.67 10 7.4 10.53 6.46 11.46C5.53 12.4 5 13.67 5 15L7 15C7 14.2 7.32 13.44 7.88 12.88C8.44 12.32 9.2 12 10 12C10.8 12 11.56 12.32 12.12 12.88C12.68 13.44 13 14.2 13 15L15 15Z M7.06 8.56C7.34 8.28 7.5 7.9 7.5 7.5C7.5 7.1 7.34 6.72 7.06 6.44C6.78 6.16 6.4 6 6 6C5.6 6 5.22 6.16 4.94 6.44C4.66 6.72 4.5 7.1 4.5 7.5C4.5 7.9 4.66 8.28 4.94 8.56C5.22 8.84 5.6 9 6 9C6.4 9 6.78 8.84 7.06 8.56Z M15.06 8.56C15.34 8.28 15.5 7.9 15.5 7.5C15.5 7.1 15.34 6.72 15.06 6.44C14.78 6.16 14.4 6 14 6C13.6 6 13.22 6.16 12.94 6.44C12.66 6.72 12.5 7.1 12.5 7.5C12.5 7.9 12.66 8.28 12.94 8.56C13.22 8.84 13.6 9 14 9C14.4 9 14.78 8.84 15.06 8.56Z " /></g></g></svg>