<svg xmlns="http://www.w3.org/2000/svg" xmlns:xlink="http://www.w3.org/1999/xlink" viewBox="0 0 24 24" fill="none"><defs><rect id="path_0" x="0" y="0" width="24" height="24" /></defs><g opacity="1" transform="translate(0 0)  rotate(0 12 12)"><mask id="bg-mask-0" fill="white"><use xlink:href="#path_0"></use></mask><g mask="url(#bg-mask-0)" ><path id="分组 1" fill-rule="evenodd" style="fill:#000000" transform="translate(2 2)  rotate(0 10 10)" opacity="1" d="M20 10C20 4.48 15.52 0 10 0C4.48 0 0 4.48 0 10C0 15.52 4.48 20 10 20C15.52 20 20 15.52 20 10Z M6 14L14 14L14 12L6 12L6 14Z M7.06 8.56C7.34 8.28 7.5 7.9 7.5 7.5C7.5 7.1 7.34 6.72 7.06 6.44C6.78 6.16 6.4 6 6 6C5.6 6 5.22 6.16 4.94 6.44C4.66 6.72 4.5 7.1 4.5 7.5C4.5 7.9 4.66 8.28 4.94 8.56C5.22 8.84 5.6 9 6 9C6.4 9 6.78 8.84 7.06 8.56Z M15.06 8.56C15.34 8.28 15.5 7.9 15.5 7.5C15.5 7.1 15.34 6.72 15.06 6.44C14.78 6.16 14.4 6 14 6C13.6 6 13.22 6.16 12.94 6.44C12.66 6.72 12.5 7.1 12.5 7.5C12.5 7.9 12.66 8.28 12.94 8.56C13.22 8.84 13.6 9 14 9C14.4 9 14.78 8.84 15.06 8.56Z " /></g></g></svg>