<svg width="24" height="24" fill="none" xmlns="http://www.w3.org/2000/svg"><mask id="a" style="mask-type:alpha" maskUnits="userSpaceOnUse" x="0" y="0" width="24" height="24"><path d="M24 0H0v24h24V0Z" fill="#fff"/></mask><g mask="url(#a)"><path fill-rule="evenodd" clip-rule="evenodd" d="M22 12c0-5.52-4.48-10-10-10S2 6.48 2 12s4.48 10 10 10 10-4.48 10-10ZM8 16h8v-2H8v2Zm1.06-5.44a1.499 1.499 0 1 0-2.12-2.12 1.499 1.499 0 1 0 2.12 2.12Zm8 0a1.499 1.499 0 1 0-2.12-2.12 1.499 1.499 0 1 0 2.12 2.12Z" fill="currentColor"/></g></svg>