<svg width="24" height="24" fill="none" xmlns="http://www.w3.org/2000/svg"><mask id="a" style="mask-type:alpha" maskUnits="userSpaceOnUse" x="0" y="0" width="24" height="24"><path d="M24 0H0v24h24V0Z" fill="#fff"/></mask><g mask="url(#a)"><path fill-rule="evenodd" clip-rule="evenodd" d="M22 12c0-5.52-4.48-10-10-10S2 6.48 2 12s4.48 10 10 10 10-4.48 10-10Zm-4.34 5.66C19.16 16.16 20 14.12 20 12s-.84-4.16-2.34-5.66A8.008 8.008 0 0 0 12 4c-2.12 0-4.16.84-5.66 2.34A8.008 8.008 0 0 0 4 12c0 2.12.84 4.16 2.34 5.66S9.88 20 12 20s4.16-.84 5.66-2.34ZM12 18c1.33 0 2.6-.53 3.54-1.46C16.47 15.6 17 14.33 17 13h-2c0 .8-.32 1.56-.88 2.12A2.997 2.997 0 0 1 9 13H7c0 1.33.53 2.6 1.46 3.54C9.4 17.47 10.67 18 12 18Zm-2.94-7.44a1.499 1.499 0 1 0-2.12-2.12 1.499 1.499 0 1 0 2.12 2.12Zm8 0a1.499 1.499 0 1 0-2.12-2.12 1.499 1.499 0 1 0 2.12 2.12Z" fill="currentColor"/></g></svg>