<svg width="24" height="24" fill="none" xmlns="http://www.w3.org/2000/svg"><mask id="a" style="mask-type:alpha" maskUnits="userSpaceOnUse" x="0" y="0" width="24" height="24"><path d="M24 0H0v24h24V0Z" fill="#fff"/></mask><g mask="url(#a)" fill-rule="evenodd" clip-rule="evenodd" fill="currentColor"><path d="M7.27 16.548c-.51.36-.89.87-1.1 1.45H2v2h4.17c.21.59.59 1.1 1.1 1.45.5.36 1.11.55 1.73.55.62 0 1.23-.19 1.73-.55.51-.35.89-.86 1.1-1.45H22v-2H11.83c-.21-.58-.59-1.09-1.1-1.45-.5-.36-1.11-.55-1.73-.55-.62 0-1.23.19-1.73.55ZM2 10.998v2h10.17c.21.59.59 1.1 1.1 1.45.5.36 1.11.55 1.73.55.62 0 1.23-.19 1.73-.55.51-.35.89-.86 1.1-1.45H22v-2h-4.17c-.21-.58-.59-1.09-1.1-1.45-.5-.36-1.11-.55-1.73-.55-.62 0-1.23.19-1.73.55-.51.36-.89.87-1.1 1.45H2ZM9 7.998c.62 0 1.23-.19 1.73-.55.51-.35.89-.86 1.1-1.45H22v-2H11.83c-.21-.58-.59-1.09-1.1-1.45-.5-.36-1.11-.55-1.73-.55-.62 0-1.23.19-1.73.55-.51.36-.89.87-1.1 1.45H2v2h4.17c.21.59.59 1.1 1.1 1.45.5.36 1.11.55 1.73.55Z"/></g></svg>