<svg width="24" height="24" fill="none" xmlns="http://www.w3.org/2000/svg"><mask id="a" style="mask-type:alpha" maskUnits="userSpaceOnUse" x="0" y="0" width="24" height="24"><path d="M24 0H0v24h24V0Z" fill="#fff"/></mask><g mask="url(#a)"><path fill-rule="evenodd" clip-rule="evenodd" d="M10.73 21.448c.51-.35.89-.86 1.1-1.45H22v-2H11.83c-.21-.58-.59-1.09-1.1-1.45-.5-.36-1.11-.55-1.73-.55-.62 0-1.23.19-1.73.55-.51.36-.89.87-1.1 1.45H2v2h4.17c.21.59.59 1.1 1.1 1.45.5.36 1.11.55 1.73.55.62 0 1.23-.19 1.73-.55ZM2 12.998h10.17c.21.59.59 1.1 1.1 1.45.5.36 1.11.55 1.73.55.62 0 1.23-.19 1.73-.55.51-.35.89-.86 1.1-1.45H22v-2h-4.17c-.21-.58-.59-1.09-1.1-1.45-.5-.36-1.11-.55-1.73-.55-.62 0-1.23.19-1.73.55-.51.36-.89.87-1.1 1.45H2v2Zm8.73-10.45c-.5-.36-1.11-.55-1.73-.55-.62 0-1.23.19-1.73.55-.51.36-.89.87-1.1 1.45H2v2h4.17c.21.59.59 1.1 1.1 1.45.5.36 1.11.55 1.73.55.62 0 1.23-.19 1.73-.55.51-.35.89-.86 1.1-1.45H22v-2H11.83c-.21-.58-.59-1.09-1.1-1.45ZM9.71 5.71c.18-.19.29-.44.29-.71 0-.27-.11-.52-.29-.71C9.52 4.11 9.27 4 9 4c-.27 0-.52.11-.71.29-.18.19-.29.44-.29.71 0 .27.11.52.29.71.19.18.44.29.71.29.27 0 .52-.11.71-.29Zm6 7c.18-.19.29-.44.29-.71 0-.27-.11-.52-.29-.71-.19-.18-.44-.29-.71-.29-.27 0-.52.11-.71.29-.18.19-.29.44-.29.71 0 .27.11.52.29.71.19.18.44.29.71.29.27 0 .52-.11.71-.29Zm-6 7c.18-.19.29-.44.29-.71 0-.27-.11-.52-.29-.71-.19-.18-.44-.29-.71-.29-.27 0-.52.11-.71.29-.18.19-.29.44-.29.71 0 .27.11.52.29.71.19.18.44.29.71.29.27 0 .52-.11.71-.29Z" fill="currentColor"/></g></svg>