<svg xmlns="http://www.w3.org/2000/svg" xmlns:xlink="http://www.w3.org/1999/xlink" viewBox="0 0 24 24" fill="none"><defs><rect id="path_0" x="0" y="0" width="24" height="24" /></defs><g opacity="1" transform="translate(0 0)  rotate(0 12 12)"><mask id="bg-mask-0" fill="white"><use xlink:href="#path_0"></use></mask><g mask="url(#bg-mask-0)" ><path id="分组 1" fill-rule="evenodd" style="fill:#000000" transform="translate(2 1.99756)  rotate(0 10 10.00247)" opacity="1" d="M8.73 19.45C9.24 19.1 9.62 18.59 9.83 18L20 18L20 16L9.83 16C9.62 15.42 9.24 14.91 8.73 14.55C8.23 14.19 7.62 14 7 14C6.38 14 5.77 14.19 5.27 14.55C4.76 14.91 4.38 15.42 4.17 16L0 16L0 18L4.17 18C4.38 18.59 4.76 19.1 5.27 19.45C5.77 19.81 6.38 20 7 20C7.62 20 8.23 19.81 8.73 19.45Z M0 11L10.17 11C10.38 11.59 10.76 12.1 11.27 12.45C11.77 12.81 12.38 13 13 13C13.62 13 14.23 12.81 14.73 12.45C15.24 12.1 15.62 11.59 15.83 11L20 11L20 9L15.83 9C15.62 8.42 15.24 7.91 14.73 7.55C14.23 7.19 13.62 7 13 7C12.38 7 11.77 7.19 11.27 7.55C10.76 7.91 10.38 8.42 10.17 9L0 9L0 11Z M8.73 0.55C8.23 0.19 7.62 0 7 0C6.38 0 5.77 0.19 5.27 0.55C4.76 0.91 4.38 1.42 4.17 2L0 2L0 4L4.17 4C4.38 4.59 4.76 5.1 5.27 5.45C5.77 5.81 6.38 6 7 6C7.62 6 8.23 5.81 8.73 5.45C9.24 5.1 9.62 4.59 9.83 4L20 4L20 2L9.83 2C9.62 1.42 9.24 0.91 8.73 0.55Z M7.71 3.71245C7.89 3.52245 8 3.27245 8 3.00245C8 2.73245 7.89 2.48245 7.71 2.29245C7.52 2.11245 7.27 2.00245 7 2.00245C6.73 2.00245 6.48 2.11245 6.29 2.29245C6.11 2.48245 6 2.73245 6 3.00245C6 3.27245 6.11 3.52245 6.29 3.71245C6.48 3.89245 6.73 4.00245 7 4.00245C7.27 4.00245 7.52 3.89245 7.71 3.71245Z M13.71 10.7124C13.89 10.5224 14 10.2724 14 10.0024C14 9.73244 13.89 9.48244 13.71 9.29244C13.52 9.11244 13.27 9.00244 13 9.00244C12.73 9.00244 12.48 9.11244 12.29 9.29244C12.11 9.48244 12 9.73244 12 10.0024C12 10.2724 12.11 10.5224 12.29 10.7124C12.48 10.8924 12.73 11.0024 13 11.0024C13.27 11.0024 13.52 10.8924 13.71 10.7124Z M7.71 17.7124C7.89 17.5224 8 17.2724 8 17.0024C8 16.7324 7.89 16.4824 7.71 16.2924C7.52 16.1124 7.27 16.0024 7 16.0024C6.73 16.0024 6.48 16.1124 6.29 16.2924C6.11 16.4824 6 16.7324 6 17.0024C6 17.2724 6.11 17.5224 6.29 17.7124C6.48 17.8924 6.73 18.0024 7 18.0024C7.27 18.0024 7.52 17.8924 7.71 17.7124Z " /></g></g></svg>