<svg xmlns="http://www.w3.org/2000/svg" xmlns:xlink="http://www.w3.org/1999/xlink" viewBox="0 0 24 24" fill="none"><defs><rect id="path_0" x="0" y="0" width="24" height="24" /></defs><g opacity="1" transform="translate(0 0)  rotate(0 12 12)"><mask id="bg-mask-0" fill="white"><use xlink:href="#path_0"></use></mask><g mask="url(#bg-mask-0)" ><g opacity="1" transform="translate(2 1.99756)  rotate(0 10 10.00247)"><path id="路径 1" fill-rule="evenodd" style="fill:#000000" transform="translate(0 14.00004)  rotate(0 10 3.0024500000000005)" opacity="1" d="M5.27,0.55C4.76,0.91 4.38,1.42 4.17,2L0,2L0,4L4.17,4C4.38,4.59 4.76,5.1 5.27,5.45C5.77,5.81 6.38,6 7,6C7.62,6 8.23,5.81 8.73,5.45C9.24,5.1 9.62,4.59 9.83,4L20,4L20,2L9.83,2C9.62,1.42 9.24,0.91 8.73,0.55C8.23,0.19 7.62,0 7,0C6.38,0 5.77,0.19 5.27,0.55Z " /><path id="路径 2" fill-rule="evenodd" style="fill:#000000" transform="translate(0 7)  rotate(0 10 3.0024699999999998)" opacity="1" d="M0,2L0,4L10.17,4C10.38,4.59 10.76,5.1 11.27,5.45C11.77,5.81 12.38,6 13,6C13.62,6 14.23,5.81 14.73,5.45C15.24,5.1 15.62,4.59 15.83,4L20,4L20,2L15.83,2C15.62,1.42 15.24,0.91 14.73,0.55C14.23,0.19 13.62,0 13,0C12.38,0 11.77,0.19 11.27,0.55C10.76,0.91 10.38,1.42 10.17,2L0,2Z " /><path id="路径 3" fill-rule="evenodd" style="fill:#000000" transform="translate(0 0)  rotate(0 10 3.0024499999999996)" opacity="1" d="M7,6C7.62,6 8.23,5.81 8.73,5.45C9.24,5.1 9.62,4.59 9.83,4L20,4L20,2L9.83,2C9.62,1.42 9.24,0.91 8.73,0.55C8.23,0.19 7.62,0 7,0C6.38,0 5.77,0.19 5.27,0.55C4.76,0.91 4.38,1.42 4.17,2L0,2L0,4L4.17,4C4.38,4.59 4.76,5.1 5.27,5.45C5.77,5.81 6.38,6 7,6Z " /></g></g></g></svg>