<svg xmlns="http://www.w3.org/2000/svg" xmlns:xlink="http://www.w3.org/1999/xlink" viewBox="0 0 24 24" fill="none"><defs><rect id="path_0" x="0" y="0" width="24" height="24" /></defs><g opacity="1" transform="translate(0 0)  rotate(0 12 12)"><mask id="bg-mask-0" fill="white"><use xlink:href="#path_0"></use></mask><g mask="url(#bg-mask-0)" ><g opacity="1" transform="translate(3 3)  rotate(0 9 9)"><path id="路径 1" fill-rule="evenodd" style="fill:#000000" transform="translate(0 3)  rotate(0 7.5 7.5)" opacity="1" d="M14.71,14.71C14.89,14.52 15,14.27 15,14L15,8L13,8L13,13L2,13L2,2L7,2L7,0L1,0C0.73,0 0.48,0.11 0.29,0.29C0.11,0.48 0,0.73 0,1L0,14C0,14.27 0.11,14.52 0.29,14.71C0.48,14.89 0.73,15 1,15L14,15C14.27,15 14.52,14.89 14.71,14.71Z " /><path id="路径 2" fill-rule="evenodd" style="fill:#000000" transform="translate(6.792999999999999 0)  rotate(0 5.6035 5.6035)" opacity="1" d="M7.79,2L0,9.79L1.41,11.21L9.21,3.41L9.21,8L11.21,8L11.21,0L3.21,0L3.21,2L7.79,2Z " /></g></g></g></svg>