<svg width="24" height="24" fill="none" xmlns="http://www.w3.org/2000/svg"><mask id="a" style="mask-type:alpha" maskUnits="userSpaceOnUse" x="0" y="0" width="24" height="24"><path d="M24 0H0v24h24V0Z" fill="#fff"/></mask><g mask="url(#a)" fill-rule="evenodd" clip-rule="evenodd" fill="currentColor"><path d="M17.71 20.71c.18-.19.29-.44.29-.71v-6h-2v5H5V8h5V6H4c-.27 0-.52.11-.71.29-.18.19-.29.44-.29.71v13c0 .27.11.52.29.71.19.18.44.29.71.29h13c.27 0 .52-.11.71-.29Z"/><path d="m17.583 5-7.79 7.79 1.41 1.42 7.8-7.8V11h2V3h-8v2h4.58Z"/></g></svg>