<svg width="24" height="24" fill="none" xmlns="http://www.w3.org/2000/svg"><mask id="a" style="mask-type:alpha" maskUnits="userSpaceOnUse" x="0" y="0" width="24" height="24"><path d="M24 0H0v24h24V0Z" fill="#fff"/></mask><g mask="url(#a)"><path fill-rule="evenodd" clip-rule="evenodd" d="M1.181 12.003c.94 5.12 5.43 9 10.82 9 2.08 0 4.12-.59 5.88-1.71l3.31 3.31 1.41-1.41-19.79-19.8-1.42 1.41 3.13 3.13a10.984 10.984 0 0 0-3.34 6.07Zm3.872 3.717a8.997 8.997 0 0 0 3.31 2.51 8.983 8.983 0 0 0 8.06-.39l-2.03-2.03c-.86.54-1.88.78-2.9.66a4.437 4.437 0 0 1-2.68-1.29 4.522 4.522 0 0 1-1.29-2.68c-.11-1.01.12-2.03.67-2.9l-2.26-2.25A9.002 9.002 0 0 0 3.223 12c.31 1.37.94 2.64 1.83 3.72Zm4.616-4.634c-.17.45-.22.95-.12 1.42.1.48.34.92.68 1.26.35.35.78.58 1.26.68.48.1.97.06 1.42-.12h.01l-3.25-3.24ZM20.774 12a8.725 8.725 0 0 1-1.4 3.16l1.43 1.43a10.77 10.77 0 0 0 2.01-4.59c-.94-5.12-5.42-9-10.81-9-1.42 0-2.78.27-4.03.76l1.58 1.58c1.17-.33 2.4-.42 3.61-.26 1.21.15 2.38.56 3.43 1.18 1.05.62 1.96 1.45 2.68 2.44.72.99 1.23 2.11 1.5 3.3Zm-9.052-4.49 4.77 4.77c.04-.64-.06-1.28-.28-1.87a4.544 4.544 0 0 0-2.62-2.62c-.59-.22-1.23-.32-1.87-.28Z" fill="currentColor"/></g></svg>