<svg width="24" height="24" fill="none" xmlns="http://www.w3.org/2000/svg"><mask id="a" style="mask-type:alpha" maskUnits="userSpaceOnUse" x="0" y="0" width="24" height="24"><path d="M24 0H0v24h24V0Z" fill="#fff"/></mask><g mask="url(#a)"><path fill-rule="evenodd" clip-rule="evenodd" d="M12.001 21c5.39 0 9.88-3.88 10.82-9-.94-5.12-5.43-9-10.82-9-5.39 0-9.88 3.88-10.82 9 .94 5.12 5.43 9 10.82 9Zm3.539-5.46C16.47 14.6 17 13.33 17 12s-.53-2.6-1.46-3.54A5.036 5.036 0 0 0 12 7c-1.33 0-2.6.53-3.54 1.46C7.53 9.4 7 10.67 7 12s.53 2.6 1.46 3.54C9.4 16.47 10.67 17 12 17s2.6-.53 3.54-1.46Zm-1.42-1.42a2.997 2.997 0 1 0-4.24-4.24 2.997 2.997 0 1 0 4.24 4.24Z" fill="currentColor"/></g></svg>