<svg xmlns="http://www.w3.org/2000/svg" xmlns:xlink="http://www.w3.org/1999/xlink" viewBox="0 0 24 24" fill="none"><defs><rect id="path_0" x="0" y="0" width="24" height="24" /></defs><g opacity="1" transform="translate(0 0)  rotate(0 12 12)"><mask id="bg-mask-0" fill="white"><use xlink:href="#path_0"></use></mask><g mask="url(#bg-mask-0)" ><path id="分组 1" fill-rule="evenodd" style="fill:#000000" transform="translate(1.1810299999999998 3)  rotate(0 10.818985 9)" opacity="1" d="M10.82 18C16.21 18 20.7 14.12 21.64 9C20.7 3.88 16.21 0 10.82 0C5.43 0 0.94 3.88 0 9C0.94 14.12 5.43 18 10.82 18Z M14.359 12.54C15.289 11.6 15.819 10.33 15.819 9C15.819 7.67 15.289 6.4 14.359 5.46C13.419 4.53 12.149 4 10.819 4C9.489 4 8.219 4.53 7.279 5.46C6.349 6.4 5.819 7.67 5.819 9C5.819 10.33 6.349 11.6 7.279 12.54C8.219 13.47 9.489 14 10.819 14C12.149 14 13.419 13.47 14.359 12.54Z M12.939 11.12C13.499 10.56 13.819 9.8 13.819 9C13.819 8.2 13.499 7.44 12.939 6.88C12.379 6.32 11.619 6 10.819 6C10.019 6 9.259 6.32 8.699 6.88C8.139 7.44 7.819 8.2 7.819 9C7.819 9.8 8.139 10.56 8.699 11.12C9.259 11.68 10.019 12 10.819 12C11.619 12 12.379 11.68 12.939 11.12Z " /></g></g></svg>