<svg xmlns="http://www.w3.org/2000/svg" xmlns:xlink="http://www.w3.org/1999/xlink" width="24" height="24" viewBox="0 0 24 24" fill="none"><defs><rect id="path_0" x="0" y="0" width="24" height="24" /></defs><g opacity="1" transform="translate(0 0)  rotate(0 12 12)"><mask id="bg-mask-0" fill="white"><use xlink:href="#path_0"></use></mask><g mask="url(#bg-mask-0)" ><path id="分组 1" fill-rule="evenodd" style="fill:#000000" transform="translate(1.1810299999999998 1.3929399999999994)  rotate(0 10.818985 10.60698)" opacity="1" d="M0 10.61C0.94 15.73 5.43 19.61 10.82 19.61C12.9 19.61 14.94 19.02 16.7 17.9L16.7 17.9L16.7 17.9C16.7 17.9 16.7 17.9 16.7 17.9L20.01 21.21L21.42 19.8L1.63 0L0.21 1.41L3.34 4.54C1.6 6.15 0.43 8.28 0 10.61Z M16.7 17.9L16.7 17.9L16.7 17.9C16.7 17.9 16.7 17.9 16.7 17.9Z M3.872 14.327C4.762 15.407 5.892 16.267 7.182 16.837C8.462 17.407 9.862 17.667 11.262 17.597C12.662 17.527 14.022 17.137 15.242 16.447L13.212 14.417C12.352 14.957 11.332 15.197 10.312 15.077C9.302 14.967 8.352 14.517 7.632 13.787C6.912 13.067 6.462 12.127 6.342 11.107C6.232 10.097 6.462 9.077 7.012 8.207L4.752 5.957C3.392 7.197 2.452 8.817 2.042 10.607C2.352 11.977 2.982 13.247 3.872 14.327Z M8.48789 9.69296C8.31789 10.143 8.26789 10.643 8.36789 11.113C8.46789 11.593 8.70789 12.033 9.04789 12.373C9.39789 12.723 9.82789 12.953 10.3079 13.053C10.7879 13.153 11.2779 13.113 11.7279 12.933L11.7379 12.933L8.48789 9.69296Z M19.593 10.607C19.343 11.747 18.863 12.817 18.193 13.767L19.623 15.197C20.643 13.847 21.333 12.277 21.633 10.607C20.693 5.487 16.213 1.607 10.823 1.607C9.403 1.607 8.043 1.877 6.793 2.367L8.373 3.947C9.543 3.617 10.773 3.527 11.983 3.687C13.193 3.837 14.363 4.247 15.413 4.867C16.463 5.487 17.373 6.317 18.093 7.307C18.813 8.297 19.323 9.417 19.593 10.607Z M10.541 6.11643L15.311 10.8864C15.351 10.2464 15.251 9.60643 15.031 9.01643C14.801 8.41643 14.451 7.87643 14.001 7.42643C13.551 6.97643 13.011 6.62643 12.411 6.39643C11.821 6.17643 11.181 6.07643 10.541 6.11643L10.541 6.11643Z " /></g></g></svg>