<svg xmlns="http://www.w3.org/2000/svg" xmlns:xlink="http://www.w3.org/1999/xlink" viewBox="0 0 24 24" fill="none"><defs><rect id="path_0" x="0" y="0" width="24" height="24" /></defs><g opacity="1" transform="translate(0 0)  rotate(0 12 12)"><mask id="bg-mask-0" fill="white"><use xlink:href="#path_0"></use></mask><g mask="url(#bg-mask-0)" ><path id="分组 1" fill-rule="evenodd" style="fill:#000000" transform="translate(1.1810299999999998 1.3929399999999994)  rotate(0 10.818985 10.60698)" opacity="1" d="M20.01 21.21L21.43 19.8L1.63 0L0.21 1.41L3.34 4.54L3.34 4.54C1.6 6.15 0.43 8.28 0 10.61C0.94 15.73 5.43 19.61 10.82 19.61C12.9 19.61 14.94 19.02 16.7 17.9L20.01 21.21Z M7.85664 11.12C7.75664 10.5 7.84664 9.87 8.10664 9.31L6.64664 7.85C6.00664 8.81 5.72664 9.96 5.84664 11.11C5.95664 12.26 6.46664 13.33 7.27664 14.14C8.09664 14.96 9.16665 15.47 10.3166 15.58C11.4666 15.7 12.6166 15.42 13.5766 14.78L12.1166 13.31C11.5566 13.58 10.9266 13.67 10.3066 13.57C9.69664 13.46 9.13664 13.17 8.69664 12.73C8.25665 12.29 7.96664 11.73 7.85664 11.12Z M6.793 2.367L10.083 5.657C10.863 5.547 11.643 5.617 12.393 5.857C13.133 6.097 13.803 6.517 14.353 7.067C14.903 7.617 15.323 8.297 15.563 9.037C15.813 9.777 15.883 10.567 15.763 11.337L19.623 15.197C20.643 13.847 21.333 12.277 21.633 10.607C20.693 5.487 16.213 1.607 10.823 1.607C9.403 1.607 8.043 1.877 6.793 2.367L6.793 2.367Z " /></g></g></svg>