<svg xmlns="http://www.w3.org/2000/svg" xmlns:xlink="http://www.w3.org/1999/xlink" viewBox="0 0 24 24" fill="none"><defs><rect id="path_0" x="0" y="0" width="24" height="24" /></defs><g opacity="1" transform="translate(0 0)  rotate(0 12 12)"><mask id="bg-mask-0" fill="white"><use xlink:href="#path_0"></use></mask><g mask="url(#bg-mask-0)" ><path id="路径 1" fill-rule="evenodd" style="fill:#000000" transform="translate(1.1760300000000008 6.60999)  rotate(0 10.823985 6.086005)" opacity="1" d="M17.86,6.84L20.02,9L21.43,7.58L19.28,5.43C20.49,3.97 21.31,2.23 21.65,0.36L19.68,0C18.92,4.2 15.24,7.39 10.82,7.39C6.4,7.39 2.73,4.2 1.97,0L0,0.36C0.34,2.23 1.16,3.97 2.37,5.43L0.22,7.58L1.63,9L3.79,6.84C4.75,7.65 5.84,8.28 7.02,8.72L6.24,11.65L8.17,12.17L8.95,9.23C10.19,9.44 11.46,9.44 12.69,9.23L13.48,12.17L15.41,11.66L14.63,8.72C15.8,8.28 16.9,7.65 17.86,6.84Z " /></g></g></svg>