<svg width="24" height="24" fill="none" xmlns="http://www.w3.org/2000/svg"><mask id="a" style="mask-type:alpha" maskUnits="userSpaceOnUse" x="0" y="0" width="24" height="24"><path d="M24 0H0v24h24V0Z" fill="#fff"/></mask><g mask="url(#a)"><path fill-rule="evenodd" clip-rule="evenodd" d="m19.036 13.45 2.16 2.16 1.41-1.42-2.15-2.15c1.21-1.46 2.03-3.2 2.37-5.07l-1.97-.36c-.76 4.2-4.44 7.39-8.86 7.39-4.42 0-8.09-3.19-8.85-7.39l-1.97.36c.34 1.87 1.16 3.61 2.37 5.07l-2.15 2.15 1.41 1.42 2.16-2.16c.96.81 2.05 1.44 3.23 1.88l-.78 2.93 1.93.52.78-2.94c1.24.21 2.51.21 3.74 0l.79 2.94 1.93-.51-.78-2.94c1.17-.44 2.27-1.07 3.23-1.88Z" fill="currentColor"/></g></svg>