<svg width="24" height="24" fill="none" xmlns="http://www.w3.org/2000/svg"><mask id="a" style="mask-type:alpha" maskUnits="userSpaceOnUse" x="0" y="0" width="24" height="24"><path d="M24 0H0v24h24V0Z" fill="#fff"/></mask><g mask="url(#a)"><path fill-rule="evenodd" clip-rule="evenodd" d="m21.191 22.603 1.42-1.41-19.8-19.8-1.42 1.41 3.13 3.13a10.984 10.984 0 0 0-3.34 6.07c.94 5.12 5.43 9 10.82 9 2.08 0 4.12-.59 5.88-1.71l3.31 3.31ZM9.038 12.513c-.1-.62-.01-1.25.25-1.81l-1.46-1.46c-.64.96-.92 2.11-.8 3.26.11 1.15.62 2.22 1.43 3.03.82.82 1.89 1.33 3.04 1.44 1.15.12 2.3-.16 3.26-.8l-1.46-1.47c-.56.27-1.19.36-1.81.26a3.031 3.031 0 0 1-2.45-2.45ZM7.974 3.76l3.29 3.29c.78-.11 1.56-.04 2.31.2.74.24 1.41.66 1.96 1.21.55.55.97 1.23 1.21 1.97.25.74.32 1.53.2 2.3l3.86 3.86a10.77 10.77 0 0 0 2.01-4.59c-.94-5.12-5.42-9-10.81-9-1.42 0-2.78.27-4.03.76Z" fill="currentColor"/></g></svg>