<svg xmlns="http://www.w3.org/2000/svg" xmlns:xlink="http://www.w3.org/1999/xlink" viewBox="0 0 24 24" fill="none"><defs><rect id="path_0" x="0" y="0" width="24" height="24" /></defs><g opacity="1" transform="translate(0 0)  rotate(0 12 12)"><mask id="bg-mask-0" fill="white"><use xlink:href="#path_0"></use></mask><g mask="url(#bg-mask-0)" ><path id="分组 1" fill-rule="evenodd" style="fill:#000000" transform="translate(1.1810299999999998 3)  rotate(0 10.818985 9)" opacity="1" d="M0 9C0.94 14.12 5.43 18 10.82 18C16.21 18 20.7 14.12 21.64 9C20.7 3.88 16.21 0 10.82 0C5.43 0 0.94 3.88 0 9Z M16.432 14.0385C18.022 12.7585 19.142 10.9885 19.592 8.99853C19.142 7.00853 18.022 5.23853 16.432 3.96853C14.832 2.69853 12.862 2.00853 10.822 2.00853C8.782 2.00853 6.802 2.69853 5.212 3.96853C3.612 5.23853 2.502 7.00853 2.042 8.99853C2.492 10.9885 3.612 12.7585 5.202 14.0385C6.802 15.3085 8.782 15.9985 10.822 15.9985C12.862 15.9985 14.842 15.3085 16.432 14.0385Z M13.999 12.18C14.849 11.34 15.319 10.19 15.319 9C15.319 7.81 14.849 6.66 13.999 5.82C13.159 4.97 12.009 4.5 10.819 4.5C9.629 4.5 8.479 4.97 7.639 5.82C6.789 6.66 6.319 7.81 6.319 9C6.319 10.19 6.789 11.34 7.639 12.18C8.479 13.03 9.629 13.5 10.819 13.5C12.009 13.5 13.159 13.03 13.999 12.18Z M12.589 10.77C13.059 10.3 13.319 9.66 13.319 9C13.319 8.34 13.059 7.7 12.589 7.23C12.119 6.76 11.479 6.5 10.819 6.5C10.159 6.5 9.519 6.76 9.049 7.23C8.579 7.7 8.319 8.34 8.319 9C8.319 9.66 8.579 10.3 9.049 10.77C9.519 11.24 10.159 11.5 10.819 11.5C11.479 11.5 12.119 11.24 12.589 10.77Z " /></g></g></svg>