<svg width="24" height="24" fill="none" xmlns="http://www.w3.org/2000/svg"><mask id="a" style="mask-type:alpha" maskUnits="userSpaceOnUse" x="0" y="0" width="24" height="24"><path d="M24 0H0v24h24V0Z" fill="#fff"/></mask><g mask="url(#a)"><path fill-rule="evenodd" clip-rule="evenodd" d="M1.181 12c.94 5.12 5.43 9 10.82 9 5.39 0 9.88-3.88 10.82-9-.94-5.12-5.43-9-10.82-9-5.39 0-9.88 3.88-10.82 9Zm16.432 5.038a9.035 9.035 0 0 0 3.16-5.04 8.976 8.976 0 0 0-3.16-5.03 9.01 9.01 0 0 0-14.39 5.03 9.035 9.035 0 0 0 3.16 5.04 9.038 9.038 0 0 0 5.62 1.96c2.04 0 4.02-.69 5.61-1.96ZM15.18 15.18c.85-.84 1.32-1.99 1.32-3.18 0-1.19-.47-2.34-1.32-3.18A4.471 4.471 0 0 0 12 7.5c-1.19 0-2.34.47-3.18 1.32-.85.84-1.32 1.99-1.32 3.18 0 1.19.47 2.34 1.32 3.18.84.85 1.99 1.32 3.18 1.32 1.19 0 2.34-.47 3.18-1.32Zm-1.41-1.41c.47-.47.73-1.11.73-1.77 0-.66-.26-1.3-.73-1.77S12.66 9.5 12 9.5c-.66 0-1.3.26-1.77.73S9.5 11.34 9.5 12c0 .66.26 1.3.73 1.77s1.11.73 1.77.73c.66 0 1.3-.26 1.77-.73Z" fill="currentColor"/></g></svg>