<svg xmlns="http://www.w3.org/2000/svg" xmlns:xlink="http://www.w3.org/1999/xlink" viewBox="0 0 24 24" fill="none"><defs><rect id="path_0" x="0" y="0" width="24" height="24" /></defs><g opacity="1" transform="translate(0 0)  rotate(0 12 12)"><mask id="bg-mask-0" fill="white"><use xlink:href="#path_0"></use></mask><g mask="url(#bg-mask-0)" ><path id="分组 1" fill-rule="evenodd" style="fill:#000000" transform="translate(3 2)  rotate(0 9.000011776707076 10)" opacity="1" d="M2 2L2 18L16 18L16 6L12 6L12 2L2 2Z M13 0L1 0C0.45 0 0 0.44 0 0.99L0 19.01C0 19.27 0.11 19.52 0.29 19.71C0.48 19.89 0.73 20 0.99 20L17.01 20C17.14 20 17.27 19.97 17.39 19.92C17.51 19.87 17.62 19.8 17.71 19.7C17.8 19.61 17.88 19.5 17.93 19.38C17.98 19.25 18 19.12 18 18.99L18 5L13 0Z M13 11L13 9L10 9L10 6L8 6L8 9L5 9L5 11L8 11L8 14L10 14L10 11L13 11Z " /></g></g></svg>