<svg width="24" height="24" fill="none" xmlns="http://www.w3.org/2000/svg"><mask id="a" style="mask-type:alpha" maskUnits="userSpaceOnUse" x="0" y="0" width="24" height="24"><path d="M24 0H0v24h24V0Z" fill="#fff"/></mask><g mask="url(#a)"><path fill-rule="evenodd" clip-rule="evenodd" d="M5 4v16h14V8h-4V4H5Zm15.39 17.92c.12-.05.23-.12.32-.22.09-.09.17-.2.22-.32.05-.13.07-.26.07-.39V7l-5-5H4c-.55 0-1 .44-1 .99v18.02c0 .26.11.51.29.7.19.18.44.29.7.29h16.02c.13 0 .26-.03.38-.08ZM8 11v2h8v-2H8Z" fill="currentColor"/></g></svg>