<svg width="24" height="24" fill="none" xmlns="http://www.w3.org/2000/svg"><mask id="a" style="mask-type:alpha" maskUnits="userSpaceOnUse" x="0" y="0" width="24" height="24"><path d="M24 0H0v24h24V0Z" fill="#fff"/></mask><g mask="url(#a)" fill-rule="evenodd" clip-rule="evenodd" fill="currentColor"><path d="M20.01 22a.995.995 0 0 0 .7-.3c.09-.09.17-.2.22-.32.05-.13.07-.26.07-.39V9h-6c-.27 0-.52-.11-.71-.29-.18-.19-.29-.44-.29-.71V2H4c-.55 0-1 .46-1 .99v18.02c0 .26.1.51.29.7.19.19.44.29.7.29h16.02Z"/><path d="M16 2.003v5h5l-5-5Z"/></g></svg>