<svg xmlns="http://www.w3.org/2000/svg" xmlns:xlink="http://www.w3.org/1999/xlink" viewBox="0 0 24 24" fill="none"><defs><rect id="path_0" x="0" y="0" width="24" height="24" /></defs><g opacity="1" transform="translate(0 0)  rotate(0 12 12)"><mask id="bg-mask-0" fill="white"><use xlink:href="#path_0"></use></mask><g mask="url(#bg-mask-0)" ><g opacity="1" transform="translate(3 2)  rotate(0 9.000011776707076 10)"><path id="路径 1" fill-rule="evenodd" style="fill:#000000" transform="translate(0 0)  rotate(0 9.000011776707076 10)" opacity="1" d="M17.01,20C17.14,20 17.27,19.97 17.39,19.92C17.51,19.87 17.62,19.8 17.71,19.7C17.8,19.61 17.88,19.5 17.93,19.38C17.98,19.25 18,19.12 18,18.99L18,7L12,7C11.73,7 11.48,6.89 11.29,6.71C11.11,6.52 11,6.27 11,6L11,0L1,0C0.45,0 0,0.46 0,0.99L0,19.01C0,19.27 0.1,19.52 0.29,19.71C0.48,19.9 0.73,20 0.99,20L17.01,20Z " /><path id="路径 2" fill-rule="evenodd" style="fill:#000000" transform="translate(13 0.0030000000000001137)  rotate(0 2.5 2.4985)" opacity="1" d="M0,0L0,5L5,5L0,0Z " /></g></g></g></svg>