<svg xmlns="http://www.w3.org/2000/svg" xmlns:xlink="http://www.w3.org/1999/xlink" width="24" height="24" viewBox="0 0 24 24" fill="none"><defs><rect id="path_0" x="0" y="0" width="24" height="24" /></defs><g opacity="1" transform="translate(0 0)  rotate(0 12 12)"><mask id="bg-mask-0" fill="white"><use xlink:href="#path_0"></use></mask><g mask="url(#bg-mask-0)" ><path id="分组 1" fill-rule="evenodd" style="fill:#000000" transform="translate(3 2)  rotate(0 9 10)" opacity="1" d="M18 5L13 0L0.99 0C0.44 0 0 0.44 0 0.99L0 19.01C0 19.27 0.11 19.52 0.29 19.71C0.48 19.89 0.73 20 0.99 20L17.01 20C17.27 20 17.52 19.9 17.71 19.71C17.9 19.52 18 19.27 18 19.01L18 5Z M8 11L8 14L10 14L10 11L13 11L13 9L10 9L10 6L8 6L8 9L5 9L5 11L8 11Z " /></g></g></svg>