<svg xmlns="http://www.w3.org/2000/svg" xmlns:xlink="http://www.w3.org/1999/xlink" width="24" height="24" viewBox="0 0 24 24" fill="none"><g opacity="1" transform="translate(0 0)  rotate(0 12 12)"><g opacity="1" transform="translate(3 2)  rotate(0 10.096 10)"><path id="路径 2" fill-rule="evenodd" style="fill:#000000" transform="translate(0 0)  rotate(0 9 10)" opacity="1" d="M17,0L1,0C0.45,0 0,0.45 0,1L0,19C0,19.55 0.45,20 1,20L17,20C17.55,20 18,19.55 18,19L18,13.24L16,15.24L16,18L2,18L2,2L16,2L16,6.76L18,4.76L18,1C18,0.45 17.55,0 17,0Z " /><path id="路径 3" fill-rule="evenodd" style="fill:#000000" transform="translate(10.998 6.808)  rotate(0 4.597 4.596)" opacity="1" d="M0,7.78L0,9.19L1.42,9.19L9.19,1.41L7.78,0L0,7.78Z " /><path id="路径 4" fill-rule="evenodd" style="fill:#000000" transform="translate(5 10)  rotate(0 2.5 1)" opacity="1" d="M0,0L0,2L5,2L5,0L0,0Z " /><path id="路径 5" fill-rule="evenodd" style="fill:#000000" transform="translate(5 6)  rotate(0 4 1)" opacity="1" d="M0,0L0,2L8,2L8,0L0,0Z " /></g></g></svg>