<svg xmlns="http://www.w3.org/2000/svg" xmlns:xlink="http://www.w3.org/1999/xlink" viewBox="0 0 24 24" fill="none"><defs><rect id="path_0" x="0" y="0" width="24" height="24" /></defs><g opacity="1" transform="translate(0 0)  rotate(0 12 12)"><mask id="bg-mask-0" fill="white"><use xlink:href="#path_0"></use></mask><g mask="url(#bg-mask-0)" ><path id="分组 1" fill-rule="evenodd" style="fill:#000000" transform="translate(2 2)  rotate(0 10 10)" opacity="1" d="M0 1L0 17C0 17.8 0.32 18.56 0.88 19.12C1.44 19.68 2.2 20 3 20L17 20C17.8 20 18.56 19.68 19.12 19.12C19.68 18.56 20 17.8 20 17L20 13L16 13L16 1C16 0.73 15.89 0.48 15.71 0.29C15.52 0.11 15.27 0 15 0L1 0C0.73 0 0.48 0.11 0.29 0.29C0.11 0.48 0 0.73 0 1Z M16 17C16 17.27 16.11 17.52 16.29 17.71C16.48 17.89 16.73 18 17 18C17.27 18 17.52 17.89 17.71 17.71C17.89 17.52 18 17.27 18 17L18 15L16 15L16 17Z M4 7L12 7L12 5L4 5L4 7Z M4 11L12 11L12 9L4 9L4 11Z M4 15L9 15L9 13L4 13L4 15Z " /></g></g></svg>