<svg width="24" height="24" fill="none" xmlns="http://www.w3.org/2000/svg"><mask id="a" style="mask-type:alpha" maskUnits="userSpaceOnUse" x="0" y="0" width="24" height="24"><path d="M24 0H0v24h24V0Z" fill="#fff"/></mask><g mask="url(#a)"><path fill-rule="evenodd" clip-rule="evenodd" d="M8 2c-.27 0-.52.11-.71.29-.18.19-.29.44-.29.71v3H4.01C3.45 6 3 6.45 3 7v14c0 .13.03.26.08.38.05.13.12.24.22.33.09.09.2.17.32.22.12.05.26.07.39.07h11.98c.56 0 1.01-.45 1.01-1v-3h3c.27 0 .52-.11.71-.29.18-.19.29-.44.29-.71V3c0-.27-.11-.52-.29-.71-.19-.18-.44-.29-.71-.29H8Zm9 4v10h2V4H9v2h8Z" fill="currentColor"/></g></svg>