<svg width="24" height="24" fill="none" xmlns="http://www.w3.org/2000/svg"><mask id="a" style="mask-type:alpha" maskUnits="userSpaceOnUse" x="0" y="0" width="24" height="24"><path d="M24 0H0v24h24V0Z" fill="#fff"/></mask><g mask="url(#a)"><path fill-rule="evenodd" clip-rule="evenodd" d="M18 3c0-.27-.11-.52-.29-.71-.19-.18-.44-.29-.71-.29H3c-.27 0-.52.11-.71.29-.18.19-.29.44-.29.71v16c0 .8.32 1.56.88 2.12S4.2 22 5 22h14c.8 0 1.56-.32 2.12-.88S22 19.8 22 19v-4h-4V3Zm0 16c0 .27.11.52.29.71.19.18.44.29.71.29.27 0 .52-.11.71-.29.18-.19.29-.44.29-.71v-2h-2v2ZM16 4H4v15c0 .27.11.52.29.71.19.18.44.29.71.29h11V4ZM6 9h8V7H6v2Zm0 4h8v-2H6v2Zm0 4h5v-2H6v2Z" fill="currentColor"/></g></svg>