<svg xmlns="http://www.w3.org/2000/svg" xmlns:xlink="http://www.w3.org/1999/xlink" width="24" height="24" viewBox="0 0 24 24" fill="none"><defs><rect id="path_0" x="0" y="0" width="24" height="24" /></defs><g opacity="1" transform="translate(0 0)  rotate(0 12 12)"><mask id="bg-mask-0" fill="white"><use xlink:href="#path_0"></use></mask><g mask="url(#bg-mask-0)" ><path id="分组 1" fill-rule="evenodd" style="fill:#000000" transform="translate(3 2)  rotate(0 9 10.000009198103811)" opacity="1" d="M0.3 19.71C0.39 19.8 0.5 19.88 0.62 19.93C0.74 19.98 0.88 20 1.01 20L12.99 20C13.55 20 14 19.55 14 19L14 16L17 16C17.27 16 17.52 15.89 17.71 15.71C17.89 15.52 18 15.27 18 15L18 1C18 0.73 17.89 0.48 17.71 0.29C17.52 0.11 17.27 0 17 0L5 0C4.73 0 4.48 0.11 4.29 0.29C4.11 0.48 4 0.73 4 1L4 4L1.01 4C0.45 4 0 4.45 0 5L0 19C0 19.13 0.03 19.26 0.08 19.38C0.13 19.51 0.2 19.62 0.3 19.71Z M2 18L12 18L12 6L2 6L2 18Z M14 4L14 14L16 14L16 2L6 2L6 4L14 4Z " /></g></g></svg>