<svg width="24" height="24" fill="none" xmlns="http://www.w3.org/2000/svg"><mask id="a" style="mask-type:alpha" maskUnits="userSpaceOnUse" x="0" y="0" width="24" height="24"><path d="M24 0H0v24h24V0Z" fill="#fff"/></mask><g mask="url(#a)"><path fill-rule="evenodd" clip-rule="evenodd" d="M3.29 21.71c.19.19.44.29.7.29h16.02a.995.995 0 0 0 .7-.3c.09-.09.17-.2.22-.32.05-.13.07-.26.07-.39V8l-6-6H4c-.55 0-1 .46-1 .99v18.02c0 .26.1.51.29.7ZM14 9V4H5v16h14V9h-5ZM8 9h3V7H8v2Zm0 4h8v-2H8v2Zm0 4h8v-2H8v2Z" fill="currentColor"/></g></svg>