<svg xmlns="http://www.w3.org/2000/svg" xmlns:xlink="http://www.w3.org/1999/xlink" viewBox="0 0 24 24" fill="none"><g opacity="1" transform="translate(0 0)  rotate(0 12 12)"><path id="分组 1" fill-rule="evenodd" style="fill:#000000" transform="translate(3 2)  rotate(0 10.096 10)" opacity="1" d="M0 19C0 19.55 0.45 20 1 20L17 20C17.55 20 18 19.55 18 19L18 13.24L13.24 18L8.99 18L9 13.76L18 4.76L18 1C18 0.45 17.55 0 17 0L1 0C0.45 0 0 0.45 0 1L0 19Z M10.998 14.588L10.998 15.998L12.418 15.998L20.188 8.218L18.778 6.808L10.998 14.588Z M4 10L4 12L9 12L9 10L4 10Z M4 6L4 8L12 8L12 6L4 6Z " /></g></svg>