<svg width="24" height="24" fill="none" xmlns="http://www.w3.org/2000/svg"><mask id="a" style="mask-type:alpha" maskUnits="userSpaceOnUse" x="0" y="0" width="24" height="24"><path d="M24 0H0v24h24V0Z" fill="#fff"/></mask><g mask="url(#a)"><path fill-rule="evenodd" clip-rule="evenodd" d="M2.99 3c-.26 0-.51.11-.7.29-.18.19-.29.44-.29.7v16.02c0 .26.1.51.29.7.19.19.44.29.7.29h18.02c.26 0 .51-.11.7-.29.18-.19.29-.44.29-.7V3.99c0-.55-.44-.99-.99-.99H2.99ZM4 7h2V5H4v2Zm14 0h2V5h-2v2ZM4 11h2V9H4v2Zm14 0h2V9h-2v2ZM4 15h2v-2H4v2Zm14 0h2v-2h-2v2ZM4 19h2v-2H4v2Zm14 0h2v-2h-2v2Z" fill="currentColor"/></g></svg>