<svg xmlns="http://www.w3.org/2000/svg" xmlns:xlink="http://www.w3.org/1999/xlink" width="24" height="24" viewBox="0 0 24 24" fill="none"><defs><rect id="path_0" x="0" y="0" width="24" height="24" /></defs><g opacity="1" transform="translate(0 0)  rotate(0 12 12)"><mask id="bg-mask-0" fill="white"><use xlink:href="#path_0"></use></mask><g mask="url(#bg-mask-0)" ><path id="分组 1" fill-rule="evenodd" style="fill:#000000" transform="translate(2 3)  rotate(0 10 9)" opacity="1" d="M0.99 0C0.73 0 0.48 0.11 0.29 0.29C0.11 0.48 0 0.73 0 0.99L0 17.01C0 17.27 0.1 17.52 0.29 17.71C0.48 17.9 0.73 18 0.99 18L19.01 18C19.27 18 19.52 17.89 19.71 17.71C19.89 17.52 20 17.27 20 17.01L20 0.99C20 0.44 19.56 0 19.01 0L0.99 0Z M6 16L14 16L14 2L6 2L6 16Z M2 4L4 4L4 2L2 2L2 4Z M16 4L18 4L18 2L16 2L16 4Z M2 8L4 8L4 6L2 6L2 8Z M16 8L18 8L18 6L16 6L16 8Z M2 12L4 12L4 10L2 10L2 12Z M16 12L18 12L18 10L16 10L16 12Z M2 16L4 16L4 14L2 14L2 16Z M16 16L18 16L18 14L16 14L16 16Z " /></g></g></svg>