<svg xmlns="http://www.w3.org/2000/svg" xmlns:xlink="http://www.w3.org/1999/xlink" viewBox="0 0 24 24" fill="none"><defs><rect id="path_0" x="0" y="0" width="24" height="24" /></defs><g opacity="1" transform="translate(0 0)  rotate(0 12 12)"><mask id="bg-mask-0" fill="white"><use xlink:href="#path_0"></use></mask><g mask="url(#bg-mask-0)" ><g opacity="1" transform="translate(3 0.515015)  rotate(0 9.035 10.7424925)"><path id="路径 1" fill-rule="evenodd" style="fill:#000000" transform="translate(0 0)  rotate(0 9.035 10.7424925)" opacity="1" d="M7,21.48L11,21.48L11,14.48L12.83,11.73L16.66,15.56L18.07,14.14L3.93,0L2.51,1.41L4.59,3.48L0,3.48L0,5.48L1,5.48L7,14.48L7,21.48Z " /><path id="路径 2" fill-rule="evenodd" style="fill:#000000" transform="translate(10.213 3.4849949999999996)  rotate(0 3.8935000000000004 2.436)" opacity="1" d="M0,0L4.87,4.87L6.79,2L7.79,2L7.79,0L0,0Z " /></g></g></g></svg>