<svg xmlns="http://www.w3.org/2000/svg" xmlns:xlink="http://www.w3.org/1999/xlink" width="24" height="24" viewBox="0 0 24 24" fill="none"><defs><rect id="path_0" x="0" y="0" width="24" height="24" /></defs><g opacity="1" transform="translate(0 0)  rotate(0 12 12)"><mask id="bg-mask-0" fill="white"><use xlink:href="#path_0"></use></mask><g mask="url(#bg-mask-0)" ><path id="分组 1" fill-rule="evenodd" style="fill:#000000" transform="translate(3 0.515015)  rotate(0 9.035 10.7424925)" opacity="1" d="M6 12.98L6 21.48L12 21.48L12 12.98L12.83 11.73L16.66 15.56L18.07 14.14L3.93 0L2.51 1.41L4.59 3.48L0 3.48L0 5.48L1 5.48L6 12.98Z M3.404 5.48499L8.004 12.375L8.004 19.485L10.004 19.485L10.004 12.375L11.394 10.295L6.584 5.48499L3.404 5.48499Z M10.213 3.48499L12.213 5.48499L14.593 5.48499L13.643 6.915L15.083 8.35499L17.003 5.48499L18.003 5.48499L18.003 3.48499L10.213 3.48499Z " /></g></g></svg>