<svg width="24" height="24" fill="none" xmlns="http://www.w3.org/2000/svg"><mask id="a" style="mask-type:alpha" maskUnits="userSpaceOnUse" x="0" y="0" width="24" height="24"><path d="M24 0H0v24h24V0Z" fill="#fff"/></mask><g mask="url(#a)"><path fill-rule="evenodd" clip-rule="evenodd" d="M9 13.495v8.5h6v-8.5l.83-1.25 3.83 3.83 1.41-1.42L6.93.515l-1.42 1.41 2.08 2.07H3v2h1l5 7.5ZM6.404 6l4.6 6.89V20h2v-7.11l1.39-2.08L9.584 6h-3.18Zm6.809-2 2 2h2.38l-.95 1.43 1.44 1.44L20.003 6h1V4h-7.79Z" fill="currentColor"/></g></svg>