<svg xmlns="http://www.w3.org/2000/svg" xmlns:xlink="http://www.w3.org/1999/xlink" width="24" height="24" viewBox="0 0 24 24" fill="none"><g opacity="1" transform="translate(0 0)  rotate(0 12 12)"><g opacity="1" transform="translate(2.34900000000016 1.9999901354690337)  rotate(0 9.325500000000002 10.133004932265479)"><path id="路径 2" fill-rule="evenodd" style="fill:#000000" transform="translate(10.762 11.00000986453096)  rotate(0 1.9444999999999997 4.633000000000001)" opacity="1" d="M1.89,0L1.89,1L1.88,1.46C1.81,3.88 1.16,6.21 0,8.29L1.75,9.27L1.97,8.85C3.22,6.45 3.89,3.77 3.89,1L3.89,0L1.89,0Z " /><path id="路径 3" fill-rule="evenodd" style="fill:#000000" transform="translate(6.173999999999999 8.00000986453096)  rotate(0 2.238500000000001 6.109)" opacity="1" d="M4.48,4L4.48,0L2.48,0L2.48,4L2.47,4.37C2.39,6.77 1.53,9.09 0,10.95L1.55,12.22L1.78,11.93C3.45,9.76 4.4,7.12 4.47,4.38L4.48,4Z " /><path id="路径 4" fill-rule="evenodd" style="fill:#000000" transform="translate(2.7200000000000015 4.000009864530959)  rotate(0 5.9655 7.1035)" opacity="1" d="M1.45,14.21L1.66,13.98C3.11,12.34 3.93,10.24 3.93,8L3.93,5C3.93,3.34 5.28,2 6.93,2C8.59,2 9.93,3.34 9.93,5L11.93,5C11.93,2.24 9.69,0 6.93,0C4.17,0 1.93,2.24 1.93,5L1.93,8L1.92,8.3C1.85,9.99 1.17,11.6 0,12.83L1.45,14.21Z " /><path id="路径 5" fill-rule="evenodd" style="fill:#000000" transform="translate(4.034000000000001 0)  rotate(0 7.3085 8.764504932265481)" opacity="1" d="M13.88,17.53L14.02,16.99C14.42,15.37 14.62,13.7 14.62,12L14.62,9C14.62,4.03 10.58,0 5.62,0C3.58,0 1.59,0.69 0,1.97L1.43,3.39C3.55,1.81 6.38,1.55 8.75,2.74C11.12,3.93 12.62,6.35 12.62,9L12.62,12L12.61,12.57C12.56,14.08 12.34,15.57 11.95,17L13.88,17.53Z " /><path id="路径 6" fill-rule="evenodd" style="fill:#000000" transform="translate(0 3.383009864530959)  rotate(0 2.0225000000000004 5.542)" opacity="1" d="M0.66,5.62L0.66,7.62L0.65,7.91C0.6,8.68 0.38,9.43 0,10.09L1.74,11.08L1.89,10.79C2.39,9.82 2.66,8.74 2.66,7.62L2.65,5.62L2.66,5.38C2.7,3.95 3.19,2.57 4.05,1.43L2.62,0C1.34,1.59 0.65,3.58 0.66,5.62Z " /></g></g></svg>