<svg width="24" height="24" fill="none" xmlns="http://www.w3.org/2000/svg"><path fill-rule="evenodd" clip-rule="evenodd" d="M15.001 13v1l-.01.46c-.07 2.42-.72 4.75-1.88 6.83l1.75.98.22-.42c1.25-2.4 1.92-5.08 1.92-7.85v-1h-2ZM13.003 14v-4h-2v4l-.01.37c-.08 2.4-.94 4.72-2.47 6.58l1.55 1.27.23-.29c1.67-2.17 2.62-4.81 2.69-7.55l.01-.38Z" fill="currentColor"/><path fill-rule="evenodd" clip-rule="evenodd" d="m6.519 20.21.21-.23A8.988 8.988 0 0 0 8.999 14v-3c0-1.66 1.35-3 3-3 1.66 0 3 1.34 3 3h2c0-2.76-2.24-5-5-5s-5 2.24-5 5v3l-.01.3c-.07 1.69-.75 3.3-1.92 4.53l1.45 1.38Z" fill="currentColor"/><path fill-rule="evenodd" clip-rule="evenodd" d="m20.263 19.53.14-.54c.4-1.62.6-3.29.6-4.99v-3c0-4.97-4.04-9-9-9-2.04 0-4.03.69-5.62 1.97l1.43 1.42a6.994 6.994 0 0 1 7.32-.65 7.008 7.008 0 0 1 3.87 6.26v3l-.01.57c-.05 1.51-.27 3-.66 4.43l1.93.53ZM3.009 11.003v2l-.01.29c-.05.77-.27 1.52-.65 2.18l1.74.99.15-.29c.5-.97.77-2.05.77-3.17l-.01-2 .01-.24c.04-1.43.53-2.81 1.39-3.95l-1.43-1.43a8.9 8.9 0 0 0-1.96 5.62Z" fill="currentColor"/></svg>