<svg width="24" height="24" fill="none" xmlns="http://www.w3.org/2000/svg"><mask id="a" style="mask-type:alpha" maskUnits="userSpaceOnUse" x="0" y="0" width="24" height="24"><path d="M24 0H0v24h24V0Z" fill="#fff"/></mask><g mask="url(#a)"><path fill-rule="evenodd" clip-rule="evenodd" d="M13.28 3.55c-.09-.16-.21-.3-.37-.4a.988.988 0 0 0-.53-.15H3v19h2v-6h7l.72 1.45c.09.16.21.3.37.4.16.1.34.15.53.15H20c.27 0 .52-.11.71-.29.18-.19.29-.44.29-.71V6c0-.27-.11-.52-.29-.71-.19-.18-.44-.29-.71-.29h-6l-.72-1.45Z" fill="currentColor"/></g></svg>