<svg xmlns="http://www.w3.org/2000/svg" xmlns:xlink="http://www.w3.org/1999/xlink" viewBox="0 0 24 24" fill="none"><defs><rect id="path_0" x="0" y="0" width="24" height="24" /></defs><g opacity="1" transform="translate(0 0)  rotate(0 12 12)"><mask id="bg-mask-0" fill="white"><use xlink:href="#path_0"></use></mask><g mask="url(#bg-mask-0)" ><path id="分组 1" fill-rule="evenodd" style="fill:#000000" transform="translate(3 3)  rotate(0 9 9.5)" opacity="1" d="M17 2L11 2L10.28 0.55C10.19 0.39 10.07 0.25 9.91 0.15C9.75 0.05 9.57 0 9.38 0L0 0L0 19L2 19L2 13L9 13L9.72 14.45C9.81 14.61 9.93 14.75 10.09 14.85C10.25 14.95 10.43 15 10.62 15L17 15C17.27 15 17.52 14.89 17.71 14.71C17.89 14.52 18 14.27 18 14L18 3C18 2.73 17.89 2.48 17.71 2.29C17.52 2.11 17.27 2 17 2Z M2 11L10.24 11L11.24 13L16 13L16 4L9.76 4L8.76 2L2 2L2 11Z " /></g></g></svg>