<svg width="24" height="24" fill="none" xmlns="http://www.w3.org/2000/svg"><mask id="a" style="mask-type:alpha" maskUnits="userSpaceOnUse" x="0" y="0" width="24" height="24"><path d="M24 0H0v24h24V0Z" fill="#fff"/></mask><g mask="url(#a)" fill-rule="evenodd" clip-rule="evenodd" fill="currentColor"><path d="M1.589 13.011h2.22c-.46-.8-.73-1.69-.8-2.61-.06-.92.09-1.84.45-2.69.35-.85.89-1.61 1.58-2.22.69-.61 1.52-1.05 2.4-1.28.89-.24 1.83-.27 2.73-.1.9.18 1.75.57 2.48 1.13.73.56 1.32 1.28 1.73 2.1.41.83.62 1.74.62 2.66v.05c.52-.53 1.19-.88 1.92-1 .73-.13 1.48-.02 2.14.31a3.526 3.526 0 0 1 1.91 3.65h2.01c.08-.85-.04-1.71-.35-2.51a5.531 5.531 0 0 0-3.65-3.3c-.82-.23-1.68-.26-2.52-.1a8.074 8.074 0 0 0-4.27-4.4 7.966 7.966 0 0 0-6.12-.08 8.023 8.023 0 0 0-4.4 4.26 7.99 7.99 0 0 0-.08 6.13ZM4 21h17v-2H4v2ZM2 17h21v-2H2v2Z"/></g></svg>