<svg width="24" height="24" fill="none" xmlns="http://www.w3.org/2000/svg"><mask id="a" style="mask-type:alpha" maskUnits="userSpaceOnUse" x="0" y="0" width="24" height="24"><path d="M24 0H0v24h24V0Z" fill="#fff"/></mask><g mask="url(#a)" fill-rule="evenodd" clip-rule="evenodd" fill="currentColor"><path d="M1.669 6.881a7.99 7.99 0 0 0-.08 6.13h21.39c.08-.85-.04-1.71-.35-2.51a5.531 5.531 0 0 0-3.65-3.3c-.82-.23-1.68-.26-2.52-.1a8.074 8.074 0 0 0-4.27-4.4 7.966 7.966 0 0 0-6.12-.08 8.023 8.023 0 0 0-4.4 4.26ZM4 21h17v-2H4v2ZM2 17h21v-2H2v2Z"/></g></svg>