<svg xmlns="http://www.w3.org/2000/svg" xmlns:xlink="http://www.w3.org/1999/xlink" viewBox="0 0 24 24" fill="none"><defs><rect id="path_0" x="0" y="0" width="24" height="24" /></defs><g opacity="1" transform="translate(0 0)  rotate(0 12 12)"><mask id="bg-mask-0" fill="white"><use xlink:href="#path_0"></use></mask><g mask="url(#bg-mask-0)" ><g opacity="1" transform="translate(1.018798572714605 2.051269017178143)  rotate(0 10.990864144003536 9.474365491410929)"><path id="路径 1" fill-rule="evenodd" style="fill:#000000" transform="translate(0 0)  rotate(0 10.990864144003536 5.477865491410928)" opacity="1" d="M0.57,10.96L2.79,10.96C2.33,10.16 2.06,9.27 1.99,8.35C1.93,7.43 2.08,6.51 2.44,5.66C2.79,4.81 3.33,4.05 4.02,3.44C4.71,2.83 5.54,2.39 6.42,2.16C7.31,1.92 8.25,1.89 9.15,2.06C10.05,2.24 10.9,2.63 11.63,3.19C12.36,3.75 12.95,4.47 13.36,5.29C13.77,6.12 13.98,7.03 13.98,7.95L13.98,8C14.5,7.47 15.17,7.12 15.9,7C16.63,6.87 17.38,6.98 18.04,7.31C18.7,7.64 19.24,8.17 19.58,8.82C19.93,9.48 20.05,10.22 19.95,10.96L21.96,10.96C22.04,10.11 21.92,9.25 21.61,8.45C21.3,7.66 20.81,6.95 20.17,6.37C19.54,5.8 18.78,5.38 17.96,5.15C17.14,4.92 16.28,4.89 15.44,5.05C14.65,3.08 13.12,1.5 11.17,0.65C9.22,-0.19 7.02,-0.22 5.05,0.57C3.08,1.35 1.5,2.88 0.65,4.83C-0.19,6.78 -0.22,8.98 0.57,10.96Z " /><path id="路径 2" fill-rule="evenodd" style="fill:#000000" transform="translate(2.981231427285395 16.948730982821857)  rotate(0 8.499985 1)" opacity="1" d="M0,2L17,2L17,0L0,0L0,2Z " /><path id="路径 3" fill-rule="evenodd" style="fill:#000000" transform="translate(0.9812314272853953 12.948730982821857)  rotate(0 10.499985 1)" opacity="1" d="M0,2L21,2L21,0L0,0L0,2Z " /></g></g></g></svg>