<svg width="24" height="24" fill="none" xmlns="http://www.w3.org/2000/svg"><mask id="a" style="mask-type:alpha" maskUnits="userSpaceOnUse" x="0" y="0" width="24" height="24"><path d="M24 0H0v24h24V0Z" fill="#fff"/></mask><g mask="url(#a)"><path fill-rule="evenodd" clip-rule="evenodd" d="M21.71 20.71c.18-.19.29-.44.29-.71V6c0-.27-.11-.52-.29-.71-.19-.18-.44-.29-.71-.29h-8.59l-2-2H3c-.27 0-.52.11-.71.29-.18.19-.29.44-.29.71v16c0 .27.11.52.29.71.19.18.44.29.71.29h18c.27 0 .52-.11.71-.29ZM11 9v3H8v2h3v3h2v-3h3v-2h-3V9h-2Z" fill="currentColor"/></g></svg>