<svg xmlns="http://www.w3.org/2000/svg" xmlns:xlink="http://www.w3.org/1999/xlink" width="24" height="24" viewBox="0 0 24 24" fill="none"><defs><rect id="path_0" x="0" y="0" width="24" height="24" /></defs><g opacity="1" transform="translate(0 0)  rotate(0 12 12)"><mask id="bg-mask-0" fill="white"><use xlink:href="#path_0"></use></mask><g mask="url(#bg-mask-0)" ><path id="分组 1" fill-rule="evenodd" style="fill:#000000" transform="translate(2 3)  rotate(0 10 9)" opacity="1" d="M1 18L19 18C19.27 18 19.52 17.89 19.71 17.71C19.89 17.52 20 17.27 20 17L20 3C20 2.73 19.89 2.48 19.71 2.29C19.52 2.11 19.27 2 19 2L10.41 2L8.41 0L1 0C0.73 0 0.48 0.11 0.29 0.29C0.11 0.48 0 0.73 0 1L0 17C0 17.27 0.11 17.52 0.29 17.71C0.48 17.89 0.73 18 1 18Z M2 16L18 16L18 4L9.59 4L7.59 2L2 2L2 16Z M11 11L14 11L14 9L11 9L11 6L9 6L9 9L6 9L6 11L9 11L9 14L11 14L11 11Z " /></g></g></svg>