<svg xmlns="http://www.w3.org/2000/svg" xmlns:xlink="http://www.w3.org/1999/xlink" viewBox="0 0 24 24" fill="none"><defs><rect id="path_0" x="0" y="0" width="24" height="24" /></defs><g opacity="1" transform="translate(0 0)  rotate(0 12 12)"><mask id="bg-mask-0" fill="white"><use xlink:href="#path_0"></use></mask><g mask="url(#bg-mask-0)" ><path id="分组 1" fill-rule="evenodd" style="fill:#000000" transform="translate(0.5999759999999998 4)  rotate(0 11.200012000000001 8.000000081214244)" opacity="1" d="M12.65 16L14.8 16L8.4 0L6.4 0L0 16L2.15 16L4.15 11L10.65 11L12.65 16Z M7.404 2.885L4.954 9.005L9.844 9.005L7.404 2.885Z M20.4015 8L20.4015 8.54C19.7915 8.18 19.1015 8 18.4015 8C17.7015 8 17.0115 8.19 16.4015 8.54C15.7915 8.89 15.2915 9.39 14.9415 10C14.5815 10.61 14.4015 11.3 14.4015 12C14.4015 12.7 14.5815 13.39 14.9415 14C15.2915 14.61 15.7915 15.11 16.4015 15.46C17.0115 15.81 17.7015 16 18.4015 16C19.1015 16 19.7915 15.82 20.4015 15.47L20.4015 16L22.4015 16L22.4015 8L20.4015 8Z M19.81 13.41C20.19 13.04 20.4 12.53 20.4 12C20.4 11.47 20.19 10.96 19.81 10.59C19.44 10.21 18.93 10 18.4 10C17.87 10 17.36 10.21 16.99 10.59C16.61 10.96 16.4 11.47 16.4 12C16.4 12.53 16.61 13.04 16.99 13.41C17.36 13.79 17.87 14 18.4 14C18.93 14 19.44 13.79 19.81 13.41Z " /></g></g></svg>