<svg width="24" height="24" fill="none" xmlns="http://www.w3.org/2000/svg"><mask id="a" style="mask-type:alpha" maskUnits="userSpaceOnUse" x="0" y="0" width="24" height="24"><path d="M24 0H0v24h24V0Z" fill="#fff"/></mask><g mask="url(#a)"><path fill-rule="evenodd" clip-rule="evenodd" d="M13.25 20h2.15L9 4H7L.6 20h2.15l2-5h6.5l2 5ZM8.004 6.885l-2.45 6.12h4.89l-2.44-6.12ZM21.002 12v.54c-.61-.36-1.3-.54-2-.54s-1.39.19-2 .54c-.61.35-1.11.85-1.46 1.46-.36.61-.54 1.3-.54 2s.18 1.39.54 2c.35.61.85 1.11 1.46 1.46.61.35 1.3.54 2 .54s1.39-.18 2-.53V20h2v-8h-2Zm-.592 5.41c.38-.37.59-.88.59-1.41 0-.53-.21-1.04-.59-1.41-.37-.38-.88-.59-1.41-.59-.53 0-1.04.21-1.41.59-.38.37-.59.88-.59 1.41 0 .53.21 1.04.59 1.41.37.38.88.59 1.41.59.53 0 1.04-.21 1.41-.59Z" fill="currentColor"/></g></svg>