<svg xmlns="http://www.w3.org/2000/svg" xmlns:xlink="http://www.w3.org/1999/xlink" width="24" height="24" viewBox="0 0 24 24" fill="none"><defs><rect id="path_0" x="0" y="0" width="24" height="24" /></defs><g opacity="1" transform="translate(0 0)  rotate(0 12 12)"><mask id="bg-mask-0" fill="white"><use xlink:href="#path_0"></use></mask><g mask="url(#bg-mask-0)" ><path id="分组 1" fill-rule="evenodd" style="fill:#000000" transform="translate(2 2)  rotate(0 10 10)" opacity="1" d="M20 10C20 4.48 15.52 0 10 0C4.48 0 0 4.48 0 10C0 15.52 4.48 20 10 20C15.52 20 20 15.52 20 10Z M15.66 15.66C17.16 14.16 18 12.12 18 10C18 7.88 17.16 5.84 15.66 4.34C14.16 2.84 12.12 2 10 2C7.88 2 5.84 2.84 4.34 4.34C2.84 5.84 2 7.88 2 10C2 12.12 2.84 14.16 4.34 15.66C5.84 17.16 7.88 18 10 18C12.12 18 14.16 17.16 15.66 15.66Z M6.519 5.109C5.979 5.499 5.499 5.979 5.109 6.519L13.479 14.889C14.019 14.499 14.499 14.019 14.889 13.479L6.519 5.109L6.519 5.109Z " /></g></g></svg>