<svg xmlns="http://www.w3.org/2000/svg" xmlns:xlink="http://www.w3.org/1999/xlink" viewBox="0 0 24 24" fill="none"><defs><rect id="path_0" x="0" y="0" width="24" height="24" /></defs><g opacity="1" transform="translate(0 0)  rotate(0 12 12)"><mask id="bg-mask-0" fill="white"><use xlink:href="#path_0"></use></mask><g mask="url(#bg-mask-0)" ><g opacity="1" transform="translate(2 3)  rotate(0 10 9)"><path id="路径 1" fill-rule="evenodd" style="fill:#000000" transform="translate(14 0)  rotate(0 3 3)" opacity="1" d="M0,0L0,2L4,2L4,6L6,6L6,0L4,0L0,0Z " /><path id="路径 2" fill-rule="evenodd" style="fill:#000000" transform="translate(0 0)  rotate(0 3 3)" opacity="1" d="M0,0L0,6L2,6L2,2L6,2L6,0L2,0L0,0Z " /><path id="路径 3" fill-rule="evenodd" style="fill:#000000" transform="translate(14 12)  rotate(0 3 3)" opacity="1" d="M0,4L0,6L6,6L6,0L4,0L4,4L0,4Z " /><path id="路径 4" fill-rule="evenodd" style="fill:#000000" transform="translate(0 12)  rotate(0 3 3)" opacity="1" d="M2,0L0,0L0,6L6,6L6,4L2,4L2,0Z " /></g></g></g></svg>