<svg xmlns="http://www.w3.org/2000/svg" xmlns:xlink="http://www.w3.org/1999/xlink" viewBox="0 0 24 24" fill="none"><g opacity="1" transform="translate(0 0)  rotate(0 12 12)"><path id="分组 1" fill-rule="evenodd" style="fill:#000000" transform="translate(2 2)  rotate(0 10 10)" opacity="1" d="M0 10C0 15.52 4.48 20 10 20C15.52 20 20 15.52 20 10C20 4.48 15.52 0 10 0C4.48 0 0 4.48 0 10Z M2 10C2 14.42 5.58 18 10 18C14.42 18 18 14.42 18 10C18 5.58 14.42 2 10 2C5.58 2 2 5.58 2 10Z M8.94025 8.9391C8.35025 9.5291 8.35025 10.4791 8.94025 11.0591C9.52025 11.6491 10.4703 11.6491 11.0602 11.0591C11.2802 10.8391 12.4802 9.2091 14.6602 6.1591C14.8302 5.9291 14.8003 5.6091 14.6003 5.3991C14.3902 5.1991 14.0702 5.1691 13.8302 5.3391C10.9403 7.3691 9.31025 8.5691 8.94025 8.9391Z M14.5 10C14.5 10.55 14.95 11 15.5 11C16.05 11 16.5 10.55 16.5 10C16.5 9.45 16.05 9 15.5 9C14.95 9 14.5 9.45 14.5 10Z M3.5 10C3.5 10.55 3.95 11 4.5 11C5.05 11 5.5 10.55 5.5 10C5.5 9.45 5.05 9 4.5 9C3.95 9 3.5 9.45 3.5 10Z M5.4015 5.4015C5.0115 5.7915 5.0115 6.4315 5.4015 6.8215C5.7915 7.2115 6.4315 7.2115 6.8215 6.8215C7.2115 6.4315 7.2115 5.7915 6.8215 5.4015C6.4315 5.0115 5.7915 5.0115 5.4015 5.4015Z M9 4.5C9 5.05 9.45 5.5 10 5.5C10.55 5.5 11 5.05 11 4.5C11 3.95 10.55 3.5 10 3.5C9.45 3.5 9 3.95 9 4.5Z " /></g></svg>