<svg width="24" height="24" fill="none" xmlns="http://www.w3.org/2000/svg"><path fill-rule="evenodd" clip-rule="evenodd" d="M2 12c0 5.52 4.48 10 10 10s10-4.48 10-10S17.52 2 12 2 2 6.48 2 12Zm13.83-4.66c-2.89 2.03-4.52 3.23-4.89 3.6a1.49 1.49 0 0 0 0 2.12c.58.59 1.53.59 2.12 0 .22-.22 1.42-1.85 3.6-4.9.17-.23.14-.55-.06-.76a.605.605 0 0 0-.77-.06ZM16.5 12c0 .55.45 1 1 1s1-.45 1-1-.45-1-1-1-1 .45-1 1Zm-11 0c0 .55.45 1 1 1s1-.45 1-1-.45-1-1-1-1 .45-1 1Zm1.902-4.598c-.39.39-.39 1.03 0 1.42.39.39 1.03.39 1.42 0 .39-.39.39-1.03 0-1.42-.39-.39-1.03-.39-1.42 0ZM11 6.5c0 .55.45 1 1 1s1-.45 1-1-.45-1-1-1-1 .45-1 1Z" fill="currentColor"/></svg>