<svg xmlns="http://www.w3.org/2000/svg" xmlns:xlink="http://www.w3.org/1999/xlink" viewBox="0 0 24 24" fill="none"><defs><rect id="path_0" x="0" y="0" width="24" height="24" /></defs><g opacity="1" transform="translate(0 0)  rotate(0 12 12)"><mask id="bg-mask-0" fill="white"><use xlink:href="#path_0"></use></mask><g mask="url(#bg-mask-0)" ><path id="分组 1" fill-rule="evenodd" style="fill:#000000" transform="translate(1 2.000003820493638)  rotate(0 11 9.49999808975318)" opacity="1" d="M0 8L2 8L2 18C2 18.27 2.11 18.52 2.29 18.71C2.48 18.89 2.73 19 3 19L19 19C19.27 19 19.52 18.89 19.71 18.71C19.89 18.52 20 18.27 20 18L20 8L22 8L22 6L17.46 6C17.82 5.39 18 4.7 18 4C18 3.3 17.82 2.61 17.46 2C17.11 1.39 16.61 0.89 16 0.54C15.39 0.18 14.7 0 14 0C13.43 0 12.87 0.12 12.35 0.35C11.84 0.59 11.37 0.93 11 1.36C10.34 0.61 9.43 0.14 8.45 0.03C7.46 -0.09 6.47 0.17 5.67 0.75C4.86 1.33 4.3 2.19 4.09 3.16C3.88 4.13 4.04 5.14 4.54 6L0 6L0 8Z M10 8L10 18L12 18L12 8L10 8Z M8.15105 2.00999L8.00105 1.99999C7.48105 1.99999 6.98105 2.19999 6.61105 2.55999C6.23105 2.91999 6.01105 3.40999 5.99105 3.91999C5.97105 4.43999 6.15105 4.94999 6.50105 5.33999C6.85105 5.71999 7.33105 5.95999 7.85105 5.99999L8.00105 5.99999L10.0011 5.99999L10.0011 3.99999C10.0011 3.51999 9.83105 3.05999 9.52105 2.69999C9.21105 2.32999 8.77105 2.09999 8.30105 2.01999L8.15105 2.00999Z M14 6.00001C14.5 6.00001 14.99 5.81001 15.36 5.47001C15.73 5.12001 15.96 4.65001 16 4.15001L16 4.00001C16 3.47001 15.79 2.96001 15.41 2.59001C15.04 2.21001 14.53 2.00001 14 2.00001C13.5 2.00001 13.01 2.19001 12.64 2.53001C12.27 2.88001 12.04 3.35001 12.01 3.85001L12 4.00001L12 6.00001L14 6.00001Z " /></g></g></svg>