<svg width="24" height="24" fill="none" xmlns="http://www.w3.org/2000/svg"><mask id="a" style="mask-type:alpha" maskUnits="userSpaceOnUse" x="0" y="0" width="24" height="24"><path d="M24 0H0v24h24V0Z" fill="#fff"/></mask><g mask="url(#a)"><path fill-rule="evenodd" clip-rule="evenodd" d="M1 10h2v10c0 .27.11.52.29.71.19.18.44.29.71.29h16c.27 0 .52-.11.71-.29.18-.19.29-.44.29-.71V10h2V8h-4.54c.36-.61.54-1.3.54-2s-.18-1.39-.54-2c-.35-.61-.85-1.11-1.46-1.46-.61-.36-1.3-.54-2-.54-.57 0-1.13.12-1.65.35-.51.24-.98.58-1.35 1.01a3.988 3.988 0 0 0-2.55-1.33c-.99-.12-1.98.14-2.78.72-.81.58-1.37 1.44-1.58 2.41-.21.97-.05 1.98.45 2.84H1v2Zm10 0v10h2V10h-2ZM9.151 4.01 9.001 4c-.52 0-1.02.2-1.39.56-.38.36-.6.85-.62 1.36-.02.52.16 1.03.51 1.42.35.38.83.62 1.35.66h2.15V6c0-.48-.17-.94-.48-1.3-.31-.37-.75-.6-1.22-.68l-.15-.01ZM15 8c.5 0 .99-.19 1.36-.53.37-.35.6-.82.64-1.32V6c0-.53-.21-1.04-.59-1.41C16.04 4.21 15.53 4 15 4c-.5 0-.99.19-1.36.53-.37.35-.6.82-.63 1.32L13 6v2h2Z" fill="currentColor"/></g></svg>