<svg width="24" height="24" fill="none" xmlns="http://www.w3.org/2000/svg"><mask id="a" style="mask-type:alpha" maskUnits="userSpaceOnUse" x="0" y="0" width="24" height="24"><path d="M24 0H0v24h24V0Z" fill="#fff"/></mask><g mask="url(#a)" fill-rule="evenodd" clip-rule="evenodd" fill="currentColor"><path d="M19 7c0-.53-.21-1.04-.59-1.41C18.04 5.21 17.53 5 17 5h-2V2l-4.5 4 4.5 4V7h2v8.17a2.998 2.998 0 0 0-1.96 3.34c.12.69.48 1.33 1.03 1.78.54.46 1.22.71 1.93.71s1.39-.25 1.93-.71c.55-.45.91-1.09 1.03-1.78A2.998 2.998 0 0 0 19 15.17V7ZM5.999 21c.71 0 1.39-.25 1.94-.71a2.998 2.998 0 0 0-.94-5.12V8.83a2.998 2.998 0 0 0 .94-5.12c-.55-.46-1.23-.71-1.94-.71s-1.39.25-1.93.71c-.54.45-.91 1.09-1.03 1.78a2.998 2.998 0 0 0 1.96 3.34v6.34a2.998 2.998 0 0 0-1.96 3.34c.12.7.49 1.33 1.03 1.78.54.46 1.22.71 1.93.71Z"/></g></svg>