<svg width="24" height="24" fill="none" xmlns="http://www.w3.org/2000/svg"><mask id="a" style="mask-type:alpha" maskUnits="userSpaceOnUse" x="0" y="0" width="24" height="24"><path d="M24 0H0v24h24V0Z" fill="#fff"/></mask><g mask="url(#a)"><path fill-rule="evenodd" clip-rule="evenodd" d="M3 11.002v2h5.13c.22.86.72 1.62 1.42 2.16s1.56.84 2.45.84c.89 0 1.75-.3 2.45-.84.7-.54 1.2-1.3 1.42-2.16H21v-2h-5.13a3.97 3.97 0 0 0-1.42-2.16c-.7-.55-1.56-.84-2.45-.84-.89 0-1.75.29-2.45.84-.7.54-1.2 1.3-1.42 2.16H3Z" fill="currentColor"/></g></svg>