<svg xmlns="http://www.w3.org/2000/svg" xmlns:xlink="http://www.w3.org/1999/xlink" width="24" height="24" viewBox="0 0 24 24" fill="none"><defs><rect id="path_0" x="0" y="0" width="24" height="24" /></defs><g opacity="1" transform="translate(0 0)  rotate(0 12 12)"><mask id="bg-mask-0" fill="white"><use xlink:href="#path_0"></use></mask><g mask="url(#bg-mask-0)" ><path id="路径 1" fill-rule="evenodd" style="fill:#000000" transform="translate(2.9980473744222245 2.9987814661361707)  rotate(0 9.001388457355311 9.000981954607532)" opacity="1" d="M13.14,0.64C12.59,1.08 12.21,1.7 12.06,2.39C11.92,3.08 12.03,3.8 12.36,4.43C12.7,5.05 13.24,5.53 13.9,5.79C13.72,6.43 13.35,6.99 12.82,7.39C12.3,7.78 11.66,8 11,8L7,8C5.88,8 4.84,8.37 4,9L4,5.83C4.67,5.6 5.23,5.13 5.59,4.52C5.95,3.91 6.08,3.19 5.96,2.49C5.84,1.8 5.48,1.16 4.94,0.71C4.4,0.25 3.71,0 3,0C2.29,0 1.61,0.25 1.07,0.71C0.53,1.16 0.16,1.8 0.04,2.49C-0.08,3.19 0.06,3.91 0.41,4.52C0.77,5.13 1.33,5.6 2,5.83L2,12.17C1.34,12.41 0.78,12.86 0.42,13.47C0.06,14.07 -0.07,14.79 0.04,15.48C0.15,16.17 0.5,16.81 1.03,17.27C1.56,17.73 2.24,17.99 2.94,18C3.65,18.01 4.33,17.78 4.88,17.34C5.43,16.9 5.8,16.28 5.94,15.59C6.08,14.9 5.97,14.19 5.64,13.57C5.3,12.95 4.76,12.47 4.11,12.21C4.28,11.58 4.66,11.02 5.18,10.62C5.7,10.22 6.34,10 7,10L11,10C12.18,10 13.32,9.59 14.22,8.83C15.12,8.07 15.73,7.02 15.93,5.86C16.6,5.64 17.17,5.19 17.55,4.59C17.92,3.99 18.07,3.28 17.97,2.58C17.87,1.88 17.53,1.24 17,0.77C16.48,0.29 15.8,0.02 15.1,0C14.39,-0.02 13.7,0.21 13.14,0.64Z " /></g></g></svg>