<svg width="24" height="24" fill="none" xmlns="http://www.w3.org/2000/svg"><mask id="a" style="mask-type:alpha" maskUnits="userSpaceOnUse" x="0" y="0" width="24" height="24"><path d="M24 0H0v24h24V0Z" fill="#fff"/></mask><g mask="url(#a)"><path fill-rule="evenodd" clip-rule="evenodd" d="M3.408 16.48c-.35.61-.49 1.33-.37 2.03.12.7.49 1.33 1.03 1.78a2.993 2.993 0 0 0 3.87 0 2.998 2.998 0 0 0-.94-5.12V12c.87.65 1.92 1 3 1h4c.66 0 1.3.22 1.82.62.53.4.9.96 1.08 1.59-.65.26-1.19.73-1.53 1.34-.34.62-.45 1.33-.32 2.01.13.69.5 1.31 1.04 1.75.54.45 1.21.69 1.91.69.72 0 1.41-.26 1.95-.72a3 3 0 0 0 1.01-1.81 3.03 3.03 0 0 0-.4-2.04c-.37-.61-.95-1.06-1.63-1.28-.2-1.16-.81-2.22-1.71-2.97-.9-.76-2.04-1.18-3.22-1.18h-4c-.66 0-1.3-.22-1.82-.61-.52-.4-.9-.96-1.07-1.6a3.03 3.03 0 0 0 1.53-1.36c.33-.61.44-1.33.3-2.02s-.51-1.31-1.06-1.75A3.02 3.02 0 0 0 5.938 3c-.7.01-1.38.27-1.91.73-.53.47-.88 1.1-.99 1.79-.11.7.02 1.41.38 2.01.36.61.92 1.07 1.58 1.3v6.34c-.67.24-1.23.7-1.59 1.31ZM6.71 6.71C6.89 6.52 7 6.27 7 6c0-.27-.11-.52-.29-.71C6.52 5.11 6.27 5 6 5c-.27 0-.52.11-.71.29-.18.19-.29.44-.29.71 0 .27.11.52.29.71.19.18.44.29.71.29.27 0 .52-.11.71-.29Zm0 12c.18-.19.29-.44.29-.71 0-.27-.11-.52-.29-.71-.19-.18-.44-.29-.71-.29-.27 0-.52.11-.71.29-.18.19-.29.44-.29.71 0 .27.11.52.29.71.19.18.44.29.71.29.27 0 .52-.11.71-.29Zm12 0c.18-.19.29-.44.29-.71 0-.27-.11-.52-.29-.71-.19-.18-.44-.29-.71-.29-.27 0-.52.11-.71.29-.18.19-.29.44-.29.71 0 .27.11.52.29.71.19.18.44.29.71.29.27 0 .52-.11.71-.29Z" fill="currentColor"/></g></svg>