<svg xmlns="http://www.w3.org/2000/svg" xmlns:xlink="http://www.w3.org/1999/xlink" width="24" height="24" viewBox="0 0 24 24" fill="none"><defs><rect id="path_0" x="0" y="0" width="24" height="24" /></defs><g opacity="1" transform="translate(0 0)  rotate(0 12 12)"><mask id="bg-mask-0" fill="white"><use xlink:href="#path_0"></use></mask><g mask="url(#bg-mask-0)" ><path id="分组 1" fill-rule="evenodd" style="fill:#000000" transform="translate(2.99902222656908 2)  rotate(0 9.000997605560666 9.50025)" opacity="1" d="M15.001 19C15.711 19 16.391 18.75 16.931 18.29C17.481 17.84 17.841 17.2 17.961 16.51C18.081 15.81 17.951 15.09 17.591 14.48C17.231 13.87 16.671 13.41 16.001 13.17L16.001 5C16.001 4.47 15.791 3.96 15.411 3.59C15.041 3.21 14.531 3 14.001 3L12.001 3L12.001 0L7.50098 4L12.001 8L12.001 5L14.001 5L14.001 13.17C13.331 13.41 12.771 13.87 12.411 14.48C12.051 15.09 11.921 15.81 12.041 16.51C12.161 17.2 12.521 17.84 13.071 18.29C13.611 18.75 14.291 19 15.001 19Z M5.59 14.4795C5.23 13.8695 4.67 13.4095 4 13.1695L4 6.82951C4.67 6.58951 5.23 6.12951 5.59 5.51951C5.95 4.90951 6.08 4.18951 5.96 3.48951C5.84 2.79951 5.48 2.15951 4.94 1.70951C4.39 1.24951 3.71 0.99951 3 0.99951C2.29 0.99951 1.61 1.24951 1.07 1.70951C0.53 2.15951 0.16 2.79951 0.04 3.48951C-0.08 4.18951 0.05 4.90951 0.41 5.51951C0.77 6.12951 1.33 6.58951 2 6.82951L2 13.1695C1.33 13.4095 0.77 13.8695 0.41 14.4795C0.05 15.0895 -0.08 15.8095 0.04 16.5095C0.16 17.2095 0.53 17.8395 1.07 18.2895C1.61 18.7495 2.29 18.9995 3 18.9995C3.71 18.9995 4.39 18.7495 4.94 18.2895C5.48 17.8395 5.84 17.2095 5.96 16.5095C6.08 15.8095 5.95 15.0895 5.59 14.4795Z M3.71101 4.71C3.89101 4.52 4.00101 4.27 4.00101 4C4.00101 3.73 3.89101 3.48 3.71101 3.29C3.52101 3.11 3.27101 3 3.00101 3C2.73101 3 2.48101 3.11 2.29101 3.29C2.11101 3.48 2.00101 3.73 2.00101 4C2.00101 4.27 2.11101 4.52 2.29101 4.71C2.48101 4.89 2.73101 5 3.00101 5C3.27101 5 3.52101 4.89 3.71101 4.71Z M3.71101 16.71C3.89101 16.52 4.00101 16.27 4.00101 16C4.00101 15.73 3.89101 15.48 3.71101 15.29C3.52101 15.11 3.27101 15 3.00101 15C2.73101 15 2.48101 15.11 2.29101 15.29C2.11101 15.48 2.00101 15.73 2.00101 16C2.00101 16.27 2.11101 16.52 2.29101 16.71C2.48101 16.89 2.73101 17 3.00101 17C3.27101 17 3.52101 16.89 3.71101 16.71Z M15.711 16.71C15.891 16.52 16.001 16.27 16.001 16C16.001 15.73 15.891 15.48 15.711 15.29C15.521 15.11 15.271 15 15.001 15C14.731 15 14.481 15.11 14.291 15.29C14.111 15.48 14.001 15.73 14.001 16C14.001 16.27 14.111 16.52 14.291 16.71C14.481 16.89 14.731 17 15.001 17C15.271 17 15.521 16.89 15.711 16.71Z " /></g></g></svg>