<svg xmlns="http://www.w3.org/2000/svg" xmlns:xlink="http://www.w3.org/1999/xlink" viewBox="0 0 24 24" fill="none"><defs><rect id="path_0" x="0" y="0" width="24" height="24" /></defs><g opacity="1" transform="translate(0 0)  rotate(0 12 12)"><mask id="bg-mask-0" fill="white"><use xlink:href="#path_0"></use></mask><g mask="url(#bg-mask-0)" ><path id="路径 1" fill-rule="evenodd" style="fill:#000000" transform="translate(2.9980473744222262 2.999147833611957)  rotate(0 8.999555158690997 9.000626083194021)" opacity="1" d="M17.96,15.47C18.07,14.76 17.93,14.04 17.56,13.43C17.19,12.82 16.61,12.37 15.93,12.15C15.73,10.99 15.12,9.93 14.22,9.18C13.32,8.42 12.18,8 11,8L7,8C6.34,8 5.7,7.78 5.18,7.39C4.66,6.99 4.28,6.43 4.11,5.79C4.76,5.53 5.3,5.05 5.64,4.43C5.97,3.82 6.08,3.1 5.94,2.41C5.8,1.72 5.43,1.1 4.88,0.66C4.33,0.22 3.65,-0.01 2.94,0C2.24,0.01 1.56,0.27 1.03,0.73C0.5,1.2 0.15,1.83 0.04,2.52C-0.07,3.22 0.06,3.93 0.42,4.53C0.78,5.14 1.34,5.6 2,5.83L2,12.17C1.33,12.41 0.77,12.87 0.41,13.48C0.06,14.09 -0.08,14.81 0.04,15.51C0.16,16.21 0.53,16.84 1.07,17.29C1.61,17.75 2.29,18 3,18C3.71,18 4.4,17.75 4.94,17.29C5.48,16.84 5.84,16.21 5.96,15.51C6.08,14.81 5.95,14.09 5.59,13.48C5.23,12.87 4.67,12.41 4,12.17L4,9C4.87,9.65 5.92,10 7,10L11,10C11.66,10 12.3,10.22 12.82,10.62C13.35,11.02 13.72,11.58 13.9,12.21C13.25,12.47 12.71,12.94 12.37,13.55C12.03,14.17 11.92,14.88 12.05,15.56C12.18,16.25 12.55,16.87 13.09,17.31C13.63,17.76 14.3,18 15,18C15.72,18 16.41,17.74 16.95,17.28C17.49,16.82 17.85,16.17 17.96,15.47Z " /></g></g></svg>