<svg xmlns="http://www.w3.org/2000/svg" xmlns:xlink="http://www.w3.org/1999/xlink" width="24" height="24" viewBox="0 0 24 24" fill="none"><defs><rect id="path_0" x="0" y="0" width="24" height="24" /></defs><g opacity="1" transform="translate(0 0)  rotate(0 12 12)"><mask id="bg-mask-0" fill="white"><use xlink:href="#path_0"></use></mask><g mask="url(#bg-mask-0)" ><path id="路径 1" fill-rule="evenodd" style="fill:#000000" transform="translate(3 8.00208)  rotate(0 9 3.99796)" opacity="1" d="M0,3L0,5L5.13,5C5.35,5.86 5.85,6.62 6.55,7.16C7.25,7.7 8.11,8 9,8C9.89,8 10.75,7.7 11.45,7.16C12.15,6.62 12.65,5.86 12.87,5L18,5L18,3L12.87,3C12.65,2.14 12.15,1.38 11.45,0.84C10.75,0.29 9.89,0 9,0C8.11,0 7.25,0.29 6.55,0.84C5.85,1.38 5.35,2.14 5.13,3L0,3Z " /></g></g></svg>