<svg xmlns="http://www.w3.org/2000/svg" xmlns:xlink="http://www.w3.org/1999/xlink" width="24" height="24" viewBox="0 0 24 24" fill="none"><defs><rect id="path_0" x="0" y="0" width="24" height="24" /></defs><g opacity="1" transform="translate(0 0)  rotate(0 12 12)"><mask id="bg-mask-0" fill="white"><use xlink:href="#path_0"></use></mask><g mask="url(#bg-mask-0)" ><g opacity="1" transform="translate(2.99902222656908 2)  rotate(0 9.000997605560666 9.50025)"><path id="路径 1" fill-rule="evenodd" style="fill:#000000" transform="translate(7.50097777343092 0)  rotate(0 5.250508718845207 9.50025)" opacity="1" d="M8.5,5C8.5,4.47 8.29,3.96 7.91,3.59C7.54,3.21 7.03,3 6.5,3L4.5,3L4.5,0L0,4L4.5,8L4.5,5L6.5,5L6.5,13.17C5.83,13.41 5.27,13.87 4.91,14.48C4.55,15.09 4.42,15.81 4.54,16.51C4.66,17.2 5.02,17.84 5.57,18.29C6.11,18.75 6.79,19 7.5,19C8.21,19 8.89,18.75 9.43,18.29C9.98,17.84 10.34,17.2 10.46,16.51C10.58,15.81 10.45,15.09 10.09,14.48C9.73,13.87 9.17,13.41 8.5,13.17L8.5,5Z " /><path id="路径 2" fill-rule="evenodd" style="fill:#000000" transform="translate(0 0.9995099999999999)  rotate(0 3.0010077734309197 9.000494999999999)" opacity="1" d="M3,18C3.71,18 4.39,17.75 4.94,17.29C5.48,16.84 5.84,16.21 5.96,15.51C6.08,14.81 5.95,14.09 5.59,13.48C5.23,12.87 4.67,12.41 4,12.17L4,5.83C4.67,5.59 5.23,5.13 5.59,4.52C5.95,3.91 6.08,3.19 5.96,2.49C5.84,1.8 5.48,1.16 4.94,0.71C4.39,0.25 3.71,0 3,0C2.29,0 1.61,0.25 1.07,0.71C0.53,1.16 0.16,1.8 0.04,2.49C-0.08,3.19 0.05,3.91 0.41,4.52C0.77,5.13 1.33,5.59 2,5.83L2,12.17C1.33,12.41 0.77,12.87 0.41,13.48C0.05,14.09 -0.08,14.81 0.04,15.51C0.16,16.21 0.53,16.84 1.07,17.29C1.61,17.75 2.29,18 3,18Z " /></g></g></g></svg>