<svg width="24" height="24" fill="none" xmlns="http://www.w3.org/2000/svg"><mask id="a" style="mask-type:alpha" maskUnits="userSpaceOnUse" x="0" y="0" width="24" height="24"><path d="M24 0H0v24h24V0Z" fill="#fff"/></mask><g mask="url(#a)"><path fill-rule="evenodd" clip-rule="evenodd" d="M16.138 3.639c-.55.44-.93 1.06-1.08 1.75-.14.69-.03 1.41.3 2.04.34.62.88 1.1 1.54 1.36-.18.64-.55 1.2-1.08 1.6-.52.39-1.16.61-1.82.61h-4c-1.12 0-2.16.37-3 1v-3.17c.67-.23 1.23-.7 1.59-1.31a2.998 2.998 0 0 0-.65-3.81 2.993 2.993 0 0 0-3.87 0c-.54.45-.91 1.09-1.03 1.78-.12.7.02 1.42.37 2.03.36.61.92 1.08 1.59 1.31v6.34c-.66.24-1.22.69-1.58 1.3-.36.6-.49 1.32-.38 2.01.11.69.46 1.33.99 1.79.53.46 1.21.72 1.91.73.71.01 1.39-.22 1.94-.66a3.015 3.015 0 0 0 .76-3.77 3.03 3.03 0 0 0-1.53-1.36 3.002 3.002 0 0 1 2.89-2.21h4c1.18 0 2.32-.41 3.22-1.17.9-.76 1.51-1.81 1.71-2.97.67-.22 1.24-.67 1.62-1.27.37-.6.52-1.31.42-2.01-.1-.7-.44-1.34-.97-1.81-.52-.48-1.2-.75-1.9-.77-.71-.02-1.4.21-1.96.64Z" fill="currentColor"/></g></svg>