<svg width="24" height="24" fill="none" xmlns="http://www.w3.org/2000/svg"><mask id="a" style="mask-type:alpha" maskUnits="userSpaceOnUse" x="0" y="0" width="24" height="24"><path d="M24 0H0v24h24V0Z" fill="#fff"/></mask><g mask="url(#a)"><path fill-rule="evenodd" clip-rule="evenodd" d="M12 8.002c-.89 0-1.75.29-2.45.84-.7.54-1.2 1.3-1.42 2.16H3v2h5.13c.22.86.72 1.62 1.42 2.16s1.56.84 2.45.84c.89 0 1.75-.3 2.45-.84.7-.54 1.2-1.3 1.42-2.16H21v-2h-5.13a3.97 3.97 0 0 0-1.42-2.16c-.7-.55-1.56-.84-2.45-.84Zm1.41 5.408c.38-.37.59-.88.59-1.41 0-.53-.21-1.04-.59-1.41-.37-.38-.88-.59-1.41-.59-.53 0-1.04.21-1.41.59-.38.37-.59.88-.59 1.41 0 .53.21 1.04.59 1.41.37.38.88.59 1.41.59.53 0 1.04-.21 1.41-.59Z" fill="currentColor"/></g></svg>