<svg xmlns="http://www.w3.org/2000/svg" xmlns:xlink="http://www.w3.org/1999/xlink" width="24" height="24" viewBox="0 0 24 24" fill="none"><defs><rect id="path_0" x="0" y="0" width="24" height="24" /></defs><g opacity="1" transform="translate(0 0)  rotate(0 12 12)"><mask id="bg-mask-0" fill="white"><use xlink:href="#path_0"></use></mask><g mask="url(#bg-mask-0)" ><path id="分组 1" fill-rule="evenodd" style="fill:#000000" transform="translate(3 2)  rotate(0 9 10.75)" opacity="1" d="M18 1C18 0.73 17.89 0.48 17.71 0.29C17.52 0.11 17.27 0 17 0L3 0C2.2 0 1.44 0.32 0.88 0.88C0.32 1.44 0 2.2 0 3L0 15.5C0 16.43 0.37 17.32 1.03 17.97C1.68 18.63 2.57 19 3.5 19L4 19L4 21.5L7 19.5L10 21.5L10 19L17 19C17.27 19 17.52 18.89 17.71 18.71C17.89 18.52 18 18.27 18 18L18 1Z M10 15L10 17L16 17L16 14L3.5 14C3.1 14 2.72 14.16 2.44 14.44C2.16 14.72 2 15.1 2 15.5C2 15.9 2.16 16.28 2.44 16.56C2.72 16.84 3.1 17 3.5 17L4 17L4 15L10 15Z M16 2L3 2L3 12.04C3.17 12.01 3.33 12 3.5 12L16 12L16 2Z M4 5L6 5L6 3L4 3L4 5Z M4 8L6 8L6 6L4 6L4 8Z M4 11L6 11L6 9L4 9L4 11Z " /></g></g></svg>