<svg width="24" height="24" fill="none" xmlns="http://www.w3.org/2000/svg"><mask id="a" style="mask-type:alpha" maskUnits="userSpaceOnUse" x="0" y="0" width="24" height="24"><path d="M24 0H0v24h24V0Z" fill="#fff"/></mask><g mask="url(#a)"><path fill-rule="evenodd" clip-rule="evenodd" d="M21 3c0-.27-.11-.52-.29-.71-.19-.18-.44-.29-.71-.29H6c-.8 0-1.56.32-2.12.88S3 4.2 3 5v12.5c0 .93.37 1.82 1.03 2.47.65.66 1.54 1.03 2.47 1.03H7v2.5l3-2 3 2V21h7c.27 0 .52-.11.71-.29.18-.19.29-.44.29-.71V3Zm-8 14v2h6v-3H6.5a1.499 1.499 0 0 0-1.06 2.56c.28.28.66.44 1.06.44H7v-2h6Zm6-13H6v10.04c.17-.03.33-.04.5-.04H19V4ZM7 7h2V5H7v2Zm0 3h2V8H7v2Zm0 3h2v-2H7v2Z" fill="currentColor"/></g></svg>