<svg width="24" height="24" fill="none" xmlns="http://www.w3.org/2000/svg"><mask id="a" style="mask-type:alpha" maskUnits="userSpaceOnUse" x="0" y="0" width="24" height="24"><path d="M24 0H0v24h24V0Z" fill="#fff"/></mask><g mask="url(#a)"><path fill-rule="evenodd" clip-rule="evenodd" d="M18 21c.71 0 1.39-.25 1.93-.71.55-.45.91-1.09 1.03-1.78A2.998 2.998 0 0 0 19 15.17V7c0-.53-.21-1.04-.59-1.41C18.04 5.21 17.53 5 17 5h-2V2l-4.5 4 4.5 4V7h2v8.17a2.998 2.998 0 0 0-1.96 3.34c.12.69.48 1.33 1.03 1.78.54.46 1.22.71 1.93.71Zm-9.411-4.52c-.36-.61-.92-1.07-1.59-1.31V8.83a2.998 2.998 0 0 0 .94-5.12c-.55-.46-1.23-.71-1.94-.71s-1.39.25-1.93.71c-.54.45-.91 1.09-1.03 1.78a2.998 2.998 0 0 0 1.96 3.34v6.34a2.998 2.998 0 0 0-1.96 3.34c.12.7.49 1.33 1.03 1.78.54.46 1.22.71 1.93.71s1.39-.25 1.94-.71a2.998 2.998 0 0 0 .65-3.81ZM6.71 6.71C6.89 6.52 7 6.27 7 6c0-.27-.11-.52-.29-.71C6.52 5.11 6.27 5 6 5c-.27 0-.52.11-.71.29-.18.19-.29.44-.29.71 0 .27.11.52.29.71.19.18.44.29.71.29.27 0 .52-.11.71-.29Zm0 12c.18-.19.29-.44.29-.71 0-.27-.11-.52-.29-.71-.19-.18-.44-.29-.71-.29-.27 0-.52.11-.71.29-.18.19-.29.44-.29.71 0 .27.11.52.29.71.19.18.44.29.71.29.27 0 .52-.11.71-.29Zm12 0c.18-.19.29-.44.29-.71 0-.27-.11-.52-.29-.71-.19-.18-.44-.29-.71-.29-.27 0-.52.11-.71.29-.18.19-.29.44-.29.71 0 .27.11.52.29.71.19.18.44.29.71.29.27 0 .52-.11.71-.29Z" fill="currentColor"/></g></svg>