<svg width="24" height="24" fill="none" xmlns="http://www.w3.org/2000/svg"><mask id="a" style="mask-type:alpha" maskUnits="userSpaceOnUse" x="0" y="0" width="24" height="24"><path d="M24 0H0v24h24V0Z" fill="#fff"/></mask><g mask="url(#a)"><path fill-rule="evenodd" clip-rule="evenodd" d="M14.5 21.01c0 .26.19.58.69.48 1.98-.67 3.71-1.95 4.93-3.65C21.34 16.14 22 14.1 22 12c0-5.52-4.47-10-10-10C6.48 2 2 6.48 2 12c0 2.1.66 4.15 1.89 5.85a9.967 9.967 0 0 0 4.95 3.64c.5.09.69-.22.69-.48 0-.24-.02-1.02-.02-1.86-2.51.46-3.16-.61-3.36-1.17-.11-.29-.6-1.18-1.02-1.42-.35-.18-.85-.65-.02-.66.79-.01 1.35.73 1.54 1.03.9 1.51 2.34 1.08 2.91.82.09-.65.35-1.09.64-1.34-2.22-.25-4.55-1.11-4.55-4.93 0-1.09.39-1.99 1.03-2.69-.1-.25-.45-1.28.1-2.65 0 0 .83-.26 2.75 1.02a9.13 9.13 0 0 1 2.5-.33c.85 0 1.7.11 2.5.33 1.91-1.3 2.75-1.02 2.75-1.02.55 1.37.2 2.4.1 2.65.63.7 1.02 1.59 1.02 2.69 0 3.83-2.34 4.68-4.56 4.93.36.32.67.92.67 1.85 0 1.34-.01 2.42-.01 2.75Z" fill="currentColor"/></g></svg>