<svg xmlns="http://www.w3.org/2000/svg" xmlns:xlink="http://www.w3.org/1999/xlink" viewBox="0 0 24 24" fill="none"><defs><rect id="path_0" x="0" y="0" width="24" height="24" /></defs><g opacity="1" transform="translate(0 0)  rotate(0 12 12)"><mask id="bg-mask-0" fill="white"><use xlink:href="#path_0"></use></mask><g mask="url(#bg-mask-0)" ><path id="路径 1" fill-rule="evenodd" style="fill:#000000" transform="translate(1.9999985512893375 2)  rotate(0 10.000000724355331 9.753063811281242)" opacity="1" d="M12.5,19.01C12.5,19.27 12.69,19.59 13.19,19.49C15.17,18.82 16.9,17.54 18.12,15.84C19.34,14.14 20,12.1 20,10C20,4.48 15.53,0 10,0C4.48,0 0,4.48 0,10C0,12.1 0.66,14.15 1.89,15.85C3.11,17.55 4.85,18.83 6.84,19.49C7.34,19.58 7.53,19.27 7.53,19.01C7.53,18.77 7.51,17.99 7.51,17.15C5,17.61 4.35,16.54 4.15,15.98C4.04,15.69 3.55,14.8 3.13,14.56C2.78,14.38 2.28,13.91 3.11,13.9C3.9,13.89 4.46,14.63 4.65,14.93C5.55,16.44 6.99,16.01 7.56,15.75C7.65,15.1 7.91,14.66 8.2,14.41C5.98,14.16 3.65,13.3 3.65,9.48C3.65,8.39 4.04,7.49 4.68,6.79C4.58,6.54 4.23,5.51 4.78,4.14C4.78,4.14 5.61,3.88 7.53,5.16C8.34,4.94 9.18,4.82 10.03,4.83C10.88,4.83 11.73,4.94 12.53,5.16C14.44,3.86 15.28,4.14 15.28,4.14C15.83,5.51 15.48,6.54 15.38,6.79C16.01,7.49 16.4,8.38 16.4,9.48C16.4,13.31 14.06,14.16 11.84,14.41C12.2,14.73 12.51,15.33 12.51,16.26C12.51,17.6 12.5,18.68 12.5,19.01Z " /></g></g></svg>