<svg width="24" height="24" fill="none" xmlns="http://www.w3.org/2000/svg"><mask id="a" style="mask-type:alpha" maskUnits="userSpaceOnUse" x="0" y="0" width="24" height="24"><path d="M24 0H0v24h24V0Z" fill="#fff"/></mask><g mask="url(#a)"><path fill-rule="evenodd" clip-rule="evenodd" d="M6.118 16.002c-.006-.008-.006-.01 0-.004-.69-.84-1.19-1.3-1.94-1.57a.982.982 0 0 0-.77.04.97.97 0 0 0-.51.56c-.09.25-.08.53.04.77.11.24.31.42.56.51.3.11.6.38 1.06.95.15.19.31.39.47.58.3.36.56.62.86.82.59.39 1.34.54 2.25.48v.99c-.23.05-.43.18-.57.36-.15.18-.22.41-.22.64.01.23.09.45.24.63.15.17.36.29.59.33 1.12.2 1.96-.54 1.96-1.53v-3.15c0-.63.24-1.19.43-1.36.66-.57.32-1.65-.55-1.75-2.95-.33-4.32-1.49-4.32-4.66 0-.94.32-1.75.92-2.4.12-.14.21-.31.24-.5.03-.18.01-.37-.06-.55-.16-.41-.23-.95-.09-1.6.5.14 1.12.44 1.87.94.12.08.26.14.4.16.14.02.29.02.43-.02.82-.23 1.7-.35 2.59-.35.88 0 1.75.11 2.59.35.14.04.29.04.44.02.14-.02.28-.08.4-.16.75-.51 1.36-.81 1.86-.95h.01c.14.66.07 1.2-.1 1.61-.07.18-.09.37-.06.55.04.19.12.36.25.5.6.66.91 1.45.91 2.4 0 3.18-1.37 4.33-4.33 4.66-.87.1-1.21 1.18-.54 1.75.24.21.42.67.42 1.36 0 .66 0 1.29-.01 2v1.15c0 1 .84 1.76 1.98 1.53.22-.05.43-.17.57-.34.15-.18.23-.4.24-.63 0-.23-.08-.46-.22-.64-.15-.18-.35-.3-.57-.35.01-.91.01-1.81.01-2.72 0-.5-.06-.96-.19-1.38 2.97-.72 4.64-2.63 4.64-6.39 0-1.25-.36-2.35-1.06-3.29.22-.89.19-1.97-.3-3.19a.879.879 0 0 0-.24-.36 1.07 1.07 0 0 0-.59-.27c-.81-.13-1.95.16-3.42 1.1-.87-.21-1.78-.31-2.69-.31-.9 0-1.8.1-2.68.31-1.48-.93-2.62-1.22-3.42-1.1-.08.01-.13.02-.21.05a1.014 1.014 0 0 0-.63.58c-.48 1.22-.52 2.3-.3 3.19-.69.94-1.06 2.05-1.06 3.29 0 3.76 1.68 5.67 4.65 6.4-.11.34-.18.71-.2 1.09-.56.06-.95 0-1.15-.14-.11-.07-.25-.21-.44-.43-.08-.097-.4-.496-.44-.556Z" fill="currentColor"/></g></svg>