<svg xmlns="http://www.w3.org/2000/svg" xmlns:xlink="http://www.w3.org/1999/xlink" viewBox="0 0 24 24" fill="none"><defs><rect id="path_0" x="0" y="0" width="24" height="24" /></defs><g opacity="1" transform="translate(0 0)  rotate(0 12 12)"><mask id="bg-mask-0" fill="white"><use xlink:href="#path_0"></use></mask><g mask="url(#bg-mask-0)" ><path id="路径 1" fill-rule="evenodd" style="fill:#000000" transform="translate(2.837648520152033 2.4977996423790607)  rotate(0 8.731175739923984 9.814452981827294)" opacity="1" d="M3.28004 13.504C3.27447 13.4959 3.27403 13.494 3.28 13.5C2.59 12.66 2.09 12.2 1.34 11.93C1.09 11.84 0.81 11.85 0.57 11.97C0.33 12.08 0.15 12.28 0.06 12.53C-0.03 12.78 -0.02 13.06 0.1 13.3C0.21 13.54 0.41 13.72 0.66 13.81C0.96 13.92 1.26 14.19 1.72 14.76C1.87 14.95 2.03 15.15 2.19 15.34C2.49 15.7 2.75 15.96 3.05 16.16C3.64 16.55 4.39 16.7 5.3 16.64L5.3 17.63C5.07 17.68 4.87 17.81 4.73 17.99C4.58 18.17 4.51 18.4 4.51 18.63C4.52 18.86 4.6 19.08 4.75 19.26C4.9 19.43 5.11 19.55 5.34 19.59C6.46 19.79 7.3 19.05 7.3 18.06L7.3 14.91C7.3 14.28 7.54 13.72 7.73 13.55C8.39 12.98 8.05 11.9 7.18 11.8C4.23 11.47 2.86 10.31 2.86 7.14C2.86 6.2 3.18 5.39 3.78 4.74C3.9 4.6 3.99 4.43 4.02 4.24C4.05 4.06 4.03 3.87 3.96 3.69C3.8 3.28 3.73 2.74 3.87 2.09C4.37 2.23 4.99 2.53 5.74 3.03C5.86 3.11 6 3.17 6.14 3.19C6.28 3.21 6.43 3.21 6.57 3.17C7.39 2.94 8.27 2.82 9.16 2.82C10.04 2.82 10.91 2.93 11.75 3.17C11.89 3.21 12.04 3.21 12.19 3.19C12.33 3.17 12.47 3.11 12.59 3.03C13.34 2.52 13.95 2.22 14.45 2.08L14.46 2.08C14.6 2.74 14.53 3.28 14.36 3.69C14.29 3.87 14.27 4.06 14.3 4.24C14.34 4.43 14.42 4.6 14.55 4.74C15.15 5.4 15.46 6.19 15.46 7.14C15.46 10.32 14.09 11.47 11.13 11.8C10.26 11.9 9.92 12.98 10.59 13.55C10.83 13.76 11.01 14.22 11.01 14.91C11.01 15.57 11.01 16.2 11 16.91L11 18.06C11 19.06 11.84 19.82 12.98 19.59C13.2 19.54 13.41 19.42 13.55 19.25C13.7 19.07 13.78 18.85 13.79 18.62C13.79 18.39 13.71 18.16 13.57 17.98C13.42 17.8 13.22 17.68 13 17.63C13.01 16.72 13.01 15.82 13.01 14.91C13.01 14.41 12.95 13.95 12.82 13.53C15.79 12.81 17.46 10.9 17.46 7.14C17.46 5.89 17.1 4.79 16.4 3.85C16.62 2.96 16.59 1.88 16.1 0.66C16.05 0.52 15.97 0.4 15.86 0.3C15.75 0.2 15.63 0.13 15.49 0.08C15.43 0.06 15.35 0.04 15.27 0.03C14.46 -0.1 13.32 0.19 11.85 1.13C10.98 0.92 10.07 0.82 9.16 0.82C8.26 0.82 7.36 0.92 6.48 1.13C5 0.2 3.86 -0.09 3.06 0.03C2.98 0.04 2.93 0.05 2.85 0.08C2.71 0.12 2.58 0.2 2.47 0.3C2.36 0.4 2.28 0.52 2.22 0.66C1.74 1.88 1.7 2.96 1.92 3.85C1.23 4.79 0.86 5.9 0.86 7.14C0.86 10.9 2.54 12.81 5.51 13.54C5.4 13.88 5.33 14.25 5.31 14.63C4.75 14.69 4.36 14.63 4.16 14.49C4.05 14.42 3.91 14.28 3.72 14.06C3.64074 13.9631 3.32107 13.5638 3.28004 13.504Z" /></g></g></svg>