<svg viewBox="0 0 24 24" fill="none" xmlns="http://www.w3.org/2000/svg"><path d="M2.05 13h5.477a17.9 17.9 0 0 0 2.925 8.88A10.005 10.005 0 0 1 2.05 13Zm0-2a10.005 10.005 0 0 1 8.402-8.88A17.9 17.9 0 0 0 7.527 11H2.05Zm19.9 0h-5.477a17.9 17.9 0 0 0-2.925-8.88A10.005 10.005 0 0 1 21.95 11Zm0 2a10.006 10.006 0 0 1-8.402 8.88A17.9 17.9 0 0 0 16.473 13h5.478ZM9.53 13h4.94A15.907 15.907 0 0 1 12 20.592 15.908 15.908 0 0 1 9.53 13Zm0-2A15.908 15.908 0 0 1 12 3.408 15.907 15.907 0 0 1 14.47 11H9.53Z" fill="currentColor"/></svg>