<svg xmlns="http://www.w3.org/2000/svg" xmlns:xlink="http://www.w3.org/1999/xlink" viewBox="0 0 24 24" fill="none"><defs><rect id="path_0" x="0" y="0" width="24" height="24" /></defs><g opacity="1" transform="translate(0 0)  rotate(0 12 12)"><mask id="bg-mask-0" fill="white"><use xlink:href="#path_0"></use></mask><g mask="url(#bg-mask-0)" ><path id="分组 1" fill-rule="evenodd" style="fill:#000000" transform="translate(2 2)  rotate(0 10 10)" opacity="1" d="M20 10C20 4.48 15.52 0 10 0C4.48 0 0 4.48 0 10C0 15.52 4.48 20 10 20C15.52 20 20 15.52 20 10Z M6.022 11L2.062 11C2.252 12.54 2.892 13.99 3.892 15.17C4.902 16.36 6.222 17.22 7.712 17.67C6.722 15.57 6.152 13.31 6.022 11Z M10 17.75C11.15 15.68 11.83 13.37 11.97 11L8.03 11C8.18 13.44 8.88 15.73 10 17.75Z M13.97 11C13.85 13.31 13.28 15.57 12.29 17.67C13.78 17.22 15.1 16.36 16.1 15.17C17.11 13.99 17.74 12.54 17.94 11L13.97 11Z M6.022 9.003C6.152 6.693 6.722 4.423 7.712 2.333C6.222 2.773 4.902 3.643 3.892 4.833C2.892 6.013 2.252 7.463 2.062 9.003L6.022 9.003Z M11.97 8.998C11.82 6.628 11.15 4.328 10 2.248C8.85 4.328 8.17 6.628 8.03 8.998L8.03 8.998L11.97 8.998Z M13.97 9.003L17.94 9.003C17.74 7.463 17.11 6.013 16.1 4.833C15.1 3.643 13.78 2.773 12.29 2.333C13.28 4.423 13.85 6.693 13.97 9.003Z " /></g></g></svg>