<svg xmlns="http://www.w3.org/2000/svg" xmlns:xlink="http://www.w3.org/1999/xlink" width="24" height="24" viewBox="0 0 24 24" fill="none"><defs><rect id="path_0" x="0" y="0" width="24" height="24" /></defs><g opacity="1" transform="translate(0 0)  rotate(0 12 12)"><mask id="bg-mask-0" fill="white"><use xlink:href="#path_0"></use></mask><g mask="url(#bg-mask-0)" ><g opacity="1" transform="translate(2.0500500000000006 2.120000000000001)  rotate(0 9.950475 9.879999999999999)"><path id="路径 1" fill-rule="evenodd" style="fill:#000000" transform="translate(0 10.879999999999999)  rotate(0 4.200975 4.4399999999999995)" opacity="1" d="M2.69,5.87C4.21,7.48 6.22,8.54 8.4,8.88C6.66,6.23 5.65,3.17 5.48,0L0,0C0.22,2.2 1.17,4.27 2.69,5.87Z " /><path id="路径 2" fill-rule="evenodd" style="fill:#000000" transform="translate(0 0)  rotate(0 4.200975 4.4399999999999995)" opacity="1" d="M5.48,8.88C5.65,5.71 6.66,2.65 8.4,0C6.22,0.34 4.21,1.4 2.69,3.01C1.17,4.61 0.22,6.68 0,8.88L5.48,8.88Z " /><path id="路径 3" fill-rule="evenodd" style="fill:#000000" transform="translate(11.49795 0)  rotate(0 4.2010499999999995 4.4399999999999995)" opacity="1" d="M5.72,3.01C4.19,1.4 2.19,0.34 0,0C1.74,2.65 2.75,5.71 2.92,8.88L8.4,8.88C8.18,6.68 7.24,4.61 5.72,3.01Z " /><path id="路径 4" fill-rule="evenodd" style="fill:#000000" transform="translate(11.49795 10.879999999999999)  rotate(0 4.2015 4.4399999999999995)" opacity="1" d="M8.4,0L2.92,0C2.75,3.17 1.74,6.23 0,8.88C2.19,8.54 4.19,7.48 5.72,5.87C7.24,4.27 8.18,2.2 8.4,0L8.4,0Z " /><path id="路径 5" fill-rule="evenodd" style="fill:#000000" transform="translate(7.479999999999999 10.879999999999999)  rotate(0 2.4699750000000007 3.7959999999999994)" opacity="1" d="M2.47,7.59C3.93,5.31 4.78,2.7 4.94,0L0,0C0.16,2.7 1.01,5.31 2.47,7.59Z " /><path id="路径 6" fill-rule="evenodd" style="fill:#000000" transform="translate(7.479999999999999 1.2879999999999998)  rotate(0 2.4699750000000007 3.7960000000000003)" opacity="1" d="M4.94,7.59C4.78,4.89 3.93,2.28 2.47,0C1.01,2.28 0.16,4.89 0,7.59L4.94,7.59Z " /></g></g></g></svg>