<svg width="24" height="24" fill="none" xmlns="http://www.w3.org/2000/svg"><mask id="a" style="mask-type:alpha" maskUnits="userSpaceOnUse" x="0" y="0" width="24" height="24"><path d="M24 0H0v24h24V0Z" fill="#fff"/></mask><g mask="url(#a)" fill-rule="evenodd" clip-rule="evenodd" fill="currentColor"><path d="M4.74 18.87a9.972 9.972 0 0 0 5.71 3.01A17.922 17.922 0 0 1 7.53 13H2.05c.22 2.2 1.17 4.27 2.69 5.87ZM7.53 11c.17-3.17 1.18-6.23 2.92-8.88-2.18.34-4.19 1.4-5.71 3.01A9.975 9.975 0 0 0 2.05 11h5.48ZM19.268 5.13a9.998 9.998 0 0 0-5.72-3.01c1.74 2.65 2.75 5.71 2.92 8.88h5.48a9.963 9.963 0 0 0-2.68-5.87ZM21.948 13h-5.48c-.17 3.17-1.18 6.23-2.92 8.88a9.998 9.998 0 0 0 8.4-8.88ZM12 20.59A15.8 15.8 0 0 0 14.47 13H9.53A15.8 15.8 0 0 0 12 20.59ZM14.47 10.998A15.8 15.8 0 0 0 12 3.408a15.8 15.8 0 0 0-2.47 7.59h4.94Z"/></g></svg>