<svg width="24" height="24" fill="none" xmlns="http://www.w3.org/2000/svg"><mask id="a" style="mask-type:alpha" maskUnits="userSpaceOnUse" x="0" y="0" width="24" height="24"><path d="M24 0H0v24h24V0Z" fill="#fff"/></mask><g mask="url(#a)"><path fill-rule="evenodd" clip-rule="evenodd" d="M22 12c0-5.52-4.48-10-10-10S2 6.48 2 12s4.48 10 10 10 10-4.48 10-10ZM8.022 13h-3.96c.19 1.54.83 2.99 1.83 4.17a8.042 8.042 0 0 0 3.82 2.5c-.99-2.1-1.56-4.36-1.69-6.67ZM12 19.75A15.84 15.84 0 0 0 13.97 13h-3.94c.15 2.44.85 4.73 1.97 6.75ZM15.97 13a17.79 17.79 0 0 1-1.68 6.67 7.966 7.966 0 0 0 3.81-2.5A7.979 7.979 0 0 0 19.94 13h-3.97Zm-7.948-1.997c.13-2.31.7-4.58 1.69-6.67a7.97 7.97 0 0 0-3.82 2.5c-1 1.18-1.64 2.63-1.83 4.17h3.96Zm5.948-.005c-.15-2.37-.82-4.67-1.97-6.75a15.881 15.881 0 0 0-1.97 6.75h3.94Zm2 .005h3.97c-.2-1.54-.83-2.99-1.84-4.17-1-1.19-2.32-2.06-3.81-2.5.99 2.09 1.56 4.36 1.68 6.67Z" fill="currentColor"/></g></svg>