<svg width="24" height="24" fill="none" xmlns="http://www.w3.org/2000/svg"><mask id="a" style="mask-type:alpha" maskUnits="userSpaceOnUse" x="0" y="0" width="24" height="24"><path d="M24 0H0v24h24V0Z" fill="#fff"/></mask><g mask="url(#a)"><path fill-rule="evenodd" clip-rule="evenodd" d="M10 10v4h4v-4h-4Zm6 4h3v-4h-3v4Zm-2 2h-4v3h4v-3Zm5 3v-3h-3v3h3ZM10 5v3h4V5h-4Zm6 3h3V5h-3v3ZM5 10v4h3v-4H5Zm3 6H5v3h3v-3ZM5 5v3h3V5H5ZM4 21h16c.27 0 .52-.11.71-.29.18-.19.29-.44.29-.71V4c0-.27-.11-.52-.29-.71-.19-.18-.44-.29-.71-.29H4c-.27 0-.52.11-.71.29-.18.19-.29.44-.29.71v16c0 .27.11.52.29.71.19.18.44.29.71.29Z" fill="currentColor"/></g></svg>