<svg xmlns="http://www.w3.org/2000/svg" xmlns:xlink="http://www.w3.org/1999/xlink" viewBox="0 0 24 24" fill="none"><defs><rect id="path_0" x="0" y="0" width="24" height="24" /></defs><g opacity="1" transform="translate(0 0)  rotate(0 12 12)"><mask id="bg-mask-0" fill="white"><use xlink:href="#path_0"></use></mask><g mask="url(#bg-mask-0)" ><path id="分组 1" fill-rule="evenodd" style="fill:#000000" transform="translate(3 3)  rotate(0 9 9)" opacity="1" d="M7 7L7 11L11 11L11 7L7 7Z M13 11L16 11L16 7L13 7L13 11Z M11 13L7 13L7 16L11 16L11 13Z M16 16L16 13L13 13L13 16L16 16Z M7 2L7 5L11 5L11 2L7 2Z M13 5L16 5L16 2L13 2L13 5Z M2 7L2 11L5 11L5 7L2 7Z M5 13L2 13L2 16L5 16L5 13Z M2 2L2 5L5 5L5 2L2 2Z M1 18L17 18C17.27 18 17.52 17.89 17.71 17.71C17.89 17.52 18 17.27 18 17L18 1C18 0.73 17.89 0.48 17.71 0.29C17.52 0.11 17.27 0 17 0L1 0C0.73 0 0.48 0.11 0.29 0.29C0.11 0.48 0 0.73 0 1L0 17C0 17.27 0.11 17.52 0.29 17.71C0.48 17.89 0.73 18 1 18Z " /></g></g></svg>