<svg xmlns="http://www.w3.org/2000/svg" xmlns:xlink="http://www.w3.org/1999/xlink" viewBox="0 0 24 24" fill="none"><defs><rect id="path_0" x="0" y="0" width="24" height="24" /></defs><g opacity="1" transform="translate(0 0)  rotate(0 12 12)"><mask id="bg-mask-0" fill="white"><use xlink:href="#path_0"></use></mask><g mask="url(#bg-mask-0)" ><g opacity="1" transform="translate(3 3)  rotate(0 9 9)"><path id="路径 1" fill-rule="evenodd" style="fill:#000000" transform="translate(7 7)  rotate(0 2 2)" opacity="1" d="M0,0L0,4L4,4L4,0L0,0Z " /><path id="路径 2" fill-rule="evenodd" style="fill:#000000" transform="translate(13 7)  rotate(0 2.5 2)" opacity="1" d="M0,4L5,4L5,0L0,0L0,4Z " /><path id="路径 3" fill-rule="evenodd" style="fill:#000000" transform="translate(7 13)  rotate(0 2 2.5)" opacity="1" d="M4,0L0,0L0,5L4,5L4,0Z " /><path id="路径 4" fill-rule="evenodd" style="fill:#000000" transform="translate(13 13)  rotate(0 2.5 2.5)" opacity="1" d="M4,5C4.27,5 4.52,4.89 4.71,4.71C4.89,4.52 5,4.27 5,4L5,0L0,0L0,5L4,5Z " /><path id="路径 5" fill-rule="evenodd" style="fill:#000000" transform="translate(7 0)  rotate(0 2 2.5)" opacity="1" d="M0,0L0,5L4,5L4,0L0,0Z " /><path id="路径 6" fill-rule="evenodd" style="fill:#000000" transform="translate(13 0)  rotate(0 2.5 2.5)" opacity="1" d="M0,5L5,5L5,1C5,0.73 4.89,0.48 4.71,0.29C4.52,0.11 4.27,0 4,0L0,0L0,5Z " /><path id="路径 7" fill-rule="evenodd" style="fill:#000000" transform="translate(0 7)  rotate(0 2.5 2)" opacity="1" d="M0,0L0,4L5,4L5,0L0,0Z " /><path id="路径 8" fill-rule="evenodd" style="fill:#000000" transform="translate(0 13)  rotate(0 2.5 2.5)" opacity="1" d="M5,0L0,0L0,4C0,4.27 0.11,4.52 0.29,4.71C0.48,4.89 0.73,5 1,5L5,5L5,0Z " /><path id="路径 9" fill-rule="evenodd" style="fill:#000000" transform="translate(0 0)  rotate(0 2.5 2.5)" opacity="1" d="M1,0C0.73,0 0.48,0.11 0.29,0.29C0.11,0.48 0,0.73 0,1L0,5L5,5L5,0L1,0Z " /></g></g></g></svg>