<svg width="24" height="24" fill="none" xmlns="http://www.w3.org/2000/svg"><mask id="a" style="mask-type:alpha" maskUnits="userSpaceOnUse" x="0" y="0" width="24" height="24"><path d="M24 0H0v24h24V0Z" fill="#fff"/></mask><g mask="url(#a)" fill-rule="evenodd" clip-rule="evenodd" fill="currentColor"><path d="M10 10v4h4v-4h-4ZM16 14h5v-4h-5v4ZM14 16h-4v5h4v-5ZM20 21c.27 0 .52-.11.71-.29.18-.19.29-.44.29-.71v-4h-5v5h4ZM10 3v5h4V3h-4ZM16 8h5V4c0-.27-.11-.52-.29-.71-.19-.18-.44-.29-.71-.29h-4v5ZM3 10v4h5v-4H3ZM8 16H3v4c0 .27.11.52.29.71.19.18.44.29.71.29h4v-5ZM4 3c-.27 0-.52.11-.71.29-.18.19-.29.44-.29.71v4h5V3H4Z"/></g></svg>