<svg width="24" height="24" fill="none" xmlns="http://www.w3.org/2000/svg"><mask id="a" style="mask-type:alpha" maskUnits="userSpaceOnUse" x="0" y="0" width="24" height="24"><path d="M24 0H0v24h24V0Z" fill="#fff"/></mask><g mask="url(#a)"><path fill-rule="evenodd" clip-rule="evenodd" d="M14.24 17.76A5.97 5.97 0 0 1 16 22h2c0-2.12-.84-4.16-2.34-5.66A8.008 8.008 0 0 0 10 14c-2.12 0-4.16.84-5.66 2.34A8.008 8.008 0 0 0 2 22h2c0-1.59.63-3.12 1.76-4.24A5.97 5.97 0 0 1 10 16c1.59 0 3.12.63 4.24 1.76ZM16 7c0-3.31-2.68-6-6-6-3.31 0-6 2.69-6 6 0 3.32 2.69 6 6 6 3.32 0 6-2.68 6-6Zm-2 0c0-2.21-1.79-4-4-4S6 4.79 6 7s1.79 4 4 4 4-1.79 4-4Zm4.283 7.703-.82 1.82c1.05.48 1.95 1.25 2.58 2.22.62.97.96 2.1.96 3.26h2c0-1.54-.45-3.05-1.28-4.35a8.013 8.013 0 0 0-3.44-2.95Zm-.323-3.71c-.53.53-1.22.87-1.96.97v2.02c1.37-.13 2.64-.76 3.56-1.77a5.5 5.5 0 0 0 .51-6.77 5.559 5.559 0 0 0-2.47-2.03l-.56 1.94c.67.33 1.22.87 1.57 1.53.34.67.47 1.42.35 2.16-.12.74-.47 1.42-1 1.95Z" fill="currentColor"/></g></svg>