<svg xmlns="http://www.w3.org/2000/svg" xmlns:xlink="http://www.w3.org/1999/xlink" width="24" height="24" viewBox="0 0 24 24" fill="none"><defs><rect id="path_0" x="0" y="0" width="24" height="24" /></defs><g opacity="1" transform="translate(0 0)  rotate(0 12 12)"><mask id="bg-mask-0" fill="white"><use xlink:href="#path_0"></use></mask><g mask="url(#bg-mask-0)" ><g opacity="1" transform="translate(2 1)  rotate(0 10.4915 10.5)"><path id="路径 1" fill-rule="evenodd" style="fill:#000000" transform="translate(0 13)  rotate(0 8 4)" opacity="1" d="M16,8C16,5.88 15.16,3.84 13.66,2.34C12.16,0.84 10.12,0 8,0C5.88,0 3.84,0.84 2.34,2.34C0.84,3.84 0,5.88 0,8L16,8Z " /><path id="路径 2" fill-rule="evenodd" style="fill:#000000" transform="translate(2 0)  rotate(0 6 6)" opacity="1" d="M12,6C12,2.69 9.32,0 6,0C2.69,0 0,2.69 0,6C0,9.32 2.69,12 6,12C9.32,12 12,9.32 12,6Z " /><path id="路径 3" fill-rule="evenodd" style="fill:#000000" transform="translate(15.363 14.233)  rotate(0 2.8100000000000005 3.3834999999999997)" opacity="1" d="M2.64,6.77L5.62,6.77C5.51,5.19 4.91,3.69 3.91,2.47C2.9,1.26 1.53,0.39 0,0C1.64,1.78 2.64,4.16 2.64,6.77Z " /><path id="路径 4" fill-rule="evenodd" style="fill:#000000" transform="translate(13.34 2.097)  rotate(0 2.830000221461651 4.951949065816692)" opacity="1" d="M2.11,9.69C2.79,9.48 3.42,9.13 3.95,8.67C4.49,8.2 4.92,7.62 5.21,6.97C5.51,6.32 5.66,5.62 5.66,4.9C5.66,3.75 5.26,2.63 4.53,1.73C3.8,0.84 2.78,0.23 1.64,0C2.31,1.19 2.66,2.54 2.66,3.9C2.66,5.03 2.43,6.14 1.97,7.17C1.51,8.19 0.84,9.11 0,9.86C0.71,9.95 1.42,9.9 2.11,9.69Z " /></g></g></g></svg>