<svg width="24" height="24" fill="none" xmlns="http://www.w3.org/2000/svg"><mask id="a" style="mask-type:alpha" maskUnits="userSpaceOnUse" x="0" y="0" width="24" height="24"><path d="M24 0H0v24h24V0Z" fill="#fff"/></mask><g mask="url(#a)" fill-rule="evenodd" clip-rule="evenodd" fill="currentColor"><path d="M18 22c0-2.12-.84-4.16-2.34-5.66A8.008 8.008 0 0 0 10 14c-2.12 0-4.16.84-5.66 2.34A8.008 8.008 0 0 0 2 22h16ZM16 7c0-3.31-2.68-6-6-6-3.31 0-6 2.69-6 6 0 3.32 2.69 6 6 6 3.32 0 6-2.68 6-6ZM20.003 22.003h2.98a7.615 7.615 0 0 0-1.71-4.3 7.525 7.525 0 0 0-3.91-2.47 9.96 9.96 0 0 1 2.64 6.77ZM17.45 12.787c.68-.21 1.31-.56 1.84-1.02.54-.47.97-1.05 1.26-1.7.3-.65.45-1.35.45-2.07 0-1.15-.4-2.27-1.13-3.17-.73-.89-1.75-1.5-2.89-1.73a7.966 7.966 0 0 1 1.02 3.9c0 1.13-.23 2.24-.69 3.27a8.038 8.038 0 0 1-1.97 2.69c.71.09 1.42.04 2.11-.17Z"/></g></svg>