<svg xmlns="http://www.w3.org/2000/svg" xmlns:xlink="http://www.w3.org/1999/xlink" viewBox="0 0 24 24" fill="none"><defs><rect id="path_0" x="0" y="0" width="24" height="24" /></defs><g opacity="1" transform="translate(0 0)  rotate(0 12 12)"><mask id="bg-mask-0" fill="white"><use xlink:href="#path_0"></use></mask><g mask="url(#bg-mask-0)" ><path id="分组 1" fill-rule="evenodd" style="fill:#000000" transform="translate(3 2)  rotate(0 9 10)" opacity="1" d="M0 1L0 19C0 19.27 0.11 19.52 0.29 19.71C0.48 19.89 0.73 20 1 20L17 20C17.27 20 17.52 19.89 17.71 19.71C17.89 19.52 18 19.27 18 19L18 1C18 0.73 17.89 0.48 17.71 0.29C17.52 0.11 17.27 0 17 0L1 0C0.73 0 0.48 0.11 0.29 0.29C0.11 0.48 0 0.73 0 1Z M2 18L16 18L16 14L2 14L2 18Z M12 17L14 17L14 15L12 15L12 17Z " /></g></g></svg>