<svg width="24" height="24" fill="none" xmlns="http://www.w3.org/2000/svg"><mask id="a" style="mask-type:alpha" maskUnits="userSpaceOnUse" x="0" y="0" width="24" height="24"><path d="M24 0H0v24h24V0Z" fill="#fff"/></mask><g mask="url(#a)"><path fill-rule="evenodd" clip-rule="evenodd" d="M19 14V4H5v10h14ZM5 20h14v-4H5v4ZM20.71 2.29C20.52 2.11 20.27 2 20 2H4c-.27 0-.52.11-.71.29-.18.19-.29.44-.29.71v18c0 .27.11.52.29.71.19.18.44.29.71.29h16c.27 0 .52-.11.71-.29.18-.19.29-.44.29-.71V3c0-.27-.11-.52-.29-.71ZM15 19h2v-2h-2v2Z" fill="currentColor"/></g></svg>