<svg xmlns="http://www.w3.org/2000/svg" xmlns:xlink="http://www.w3.org/1999/xlink" viewBox="0 0 24 24" fill="none"><defs><rect id="path_0" x="0" y="0" width="24" height="24" /></defs><g opacity="1" transform="translate(0 0)  rotate(0 12 12)"><mask id="bg-mask-0" fill="white"><use xlink:href="#path_0"></use></mask><g mask="url(#bg-mask-0)" ><path id="分组 1" fill-rule="evenodd" style="fill:#000000" transform="translate(4 3)  rotate(0 8 9)" opacity="1" d="M16 11L11.8 11L12.22 7L16 7L16 5L12.43 5L12.95 0L10.94 0L10.42 5L6.43 5L6.95 0L4.94 0L4.41 5L0 5L0 7L4.2 7L3.78 11L0 11L0 13L3.57 13L3.05 18L5.06 18L5.59 13L9.57 13L9.05 18L11.06 18L11.59 13L16 13L16 11Z M9.785 11L10.205 7L6.215 7L5.795 11L9.785 11Z " /></g></g></svg>