<svg width="24" height="24" fill="none" xmlns="http://www.w3.org/2000/svg"><mask id="a" style="mask-type:alpha" maskUnits="userSpaceOnUse" x="0" y="0" width="24" height="24"><path d="M24 0H0v24h24V0Z" fill="#fff"/></mask><g mask="url(#a)"><path fill-rule="evenodd" clip-rule="evenodd" d="M17 21h3c.53 0 1.04-.21 1.41-.59.38-.37.59-.88.59-1.41v-7c0-5.52-4.48-10-10-10S2 6.48 2 12v7c0 .53.21 1.04.59 1.41.37.38.88.59 1.41.59h3c.53 0 1.04-.21 1.41-.59.38-.37.59-.88.59-1.41v-5c0-.53-.21-1.04-.59-1.41C8.04 12.21 7.53 12 7 12H4c0-2.12.84-4.16 2.34-5.66S9.88 4 12 4s4.16.84 5.66 2.34S20 9.88 20 12h-3c-.53 0-1.04.21-1.41.59-.38.37-.59.88-.59 1.41v5c0 .53.21 1.04.59 1.41.37.38.88.59 1.41.59ZM4 19h3v-5H4v5Zm13 0h3v-5h-3v5Z" fill="currentColor"/></g></svg>