<svg xmlns="http://www.w3.org/2000/svg" xmlns:xlink="http://www.w3.org/1999/xlink" width="24" height="24" viewBox="0 0 24 24" fill="none"><defs><rect id="path_0" x="0" y="0" width="24" height="24" /></defs><g opacity="1" transform="translate(0 0)  rotate(0 12 12)"><mask id="bg-mask-0" fill="white"><use xlink:href="#path_0"></use></mask><g mask="url(#bg-mask-0)" ><path id="路径 1" fill-rule="evenodd" style="fill:#000000" transform="translate(2 2)  rotate(0 10 9.5)" opacity="1" d="M13.59,10.59C13.21,10.96 13,11.47 13,12L13,17C13,17.53 13.21,18.04 13.59,18.41C13.96,18.79 14.47,19 15,19L18,19C18.53,19 19.04,18.79 19.41,18.41C19.79,18.04 20,17.53 20,17L20,10C20,4.48 15.52,0 10,0C4.48,0 0,4.48 0,10L0,17C0,17.53 0.21,18.04 0.59,18.41C0.96,18.79 1.47,19 2,19L5,19C5.53,19 6.04,18.79 6.41,18.41C6.79,18.04 7,17.53 7,17L7,12C7,11.47 6.79,10.96 6.41,10.59C6.04,10.21 5.53,10 5,10L2,10C2,7.88 2.84,5.84 4.34,4.34C5.84,2.84 7.88,2 10,2C12.12,2 14.16,2.84 15.66,4.34C17.16,5.84 18,7.88 18,10L15,10C14.47,10 13.96,10.21 13.59,10.59Z " /></g></g></svg>