<svg xmlns="http://www.w3.org/2000/svg" xmlns:xlink="http://www.w3.org/1999/xlink" width="24" height="24" viewBox="0 0 24 24" fill="none"><defs><rect id="path_0" x="0" y="0" width="24" height="24" /></defs><g opacity="1" transform="translate(0 0)  rotate(0 12 12)"><mask id="bg-mask-0" fill="white"><use xlink:href="#path_0"></use></mask><g mask="url(#bg-mask-0)" ><path id="分组 1" fill-rule="evenodd" style="fill:#000000" transform="translate(2.000003884738117 3.0000001096892137)  rotate(0 10.000181626773722 9.242499945155393)" opacity="1" d="M1.76 1.76C-0.5 4.02 -0.58 7.64 1.52 9.99L10 18.48L18.48 9.99C20.58 7.64 20.5 4.02 18.24 1.76C15.98 -0.51 12.35 -0.58 10 1.53C7.65 -0.58 4.02 -0.51 1.76 1.76Z M11.34 3.01998L10 4.20998L8.67005 3.01998C7.09005 1.60998 4.68005 1.66998 3.17005 3.16998C1.68005 4.65998 1.61005 7.04998 2.98005 8.61998L10 15.65L17.02 8.61998C18.39 7.04998 18.32 4.65998 16.83 3.16998C15.33 1.66998 12.91 1.60998 11.34 3.01998Z " /></g></g></svg>