<svg width="24" height="24" fill="none" xmlns="http://www.w3.org/2000/svg"><mask id="a" style="mask-type:alpha" maskUnits="userSpaceOnUse" x="0" y="0" width="24" height="24"><path d="M24 0H0v24h24V0Z" fill="#fff"/></mask><g mask="url(#a)"><path fill-rule="evenodd" clip-rule="evenodd" d="M3.76 4.76a6 6 0 0 0-.24 8.23L12 21.48l8.48-8.49a6 6 0 0 0-.24-8.23c-2.26-2.27-5.89-2.34-8.24-.23-2.35-2.11-5.98-2.04-8.24.23Zm9.58 1.26L12 7.21l-1.33-1.19a4.012 4.012 0 0 0-5.5.15 4.001 4.001 0 0 0-.19 5.45L12 18.65l7.02-7.03a4.001 4.001 0 0 0-.19-5.45 4 4 0 0 0-5.49-.15Z" fill="currentColor"/></g></svg>