<svg width="24" height="24" fill="none" xmlns="http://www.w3.org/2000/svg"><mask id="a" style="mask-type:alpha" maskUnits="userSpaceOnUse" x="0" y="0" width="24" height="24"><path d="M24 0H0v24h24V0Z" fill="#fff"/></mask><g mask="url(#a)"><path fill-rule="evenodd" clip-rule="evenodd" d="M11 19.004v-6h2v6h6v-9.03l-7-5.44-7 5.44v9.03h6ZM3.39 8.697c-.12.1-.22.22-.29.35-.07.14-.1.29-.1.44v10.51c0 .27.11.52.29.71.19.19.44.29.71.29h16c.27 0 .52-.1.71-.29.18-.19.29-.44.29-.71V9.487c0-.15-.03-.3-.1-.44-.07-.13-.17-.25-.29-.35l-8-6.22a.961.961 0 0 0-.61-.21c-.22 0-.44.07-.61.21l-8 6.22Z" fill="currentColor"/></g></svg>