<svg xmlns="http://www.w3.org/2000/svg" xmlns:xlink="http://www.w3.org/1999/xlink" viewBox="0 0 24 24" fill="none"><defs><rect id="path_0" x="0" y="0" width="24" height="24" /></defs><g opacity="1" transform="translate(0 0)  rotate(0 12 12)"><mask id="bg-mask-0" fill="white"><use xlink:href="#path_0"></use></mask><g mask="url(#bg-mask-0)" ><path id="分组 1" fill-rule="evenodd" style="fill:#000000" transform="translate(2.999999739513031 2.2673299999999994)  rotate(0 9.00000023800596 9.366335)" opacity="1" d="M9.61 0.21C9.44 0.07 9.22 0 9 0C8.78 0 8.56 0.07 8.39 0.21L0.39 6.43C0.27 6.53 0.17 6.65 0.1 6.78C0.03 6.92 0 7.07 0 7.22L0 17.73C0 18 0.11 18.25 0.29 18.44C0.48 18.63 0.73 18.73 1 18.73L17 18.73C17.27 18.73 17.52 18.63 17.71 18.44C17.89 18.25 18 18 18 17.73L18 7.22C18 7.07 17.97 6.92 17.9 6.78C17.83 6.65 17.73 6.53 17.61 6.43L9.61 0.21Z M8 16.7327L10 16.7327L10 10.7327L8 10.7327L8 16.7327Z " /></g></g></svg>