<svg width="24" height="24" fill="none" xmlns="http://www.w3.org/2000/svg"><mask id="a" style="mask-type:alpha" maskUnits="userSpaceOnUse" x="0" y="0" width="24" height="24"><path d="M24 0H0v24h24V0Z" fill="#fff"/></mask><g mask="url(#a)"><path fill-rule="evenodd" clip-rule="evenodd" d="M2.99 3c-.26 0-.51.11-.7.29-.18.19-.29.44-.29.7v16.02c0 .26.1.51.29.7.19.19.44.29.7.29h1.8l.02.02.02-.02h16.18c.26 0 .51-.11.7-.29.18-.19.29-.44.29-.7V3.99c0-.55-.44-.99-.99-.99H2.99ZM20 5H4v14L14 9l6 6V5Zm-6.002 6.828-7.17 7.17h13.17v-1.17l-6-6ZM9.41 10.41c.38-.37.59-.88.59-1.41 0-.53-.21-1.04-.59-1.41C9.04 7.21 8.53 7 8 7c-.53 0-1.04.21-1.41.59C6.21 7.96 6 8.47 6 9c0 .53.21 1.04.59 1.41.37.38.88.59 1.41.59.53 0 1.04-.21 1.41-.59Z" fill="currentColor"/></g></svg>