<svg xmlns="http://www.w3.org/2000/svg" xmlns:xlink="http://www.w3.org/1999/xlink" viewBox="0 0 24 24" fill="none"><defs><rect id="path_0" x="0" y="0" width="24" height="24" /></defs><g opacity="1" transform="translate(0 0)  rotate(0 12 12)"><mask id="bg-mask-0" fill="white"><use xlink:href="#path_0"></use></mask><g mask="url(#bg-mask-0)" ><path id="分组 1" fill-rule="evenodd" style="fill:#000000" transform="translate(2 3)  rotate(0 10 9)" opacity="1" d="M2 2L2 16L11.29 6.71C11.48 6.52 11.73 6.41 12 6.41C12.26 6.41 12.52 6.52 12.71 6.71L18 12.01L18 2L2 2Z M19.01 18C19.27 18 19.52 17.89 19.71 17.71C19.89 17.52 20 17.27 20 17.01L20 0.99C20 0.44 19.56 0 19.01 0L0.99 0C0.73 0 0.48 0.11 0.29 0.29C0.11 0.48 0 0.73 0 0.99L0 17.01C0 17.27 0.1 17.52 0.29 17.71C0.48 17.9 0.73 18 0.99 18L19.01 18Z M7.41 7.41C7.79 7.04 8 6.53 8 6C8 5.47 7.79 4.96 7.41 4.59C7.04 4.21 6.53 4 6 4C5.47 4 4.96 4.21 4.59 4.59C4.21 4.96 4 5.47 4 6C4 6.53 4.21 7.04 4.59 7.41C4.96 7.79 5.47 8 6 8C6.53 8 7.04 7.79 7.41 7.41Z " /></g></g></svg>