<svg xmlns="http://www.w3.org/2000/svg" xmlns:xlink="http://www.w3.org/1999/xlink" viewBox="0 0 24 24" fill="none"><defs><rect id="path_0" x="0" y="0" width="24" height="24" /></defs><g opacity="1" transform="translate(0 0)  rotate(0 12 12)"><mask id="bg-mask-0" fill="white"><use xlink:href="#path_0"></use></mask><g mask="url(#bg-mask-0)" ><path id="分组 1" fill-rule="evenodd" style="fill:#000000" transform="translate(2 3)  rotate(0 10 9)" opacity="1" d="M20 17L20 1C20 0.73 19.89 0.48 19.71 0.29C19.52 0.11 19.27 0 19 0L1 0C0.73 0 0.48 0.11 0.29 0.29C0.11 0.48 0 0.73 0 1L0 17C0 17.27 0.11 17.52 0.29 17.71C0.48 17.89 0.73 18 1 18L19 18C19.27 18 19.52 17.89 19.71 17.71C19.89 17.52 20 17.27 20 17Z M18 2L2 2L2 9L7 9C7 9.8 7.32 10.56 7.88 11.12C8.44 11.68 9.2 12 10 12C10.8 12 11.56 11.68 12.12 11.12C12.68 10.56 13 9.8 13 9L18 9L18 2Z " /></g></g></svg>