<svg width="24" height="24" fill="none" xmlns="http://www.w3.org/2000/svg"><mask id="a" style="mask-type:alpha" maskUnits="userSpaceOnUse" x="0" y="0" width="24" height="24"><path d="M24 0H0v24h24V0Z" fill="#fff"/></mask><g mask="url(#a)"><path fill-rule="evenodd" clip-rule="evenodd" d="M2 20c0 .27.11.52.29.71.19.18.44.29.71.29h18c.27 0 .52-.11.71-.29.18-.19.29-.44.29-.71V4c0-.27-.11-.52-.29-.71-.19-.18-.44-.29-.71-.29H3c-.27 0-.52.11-.71.29-.18.19-.29.44-.29.71v16Zm5.42-6H4v5h16v-5h-3.42c-.39.89-1.03 1.65-1.84 2.18-.81.54-1.77.82-2.74.82-.97 0-1.93-.28-2.74-.82A5.008 5.008 0 0 1 7.42 14ZM4 12h5c0 .8.32 1.56.88 2.12A2.997 2.997 0 0 0 15 12h5V5H4v7Z" fill="currentColor"/></g></svg>