<svg width="24" height="24" fill="none" xmlns="http://www.w3.org/2000/svg"><mask id="a" style="mask-type:alpha" maskUnits="userSpaceOnUse" x="0" y="0" width="24" height="24"><path d="M24 0H0v24h24V0Z" fill="#fff"/></mask><g mask="url(#a)"><path fill-rule="evenodd" clip-rule="evenodd" d="M22 20V4c0-.27-.11-.52-.29-.71-.19-.18-.44-.29-.71-.29H3c-.27 0-.52.11-.71.29-.18.19-.29.44-.29.71v16c0 .27.11.52.29.71.19.18.44.29.71.29h18c.27 0 .52-.11.71-.29.18-.19.29-.44.29-.71ZM20 5H4v7h5c0 .8.32 1.56.88 2.12A2.997 2.997 0 0 0 15 12h5V5Z" fill="currentColor"/></g></svg>