<svg xmlns="http://www.w3.org/2000/svg" xmlns:xlink="http://www.w3.org/1999/xlink" viewBox="0 0 24 24" fill="none"><g opacity="1" transform="translate(0 0)  rotate(0 12 12)"><path id="分组 1" fill-rule="evenodd" style="fill:#000000" transform="translate(2 2)  rotate(0 9.999999999999998 9.999999999999998)" opacity="1" d="M7 10C7 11.66 8.34 13 10 13C11.66 13 13 11.66 13 10C13 8.34 11.66 7 10 7C8.34 7 7 8.34 7 10Z M5 10C5 12.76 7.24 15 10 15C12.76 15 15 12.76 15 10C15 7.24 12.76 5 10 5C7.24 5 5 7.24 5 10Z M15.25 3.5C14.56 3.5 14 4.06 14 4.75C14 5.44 14.56 6 15.25 6C15.94 6 16.5 5.44 16.5 4.75C16.5 4.06 15.94 3.5 15.25 3.5Z M14.03 2.06C12.93 2.01 12.54 2 10 2C7.53 2 7.12 2.01 5.97 2.06C5.19 2.09 4.66 2.2 4.17 2.39C3.74 2.56 3.43 2.76 3.09 3.09C2.78 3.4 2.54 3.76 2.39 4.17C2.2 4.66 2.09 5.19 2.06 5.97C2.01 7.07 2 7.46 2 10C2 12.47 2.01 12.88 2.06 14.03C2.09 14.81 2.2 15.34 2.39 15.83C2.56 16.26 2.76 16.57 3.09 16.91C3.43 17.24 3.74 17.44 4.17 17.61C4.67 17.8 5.19 17.91 5.97 17.94C7.07 17.99 7.46 18 10 18C12.47 18 12.88 17.99 14.03 17.94C14.81 17.91 15.34 17.8 15.83 17.61C16.26 17.44 16.57 17.24 16.91 16.91C17.24 16.57 17.44 16.26 17.61 15.83C17.8 15.34 17.91 14.81 17.94 14.03C17.99 12.93 18 12.54 18 10C18 7.53 17.99 7.12 17.94 5.97C17.91 5.19 17.8 4.66 17.61 4.17C17.46 3.77 17.22 3.4 16.91 3.09C16.6 2.78 16.24 2.54 15.83 2.39C15.34 2.2 14.81 2.09 14.03 2.06Z M19.94 5.88C19.89 4.81 19.72 4.09 19.47 3.45C19.22 2.78 18.83 2.18 18.32 1.68C17.77 1.12 17.21 0.78 16.55 0.52C15.91 0.28 15.19 0.11 14.12 0.06C13.06 0.01 12.72 0 10 0C7.28 0 6.94 0.01 5.88 0.06C4.81 0.11 4.09 0.28 3.45 0.53C2.78 0.78 2.18 1.17 1.68 1.68C1.17 2.18 0.78 2.78 0.52 3.45C0.28 4.09 0.11 4.81 0.06 5.88C0.01 6.94 0 7.28 0 10C0 12.72 0.01 13.06 0.06 14.12C0.11 15.19 0.28 15.91 0.53 16.55C0.78 17.22 1.17 17.82 1.68 18.32C2.18 18.83 2.78 19.22 3.45 19.47C4.09 19.72 4.81 19.89 5.88 19.94C6.94 19.99 7.28 20 10 20C12.72 20 13.06 19.99 14.12 19.94C15.19 19.89 15.91 19.72 16.55 19.47C17.22 19.22 17.82 18.83 18.32 18.32C18.83 17.82 19.22 17.22 19.47 16.55C19.72 15.91 19.89 15.19 19.94 14.12C19.99 13.06 20 12.72 20 10C20 7.28 19.99 6.94 19.94 5.88Z " /></g></svg>