<svg xmlns="http://www.w3.org/2000/svg" xmlns:xlink="http://www.w3.org/1999/xlink" viewBox="0 0 24 24" fill="none"><g opacity="1" transform="translate(0 0)  rotate(0 12 12)"><path id="分组 1" fill-rule="evenodd" style="fill:#000000" transform="translate(2 2)  rotate(0 9.999999999999998 9.999999999999998)" opacity="1" d="M5.88 0.06C4.81 0.11 4.09 0.28 3.45 0.53C2.78 0.78 2.18 1.17 1.68 1.68C1.17 2.18 0.78 2.78 0.52 3.45C0.28 4.09 0.11 4.81 0.06 5.88C0.01 6.94 0 7.28 0 10C0 12.72 0.01 13.06 0.06 14.12C0.11 15.19 0.28 15.91 0.53 16.55C0.78 17.22 1.17 17.82 1.68 18.32C2.18 18.83 2.78 19.22 3.45 19.47C4.09 19.72 4.81 19.89 5.88 19.94C6.94 19.99 7.28 20 10 20C12.72 20 13.06 19.99 14.12 19.94C15.19 19.89 15.91 19.72 16.55 19.47C17.22 19.22 17.82 18.83 18.32 18.32C18.83 17.82 19.22 17.22 19.47 16.55C19.72 15.91 19.89 15.19 19.94 14.12C19.99 13.06 20 12.72 20 10C20 7.28 19.99 6.94 19.94 5.88C19.89 4.81 19.72 4.09 19.47 3.45C19.22 2.78 18.83 2.18 18.32 1.68C17.77 1.12 17.21 0.78 16.55 0.52C15.91 0.28 15.19 0.11 14.12 0.06C13.06 0.01 12.72 0 10 0C7.28 0 6.94 0.01 5.88 0.06Z M5 10C5 12.76 7.24 15 10 15C12.76 15 15 12.76 15 10C15 7.24 12.76 5 10 5C7.24 5 5 7.24 5 10Z M15.25 3.5C14.56 3.5 14 4.06 14 4.75C14 5.44 14.56 6 15.25 6C15.94 6 16.5 5.44 16.5 4.75C16.5 4.06 15.94 3.5 15.25 3.5Z M7 10C7 11.66 8.34 13 10 13C11.66 13 13 11.66 13 10C13 8.34 11.66 7 10 7C8.34 7 7 8.34 7 10Z " /></g></svg>