<svg width="24" height="24" fill="none" xmlns="http://www.w3.org/2000/svg"><path fill-rule="evenodd" clip-rule="evenodd" d="M9 12c0 1.66 1.34 3 3 3s3-1.34 3-3-1.34-3-3-3-3 1.34-3 3Zm-2 0c0 2.76 2.24 5 5 5s5-2.24 5-5-2.24-5-5-5-5 2.24-5 5Zm10.25-6.5a1.25 1.25 0 1 0 0 2.5 1.25 1.25 0 0 0 0-2.5Zm-1.22-1.44C14.93 4.01 14.54 4 12 4c-2.47 0-2.88.01-4.03.06-.78.03-1.31.14-1.8.33-.43.17-.74.37-1.08.7-.31.31-.55.67-.7 1.08-.19.49-.3 1.02-.33 1.8C4.01 9.07 4 9.46 4 12c0 2.47.01 2.88.06 4.03.03.78.14 1.31.33 1.8.17.43.37.74.7 1.08.34.33.65.53 1.08.7.5.19 1.02.3 1.8.33 1.1.05 1.49.06 4.03.06 2.47 0 2.88-.01 4.03-.06.78-.03 1.31-.14 1.8-.33.43-.17.74-.37 1.08-.7.33-.34.53-.65.7-1.08.19-.49.3-1.02.33-1.8.05-1.1.06-1.49.06-4.03 0-2.47-.01-2.88-.06-4.03-.03-.78-.14-1.31-.33-1.8-.15-.4-.39-.77-.7-1.08-.31-.31-.67-.55-1.08-.7-.49-.19-1.02-.3-1.8-.33Zm5.91 3.82c-.05-1.07-.22-1.79-.47-2.43a4.84 4.84 0 0 0-1.15-1.77c-.55-.56-1.11-.9-1.77-1.16-.64-.24-1.36-.41-2.43-.46C15.06 2.01 14.72 2 12 2s-3.06.01-4.12.06c-1.07.05-1.79.22-2.43.47-.67.25-1.27.64-1.77 1.15-.51.5-.9 1.1-1.16 1.77-.24.64-.41 1.36-.46 2.43C2.01 8.94 2 9.28 2 12s.01 3.06.06 4.12c.05 1.07.22 1.79.47 2.43.25.67.64 1.27 1.15 1.77.5.51 1.1.9 1.77 1.15.64.25 1.36.42 2.43.47 1.06.05 1.4.06 4.12.06s3.06-.01 4.12-.06c1.07-.05 1.79-.22 2.43-.47a4.84 4.84 0 0 0 1.77-1.15c.51-.5.9-1.1 1.15-1.77.25-.64.42-1.36.47-2.43.05-1.06.06-1.4.06-4.12s-.01-3.06-.06-4.12Z" fill="currentColor"/></svg>