<svg xmlns="http://www.w3.org/2000/svg" xmlns:xlink="http://www.w3.org/1999/xlink" viewBox="0 0 24 24" fill="none"><defs><rect id="path_0" x="0" y="0" width="24" height="24" /></defs><g opacity="1" transform="translate(0 0)  rotate(0 12 12)"><mask id="bg-mask-0" fill="white"><use xlink:href="#path_0"></use></mask><g mask="url(#bg-mask-0)" ><path id="分组 1" fill-rule="evenodd" style="fill:#000000" transform="translate(2.9976836347419287 3.62598)  rotate(0 9.041658182629035 8.684879551190171)" opacity="1" d="M0.97 9.41C0.26 10.38 -0.08 11.56 0.01 12.75C0.11 13.95 0.62 15.07 1.47 15.91C2.31 16.75 3.43 17.27 4.62 17.36C5.81 17.45 7 17.11 7.96 16.4C8.92 15.69 9.6 14.67 9.87 13.5C10.14 12.34 9.99 11.12 9.44 10.06L12.43 7.07L14.55 9.19L18.08 5.66L15.96 3.54L17.38 2.12L15.26 0L7.32 7.94C6.26 7.39 5.03 7.23 3.87 7.5C2.7 7.77 1.68 8.45 0.97 9.41Z M4.23688 10.5094C3.99688 10.6194 3.77688 10.7694 3.58688 10.9594C3.22688 11.3394 3.02688 11.8394 3.02688 12.3694C3.02688 12.8894 3.23688 13.3894 3.61688 13.7594C3.98688 14.1294 4.48688 14.3494 5.00688 14.3494C5.53688 14.3494 6.03688 14.1494 6.41688 13.7894C6.60688 13.5994 6.75688 13.3794 6.86688 13.1394C6.96688 12.8994 7.02688 12.6294 7.02688 12.3694C7.02688 12.0994 6.97688 11.8394 6.87688 11.5894C6.77688 11.3494 6.62688 11.1194 6.43688 10.9394C6.25688 10.7494 6.02688 10.5994 5.78688 10.4994C5.53688 10.3994 5.27688 10.3494 5.00688 10.3494C4.74688 10.3494 4.47688 10.4094 4.23688 10.5094Z " /></g></g></svg>