<svg width="24" height="24" fill="none" xmlns="http://www.w3.org/2000/svg"><mask id="a" style="mask-type:alpha" maskUnits="userSpaceOnUse" x="0" y="0" width="24" height="24"><path d="M24 0H0v24h24V0Z" fill="#fff"/></mask><g mask="url(#a)"><path fill-rule="evenodd" clip-rule="evenodd" d="M3.968 13.036c-.71.97-1.05 2.15-.96 3.34.1 1.2.61 2.32 1.46 3.16.84.84 1.96 1.36 3.15 1.45a5.002 5.002 0 0 0 5.25-3.86c.27-1.16.12-2.38-.43-3.44l2.99-2.99 2.12 2.12 3.53-3.53-2.12-2.12 1.42-1.42-2.12-2.12-7.94 7.94a5.002 5.002 0 0 0-6.35 1.47Zm3.267 1.1c-.24.11-.46.26-.65.45-.36.38-.56.88-.56 1.41 0 .52.21 1.02.59 1.39.37.37.87.59 1.39.59.53 0 1.03-.2 1.41-.56.19-.19.34-.41.45-.65.1-.24.16-.51.16-.77 0-.27-.05-.53-.15-.78-.1-.24-.25-.47-.44-.65-.18-.19-.41-.34-.65-.44-.25-.1-.51-.15-.78-.15-.26 0-.53.06-.77.16Z" fill="currentColor"/></g></svg>