<svg width="24" height="24" fill="none" xmlns="http://www.w3.org/2000/svg"><mask id="a" style="mask-type:alpha" maskUnits="userSpaceOnUse" x="0" y="0" width="24" height="24"><path d="M24 0H0v24h24V0Z" fill="#fff"/></mask><g mask="url(#a)"><path fill-rule="evenodd" clip-rule="evenodd" d="m17.903 11.759-2.12-2.12 1.41-1.42 2.47 2.48 1.42-1.42-2.48-2.47 1.42-1.42-1.42-1.41-7.84 7.85a5.033 5.033 0 0 0-3.52-.78c-1.22.19-2.34.82-3.12 1.78-.79.96-1.19 2.18-1.12 3.42a4.99 4.99 0 0 0 1.46 3.29 5 5 0 0 0 6.69.33c.96-.79 1.6-1.9 1.79-3.12.18-1.22-.09-2.47-.77-3.51l2.19-2.19 2.12 2.12 1.42-1.41Zm-9.895 7.203c.79.01 1.55-.29 2.11-.84.29-.28.53-.61.69-.97.16-.37.25-.77.25-1.17.01-.4-.07-.8-.22-1.17-.15-.37-.37-.71-.66-.99-.28-.28-.62-.51-.99-.66-.37-.15-.77-.23-1.17-.22-.4.01-.8.09-1.16.25-.37.16-.7.4-.98.69a2.996 2.996 0 0 0 .04 4.2c.55.56 1.31.88 2.09.88Z" fill="currentColor"/></g></svg>