<svg xmlns="http://www.w3.org/2000/svg" xmlns:xlink="http://www.w3.org/1999/xlink" viewBox="0 0 24 24" fill="none"><defs><rect id="path_0" x="0" y="0" width="24" height="24" /></defs><g opacity="1" transform="translate(0 0)  rotate(0 12 12)"><mask id="bg-mask-0" fill="white"><use xlink:href="#path_0"></use></mask><g mask="url(#bg-mask-0)" ><path id="分组 1" fill-rule="evenodd" style="fill:#000000" transform="translate(2.992857967829993 3.979000000000001)  rotate(0 9.044071016085002 8.507340789194094)" opacity="1" d="M14.91 7.78L12.79 5.66L14.2 4.24L16.67 6.72L18.09 5.3L15.61 2.83L17.03 1.41L15.61 0L7.77 7.85C6.73 7.16 5.48 6.89 4.25 7.07C3.03 7.26 1.91 7.89 1.13 8.85C0.34 9.81 -0.06 11.03 0.01 12.27C0.07 13.51 0.59 14.68 1.47 15.56C2.35 16.43 3.52 16.95 4.75 17.01C5.99 17.07 7.21 16.67 8.16 15.89C9.12 15.1 9.76 13.99 9.95 12.77C10.13 11.55 9.86 10.3 9.18 9.26L11.37 7.07L13.49 9.19L14.91 7.78Z M5.01499 14.9825C5.80499 14.9925 6.56499 14.6925 7.12499 14.1425L7.12499 14.1425C7.41499 13.8625 7.65499 13.5325 7.81499 13.1725C7.97499 12.8025 8.06499 12.4025 8.06499 12.0025C8.07499 11.6025 7.99499 11.2025 7.84499 10.8325C7.69499 10.4625 7.47499 10.1225 7.18499 9.84251C6.90499 9.56251 6.56499 9.33251 6.19499 9.18251C5.82499 9.03251 5.42499 8.95251 5.02499 8.96251C4.62499 8.97251 4.22499 9.05251 3.86499 9.21251C3.49499 9.37251 3.16499 9.61251 2.88499 9.90251C2.34499 10.4625 2.03499 11.2225 2.04499 12.0125C2.05499 12.8025 2.36499 13.5525 2.92499 14.1025C3.47499 14.6625 4.23499 14.9825 5.01499 14.9825Z " /></g></g></svg>