<svg xmlns="http://www.w3.org/2000/svg" xmlns:xlink="http://www.w3.org/1999/xlink" width="24" height="24" viewBox="0 0 24 24" fill="none"><defs><rect id="path_0" x="0" y="0" width="24" height="24" /></defs><g opacity="1" transform="translate(0 0)  rotate(0 12 12)"><mask id="bg-mask-0" fill="white"><use xlink:href="#path_0"></use></mask><g mask="url(#bg-mask-0)" ><g opacity="1" transform="translate(3 3)  rotate(0 9 9)"><path id="路径 1" fill-rule="evenodd" style="fill:#000000" transform="translate(13 7)  rotate(0 2.5 5.5)" opacity="1" d="M4,11C4.27,11 4.52,10.89 4.71,10.71C4.89,10.52 5,10.27 5,10L5,0L0,0L0,11L4,11Z " /><path id="路径 2" fill-rule="evenodd" style="fill:#000000" transform="translate(0 7)  rotate(0 5.5 5.5)" opacity="1" d="M11,0L0,0L0,10C0,10.27 0.11,10.52 0.29,10.71C0.48,10.89 0.73,11 1,11L11,11L11,0Z " /><path id="路径 3" fill-rule="evenodd" style="fill:#000000" transform="translate(0 0)  rotate(0 9 2.5)" opacity="1" d="M18,1C18,0.73 17.89,0.48 17.71,0.29C17.52,0.11 17.27,0 17,0L1,0C0.73,0 0.48,0.11 0.29,0.29C0.11,0.48 0,0.73 0,1L0,5L18,5L18,1Z " /></g></g></g></svg>