<svg width="24" height="24" fill="none" xmlns="http://www.w3.org/2000/svg"><mask id="a" style="mask-type:alpha" maskUnits="userSpaceOnUse" x="0" y="0" width="24" height="24"><path d="M24 0H0v24h24V0Z" fill="#fff"/></mask><g mask="url(#a)" fill-rule="evenodd" clip-rule="evenodd" fill="currentColor"><path d="M20 21c.27 0 .52-.11.71-.29.18-.19.29-.44.29-.71V10h-5v11h4ZM14 10H3v10c0 .27.11.52.29.71.19.18.44.29.71.29h10V10ZM21 4c0-.27-.11-.52-.29-.71-.19-.18-.44-.29-.71-.29H4c-.27 0-.52.11-.71.29-.18.19-.29.44-.29.71v4h18V4Z"/></g></svg>