<svg xmlns="http://www.w3.org/2000/svg" xmlns:xlink="http://www.w3.org/1999/xlink" viewBox="0 0 24 24" fill="none"><defs><rect id="path_0" x="0" y="0" width="24" height="24" /></defs><g opacity="1" transform="translate(0 0)  rotate(0 12 12)"><mask id="bg-mask-0" fill="white"><use xlink:href="#path_0"></use></mask><g mask="url(#bg-mask-0)" ><g opacity="1" transform="translate(3.999753414375501 2.0009798985356717)  rotate(0 8.000008404211547 10.499510050732164)"><path id="路径 1" fill-rule="evenodd" style="fill:#000000" transform="translate(0 0)  rotate(0 8.000008404211547 7.999510050732164)" opacity="1" d="M9,16L12.06,16C12.36,14.73 13.69,13.69 14.24,13C15.19,11.82 15.78,10.41 15.95,8.91C16.12,7.41 15.86,5.9 15.21,4.54C14.56,3.18 13.54,2.03 12.26,1.23C10.98,0.43 9.51,0 8,0C6.49,0 5.02,0.43 3.74,1.23C2.47,2.03 1.44,3.18 0.79,4.53C0.14,5.89 -0.12,7.41 0.05,8.91C0.22,10.4 0.81,11.82 1.75,13C2.3,13.69 3.64,14.73 3.94,16L7,16L7,11L9,11L9,16Z " /><path id="路径 2" fill-rule="evenodd" style="fill:#000000" transform="translate(4.000206585624499 17.99902010146433)  rotate(0 4.00002 1.5)" opacity="1" d="M0,0L0,1C0,1.53 0.21,2.04 0.59,2.41C0.96,2.79 1.47,3 2,3L6,3C6.53,3 7.04,2.79 7.41,2.41C7.79,2.04 8,1.53 8,1L8,0L0,0Z " /></g></g></g></svg>