<svg width="24" height="24" fill="none" xmlns="http://www.w3.org/2000/svg"><mask id="a" style="mask-type:alpha" maskUnits="userSpaceOnUse" x="0" y="0" width="24" height="24"><path d="M24 0H0v24h24V0Z" fill="#fff"/></mask><g mask="url(#a)"><path fill-rule="evenodd" clip-rule="evenodd" d="M15.77 14.72c.11-.12.83-.86.91-.97.71-.88 1.15-1.95 1.28-3.07a5.989 5.989 0 0 0-2.76-5.76C14.24 4.32 13.13 4 12 4c-1.13 0-2.24.32-3.19.92a5.977 5.977 0 0 0-2.77 5.76c.13 1.12.57 2.18 1.27 3.07.09.1.81.85.92.97 1 1.09 1.61 2.08 1.74 3.28H11v-5h2v5h1.03c.13-1.2.74-2.19 1.74-3.28ZM10 21h4v-1h-4v1Zm8.24-5.999a7.928 7.928 0 0 0 1.71-4.09c.17-1.5-.09-3.01-.74-4.37a7.932 7.932 0 0 0-2.95-3.31A8.029 8.029 0 0 0 12 2.001c-1.51 0-2.98.43-4.26 1.23-1.27.8-2.3 1.95-2.95 3.3a8.063 8.063 0 0 0-.74 4.38c.17 1.49.76 2.91 1.7 4.09.63.77 2.25 2 2.25 3.5v2.5c0 .53.21 1.04.59 1.41.37.38.88.59 1.41.59h4c.53 0 1.04-.21 1.41-.59.38-.37.59-.88.59-1.41v-2.5c0-1.5 1.62-2.73 2.24-3.5Z" fill="currentColor"/></g></svg>