<svg width="24" height="24" fill="none" xmlns="http://www.w3.org/2000/svg"><mask id="a" style="mask-type:alpha" maskUnits="userSpaceOnUse" x="0" y="0" width="24" height="24"><path d="M24 0H0v24h24V0Z" fill="#fff"/></mask><g mask="url(#a)" fill-rule="evenodd" clip-rule="evenodd" fill="currentColor"><path d="M13 18.001h3.06c.3-1.27 1.63-2.31 2.18-3a7.928 7.928 0 0 0 1.71-4.09c.17-1.5-.09-3.01-.74-4.37a7.932 7.932 0 0 0-2.95-3.31A8.029 8.029 0 0 0 12 2.001c-1.51 0-2.98.43-4.26 1.23-1.27.8-2.3 1.95-2.95 3.3a8.063 8.063 0 0 0-.74 4.38c.17 1.49.76 2.91 1.7 4.09.55.69 1.89 1.73 2.19 3H11v-5h2v5ZM8 20v1c0 .53.21 1.04.59 1.41.37.38.88.59 1.41.59h4c.53 0 1.04-.21 1.41-.59.38-.37.59-.88.59-1.41v-1H8Z"/></g></svg>