<svg xmlns="http://www.w3.org/2000/svg" xmlns:xlink="http://www.w3.org/1999/xlink" width="24" height="24" viewBox="0 0 24 24" fill="none"><defs><rect id="path_0" x="0" y="0" width="24" height="24" /></defs><g opacity="1" transform="translate(0 0)  rotate(0 12 12)"><mask id="bg-mask-0" fill="white"><use xlink:href="#path_0"></use></mask><g mask="url(#bg-mask-0)" ><path id="分组 1" fill-rule="evenodd" style="fill:#000000" transform="translate(3.999783414375501 2.0009798985356717)  rotate(0 7.999998292240721 10.499510050732164)" opacity="1" d="M11.77 12.7196C11.88 12.5996 12.6 11.8596 12.68 11.7496C13.39 10.8696 13.83 9.79956 13.96 8.67956C14.09 7.55956 13.9 6.41956 13.41 5.39956C12.92 4.37956 12.15 3.51956 11.2 2.91956C10.24 2.31956 9.13 1.99956 8 1.99956C6.87 1.99956 5.76 2.31956 4.81 2.91956C3.85 3.51956 3.08 4.37956 2.59 5.39956C2.1 6.41956 1.91 7.54956 2.04 8.67956C2.17 9.79956 2.61 10.8596 3.31 11.7496C3.4 11.8496 4.12 12.5996 4.23 12.7196C5.23 13.8096 5.84 14.7996 5.97 15.9996L7 15.9996L7 10.9996L9 10.9996L9 15.9996L10.03 15.9996C10.16 14.7996 10.77 13.8096 11.77 12.7196Z M6.00021 18.999L10.0002 18.999L10.0002 17.999L6.00021 17.999L6.00021 18.999Z M14.24 13C15.19 11.82 15.78 10.41 15.95 8.91C16.12 7.41 15.86 5.9 15.21 4.54C14.56 3.18 13.54 2.03 12.26 1.23C10.98 0.43 9.51 0 8 0C6.49 0 5.02 0.43 3.74 1.23C2.47 2.03 1.44 3.18 0.79 4.53C0.14 5.89 -0.12 7.41 0.05 8.91C0.22 10.4 0.81 11.82 1.75 13C2.38 13.77 4 15 4 16.5L4 19C4 19.53 4.21 20.04 4.59 20.41C4.96 20.79 5.47 21 6 21L10 21C10.53 21 11.04 20.79 11.41 20.41C11.79 20.04 12 19.53 12 19L12 16.5C12 15 13.62 13.77 14.24 13Z " /></g></g></svg>