<svg xmlns="http://www.w3.org/2000/svg" xmlns:xlink="http://www.w3.org/1999/xlink" width="24" height="24" viewBox="0 0 24 24" fill="none"><defs><rect id="path_0" x="0" y="0" width="24" height="24" /></defs><g opacity="1" transform="translate(0 0)  rotate(0 12 12)"><mask id="bg-mask-0" fill="white"><use xlink:href="#path_0"></use></mask><g mask="url(#bg-mask-0)" ><g opacity="1" transform="translate(2.17065 2.1716300000000004)  rotate(0 9.829374999999999 9.828335)"><path id="路径 1" fill-rule="evenodd" style="fill:#000000" transform="translate(0 5.938359999999999)  rotate(0 7.177425 6.8591549999999994)" opacity="1" d="M12.35,6.37C12.35,7.69 11.83,8.96 10.89,9.9L10.54,10.25C10.07,10.72 9.52,11.09 8.91,11.35C8.31,11.6 7.65,11.73 7,11.73C6.34,11.74 5.69,11.61 5.08,11.36C4.47,11.1 3.92,10.74 3.45,10.27C2.98,9.8 2.62,9.25 2.36,8.64C2.11,8.03 1.98,7.38 1.99,6.72C1.99,6.06 2.12,5.41 2.37,4.81C2.63,4.2 3,3.65 3.47,3.18L2.05,1.77C0.74,3.08 0,4.86 0,6.72C0,8.57 0.74,10.36 2.05,11.67C3.36,12.98 5.14,13.72 7,13.72C8.86,13.72 10.64,12.98 11.95,11.67L12.3,11.32C12.95,10.67 13.47,9.89 13.82,9.04C14.17,8.19 14.35,7.28 14.35,6.37C14.35,5.45 14.17,4.54 13.82,3.69C13.47,2.84 12.95,2.07 12.3,1.42L10.89,0L10.89,0L9.48,1.42L10.89,2.83C11.83,3.77 12.35,5.04 12.35,6.37Z " /><path id="路径 2" fill-rule="evenodd" style="fill:#000000" transform="translate(5.30386 0)  rotate(0 7.177445 6.8586849999999995)" opacity="1" d="M3.46,3.82L3.82,3.46C4.28,3 4.83,2.63 5.44,2.37C6.05,2.12 6.7,1.99 7.36,1.98C8.02,1.98 8.67,2.11 9.28,2.36C9.89,2.61 10.44,2.98 10.9,3.45C11.37,3.91 11.74,4.47 11.99,5.08C12.24,5.68 12.37,6.34 12.37,7C12.37,7.65 12.24,8.31 11.98,8.91C11.73,9.52 11.36,10.07 10.89,10.54L12.3,11.95L12.3,11.95C13.62,10.64 14.35,8.86 14.35,7C14.35,5.14 13.62,3.36 12.3,2.05C10.99,0.74 9.21,0 7.35,0C5.5,0 3.72,0.74 2.4,2.05L2.05,2.4C1.4,3.05 0.88,3.83 0.53,4.67C0.18,5.52 0,6.43 0,7.35C0,8.27 0.18,9.18 0.53,10.03C0.88,10.88 1.4,11.65 2.05,12.3L3.46,13.72L4.88,12.3L3.46,10.89C2.53,9.95 2,8.68 2,7.35C2,6.03 2.53,4.76 3.46,3.82Z " /></g></g></g></svg>