<svg width="24" height="24" fill="none" xmlns="http://www.w3.org/2000/svg"><mask id="a" style="mask-type:alpha" maskUnits="userSpaceOnUse" x="0" y="0" width="24" height="24"><path d="M24 0H0v24h24V0Z" fill="#fff"/></mask><g mask="url(#a)" fill-rule="evenodd" clip-rule="evenodd" fill="currentColor"><path d="M14.52 14.48c0 1.32-.52 2.59-1.46 3.53l-.35.35c-.47.47-1.02.84-1.63 1.1-.6.25-1.26.38-1.91.38-.66.01-1.31-.12-1.92-.37-.61-.26-1.16-.62-1.63-1.09-.47-.47-.83-1.02-1.09-1.63-.25-.61-.38-1.26-.37-1.92 0-.66.13-1.31.38-1.91.26-.61.63-1.16 1.1-1.63L4.22 9.88a7.001 7.001 0 0 0 9.9 9.9l.35-.35a7.01 7.01 0 0 0 1.52-7.63c-.35-.85-.87-1.62-1.52-2.27l-1.41-1.42-1.41 1.42 1.41 1.41c.94.94 1.46 2.21 1.46 3.54Z"/><path d="m10.934 5.992.36-.36c.46-.46 1.01-.83 1.62-1.09.61-.25 1.26-.38 1.92-.39.66 0 1.31.13 1.92.38.61.25 1.16.62 1.62 1.09a5.019 5.019 0 0 1 1.47 3.55c0 .65-.13 1.31-.39 1.91-.25.61-.62 1.16-1.09 1.63l1.41 1.41a6.96 6.96 0 0 0 2.05-4.95c0-1.86-.73-3.64-2.05-4.95a7.001 7.001 0 0 0-4.95-2.05c-1.85 0-3.63.74-4.95 2.05l-.35.35c-.65.65-1.17 1.43-1.52 2.27a7.037 7.037 0 0 0 0 5.36c.35.85.87 1.62 1.52 2.27l1.41 1.42 1.42-1.42-1.42-1.41a5.036 5.036 0 0 1-1.46-3.54c0-1.32.53-2.59 1.46-3.53Z"/></g></svg>