<svg xmlns="http://www.w3.org/2000/svg" xmlns:xlink="http://www.w3.org/1999/xlink" viewBox="0 0 24 24" fill="none"><defs><rect id="path_0" x="0" y="0" width="24" height="24" /></defs><g opacity="1" transform="translate(0 0)  rotate(0 12 12)"><mask id="bg-mask-0" fill="white"><use xlink:href="#path_0"></use></mask><g mask="url(#bg-mask-0)" ><g opacity="1" transform="translate(2.17065 2.1716300000000004)  rotate(0 9.829875000000001 9.828335)"><path id="路径 1" fill-rule="evenodd" style="fill:#000000" transform="translate(6.29336 0)  rotate(0 6.683195 6.682185)" opacity="1" d="M9.9,10.53L8.49,11.95L9.9,13.36L9.9,13.36L11.32,11.95C12.63,10.64 13.37,8.86 13.37,7C13.37,5.14 12.63,3.36 11.32,2.05C10,0.74 8.22,0 6.37,0C4.51,0 2.73,0.74 1.42,2.05L0,3.46L1.41,4.88L2.83,3.46C3.29,3 3.84,2.62 4.45,2.37C5.06,2.12 5.71,1.98 6.37,1.98C7.03,1.98 7.68,2.11 8.29,2.36C8.9,2.61 9.45,2.98 9.92,3.45C10.38,3.91 10.75,4.47 11,5.08C11.25,5.68 11.38,6.34 11.38,6.99C11.38,7.65 11.25,8.3 10.99,8.91C10.74,9.52 10.37,10.07 9.9,10.53Z " /><path id="路径 2" fill-rule="evenodd" style="fill:#000000" transform="translate(0 6.29236)  rotate(0 6.682675 6.682154999999999)" opacity="1" d="M5.08 11C4.47 10.75 3.92 10.38 3.45 9.92C2.98 9.45 2.62 8.9 2.36 8.29C2.11 7.68 1.98 7.03 1.99 6.37C1.99 5.71 2.12 5.06 2.37 4.45C2.63 3.84 3 3.29 3.47 2.83L4.88 1.42L3.47 0L2.05 1.41C0.74 2.73 0 4.51 0 6.36C0 8.22 0.74 10 2.05 11.31C3.36 12.63 5.14 13.36 7 13.36C8.86 13.36 10.64 12.63 11.95 11.31L13.36 9.9L11.95 8.49L10.54 9.9C10.07 10.37 9.52 10.74 8.91 10.99C8.31 11.25 7.65 11.38 7 11.38C6.34 11.38 5.69 11.25 5.08 11Z" /><path id="路径 3" fill-rule="evenodd" style="fill:#000000" transform="translate(5.58636 5.58536)  rotate(0 4.242994999999999 4.242505)" opacity="1" d="M7.07,0L0,7.07L1.42,8.49L8.49,1.41L7.07,0L7.07,0Z " /></g></g></g></svg>