<svg width="24" height="24" fill="none" xmlns="http://www.w3.org/2000/svg"><mask id="a" style="mask-type:alpha" maskUnits="userSpaceOnUse" x="0" y="0" width="24" height="24"><path d="M24 0H0v24h24V0Z" fill="#fff"/></mask><g mask="url(#a)" fill-rule="evenodd" clip-rule="evenodd" fill="currentColor"><path d="m18.364 12.702-1.41 1.42 1.41 1.41 1.42-1.41a7.001 7.001 0 0 0 0-9.9 7.036 7.036 0 0 0-4.95-2.05c-1.86 0-3.64.74-4.95 2.05l-1.42 1.41 1.41 1.42 1.42-1.42c.46-.46 1.01-.84 1.62-1.09.61-.25 1.26-.39 1.92-.39.66 0 1.31.13 1.92.38a4.965 4.965 0 0 1 2.71 2.72c.25.6.38 1.26.38 1.91 0 .66-.13 1.31-.39 1.92-.25.61-.62 1.16-1.09 1.62ZM7.25 19.464c-.61-.25-1.16-.62-1.63-1.08-.47-.47-.83-1.02-1.09-1.63-.25-.61-.38-1.26-.37-1.92 0-.66.13-1.31.38-1.92.26-.61.63-1.16 1.1-1.62l1.41-1.41-1.41-1.42-1.42 1.41a7.036 7.036 0 0 0-2.05 4.95c0 1.86.74 3.64 2.05 4.95a6.96 6.96 0 0 0 4.95 2.05c1.86 0 3.64-.73 4.95-2.05l1.41-1.41-1.41-1.41-1.41 1.41c-.47.47-1.02.84-1.63 1.09-.6.26-1.26.39-1.91.39-.66 0-1.31-.13-1.92-.38Z"/><path d="m14.827 7.757-7.07 7.07 1.42 1.42 7.07-7.08-1.42-1.41Z"/></g></svg>