<svg xmlns="http://www.w3.org/2000/svg" xmlns:xlink="http://www.w3.org/1999/xlink" viewBox="0 0 24 24" fill="none"><defs><rect id="path_0" x="0" y="0" width="24" height="24" /></defs><g opacity="1" transform="translate(0 0)  rotate(0 12 12)"><mask id="bg-mask-0" fill="white"><use xlink:href="#path_0"></use></mask><g mask="url(#bg-mask-0)" ><path id="分组 1" fill-rule="evenodd" style="fill:#000000" transform="translate(2.9399397593854832 2.999019759385483)  rotate(0 9.529980120307258 9.000490120307258)" opacity="1" d="M3.41 0.59C3.04 0.21 2.53 0 2 0C1.47 0 0.96 0.21 0.59 0.59C0.21 0.96 0 1.47 0 2C0 2.53 0.21 3.04 0.59 3.41C0.96 3.79 1.47 4 2 4C2.53 4 3.04 3.79 3.41 3.41C3.79 3.04 4 2.53 4 2C4 1.47 3.79 0.96 3.41 0.59Z M0.0600002 5.481L0.0600002 18.001L4.06 18.001L4.06 5.481L0.0600002 5.481Z M10.34 18.0014L10.34 11.4314C10.34 7.77135 15.11 7.43135 15.11 11.4314L15.11 18.0014L19.06 18.0014L19.06 10.0714C19.06 3.90135 12 4.13135 10.34 7.16135L10.38 5.48135L6.4 5.48135L6.4 18.0014L10.34 18.0014Z " /></g></g></svg>