<svg xmlns="http://www.w3.org/2000/svg" xmlns:xlink="http://www.w3.org/1999/xlink" viewBox="0 0 24 24" fill="none"><defs><rect id="path_0" x="0" y="0" width="24" height="24" /></defs><g opacity="1" transform="translate(0 0)  rotate(0 12 12)"><mask id="bg-mask-0" fill="white"><use xlink:href="#path_0"></use></mask><g mask="url(#bg-mask-0)" ><g opacity="1" transform="translate(3 3)  rotate(0 9 9)"><path id="路径 1" fill-rule="evenodd" style="fill:#000000" transform="translate(5 1)  rotate(0 6.5 1)" opacity="1" d="M0,2L13,2L13,0L0,0L0,2Z " /><path id="路径 2" fill-rule="evenodd" style="fill:#000000" transform="translate(0 0)  rotate(0 1.5 2)" opacity="1" d="M0,1L1,1L1,3L0,3L0,4L3,4L3,3L2,3L2,0L0,0L0,1Z " /><path id="路径 3" fill-rule="evenodd" style="fill:#000000" transform="translate(0 7)  rotate(0 1.5 2)" opacity="1" d="M1,3L1,2.5L3,2.5L3,0L0,0L0,1L2,1L2,1.5L0,1.5L0,4L3,4L3,3L1,3Z " /><path id="路径 4" fill-rule="evenodd" style="fill:#000000" transform="translate(0 14)  rotate(0 1.5 2)" opacity="1" d="M0,1L2,1L2,1.5L0,1.5L0,2.5L2,2.5L2,3L0,3L0,4L3,4L3,0L0,0L0,1Z " /><path id="路径 5" fill-rule="evenodd" style="fill:#000000" transform="translate(5 8)  rotate(0 6.5 1)" opacity="1" d="M0,2L13,2L13,0L0,0L0,2Z " /><path id="路径 6" fill-rule="evenodd" style="fill:#000000" transform="translate(5 15)  rotate(0 6.5 1)" opacity="1" d="M0,2L13,2L13,0L0,0L0,2Z " /></g></g></g></svg>