<svg width="24" height="24" fill="none" xmlns="http://www.w3.org/2000/svg"><mask id="a" style="mask-type:alpha" maskUnits="userSpaceOnUse" x="0" y="0" width="24" height="24"><path d="M24 0H0v24h24V0Z" fill="#fff"/></mask><g mask="url(#a)" fill-rule="evenodd" clip-rule="evenodd" fill="currentColor"><path d="M12.71 2.29C12.52 2.11 12.27 2 12 2c-.27 0-.52.11-.71.29-.18.19-.29.44-.29.71v3c0 .27.11.52.29.71.19.18.44.29.71.29.27 0 .52-.11.71-.29.18-.19.29-.44.29-.71V3c0-.27-.11-.52-.29-.71ZM11.29 21.71c.19.18.44.29.71.29.27 0 .52-.11.71-.29.18-.19.29-.44.29-.71v-3c0-.27-.11-.52-.29-.71-.19-.18-.44-.29-.71-.29-.27 0-.52.11-.71.29-.18.19-.29.44-.29.71v3c0 .27.11.52.29.71ZM18 13h3c.27 0 .52-.11.71-.29.18-.19.29-.44.29-.71 0-.27-.11-.52-.29-.71-.19-.18-.44-.29-.71-.29h-3c-.27 0-.52.11-.71.29-.18.19-.29.44-.29.71 0 .27.11.52.29.71.19.18.44.29.71.29ZM3 13h3c.27 0 .52-.11.71-.29.18-.19.29-.44.29-.71 0-.27-.11-.52-.29-.71-.19-.18-.44-.29-.71-.29H3c-.27 0-.52.11-.71.29-.18.19-.29.44-.29.71 0 .27.11.52.29.71.19.18.44.29.71.29ZM15.535 16.945l2.12 2.13c.19.18.44.29.71.29.26 0 .52-.11.71-.29.09-.1.16-.21.21-.33.05-.12.08-.25.08-.38s-.03-.26-.08-.38a.933.933 0 0 0-.21-.33l-2.13-2.12a1 1 0 0 0-1.4.01 1 1 0 0 0-.01 1.4ZM7.757 8.756c.27 0 .52-.1.71-.29.18-.19.29-.44.29-.71 0-.26-.11-.52-.29-.71l-2.12-2.12c-.19-.18-.44-.29-.71-.29-.27 0-.52.11-.71.29-.18.19-.29.45-.29.71 0 .27.11.52.29.71l2.12 2.12c.19.19.45.29.71.29ZM4.927 17.66c-.18.18-.29.44-.29.7 0 .27.11.52.29.71.1.09.21.17.33.22.12.05.25.07.38.07s.26-.02.38-.07.23-.13.33-.22l2.12-2.12c.09-.09.17-.2.22-.33a1.036 1.036 0 0 0 .01-.77 1.19 1.19 0 0 0-.22-.33 1.06 1.06 0 0 0-.33-.22c-.12-.05-.25-.07-.39-.07a.995.995 0 0 0-.71.31l-2.12 2.12ZM19.073 6.346a.99.99 0 0 0 .29-.71c0-.27-.11-.52-.29-.71-.19-.18-.44-.29-.71-.29-.27 0-.52.11-.71.29l-2.12 2.12c-.18.19-.29.45-.29.71 0 .27.11.52.29.71.19.19.44.29.71.29.26 0 .52-.1.71-.29l2.12-2.12Z"/></g></svg>