<svg xmlns="http://www.w3.org/2000/svg" xmlns:xlink="http://www.w3.org/1999/xlink" viewBox="0 0 24 24" fill="none"><defs><rect id="path_0" x="0" y="0" width="24" height="24" /></defs><g opacity="1" transform="translate(0 0)  rotate(0 12 12)"><mask id="bg-mask-0" fill="white"><use xlink:href="#path_0"></use></mask><g mask="url(#bg-mask-0)" ><g opacity="1" transform="translate(2 2)  rotate(0 10 10)"><path id="路径 1" fill-rule="evenodd" style="fill:#000000" transform="translate(9 0)  rotate(0 1 2.5)" opacity="1" d="M1.71,0.29C1.52,0.11 1.27,0 1,0C0.73,0 0.48,0.11 0.29,0.29C0.11,0.48 0,0.73 0,1L0,4C0,4.27 0.11,4.52 0.29,4.71C0.48,4.89 0.73,5 1,5C1.27,5 1.52,4.89 1.71,4.71C1.89,4.52 2,4.27 2,4L2,1C2,0.73 1.89,0.48 1.71,0.29Z " /><path id="路径 2" fill-rule="evenodd" style="fill:#000000" transform="translate(9 15)  rotate(0 1 2.5)" opacity="1" d="M0.29,4.71C0.48,4.89 0.73,5 1,5C1.27,5 1.52,4.89 1.71,4.71C1.89,4.52 2,4.27 2,4L2,1C2,0.73 1.89,0.48 1.71,0.29C1.52,0.11 1.27,0 1,0C0.73,0 0.48,0.11 0.29,0.29C0.11,0.48 0,0.73 0,1L0,4C0,4.27 0.11,4.52 0.29,4.71Z " /><path id="路径 3" fill-rule="evenodd" style="fill:#000000" transform="translate(15 9)  rotate(0 2.5 1)" opacity="1" d="M1,2L4,2C4.27,2 4.52,1.89 4.71,1.71C4.89,1.52 5,1.27 5,1C5,0.73 4.89,0.48 4.71,0.29C4.52,0.11 4.27,0 4,0L1,0C0.73,0 0.48,0.11 0.29,0.29C0.11,0.48 0,0.73 0,1C0,1.27 0.11,1.52 0.29,1.71C0.48,1.89 0.73,2 1,2Z " /><path id="路径 4" fill-rule="evenodd" style="fill:#000000" transform="translate(0 9)  rotate(0 2.5 1)" opacity="1" d="M1,2L4,2C4.27,2 4.52,1.89 4.71,1.71C4.89,1.52 5,1.27 5,1C5,0.73 4.89,0.48 4.71,0.29C4.52,0.11 4.27,0 4,0L1,0C0.73,0 0.48,0.11 0.29,0.29C0.11,0.48 0,0.73 0,1C0,1.27 0.11,1.52 0.29,1.71C0.48,1.89 0.73,2 1,2Z " /><path id="路径 5" fill-rule="evenodd" style="fill:#000000" transform="translate(13.255261487775984 13.25526148777598)  rotate(0 2.054519256112008 2.0542692561120104)" opacity="1" d="M0.28,1.69L2.4,3.82C2.59,4 2.84,4.11 3.11,4.11C3.37,4.11 3.63,4 3.82,3.82C3.91,3.72 3.98,3.61 4.03,3.49C4.08,3.37 4.11,3.24 4.11,3.11C4.11,2.98 4.08,2.85 4.03,2.73C3.98,2.6 3.91,2.49 3.82,2.4L1.69,0.28C1.51,0.1 1.25,0 0.99,0C0.73,0 0.48,0.11 0.29,0.29C0.11,0.48 0,0.73 0,0.99C0,1.25 0.1,1.51 0.28,1.69Z " /><path id="路径 6" fill-rule="evenodd" style="fill:#000000" transform="translate(2.6367999288332786 2.636299928833279)  rotate(0 2.059995035583361 2.060245035583361)" opacity="1" d="M3.12,4.12C3.39,4.12 3.64,4.02 3.83,3.83C4.01,3.64 4.12,3.39 4.12,3.12C4.12,2.86 4.01,2.6 3.83,2.41L1.71,0.29C1.52,0.11 1.27,0 1,0C0.73,0 0.48,0.11 0.29,0.29C0.11,0.48 0,0.74 0,1C0,1.27 0.11,1.52 0.29,1.71L2.41,3.83C2.6,4.02 2.86,4.12 3.12,4.12Z " /><path id="路径 7" fill-rule="evenodd" style="fill:#000000" transform="translate(2.6372099999999996 13.230665612330357)  rotate(0 2.066538757558014 2.0668171938348214)" opacity="1" d="M0.29,2.43C0.11,2.61 0,2.87 0,3.13C0,3.4 0.11,3.65 0.29,3.84C0.39,3.93 0.5,4.01 0.62,4.06C0.74,4.11 0.87,4.13 1,4.13C1.13,4.13 1.26,4.11 1.38,4.06C1.5,4.01 1.61,3.93 1.71,3.84L3.83,1.72C3.92,1.63 4,1.52 4.05,1.39C4.1,1.27 4.13,1.14 4.13,1.01C4.13,0.88 4.11,0.74 4.06,0.62C4.01,0.5 3.93,0.39 3.84,0.29C3.75,0.2 3.63,0.12 3.51,0.07C3.39,0.02 3.26,0 3.12,0C2.99,0 2.86,0.03 2.74,0.08C2.62,0.13 2.51,0.21 2.41,0.31L0.29,2.43Z " /><path id="路径 8" fill-rule="evenodd" style="fill:#000000" transform="translate(13.2432 2.6357999288332783)  rotate(0 2.0602500355799895 2.060495035583361)" opacity="1" d="M3.83,1.71C4.02,1.52 4.12,1.27 4.12,1C4.12,0.73 4.01,0.48 3.83,0.29C3.64,0.11 3.39,0 3.12,0C2.85,0 2.6,0.11 2.41,0.29L0.29,2.41C0.11,2.6 0,2.86 0,3.12C0,3.39 0.11,3.64 0.29,3.83C0.48,4.02 0.73,4.12 1,4.12C1.26,4.12 1.52,4.02 1.71,3.83L3.83,1.71Z " /></g></g></g></svg>