<svg width="24" height="24" fill="none" xmlns="http://www.w3.org/2000/svg"><mask id="a" style="mask-type:alpha" maskUnits="userSpaceOnUse" x="0" y="0" width="24" height="24"><path d="M24 0H0v24h24V0Z" fill="#fff"/></mask><g mask="url(#a)"><path fill-rule="evenodd" clip-rule="evenodd" d="M20 21.997c.27 0 .52-.1.71-.29.18-.19.29-.44.29-.71v-10a1.009 1.009 0 0 0-1-1H7v-1c0-1.12.38-2.22 1.08-3.1a4.98 4.98 0 0 1 6.04-1.43c1.02.48 1.85 1.29 2.35 2.3l1.79-.9a6.97 6.97 0 0 0-3.29-3.21 6.952 6.952 0 0 0-4.58-.47 6.99 6.99 0 0 0-3.88 2.47A6.98 6.98 0 0 0 5 8.997v1H4a1.009 1.009 0 0 0-1 1v10c0 .27.11.52.29.71.19.19.44.29.71.29h16ZM5 20h14v-8H5v8Zm5-3h4v-2h-4v2Z" fill="currentColor"/></g></svg>