<svg xmlns="http://www.w3.org/2000/svg" xmlns:xlink="http://www.w3.org/1999/xlink" width="24" height="24" viewBox="0 0 24 24" fill="none"><defs><rect id="path_0" x="0" y="0" width="24" height="24" /></defs><g opacity="1" transform="translate(0 0)  rotate(0 12 12)"><mask id="bg-mask-0" fill="white"><use xlink:href="#path_0"></use></mask><g mask="url(#bg-mask-0)" ><path id="分组 1" fill-rule="evenodd" style="fill:#000000" transform="translate(3 2)  rotate(0 9 10)" opacity="1" d="M18 19L18 9C18 8.73 17.89 8.48 17.71 8.29C17.52 8.11 17.27 8 17 8L16 8L16 7C16 6.08 15.82 5.17 15.47 4.32C15.12 3.47 14.6 2.7 13.95 2.05C13.3 1.4 12.53 0.88 11.68 0.53C10.83 0.18 9.92 0 9 0C8.08 0 7.17 0.18 6.32 0.53C5.47 0.88 4.7 1.4 4.05 2.05C3.4 2.7 2.88 3.47 2.53 4.32C2.18 5.17 2 6.08 2 7L2 8L1 8C0.73 8 0.48 8.11 0.29 8.29C0.11 8.48 0 8.73 0 9L0 19C0 19.27 0.11 19.52 0.29 19.71C0.48 19.89 0.73 20 1 20L17 20C17.27 20 17.52 19.89 17.71 19.71C17.89 19.52 18 19.27 18 19Z M2 18L16 18L16 10L2 10L2 18Z M8 16L10 16L10 12L8 12L8 16Z M14 7C14 5.67 13.47 4.4 12.54 3.46C11.6 2.53 10.33 2 9 2C7.67 2 6.4 2.53 5.46 3.46C4.53 4.4 4 5.67 4 7L4 8L14 8L14 7Z " /></g></g></svg>