<svg xmlns="http://www.w3.org/2000/svg" xmlns:xlink="http://www.w3.org/1999/xlink" viewBox="0 0 24 24" fill="none"><defs><rect id="path_0" x="0" y="0" width="24" height="24" /></defs><g opacity="1" transform="translate(0 0)  rotate(0 12 12)"><mask id="bg-mask-0" fill="white"><use xlink:href="#path_0"></use></mask><g mask="url(#bg-mask-0)" ><path id="分组 1" fill-rule="evenodd" style="fill:#000000" transform="translate(3 1.997436119013459)  rotate(0 9 10.001281940493271)" opacity="1" d="M17 20C17.27 20 17.52 19.9 17.71 19.71C17.89 19.52 18 19.27 18 19L18 9C18 8.74 17.89 8.48 17.71 8.3C17.52 8.11 17.27 8 17 8L4 8L4 7C4 5.88 4.38 4.78 5.08 3.9C5.78 3.01 6.75 2.39 7.85 2.13C8.95 1.87 10.1 1.99 11.12 2.47C12.14 2.95 12.97 3.76 13.47 4.77L15.26 3.87C14.56 2.46 13.4 1.33 11.97 0.66C10.54 -0.01 8.93 -0.18 7.39 0.19C5.86 0.55 4.49 1.42 3.51 2.66C2.53 3.89 2 5.43 2 7L2 8L1 8C0.73 8 0.48 8.11 0.29 8.3C0.11 8.48 0 8.74 0 9L0 19C0 19.27 0.11 19.52 0.29 19.71C0.48 19.9 0.73 20 1 20L17 20Z M2 18.0026L16 18.0026L16 10.0026L2 10.0026L2 18.0026Z M7 15.0026L11 15.0026L11 13.0026L7 13.0026L7 15.0026Z " /></g></g></svg>