<svg width="24" height="24" fill="none" xmlns="http://www.w3.org/2000/svg"><mask id="a" style="mask-type:alpha" maskUnits="userSpaceOnUse" x="0" y="0" width="24" height="24"><path d="M24 0H0v24h24V0Z" fill="#fff"/></mask><g mask="url(#a)"><path fill-rule="evenodd" clip-rule="evenodd" d="M21 21V11c0-.27-.11-.52-.29-.71-.19-.18-.44-.29-.71-.29h-1V9a6.967 6.967 0 0 0-2.05-4.95A6.967 6.967 0 0 0 12 2a6.967 6.967 0 0 0-4.95 2.05A6.967 6.967 0 0 0 5 9v1H4c-.27 0-.52.11-.71.29-.18.19-.29.44-.29.71v10c0 .27.11.52.29.71.19.18.44.29.71.29h16c.27 0 .52-.11.71-.29.18-.19.29-.44.29-.71ZM5 20h14v-8H5v8Zm6-2h2v-4h-2v4Zm6-9c0-1.33-.53-2.6-1.46-3.54A5.036 5.036 0 0 0 12 4c-1.33 0-2.6.53-3.54 1.46C7.53 6.4 7 7.67 7 9v1h10V9Z" fill="currentColor"/></g></svg>