<svg xmlns="http://www.w3.org/2000/svg" xmlns:xlink="http://www.w3.org/1999/xlink" width="24" height="24" viewBox="0 0 24 24" fill="none"><defs><rect id="path_0" x="0" y="0" width="24" height="24" /></defs><g opacity="1" transform="translate(0 0)  rotate(0 12 12)"><mask id="bg-mask-0" fill="white"><use xlink:href="#path_0"></use></mask><g mask="url(#bg-mask-0)" ><g opacity="1" transform="translate(1 2)  rotate(0 9.5 10)"><path id="路径 1" fill-rule="evenodd" style="fill:#000000" transform="translate(3 0)  rotate(0 8 10)" opacity="1" d="M16,1C16,0.73 15.89,0.48 15.71,0.29C15.52,0.11 15.27,0 15,0L1,0C0.73,0 0.48,0.11 0.29,0.29C0.11,0.48 0,0.73 0,1L0,4L2,4L2,2L14,2L14,18L2,18L2,16L0,16L0,19C0,19.27 0.11,19.52 0.29,19.71C0.48,19.89 0.73,20 1,20L15,20C15.27,20 15.52,19.89 15.71,19.71C15.89,19.52 16,19.27 16,19L16,1Z " /><path id="路径 2" fill-rule="evenodd" style="fill:#000000" transform="translate(0 6)  rotate(0 6 4)" opacity="1" d="M5,0L0,4L5,8L5,5L12,5L12,3L5,3L5,0Z " /></g></g></g></svg>