<svg xmlns="http://www.w3.org/2000/svg" xmlns:xlink="http://www.w3.org/1999/xlink" viewBox="0 0 24 24" fill="none"><defs><rect id="path_0" x="0" y="0" width="24" height="24" /></defs><g opacity="1" transform="translate(0 0)  rotate(0 12 12)"><mask id="bg-mask-0" fill="white"><use xlink:href="#path_0"></use></mask><g mask="url(#bg-mask-0)" ><path id="分组 1" fill-rule="evenodd" style="fill:#000000" transform="translate(1.999999986606948 1.1674799999999994)  rotate(0 10.000000006696526 9.91626)" opacity="1" d="M20 6.12C20 6.03 19.98 5.95 19.94 5.87C19.89 5.79 19.83 5.73 19.76 5.69L10.52 0.14C10.36 0.05 10.19 0 10 0C9.82 0 9.65 0.05 9.49 0.14L0.24 5.69C0.17 5.73 0.11 5.79 0.06 5.87C0.02 5.94 0 6.03 0 6.12L0 18.83C0 19.1 0.11 19.35 0.29 19.54C0.48 19.73 0.73 19.83 1 19.83L19 19.83C19.27 19.83 19.52 19.73 19.71 19.54C19.89 19.35 20 19.1 20 18.83L20 6.12Z M10.063 12.5205L3.643 7.07051L2.353 8.59051L10.073 15.1505L17.653 8.59051L16.343 7.08051L10.063 12.5205Z " /></g></g></svg>