<svg width="24" height="24" fill="none" xmlns="http://www.w3.org/2000/svg"><mask id="a" style="mask-type:alpha" maskUnits="userSpaceOnUse" x="0" y="0" width="24" height="24"><path d="M24 0H0v24h24V0Z" fill="#fff"/></mask><g mask="url(#a)"><path fill-rule="evenodd" clip-rule="evenodd" d="M22 7.287c0-.09-.02-.17-.06-.25a.516.516 0 0 0-.18-.18l-9.24-5.55c-.16-.09-.33-.14-.52-.14-.18 0-.35.05-.51.14l-9.25 5.55c-.07.04-.13.1-.18.18-.04.07-.06.16-.06.25v12.71c0 .27.11.52.29.71.19.19.44.29.71.29h18c.27 0 .52-.1.71-.29.18-.19.29-.44.29-.71V7.287Zm-9.937 6.401-6.42-5.45-1.29 1.52 7.72 6.56 7.58-6.56-1.31-1.51-6.28 5.44Z" fill="currentColor"/></g></svg>