<svg xmlns="http://www.w3.org/2000/svg" xmlns:xlink="http://www.w3.org/1999/xlink" width="24" height="24" viewBox="0 0 24 24" fill="none"><defs><rect id="path_0" x="0" y="0" width="24" height="24" /></defs><g opacity="1" transform="translate(0 0)  rotate(0 12 12)"><mask id="bg-mask-0" fill="white"><use xlink:href="#path_0"></use></mask><g mask="url(#bg-mask-0)" ><path id="分组 1" fill-rule="evenodd" style="fill:#000000" transform="translate(3.000001014715922 2.000120000000001)  rotate(0 8.999997882489591 10.863940000000001)" opacity="1" d="M9 21.73L15.36 15.36C16.62 14.11 17.48 12.5 17.83 10.76C18.17 9.01 18 7.2 17.31 5.56C16.63 3.91 15.48 2.51 14 1.52C12.52 0.53 10.78 0 9 0C7.22 0 5.48 0.53 4 1.52C2.52 2.51 1.37 3.91 0.69 5.56C0 7.2 -0.17 9.01 0.17 10.76C0.52 12.5 1.38 14.11 2.64 15.36L9 21.73Z M11.83 11.8299C12.58 11.0799 13 10.0599 13 8.99992C13 7.93992 12.58 6.91992 11.83 6.16992C11.08 5.41992 10.06 4.99992 9 4.99992C7.94 4.99992 6.92 5.41992 6.17 6.16992C5.42 6.91992 5 7.93992 5 8.99992C5 10.0599 5.42 11.0799 6.17 11.8299C6.92 12.5799 7.94 12.9999 9 12.9999C10.06 12.9999 11.08 12.5799 11.83 11.8299Z M10.41 10.4099C10.79 10.0399 11 9.52992 11 8.99992C11 8.46992 10.79 7.95992 10.41 7.58992C10.04 7.20992 9.53 6.99992 9 6.99992C8.47 6.99992 7.96 7.20992 7.59 7.58992C7.21 7.95992 7 8.46992 7 8.99992C7 9.52992 7.21 10.0399 7.59 10.4099C7.96 10.7899 8.47 10.9999 9 10.9999C9.53 10.9999 10.04 10.7899 10.41 10.4099Z " /></g></g></svg>