<svg width="24" height="24" fill="none" xmlns="http://www.w3.org/2000/svg"><mask id="a" style="mask-type:alpha" maskUnits="userSpaceOnUse" x="0" y="0" width="24" height="24"><path d="M24 0H0v24h24V0Z" fill="#fff"/></mask><g mask="url(#a)"><path fill-rule="evenodd" clip-rule="evenodd" d="m15 22 7-3V2.76c0-.08-.02-.17-.06-.24a.69.69 0 0 0-.16-.18.507.507 0 0 0-.48-.04L15 5 9 2 2 5v16.24c0 .08.02.17.06.24.04.07.1.13.16.18a.507.507 0 0 0 .48.04L9 19l6 3Zm0-14.824-.06.03L9 4.236v12.59l.06-.03 5.94 2.97V7.176Z" fill="currentColor"/></g></svg>