<svg width="24" height="24" fill="none" xmlns="http://www.w3.org/2000/svg"><mask id="a" style="mask-type:alpha" maskUnits="userSpaceOnUse" x="0" y="0" width="24" height="24"><path d="M24 0H0v24h24V0Z" fill="#fff"/></mask><g mask="url(#a)"><path fill-rule="evenodd" clip-rule="evenodd" d="m12 20.9 4.95-4.95c.98-.98 1.65-2.23 1.92-3.58A7.008 7.008 0 0 0 8.11 5.18a7.008 7.008 0 0 0-2.98 7.19c.27 1.35.94 2.6 1.92 3.58L12 20.9Zm8.83-8.14c.34-1.75.17-3.56-.52-5.2A8.994 8.994 0 0 0 12 2a8.994 8.994 0 0 0-8.31 5.56 8.983 8.983 0 0 0-.52 5.2 8.986 8.986 0 0 0 2.47 4.6L12 23.73l6.36-6.37a8.986 8.986 0 0 0 2.47-4.6Zm-7.42-.35c.38-.37.59-.88.59-1.41 0-.53-.21-1.04-.59-1.41C13.04 9.21 12.53 9 12 9c-.53 0-1.04.21-1.41.59-.38.37-.59.88-.59 1.41 0 .53.21 1.04.59 1.41.37.38.88.59 1.41.59.53 0 1.04-.21 1.41-.59Zm1.42 1.42a4.004 4.004 0 0 0 0-5.66 4.004 4.004 0 0 0-5.66 0 4.004 4.004 0 0 0 0 5.66 4.004 4.004 0 0 0 5.66 0Z" fill="currentColor"/></g></svg>