<svg xmlns="http://www.w3.org/2000/svg" xmlns:xlink="http://www.w3.org/1999/xlink" viewBox="0 0 24 24" fill="none"><defs><rect id="path_0" x="0" y="0" width="24" height="24" /></defs><g opacity="1" transform="translate(0 0)  rotate(0 12 12)"><mask id="bg-mask-0" fill="white"><use xlink:href="#path_0"></use></mask><g mask="url(#bg-mask-0)" ><path id="分组 1" fill-rule="evenodd" style="fill:#000000" transform="translate(1.9999998211588412 2)  rotate(0 10.000000271473002 10)" opacity="1" d="M0 19.24C0 19.32 0.02 19.41 0.06 19.48C0.1 19.55 0.16 19.61 0.22 19.66C0.29 19.7 0.37 19.73 0.46 19.74C0.54 19.75 0.62 19.73 0.7 19.7L7 17L13 20L20 17L20 0.76C20 0.68 19.98 0.59 19.94 0.52C19.9 0.45 19.84 0.39 19.78 0.34C19.71 0.3 19.63 0.27 19.54 0.26C19.46 0.25 19.38 0.27 19.3 0.3L13 3L7 0L0 3L0 19.24Z M18 15.683L18 3.033L14 4.743L14 17.393L18 15.683Z M12 4.736L8 2.736L8 15.266L12 17.266L12 4.736Z M6 2.605L2 4.315L2 16.965L6 15.255L6 2.605Z " /></g></g></svg>