<svg width="24" height="24" fill="none" xmlns="http://www.w3.org/2000/svg"><mask id="a" style="mask-type:alpha" maskUnits="userSpaceOnUse" x="0" y="0" width="24" height="24"><path d="M24 0H0v24h24V0Z" fill="#fff"/></mask><g mask="url(#a)"><path fill-rule="evenodd" clip-rule="evenodd" d="M6.34 9.34A8.008 8.008 0 0 0 4 15c0 2.12.84 4.16 2.34 5.66S9.88 23 12 23s4.16-.84 5.66-2.34S20 17.12 20 15s-.84-4.16-2.34-5.66A8.008 8.008 0 0 0 12 7c-2.12 0-4.16.84-5.66 2.34Zm1.42 1.42A5.97 5.97 0 0 0 6 15c0 1.59.63 3.12 1.76 4.24A5.97 5.97 0 0 0 12 21c1.59 0 3.12-.63 4.24-1.76A5.97 5.97 0 0 0 18 15c0-1.59-.63-3.12-1.76-4.24A5.97 5.97 0 0 0 12 9c-1.59 0-3.12.63-4.24 1.76Zm1.6 7.88L12 17.25l2.65 1.39-.51-2.94 2.14-2.09-2.96-.43L12 10.5l-1.32 2.68-2.96.43 2.14 2.09-.5 2.94ZM13 2v3.05c1.27.12 2.51.49 3.64 1.09L18 5V2h-5Zm-7-.001v3l1.36 1.14A10.1 10.1 0 0 1 11 5.049v-3.05H6Z" fill="currentColor"/></g></svg>