<svg xmlns="http://www.w3.org/2000/svg" xmlns:xlink="http://www.w3.org/1999/xlink" width="24" height="24" viewBox="0 0 24 24" fill="none"><defs><rect id="path_0" x="0" y="0" width="24" height="24" /></defs><g opacity="1" transform="translate(0 0)  rotate(0 12 12)"><mask id="bg-mask-0" fill="white"><use xlink:href="#path_0"></use></mask><g mask="url(#bg-mask-0)" ><path id="分组 1" fill-rule="evenodd" style="fill:#000000" transform="translate(4 1.9990199999999998)  rotate(0 8 10.500490000000001)" opacity="1" d="M2.34 7.341C0.84 8.841 0 10.881 0 13.001C0 15.121 0.84 17.161 2.34 18.661C3.84 20.161 5.88 21.001 8 21.001C10.12 21.001 12.16 20.161 13.66 18.661C15.16 17.161 16 15.121 16 13.001C16 10.881 15.16 8.841 13.66 7.341C12.16 5.841 10.12 5.001 8 5.001C5.88 5.001 3.84 5.841 2.34 7.341Z M3.76 8.761C2.63 9.881 2 11.411 2 13.001C2 14.591 2.63 16.121 3.76 17.241C4.88 18.371 6.41 19.001 8 19.001C9.59 19.001 11.12 18.371 12.24 17.241C13.37 16.121 14 14.591 14 13.001C14 11.411 13.37 9.881 12.24 8.761C11.12 7.631 9.59 7.001 8 7.001C6.41 7.001 4.88 7.631 3.76 8.761Z M5.36 16.641L8 15.251L10.65 16.641L10.14 13.701L12.28 11.611L9.32 11.181L8 8.50098L6.68 11.181L3.72 11.611L5.86 13.701L5.36 16.641Z M9 0.001L9 3.051C10.27 3.171 11.51 3.541 12.64 4.141L14 3.001L14 0.001L9 0.001Z M2 0L2 3L3.36 4.14C4.49 3.55 5.73 3.18 7 3.05L7 0L2 0Z " /></g></g></svg>