<svg width="24" height="24" fill="none" xmlns="http://www.w3.org/2000/svg"><mask id="a" style="mask-type:alpha" maskUnits="userSpaceOnUse" x="0" y="0" width="24" height="24"><path d="M24 0H0v24h24V0Z" fill="#fff"/></mask><g mask="url(#a)"><path fill-rule="evenodd" clip-rule="evenodd" d="M6.34 9.34A8.008 8.008 0 0 0 4 15c0 2.12.84 4.16 2.34 5.66S9.88 23 12 23s4.16-.84 5.66-2.34S20 17.12 20 15s-.84-4.16-2.34-5.66A8.008 8.008 0 0 0 12 7c-2.12 0-4.16.84-5.66 2.34Zm4.34 3.84-2.96.43 2.14 2.09-.5 2.94L12 17.25l2.65 1.39-.51-2.94 2.14-2.09-2.96-.43L12 10.5l-1.32 2.68ZM13 1.999v3.05c1.27.13 2.51.5 3.64 1.09L18 4.999v-3h-5Zm-7 0v3l1.36 1.14A10.1 10.1 0 0 1 11 5.049v-3.05H6Z" fill="currentColor"/></g></svg>