<svg width="24" height="24" fill="none" xmlns="http://www.w3.org/2000/svg"><mask id="a" style="mask-type:alpha" maskUnits="userSpaceOnUse" x="0" y="0" width="24" height="24"><path d="M24 0H0v24h24V0Z" fill="#fff"/></mask><g mask="url(#a)" fill-rule="evenodd" clip-rule="evenodd" fill="currentColor"><path d="m2.803 1.393-1.41 1.42 5.61 5.6v1.59c0 .77.18 1.54.52 2.23.35.69.85 1.3 1.47 1.76.62.47 1.34.79 2.1.93.77.14 1.55.1 2.3-.12l1.55 1.55c-.99.46-2.08.68-3.17.64a6.919 6.919 0 0 1-3.11-.84 7.106 7.106 0 0 1-2.41-2.15c-.62-.9-1.03-1.92-1.18-3h-2.02a9.015 9.015 0 0 0 2.58 5.36 9.069 9.069 0 0 0 5.37 2.58v4.06h2v-4.06c1.2-.13 2.37-.51 3.42-1.1l4.77 4.76 1.41-1.41-19.8-19.8ZM20.942 11h-2.01c-.14.99-.49 1.91-1 2.72l1.44 1.44a8.818 8.818 0 0 0 1.57-4.16ZM16.465 12.247c.35-.69.54-1.47.54-2.25l-.01-4c.01-1.1-.36-2.16-1.02-3.04-.67-.87-1.6-1.5-2.66-1.79a5.118 5.118 0 0 0-3.21.2 5.06 5.06 0 0 0-2.42 2.1l8.78 8.78Z"/></g></svg>