<svg xmlns="http://www.w3.org/2000/svg" xmlns:xlink="http://www.w3.org/1999/xlink" width="24" height="24" viewBox="0 0 24 24" fill="none"><defs><rect id="path_0" x="0" y="0" width="24" height="24" /></defs><g opacity="1" transform="translate(0 0)  rotate(0 12 12)"><mask id="bg-mask-0" fill="white"><use xlink:href="#path_0"></use></mask><g mask="url(#bg-mask-0)" ><g opacity="1" transform="translate(1.3930100000000003 0.9987785713034398)  rotate(0 10.606995 11.00066071434828)"><path id="路径 1" fill-rule="evenodd" style="fill:#000000" transform="translate(0 0.39427142869656007)  rotate(0 10.606995 10.803525)" opacity="1" d="M11.61,17.55C12.81,17.42 13.98,17.04 15.03,16.45L19.8,21.21L21.21,19.8L1.41,0L0,1.42L5.61,7.02L5.61,8.61C5.61,9.38 5.79,10.15 6.13,10.84C6.48,11.53 6.98,12.14 7.6,12.6C8.22,13.07 8.94,13.39 9.7,13.53C10.47,13.67 11.25,13.63 12,13.41L13.55,14.96C12.56,15.42 11.47,15.64 10.38,15.6C9.29,15.57 8.23,15.28 7.27,14.76C6.31,14.24 5.49,13.5 4.86,12.61C4.24,11.71 3.83,10.69 3.68,9.61L1.66,9.61C1.89,11.64 2.8,13.53 4.24,14.97C5.69,16.41 7.58,17.32 9.61,17.55L9.61,21.61L11.61,21.61L11.61,17.55Z " /><path id="路径 2" fill-rule="evenodd" style="fill:#000000" transform="translate(7.640000000000001 9.44832142869656)  rotate(0 1.259995 1.2599999999999998)" opacity="1" d="M0.85,1.67C1.3,2.13 1.89,2.42 2.52,2.52L0,0C0.1,0.63 0.39,1.22 0.85,1.67Z " /><path id="路径 3" fill-rule="evenodd" style="fill:#000000" transform="translate(16.53899 10.00132142869656)  rotate(0 1.5065000000000008 2.08)" opacity="1" d="M3.01,0L1,0C0.86,0.99 0.51,1.91 0,2.72L1.44,4.16C2.31,2.93 2.85,1.5 3.01,0Z " /><path id="路径 4" fill-rule="evenodd" style="fill:#000000" transform="translate(6.292999999999999 0)  rotate(0 4.656997931855349 5.62616071434828)" opacity="1" d="M4.84,2.04C5.53,2.17 6.16,2.53 6.61,3.07C7.07,3.61 7.31,4.3 7.31,5L7.31,9C7.31,9.24 7.28,9.48 7.23,9.7L8.78,11.25L8.78,11.25C9.13,10.55 9.32,9.78 9.31,9L9.31,5C9.31,3.9 8.95,2.84 8.29,1.96C7.62,1.09 6.68,0.46 5.62,0.17C4.56,-0.11 3.44,-0.04 2.42,0.37C1.41,0.79 0.56,1.52 0,2.47L1.5,3.97C1.74,3.31 2.21,2.75 2.82,2.4C3.43,2.05 4.14,1.92 4.84,2.04Z " /></g></g></g></svg>