<svg width="24" height="24" fill="none" xmlns="http://www.w3.org/2000/svg"><mask id="a" style="mask-type:alpha" maskUnits="userSpaceOnUse" x="0" y="0" width="24" height="24"><path d="M24 0H0v24h24V0Z" fill="#fff"/></mask><g mask="url(#a)" fill-rule="evenodd" clip-rule="evenodd" fill="currentColor"><path d="M17 6c0-.66-.13-1.31-.38-1.91-.25-.61-.62-1.16-1.08-1.63-.47-.46-1.02-.83-1.63-1.08C13.31 1.13 12.66 1 12 1c-1.33 0-2.6.53-3.54 1.46C7.53 3.4 7 4.67 7 6v4c0 1.33.53 2.6 1.46 3.54C9.4 14.47 10.67 15 12 15s2.6-.53 3.54-1.46C16.47 12.6 17 11.33 17 10V6Z"/><path d="M3.055 11a9.015 9.015 0 0 0 2.58 5.36 8.997 8.997 0 0 0 5.37 2.59V23h2v-4.05a9.025 9.025 0 0 0 7.94-7.95h-2.02a6.974 6.974 0 0 1-2.35 4.29 6.978 6.978 0 0 1-4.58 1.7c-1.68 0-3.3-.6-4.58-1.7A7.01 7.01 0 0 1 5.075 11h-2.02Z"/></g></svg>