<svg xmlns="http://www.w3.org/2000/svg" xmlns:xlink="http://www.w3.org/1999/xlink" viewBox="0 0 24 24" fill="none"><defs><rect id="path_0" x="0" y="0" width="24" height="24" /></defs><g opacity="1" transform="translate(0 0)  rotate(0 12 12)"><mask id="bg-mask-0" fill="white"><use xlink:href="#path_0"></use></mask><g mask="url(#bg-mask-0)" ><g opacity="1" transform="translate(1.3929399999999994 0.9970703415801907)  rotate(0 10.60698 11.001514829209905)"><path id="路径 1" fill-rule="evenodd" style="fill:#000000" transform="translate(0 0.39597965841980975)  rotate(0 10.60698 10.803525)" opacity="1" d="M1.41,0L0,1.42L5.61,7.02L5.61,8.61C5.61,9.38 5.79,10.15 6.13,10.84C6.48,11.53 6.98,12.14 7.6,12.6C8.22,13.07 8.94,13.39 9.7,13.53C10.47,13.67 11.25,13.63 12,13.41L13.55,14.96C12.56,15.42 11.47,15.64 10.38,15.6C9.29,15.57 8.23,15.28 7.27,14.76C6.31,14.24 5.49,13.5 4.86,12.61C4.24,11.71 3.83,10.69 3.68,9.61L1.66,9.61C1.89,11.64 2.8,13.53 4.24,14.97C5.69,16.41 7.58,17.32 9.61,17.55L9.61,21.61L11.61,21.61L11.61,17.55C12.81,17.42 13.98,17.04 15.03,16.45L19.8,21.21L21.21,19.8L1.41,0Z " /><path id="路径 2" fill-rule="evenodd" style="fill:#000000" transform="translate(16.53896 10.003029658419809)  rotate(0 1.5065000000000008 2.08)" opacity="1" d="M3.01,0L1,0C0.86,0.99 0.51,1.91 0,2.72L1.44,4.16C2.31,2.93 2.85,1.5 3.01,0Z " /><path id="路径 3" fill-rule="evenodd" style="fill:#000000" transform="translate(6.292 0)  rotate(0 4.657982933442971 5.627014829209904)" opacity="1" d="M8.78,11.25C9.13,10.56 9.32,9.78 9.32,9L9.31,5C9.32,3.9 8.95,2.84 8.29,1.96C7.62,1.09 6.69,0.46 5.63,0.17C4.57,-0.11 3.44,-0.04 2.42,0.37C1.41,0.79 0.55,1.53 0,2.47L8.78,11.25L8.78,11.25Z " /></g></g></g></svg>