<svg xmlns="http://www.w3.org/2000/svg" xmlns:xlink="http://www.w3.org/1999/xlink" width="24" height="24" viewBox="0 0 24 24" fill="none"><defs><rect id="path_0" x="0" y="0" width="24" height="24" /></defs><g opacity="1" transform="translate(0 0)  rotate(0 12 12)"><mask id="bg-mask-0" fill="white"><use xlink:href="#path_0"></use></mask><g mask="url(#bg-mask-0)" ><g opacity="1" transform="translate(3.0550499999999996 1)  rotate(0 8.944524999999999 11)"><path id="路径 1" fill-rule="evenodd" style="fill:#000000" transform="translate(3.945 0)  rotate(0 5.000025 7)" opacity="1" d="M10,5C10,4.34 9.87,3.69 9.62,3.09C9.37,2.48 9,1.93 8.54,1.46C8.07,1 7.52,0.63 6.91,0.38C6.31,0.13 5.66,0 5,0C3.67,0 2.4,0.53 1.46,1.46C0.53,2.4 0,3.67 0,5L0,9C0,10.33 0.53,11.6 1.46,12.54C2.4,13.47 3.67,14 5,14C6.33,14 7.6,13.47 8.54,12.54C9.47,11.6 10,10.33 10,9L10,5Z " /><path id="路径 2" fill-rule="evenodd" style="fill:#000000" transform="translate(0 10)  rotate(0 8.944524999999999 6)" opacity="1" d="M0,0C0.23,2.03 1.14,3.92 2.58,5.36C4.02,6.81 5.92,7.72 7.95,7.95L7.95,12L9.95,12L9.95,7.95C11.97,7.72 13.86,6.81 15.31,5.36C16.75,3.92 17.66,2.03 17.89,0L15.87,0C15.63,1.66 14.8,3.19 13.52,4.29C12.25,5.39 10.63,5.99 8.94,5.99C7.26,5.99 5.64,5.39 4.36,4.29C3.09,3.19 2.26,1.66 2.02,0L0,0Z " /></g></g></g></svg>