<svg xmlns="http://www.w3.org/2000/svg" xmlns:xlink="http://www.w3.org/1999/xlink" viewBox="0 0 24 24" fill="none"><defs><rect id="path_0" x="0" y="0" width="24" height="24" /></defs><g opacity="1" transform="translate(0 0)  rotate(0 12 12)"><mask id="bg-mask-0" fill="white"><use xlink:href="#path_0"></use></mask><g mask="url(#bg-mask-0)" ><path id="分组 1" fill-rule="evenodd" style="fill:#000000" transform="translate(3.05499 1)  rotate(0 8.944505 11)" opacity="1" d="M6.825 11.12C7.385 11.68 8.145 12 8.945 12C9.745 12 10.505 11.68 11.065 11.12C11.625 10.56 11.945 9.8 11.945 9L11.945 5C11.945 4.2 11.625 3.44 11.065 2.88C10.505 2.32 9.745 2 8.945 2C8.145 2 7.385 2.32 6.825 2.88C6.265 3.44 5.945 4.2 5.945 5L5.945 9C5.945 9.8 6.265 10.56 6.825 11.12Z M5.405 1.46C4.475 2.4 3.945 3.67 3.945 5L3.945 9C3.945 10.33 4.475 11.6 5.405 12.54C6.345 13.47 7.615 14 8.945 14C10.275 14 11.545 13.47 12.485 12.54C13.415 11.6 13.945 10.33 13.945 9L13.945 5C13.945 4.34 13.815 3.69 13.565 3.09C13.315 2.48 12.945 1.93 12.485 1.46C12.015 1 11.465 0.63 10.855 0.38C10.255 0.13 9.605 0 8.945 0C7.615 0 6.345 0.53 5.405 1.46Z M7.95 17.95L7.95 22L9.95 22L9.95 17.95C11.97 17.72 13.86 16.81 15.31 15.36C16.75 13.92 17.66 12.03 17.89 10L15.87 10C15.63 11.66 14.8 13.19 13.52 14.29C12.25 15.39 10.63 15.99 8.94 15.99C7.26 15.99 5.64 15.39 4.36 14.29C3.09 13.19 2.26 11.66 2.01 10L0 10C0.23 12.03 1.14 13.92 2.58 15.36C4.02 16.81 5.92 17.72 7.95 17.95Z " /></g></g></svg>