<svg xmlns="http://www.w3.org/2000/svg" xmlns:xlink="http://www.w3.org/1999/xlink" viewBox="0 0 24 24" fill="none"><defs><rect id="path_0" x="0" y="0" width="24" height="24" /></defs><g opacity="1" transform="translate(0 0)  rotate(0 12 12)"><mask id="bg-mask-0" fill="white"><use xlink:href="#path_0"></use></mask><g mask="url(#bg-mask-0)" ><path id="分组 1" fill-rule="evenodd" style="fill:#000000" transform="translate(2 2)  rotate(0 10 10)" opacity="1" d="M20 10C20 4.48 15.52 0 10 0C4.48 0 0 4.48 0 10C0 15.52 4.48 20 10 20C15.52 20 20 15.52 20 10Z M15.66 15.66C17.16 14.16 18 12.12 18 10C18 7.88 17.16 5.84 15.66 4.34C14.16 2.84 12.12 2 10 2C7.88 2 5.84 2.84 4.34 4.34C2.84 5.84 2 7.88 2 10C2 12.12 2.84 14.16 4.34 15.66C5.84 17.16 7.88 18 10 18C12.12 18 14.16 17.16 15.66 15.66Z M12.5 11.5C12.5 11.63 12.45 11.76 12.35 11.85C12.26 11.95 12.13 12 12 12L6.5 12L6.5 14L9 14L9 16L11 16L11 14L12 14C12.66 14 13.3 13.74 13.77 13.27C14.24 12.8 14.5 12.16 14.5 11.5C14.5 10.84 14.24 10.2 13.77 9.73C13.3 9.26 12.66 9 12 9L8 9C7.87 9 7.74 8.95 7.65 8.85C7.55 8.76 7.5 8.63 7.5 8.5C7.5 8.37 7.55 8.24 7.65 8.15C7.74 8.05 7.87 8 8 8L13.5 8L13.5 6L11 6L11 4L9 4L9 6L8 6C7.34 6 6.7 6.26 6.23 6.73C5.76 7.2 5.5 7.84 5.5 8.5C5.5 9.16 5.76 9.8 6.23 10.27C6.7 10.74 7.34 11 8 11L12 11C12.13 11 12.26 11.05 12.35 11.15C12.45 11.24 12.5 11.37 12.5 11.5Z " /></g></g></svg>