<svg width="24" height="24" fill="none" xmlns="http://www.w3.org/2000/svg"><mask id="a" style="mask-type:alpha" maskUnits="userSpaceOnUse" x="0" y="0" width="24" height="24"><path d="M24 0H0v24h24V0Z" fill="#fff"/></mask><g mask="url(#a)"><path fill-rule="evenodd" clip-rule="evenodd" d="M22 12c0-5.52-4.48-10-10-10S2 6.48 2 12s4.48 10 10 10 10-4.48 10-10ZM8 13.004v2h3v2h2v-2h3v-2h-3v-1h3v-2h-2.59l2.13-2.13-1.42-1.41L12 8.584l-2.12-2.12-1.42 1.42 2.13 2.12H8v2h3v1H8Z" fill="currentColor"/></g></svg>