<svg xmlns="http://www.w3.org/2000/svg" xmlns:xlink="http://www.w3.org/1999/xlink" viewBox="0 0 24 24" fill="none"><defs><rect id="path_0" x="0" y="0" width="24" height="24" /></defs><g opacity="1" transform="translate(0 0)  rotate(0 12 12)"><mask id="bg-mask-0" fill="white"><use xlink:href="#path_0"></use></mask><g mask="url(#bg-mask-0)" ><path id="分组 1" fill-rule="evenodd" style="fill:#000000" transform="translate(2 2)  rotate(0 10 10)" opacity="1" d="M20 10C20 4.48 15.52 0 10 0C4.48 0 0 4.48 0 10C0 15.52 4.48 20 10 20C15.52 20 20 15.52 20 10Z M6 11.004L6 13.004L9 13.004L9 15.004L11 15.004L11 13.004L14 13.004L14 11.004L11 11.004L11 10.004L14 10.004L14 8.004L11.41 8.004L13.54 5.874L12.12 4.464L10 6.584L7.88 4.464L6.46 5.884L8.59 8.004L6 8.004L6 10.004L9 10.004L9 11.004L6 11.004Z " /></g></g></svg>