<svg width="24" height="24" fill="none" xmlns="http://www.w3.org/2000/svg"><mask id="a" style="mask-type:alpha" maskUnits="userSpaceOnUse" x="0" y="0" width="24" height="24"><path d="M24 0H0v24h24V0Z" fill="#fff"/></mask><g mask="url(#a)"><path fill-rule="evenodd" clip-rule="evenodd" d="M22 12c0-5.52-4.48-10-10-10S2 6.48 2 12s4.48 10 10 10 10-4.48 10-10Zm-5.5 1.5c0-.66-.26-1.3-.73-1.77S14.66 11 14 11h-4a.47.47 0 0 1-.35-.15.47.47 0 0 1-.15-.35c0-.13.05-.26.15-.35.09-.1.22-.15.35-.15h5.5V8H13V6h-2v2h-1c-.66 0-1.3.26-1.77.73S7.5 9.84 7.5 10.5c0 .66.26 1.3.73 1.77S9.34 13 10 13h4c.13 0 .26.05.35.15.1.09.15.22.15.35 0 .13-.05.26-.15.35A.47.47 0 0 1 14 14H8.5v2H11v2h2v-2h1c.66 0 1.3-.26 1.77-.73s.73-1.11.73-1.77Z" fill="currentColor"/></g></svg>