<svg xmlns="http://www.w3.org/2000/svg" xmlns:xlink="http://www.w3.org/1999/xlink" viewBox="0 0 24 24" fill="none"><defs><rect id="path_0" x="0" y="0" width="24" height="24" /></defs><g opacity="1" transform="translate(0 0)  rotate(0 12 12)"><mask id="bg-mask-0" fill="white"><use xlink:href="#path_0"></use></mask><g mask="url(#bg-mask-0)" ><path id="分组 1" fill-rule="evenodd" style="fill:#000000" transform="translate(1.0045155501163485 0.9986569083020704)  rotate(0 10.99739579197453 10.000721545848965)" opacity="1" d="M16.5 20C17.61 20 18.7 19.66 19.62 19.03C20.54 18.39 21.25 17.49 21.64 16.44C22.03 15.4 22.1 14.26 21.83 13.17C21.56 12.09 20.97 11.11 20.13 10.37C20.7 9.34 21 8.18 21 7C21 6.59 20.96 6.18 20.89 5.78C20.1 6.04 19.25 6.07 18.45 5.88C17.64 5.69 16.9 5.27 16.31 4.69C15.72 4.1 15.31 3.36 15.12 2.55C14.92 1.74 14.96 0.9 15.22 0.11C13.7 -0.16 12.15 0.08 10.78 0.78C9.42 1.49 8.32 2.62 7.67 4.01C5.57 4.1 3.6 5 2.17 6.52C0.74 8.05 -0.04 10.07 0 12.17C0.04 14.26 0.91 16.25 2.4 17.71C3.89 19.18 5.9 20 8 20L16.5 20Z M13.2525 5.9654C14.2225 6.8154 14.9825 7.8954 15.4525 9.1054C16.4425 8.9154 17.4625 8.9954 18.4125 9.3454C18.6425 8.9254 18.8025 8.4554 18.9025 7.9754C17.3925 7.8354 15.9725 7.1754 14.9025 6.0954C13.8225 5.0254 13.1625 3.6054 13.0225 2.0954C11.7225 2.3554 10.5825 3.1154 9.84248 4.2154C11.1025 4.5154 12.2725 5.1154 13.2525 5.9654Z " /></g></g></svg>