<svg width="24" height="24" fill="none" xmlns="http://www.w3.org/2000/svg"><mask id="a" style="mask-type:alpha" maskUnits="userSpaceOnUse" x="0" y="0" width="24" height="24"><path d="M24 0H0v24h24V0Z" fill="#fff"/></mask><g mask="url(#a)"><path fill-rule="evenodd" clip-rule="evenodd" d="M21.98 12.619a7.478 7.478 0 0 1-5.35 2.39 7.65 7.65 0 0 1-2.95-.55c-.93-.38-1.78-.94-2.49-1.65a7.573 7.573 0 0 1-1.65-2.49 7.65 7.65 0 0 1-.55-2.95 7.478 7.478 0 0 1 2.39-5.35C6.15 2.339 2 6.689 2 11.999c0 5.52 4.48 10 10 10 5.32 0 9.66-4.15 9.98-9.38Z" fill="currentColor"/></g></svg>