<svg width="24" height="24" fill="none" xmlns="http://www.w3.org/2000/svg"><mask id="a" style="mask-type:alpha" maskUnits="userSpaceOnUse" x="0" y="0" width="24" height="24"><path d="M24 0H0v24h24V0Z" fill="#fff"/></mask><g mask="url(#a)"><path fill-rule="evenodd" clip-rule="evenodd" d="M16.225 1.109a7.031 7.031 0 0 0-4.44.67 7.001 7.001 0 0 0-3.11 3.23c-2.1.09-4.07.99-5.5 2.51a8.04 8.04 0 0 0-2.17 5.65c.04 2.09.91 4.08 2.4 5.54a7.965 7.965 0 0 0 5.6 2.29h8.5c1.11 0 2.2-.34 3.12-.97.92-.64 1.63-1.54 2.02-2.59a5.514 5.514 0 0 0-1.51-6.07 6.962 6.962 0 0 0 .76-4.59c-.79.26-1.64.29-2.44.1-.81-.19-1.55-.61-2.14-1.19-.59-.59-1-1.33-1.19-2.14-.2-.81-.16-1.65.1-2.44Zm-1.968 5.855c.97.85 1.73 1.93 2.2 3.14a5.53 5.53 0 0 1 2.96.24c.23-.42.39-.89.49-1.37-1.51-.14-2.93-.8-4-1.88a6.468 6.468 0 0 1-1.88-4c-1.3.26-2.44 1.02-3.18 2.12 1.26.3 2.43.9 3.41 1.75ZM5.67 17.99C6.65 18.65 7.81 19 9 19h8.5c.58 0 1.15-.14 1.65-.42.51-.27.95-.66 1.26-1.14.32-.48.52-1.04.57-1.61a3.51 3.51 0 0 0-.25-1.69 3.542 3.542 0 0 0-2.57-2.08c-.57-.11-1.16-.07-1.71.1s-1.05.48-1.45.89V13c0-1.19-.35-2.35-1.01-3.33-.66-.99-1.6-1.76-2.69-2.21a5.9 5.9 0 0 0-3.47-.34 5.992 5.992 0 0 0-4.71 4.71 5.9 5.9 0 0 0 .34 3.47 5.983 5.983 0 0 0 2.21 2.69Z" fill="currentColor"/></g></svg>