<svg xmlns="http://www.w3.org/2000/svg" xmlns:xlink="http://www.w3.org/1999/xlink" width="24" height="24" viewBox="0 0 24 24" fill="none"><defs><rect id="path_0" x="0" y="0" width="24" height="24" /></defs><g opacity="1" transform="translate(0 0)  rotate(0 12 12)"><mask id="bg-mask-0" fill="white"><use xlink:href="#path_0"></use></mask><g mask="url(#bg-mask-0)" ><path id="分组 1" fill-rule="evenodd" style="fill:#000000" transform="translate(2 2)  rotate(0 10 10)" opacity="1" d="M12.35 11.48C11.07 10.96 9.96 10.06 9.19 8.9C8.41 7.75 8 6.39 8 5C8 4.07 8.18 3.15 8.54 2.29C8.91 1.43 9.43 0.65 10.1 0L10 0C4.48 0 0 4.48 0 10C0 15.52 4.48 20 10 20C15.52 20 20 15.52 20 10L20 9.9C19.03 10.89 17.78 11.57 16.42 11.86C15.06 12.14 13.64 12.01 12.35 11.48Z M17.06 13.758C15.57 14.118 14.01 14.078 12.54 13.658C11.06 13.238 9.72 12.448 8.63 11.368C7.55 10.278 6.76 8.938 6.34 7.468C5.92 5.988 5.89 4.428 6.24 2.938C4.96 3.618 3.89 4.638 3.14 5.878C2.39 7.128 2 8.548 2 9.998C2 11.788 2.6 13.518 3.69 14.928C4.79 16.338 6.33 17.328 8.06 17.768C9.79 18.198 11.62 18.038 13.25 17.318C14.88 16.588 16.22 15.338 17.06 13.758Z " /></g></g></svg>