<svg xmlns="http://www.w3.org/2000/svg" xmlns:xlink="http://www.w3.org/1999/xlink" viewBox="0 0 24 24" fill="none"><defs><rect id="path_0" x="0" y="0" width="24" height="24" /></defs><g opacity="1" transform="translate(0 0)  rotate(0 12 12)"><mask id="bg-mask-0" fill="white"><use xlink:href="#path_0"></use></mask><g mask="url(#bg-mask-0)" ><path id="分组 1" fill-rule="evenodd" style="fill:#000000" transform="translate(1.0045756250511744 0.9986569083020704)  rotate(0 10.997405099584777 10.000721545848965)" opacity="1" d="M15.22 0.11C13.7 -0.16 12.15 0.08 10.78 0.78C9.42 1.49 8.32 2.62 7.67 4.01C5.57 4.1 3.6 5 2.17 6.52C0.74 8.05 -0.04 10.07 0 12.17C0.04 14.26 0.91 16.25 2.4 17.71C3.89 19.18 5.9 20 8 20L16.5 20C17.61 20 18.7 19.66 19.62 19.03C20.54 18.39 21.25 17.49 21.64 16.44C22.03 15.4 22.1 14.26 21.83 13.17C21.56 12.09 20.97 11.11 20.13 10.37C20.7 9.34 21 8.18 21 7C21 6.59 20.96 6.18 20.89 5.78C20.1 6.04 19.25 6.07 18.45 5.88C17.64 5.69 16.9 5.27 16.31 4.69C15.72 4.1 15.31 3.36 15.12 2.55C14.92 1.74 14.96 0.9 15.22 0.11Z M13.2524 5.9654C14.2224 6.8154 14.9824 7.8954 15.4524 9.1054C16.4424 8.9154 17.4624 8.9954 18.4124 9.3454C18.6424 8.9254 18.8024 8.4554 18.9024 7.9754C17.3924 7.8354 15.9724 7.1754 14.9024 6.0954C13.8224 5.0254 13.1624 3.6054 13.0224 2.0954C11.7224 2.3554 10.5824 3.1154 9.84242 4.2154C11.1024 4.5154 12.2724 5.1154 13.2524 5.9654Z M4.66544 16.9914C5.64544 17.6514 6.80544 18.0014 7.99544 18.0014L16.4954 18.0014C17.0754 18.0014 17.6454 17.8614 18.1454 17.5814C18.6554 17.3114 19.0954 16.9214 19.4054 16.4414C19.7254 15.9614 19.9254 15.4014 19.9754 14.8314C20.0354 14.2614 19.9454 13.6814 19.7254 13.1414C19.4954 12.6114 19.1454 12.1414 18.6954 11.7814C18.2454 11.4214 17.7154 11.1714 17.1554 11.0614C16.5854 10.9514 15.9954 10.9914 15.4454 11.1614C14.8954 11.3314 14.3954 11.6414 13.9954 12.0514L13.9954 12.0014C13.9954 10.8114 13.6454 9.6514 12.9854 8.6714C12.3254 7.6814 11.3854 6.9114 10.2954 6.4614C9.19544 6.0014 7.98544 5.8814 6.82544 6.1214C5.66544 6.3514 4.59544 6.9214 3.75544 7.7614C2.91544 8.6014 2.34544 9.6714 2.11544 10.8314C1.87544 11.9914 1.99544 13.2014 2.45544 14.3014C2.90544 15.3914 3.67544 16.3314 4.66544 16.9914Z " /></g></g></svg>