<svg width="24" height="24" fill="none" xmlns="http://www.w3.org/2000/svg"><mask id="a" style="mask-type:alpha" maskUnits="userSpaceOnUse" x="0" y="0" width="24" height="24"><path d="M24 0H0v24h24V0Z" fill="#fff"/></mask><g mask="url(#a)"><path fill-rule="evenodd" clip-rule="evenodd" d="M14.35 13.48a6.933 6.933 0 0 1-3.16-2.58A6.944 6.944 0 0 1 10 7c0-.93.18-1.85.54-2.71.37-.86.89-1.64 1.56-2.29H12C6.48 2 2 6.48 2 12s4.48 10 10 10 10-4.48 10-10v-.1a7.08 7.08 0 0 1-3.58 1.96c-1.36.28-2.78.15-4.07-.38Zm4.71 2.278c-1.49.36-3.05.32-4.52-.1a9.071 9.071 0 0 1-3.91-2.29 9.096 9.096 0 0 1-2.29-3.9 9.032 9.032 0 0 1-.1-4.53c-1.28.68-2.35 1.7-3.1 2.94A7.993 7.993 0 0 0 4 11.998c0 1.79.6 3.52 1.69 4.93 1.1 1.41 2.64 2.4 4.37 2.84 1.73.43 3.56.27 5.19-.45a8.028 8.028 0 0 0 3.81-3.56Z" fill="currentColor"/></g></svg>