<svg xmlns="http://www.w3.org/2000/svg" xmlns:xlink="http://www.w3.org/1999/xlink" viewBox="0 0 24 24" fill="none"><defs><rect id="path_0" x="0" y="0" width="24" height="24" /></defs><g opacity="1" transform="translate(0 0)  rotate(0 12 12)"><mask id="bg-mask-0" fill="white"><use xlink:href="#path_0"></use></mask><g mask="url(#bg-mask-0)" ><path id="路径 1" fill-rule="evenodd" style="fill:#000000" transform="translate(2 2.0190400000000004)  rotate(0 9.99 9.99048)" opacity="1" d="M19.98,10.6C19.29,11.34 18.47,11.93 17.55,12.34C16.63,12.75 15.63,12.97 14.63,12.99C13.62,13 12.62,12.82 11.68,12.44C10.75,12.06 9.9,11.5 9.19,10.79C8.48,10.08 7.92,9.23 7.54,8.3C7.16,7.36 6.98,6.36 6.99,5.35C7.01,4.35 7.23,3.35 7.64,2.43C8.05,1.51 8.64,0.69 9.38,0C4.15,0.32 0,4.67 0,9.98C0,15.5 4.48,19.98 10,19.98C15.32,19.98 19.66,15.83 19.98,10.6Z " /></g></g></svg>