<svg xmlns="http://www.w3.org/2000/svg" xmlns:xlink="http://www.w3.org/1999/xlink" viewBox="0 0 24 24" fill="none"><defs><rect id="path_0" x="0" y="0" width="24" height="24" /></defs><g opacity="1" transform="translate(0 0)  rotate(0 12 12)"><mask id="bg-mask-0" fill="white"><use xlink:href="#path_0"></use></mask><g mask="url(#bg-mask-0)" ><path id="分组 1" fill-rule="evenodd" style="fill:#000000" transform="translate(3 10)  rotate(0 9 2)" opacity="1" d="M0 2C0 3.1 0.9 4 2 4C3.1 4 4 3.1 4 2C4 0.9 3.1 0 2 0C0.9 0 0 0.9 0 2Z M14 2C14 3.1 14.9 4 16 4C17.1 4 18 3.1 18 2C18 0.9 17.1 0 16 0C14.9 0 14 0.9 14 2Z M7 2C7 3.1 7.9 4 9 4C10.1 4 11 3.1 11 2C11 0.9 10.1 0 9 0C7.9 0 7 0.9 7 2Z " /></g></g></svg>