<svg xmlns="http://www.w3.org/2000/svg" xmlns:xlink="http://www.w3.org/1999/xlink" viewBox="0 0 24 24" fill="none"><defs><rect id="path_0" x="0" y="0" width="24" height="24" /></defs><g opacity="1" transform="translate(0 0)  rotate(0 12 12)"><mask id="bg-mask-0" fill="white"><use xlink:href="#path_0"></use></mask><g mask="url(#bg-mask-0)" ><path id="分组 1" fill-rule="evenodd" style="fill:#000000" transform="translate(10 3)  rotate(0 2 9)" opacity="1" d="M0 2C0 3.1 0.9 4 2 4C3.1 4 4 3.1 4 2C4 0.9 3.1 0 2 0C0.9 0 0 0.9 0 2Z M0 16C0 17.1 0.9 18 2 18C3.1 18 4 17.1 4 16C4 14.9 3.1 14 2 14C0.9 14 0 14.9 0 16Z M0 9C0 10.1 0.9 11 2 11C3.1 11 4 10.1 4 9C4 7.9 3.1 7 2 7C0.9 7 0 7.9 0 9Z " /></g></g></svg>