<svg xmlns="http://www.w3.org/2000/svg" xmlns:xlink="http://www.w3.org/1999/xlink" width="24" height="24" viewBox="0 0 24 24" fill="none"><defs><rect id="path_0" x="0" y="0" width="24" height="24" /></defs><g opacity="1" transform="translate(0 0)  rotate(0 12 12)"><mask id="bg-mask-0" fill="white"><use xlink:href="#path_0"></use></mask><g mask="url(#bg-mask-0)" ><path id="路径 1" fill-rule="evenodd" style="fill:#000000" transform="translate(1.000000463249453 3)  rotate(0 9.499999768375273 8.999552191138777)" opacity="1" d="M14.48,10.03C13.6,10.15 12.79,10.55 12.17,11.17C11.55,11.79 11.15,12.6 11.03,13.48C10.92,14.35 11.1,15.24 11.54,16C11.98,16.76 12.66,17.36 13.47,17.69C14.28,18.03 15.18,18.09 16.03,17.86C16.89,17.64 17.64,17.13 18.17,16.43C18.71,15.74 19,14.88 19,14L19,0L6,0L6,10.54C5.24,10.09 4.35,9.92 3.48,10.03C2.61,10.15 1.79,10.55 1.17,11.17C0.55,11.79 0.15,12.6 0.03,13.48C-0.08,14.35 0.1,15.24 0.54,16C0.98,16.76 1.66,17.36 2.47,17.69C3.28,18.03 4.18,18.09 5.03,17.86C5.89,17.64 6.64,17.13 7.17,16.43C7.71,15.74 8,14.88 8,14L8,3L17,3L17,10.54C16.24,10.09 15.35,9.92 14.48,10.03Z " /></g></g></svg>