<svg width="24" height="24" fill="none" xmlns="http://www.w3.org/2000/svg"><mask id="a" style="mask-type:alpha" maskUnits="userSpaceOnUse" x="0" y="0" width="24" height="24"><path d="M24 0H0v24h24V0Z" fill="#fff"/></mask><g mask="url(#a)"><path fill-rule="evenodd" clip-rule="evenodd" d="M15.48 13.03c-.88.12-1.69.52-2.31 1.14-.62.62-1.02 1.43-1.14 2.31-.11.87.07 1.76.51 2.52s1.12 1.36 1.93 1.69c.81.34 1.71.4 2.56.17a3.9 3.9 0 0 0 2.14-1.43c.54-.69.83-1.55.83-2.43V3H7v10.54c-.76-.45-1.65-.62-2.52-.51-.87.12-1.69.52-2.31 1.14-.62.62-1.02 1.43-1.14 2.31-.11.87.07 1.76.51 2.52s1.12 1.36 1.93 1.69c.81.34 1.71.4 2.56.17a3.9 3.9 0 0 0 2.14-1.43c.54-.69.83-1.55.83-2.43V6h9v7.54c-.76-.45-1.65-.62-2.52-.51Z" fill="currentColor"/></g></svg>