<svg width="24" height="24" fill="none" xmlns="http://www.w3.org/2000/svg"><mask id="a" style="mask-type:alpha" maskUnits="userSpaceOnUse" x="0" y="0" width="24" height="24"><path d="M24 0H0v24h24V0Z" fill="#fff"/></mask><g mask="url(#a)"><path fill-rule="evenodd" clip-rule="evenodd" d="M20 3H7v10.54c-.76-.45-1.65-.62-2.52-.51-.87.12-1.69.52-2.31 1.14-.62.62-1.02 1.43-1.14 2.31-.11.87.07 1.76.51 2.52s1.12 1.36 1.93 1.69c.81.34 1.71.4 2.56.17a3.9 3.9 0 0 0 2.14-1.43c.54-.69.83-1.55.83-2.43V5h9v8.54c-.76-.45-1.65-.62-2.52-.51-.88.12-1.69.52-2.31 1.14-.62.62-1.02 1.43-1.14 2.31-.11.87.07 1.76.51 2.52s1.12 1.36 1.93 1.69c.81.34 1.71.4 2.56.17a3.9 3.9 0 0 0 2.14-1.43c.54-.69.83-1.55.83-2.43V3ZM6.41 18.41c.38-.37.59-.88.59-1.41 0-.53-.21-1.04-.59-1.41C6.04 15.21 5.53 15 5 15c-.53 0-1.04.21-1.41.59-.38.37-.59.88-.59 1.41 0 .53.21 1.04.59 1.41.37.38.88.59 1.41.59.53 0 1.04-.21 1.41-.59Zm11 0c.38-.37.59-.88.59-1.41 0-.53-.21-1.04-.59-1.41-.37-.38-.88-.59-1.41-.59-.53 0-1.04.21-1.41.59-.38.37-.59.88-.59 1.41 0 .53.21 1.04.59 1.41.37.38.88.59 1.41.59.53 0 1.04-.21 1.41-.59Z" fill="currentColor"/></g></svg>