<svg width="24" height="24" fill="none" xmlns="http://www.w3.org/2000/svg"><mask id="a" style="mask-type:alpha" maskUnits="userSpaceOnUse" x="0" y="0" width="24" height="24"><path d="M24 0H0v24h24V0Z" fill="#fff"/></mask><g mask="url(#a)"><path fill-rule="evenodd" clip-rule="evenodd" d="M2.63 2.284c-.09.02-.17.07-.24.13-.06.06-.11.14-.13.23-.03.09-.03.18 0 .27l5.39 18.85c.02.1.08.18.16.25.08.06.17.1.27.11a.492.492 0 0 0 .49-.27l4.43-8.85 8.73-3.5c.1-.04.18-.1.23-.19.06-.08.09-.18.09-.29-.01-.1-.04-.2-.1-.28a.577.577 0 0 0-.25-.18L2.9 2.304a.5.5 0 0 0-.27-.02Z" fill="currentColor"/></g></svg>