<svg xmlns="http://www.w3.org/2000/svg" xmlns:xlink="http://www.w3.org/1999/xlink" width="24" height="24" viewBox="0 0 24 24" fill="none"><defs><rect id="path_0" x="0" y="0" width="24" height="24" /></defs><g opacity="1" transform="translate(0 0)  rotate(0 12 12)"><mask id="bg-mask-0" fill="white"><use xlink:href="#path_0"></use></mask><g mask="url(#bg-mask-0)" ><path id="路径 1" fill-rule="evenodd" style="fill:#000000" transform="translate(2.2408472130564654 2.274048558790385)  rotate(0 9.903390661417891 9.926243955354737)" opacity="1" d="M0.39,0.01C0.3,0.03 0.22,0.08 0.15,0.14C0.09,0.2 0.04,0.28 0.02,0.37C-0.01,0.46 -0.01,0.55 0.02,0.64L5.41,19.49C5.43,19.59 5.49,19.67 5.57,19.74C5.65,19.8 5.74,19.84 5.84,19.85C5.94,19.86 6.04,19.84 6.13,19.79C6.22,19.74 6.29,19.67 6.33,19.58L10.76,10.73L19.49,7.23C19.59,7.19 19.67,7.13 19.72,7.04C19.78,6.96 19.81,6.86 19.81,6.75C19.8,6.65 19.77,6.55 19.71,6.47C19.65,6.39 19.56,6.33 19.46,6.29L0.66,0.03C0.57,0 0.48,-0.01 0.39,0.01Z " /></g></g></svg>