<svg xmlns="http://www.w3.org/2000/svg" xmlns:xlink="http://www.w3.org/1999/xlink" viewBox="0 0 24 24" fill="none"><g opacity="1" transform="translate(0 0)  rotate(0 12 12)"><path id="分组 1" fill-rule="evenodd" style="fill:#000000" transform="translate(3 2)  rotate(0 9 10)" opacity="1" d="M2 18L16 18L16 6L2 6L2 18Z M16 4L16 2L2 2L2 4L16 4Z M18 19L18 1C18 0.45 17.55 0 17 0L1 0C0.45 0 0 0.45 0 1L0 19C0 19.55 0.45 20 1 20L17 20C17.55 20 18 19.55 18 19Z M4 12L8 12L8 8L4 8L4 12Z M4 16L14 16L14 14L4 14L4 16Z M10 11L14 11L14 9L10 9L10 11Z " /></g></svg>