<svg xmlns="http://www.w3.org/2000/svg" xmlns:xlink="http://www.w3.org/1999/xlink" viewBox="0 0 24 24" fill="none"><g opacity="1" transform="translate(0 0)  rotate(0 12 12)"><path id="分组 1" fill-rule="evenodd" style="fill:#000000" transform="translate(3 2)  rotate(0 9 10)" opacity="1" d="M18 19L18 6L0 6L0 19C0 19.55 0.45 20 1 20L17 20C17.55 20 18 19.55 18 19Z M18 1C18 0.45 17.55 0 17 0L1 0C0.45 0 0 0.45 0 1L0 4L18 4L18 1Z M4 13L8 13L8 9L4 9L4 13Z M4 17L14 17L14 15L4 15L4 17Z M10 12L14 12L14 10L10 10L10 12Z " /></g></svg>