<svg xmlns="http://www.w3.org/2000/svg" xmlns:xlink="http://www.w3.org/1999/xlink" width="24" height="24" viewBox="0 0 24 24" fill="none"><defs><rect id="path_0" x="0" y="0" width="24" height="24" /></defs><g opacity="1" transform="translate(0 0)  rotate(0 12 12)"><mask id="bg-mask-0" fill="white"><use xlink:href="#path_0"></use></mask><g mask="url(#bg-mask-0)" ><g opacity="1" transform="translate(1.3929399999999994 1.3929399999999994)  rotate(0 10.60698 11.05348)"><path id="路径 1" fill-rule="evenodd" style="fill:#000000" transform="translate(0 0)  rotate(0 10.60698 10.60698)" opacity="1" d="M19.8,21.21L21.21,19.8L1.41,0L0,1.41L3.51,4.92C2.93,6.02 2.61,7.28 2.61,8.61L2.61,17.27L2.21,17.81C2.15,17.88 2.12,17.97 2.11,18.06C2.1,18.15 2.12,18.25 2.16,18.33C2.2,18.41 2.27,18.48 2.34,18.53C2.42,18.58 2.51,18.61 2.61,18.61L17.19,18.61L19.8,21.21Z " /><path id="路径 2" fill-rule="evenodd" style="fill:#000000" transform="translate(6.1659999999999995 0.6061393984711323)  rotate(0 6.220480038139172 6.893410300764434)" opacity="1" d="M12.44,8C12.44,6.55 12.05,5.13 11.3,3.89C10.56,2.65 9.49,1.63 8.21,0.95C6.94,0.26 5.5,-0.06 4.05,0.01C2.61,0.08 1.2,0.54 0,1.35L12.44,13.79L12.44,8Z " /><path id="路径 3" fill-rule="evenodd" style="fill:#000000" transform="translate(8.107000000000001 19.60696)  rotate(0 2.49998 1.25)" opacity="1" d="M0.73,1.77C1.2,2.24 1.84,2.5 2.5,2.5C3.16,2.5 3.8,2.24 4.27,1.77C4.74,1.3 5,0.66 5,0L0,0C0,0.66 0.26,1.3 0.73,1.77Z " /></g></g></g></svg>