<svg xmlns="http://www.w3.org/2000/svg" xmlns:xlink="http://www.w3.org/1999/xlink" width="24" height="24" viewBox="0 0 24 24" fill="none"><defs><rect id="path_0" x="0" y="0" width="24" height="24" /></defs><g opacity="1" transform="translate(0 0)  rotate(0 12 12)"><mask id="bg-mask-0" fill="white"><use xlink:href="#path_0"></use></mask><g mask="url(#bg-mask-0)" ><path id="分组 1" fill-rule="evenodd" style="fill:#000000" transform="translate(1.3930100000000003 1.3929399999999994)  rotate(0 10.606995 11.05348)" opacity="1" d="M2.34 18.53C2.42 18.58 2.51 18.61 2.61 18.61L17.19 18.61L19.8 21.21L21.21 19.8L1.41 0L0 1.41L3.51 4.92C2.93 6.02 2.61 7.28 2.61 8.61L2.61 17.27L2.21 17.81C2.15 17.88 2.12 17.97 2.11 18.06C2.1 18.15 2.12 18.25 2.16 18.33C2.2 18.41 2.27 18.48 2.34 18.53Z M4.607 8.609L4.607 16.609L15.197 16.609L5.017 6.429C4.747 7.119 4.607 7.859 4.607 8.609Z M14.377 1.55681C13.107 0.866805 11.667 0.546805 10.217 0.616805C8.777 0.686805 7.367 1.14681 6.167 1.95681L7.617 3.40681C8.527 2.87681 9.567 2.60681 10.617 2.60681C11.667 2.60681 12.697 2.88681 13.617 3.41681C14.527 3.93681 15.277 4.69681 15.807 5.60681C16.327 6.51681 16.607 7.55681 16.607 8.6068L16.607 12.3968L18.607 14.3968L18.607 8.6068C18.607 7.15681 18.217 5.73681 17.467 4.49681C16.727 3.25681 15.657 2.23681 14.377 1.55681Z M8.837 21.377C9.307 21.847 9.947 22.107 10.607 22.107C11.267 22.107 11.907 21.847 12.377 21.377C12.847 20.907 13.107 20.267 13.107 19.607L8.107 19.607C8.107 20.267 8.367 20.907 8.837 21.377Z " /></g></g></svg>