<svg width="24" height="24" fill="none" xmlns="http://www.w3.org/2000/svg"><mask id="a" style="mask-type:alpha" maskUnits="userSpaceOnUse" x="0" y="0" width="24" height="24"><path d="M24 0H0v24h24V0Z" fill="#fff"/></mask><g mask="url(#a)" fill-rule="evenodd" clip-rule="evenodd" fill="currentColor"><path d="m21.193 22.603 1.41-1.41-19.8-19.8-1.41 1.41 3.51 3.51c-.58 1.1-.9 2.36-.9 3.69v8.66l-.4.54c-.06.07-.09.16-.1.25-.01.09.01.19.05.27a.503.503 0 0 0 .45.28h14.58l2.61 2.6ZM19.999 10c0-1.45-.39-2.87-1.14-4.11a7.94 7.94 0 0 0-3.09-2.94 7.91 7.91 0 0 0-4.16-.94c-1.44.07-2.85.53-4.05 1.34l12.44 12.44V10ZM10.23 22.77c.47.47 1.11.73 1.77.73.66 0 1.3-.26 1.77-.73s.73-1.11.73-1.77h-5c0 .66.26 1.3.73 1.77Z"/></g></svg>