<svg width="24" height="24" fill="none" xmlns="http://www.w3.org/2000/svg"><mask id="a" style="mask-type:alpha" maskUnits="userSpaceOnUse" x="0" y="0" width="24" height="24"><path d="M24 0H0v24h24V0Z" fill="#fff"/></mask><g mask="url(#a)" fill-rule="evenodd" clip-rule="evenodd" fill="currentColor"><path d="M3.74 19.93c.08.04.17.07.26.07h16c.09 0 .18-.03.26-.07.08-.05.15-.12.19-.21.04-.08.06-.17.05-.26a.46.46 0 0 0-.1-.26l-.4-.53V10c0-2.12-.84-4.16-2.34-5.66A8.008 8.008 0 0 0 12 2c-2.12 0-4.16.84-5.66 2.34A8.008 8.008 0 0 0 4 10v8.67l-.4.53a.46.46 0 0 0-.1.26c-.01.09.01.18.05.26.04.09.11.16.19.21ZM10.23 22.77c.47.47 1.11.73 1.77.73.66 0 1.3-.26 1.77-.73s.73-1.11.73-1.77h-5c0 .66.26 1.3.73 1.77Z"/></g></svg>