<svg xmlns="http://www.w3.org/2000/svg" xmlns:xlink="http://www.w3.org/1999/xlink" width="24" height="24" viewBox="0 0 24 24" fill="none"><defs><rect id="path_0" x="0" y="0" width="24" height="24" /></defs><g opacity="1" transform="translate(0 0)  rotate(0 12 12)"><mask id="bg-mask-0" fill="white"><use xlink:href="#path_0"></use></mask><g mask="url(#bg-mask-0)" ><path id="分组 1" fill-rule="evenodd" style="fill:#000000" transform="translate(3.4999991167376265 2)  rotate(0 8.500002036188194 10.75)" opacity="1" d="M12.74 3.76C11.62 2.63 10.09 2 8.5 2C6.91 2 5.38 2.63 4.26 3.76C3.13 4.88 2.5 6.41 2.5 8L2.5 16L14.5 16L14.5 8C14.5 6.41 13.87 4.88 12.74 3.76Z M0.5 18L16.5 18C16.59 18 16.68 17.97 16.76 17.93C16.84 17.88 16.91 17.81 16.95 17.72C16.99 17.64 17.01 17.55 17 17.46C16.99 17.36 16.96 17.27 16.9 17.2L16.5 16.67L16.5 8C16.5 5.88 15.66 3.84 14.16 2.34C12.66 0.84 10.62 0 8.5 0C6.38 0 4.34 0.84 2.84 2.34C1.34 3.84 0.5 5.88 0.5 8L0.5 16.67L0.1 17.2C0.04 17.27 0.01 17.36 0 17.46C-0.01 17.55 0.01 17.64 0.05 17.72C0.09 17.81 0.16 17.88 0.24 17.93C0.32 17.97 0.41 18 0.5 18Z M6.73 20.77C7.2 21.24 7.84 21.5 8.5 21.5C9.16 21.5 9.8 21.24 10.27 20.77C10.74 20.3 11 19.66 11 19L6 19C6 19.66 6.26 20.3 6.73 20.77Z " /></g></g></svg>