<svg xmlns="http://www.w3.org/2000/svg" xmlns:xlink="http://www.w3.org/1999/xlink" viewBox="0 0 24 24" fill="none"><defs><rect id="path_0" x="0" y="0" width="24" height="24" /></defs><g opacity="1" transform="translate(0 0)  rotate(0 12 12)"><mask id="bg-mask-0" fill="white"><use xlink:href="#path_0"></use></mask><g mask="url(#bg-mask-0)" ><g opacity="1" transform="translate(3.4999991167376265 2)  rotate(0 8.500002036188194 10.75)"><path id="路径 1" fill-rule="evenodd" style="fill:#000000" transform="translate(0 0)  rotate(0 8.500002036188194 9)" opacity="1" d="M0.24,17.93C0.32,17.97 0.41,18 0.5,18L16.5,18C16.59,18 16.68,17.97 16.76,17.93C16.84,17.88 16.91,17.81 16.95,17.72C16.99,17.64 17.01,17.55 17,17.46C16.99,17.36 16.96,17.27 16.9,17.2L16.5,16.67L16.5,8C16.5,5.88 15.66,3.84 14.16,2.34C12.66,0.84 10.62,0 8.5,0C6.38,0 4.34,0.84 2.84,2.34C1.34,3.84 0.5,5.88 0.5,8L0.5,16.67L0.1,17.2C0.04,17.27 0.01,17.36 0,17.46C-0.01,17.55 0.01,17.64 0.05,17.72C0.09,17.81 0.16,17.88 0.24,17.93Z " /><path id="路径 2" fill-rule="evenodd" style="fill:#000000" transform="translate(6.0000008832623735 19)  rotate(0 2.5 1.25)" opacity="1" d="M0.73,1.77C1.2,2.24 1.84,2.5 2.5,2.5C3.16,2.5 3.8,2.24 4.27,1.77C4.74,1.3 5,0.66 5,0L0,0C0,0.66 0.26,1.3 0.73,1.77Z " /></g></g></g></svg>