<svg xmlns="http://www.w3.org/2000/svg" xmlns:xlink="http://www.w3.org/1999/xlink" viewBox="0 0 24 24" fill="none"><defs><rect id="path_0" x="0" y="0" width="24" height="24" /></defs><g opacity="1" transform="translate(0 0)  rotate(0 12 12)"><mask id="bg-mask-0" fill="white"><use xlink:href="#path_0"></use></mask><g mask="url(#bg-mask-0)" ><g opacity="1" transform="translate(2 1.5671375845817135)  rotate(0 10.059886758644545 9.216431207709144)"><path id="路径 1" fill-rule="evenodd" style="fill:#000000" transform="translate(0 0)  rotate(0 10.059886758644545 2.2164065106782602)" opacity="1" d="M19.91,4.34C19.99,4.28 20.05,4.2 20.09,4.1C20.12,4.01 20.13,3.9 20.1,3.8C20.08,3.7 20.02,3.61 19.94,3.55L15.82,0.12C15.75,0.05 15.66,0.02 15.56,0C15.47,-0.01 15.37,0.01 15.29,0.05C15.2,0.09 15.13,0.15 15.08,0.23C15.03,0.31 15,0.41 15,0.5L15,2.43L0,2.43L0,4.43L19.62,4.43C19.72,4.43 19.82,4.4 19.91,4.34Z " /><path id="路径 2" fill-rule="evenodd" style="fill:#000000" transform="translate(0 16.43286241541829)  rotate(0 10 1)" opacity="1" d="M0,2L20,2L20,0L0,0L0,2Z " /><path id="路径 3" fill-rule="evenodd" style="fill:#000000" transform="translate(0 9.432862415418288)  rotate(0 10 1)" opacity="1" d="M0,2L20,2L20,0L0,0L0,2Z " /></g></g></g></svg>