<svg width="24" height="24" fill="none" xmlns="http://www.w3.org/2000/svg"><mask id="a" style="mask-type:alpha" maskUnits="userSpaceOnUse" x="0" y="0" width="24" height="24"><path d="M24 0H0v24h24V0Z" fill="#fff"/></mask><g mask="url(#a)" fill-rule="evenodd" clip-rule="evenodd" fill="currentColor"><path d="M21.91 5.907c.08-.06.14-.14.18-.24.03-.09.04-.2.01-.3a.42.42 0 0 0-.16-.25l-4.12-3.43a.482.482 0 0 0-.26-.12.503.503 0 0 0-.27.05c-.09.04-.16.1-.21.18a.53.53 0 0 0-.08.27v1.93H2v2h19.62c.1 0 .2-.03.29-.09ZM2 20h20v-2H2v2ZM2 13h20v-2H2v2Z"/></g></svg>