<svg xmlns="http://www.w3.org/2000/svg" xmlns:xlink="http://www.w3.org/1999/xlink" width="24" height="24" viewBox="0 0 24 24" fill="none"><g opacity="1" transform="translate(0 0)  rotate(0 12 12)"><path id="分组 1" fill-rule="evenodd" style="fill:#000000" transform="translate(2 2)  rotate(0 10 10)" opacity="1" d="M10 0C4.48 0 0 4.48 0 10C0 15.52 4.48 20 10 20C10.9 20 11.67 19.26 11.67 18.33C11.67 17.9 11.5 17.51 11.23 17.21C10.98 16.92 10.81 16.53 10.81 16.11C10.81 15.19 11.56 14.44 12.48 14.44L14.44 14.44C17.51 14.44 20 11.96 20 8.89C20 3.98 15.52 0 10 0Z M9.88258 13.52C10.5726 12.83 11.5026 12.44 12.4826 12.44L14.4426 12.44C16.4026 12.44 18.0026 10.85 18.0026 8.89C18.0026 5.14 14.4726 2 10.0026 2C5.71258 2 2.18258 5.38 2.00258 9.66C1.82258 13.95 5.05258 17.61 9.32258 17.97C8.99258 17.41 8.81258 16.77 8.81258 16.11L8.81258 16.11C8.81258 15.14 9.19258 14.21 9.88258 13.52Z M7 8.5C7 7.67 6.33 7 5.5 7C4.67 7 4 7.67 4 8.5C4 9.33 4.67 10 5.5 10C6.33 10 7 9.33 7 8.5Z M16 8.5C16 7.67 15.33 7 14.5 7C13.67 7 13 7.67 13 8.5C13 9.33 13.67 10 14.5 10C15.33 10 16 9.33 16 8.5Z M11.5 5.5C11.5 4.67 10.83 4 10 4C9.17 4 8.5 4.67 8.5 5.5C8.5 6.33 9.17 7 10 7C10.83 7 11.5 6.33 11.5 5.5Z " /></g></svg>