<svg xmlns="http://www.w3.org/2000/svg" xmlns:xlink="http://www.w3.org/1999/xlink" viewBox="0 0 24 24" fill="none"><g opacity="1" transform="translate(0 0)  rotate(0 12 12)"><path id="分组 1" fill-rule="evenodd" style="fill:#000000" transform="translate(2 2)  rotate(0 10 10)" opacity="1" d="M14.44 14.44C17.51 14.44 20 11.96 20 8.89C20 3.98 15.52 0 10 0C4.48 0 0 4.48 0 10C0 15.52 4.48 20 10 20C10.9 20 11.67 19.26 11.67 18.33C11.67 17.9 11.5 17.51 11.23 17.21C10.98 16.92 10.81 16.53 10.81 16.11C10.81 15.19 11.56 14.44 12.48 14.44L14.44 14.44Z M7 8.5C7 7.67 6.33 7 5.5 7C4.67 7 4 7.67 4 8.5C4 9.33 4.67 10 5.5 10C6.33 10 7 9.33 7 8.5Z M16 8.5C16 7.67 15.33 7 14.5 7C13.67 7 13 7.67 13 8.5C13 9.33 13.67 10 14.5 10C15.33 10 16 9.33 16 8.5Z M11.5 5.5C11.5 4.67 10.83 4 10 4C9.17 4 8.5 4.67 8.5 5.5C8.5 6.33 9.17 7 10 7C10.83 7 11.5 6.33 11.5 5.5Z " /></g></svg>