<svg width="24" height="24" fill="none" xmlns="http://www.w3.org/2000/svg"><path fill-rule="evenodd" clip-rule="evenodd" d="M12 2C6.48 2 2 6.48 2 12s4.48 10 10 10c.9 0 1.67-.74 1.67-1.67 0-.43-.17-.82-.44-1.12-.25-.29-.42-.68-.42-1.1 0-.92.75-1.67 1.67-1.67h1.96c3.07 0 5.56-2.48 5.56-5.55C22 5.98 17.52 2 12 2Zm-.117 13.52a3.67 3.67 0 0 1 2.6-1.08h1.96a3.56 3.56 0 0 0 3.56-3.55c0-3.75-3.53-6.89-8-6.89a7.999 7.999 0 0 0-.68 15.97 3.662 3.662 0 0 1 .56-4.45ZM9 10.5C9 9.67 8.33 9 7.5 9S6 9.67 6 10.5 6.67 12 7.5 12 9 11.33 9 10.5Zm9 0c0-.83-.67-1.5-1.5-1.5s-1.5.67-1.5 1.5.67 1.5 1.5 1.5 1.5-.67 1.5-1.5Zm-4.5-3c0-.83-.67-1.5-1.5-1.5s-1.5.67-1.5 1.5S11.17 9 12 9s1.5-.67 1.5-1.5Z" fill="currentColor"/></svg>