<svg xmlns="http://www.w3.org/2000/svg" xmlns:xlink="http://www.w3.org/1999/xlink" width="24" height="24" viewBox="0 0 24 24" fill="none"><defs><rect id="path_0" x="0" y="0" width="24" height="24" /></defs><g opacity="1" transform="translate(0 0)  rotate(0 12 12)"><mask id="bg-mask-0" fill="white"><use xlink:href="#path_0"></use></mask><g mask="url(#bg-mask-0)" ><g opacity="1" transform="translate(2.4540100000000002 0.8940428701503365)  rotate(0 10.317861951862982 10.325978564924831)"><path id="路径 1" fill-rule="evenodd" style="fill:#000000" transform="translate(13.08199 0)  rotate(0 3.7768669518629823 3.784983564924832)" opacity="1" d="M7.38,7.23C7.45,7.17 7.5,7.09 7.53,7C7.56,6.91 7.56,6.82 7.54,6.73C7.52,6.64 7.47,6.56 7.41,6.49L1.06,0.15C0.99,0.08 0.91,0.03 0.82,0.01C0.73,-0.01 0.64,0 0.55,0.03C0.46,0.06 0.38,0.11 0.32,0.18C0.26,0.25 0.23,0.34 0.21,0.43L0,1.91L5.66,7.57L7.13,7.34C7.22,7.33 7.31,7.29 7.38,7.23Z " /><path id="路径 2" fill-rule="evenodd" style="fill:#000000" transform="translate(0 3.327967129849663)  rotate(0 8.661995 8.661995)" opacity="1" d="M11.67,0L5.3,0.71C3.89,6.83 2.83,10.49 0,13.79L1.4,15.18C4.73,11.46 5.72,7.19 6.91,2.54L10.93,2.09L15.23,6.39L14.78,10.41C10.14,11.6 5.86,12.6 2.14,15.93L3.54,17.32C6.83,14.5 10.49,13.43 16.62,12.02L17.32,5.66L11.67,0Z " /><path id="路径 3" fill-rule="evenodd" style="fill:#000000" transform="translate(6.81442433009601 9.787382100029298)  rotate(0 1.9944129978105298 1.9941726123834735)" opacity="1" d="M3.44,0.61C3.25,0.42 3.03,0.27 2.79,0.16C2.55,0.06 2.28,0 2.02,0C1.75,0 1.49,0.05 1.24,0.15C1,0.25 0.77,0.4 0.59,0.59C0.4,0.77 0.25,1 0.15,1.24C0.05,1.49 0,1.75 0,2.02C0,2.28 0.06,2.55 0.16,2.79C0.27,3.03 0.42,3.25 0.61,3.44L0.61,3.44C0.99,3.8 1.49,3.99 2.01,3.99C2.54,3.98 3.03,3.77 3.4,3.4C3.77,3.03 3.98,2.54 3.99,2.01C4,1.49 3.8,0.99 3.44,0.61Z " /></g></g></g></svg>