<svg width="24" height="24" fill="none" xmlns="http://www.w3.org/2000/svg"><mask id="a" style="mask-type:alpha" maskUnits="userSpaceOnUse" x="0" y="0" width="24" height="24"><path d="M24 0H0v24h24V0Z" fill="#fff"/></mask><g mask="url(#a)" fill-rule="evenodd" clip-rule="evenodd" fill="currentColor"><path d="M12.055 15.552c-.4.17-.85.2-1.28.09l-5.85 5.84 1.06 1.06c3.3-2.82 6.96-3.89 13.09-5.3l.7-6.36-5.65-5.66-6.37.71c-1.41 6.12-2.47 9.78-5.3 13.08l1.06 1.06 5.85-5.85c-.12-.42-.09-.87.08-1.28.17-.41.47-.75.85-.97.38-.22.82-.31 1.26-.25.44.06.84.26 1.15.57.31.31.51.72.57 1.15.06.44-.03.88-.25 1.27-.22.38-.56.67-.97.84ZM23.076 8.624a.564.564 0 0 0-.13-.24l-6.35-6.34a.493.493 0 0 0-.24-.14.5.5 0 0 0-.27.02c-.09.03-.17.08-.23.15-.06.07-.09.16-.11.25l-.21 1.48 5.66 5.66 1.47-.23c.09-.01.18-.05.25-.11a.513.513 0 0 0 .16-.5Z"/></g></svg>