<svg width="24" height="24" fill="none" xmlns="http://www.w3.org/2000/svg"><mask id="a" style="mask-type:alpha" maskUnits="userSpaceOnUse" x="0" y="0" width="24" height="24"><path d="M24 0H0v24h24V0Z" fill="#fff"/></mask><g mask="url(#a)" fill-rule="evenodd" clip-rule="evenodd" fill="currentColor"><path d="M22.916 8.124a.513.513 0 0 0 .16-.5.564.564 0 0 0-.13-.24l-6.35-6.34a.493.493 0 0 0-.24-.14.5.5 0 0 0-.27.02c-.09.03-.17.08-.23.15-.06.07-.09.16-.11.25l-.21 1.48 5.66 5.66 1.47-.23c.09-.01.18-.05.25-.11ZM14.124 4.222l-6.37.71c-1.41 6.12-2.47 9.78-5.3 13.08l1.4 1.39c3.33-3.72 4.32-7.99 5.51-12.64l4.02-.45 4.3 4.3-.45 4.02c-4.64 1.19-8.92 2.19-12.64 5.52l1.4 1.39c3.29-2.82 6.95-3.89 13.08-5.3l.7-6.36-5.65-5.66Z"/><path d="M12.708 11.291c-.19-.19-.41-.34-.65-.45-.24-.1-.51-.16-.77-.16-.27 0-.53.05-.78.15-.24.1-.47.25-.65.44-.19.18-.34.41-.44.65-.1.25-.15.51-.15.78 0 .26.06.53.16.77.11.24.26.46.45.65.38.36.88.55 1.4.55.53-.01 1.02-.22 1.39-.59.37-.37.58-.86.59-1.39a1.98 1.98 0 0 0-.55-1.4Z"/></g></svg>