<svg xmlns="http://www.w3.org/2000/svg" xmlns:xlink="http://www.w3.org/1999/xlink" width="24" height="24" viewBox="0 0 24 24" fill="none"><defs><rect id="path_0" x="0" y="0" width="24" height="24" /></defs><g opacity="1" transform="translate(0 0)  rotate(0 12 12)"><mask id="bg-mask-0" fill="white"><use xlink:href="#path_0"></use></mask><g mask="url(#bg-mask-0)" ><g opacity="1" transform="translate(2.45496 1.8940418130490233)  rotate(0 10.317377528723576 10.325979093475487)"><path id="路径 1" fill-rule="evenodd" style="fill:#000000" transform="translate(0 3.327968186950976)  rotate(0 8.66152 8.661995)" opacity="1" d="M9.6,10.33C9.2,10.5 8.75,10.53 8.32,10.42L2.47,16.26L2.47,16.26L3.53,17.32C6.83,14.5 10.49,13.43 16.62,12.02L17.32,5.66L11.67,0L5.3,0.71C3.89,6.83 2.83,10.49 0,13.79L1.06,14.85L6.91,9C6.79,8.58 6.82,8.13 6.99,7.72C7.16,7.31 7.46,6.97 7.84,6.75C8.22,6.53 8.66,6.44 9.1,6.5C9.54,6.56 9.94,6.76 10.25,7.07C10.56,7.38 10.76,7.79 10.82,8.22C10.88,8.66 10.79,9.1 10.57,9.49C10.35,9.87 10.01,10.16 9.6,10.33Z " /><path id="路径 2" fill-rule="evenodd" style="fill:#000000" transform="translate(13.08104 0)  rotate(0 3.7768575287235757 3.784984093475488)" opacity="1" d="M7.54,6.73C7.52,6.64 7.47,6.56 7.41,6.49L1.06,0.15C0.99,0.08 0.91,0.03 0.82,0.01C0.73,-0.01 0.64,0 0.55,0.03C0.46,0.06 0.38,0.11 0.32,0.18C0.26,0.25 0.23,0.34 0.21,0.43L0,1.91L5.66,7.57L7.13,7.34C7.22,7.33 7.31,7.29 7.38,7.23C7.45,7.17 7.5,7.09 7.53,7C7.56,6.91 7.56,6.82 7.54,6.73Z " /></g></g></g></svg>