<svg xmlns="http://www.w3.org/2000/svg" xmlns:xlink="http://www.w3.org/1999/xlink" viewBox="0 0 24 24" fill="none"><defs><rect id="path_0" x="0" y="0" width="24" height="24" /></defs><g opacity="1" transform="translate(0 0)  rotate(0 12 12)"><mask id="bg-mask-0" fill="white"><use xlink:href="#path_0"></use></mask><g mask="url(#bg-mask-0)" ><path id="分组 1" fill-rule="evenodd" style="fill:#000000" transform="translate(3 3.0291700000000006)  rotate(0 8.9854 8.985415)" opacity="1" d="M11.31 5.24279L2 14.5528L2 15.9728L3.41 15.9728L12.73 6.65279L11.31 5.24279Z M15.558 3.82479L14.138 2.41479L12.728 3.82479L14.138 5.24479L15.558 3.82479Z M17.97 3.83C17.97 3.56 17.87 3.31 17.68 3.12L14.85 0.29C14.66 0.11 14.41 0 14.14 0C13.88 0 13.62 0.11 13.43 0.29L0 13.73L0 17.97L4.24 17.97L4.24 17.97L17.68 4.54C17.87 4.35 17.97 4.09 17.97 3.83Z " /></g></g></svg>