<svg width="24" height="24" fill="none" xmlns="http://www.w3.org/2000/svg"><mask id="a" style="mask-type:alpha" maskUnits="userSpaceOnUse" x="0" y="0" width="24" height="24"><path d="M24 0H0v24h24V0Z" fill="#fff"/></mask><g mask="url(#a)"><path fill-rule="evenodd" clip-rule="evenodd" d="M14.31 8.272 5 17.582v1.42h1.41l9.32-9.32-1.42-1.41Zm4.248-1.418-1.42-1.41-1.41 1.41 1.41 1.42 1.42-1.42Zm2.412.005c0-.27-.1-.52-.29-.71l-2.83-2.83c-.19-.18-.44-.29-.71-.29-.26 0-.52.11-.71.29L3 16.76V21h4.24L20.68 7.57c.19-.19.29-.45.29-.71Z" fill="currentColor"/></g></svg>