<svg width="24" height="24" fill="none" xmlns="http://www.w3.org/2000/svg"><mask id="a" style="mask-type:alpha" maskUnits="userSpaceOnUse" x="0" y="0" width="24" height="24"><path d="M24 0H0v24h24V0Z" fill="#fff"/></mask><g mask="url(#a)"><path fill-rule="evenodd" clip-rule="evenodd" d="M19.97 19.97c.66-.65 1.03-1.54 1.03-2.47 0-.93-.37-1.82-1.03-2.47A3.464 3.464 0 0 0 17.5 14c-.93 0-1.82.37-2.47 1.03-.66.65-1.03 1.54-1.03 2.47 0 .93.37 1.82 1.03 2.47.65.66 1.54 1.03 2.47 1.03.93 0 1.82-.37 2.47-1.03Zm-1.41-1.41a1.499 1.499 0 1 0-2.12-2.12 1.499 1.499 0 1 0 2.12 2.12ZM5.16 9.73a3.464 3.464 0 0 0 3.81-.76C9.63 8.32 10 7.43 10 6.5c0-.93-.37-1.82-1.03-2.47a3.464 3.464 0 0 0-3.81-.76c-.42.17-.81.43-1.13.76-.33.32-.59.71-.76 1.13a3.45 3.45 0 0 0 0 2.68c.17.42.43.81.76 1.13.32.33.71.59 1.13.76Zm2.4-2.17a1.499 1.499 0 1 0-2.12-2.12 1.499 1.499 0 1 0 2.12 2.12Zm11.506-4.045-15.55 15.56 1.41 1.41 15.56-15.56-1.41-1.41h-.01Z" fill="currentColor"/></g></svg>