<svg xmlns="http://www.w3.org/2000/svg" xmlns:xlink="http://www.w3.org/1999/xlink" width="24" height="24" viewBox="0 0 24 24" fill="none"><defs><rect id="path_0" x="0" y="0" width="24" height="24" /></defs><g opacity="1" transform="translate(0 0)  rotate(0 12 12)"><mask id="bg-mask-0" fill="white"><use xlink:href="#path_0"></use></mask><g mask="url(#bg-mask-0)" ><path id="分组 1" fill-rule="evenodd" style="fill:#000000" transform="translate(3 3)  rotate(0 9 9)" opacity="1" d="M16.97 16.97C17.63 16.32 18 15.43 18 14.5C18 13.57 17.63 12.68 16.97 12.03C16.32 11.37 15.43 11 14.5 11C13.57 11 12.68 11.37 12.03 12.03C11.37 12.68 11 13.57 11 14.5C11 15.43 11.37 16.32 12.03 16.97C12.68 17.63 13.57 18 14.5 18C15.43 18 16.32 17.63 16.97 16.97Z M15.56 15.56C15.84 15.28 16 14.9 16 14.5C16 14.1 15.84 13.72 15.56 13.44C15.28 13.16 14.9 13 14.5 13C14.1 13 13.72 13.16 13.44 13.44C13.16 13.72 13 14.1 13 14.5C13 14.9 13.16 15.28 13.44 15.56C13.72 15.84 14.1 16 14.5 16C14.9 16 15.28 15.84 15.56 15.56Z M2.16 6.73C2.59 6.91 3.04 7 3.5 7C4.43 7 5.32 6.63 5.97 5.97C6.63 5.32 7 4.43 7 3.5C7 2.57 6.63 1.68 5.97 1.03C5.32 0.37 4.43 0 3.5 0C3.04 0 2.59 0.09 2.16 0.27C1.74 0.44 1.35 0.7 1.03 1.03C0.7 1.35 0.44 1.74 0.27 2.16C0.09 2.59 0 3.04 0 3.5C0 3.96 0.09 4.41 0.27 4.84C0.44 5.26 0.7 5.65 1.03 5.97C1.35 6.3 1.74 6.56 2.16 6.73Z M4.56 4.56C4.84 4.28 5 3.9 5 3.5C5 3.1 4.84 2.72 4.56 2.44C4.28 2.16 3.9 2 3.5 2C3.1 2 2.72 2.16 2.44 2.44C2.16 2.72 2 3.1 2 3.5C2 3.9 2.16 4.28 2.44 4.56C2.72 4.84 3.1 5 3.5 5C3.9 5 4.28 4.84 4.56 4.56Z M16.066 0.515L0.516 16.075L1.926 17.485L17.486 1.925L16.076 0.515L16.066 0.515Z " /></g></g></svg>