<svg width="24" height="24" fill="none" xmlns="http://www.w3.org/2000/svg"><mask id="a" style="mask-type:alpha" maskUnits="userSpaceOnUse" x="0" y="0" width="24" height="24"><path d="M24 0H0v24h24V0Z" fill="#fff"/></mask><g mask="url(#a)"><path fill-rule="evenodd" clip-rule="evenodd" d="m15.43 14.8-1.54 2.16a12.982 12.982 0 0 1-6.84-6.85L9.2 8.57c.18-.13.25-.37.15-.57-.6-1.26-1.01-2.61-1.21-4-.02-.14-.04-.32-.06-.55a.494.494 0 0 0-.16-.32.555.555 0 0 0-.34-.13H4.04c-.25 0-.49.1-.68.27-.18.17-.3.41-.31.66C3.02 4.37 3 4.72 3 5c0 8.84 7.16 16 16 16 .28 0 .63-.02 1.07-.05.25-.01.49-.13.66-.31.17-.19.27-.43.27-.68v-3.54a.501.501 0 0 0-.45-.5c-.23-.02-.41-.04-.55-.06-1.38-.2-2.73-.61-4-1.21a.553.553 0 0 0-.31-.03c-.11.03-.2.09-.26.18Z" fill="currentColor"/></g></svg>