<svg width="24" height="24" fill="none" xmlns="http://www.w3.org/2000/svg"><mask id="a" style="mask-type:alpha" maskUnits="userSpaceOnUse" x="0" y="0" width="24" height="24"><path d="M24 0H0v24h24V0Z" fill="#fff"/></mask><g mask="url(#a)"><path fill-rule="evenodd" clip-rule="evenodd" d="m14.2 13.4-.88 1.23c-1.65-.93-3.02-2.3-3.95-3.95l1.23-.88c.2-.14.34-.35.4-.59.05-.24.02-.49-.1-.71-.77-1.41-1.24-2.97-1.36-4.58-.02-.25-.14-.48-.32-.65A.977.977 0 0 0 8.54 3H4.08c-.25 0-.49.09-.67.26-.19.16-.3.39-.33.64C3.03 4.43 3 4.96 3 5.5 3 14.06 9.94 21 18.5 21c.54 0 1.07-.03 1.6-.08.25-.03.48-.14.64-.33.17-.18.26-.42.26-.67v-4.46c0-.25-.09-.49-.27-.68-.17-.18-.4-.3-.65-.32-1.61-.12-3.17-.59-4.58-1.36-.22-.12-.47-.15-.71-.1-.24.06-.45.2-.59.4ZM5.011 5c-.01.17-.01.33-.01.5 0 7.46 6.04 13.5 13.5 13.5.17 0 .33 0 .5-.01v-2.64c-1.27-.19-2.51-.55-3.67-1.09l-1.36 1.9c-.54-.22-1.07-.47-1.58-.75l-.06-.04a12.476 12.476 0 0 1-4.7-4.7l-.04-.06c-.28-.51-.53-1.04-.75-1.58l1.9-1.36c-.54-1.17-.91-2.4-1.09-3.67h-2.64Z" fill="currentColor"/></g></svg>