<svg xmlns="http://www.w3.org/2000/svg" xmlns:xlink="http://www.w3.org/1999/xlink" viewBox="0 0 24 24" fill="none"><defs><rect id="path_0" x="0" y="0" width="24" height="24" /></defs><g opacity="1" transform="translate(0 0)  rotate(0 12 12)"><mask id="bg-mask-0" fill="white"><use xlink:href="#path_0"></use></mask><g mask="url(#bg-mask-0)" ><path id="分组 1" fill-rule="evenodd" style="fill:#000000" transform="translate(3 2.9999999795859225)  rotate(0 9.000000040806654 9.000000010207039)" opacity="1" d="M11.2 10.4L10.32 11.63C8.67 10.7 7.3 9.33 6.37 7.68L7.6 6.8C7.8 6.66 7.94 6.45 8 6.21C8.05 5.97 8.02 5.72 7.9 5.5C7.13 4.09 6.66 2.53 6.54 0.92C6.52 0.67 6.4 0.44 6.22 0.27C6.03 0.09 5.79 0 5.54 0L1.08 0C0.83 0 0.59 0.09 0.41 0.26C0.22 0.42 0.11 0.65 0.08 0.9C0.03 1.43 0 1.96 0 2.5C0 11.06 6.94 18 15.5 18C16.04 18 16.57 17.97 17.1 17.92C17.35 17.89 17.58 17.78 17.74 17.59C17.91 17.41 18 17.17 18 16.92L18 12.46C18 12.21 17.91 11.97 17.73 11.78C17.56 11.6 17.33 11.48 17.08 11.46C15.47 11.34 13.91 10.87 12.5 10.1C12.28 9.98 12.03 9.95 11.79 10C11.55 10.06 11.34 10.2 11.2 10.4Z M2.011 2C2.001 2.17 2.001 2.33 2.001 2.5C2.001 9.96 8.041 16 15.501 16C15.671 16 15.831 16 16.001 15.99L16.001 13.35C14.731 13.16 13.491 12.8 12.331 12.26L10.971 14.16C10.431 13.94 9.901 13.69 9.391 13.41L9.331 13.37C7.371 12.26 5.741 10.63 4.631 8.67L4.591 8.61C4.311 8.1 4.061 7.57 3.841 7.03L5.741 5.67C5.201 4.5 4.831 3.27 4.651 2L2.011 2Z " /></g></g></svg>