<svg xmlns="http://www.w3.org/2000/svg" xmlns:xlink="http://www.w3.org/1999/xlink" width="24" height="24" viewBox="0 0 24 24" fill="none"><defs><rect id="path_0" x="0" y="0" width="24" height="24" /></defs><g opacity="1" transform="translate(0 0)  rotate(0 12 12)"><mask id="bg-mask-0" fill="white"><use xlink:href="#path_0"></use></mask><g mask="url(#bg-mask-0)" ><path id="路径 1" fill-rule="evenodd" style="fill:#000000" transform="translate(3 2.9999997251484007)  rotate(0 9.000500325426067 9.0000001374258)" opacity="1" d="M12.43,11.8L10.89,13.96C7.81,12.64 5.36,10.19 4.05,7.11L6.2,5.57C6.38,5.44 6.45,5.2 6.35,5C5.75,3.74 5.34,2.39 5.14,1C5.12,0.86 5.1,0.68 5.08,0.45C5.07,0.33 5.01,0.21 4.92,0.13C4.82,0.05 4.7,0 4.58,0L1.04,0C0.79,0 0.55,0.1 0.36,0.27C0.18,0.44 0.06,0.68 0.05,0.93C0.02,1.37 0,1.72 0,2C0,10.84 7.16,18 16,18C16.28,18 16.63,17.98 17.07,17.95C17.32,17.94 17.56,17.82 17.73,17.64C17.9,17.45 18,17.21 18,16.96L18,13.42L18,13.42C18,13.3 17.96,13.18 17.87,13.08C17.79,12.99 17.68,12.93 17.55,12.92C17.32,12.9 17.14,12.88 17,12.86C15.62,12.66 14.27,12.25 13,11.65C12.9,11.61 12.79,11.6 12.69,11.62C12.58,11.65 12.49,11.71 12.43,11.8Z " /></g></g></svg>