<svg width="24" height="24" fill="none" xmlns="http://www.w3.org/2000/svg"><mask id="a" style="mask-type:alpha" maskUnits="userSpaceOnUse" x="0" y="0" width="24" height="24"><path d="M24 0H0v24h24V0Z" fill="#fff"/></mask><g mask="url(#a)"><path fill-rule="evenodd" clip-rule="evenodd" d="M21.71 3.29C21.52 3.11 21.27 3 21 3H3c-.27 0-.52.11-.71.29-.18.19-.29.44-.29.71v16c0 .27.11.52.29.71.19.18.44.29.71.29h7v-2H4V5h16v6h2V4c0-.27-.11-.52-.29-.71ZM12 20c0 .27.11.52.29.71.19.18.44.29.71.29h8c.27 0 .52-.11.71-.29.18-.19.29-.44.29-.71v-6c0-.27-.11-.52-.29-.71-.19-.18-.44-.29-.71-.29h-8c-.27 0-.52.11-.71.29-.18.19-.29.44-.29.71v6Zm2-5v4h6v-4h-6Z" fill="currentColor"/></g></svg>