<svg width="24" height="24" fill="none" xmlns="http://www.w3.org/2000/svg"><mask id="a" style="mask-type:alpha" maskUnits="userSpaceOnUse" x="0" y="0" width="24" height="24"><path d="M24 0H0v24h24V0Z" fill="#fff"/></mask><g mask="url(#a)"><path fill-rule="evenodd" clip-rule="evenodd" d="M10 21v-2H4V5h16v6h2V4c0-.27-.11-.52-.29-.71-.19-.18-.44-.29-.71-.29H3c-.27 0-.52.11-.71.29-.18.19-.29.44-.29.71v16c0 .27.11.52.29.71.19.18.44.29.71.29h7Zm3-8c-.27 0-.52.11-.71.29-.18.19-.29.44-.29.71v6c0 .27.11.52.29.71.19.18.44.29.71.29h8c.27 0 .52-.11.71-.29.18-.19.29-.44.29-.71v-6c0-.27-.11-.52-.29-.71-.19-.18-.44-.29-.71-.29h-8Zm1 2v4h6v-4h-6ZM6 7v5.5l2.04-2.04 2.25 2.25 1.42-1.42-2.25-2.25L11.5 7H6Z" fill="currentColor"/></g></svg>