<svg xmlns="http://www.w3.org/2000/svg" xmlns:xlink="http://www.w3.org/1999/xlink" width="24" height="24" viewBox="0 0 24 24" fill="none"><defs><rect id="path_0" x="0" y="0" width="24" height="24" /></defs><g opacity="1" transform="translate(0 0)  rotate(0 12 12)"><mask id="bg-mask-0" fill="white"><use xlink:href="#path_0"></use></mask><g mask="url(#bg-mask-0)" ><g opacity="1" transform="translate(2 3)  rotate(0 10 9)"><path id="路径 1" fill-rule="evenodd" style="fill:#000000" transform="translate(0 0)  rotate(0 10 9)" opacity="1" d="M20,1C20,0.73 19.89,0.48 19.71,0.29C19.52,0.11 19.27,0 19,0L1,0C0.73,0 0.48,0.11 0.29,0.29C0.11,0.48 0,0.73 0,1L0,17C0,17.27 0.11,17.52 0.29,17.71C0.48,17.89 0.73,18 1,18L8,18L8,16L2,16L2,2L18,2L18,8L20,8L20,1Z " /><path id="路径 2" fill-rule="evenodd" style="fill:#000000" transform="translate(10 10)  rotate(0 5 4)" opacity="1" d="M1,8L9,8C9.27,8 9.52,7.89 9.71,7.71C9.89,7.52 10,7.27 10,7L10,1C10,0.73 9.89,0.48 9.71,0.29C9.52,0.11 9.27,0 9,0L1,0C0.73,0 0.48,0.11 0.29,0.29C0.11,0.48 0,0.73 0,1L0,7C0,7.27 0.11,7.52 0.29,7.71C0.48,7.89 0.73,8 1,8Z " /></g></g></g></svg>