<svg xmlns="http://www.w3.org/2000/svg" xmlns:xlink="http://www.w3.org/1999/xlink" viewBox="0 0 24 24" fill="none"><defs><rect id="path_0" x="0" y="0" width="24" height="24" /></defs><g opacity="1" transform="translate(0 0)  rotate(0 12 12)"><mask id="bg-mask-0" fill="white"><use xlink:href="#path_0"></use></mask><g mask="url(#bg-mask-0)" ><path id="分组 1" fill-rule="evenodd" style="fill:#000000" transform="translate(2 3)  rotate(0 10 9)" opacity="1" d="M8 18L8 16L2 16L2 2L18 2L18 8L20 8L20 1C20 0.73 19.89 0.48 19.71 0.29C19.52 0.11 19.27 0 19 0L1 0C0.73 0 0.48 0.11 0.29 0.29C0.11 0.48 0 0.73 0 1L0 17C0 17.27 0.11 17.52 0.29 17.71C0.48 17.89 0.73 18 1 18L8 18Z M11 10C10.73 10 10.48 10.11 10.29 10.29C10.11 10.48 10 10.73 10 11L10 17C10 17.27 10.11 17.52 10.29 17.71C10.48 17.89 10.73 18 11 18L19 18C19.27 18 19.52 17.89 19.71 17.71C19.89 17.52 20 17.27 20 17L20 11C20 10.73 19.89 10.48 19.71 10.29C19.52 10.11 19.27 10 19 10L11 10Z M12 12L12 16L18 16L18 12L12 12Z M4 4L4 9.5L6.04 7.46L8.29 9.71L9.71 8.29L7.46 6.04L9.5 4L4 4Z " /></g></g></svg>