<svg xmlns="http://www.w3.org/2000/svg" xmlns:xlink="http://www.w3.org/1999/xlink" width="24" height="24" viewBox="0 0 24 24" fill="none"><defs><rect id="path_0" x="0" y="0" width="24" height="24" /></defs><g opacity="1" transform="translate(0 0)  rotate(0 12 12)"><mask id="bg-mask-0" fill="white"><use xlink:href="#path_0"></use></mask><g mask="url(#bg-mask-0)" ><g opacity="1" transform="translate(2 0.5429689999999994)  rotate(0 10.7285 10.728515499999999)"><path id="路径 1" fill-rule="evenodd" style="fill:#000000" transform="translate(0 1.507001)  rotate(0 9.975 9.975014999999999)" opacity="1" d="M0,9.95C0,15.47 4.48,19.95 10,19.95C15.18,19.95 19.45,16 19.95,10.95L9,10.95L9,0C3.95,0.5 0,4.76 0,9.95Z " /><path id="路径 2" fill-rule="evenodd" style="fill:#000000" transform="translate(11 0)  rotate(0 5.2285 5.2285155)" opacity="1" d="M0,10.46L10.46,10.46C9.98,4.9 5.55,0.48 0,0L0,10.46Z " /></g></g></g></svg>