<svg width="24" height="24" fill="none" xmlns="http://www.w3.org/2000/svg"><mask id="a" style="mask-type:alpha" maskUnits="userSpaceOnUse" x="0" y="0" width="24" height="24"><path d="M24 0H0v24h24V0Z" fill="#fff"/></mask><g mask="url(#a)"><path fill-rule="evenodd" clip-rule="evenodd" d="M11 .54v1.51c-5.05.5-9 4.77-9 9.95 0 5.52 4.48 10 10 10 5.18 0 9.45-3.95 9.95-9h1.51c.03-.33.04-.66.04-1C23.5 5.65 18.35.5 12 .5c-.34 0-.67.01-1 .04Zm-.001 3.522a8.016 8.016 0 0 0-5.16 2.84 8.015 8.015 0 0 0-1.81 5.6 7.99 7.99 0 0 0 13.26 5.5 8.006 8.006 0 0 0 2.65-5h-8.94v-8.94Zm7.721 1.22A9.511 9.511 0 0 0 13 2.552v8.45h8.45a9.567 9.567 0 0 0-2.73-5.72Z" fill="currentColor"/></g></svg>