<svg xmlns="http://www.w3.org/2000/svg" xmlns:xlink="http://www.w3.org/1999/xlink" viewBox="0 0 24 24" fill="none"><defs><rect id="path_0" x="0" y="0" width="24" height="24" /></defs><g opacity="1" transform="translate(0 0)  rotate(0 12 12)"><mask id="bg-mask-0" fill="white"><use xlink:href="#path_0"></use></mask><g mask="url(#bg-mask-0)" ><path id="分组 1" fill-rule="evenodd" style="fill:#000000" transform="translate(2 0.5)  rotate(0 10.75 10.75)" opacity="1" d="M9 0.04L9 1.55C3.95 2.05 0 6.32 0 11.5C0 17.02 4.48 21.5 10 21.5C15.18 21.5 19.45 17.55 19.95 12.5L21.46 12.5C21.49 12.17 21.5 11.84 21.5 11.5C21.5 5.15 16.35 0 10 0C9.66 0 9.33 0.01 9 0.04L9 0.04Z M8.99891 3.562C6.97891 3.822 5.13891 4.832 3.83891 6.402C2.54891 7.972 1.89891 9.972 2.02891 12.002C2.14891 14.032 3.04891 15.932 4.52891 17.332C6.00891 18.722 7.96891 19.502 9.99891 19.502C11.9489 19.502 13.8289 18.792 15.2889 17.502C16.7489 16.212 17.6989 14.432 17.9389 12.502L8.99891 12.502L8.99891 3.562Z M16.72 4.782C15.18 3.242 13.16 2.282 11 2.052L11 10.502L19.45 10.502C19.22 8.342 18.25 6.322 16.72 4.782Z " /></g></g></svg>