<svg xmlns="http://www.w3.org/2000/svg" xmlns:xlink="http://www.w3.org/1999/xlink" width="24" height="24" viewBox="0 0 24 24" fill="none"><defs><rect id="path_0" x="0" y="0" width="24" height="24" /></defs><g opacity="1" transform="translate(0 0)  rotate(0 12 12)"><mask id="bg-mask-0" fill="white"><use xlink:href="#path_0"></use></mask><g mask="url(#bg-mask-0)" ><path id="分组 1" fill-rule="evenodd" style="fill:#000000" transform="translate(2 2)  rotate(0 10 10)" opacity="1" d="M7.73868 11.4625C7.54868 11.0125 7.44868 10.5225 7.45868 10.0325C7.45868 8.70248 8.21868 7.66248 9.19868 7.66248C9.55868 7.66248 9.89868 7.81248 10.1387 8.09248C10.3787 8.36248 10.4887 8.73248 10.4387 9.08248C10.4387 9.54248 10.3587 9.88248 9.98868 11.1225C9.91868 11.3625 9.86868 11.5225 9.81868 11.6925C9.76868 11.8825 9.72868 12.0525 9.68868 12.2125C9.58868 12.6025 9.67868 13.0125 9.92868 13.3225C10.0487 13.4725 10.1987 13.5925 10.3687 13.6725C10.5487 13.7525 10.7387 13.7825 10.9287 13.7725C12.4187 13.7725 13.5287 11.7925 13.5287 9.23248C13.5287 7.26248 12.2387 5.95248 10.0987 5.95248C9.55868 5.93248 9.02868 6.02248 8.52868 6.22248C8.02868 6.42248 7.57868 6.72248 7.19868 7.10248C6.81868 7.49248 6.50868 7.95248 6.30868 8.46248C6.09868 8.97248 5.99868 9.51248 6.00868 10.0625C5.97868 10.6525 6.15868 11.2325 6.51868 11.7025C6.69868 11.8425 6.76868 12.0925 6.68868 12.2925C6.64868 12.4625 6.54868 12.8425 6.51868 12.9725C6.50868 13.0425 6.47868 13.1025 6.43868 13.1525C6.40868 13.2025 6.35868 13.2425 6.29868 13.2725C6.24868 13.3025 6.18868 13.3125 6.11868 13.3125C6.05868 13.3125 5.99868 13.3025 5.94868 13.2725C4.78868 12.7925 4.14868 11.4925 4.14868 9.83248C4.14868 6.85248 6.63868 4.25248 10.3387 4.25248C13.4787 4.25248 15.8187 6.58248 15.8187 9.39248C15.8187 12.9225 13.8887 15.4925 11.1287 15.4925C10.7387 15.5025 10.3487 15.4225 9.99868 15.2625C9.63868 15.0925 9.32868 14.8425 9.08868 14.5325L9.03868 14.7125L8.83868 15.5625L8.83868 15.5725C8.68868 16.1725 8.58868 16.5925 8.54868 16.7425C8.43868 17.1025 8.30868 17.4525 8.14868 17.7825C10.1387 18.2625 12.2287 17.9525 13.9987 16.9325C15.7687 15.9025 17.0887 14.2425 17.6687 12.2825C18.2487 10.3225 18.0587 8.21248 17.1387 6.38248C16.2087 4.56248 14.6187 3.16248 12.6987 2.47248C10.7687 1.78248 8.64868 1.85248 6.77868 2.68248C4.90868 3.50248 3.41868 5.01248 2.62868 6.89248C1.82868 8.78248 1.78868 10.8925 2.50868 12.8125C3.22868 14.7325 4.64868 16.2925 6.48868 17.1925L6.48868 17.1925C6.51868 16.8525 6.55868 16.5225 6.63868 16.1925C6.69868 15.8925 6.88868 15.0625 7.16868 13.8525L7.17868 13.8225L7.55868 12.1525C7.63868 11.8125 7.69868 11.5525 7.73868 11.4625Z M20 10C20 4.48 15.52 0 10 0C4.48 0 0 4.48 0 10C0 15.52 4.48 20 10 20C15.52 20 20 15.52 20 10Z " /></g></g></svg>