<svg width="24" height="24" fill="none" xmlns="http://www.w3.org/2000/svg"><mask id="a" style="mask-type:alpha" maskUnits="userSpaceOnUse" x="0" y="0" width="24" height="24"><path d="M24 0H0v24h24V0Z" fill="#fff"/></mask><g mask="url(#a)"><path fill-rule="evenodd" clip-rule="evenodd" d="M9.739 13.463c-.19-.45-.29-.94-.28-1.43 0-1.33.76-2.37 1.74-2.37.36 0 .7.15.94.43.24.27.35.64.3.99 0 .46-.08.8-.45 2.04-.07.24-.12.4-.17.57-.05.19-.09.36-.13.52a1.265 1.265 0 0 0 .68 1.46c.18.08.37.11.56.1 1.49 0 2.6-1.98 2.6-4.54 0-1.97-1.29-3.28-3.43-3.28-.54-.02-1.07.07-1.57.27s-.95.5-1.33.88c-.38.39-.69.85-.89 1.36-.21.51-.31 1.05-.3 1.6-.03.59.15 1.17.51 1.64.18.14.25.39.17.59-.04.17-.14.55-.17.68a.37.37 0 0 1-.08.18c-.03.05-.08.09-.14.12-.05.03-.11.04-.18.04-.06 0-.12-.01-.17-.04-1.16-.48-1.8-1.78-1.8-3.44 0-2.98 2.49-5.58 6.19-5.58 3.14 0 5.48 2.33 5.48 5.14 0 3.53-1.93 6.1-4.69 6.1-.39.01-.78-.07-1.13-.23-.36-.17-.67-.42-.91-.73l-.05.18-.2.85v.01c-.15.6-.25 1.02-.29 1.17-.11.36-.24.71-.4 1.04 1.99.48 4.08.17 5.85-.85a8.028 8.028 0 0 0 3.67-4.65c.58-1.96.39-4.07-.53-5.9a8.048 8.048 0 0 0-4.44-3.91 7.975 7.975 0 0 0-5.92.21 7.982 7.982 0 0 0-4.15 4.21c-.8 1.89-.84 4-.12 5.92a7.991 7.991 0 0 0 3.98 4.38c.03-.34.07-.67.15-1 .06-.3.25-1.13.53-2.34l.01-.03.38-1.67c.08-.34.14-.6.18-.69ZM22 12c0-5.52-4.48-10-10-10S2 6.48 2 12s4.48 10 10 10 10-4.48 10-10Z" fill="currentColor"/></g></svg>