<svg width="24" height="24" fill="none" xmlns="http://www.w3.org/2000/svg"><mask id="a" style="mask-type:alpha" maskUnits="userSpaceOnUse" x="0" y="0" width="24" height="24"><path d="M24 0H0v24h24V0Z" fill="#fff"/></mask><g mask="url(#a)"><path fill-rule="evenodd" clip-rule="evenodd" d="M8.634 8.41c-.46.44-.83.98-1.08 1.57-.24.6-.37 1.24-.36 1.88-.03.71.2 1.41.65 1.97a.49.49 0 0 1 .16.55c-.05.19-.16.63-.21.79-.01.05-.03.1-.06.15-.04.04-.08.08-.13.1-.05.03-.1.04-.16.04-.05 0-.11-.01-.16-.04-1.38-.55-2.03-2.08-2.03-3.81 0-2.85 2.38-6.26 7.15-6.26 3.8 0 6.32 2.78 6.32 5.75 0 3.91-2.18 6.85-5.39 6.85-.48.01-.96-.1-1.39-.31-.43-.22-.8-.54-1.07-.94 0 0-.58 2.32-.69 2.75-.23.76-.58 1.48-1.02 2.13.92.28 1.88.42 2.85.42 1.31 0 2.61-.26 3.83-.76 1.21-.5 2.31-1.24 3.24-2.17.93-.93 1.66-2.03 2.17-3.24.5-1.22.76-2.52.75-3.83 0-2.42-.87-4.75-2.46-6.57a10.02 10.02 0 0 0-6.17-3.34c-2.4-.33-4.83.22-6.85 1.55a10.02 10.02 0 0 0-4.15 5.65c-.65 2.33-.44 4.81.59 6.99 1.04 2.19 2.82 3.92 5.04 4.89-.06-.77-.01-1.54.16-2.29.19-.84 1.3-5.47 1.3-5.47-.22-.49-.33-1.03-.33-1.57 0-1.49.86-2.6 1.93-2.6.19 0 .38.04.55.12.18.07.33.19.46.33s.22.31.28.5c.06.18.07.37.05.56 0 .9-.58 2.26-.88 3.54-.06.24-.07.48-.01.72.05.23.16.45.31.64s.35.34.57.43c.22.1.46.15.7.13 1.9 0 3.17-2.43 3.17-5.3 0-2.2-1.45-3.84-4.14-3.84a4.65 4.65 0 0 0-1.88.31c-.6.23-1.15.58-1.61 1.03Z" fill="currentColor"/></g></svg>