<svg xmlns="http://www.w3.org/2000/svg" xmlns:xlink="http://www.w3.org/1999/xlink" width="24" height="24" viewBox="0 0 24 24" fill="none"><defs><rect id="path_0" x="0" y="0" width="24" height="24" /></defs><g opacity="1" transform="translate(0 0)  rotate(0 12 12)"><mask id="bg-mask-0" fill="white"><use xlink:href="#path_0"></use></mask><g mask="url(#bg-mask-0)" ><path id="路径 1" fill-rule="evenodd" style="fill:#000000" transform="translate(2.0037844978107664 2.0006081071341484)  rotate(0 10.001612978286424 10.000237618459511)" opacity="1" d="M6.63,6.41C6.17,6.85 5.8,7.39 5.55,7.98C5.31,8.58 5.18,9.22 5.19,9.86C5.16,10.57 5.39,11.27 5.84,11.83C5.92,11.89 5.98,11.98 6.01,12.08C6.04,12.18 6.04,12.29 6,12.38C5.95,12.57 5.84,13.01 5.79,13.17C5.78,13.22 5.76,13.27 5.73,13.32C5.69,13.36 5.65,13.4 5.6,13.42C5.55,13.45 5.5,13.46 5.44,13.46C5.39,13.46 5.33,13.45 5.28,13.42C3.9,12.87 3.25,11.34 3.25,9.61C3.25,6.76 5.63,3.35 10.4,3.35C14.2,3.35 16.72,6.13 16.72,9.1C16.72,13.01 14.54,15.95 11.33,15.95C10.85,15.96 10.37,15.85 9.94,15.64C9.51,15.42 9.14,15.1 8.87,14.7C8.87,14.7 8.29,17.02 8.18,17.45C7.95,18.21 7.6,18.93 7.16,19.58C8.08,19.86 9.04,20 10.01,20C11.32,20 12.62,19.74 13.84,19.24C15.05,18.74 16.15,18 17.08,17.07C18.01,16.14 18.74,15.04 19.25,13.83C19.75,12.61 20.01,11.31 20,10C20,7.58 19.13,5.25 17.54,3.43C15.95,1.61 13.76,0.42 11.37,0.09L11.37,0.09C8.97,-0.24 6.54,0.31 4.52,1.64C2.5,2.96 1.03,4.97 0.37,7.29C-0.28,9.62 -0.07,12.1 0.96,14.28C2,16.47 3.78,18.2 6,19.17C5.94,18.4 5.99,17.63 6.16,16.88C6.35,16.04 7.46,11.41 7.46,11.41C7.24,10.92 7.13,10.38 7.13,9.84C7.13,8.35 7.99,7.24 9.06,7.24C9.25,7.24 9.44,7.28 9.61,7.36C9.79,7.43 9.94,7.55 10.07,7.69C10.2,7.83 10.29,8 10.35,8.19C10.41,8.37 10.42,8.56 10.4,8.75C10.4,9.65 9.82,11.01 9.52,12.29C9.46,12.53 9.45,12.77 9.51,13.01C9.56,13.24 9.67,13.46 9.82,13.65C9.97,13.84 10.17,13.99 10.39,14.08C10.61,14.18 10.85,14.23 11.09,14.21C12.99,14.21 14.26,11.78 14.26,8.91C14.26,6.71 12.81,5.07 10.12,5.07C9.48,5.04 8.84,5.15 8.24,5.38C7.64,5.61 7.09,5.96 6.63,6.41Z " /></g></g></svg>