<svg width="24" height="24" fill="none" xmlns="http://www.w3.org/2000/svg"><mask id="a" style="mask-type:alpha" maskUnits="userSpaceOnUse" x="0" y="0" width="24" height="24"><path d="M24 0H0v24h24V0Z" fill="#fff"/></mask><g mask="url(#a)"><path fill-rule="evenodd" clip-rule="evenodd" d="M10 7.737v8.53l6.39-4.27L10 7.737ZM8 4.934v14.13a.484.484 0 0 0 .26.44c.08.04.17.07.26.06.09 0 .18-.03.26-.08l10.6-7.07a.56.56 0 0 0 .16-.18c.04-.07.06-.15.06-.23 0-.09-.02-.17-.06-.24a.69.69 0 0 0-.16-.18l-10.6-7.07a.496.496 0 0 0-.26-.08c-.09 0-.18.02-.26.06-.08.04-.14.11-.19.18-.05.08-.07.17-.07.26Z" fill="currentColor"/></g></svg>