<svg width="24" height="24" fill="none" xmlns="http://www.w3.org/2000/svg"><mask id="a" style="mask-type:alpha" maskUnits="userSpaceOnUse" x="0" y="0" width="24" height="24"><path d="M24 0H0v24h24V0Z" fill="#fff"/></mask><g mask="url(#a)" fill-rule="evenodd" clip-rule="evenodd" fill="currentColor"><path d="M22.589 17.01c.42-.54.23-1.33-1.46-1.87-1.5-.57-3.41-.76-4.97-.59-1.56.17-2.67.57-2.67.57l-.22.07v2.16l3.84-1.36c.66-.23 1.62-.28 2.15-.11.53.18.43.51-.23.74l-5.76 2.06v2.08l7.83-2.82s1.06-.39 1.49-.93Z"/><path d="M14.016 13.47c2.23 1.08 3.99 0 3.99-2.85 0-2.92-1.03-4.22-4.06-5.26-1.2-.41-3.42-1.08-4.94-1.36v15.86l3.58 1.14V7.7c0-.63.28-1.04.73-.9.58.16.7.74.7 1.36v5.31ZM6.54 17.627c-.66.24-1.62.29-2.15.11-.53-.17-.43-.51.22-.74l3.7-1.32v-2.09l-5.14 1.83s-1.24.41-1.97.95c-.79.59-.5 1.61 1.23 2.1 1.86.61 3.75.73 5.53.44l.35-.06v-1.86l-1.77.64Z"/></g></svg>