<svg width="24" height="24" fill="none" xmlns="http://www.w3.org/2000/svg"><mask id="a" style="mask-type:alpha" maskUnits="userSpaceOnUse" x="0" y="0" width="24" height="24"><path d="M24 0H0v24h24V0Z" fill="#fff"/></mask><g mask="url(#a)" fill-rule="evenodd" clip-rule="evenodd" fill="currentColor"><path d="M2 20h10v-2H2v2ZM2 13h14v-2H2v2ZM2 6h20V4H2v2ZM15.55 19.73c.37.52.89.91 1.49 1.11.61.21 1.26.21 1.87.02.6-.19 1.13-.58 1.51-1.09.38-.51.58-1.13.58-1.77v-7h3V9h-5v6.17c-.6-.21-1.25-.23-1.86-.04-.61.18-1.15.55-1.53 1.06-.39.51-.6 1.12-.61 1.76-.01.64.18 1.26.55 1.78Z"/></g></svg>