<svg xmlns="http://www.w3.org/2000/svg" xmlns:xlink="http://www.w3.org/1999/xlink" viewBox="0 0 24 24" fill="none"><defs><rect id="path_0" x="0" y="0" width="24" height="24" /></defs><g opacity="1" transform="translate(0 0)  rotate(0 12 12)"><mask id="bg-mask-0" fill="white"><use xlink:href="#path_0"></use></mask><g mask="url(#bg-mask-0)" ><path id="分组 1" fill-rule="evenodd" style="fill:#000000" transform="translate(8 4.434206892413744)  rotate(0 5.799300000000001 7.565730243452691)" opacity="1" d="M2 3.30274L2 11.8327L8.39 7.56274L2 3.30274Z M0 0.5L0 14.63C0 14.72 0.02 14.81 0.07 14.89C0.12 14.97 0.18 15.03 0.26 15.07C0.34 15.11 0.43 15.14 0.52 15.13C0.61 15.13 0.7 15.1 0.78 15.05L11.38 7.98C11.44 7.94 11.5 7.87 11.54 7.8C11.58 7.73 11.6 7.65 11.6 7.57C11.6 7.48 11.58 7.4 11.54 7.33C11.5 7.26 11.44 7.2 11.38 7.15L0.78 0.08C0.7 0.03 0.61 0 0.52 0C0.43 0 0.34 0.02 0.26 0.06C0.18 0.1 0.12 0.17 0.07 0.24C0.02 0.32 0 0.41 0 0.5Z " /></g></g></svg>