<svg xmlns="http://www.w3.org/2000/svg" xmlns:xlink="http://www.w3.org/1999/xlink" viewBox="0 0 24 24" fill="none"><defs><rect id="path_0" x="0" y="0" width="24" height="24" /></defs><g opacity="1" transform="translate(0 0)  rotate(0 12 12)"><mask id="bg-mask-0" fill="white"><use xlink:href="#path_0"></use></mask><g mask="url(#bg-mask-0)" ><g opacity="1" transform="translate(2 4)  rotate(0 11 8.499209015604304)"><path id="路径 1" fill-rule="evenodd" style="fill:#000000" transform="translate(0 14)  rotate(0 5 1)" opacity="1" d="M0,2L10,2L10,0L0,0L0,2Z " /><path id="路径 2" fill-rule="evenodd" style="fill:#000000" transform="translate(0 7)  rotate(0 7 1)" opacity="1" d="M0,2L14,2L14,0L0,0L0,2Z " /><path id="路径 3" fill-rule="evenodd" style="fill:#000000" transform="translate(0 0)  rotate(0 10 1)" opacity="1" d="M0,2L20,2L20,0L0,0L0,2Z " /><path id="路径 4" fill-rule="evenodd" style="fill:#000000" transform="translate(13.00000719886939 5)  rotate(0 4.499996400565305 5.999209015604304)" opacity="1" d="M0.55,10.73C0.92,11.25 1.44,11.64 2.04,11.84C2.65,12.05 3.3,12.05 3.91,11.86C4.51,11.67 5.04,11.28 5.42,10.77C5.8,10.26 6,9.64 6,9L6,2L9,2L9,0L4,0L4,6.17C3.4,5.96 2.75,5.94 2.14,6.13C1.53,6.31 0.99,6.68 0.61,7.19C0.22,7.7 0.01,8.31 0,8.95C-0.01,9.59 0.18,10.21 0.55,10.73Z " /></g></g></g></svg>