<svg xmlns="http://www.w3.org/2000/svg" xmlns:xlink="http://www.w3.org/1999/xlink" width="24" height="24" viewBox="0 0 24 24" fill="none"><defs><rect id="path_0" x="0" y="0" width="24" height="24" /></defs><g opacity="1" transform="translate(0 0)  rotate(0 12 12)"><mask id="bg-mask-0" fill="white"><use xlink:href="#path_0"></use></mask><g mask="url(#bg-mask-0)" ><path id="分组 1" fill-rule="evenodd" style="fill:#000000" transform="translate(2 2)  rotate(0 10 10)" opacity="1" d="M20 10C20 4.48 15.52 0 10 0C4.48 0 0 4.48 0 10C0 15.52 4.48 20 10 20C15.52 20 20 15.52 20 10Z M8.06 13.4577C8.09 13.5177 8.15 13.5677 8.21 13.6077C8.28 13.6377 8.35 13.6577 8.42 13.6477C8.49 13.6477 8.56 13.6277 8.62 13.5877L13.5 10.3377C13.56 10.2977 13.6 10.2477 13.63 10.1877C13.66 10.1277 13.68 10.0677 13.68 9.99774C13.68 9.93774 13.66 9.86774 13.63 9.80774C13.6 9.75774 13.56 9.70774 13.5 9.66774L8.62 6.41774L8.62 6.41774C8.56 6.37774 8.49 6.34774 8.42 6.34774C8.35 6.34774 8.28 6.35774 8.21 6.39774C8.15 6.42774 8.09 6.47774 8.06 6.53774C8.02 6.60774 8 6.67774 8 6.74774L8 13.2577C8 13.3277 8.02 13.3977 8.06 13.4577Z " /></g></g></svg>