<svg xmlns="http://www.w3.org/2000/svg" xmlns:xlink="http://www.w3.org/1999/xlink" viewBox="0 0 24 24" fill="none"><defs><rect id="path_0" x="0" y="0" width="24" height="24" /></defs><g opacity="1" transform="translate(0 0)  rotate(0 12 12)"><mask id="bg-mask-0" fill="white"><use xlink:href="#path_0"></use></mask><g mask="url(#bg-mask-0)" ><path id="分组 1" fill-rule="evenodd" style="fill:#000000" transform="translate(2 4)  rotate(0 11 8.499209015604304)" opacity="1" d="M0 16L10 16L10 14L0 14L0 16Z M0 9L14 9L14 7L0 7L0 9Z M0 2L20 2L20 0L0 0L0 2Z M19 7L22 7L22 5L17 5L17 11.17C16.4 10.96 15.75 10.94 15.14 11.13C14.53 11.31 13.99 11.68 13.61 12.19C13.22 12.7 13.01 13.31 13 13.95C12.99 14.59 13.18 15.21 13.55 15.73C13.92 16.25 14.44 16.64 15.04 16.84C15.65 17.05 16.3 17.05 16.91 16.86C17.51 16.67 18.04 16.28 18.42 15.77C18.8 15.26 19 14.64 19 14L19 7Z M16.71 14.71C16.89 14.52 17 14.27 17 14C17 13.73 16.89 13.48 16.71 13.29C16.52 13.11 16.27 13 16 13C15.73 13 15.48 13.11 15.29 13.29C15.11 13.48 15 13.73 15 14C15 14.27 15.11 14.52 15.29 14.71C15.48 14.89 15.73 15 16 15C16.27 15 16.52 14.89 16.71 14.71Z " /></g></g></svg>