<svg width="24" height="24" fill="none" xmlns="http://www.w3.org/2000/svg"><mask id="a" style="mask-type:alpha" maskUnits="userSpaceOnUse" x="0" y="0" width="24" height="24"><path d="M24 0H0v24h24V0Z" fill="#fff"/></mask><g mask="url(#a)"><path fill-rule="evenodd" clip-rule="evenodd" d="M22 12c0-5.52-4.48-10-10-10S2 6.48 2 12s4.48 10 10 10 10-4.48 10-10Zm-11.94 3.458c.03.06.09.11.15.15.07.03.14.05.21.04.07 0 .14-.02.2-.06l4.88-3.25c.06-.04.1-.09.13-.15s.05-.12.05-.19c0-.06-.02-.13-.05-.19a.427.427 0 0 0-.13-.14l-4.88-3.25a.372.372 0 0 0-.2-.07c-.07 0-.14.01-.21.05-.06.03-.12.08-.15.14a.42.42 0 0 0-.06.21v6.51c0 .07.02.14.06.2Z" fill="currentColor"/></g></svg>