<svg width="24" height="24" fill="none" xmlns="http://www.w3.org/2000/svg"><mask id="a" style="mask-type:alpha" maskUnits="userSpaceOnUse" x="0" y="0" width="24" height="24"><path d="M24 0H0v24h24V0Z" fill="#fff"/></mask><g mask="url(#a)"><path fill-rule="evenodd" clip-rule="evenodd" d="M2 20h10v-2H2v2Zm0-7h14v-2H2v2Zm0-7h20V4H2v2Zm19 5h3V9h-5v6.17c-.6-.21-1.25-.23-1.86-.04-.61.18-1.15.55-1.53 1.06-.39.51-.6 1.12-.61 1.76a2.994 2.994 0 0 0 2.04 2.89c.61.21 1.26.21 1.87.02.6-.19 1.13-.58 1.51-1.09.38-.51.58-1.13.58-1.77v-7Zm-2.29 7.71c.18-.19.29-.44.29-.71 0-.27-.11-.52-.29-.71-.19-.18-.44-.29-.71-.29-.27 0-.52.11-.71.29-.18.19-.29.44-.29.71 0 .27.11.52.29.71.19.18.44.29.71.29.27 0 .52-.11.71-.29Z" fill="currentColor"/></g></svg>