<svg xmlns="http://www.w3.org/2000/svg" xmlns:xlink="http://www.w3.org/1999/xlink" viewBox="0 0 24 24" fill="none"><defs><rect id="path_0" x="0" y="0" width="24" height="24" /></defs><g opacity="1" transform="translate(0 0)  rotate(0 12 12)"><mask id="bg-mask-0" fill="white"><use xlink:href="#path_0"></use></mask><g mask="url(#bg-mask-0)" ><g opacity="1" transform="translate(0.7800301397558203 4)  rotate(0 10.999776982455046 8.5)"><path id="路径 1" fill-rule="evenodd" style="fill:#000000" transform="translate(12.488969860244179 10.49077018512248)  rotate(0 4.755292052332957 3.1336149074387594)" opacity="1" d="M9.32,2.52C9.74,1.98 9.55,1.19 7.86,0.65C6.36,0.08 4.45,-0.11 2.89,0.06C1.33,0.23 0.22,0.63 0.22,0.63L0,0.7L0,2.86L3.84,1.5C4.5,1.27 5.46,1.22 5.99,1.39C6.52,1.57 6.42,1.9 5.76,2.13L0,4.19L0,6.27L7.83,3.45C7.83,3.45 8.89,3.06 9.32,2.52L9.32,2.52Z " /><path id="路径 2" fill-rule="evenodd" style="fill:#000000" transform="translate(8.226019860244179 0)  rotate(0 4.500475000000001 8.5)" opacity="1" d="M5.01,9.47C7.24,10.55 9,9.47 9,6.62C9,3.7 7.97,2.4 4.94,1.36C3.74,0.95 1.52,0.28 0,0L0,15.86L3.58,17L3.58,3.7C3.58,3.07 3.86,2.66 4.31,2.8C4.89,2.96 5.01,3.54 5.01,4.16L5.01,9.47L5.01,9.47Z " /><path id="路径 3" fill-rule="evenodd" style="fill:#000000" transform="translate(0 9.587)  rotate(0 3.7650099301220896 2.736022061524622)" opacity="1" d="M5.76,4.04C5.1,4.28 4.14,4.33 3.61,4.15C3.08,3.98 3.18,3.64 3.83,3.41L7.53,2.09L7.53,0L2.39,1.83C2.39,1.83 1.15,2.24 0.42,2.78C-0.37,3.37 -0.08,4.39 1.65,4.88C3.51,5.49 5.4,5.61 7.18,5.32L7.53,5.26L7.53,3.4L5.76,4.04Z " /></g></g></g></svg>