<svg xmlns="http://www.w3.org/2000/svg" xmlns:xlink="http://www.w3.org/1999/xlink" width="24" height="24" viewBox="0 0 24 24" fill="none"><defs><rect id="path_0" x="0" y="0" width="24" height="24" /></defs><g opacity="1" transform="translate(0 0)  rotate(0 12 12)"><mask id="bg-mask-0" fill="white"><use xlink:href="#path_0"></use></mask><g mask="url(#bg-mask-0)" ><path id="分组 1" fill-rule="evenodd" style="fill:#000000" transform="translate(1.4142200000000003 2.0999800000000004)  rotate(0 10.39939 10.39991)" opacity="1" d="M0 9.9C0 10.17 0.11 10.42 0.29 10.61L10.19 20.51C10.38 20.69 10.63 20.8 10.9 20.8C11.16 20.8 11.42 20.69 11.61 20.51L20.8 11.32L19.38 1.42L9.49 0L0.29 9.19C0.11 9.38 0 9.63 0 9.9Z M2.41378 9.902L10.9038 18.382L18.6738 10.612L17.6138 3.182L10.1938 2.122L2.41378 9.902Z M15.147 8.49074C15.517 8.11074 15.727 7.60074 15.727 7.07074C15.727 6.54074 15.517 6.03074 15.147 5.66074C14.767 5.28074 14.257 5.07074 13.727 5.07074C13.467 5.07074 13.207 5.12074 12.967 5.22074C12.717 5.32074 12.497 5.47074 12.317 5.66074C12.127 5.84074 11.977 6.06074 11.877 6.30074C11.777 6.55074 11.727 6.81074 11.727 7.07074C11.727 7.60074 11.937 8.11074 12.317 8.49074C12.687 8.86074 13.197 9.07074 13.727 9.07074C14.257 9.07074 14.767 8.86074 15.147 8.49074Z " /></g></g></svg>