<svg width="24" height="24" fill="none" xmlns="http://www.w3.org/2000/svg"><mask id="a" style="mask-type:alpha" maskUnits="userSpaceOnUse" x="0" y="0" width="24" height="24"><path d="M24 0H0v24h24V0Z" fill="#fff"/></mask><g mask="url(#a)"><path fill-rule="evenodd" clip-rule="evenodd" d="M1.414 12c0 .27.11.52.29.71l9.9 9.9c.19.18.44.29.71.29.26 0 .52-.11.71-.29l9.19-9.19-1.42-9.9-9.89-1.42-9.2 9.19c-.18.19-.29.44-.29.71Zm2.414.002 8.49 8.48 7.77-7.77-1.06-7.43-7.42-1.06-7.78 7.78Zm12.733-1.411c.37-.38.58-.89.58-1.42a1.998 1.998 0 0 0-2.76-1.85c-.25.1-.47.25-.65.44-.19.18-.34.4-.44.64-.1.25-.15.51-.15.77a1.998 1.998 0 0 0 2 2c.53 0 1.04-.21 1.42-.58Z" fill="currentColor"/></g></svg>