<svg width="24" height="24" fill="none" xmlns="http://www.w3.org/2000/svg"><mask id="a" style="mask-type:alpha" maskUnits="userSpaceOnUse" x="0" y="0" width="24" height="24"><path d="M24 0H0v24h24V0Z" fill="#fff"/></mask><g mask="url(#a)"><path fill-rule="evenodd" clip-rule="evenodd" d="M12.314 22.9c.26 0 .52-.11.71-.29l9.19-9.19-1.42-9.9-9.89-1.42-9.2 9.19c-.18.19-.29.44-.29.71 0 .27.11.52.29.71l9.9 9.9c.19.18.44.29.71.29Zm3.598-11.879c.24-.1.46-.25.64-.44.19-.18.34-.4.44-.64a2.069 2.069 0 0 0 0-1.54c-.1-.24-.25-.46-.44-.64-.18-.19-.4-.34-.64-.44-.25-.1-.51-.15-.77-.15-.53 0-1.04.21-1.41.59-.38.37-.59.88-.59 1.41 0 .53.21 1.04.59 1.41.18.19.4.34.65.44.24.1.5.15.76.15s.52-.05.77-.15Z" fill="currentColor"/></g></svg>