<svg xmlns="http://www.w3.org/2000/svg" xmlns:xlink="http://www.w3.org/1999/xlink" width="24" height="24" viewBox="0 0 24 24" fill="none"><defs><rect id="path_0" x="0" y="0" width="24" height="24" /></defs><g opacity="1" transform="translate(0 0)  rotate(0 12 12)"><mask id="bg-mask-0" fill="white"><use xlink:href="#path_0"></use></mask><g mask="url(#bg-mask-0)" ><path id="分组 1" fill-rule="evenodd" style="fill:#000000" transform="translate(1.41418 2.0999800000000004)  rotate(0 10.39941 10.39991)" opacity="1" d="M10.9 20.8C11.16 20.8 11.42 20.69 11.61 20.51L20.8 11.32L19.38 1.42L9.49 0L0.29 9.19C0.11 9.38 0 9.63 0 9.9C0 10.17 0.11 10.42 0.29 10.61L10.19 20.51C10.38 20.69 10.63 20.8 10.9 20.8Z M14.4977 8.92144C14.7377 8.82144 14.9577 8.67144 15.1377 8.48144C15.3277 8.30144 15.4777 8.08144 15.5777 7.84144C15.6777 7.59144 15.7277 7.33144 15.7277 7.07144C15.7277 6.81144 15.6777 6.55144 15.5777 6.30144C15.4777 6.06144 15.3277 5.84144 15.1377 5.66144C14.9577 5.47144 14.7377 5.32144 14.4977 5.22144C14.2477 5.12144 13.9877 5.07144 13.7277 5.07144C13.1977 5.07144 12.6877 5.28144 12.3177 5.66144C11.9377 6.03144 11.7277 6.54144 11.7277 7.07144C11.7277 7.60144 11.9377 8.11144 12.3177 8.48144C12.4977 8.67144 12.7177 8.82144 12.9677 8.92144C13.2077 9.02144 13.4677 9.07144 13.7277 9.07144C13.9877 9.07144 14.2477 9.02144 14.4977 8.92144Z " /></g></g></svg>