<svg width="24" height="24" fill="none" xmlns="http://www.w3.org/2000/svg"><mask id="a" style="mask-type:alpha" maskUnits="userSpaceOnUse" x="0" y="0" width="24" height="24"><path d="M24 0H0v24h24V0Z" fill="#fff"/></mask><g mask="url(#a)"><path fill-rule="evenodd" clip-rule="evenodd" d="M6 3v4H3c-.27 0-.52.11-.71.29-.18.19-.29.44-.29.71v10c0 .27.11.52.29.71.19.18.44.29.71.29h3v2c0 .27.11.52.29.71.19.18.44.29.71.29h10c.27 0 .52-.11.71-.29.18-.19.29-.44.29-.71v-2h3c.27 0 .52-.11.71-.29.18-.19.29-.44.29-.71V8c0-.27-.11-.52-.29-.71-.19-.18-.44-.29-.71-.29h-3V3c0-.27-.11-.52-.29-.71-.19-.18-.44-.29-.71-.29H7c-.27 0-.52.11-.71.29-.18.19-.29.44-.29.71Zm0 14v-1c0-.27.11-.52.29-.71.19-.18.44-.29.71-.29h10c.27 0 .52.11.71.29.18.19.29.44.29.71v1h2V9H4v8h2ZM8 7h8V4H8v3Zm0 13h8v-3H8v3Zm-3-8h3v-2H5v2Z" fill="currentColor"/></g></svg>