<svg xmlns="http://www.w3.org/2000/svg" xmlns:xlink="http://www.w3.org/1999/xlink" width="24" height="24" viewBox="0 0 24 24" fill="none"><defs><rect id="path_0" x="0" y="0" width="24" height="24" /></defs><g opacity="1" transform="translate(0 0)  rotate(0 12 12)"><mask id="bg-mask-0" fill="white"><use xlink:href="#path_0"></use></mask><g mask="url(#bg-mask-0)" ><path id="分组 1" fill-rule="evenodd" style="fill:#000000" transform="translate(2 2)  rotate(0 10 10)" opacity="1" d="M4 1L4 5L1 5C0.73 5 0.48 5.11 0.29 5.29C0.11 5.48 0 5.73 0 6L0 16C0 16.27 0.11 16.52 0.29 16.71C0.48 16.89 0.73 17 1 17L4 17L4 19C4 19.27 4.11 19.52 4.29 19.71C4.48 19.89 4.73 20 5 20L15 20C15.27 20 15.52 19.89 15.71 19.71C15.89 19.52 16 19.27 16 19L16 17L19 17C19.27 17 19.52 16.89 19.71 16.71C19.89 16.52 20 16.27 20 16L20 6C20 5.73 19.89 5.48 19.71 5.29C19.52 5.11 19.27 5 19 5L16 5L16 1C16 0.73 15.89 0.48 15.71 0.29C15.52 0.11 15.27 0 15 0L5 0C4.73 0 4.48 0.11 4.29 0.29C4.11 0.48 4 0.73 4 1Z M4 15L4 14C4 13.73 4.11 13.48 4.29 13.29C4.48 13.11 4.73 13 5 13L15 13C15.27 13 15.52 13.11 15.71 13.29C15.89 13.48 16 13.73 16 14L16 15L18 15L18 7L2 7L2 15L4 15Z M6 5L14 5L14 2L6 2L6 5Z M6 18L14 18L14 15L6 15L6 18Z M3 10L6 10L6 8L3 8L3 10Z " /></g></g></svg>