<svg width="24" height="24" fill="none" xmlns="http://www.w3.org/2000/svg"><mask id="a" style="mask-type:alpha" maskUnits="userSpaceOnUse" x="0" y="0" width="24" height="24"><path d="M24 0H0v24h24V0Z" fill="#fff"/></mask><g mask="url(#a)"><path fill-rule="evenodd" clip-rule="evenodd" d="M7 22h10v-5H7v5Zm-2-7h14v5h2c.27 0 .52-.11.71-.29.18-.19.29-.44.29-.71V9c0-.27-.11-.52-.29-.71-.19-.18-.44-.29-.71-.29H3c-.27 0-.52.11-.71.29-.18.19-.29.44-.29.71v10c0 .27.11.52.29.71.19.18.44.29.71.29h2v-5Zm0-3h3v-2H5v2Zm1.29-9.71C6.11 2.48 6 2.73 6 3v3h12V3c0-.27-.11-.52-.29-.71-.19-.18-.44-.29-.71-.29H7c-.27 0-.52.11-.71.29Z" fill="currentColor"/></g></svg>