<svg xmlns="http://www.w3.org/2000/svg" xmlns:xlink="http://www.w3.org/1999/xlink" viewBox="0 0 24 24" fill="none"><defs><rect id="path_0" x="0" y="0" width="24" height="24" /></defs><g opacity="1" transform="translate(0 0)  rotate(0 12 12)"><mask id="bg-mask-0" fill="white"><use xlink:href="#path_0"></use></mask><g mask="url(#bg-mask-0)" ><path id="分组 1" fill-rule="evenodd" style="fill:#000000" transform="translate(2 2)  rotate(0 10 10)" opacity="1" d="M5 20L15 20L15 15L5 15L5 20Z M3 13L17 13L17 18L19 18C19.27 18 19.52 17.89 19.71 17.71C19.89 17.52 20 17.27 20 17L20 7C20 6.73 19.89 6.48 19.71 6.29C19.52 6.11 19.27 6 19 6L1 6C0.73 6 0.48 6.11 0.29 6.29C0.11 6.48 0 6.73 0 7L0 17C0 17.27 0.11 17.52 0.29 17.71C0.48 17.89 0.73 18 1 18L3 18L3 13Z M3 10L6 10L6 8L3 8L3 10Z M4.29 0.29C4.11 0.48 4 0.73 4 1L4 4L16 4L16 1C16 0.73 15.89 0.48 15.71 0.29C15.52 0.11 15.27 0 15 0L5 0C4.73 0 4.48 0.11 4.29 0.29Z " /></g></g></svg>