<svg xmlns="http://www.w3.org/2000/svg" xmlns:xlink="http://www.w3.org/1999/xlink" width="24" height="24" viewBox="0 0 24 24" fill="none"><g opacity="1" transform="translate(0 0)  rotate(0 12 12)"><path id="分组 1" fill-rule="evenodd" style="fill:#000000" transform="translate(3 3)  rotate(0 9 9)" opacity="1" d="M10 18L12 18L12 16L14 16L14 14L15 14L15 12L13 12L13 10L10 10L10 13L13 13L13 14L12 14L12 15L10 15L10 18Z M18 14L16 14L16 16L14 16L14 18L18 18L18 14Z M0 8L8 8L8 0L0 0L0 8Z M2 6L6 6L6 2L2 2L2 6Z M10 8L18 8L18 0L10 0L10 8Z M12 6L16 6L16 2L12 2L12 6Z M0 18L8 18L8 10L0 10L0 18Z M2 16L6 16L6 12L2 12L2 16Z M15 12L18 12L18 10L15 10L15 12Z M3 5L5 5L5 3L3 3L3 5Z M3 15L5 15L5 13L3 13L3 15Z M13 5L15 5L15 3L13 3L13 5Z " /></g></svg>