<svg xmlns="http://www.w3.org/2000/svg" xmlns:xlink="http://www.w3.org/1999/xlink" width="24" height="24" viewBox="0 0 24 24" fill="none"><defs><rect id="path_0" x="0" y="0" width="24" height="24" /></defs><g opacity="1" transform="translate(0 0)  rotate(0 12 12)"><mask id="bg-mask-0" fill="white"><use xlink:href="#path_0"></use></mask><g mask="url(#bg-mask-0)" ><path id="分组 1" fill-rule="evenodd" style="fill:#000000" transform="translate(2 2)  rotate(0 10 10)" opacity="1" d="M20 10C20 4.48 15.52 0 10 0C4.48 0 0 4.48 0 10C0 15.52 4.48 20 10 20C15.52 20 20 15.52 20 10Z M9 15L11 15L11 13L9 13L9 15Z M8.917 6.96C9.107 6.76 9.357 6.61 9.637 6.54C9.917 6.48 10.197 6.49 10.467 6.58C10.737 6.67 10.977 6.83 11.157 7.05C11.337 7.27 11.457 7.53 11.487 7.82C11.527 8.1 11.477 8.38 11.357 8.64C11.237 8.9 11.047 9.12 10.807 9.27C10.567 9.42 10.287 9.5 9.997 9.5C9.737 9.5 9.477 9.61 9.297 9.79C9.107 9.98 8.997 10.23 8.997 10.5L8.997 12L10.997 12L10.997 11.36C11.807 11.11 12.497 10.59 12.947 9.88C13.397 9.17 13.577 8.33 13.457 7.5C13.337 6.67 12.917 5.91 12.287 5.36C11.647 4.81 10.837 4.5 9.997 4.5C9.187 4.5 8.407 4.78 7.777 5.29C7.157 5.81 6.727 6.52 6.567 7.31L8.527 7.71C8.587 7.43 8.717 7.17 8.917 6.96Z " /></g></g></svg>