<svg xmlns="http://www.w3.org/2000/svg" xmlns:xlink="http://www.w3.org/1999/xlink" viewBox="0 0 24 24" fill="none"><defs><rect id="path_0" x="0" y="0" width="24" height="24" /></defs><g opacity="1" transform="translate(0 0)  rotate(0 12 12)"><mask id="bg-mask-0" fill="white"><use xlink:href="#path_0"></use></mask><g mask="url(#bg-mask-0)" ><path id="分组 1" fill-rule="evenodd" style="fill:#000000" transform="translate(2 2)  rotate(0 10 10)" opacity="1" d="M20 10C20 4.48 15.52 0 10 0C4.48 0 0 4.48 0 10C0 15.52 4.48 20 10 20C15.52 20 20 15.52 20 10Z M15.66 15.66C17.16 14.16 18 12.12 18 10C18 7.88 17.16 5.84 15.66 4.34C14.16 2.84 12.12 2 10 2C7.88 2 5.84 2.84 4.34 4.34C2.84 5.84 2 7.88 2 10C2 12.12 2.84 14.16 4.34 15.66C5.84 17.16 7.88 18 10 18C12.12 18 14.16 17.16 15.66 15.66Z M9 15L11 15L11 13L9 13L9 15Z M12.557 10.3989C12.977 9.93887 13.277 9.38887 13.417 8.77887C13.547 8.17887 13.527 7.54887 13.337 6.95887C13.157 6.35887 12.817 5.82887 12.357 5.40887C11.897 4.99887 11.337 4.70887 10.737 4.57887C10.127 4.44887 9.497 4.47887 8.907 4.66887C8.317 4.86887 7.797 5.20887 7.377 5.67887C6.967 6.13887 6.687 6.70887 6.567 7.30887L8.527 7.70887C8.587 7.42887 8.717 7.16887 8.917 6.96887C9.107 6.75887 9.357 6.60887 9.637 6.54887C9.917 6.47887 10.197 6.48887 10.467 6.57887C10.737 6.66887 10.977 6.82887 11.157 7.04887C11.337 7.26887 11.457 7.53887 11.487 7.81887C11.527 8.09887 11.477 8.38887 11.357 8.63887C11.237 8.89887 11.047 9.11887 10.807 9.26887C10.567 9.41887 10.287 9.49887 9.997 9.49887C9.737 9.49887 9.477 9.60887 9.297 9.78887C9.107 9.97887 8.997 10.2389 8.997 10.4989L8.997 11.9989L10.997 11.9989L10.997 11.3589C11.597 11.1789 12.127 10.8489 12.557 10.3989Z " /></g></g></svg>