<svg width="24" height="24" fill="none" xmlns="http://www.w3.org/2000/svg"><mask id="a" style="mask-type:alpha" maskUnits="userSpaceOnUse" x="0" y="0" width="24" height="24"><path d="M24 0H0v24h24V0Z" fill="#fff"/></mask><g mask="url(#a)"><path fill-rule="evenodd" clip-rule="evenodd" d="M22 12c0-5.52-4.48-10-10-10S2 6.48 2 12s4.48 10 10 10 10-4.48 10-10Zm-11 5h2v-2h-2v2Zm-.083-8.04c.19-.2.44-.35.72-.42.28-.06.56-.05.83.04a1.5 1.5 0 0 1 .34 2.69c-.24.15-.52.23-.81.23a1.009 1.009 0 0 0-1 1V14h2v-.64c.81-.25 1.5-.77 1.95-1.48a3.5 3.5 0 0 0-.66-4.52c-.64-.55-1.45-.86-2.29-.86-.81 0-1.59.28-2.22.79-.62.52-1.05 1.23-1.21 2.02l1.96.4c.06-.28.19-.54.39-.75Z" fill="currentColor"/></g></svg>