<svg width="24" height="24" fill="none" xmlns="http://www.w3.org/2000/svg"><mask id="a" style="mask-type:alpha" maskUnits="userSpaceOnUse" x="0" y="0" width="24" height="24"><path d="M24 0H0v24h24V0Z" fill="#fff"/></mask><g mask="url(#a)"><path fill-rule="evenodd" clip-rule="evenodd" d="M22 12c0-5.52-4.48-10-10-10S2 6.48 2 12s4.48 10 10 10 10-4.48 10-10Zm-4.34 5.66C19.16 16.16 20 14.12 20 12s-.84-4.16-2.34-5.66A8.008 8.008 0 0 0 12 4c-2.12 0-4.16.84-5.66 2.34A8.008 8.008 0 0 0 4 12c0 2.12.84 4.16 2.34 5.66S9.88 20 12 20s4.16-.84 5.66-2.34ZM11 17h2v-2h-2v2Zm3.557-4.601c.42-.46.72-1.01.86-1.62.13-.6.11-1.23-.08-1.82a3.43 3.43 0 0 0-.98-1.55c-.46-.41-1.02-.7-1.62-.83a3.55 3.55 0 0 0-1.83.09c-.59.2-1.11.54-1.53 1.01a3.49 3.49 0 0 0-.81 1.63l1.96.4c.06-.28.19-.54.39-.74.19-.21.44-.36.72-.42a1.5 1.5 0 0 1 1.17 2.72c-.24.15-.52.23-.81.23a1.009 1.009 0 0 0-1 1v1.5h2v-.64c.6-.18 1.13-.51 1.56-.96Z" fill="currentColor"/></g></svg>