<svg width="24" height="24" fill="none" xmlns="http://www.w3.org/2000/svg"><mask id="a" style="mask-type:alpha" maskUnits="userSpaceOnUse" x="0" y="0" width="24" height="24"><path d="M24 0H0v24h24V0Z" fill="#fff"/></mask><g mask="url(#a)" fill-rule="evenodd" clip-rule="evenodd" fill="currentColor"><path d="M20.999 10.99c0-1.99-.55-3.22-1.58-4.31a3.88 3.88 0 0 0-2.75-1.18c-.93 0-1.82.37-2.47 1.03-.66.65-1.03 1.54-1.03 2.47 0 1.84 1.42 3.32 3.23 3.49.68.06 1.39-.03 1.93-.31-.27 1.47-.92 3.82-4.25 5.62l.89 1.38c3.57-1.55 6.03-4.69 6.03-8.19ZM9.42 6.68A3.88 3.88 0 0 0 6.67 5.5c-.93 0-1.82.37-2.47 1.03-.66.65-1.03 1.54-1.03 2.47 0 1.84 1.42 3.32 3.23 3.49.68.06 1.39-.03 1.92-.31-.26 1.47-.91 3.82-4.24 5.62l.89 1.38C8.54 17.63 11 14.49 11 10.99c0-1.99-.55-3.22-1.58-4.31Z"/></g></svg>