<svg xmlns="http://www.w3.org/2000/svg" xmlns:xlink="http://www.w3.org/1999/xlink" width="24" height="24" viewBox="0 0 24 24" fill="none"><defs><rect id="path_0" x="0" y="0" width="24" height="24" /></defs><g opacity="1" transform="translate(0 0)  rotate(0 12 12)"><mask id="bg-mask-0" fill="white"><use xlink:href="#path_0"></use></mask><g mask="url(#bg-mask-0)" ><g opacity="1" transform="translate(3 4.823)  rotate(0 8.9155 6.8385)"><path id="路径 1" fill-rule="evenodd" style="fill:#000000" transform="translate(0 0)  rotate(0 3.9154999999999998 6.8385)" opacity="1" d="M2.68 7C3.21 6.72 3.92 6.62 4.61 6.69C6.41 6.86 7.83 8.34 7.83 10.18C7.83 11.11 7.46 12 6.81 12.65C6.15 13.31 5.26 13.68 4.33 13.68C3.26 13.68 2.23 13.19 1.58 12.5C0.55 11.4 0 10.18 0 8.19C0 4.69 2.46 1.55 6.03 0L6.92 1.38C3.59 3.18 2.94 5.52 2.68 7Z" /><path id="路径 2" fill-rule="evenodd" style="fill:#000000" transform="translate(10 0)  rotate(0 3.9154999999999998 6.8385)" opacity="1" d="M6.03 0L6.92 1.38C3.59 3.18 2.94 5.52 2.68 7C3.21 6.72 3.92 6.62 4.61 6.69C6.41 6.86 7.83 8.34 7.83 10.18C7.83 11.11 7.46 12 6.81 12.65C6.15 13.31 5.26 13.68 4.33 13.68C3.26 13.68 2.23 13.19 1.58 12.5C0.55 11.4 0 10.18 0 8.19C0 4.69 2.46 1.55 6.03 0Z" /></g></g></g></svg>