<svg xmlns="http://www.w3.org/2000/svg" xmlns:xlink="http://www.w3.org/1999/xlink" width="24" height="24" viewBox="0 0 24 24" fill="none"><defs><rect id="path_0" x="0" y="0" width="24" height="24" /></defs><g opacity="1" transform="translate(0 0)  rotate(0 12 12)"><mask id="bg-mask-0" fill="white"><use xlink:href="#path_0"></use></mask><g mask="url(#bg-mask-0)" ><g opacity="1" transform="translate(3.1700099999999996 5.5)  rotate(0 8.914995000000001 6.8385)"><path id="路径 1" fill-rule="evenodd" style="fill:#000000" transform="translate(9.998990000000001 0)  rotate(0 3.9154999999999998 6.8385)" opacity="1" d="M7.83,5.49C7.83,3.5 7.28,2.27 6.25,1.18C5.6,0.49 4.57,0 3.5,0C2.57,0 1.68,0.37 1.03,1.03C0.37,1.68 0,2.57 0,3.5C0,5.34 1.42,6.82 3.23,6.99C3.91,7.05 4.62,6.96 5.16,6.68C4.89,8.15 4.24,10.5 0.91,12.3L1.8,13.68C5.37,12.13 7.83,8.99 7.83,5.49Z " /><path id="路径 2" fill-rule="evenodd" style="fill:#000000" transform="translate(0 0)  rotate(0 3.9149950000000002 6.8385)" opacity="1" d="M6.25,1.18L6.25,1.18C5.6,0.49 4.57,0 3.5,0C2.57,0 1.68,0.37 1.03,1.03C0.37,1.68 0,2.57 0,3.5C0,5.34 1.42,6.82 3.23,6.99C3.91,7.05 4.62,6.96 5.15,6.68C4.89,8.15 4.24,10.5 0.91,12.3L1.8,13.68C5.37,12.13 7.83,8.99 7.83,5.49C7.83,3.5 7.28,2.27 6.25,1.18Z " /></g></g></g></svg>