<svg width="24" height="24" fill="none" xmlns="http://www.w3.org/2000/svg"><mask id="a" style="mask-type:alpha" maskUnits="userSpaceOnUse" x="0" y="0" width="24" height="24"><path d="M24 0H0v24h24V0Z" fill="#fff"/></mask><g mask="url(#a)" fill-rule="evenodd" clip-rule="evenodd" fill="currentColor"><path d="M5.68 11.823c.53-.28 1.24-.38 1.93-.31 1.8.17 3.22 1.65 3.22 3.49a3.496 3.496 0 0 1-3.5 3.5c-1.07 0-2.1-.49-2.75-1.18-1.03-1.1-1.58-2.32-1.58-4.31 0-3.5 2.46-6.64 6.03-8.19l.89 1.38c-3.33 1.8-3.98 4.14-4.24 5.62ZM19.03 4.823l.89 1.38c-3.33 1.8-3.98 4.14-4.24 5.62.53-.28 1.24-.38 1.93-.31 1.8.17 3.22 1.65 3.22 3.49a3.496 3.496 0 0 1-3.5 3.5c-1.07 0-2.1-.49-2.75-1.18-1.03-1.1-1.58-2.32-1.58-4.31 0-3.5 2.46-6.64 6.03-8.19Z"/></g></svg>