<svg xmlns="http://www.w3.org/2000/svg" xmlns:xlink="http://www.w3.org/1999/xlink" width="24" height="24" viewBox="0 0 24 24" fill="none"><defs><rect id="path_0" x="0" y="0" width="24" height="24" /></defs><g opacity="1" transform="translate(0 0)  rotate(0 12 12)"><mask id="bg-mask-0" fill="white"><use xlink:href="#path_0"></use></mask><g mask="url(#bg-mask-0)" ><path id="分组 1" fill-rule="evenodd" style="fill:#000000" transform="translate(2 1)  rotate(0 10 10)" opacity="1" d="M17 9L17 5L3 5L3 9L13 9L13 7L15 7L15 9L17 9Z M0.29 2.29C0.11 2.48 0 2.73 0 2.99L0 19.01C0 19.27 0.1 19.52 0.29 19.71C0.48 19.9 0.73 20 0.99 20L19.01 20C19.27 20 19.52 19.89 19.71 19.71C19.89 19.52 20 19.27 20 19.01L20 2.99C20 2.44 19.56 2 19.01 2L6 2L6 0L4 0L4 2L0.99 2C0.73 2 0.48 2.11 0.29 2.29Z M2 18L18 18L18 4L2 4L2 18Z M8.12 16.12C8.68 15.56 9 14.8 9 14C9 13.2 8.68 12.44 8.12 11.88C7.56 11.32 6.8 11 6 11C5.2 11 4.44 11.32 3.88 11.88C3.32 12.44 3 13.2 3 14C3 14.8 3.32 15.56 3.88 16.12C4.44 16.68 5.2 17 6 17C6.8 17 7.56 16.68 8.12 16.12Z " /></g></g></svg>