<svg xmlns="http://www.w3.org/2000/svg" xmlns:xlink="http://www.w3.org/1999/xlink" width="24" height="24" viewBox="0 0 24 24" fill="none"><defs><rect id="path_0" x="0" y="0" width="24" height="24" /></defs><g opacity="1" transform="translate(0 0)  rotate(0 12 12)"><mask id="bg-mask-0" fill="white"><use xlink:href="#path_0"></use></mask><g mask="url(#bg-mask-0)" ><path id="分组 1" fill-rule="evenodd" style="fill:#000000" transform="translate(2 1)  rotate(0 10 10)" opacity="1" d="M18 9L18 5L2 5L2 9L13 9L13 7L15 7L15 9L18 9Z M20 19.01L20 2.99C20 2.44 19.56 2 19.01 2L6 2L6 0L4 0L4 2L0.99 2C0.73 2 0.48 2.11 0.29 2.29C0.11 2.48 0 2.73 0 2.99L0 19.01C0 19.27 0.1 19.52 0.29 19.71C0.48 19.9 0.73 20 0.99 20L19.01 20C19.27 20 19.52 19.89 19.71 19.71C19.89 19.52 20 19.27 20 19.01Z M7.12 17.12C7.68 16.56 8 15.8 8 15C8 14.2 7.68 13.44 7.12 12.88C6.56 12.32 5.8 12 5 12C4.2 12 3.44 12.32 2.88 12.88C2.32 13.44 2 14.2 2 15C2 15.8 2.32 16.56 2.88 17.12C3.44 17.68 4.2 18 5 18C5.8 18 6.56 17.68 7.12 17.12Z " /></g></g></svg>