<svg width="24" height="24" fill="none" xmlns="http://www.w3.org/2000/svg"><mask id="a" style="mask-type:alpha" maskUnits="userSpaceOnUse" x="0" y="0" width="24" height="24"><path d="M24 0H0v24h24V0Z" fill="#fff"/></mask><g mask="url(#a)"><path fill-rule="evenodd" clip-rule="evenodd" d="M19 10V6H5v4h10V8h2v2h2ZM2.29 3.29c-.18.19-.29.44-.29.7v16.02c0 .26.1.51.29.7.19.19.44.29.7.29h18.02c.26 0 .51-.11.7-.29.18-.19.29-.44.29-.7V3.99c0-.55-.44-.99-.99-.99H8V1H6v2H2.99c-.26 0-.51.11-.7.29ZM4 19h16V5H4v14Zm6.12-1.88a2.997 2.997 0 1 0-4.24-4.24 2.997 2.997 0 1 0 4.24 4.24Z" fill="currentColor"/></g></svg>