<svg xmlns="http://www.w3.org/2000/svg" xmlns:xlink="http://www.w3.org/1999/xlink" viewBox="0 0 24 24" fill="none"><defs><rect id="path_0" x="0" y="0" width="24" height="24" /></defs><g opacity="1" transform="translate(0 0)  rotate(0 12 12)"><mask id="bg-mask-0" fill="white"><use xlink:href="#path_0"></use></mask><g mask="url(#bg-mask-0)" ><g opacity="1" transform="translate(1.0010379692414535 1.9999992635563224)  rotate(0 10.99849907590956 10.49975036822184)"><path id="路径 1" fill-rule="evenodd" style="fill:#000000" transform="translate(0 0)  rotate(0 10.99849907590956 8.000000368221839)" opacity="1" d="M16,14L15,14L15,16L16,16C16.83,16 17.65,15.83 18.41,15.49C19.17,15.16 19.86,14.67 20.42,14.06C20.98,13.44 21.41,12.72 21.68,11.94C21.94,11.15 22.05,10.32 21.98,9.49C21.9,8.66 21.66,7.86 21.26,7.13C20.87,6.4 20.32,5.76 19.66,5.25C19.01,4.74 18.25,4.38 17.44,4.18C16.64,3.98 15.8,3.95 14.98,4.09C14.28,2.85 13.27,1.81 12.04,1.1C10.82,0.38 9.42,0 8,0C5.96,0 4.01,0.78 2.52,2.17C1.04,3.56 0.14,5.47 0.02,7.5C-0.11,9.53 0.54,11.53 1.84,13.1C3.13,14.67 4.98,15.68 7,15.94L7,13.92C5.93,13.74 4.93,13.27 4.1,12.56C3.28,11.86 2.66,10.94 2.31,9.91C1.97,8.89 1.91,7.78 2.14,6.72C2.37,5.66 2.88,4.68 3.63,3.89C4.37,3.1 5.31,2.53 6.36,2.23C7.4,1.93 8.5,1.92 9.55,2.21C10.6,2.49 11.55,3.05 12.31,3.83C13.06,4.6 13.59,5.57 13.84,6.63C14.37,6.3 14.96,6.09 15.58,6.02C16.19,5.96 16.82,6.04 17.4,6.25C17.98,6.47 18.5,6.82 18.93,7.28C19.35,7.73 19.66,8.28 19.84,8.88C20.01,9.47 20.04,10.1 19.93,10.71C19.82,11.32 19.57,11.9 19.2,12.4C18.83,12.89 18.34,13.3 17.79,13.58C17.23,13.85 16.62,14 16,14Z " /><path id="路径 2" fill-rule="evenodd" style="fill:#000000" transform="translate(8.498932933350181 14.964000736443676)  rotate(0 2.4999998626079014 3.0177500000000013)" opacity="1" d="M0.19,4.49C0.38,4.95 0.7,5.34 1.11,5.61C1.52,5.89 2.01,6.04 2.5,6.04C2.99,6.04 3.48,5.89 3.89,5.61C4.3,5.34 4.62,4.95 4.81,4.49C5,4.04 5.05,3.53 4.95,3.05C4.86,2.56 4.62,2.12 4.27,1.77L2.5,0L0.73,1.77C0.38,2.12 0.14,2.56 0.05,3.05C-0.05,3.53 0,4.04 0.19,4.49Z " /></g></g></g></svg>