<svg xmlns="http://www.w3.org/2000/svg" xmlns:xlink="http://www.w3.org/1999/xlink" viewBox="0 0 24 24" fill="none"><defs><rect id="path_0" x="0" y="0" width="24" height="24" /></defs><g opacity="1" transform="translate(0 0)  rotate(0 12 12)"><mask id="bg-mask-0" fill="white"><use xlink:href="#path_0"></use></mask><g mask="url(#bg-mask-0)" ><g opacity="1" transform="translate(1.0008515585727995 2.000363449362071)  rotate(0 10.998567249530614 10.499618275318966)"><path id="路径 1" fill-rule="evenodd" style="fill:#000000" transform="translate(0 0)  rotate(0 10.998567249530614 7.999818275318964)" opacity="1" d="M17.44,4.18C16.64,3.98 15.8,3.95 14.98,4.09C14.31,2.89 13.34,1.88 12.16,1.17C10.99,0.45 9.65,0.05 8.28,0C6.91,-0.04 5.55,0.26 4.33,0.89C3.11,1.53 2.07,2.46 1.31,3.61C0.56,4.76 0.11,6.08 0.02,7.45C-0.08,8.82 0.18,10.19 0.77,11.43C1.36,12.67 2.26,13.74 3.38,14.54C4.51,15.33 5.81,15.82 7.18,15.96L10.29,12.85C10.48,12.66 10.73,12.55 11,12.55C11.26,12.55 11.52,12.66 11.71,12.85L14.86,16L14.86,16L16,16C16.83,16 17.65,15.83 18.41,15.49C19.17,15.16 19.86,14.67 20.42,14.06C20.98,13.44 21.41,12.72 21.68,11.94C21.94,11.15 22.05,10.32 21.98,9.49C21.9,8.66 21.66,7.86 21.26,7.13C20.87,6.4 20.32,5.76 19.66,5.25C19.01,4.74 18.25,4.38 17.44,4.18Z " /><path id="路径 2" fill-rule="evenodd" style="fill:#000000" transform="translate(8.49911676058613 14.963636550637927)  rotate(0 2.500001154324253 3.017800000000001)" opacity="1" d="M4.95,3.05C4.86,2.56 4.62,2.12 4.27,1.77L2.5,0L0.73,1.77C0.38,2.12 0.14,2.56 0.05,3.05C-0.05,3.53 0,4.04 0.19,4.49C0.38,4.95 0.7,5.34 1.11,5.61C1.52,5.89 2.01,6.04 2.5,6.04C2.99,6.04 3.48,5.89 3.89,5.61C4.3,5.34 4.62,4.95 4.81,4.49C5,4.04 5.05,3.53 4.95,3.05Z " /></g></g></g></svg>