<svg width="24" height="24" fill="none" xmlns="http://www.w3.org/2000/svg"><mask id="a" style="mask-type:alpha" maskUnits="userSpaceOnUse" x="0" y="0" width="24" height="24"><path d="M24 0H0v24h24V0Z" fill="#fff"/></mask><g mask="url(#a)" fill-rule="evenodd" clip-rule="evenodd" fill="currentColor"><path d="M18.44 6.18c-.8-.2-1.64-.23-2.46-.09a7.9 7.9 0 0 0-2.82-2.92A7.96 7.96 0 0 0 9.28 2c-1.37-.04-2.73.26-3.95.89a8.146 8.146 0 0 0-3.02 2.72 7.993 7.993 0 0 0-1.29 3.84c-.1 1.37.16 2.74.75 3.98a8.106 8.106 0 0 0 2.61 3.11c1.13.79 2.43 1.28 3.8 1.42l3.11-3.11a1 1 0 0 1 .71-.3c.26 0 .52.11.71.3L15.86 18H17c.83 0 1.65-.17 2.41-.51a5.96 5.96 0 0 0 2.01-1.43c.56-.62.99-1.34 1.26-2.12.26-.79.37-1.62.3-2.45-.08-.83-.32-1.63-.72-2.36a5.9 5.9 0 0 0-1.6-1.88 5.87 5.87 0 0 0-2.22-1.07Z"/><path d="M14.45 20.014c-.09-.49-.33-.93-.68-1.28L12 16.964l-1.77 1.77c-.35.35-.59.79-.68 1.28-.1.48-.05.99.14 1.44.19.46.51.85.92 1.12.41.28.9.43 1.39.43.49 0 .98-.15 1.39-.43.41-.27.73-.66.92-1.12.19-.45.24-.96.14-1.44Z"/></g></svg>