<svg width="24" height="24" fill="none" xmlns="http://www.w3.org/2000/svg"><mask id="a" style="mask-type:alpha" maskUnits="userSpaceOnUse" x="0" y="0" width="24" height="24"><path d="M24 0H0v24h24V0Z" fill="#fff"/></mask><g mask="url(#a)" fill-rule="evenodd" clip-rule="evenodd" fill="currentColor"><path d="M17.001 16h-1v2h1c.83 0 1.65-.17 2.41-.51a5.96 5.96 0 0 0 2.01-1.43c.56-.62.99-1.34 1.26-2.12.26-.79.37-1.62.3-2.45-.08-.83-.32-1.63-.72-2.36a5.9 5.9 0 0 0-1.6-1.88 5.87 5.87 0 0 0-2.22-1.07c-.8-.2-1.64-.23-2.46-.09a7.96 7.96 0 0 0-2.94-2.99A7.96 7.96 0 0 0 9.001 2c-2.04 0-3.99.78-5.48 2.17a7.968 7.968 0 0 0-2.5 5.33c-.13 2.03.52 4.03 1.82 5.6a7.992 7.992 0 0 0 5.16 2.84v-2.02a5.988 5.988 0 0 1-2.9-1.36c-.82-.7-1.44-1.62-1.79-2.65-.34-1.02-.4-2.13-.17-3.19a5.93 5.93 0 0 1 1.49-2.83c.74-.79 1.68-1.36 2.73-1.66a5.86 5.86 0 0 1 3.19-.02c1.05.28 2 .84 2.76 1.62.75.77 1.28 1.74 1.53 2.8a4.17 4.17 0 0 1 1.74-.61c.61-.06 1.24.02 1.82.23.58.22 1.1.57 1.53 1.03.42.45.73 1 .91 1.6a4.055 4.055 0 0 1-.64 3.52c-.37.49-.86.9-1.41 1.18-.56.27-1.17.42-1.79.42Z"/><path d="M9.69 21.454c.19.46.51.85.92 1.12.41.28.9.43 1.39.43.49 0 .98-.15 1.39-.43.41-.27.73-.66.92-1.12.19-.45.24-.96.14-1.44-.09-.49-.33-.93-.68-1.28L12 16.964l-1.77 1.77c-.35.35-.59.79-.68 1.28-.1.48-.05.99.14 1.44Z"/></g></svg>