<svg viewBox="0 0 24 24" fill="none" xmlns="http://www.w3.org/2000/svg"><path d="M12 13.5a1.5 1.5 0 1 1 0-3 1.5 1.5 0 0 1 0 3Zm-.528 2.994c.175.21.351.414.528.61.177-.196.353-.399.528-.61-.352.008-.704.008-1.056 0Zm-1.995-.125c-.768-.08-1.53-.203-2.285-.368-.075.35-.132.69-.17 1.016-.19 1.583.075 2.545.478 2.777.403.233 1.368-.019 2.645-.974.263-.197.528-.416.794-.655a20.49 20.49 0 0 1-1.462-1.796Zm7.331-.368a20.17 20.17 0 0 1-2.285.368 20.681 20.681 0 0 1-1.462 1.796c.266.24.531.458.794.655 1.277.955 2.242 1.207 2.645.974.403-.232.667-1.194.479-2.777a11.27 11.27 0 0 0-.17-1.016h-.001Zm1.45-.387c.577 2.64.274 4.74-1.008 5.48-1.282.74-3.253-.048-5.25-1.867-1.997 1.82-3.968 2.606-5.25 1.866-1.282-.74-1.585-2.84-1.009-5.48C3.167 14.794 1.5 13.48 1.5 12s1.667-2.793 4.241-3.614c-.576-2.639-.273-4.74 1.009-5.48 1.282-.74 3.253.048 5.25 1.867 1.997-1.819 3.968-2.606 5.25-1.866 1.282.74 1.585 2.84 1.009 5.48C20.833 9.206 22.5 10.52 22.5 12s-1.667 2.793-4.241 3.614h-.001Zm-7.32-9.779c-.254-.23-.519-.449-.793-.655-1.277-.955-2.242-1.207-2.645-.974-.403.232-.667 1.194-.479 2.777.04.327.096.666.17 1.016a20.68 20.68 0 0 1 2.286-.368c.475-.653.965-1.254 1.462-1.796h-.001Zm3.585 1.796c.802.084 1.568.209 2.285.368.075-.35.132-.69.17-1.016.19-1.583-.075-2.545-.478-2.777-.403-.233-1.368.02-2.645.974-.274.206-.54.425-.794.655.497.542.987 1.143 1.462 1.796Zm-1.995-.125c-.175-.21-.351-.414-.528-.609-.177.195-.353.398-.528.609.352-.007.704-.007 1.056 0Zm-4.156 7.198c-.182-.3-.358-.606-.528-.914-.095.257-.183.51-.263.761.257.056.521.107.79.153h.001Zm1.932.234a22.86 22.86 0 0 0 3.392 0A22.902 22.902 0 0 0 15.392 12a22.892 22.892 0 0 0-1.696-2.938 22.898 22.898 0 0 0-3.392 0A22.893 22.893 0 0 0 8.608 12a22.903 22.903 0 0 0 1.696 2.938Zm5.852-4.728c.095-.257.183-.51.263-.761a17.999 17.999 0 0 0-.79-.153c.182.301.358.606.527.914ZM6.13 9.837c-.34.11-.662.23-.964.36C3.701 10.825 3 11.535 3 12c0 .465.7 1.175 2.166 1.803.302.13.624.25.964.36.222-.7.497-1.426.825-2.163a20.682 20.682 0 0 1-.825-2.163Zm1.45-.388c.081.25.169.504.264.76.17-.308.346-.612.528-.913-.27.046-.534.097-.791.153H7.58Zm10.29 4.714c.34-.11.662-.23.964-.36C20.299 13.175 21 12.465 21 12c0-.465-.7-1.175-2.166-1.803a11.358 11.358 0 0 0-.964-.36c-.222.7-.497 1.426-.825 2.163.328.737.603 1.462.825 2.163Zm-1.45.388a19.17 19.17 0 0 0-.264-.76c-.17.308-.346.612-.528.913.27-.046.534-.097.791-.153h.001Z" fill="currentColor"/></svg>