<svg width="24" height="24" fill="none" xmlns="http://www.w3.org/2000/svg"><mask id="a" style="mask-type:alpha" maskUnits="userSpaceOnUse" x="0" y="0" width="24" height="24"><path d="M24 0H0v24h24V0Z" fill="#fff"/></mask><g mask="url(#a)"><path fill-rule="evenodd" clip-rule="evenodd" d="M13.06 13.06a1.499 1.499 0 1 0-2.12-2.12 1.499 1.499 0 1 0 2.12 2.12Zm-1.058 4.044c.18-.2.35-.4.53-.61-.36.01-.71.01-1.06 0 .18.21.35.41.53.61Zm-4.813-1.103c-.07.35-.13.69-.17 1.02-.19 1.58.08 2.54.48 2.77.4.24 1.37-.02 2.65-.97.26-.2.52-.42.79-.66-.52-.57-1.01-1.17-1.46-1.79-.77-.08-1.53-.2-2.29-.37Zm7.332.37c-.45.62-.94 1.22-1.46 1.79.27.24.53.46.79.66 1.28.95 2.25 1.21 2.65.97.4-.23.67-1.19.48-2.77-.04-.35-.1-.68-.17-1.02-.72.16-1.49.28-2.29.37Zm3.739-.761c2.57-.82 4.24-2.13 4.24-3.61s-1.67-2.79-4.24-3.61c.58-2.64.27-4.74-1.01-5.48-1.28-.74-3.25.04-5.25 1.86-2-1.82-3.97-2.6-5.25-1.86-1.28.74-1.58 2.84-1.01 5.48C3.17 9.21 1.5 10.52 1.5 12s1.67 2.79 4.24 3.61c-.57 2.64-.27 4.74 1.01 5.48 1.28.74 3.25-.04 5.25-1.86 2 1.82 3.97 2.6 5.25 1.86 1.28-.74 1.59-2.84 1.01-5.48ZM10.15 5.185c-1.28-.96-2.25-1.21-2.65-.98-.4.23-.67 1.2-.48 2.78.04.33.1.66.17 1.01.76-.16 1.52-.28 2.29-.36.47-.66.96-1.26 1.46-1.8-.26-.23-.52-.45-.79-.65Zm6.661 2.81c.07-.35.13-.69.17-1.01.19-1.58-.08-2.55-.48-2.78-.4-.23-1.37.02-2.65.98-.27.2-.54.42-.79.65.5.54.99 1.14 1.46 1.8.8.08 1.57.21 2.29.36Zm-4.809-1.098c-.18.2-.35.4-.53.61.35-.01.7-.01 1.06 0-.18-.21-.35-.41-.53-.61ZM7.841 13.79c-.09.26-.18.51-.26.76.26.06.52.11.79.15-.18-.3-.36-.6-.53-.91Zm5.857 1.15c.64-.94 1.2-1.92 1.69-2.94-.49-1.02-1.05-2-1.69-2.94-1.13-.08-2.26-.08-3.39 0-.64.94-1.21 1.92-1.7 2.94.49 1.02 1.06 2 1.7 2.94 1.13.08 2.26.08 3.39 0Zm2.721-5.494-.79-.15c.18.3.36.61.53.91.09-.25.18-.51.26-.76Zm-11.249.751c-1.47.63-2.17 1.34-2.17 1.8 0 .47.7 1.18 2.17 1.81.3.13.62.25.96.36.22-.7.5-1.43.83-2.17-.32-.7-.6-1.42-.83-2.16-.34.11-.66.23-.96.36Zm2.67.009c.17-.31.35-.61.53-.91-.27.05-.53.1-.79.15.08.25.17.51.26.76Zm10.995 3.601c1.46-.63 2.16-1.34 2.16-1.81 0-.46-.7-1.17-2.16-1.8-.32-.13-.64-.25-.97-.36-.22.7-.49 1.43-.82 2.16.33.74.6 1.47.82 2.17.34-.11.67-.23.97-.36Zm-2.677-.016c-.17.31-.35.61-.53.91.27-.04.53-.09.79-.15-.08-.25-.17-.5-.26-.76Z" fill="currentColor"/></g></svg>