<svg xmlns="http://www.w3.org/2000/svg" xmlns:xlink="http://www.w3.org/1999/xlink" viewBox="0 0 24 24" fill="none"><defs><rect id="path_0" x="0" y="0" width="24" height="24" /></defs><g opacity="1" transform="translate(0 0)  rotate(0 12 12)"><mask id="bg-mask-0" fill="white"><use xlink:href="#path_0"></use></mask><g mask="url(#bg-mask-0)" ><path id="分组 1" fill-rule="evenodd" style="fill:#000000" transform="translate(1.5 2.629757717622809)  rotate(0 10.5 9.37031728237719)" opacity="1" d="M11.56 10.4303C11.84 10.1503 12 9.77034 12 9.37034C12 8.97034 11.84 8.59034 11.56 8.31034C11.28 8.03034 10.9 7.87034 10.5 7.87034C10.1 7.87034 9.72 8.03034 9.44 8.31034C9.16 8.59034 9 8.97034 9 9.37034C9 9.77034 9.16 10.1503 9.44 10.4303C9.72 10.7103 10.1 10.8703 10.5 10.8703C10.9 10.8703 11.28 10.7103 11.56 10.4303Z M10.502 14.4743C10.682 14.2743 10.852 14.0743 11.032 13.8643C10.672 13.8743 10.322 13.8743 9.972 13.8643C10.152 14.0743 10.322 14.2743 10.502 14.4743Z M5.68924 13.3713C5.61924 13.7213 5.55924 14.0613 5.51924 14.3913C5.32924 15.9713 5.59924 16.9313 5.99924 17.1613C6.39924 17.4013 7.36924 17.1413 8.64924 16.1913C8.90924 15.9913 9.16924 15.7713 9.43924 15.5313C8.91924 14.9613 8.42924 14.3613 7.97924 13.7413C7.20924 13.6613 6.44924 13.5413 5.68924 13.3713Z M13.021 13.7413C12.571 14.3613 12.081 14.9613 11.561 15.5313C11.831 15.7713 12.091 15.9913 12.351 16.1913C13.631 17.1413 14.601 17.4013 15.001 17.1613C15.401 16.9313 15.671 15.9713 15.481 14.3913C15.441 14.0413 15.381 13.7113 15.311 13.3713L15.311 13.3713C14.591 13.5313 13.821 13.6513 13.021 13.7413Z M16.76 12.98C19.33 12.16 21 10.85 21 9.37C21 7.89 19.33 6.58 16.76 5.76C17.34 3.12 17.03 1.02 15.75 0.28C14.47 -0.46 12.5 0.32 10.5 2.14C8.5 0.32 6.53 -0.46 5.25 0.28C3.97 1.02 3.67 3.12 4.24 5.76C1.67 6.58 0 7.89 0 9.37C0 10.85 1.67 12.16 4.24 12.98C3.67 15.62 3.97 17.72 5.25 18.46C6.53 19.2 8.5 18.42 10.5 16.6C12.5 18.42 14.47 19.2 15.75 18.46C17.03 17.72 17.34 15.62 16.76 12.98L16.76 12.98Z M8.64918 2.55514C7.36918 1.59514 6.39918 1.34514 5.99918 1.57514C5.59918 1.80514 5.32918 2.77514 5.51918 4.35514C5.55918 4.68514 5.61918 5.01514 5.68918 5.36514C6.44918 5.20514 7.20918 5.08514 7.97918 5.00514C8.44918 4.34514 8.93918 3.74514 9.43918 3.20514L9.43918 3.20514C9.17918 2.97514 8.91918 2.75514 8.64918 2.55514Z M15.311 5.36514C15.381 5.01514 15.441 4.67514 15.481 4.35514C15.671 2.77514 15.401 1.80514 15.001 1.57514C14.601 1.34514 13.631 1.59514 12.351 2.55514C12.081 2.75514 11.811 2.97514 11.561 3.20514C12.061 3.74514 12.551 4.34514 13.021 5.00514C13.821 5.08514 14.591 5.21514 15.311 5.36514Z M10.502 4.26729C10.322 4.46729 10.152 4.66729 9.972 4.87729C10.322 4.86729 10.672 4.86729 11.032 4.87729C10.852 4.66729 10.682 4.46729 10.502 4.26729Z M6.341 11.1603C6.251 11.4203 6.161 11.6703 6.081 11.9203C6.341 11.9803 6.601 12.0303 6.871 12.0703L6.871 12.0703C6.691 11.7703 6.511 11.4703 6.341 11.1603Z M12.198 12.3094C12.838 11.3694 13.398 10.3894 13.888 9.3694C13.398 8.3494 12.838 7.3694 12.198 6.4294C11.068 6.3494 9.938 6.3494 8.808 6.4294C8.168 7.3694 7.598 8.3494 7.108 9.3694C7.598 10.3894 8.168 11.3694 8.808 12.3094C9.938 12.3894 11.068 12.3894 12.198 12.3094Z M14.919 6.81629C14.659 6.76629 14.389 6.71629 14.129 6.66629C14.309 6.96629 14.489 7.27629 14.659 7.57629C14.749 7.32629 14.839 7.06629 14.919 6.81629Z M3.67 7.56729C2.2 8.19729 1.5 8.90729 1.5 9.36729C1.5 9.83729 2.2 10.5473 3.67 11.1773C3.97 11.3073 4.29 11.4273 4.63 11.5373C4.85 10.8373 5.13 10.1073 5.46 9.36729C5.14 8.66729 4.86 7.94729 4.63 7.20729C4.29 7.31729 3.97 7.43729 3.67 7.56729Z M6.34 7.57629C6.51 7.26629 6.69 6.96629 6.87 6.66629C6.6 6.71629 6.34 6.76629 6.08 6.81629L6.08 6.81629C6.16 7.06629 6.25 7.32629 6.34 7.57629Z M17.335 11.1773C18.795 10.5473 19.495 9.83729 19.495 9.36729C19.495 8.90729 18.795 8.19729 17.335 7.56729C17.015 7.43729 16.695 7.31729 16.365 7.20729C16.145 7.90729 15.875 8.63729 15.545 9.36729C15.875 10.1073 16.145 10.8373 16.365 11.5373C16.705 11.4273 17.035 11.3073 17.335 11.1773Z M14.658 11.1613C14.488 11.4713 14.308 11.7713 14.128 12.0713C14.398 12.0313 14.658 11.9813 14.918 11.9213L14.918 11.9213C14.838 11.6713 14.748 11.4213 14.658 11.1613Z " /></g></g></svg>