<svg xmlns="http://www.w3.org/2000/svg" xmlns:xlink="http://www.w3.org/1999/xlink" width="24" height="24" viewBox="0 0 24 24" fill="none"><defs><rect id="path_0" x="0" y="0" width="24" height="24" /></defs><g opacity="1" transform="translate(0 0)  rotate(0 12 12)"><mask id="bg-mask-0" fill="white"><use xlink:href="#path_0"></use></mask><g mask="url(#bg-mask-0)" ><path id="分组 1" fill-rule="evenodd" style="fill:#000000" transform="translate(3 2)  rotate(0 9 10)" opacity="1" d="M16 5.14L16 2L2 2L2 5.14C3.33 6.45 5 7.36 6.83 7.76C7.05 7.38 7.36 7.06 7.74 6.84C8.12 6.62 8.56 6.5 9 6.5C9.44 6.5 9.88 6.62 10.26 6.84C10.64 7.06 10.95 7.38 11.17 7.76C13 7.36 14.67 6.45 16 5.14Z M10.47 11.018C10.05 11.328 9.53 11.498 9 11.498C8.47 11.498 7.95 11.328 7.53 11.018C7.1 10.708 6.78 10.268 6.62 9.768C4.95 9.428 3.38 8.738 2 7.748L2 17.998L16 17.998L16 7.748C14.62 8.738 13.05 9.428 11.38 9.768L11.38 9.768C11.22 10.268 10.9 10.708 10.47 11.018Z M17.71 0.29C17.52 0.11 17.27 0 17 0L1 0C0.73 0 0.48 0.11 0.29 0.29C0.11 0.48 0 0.73 0 1L0 19C0 19.27 0.11 19.52 0.29 19.71C0.48 19.89 0.73 20 1 20L17 20C17.27 20 17.52 19.89 17.71 19.71C17.89 19.52 18 19.27 18 19L18 1C18 0.73 17.89 0.48 17.71 0.29Z " /></g></g></svg>