<svg xmlns="http://www.w3.org/2000/svg" xmlns:xlink="http://www.w3.org/1999/xlink" viewBox="0 0 24 24" fill="none"><defs><rect id="path_0" x="0" y="0" width="24" height="24" /></defs><g opacity="1" transform="translate(0 0)  rotate(0 12 12)"><mask id="bg-mask-0" fill="white"><use xlink:href="#path_0"></use></mask><g mask="url(#bg-mask-0)" ><g opacity="1" transform="translate(3 2)  rotate(0 9 10)"><path id="路径 1" fill-rule="evenodd" style="fill:#000000" transform="translate(0 0)  rotate(0 9 3.9000000000000004)" opacity="1" d="M10.28,6.85C10.66,7.08 10.98,7.41 11.19,7.8C13.83,7.31 16.23,5.95 18,3.94L18,1C18,0.73 17.89,0.48 17.71,0.29C17.52,0.11 17.27,0 17,0L1,0C0.73,0 0.48,0.11 0.29,0.29C0.11,0.48 0,0.73 0,1L0,3.94C1.77,5.95 4.17,7.31 6.81,7.8C7.02,7.41 7.34,7.08 7.72,6.85C8.11,6.62 8.55,6.5 9,6.5C9.45,6.5 9.89,6.62 10.28,6.85Z " /><path id="路径 2" fill-rule="evenodd" style="fill:#000000" transform="translate(0 6.724)  rotate(0 9 6.638)" opacity="1" d="M9,4.78C8.48,4.78 7.97,4.61 7.54,4.31C7.12,4 6.8,3.57 6.63,3.08C4.19,2.66 1.9,1.6 0,0L0,12.28C0,12.54 0.11,12.8 0.29,12.98C0.48,13.17 0.73,13.28 1,13.28L17,13.28C17.27,13.28 17.52,13.17 17.71,12.98C17.89,12.8 18,12.54 18,12.28L18,0C16.1,1.6 13.81,2.66 11.37,3.08C11.2,3.57 10.88,4 10.46,4.31C10.03,4.61 9.52,4.78 9,4.78Z " /></g></g></g></svg>