<svg width="24" height="24" fill="none" xmlns="http://www.w3.org/2000/svg"><mask id="a" style="mask-type:alpha" maskUnits="userSpaceOnUse" x="0" y="0" width="24" height="24"><path d="M24 0H0v24h24V0Z" fill="#fff"/></mask><g mask="url(#a)"><path fill-rule="evenodd" clip-rule="evenodd" d="M19 7.14V4H5v3.14c1.33 1.31 3 2.22 4.83 2.62.22-.38.53-.7.91-.92.38-.22.82-.34 1.26-.34.44 0 .88.12 1.26.34.38.22.69.54.91.92 1.83-.4 3.5-1.31 4.83-2.62Zm-5.53 5.878a2.486 2.486 0 0 1-2.94 0c-.43-.31-.75-.75-.91-1.25A12.04 12.04 0 0 1 5 9.748v10.25h14V9.748a12.04 12.04 0 0 1-4.62 2.02c-.16.5-.48.94-.91 1.25ZM20.71 2.29C20.52 2.11 20.27 2 20 2H4c-.27 0-.52.11-.71.29-.18.19-.29.44-.29.71v18c0 .27.11.52.29.71.19.18.44.29.71.29h16c.27 0 .52-.11.71-.29.18-.19.29-.44.29-.71V3c0-.27-.11-.52-.29-.71Z" fill="currentColor"/></g></svg>