<svg width="24" height="24" fill="none" xmlns="http://www.w3.org/2000/svg"><mask id="a" style="mask-type:alpha" maskUnits="userSpaceOnUse" x="0" y="0" width="24" height="24"><path d="M24 0H0v24h24V0Z" fill="#fff"/></mask><g mask="url(#a)" fill-rule="evenodd" clip-rule="evenodd" fill="currentColor"><path d="M10.563 4.13c1.54-.28 3.13-.1 4.57.51 1.45.62 2.68 1.64 3.54 2.95a7.959 7.959 0 0 1 1.33 4.41h-3l3.19 5.74a9.94 9.94 0 0 0 1.81-5.74c0-5.52-4.48-10-10-10-2.4 0-4.73.86-6.54 2.43l1 1.8a7.923 7.923 0 0 1 4.1-2.1ZM4 12h3L3.81 6.26A9.94 9.94 0 0 0 2 12c0 5.52 4.48 10 10 10 2.4 0 4.72-.86 6.54-2.43l-1-1.8a7.962 7.962 0 0 1-4.1 2.1c-1.54.28-3.13.1-4.58-.51a7.995 7.995 0 0 1-3.53-2.95A7.959 7.959 0 0 1 4 12Z"/></g></svg>