<svg xmlns="http://www.w3.org/2000/svg" xmlns:xlink="http://www.w3.org/1999/xlink" viewBox="0 0 24 24" fill="none"><defs><rect id="path_0" x="0" y="0" width="24" height="24" /></defs><g opacity="1" transform="translate(0 0)  rotate(0 12 12)"><mask id="bg-mask-0" fill="white"><use xlink:href="#path_0"></use></mask><g mask="url(#bg-mask-0)" ><g opacity="1" transform="translate(2 2.000000294838747)  rotate(0 10 10.000004850298353)"><path id="路径 1" fill-rule="evenodd" style="fill:#000000" transform="translate(3.463 0)  rotate(0 8.2685 7.8699998525806265)" opacity="1" d="M5.1,2.13C6.64,1.85 8.23,2.03 9.67,2.64C11.12,3.26 12.35,4.28 13.21,5.59C14.08,6.9 14.54,8.43 14.54,10L11.54,10L14.73,15.74C15.87,14.12 16.54,12.14 16.54,10C16.54,4.48 12.06,0 6.54,0C4.14,0 1.81,0.86 0,2.43L1,4.23C2.13,3.14 3.55,2.41 5.1,2.13Z " /><path id="路径 2" fill-rule="evenodd" style="fill:#000000" transform="translate(0 4.260009705161254)  rotate(0 8.2685 7.869999997717727)" opacity="1" d="M2,5.74L5,5.74L1.81,0C0.67,1.62 0,3.6 0,5.74C0,11.26 4.48,15.74 10,15.74C12.4,15.74 14.72,14.88 16.54,13.31L15.54,11.51C14.41,12.6 12.98,13.33 11.44,13.61C9.9,13.89 8.31,13.71 6.86,13.1C5.42,12.48 4.19,11.46 3.33,10.15C2.46,8.84 2,7.31 2,5.74Z " /></g></g></g></svg>