<svg width="24" height="24" fill="none" xmlns="http://www.w3.org/2000/svg"><mask id="a" style="mask-type:alpha" maskUnits="userSpaceOnUse" x="0" y="0" width="24" height="24"><path d="M24 0H0v24h24V0Z" fill="#fff"/></mask><g mask="url(#a)"><path fill-rule="evenodd" clip-rule="evenodd" d="M22 12c0-5.52-4.48-10-10-10S2 6.48 2 12s4.48 10 10 10 10-4.48 10-10Zm-3.038.745c.18-1.66-.24-3.32-1.17-4.69a7.012 7.012 0 0 0-8.76-2.4l.97 1.76c.77-.33 1.6-.47 2.42-.4.83.07 1.63.35 2.32.8.69.46 1.26 1.08 1.66 1.81.39.73.6 1.54.6 2.37h-3l2.82 5.08a6.93 6.93 0 0 0 2.14-4.33Zm-4.967 3.839c-.76.33-1.59.47-2.42.4-.83-.07-1.62-.35-2.32-.8a5.149 5.149 0 0 1-1.66-1.81c-.39-.73-.6-1.54-.6-2.37h3l-2.82-5.08a7.033 7.033 0 0 0-2.14 4.33c-.18 1.66.24 3.32 1.18 4.69a6.957 6.957 0 0 0 3.93 2.81c1.61.44 3.32.29 4.82-.41l-.97-1.76Z" fill="currentColor"/></g></svg>