<svg xmlns="http://www.w3.org/2000/svg" xmlns:xlink="http://www.w3.org/1999/xlink" width="24" height="24" viewBox="0 0 24 24" fill="none"><defs><rect id="path_0" x="0" y="0" width="24" height="24" /></defs><g opacity="1" transform="translate(0 0)  rotate(0 12 12)"><mask id="bg-mask-0" fill="white"><use xlink:href="#path_0"></use></mask><g mask="url(#bg-mask-0)" ><path id="分组 1" fill-rule="evenodd" style="fill:#000000" transform="translate(2 2)  rotate(0 10 10)" opacity="1" d="M20 10C20 4.48 15.52 0 10 0C4.48 0 0 4.48 0 10C0 15.52 4.48 20 10 20C15.52 20 20 15.52 20 10Z M16.962 10.7455C17.142 9.0855 16.722 7.4255 15.792 6.0555C14.852 4.6755 13.452 3.6855 11.852 3.2455C10.242 2.8055 8.542 2.9555 7.032 3.6555L8.002 5.4155C8.772 5.0855 9.602 4.9455 10.422 5.0155C11.252 5.0855 12.052 5.3655 12.742 5.8155C13.432 6.2755 14.002 6.8955 14.402 7.6255C14.792 8.3555 15.002 9.1655 15.002 9.9955L12.002 9.9955L14.822 15.0755C16.032 13.9355 16.792 12.3955 16.962 10.7455Z M11.9954 14.584C11.2354 14.914 10.4054 15.054 9.57543 14.984C8.74543 14.914 7.95543 14.634 7.25543 14.184C6.56543 13.724 5.99543 13.104 5.59543 12.374C5.20543 11.644 4.99543 10.834 4.99543 10.004L7.99543 10.004L5.17543 4.924C3.97543 6.064 3.21543 7.604 3.03543 9.254C2.85543 10.914 3.27543 12.574 4.21543 13.944C5.14543 15.324 6.54543 16.314 8.14543 16.754C9.75543 17.194 11.4654 17.044 12.9654 16.344L11.9954 14.584Z " /></g></g></svg>