<svg xmlns="http://www.w3.org/2000/svg" xmlns:xlink="http://www.w3.org/1999/xlink" width="24" height="24" viewBox="0 0 24 24" fill="none"><defs><rect id="path_0" x="0" y="0" width="24" height="24" /></defs><g opacity="1" transform="translate(0 0)  rotate(0 12 12)"><mask id="bg-mask-0" fill="white"><use xlink:href="#path_0"></use></mask><g mask="url(#bg-mask-0)" ><g opacity="1" transform="translate(2 1.5671375845817117)  rotate(0 10 10.43281673461155)"><path id="路径 1" fill-rule="evenodd" style="fill:#000000" transform="translate(0.8802202807710331 6.4328124154182875)  rotate(0 9.559889859614483 7.216410526902405)" opacity="1" d="M17.12,8C17.12,8.53 16.91,9.04 16.53,9.41C16.16,9.79 15.65,10 15.12,10L0.5,10C0.4,10 0.3,10.03 0.21,10.09C0.13,10.15 0.07,10.23 0.03,10.33C-0.01,10.43 -0.01,10.53 0.02,10.63C0.04,10.73 0.1,10.82 0.18,10.88L4.3,14.32C4.37,14.38 4.46,14.42 4.56,14.43C4.65,14.44 4.75,14.43 4.83,14.39C4.92,14.34 4.99,14.28 5.04,14.2C5.09,14.12 5.12,14.03 5.12,13.93L5.12,12L15.12,12C16.18,12 17.2,11.58 17.95,10.83C18.7,10.08 19.12,9.06 19.12,8L19.12,0L17.12,0L17.12,8Z " /><path id="路径 2" fill-rule="evenodd" style="fill:#000000" transform="translate(0 0)  rotate(0 9.559886758644545 7.216431207709144)" opacity="1" d="M14.08,0.23C14.03,0.31 14,0.41 14,0.5L14,2.43L4,2.43C2.94,2.43 1.92,2.85 1.17,3.6C0.42,4.35 0,5.37 0,6.43L0,14.43L2,14.43L2,6.43C2,5.9 2.21,5.39 2.59,5.02C2.96,4.64 3.47,4.43 4,4.43L18.62,4.43C18.72,4.43 18.82,4.4 18.91,4.34C18.99,4.28 19.05,4.2 19.09,4.1C19.12,4.01 19.13,3.9 19.1,3.8C19.08,3.7 19.02,3.61 18.94,3.55L14.82,0.12C14.75,0.05 14.66,0.02 14.56,0C14.47,-0.01 14.37,0.01 14.29,0.05C14.2,0.09 14.13,0.15 14.08,0.23Z " /></g></g></g></svg>