<svg width="24" height="24" fill="none" xmlns="http://www.w3.org/2000/svg"><mask id="a" style="mask-type:alpha" maskUnits="userSpaceOnUse" x="0" y="0" width="24" height="24"><path d="M24 0H0v24h24V0Z" fill="#fff"/></mask><g mask="url(#a)" fill-rule="evenodd" clip-rule="evenodd" fill="currentColor"><path d="M8 20h10c1.06 0 2.08-.42 2.83-1.17S22 17.06 22 16V8h-2v8c0 .53-.21 1.04-.59 1.41-.37.38-.88.59-1.41.59H3.38c-.1 0-.2.03-.29.09-.08.06-.14.14-.18.24-.04.1-.04.2-.01.3.02.1.08.19.16.25l4.12 3.44c.07.06.16.1.26.11.09.01.19 0 .27-.04.09-.05.16-.11.21-.19.05-.08.08-.17.08-.27V20ZM16 3.997H6c-1.06 0-2.08.42-2.83 1.17S2 6.937 2 7.997v8h2v-8c0-.53.21-1.04.59-1.41.37-.38.88-.59 1.41-.59h14.62c.1 0 .2-.03.29-.09.08-.06.14-.14.18-.24.03-.09.04-.2.01-.3a.42.42 0 0 0-.16-.25l-4.12-3.43a.482.482 0 0 0-.26-.12.503.503 0 0 0-.27.05c-.09.04-.16.1-.21.18a.53.53 0 0 0-.08.27v1.93Z"/><path d="M9 9v1h2v6h2V8h-2L9 9Z"/></g></svg>