<svg xmlns="http://www.w3.org/2000/svg" xmlns:xlink="http://www.w3.org/1999/xlink" viewBox="0 0 24 24" fill="none"><defs><rect id="path_0" x="0" y="0" width="24" height="24" /></defs><g opacity="1" transform="translate(0 0)  rotate(0 12 12)"><mask id="bg-mask-0" fill="white"><use xlink:href="#path_0"></use></mask><g mask="url(#bg-mask-0)" ><path id="路径 1" fill-rule="evenodd" style="fill:#000000" transform="translate(0.4013670000000005 4.4342068924137426)  rotate(0 10.7993165 7.565730243452693)" opacity="1" d="M11.33,0.06C11.25,0.02 11.17,0 11.07,0C10.98,0 10.9,0.03 10.82,0.08L0.22,7.15C0.15,7.2 0.1,7.26 0.06,7.33C0.02,7.4 0,7.48 0,7.57C0,7.65 0.02,7.73 0.06,7.8C0.1,7.87 0.15,7.94 0.22,7.98L10.82,15.05C10.9,15.1 10.98,15.13 11.07,15.13C11.17,15.14 11.25,15.11 11.33,15.07C11.41,15.03 11.48,14.97 11.53,14.89C11.57,14.81 11.6,14.72 11.6,14.63L11.6,8.9L20.82,15.05C20.9,15.1 20.98,15.13 21.07,15.13C21.17,15.14 21.25,15.11 21.33,15.07C21.41,15.03 21.48,14.97 21.53,14.89C21.57,14.81 21.6,14.72 21.6,14.63L21.6,0.5C21.6,0.41 21.57,0.32 21.53,0.24C21.48,0.17 21.41,0.1 21.33,0.06C21.25,0.02 21.17,0 21.07,0C20.98,0 20.9,0.03 20.82,0.08L11.6,6.23L11.6,0.5C11.6,0.41 11.57,0.32 11.53,0.24C11.48,0.17 11.41,0.1 11.33,0.06Z " /></g></g></svg>