<svg width="24" height="24" fill="none" xmlns="http://www.w3.org/2000/svg"><mask id="a" style="mask-type:alpha" maskUnits="userSpaceOnUse" x="0" y="0" width="24" height="24"><path d="M24 0H0v24h24V0Z" fill="#fff"/></mask><g mask="url(#a)"><path fill-rule="evenodd" clip-rule="evenodd" d="M11.731 4.494a.554.554 0 0 0-.26-.06c-.09 0-.17.03-.25.08l-10.6 7.07c-.07.05-.12.11-.16.18-.04.07-.06.15-.06.24 0 .08.02.16.06.23.04.07.09.14.16.18l10.6 7.07c.08.05.16.08.25.08.1.01.18-.02.26-.06.08-.04.15-.1.2-.18.04-.08.07-.17.07-.26v-5.73l9.22 6.15c.08.05.16.08.25.08.1.01.18-.02.26-.06.08-.04.15-.1.2-.18.04-.08.07-.17.07-.26V4.934c0-.09-.03-.18-.07-.26a.578.578 0 0 0-.2-.18.554.554 0 0 0-.26-.06c-.09 0-.17.03-.25.08l-9.22 6.15v-5.73c0-.09-.03-.18-.07-.26a.578.578 0 0 0-.2-.18Z" fill="currentColor"/></g></svg>