<svg width="24" height="24" fill="none" xmlns="http://www.w3.org/2000/svg"><mask id="a" style="mask-type:alpha" maskUnits="userSpaceOnUse" x="0" y="0" width="24" height="24"><path d="M24 0H0v24h24V0Z" fill="#fff"/></mask><g mask="url(#a)"><path fill-rule="evenodd" clip-rule="evenodd" d="M18 12v7h1V6.83L17.17 5H16v4H7V5H5v14h1v-7h12Zm3-5.59c0-.26-.11-.52-.29-.7L18 3H4c-.27 0-.52.11-.71.29-.18.19-.29.44-.29.71v16c0 .27.11.52.29.71.19.18.44.29.71.29h16c.27 0 .52-.11.71-.29.18-.19.29-.44.29-.71V6.41ZM8 19h8v-5H8v5Z" fill="currentColor"/></g></svg>