<svg width="24" height="24" fill="none" xmlns="http://www.w3.org/2000/svg"><mask id="a" style="mask-type:alpha" maskUnits="userSpaceOnUse" x="0" y="0" width="24" height="24"><path d="M24 0H0v24h24V0Z" fill="#fff"/></mask><g mask="url(#a)"><path fill-rule="evenodd" clip-rule="evenodd" d="M3 4v16c0 .27.11.52.29.71.19.18.44.29.71.29h16c.27 0 .52-.11.71-.29.18-.19.29-.44.29-.71V6.41c0-.26-.11-.52-.29-.7L18 3H4c-.27 0-.52.11-.71.29-.18.19-.29.44-.29.71Zm4 5h9V4H7v5ZM6 19h12v-7H6v7Zm7-11h2V5h-2v3Z" fill="currentColor"/></g></svg>