<svg xmlns="http://www.w3.org/2000/svg" xmlns:xlink="http://www.w3.org/1999/xlink" viewBox="0 0 24 24" fill="none"><g opacity="1" transform="translate(0 0)  rotate(0 12 12)"><g opacity="1" transform="translate(3 3)  rotate(0 9 9)"><path id="路径 2" fill-rule="evenodd" style="fill:#000000" transform="translate(12 0)  rotate(0 3 2.5)" opacity="1" d="M0,2L4,2L4,5L6,5L6,0L0,0L0,2Z " /><path id="路径 3" fill-rule="evenodd" style="fill:#000000" transform="translate(0 0)  rotate(0 3 2.5)" opacity="1" d="M0,0L0,5L2,5L2,2L6,2L6,0L0,0Z " /><path id="路径 4" fill-rule="evenodd" style="fill:#000000" transform="translate(12 13)  rotate(0 3 2.5)" opacity="1" d="M6,5L6,0L4,0L4,3L0,3L0,5L6,5Z " /><path id="路径 5" fill-rule="evenodd" style="fill:#000000" transform="translate(0 13)  rotate(0 3 2.5)" opacity="1" d="M6,3L2,3L2,0L0,0L0,5L6,5L6,3Z " /><path id="路径 6" fill-rule="evenodd" style="fill:#000000" transform="translate(0 8)  rotate(0 9 1)" opacity="1" d="M0,2L18,2L18,0L0,0L0,2Z " /></g></g></svg>