<svg xmlns="http://www.w3.org/2000/svg" xmlns:xlink="http://www.w3.org/1999/xlink" viewBox="0 0 24 24" fill="none"><defs><rect id="path_0" x="0" y="0" width="24" height="24" /></defs><g opacity="1" transform="translate(0 0)  rotate(0 12 12)"><mask id="bg-mask-0" fill="white"><use xlink:href="#path_0"></use></mask><g mask="url(#bg-mask-0)" ><path id="分组 1" fill-rule="evenodd" style="fill:#000000" transform="translate(3 3)  rotate(0 9 9)" opacity="1" d="M16 8L16 2L2 2L2 8L16 8Z M0 17C0 17.27 0.11 17.52 0.29 17.71C0.48 17.89 0.73 18 1 18L17 18C17.27 18 17.52 17.89 17.71 17.71C17.89 17.52 18 17.27 18 17L18 1C18 0.73 17.89 0.48 17.71 0.29C17.52 0.11 17.27 0 17 0L1 0C0.73 0 0.48 0.11 0.29 0.29C0.11 0.48 0 0.73 0 1L0 17Z M2 10L2 16L16 16L16 10L2 10Z M4 14L7 14L7 12L4 12L4 14Z M4 6L7 6L7 4L4 4L4 6Z " /></g></g></svg>