<svg xmlns="http://www.w3.org/2000/svg" xmlns:xlink="http://www.w3.org/1999/xlink" viewBox="0 0 24 24" fill="none"><defs><rect id="path_0" x="0" y="0" width="24" height="24" /></defs><g opacity="1" transform="translate(0 0)  rotate(0 12 12)"><mask id="bg-mask-0" fill="white"><use xlink:href="#path_0"></use></mask><g mask="url(#bg-mask-0)" ><path id="分组 1" fill-rule="evenodd" style="fill:#000000" transform="translate(1.9974349999999994 1.9973175000000012)  rotate(0 10.002632499999999 10.002691249999998)" opacity="1" d="M19.87 8.37C18.77 8.4 17.78 7.87 17.39 6.94C17.01 6.01 17.34 4.94 18.13 4.18C17.5 3.29 16.72 2.51 15.83 1.87C15.07 2.67 13.99 3 13.06 2.61C12.13 2.23 11.61 1.24 11.63 0.13C10.55 -0.04 9.45 -0.04 8.37 0.13C8.4 1.24 7.87 2.23 6.94 2.61C6.01 3 4.94 2.67 4.18 1.87C3.29 2.51 2.51 3.29 1.87 4.18C2.67 4.94 3 6.01 2.61 6.94C2.23 7.87 1.24 8.4 0.13 8.37C-0.04 9.45 -0.04 10.55 0.13 11.63L0.13 11.63C1.24 11.61 2.23 12.13 2.61 13.06C3 13.99 2.67 15.07 1.87 15.83C2.51 16.72 3.29 17.5 4.18 18.13C4.94 17.34 6.01 17.01 6.94 17.39C7.87 17.78 8.4 18.77 8.37 19.87C9.45 20.05 10.55 20.05 11.63 19.87C11.61 18.77 12.13 17.78 13.06 17.39C13.99 17.01 15.07 17.34 15.83 18.13C16.72 17.5 17.5 16.72 18.13 15.83C17.34 15.07 17.01 13.99 17.39 13.06C17.78 12.13 18.77 11.61 19.87 11.63C20.05 10.55 20.05 9.45 19.87 8.37Z M12.1225 12.1227C12.6825 11.5627 13.0025 10.8027 13.0025 10.0027C13.0025 9.20269 12.6825 8.44269 12.1225 7.88269C11.5625 7.32269 10.8025 7.00269 10.0025 7.00269C9.20253 7.00269 8.44254 7.32269 7.88253 7.88269C7.32254 8.44269 7.00253 9.20269 7.00253 10.0027C7.00253 10.8027 7.32254 11.5627 7.88253 12.1227C8.44254 12.6827 9.20253 13.0027 10.0025 13.0027C10.8025 13.0027 11.5625 12.6827 12.1225 12.1227Z " /></g></g></svg>