<svg width="24" height="24" fill="none" xmlns="http://www.w3.org/2000/svg"><mask id="a" style="mask-type:alpha" maskUnits="userSpaceOnUse" x="0" y="0" width="24" height="24"><path d="M24 0H0v24h24V0Z" fill="#fff"/></mask><g mask="url(#a)"><path fill-rule="evenodd" clip-rule="evenodd" d="M15.057 4.607c-.76-.31-1.13-1.28-1-2.39a9.864 9.864 0 0 0-4.12 0c.13 1.11-.23 2.07-1 2.39-.76.32-1.71-.11-2.4-.98a9.845 9.845 0 0 0-2.91 2.91c.87.69 1.3 1.64.98 2.4-.31.77-1.28 1.13-2.39 1a9.864 9.864 0 0 0 0 4.12c1.11-.13 2.07.24 2.39 1 .32.77-.11 1.71-.98 2.41a9.964 9.964 0 0 0 2.91 2.91c.69-.88 1.64-1.3 2.4-.99.77.32 1.13 1.29 1 2.4 1.36.29 2.76.29 4.12 0-.13-1.11.24-2.08 1-2.4.77-.31 1.71.11 2.41.99 1.16-.76 2.15-1.75 2.91-2.91-.88-.7-1.3-1.64-.99-2.41.32-.76 1.29-1.13 2.4-1 .29-1.36.29-2.76 0-4.12-1.11.13-2.08-.23-2.4-1-.31-.76.11-1.71.99-2.4a9.964 9.964 0 0 0-2.91-2.91c-.7.87-1.64 1.3-2.41.98Zm-11.06 7.6c1.1.31 2.01 1 2.46 2.09.45 1.08.3 2.22-.26 3.21.09.1.19.2.29.3 1-.56 2.13-.71 3.22-.26 1.08.45 1.78 1.35 2.08 2.45.14.01.28.01.42 0 .31-1.1 1-2 2.09-2.45 1.08-.45 2.22-.3 3.21.26l.3-.3c-.56-.99-.71-2.13-.26-3.21.45-1.09 1.35-1.78 2.45-2.09.01-.14.01-.28 0-.42-1.1-.3-2-1-2.45-2.08-.45-1.09-.3-2.22.26-3.22-.1-.1-.2-.2-.3-.29-.99.56-2.13.71-3.21.26-1.09-.45-1.78-1.36-2.09-2.46h-.42c-.3 1.1-1 2.01-2.08 2.46-1.09.45-2.22.3-3.22-.26-.1.09-.2.19-.29.29.56 1 .71 2.13.26 3.22-.45 1.08-1.36 1.78-2.46 2.08v.42ZM14.12 14.12a2.997 2.997 0 1 0-4.24-4.24 2.997 2.997 0 1 0 4.24 4.24Zm-1.41-1.41c.18-.19.29-.44.29-.71 0-.27-.11-.52-.29-.71-.19-.18-.44-.29-.71-.29-.27 0-.52.11-.71.29-.18.19-.29.44-.29.71 0 .27.11.52.29.71.19.18.44.29.71.29.27 0 .52-.11.71-.29Z" fill="currentColor"/></g></svg>