<svg xmlns="http://www.w3.org/2000/svg" xmlns:xlink="http://www.w3.org/1999/xlink" viewBox="0 0 24 24" fill="none"><defs><rect id="path_0" x="0" y="0" width="24" height="24" /></defs><g opacity="1" transform="translate(0 0)  rotate(0 12 12)"><mask id="bg-mask-0" fill="white"><use xlink:href="#path_0"></use></mask><g mask="url(#bg-mask-0)" ><path id="分组 1" fill-rule="evenodd" style="fill:#000000" transform="translate(1.9973174999999994 1.9973174999999994)  rotate(0 10.002691250000002 10.002691250000002)" opacity="1" d="M13.06 2.61C12.3 2.3 11.93 1.33 12.06 0.22C10.7 -0.07 9.3 -0.07 7.94 0.22C8.07 1.33 7.71 2.29 6.94 2.61C6.18 2.93 5.23 2.5 4.54 1.63C3.38 2.38 2.38 3.38 1.63 4.54C2.5 5.23 2.93 6.18 2.61 6.94C2.3 7.71 1.33 8.07 0.22 7.94C-0.07 9.3 -0.07 10.7 0.22 12.06C1.33 11.93 2.29 12.3 2.61 13.06C2.93 13.83 2.5 14.77 1.63 15.47C2.38 16.63 3.38 17.62 4.54 18.38C5.23 17.5 6.18 17.08 6.94 17.39C7.71 17.71 8.07 18.68 7.94 19.79C9.3 20.08 10.7 20.08 12.06 19.79C11.93 18.68 12.3 17.71 13.06 17.39C13.83 17.08 14.77 17.5 15.47 18.38C16.63 17.62 17.62 16.63 18.38 15.47C17.5 14.77 17.08 13.83 17.39 13.06C17.71 12.3 18.68 11.93 19.79 12.06C20.08 10.7 20.08 9.3 19.79 7.94C18.68 8.07 17.71 7.71 17.39 6.94C17.08 6.18 17.5 5.23 18.38 4.54C17.62 3.38 16.63 2.38 15.47 1.63C14.77 2.5 13.83 2.93 13.06 2.61Z M1.99969 10.2099C3.09969 10.5199 4.00969 11.2099 4.45969 12.2999C4.90969 13.3799 4.75969 14.5199 4.19969 15.5099C4.28969 15.6099 4.38969 15.7099 4.48969 15.8099C5.48969 15.2499 6.61969 15.0999 7.70969 15.5499C8.78969 15.9999 9.48969 16.8999 9.78969 17.9999C9.92969 18.0099 10.0697 18.0099 10.2097 17.9999C10.5197 16.8999 11.2097 15.9999 12.2997 15.5499C13.3797 15.0999 14.5197 15.2499 15.5097 15.8099C15.6097 15.7099 15.7097 15.6099 15.8097 15.5099C15.2497 14.5199 15.0997 13.3799 15.5497 12.2999C15.9997 11.2099 16.8997 10.5199 17.9997 10.2099C18.0097 10.0699 18.0097 9.92991 17.9997 9.78991C16.8997 9.48991 15.9997 8.78991 15.5497 7.70991C15.0997 6.61991 15.2497 5.48991 15.8097 4.48991C15.7097 4.38991 15.6097 4.28991 15.5097 4.19991C14.5197 4.75991 13.3797 4.90991 12.2997 4.45991C11.2097 4.00991 10.5197 3.09991 10.2097 1.99991C10.0697 1.99991 9.92969 1.99991 9.78969 1.99991C9.48969 3.09991 8.78969 4.00991 7.70969 4.45991C6.61969 4.90991 5.48969 4.75991 4.48969 4.19991C4.38969 4.28991 4.28969 4.38991 4.19969 4.48991C4.75969 5.48991 4.90969 6.61991 4.45969 7.70991C4.00969 8.78991 3.09969 9.48991 1.99969 9.78991C1.99969 9.92991 1.99969 10.0699 1.99969 10.2099Z M12.1227 12.1227C12.6827 11.5627 13.0027 10.8027 13.0027 10.0027C13.0027 9.20269 12.6827 8.44269 12.1227 7.88269C11.5627 7.32269 10.8027 7.00269 10.0027 7.00269C9.20269 7.00269 8.44269 7.32269 7.88269 7.88269C7.32269 8.44269 7.00269 9.20269 7.00269 10.0027C7.00269 10.8027 7.32269 11.5627 7.88269 12.1227C8.44269 12.6827 9.20269 13.0027 10.0027 13.0027C10.8027 13.0027 11.5627 12.6827 12.1227 12.1227Z M10.7127 10.7127C10.8927 10.5227 11.0027 10.2727 11.0027 10.0027C11.0027 9.73268 10.8927 9.48268 10.7127 9.29268C10.5227 9.11268 10.2727 9.00268 10.0027 9.00268C9.73268 9.00268 9.48268 9.11268 9.29268 9.29268C9.11268 9.48268 9.00268 9.73268 9.00268 10.0027C9.00268 10.2727 9.11268 10.5227 9.29268 10.7127C9.48268 10.8927 9.73268 11.0027 10.0027 11.0027C10.2727 11.0027 10.5227 10.8927 10.7127 10.7127Z " /></g></g></svg>