<svg width="24" height="24" fill="none" xmlns="http://www.w3.org/2000/svg"><mask id="a" style="mask-type:alpha" maskUnits="userSpaceOnUse" x="0" y="0" width="24" height="24"><path d="M24 0H0v24h24V0Z" fill="#fff"/></mask><g mask="url(#a)"><path fill-rule="evenodd" clip-rule="evenodd" d="M21.867 10.367c-1.1.03-2.09-.5-2.48-1.43-.38-.93-.05-2 .74-2.76a9.89 9.89 0 0 0-2.3-2.31c-.76.8-1.84 1.13-2.77.74-.93-.38-1.45-1.37-1.43-2.48-1.08-.17-2.18-.17-3.26 0 .03 1.11-.5 2.1-1.43 2.48-.93.39-2 .06-2.76-.74-.89.64-1.67 1.42-2.31 2.31.8.76 1.13 1.83.74 2.76-.38.93-1.37 1.46-2.48 1.43-.17 1.08-.17 2.18 0 3.26 1.11-.02 2.1.5 2.48 1.43.39.93.06 2.01-.74 2.77a9.89 9.89 0 0 0 2.31 2.3c.76-.79 1.83-1.12 2.76-.74.93.39 1.46 1.38 1.43 2.48 1.08.18 2.18.18 3.26 0-.02-1.1.5-2.09 1.43-2.48.93-.38 2.01-.05 2.77.74a9.66 9.66 0 0 0 2.3-2.3c-.79-.76-1.12-1.84-.74-2.77.39-.93 1.38-1.45 2.48-1.43.18-1.08.18-2.18 0-3.26ZM14.12 14.12a2.997 2.997 0 1 0-4.24-4.24 2.997 2.997 0 1 0 4.24 4.24Z" fill="currentColor"/></g></svg>