<svg xmlns="http://www.w3.org/2000/svg" xmlns:xlink="http://www.w3.org/1999/xlink" viewBox="0 0 24 24" fill="none"><g opacity="1" transform="translate(0 0)  rotate(0 12 12)"><path id="分组 1" fill-rule="evenodd" style="fill:#000000" transform="translate(2 2)  rotate(0 10 10)" opacity="1" d="M14 18L14 20L20 20L20 14L18 14L18 6L20 6L20 0L14 0L14 2L6 2L6 0L0 0L0 6L2 6L2 14L0 14L0 20L6 20L6 18L14 18Z M14 16L14 14L16 14L16 6L14 6L14 4L6 4L6 6L4 6L4 14L6 14L6 16L14 16Z M2 4L4 4L4 2L2 2L2 4Z M2 18L4 18L4 16L2 16L2 18Z M16 4L18 4L18 2L16 2L16 4Z M16 18L18 18L18 16L16 16L16 18Z " /></g></svg>