<svg xmlns="http://www.w3.org/2000/svg" xmlns:xlink="http://www.w3.org/1999/xlink" width="24" height="24" viewBox="0 0 24 24" fill="none"><g opacity="1" transform="translate(0 0)  rotate(0 12 12)"><g opacity="1" transform="translate(2 2)  rotate(0 10 10)"><path id="路径 2" fill-rule="evenodd" style="fill:#000000" transform="translate(0 0)  rotate(0 2.5 2.5)" opacity="1" d="M0,5L5,5L5,0L0,0L0,5Z " /><path id="路径 3" fill-rule="evenodd" style="fill:#000000" transform="translate(0 15)  rotate(0 2.5 2.5)" opacity="1" d="M0,5L5,5L5,0L0,0L0,5Z " /><path id="路径 4" fill-rule="evenodd" style="fill:#000000" transform="translate(15 0)  rotate(0 2.5 2.5)" opacity="1" d="M0,5L5,5L5,0L0,0L0,5Z " /><path id="路径 5" fill-rule="evenodd" style="fill:#000000" transform="translate(15 15)  rotate(0 2.5 2.5)" opacity="1" d="M0,5L5,5L5,0L0,0L0,5Z " /><path id="路径 6" fill-rule="evenodd" style="fill:#000000" transform="translate(6 2)  rotate(0 4 1)" opacity="1" d="M0,2L8,2L8,0L0,0L0,2Z " /><path id="路径 7" fill-rule="evenodd" style="fill:#000000" transform="translate(2 6)  rotate(0 1 4)" opacity="1" d="M0,8L2,8L2,0L0,0L0,8Z " /><path id="路径 8" fill-rule="evenodd" style="fill:#000000" transform="translate(16 6)  rotate(0 1 4)" opacity="1" d="M0,8L2,8L2,0L0,0L0,8Z " /><path id="路径 9" fill-rule="evenodd" style="fill:#000000" transform="translate(6 16)  rotate(0 4 1)" opacity="1" d="M0,2L8,2L8,0L0,0L0,2Z " /></g></g></svg>