<svg width="24" height="24" fill="none" xmlns="http://www.w3.org/2000/svg"><mask id="a" style="mask-type:alpha" maskUnits="userSpaceOnUse" x="0" y="0" width="24" height="24"><path d="M24 0H0v24h24V0Z" fill="#fff"/></mask><g mask="url(#a)"><path fill-rule="evenodd" clip-rule="evenodd" d="M13 14v5.5L23.5 11 13 2.5V8C7.48 8 3 12.48 3 18c0 .27.01.54.03.81a9.06 9.06 0 0 1 3.32-3.52A9.05 9.05 0 0 1 11 14h2Zm-3.327-3.278a7.989 7.989 0 0 0-2.73 2.05c1.29-.51 2.67-.77 4.06-.77h4v3.31l5.32-4.31-5.32-4.31v3.31h-2c-1.15 0-2.29.24-3.33.72Z" fill="currentColor"/></g></svg>