<svg width="24" height="24" fill="none" xmlns="http://www.w3.org/2000/svg"><mask id="a" style="mask-type:alpha" maskUnits="userSpaceOnUse" x="0" y="0" width="24" height="24"><path d="M24 0H0v24h24V0Z" fill="#fff"/></mask><g mask="url(#a)" fill-rule="evenodd" clip-rule="evenodd" fill="currentColor"><path d="M9 3H3c-.27 0-.52.11-.71.29-.18.19-.29.44-.29.71v16c0 .27.11.52.29.71.19.18.44.29.71.29h18c.27 0 .52-.11.71-.29.18-.19.29-.44.29-.71V10h-2v9H4V5h5V3Z"/><path d="M14 4.996a4.014 4.014 0 0 0-4 4v6h2v-6c0-.53.21-1.04.59-1.41.37-.38.88-.59 1.41-.59h8.33c.12 0 .23-.03.33-.1.1-.06.18-.16.22-.27.05-.11.06-.23.04-.34a.593.593 0 0 0-.17-.31L17.41.636 16 2.046l2.95 2.95H14Z"/></g></svg>