<svg width="24" height="24" fill="none" xmlns="http://www.w3.org/2000/svg"><mask id="a" style="mask-type:alpha" maskUnits="userSpaceOnUse" x="0" y="0" width="24" height="24"><path d="M24 0H0v24h24V0Z" fill="#fff"/></mask><g mask="url(#a)"><path fill-rule="evenodd" clip-rule="evenodd" d="M20.07 4.32c-.4-.73-1.06-1.3-1.84-1.6-.79-.29-1.66-.29-2.45 0-.79.29-1.44.86-1.85 1.59-.4.74-.53 1.6-.35 2.42L8.47 9.52c-.49-.49-1.12-.82-1.8-.95a3.42 3.42 0 0 0-2.02.2c-.63.27-1.18.71-1.56 1.29-.39.57-.59 1.25-.59 1.94s.2 1.37.59 1.94c.38.58.93 1.03 1.56 1.29.64.27 1.35.34 2.02.21.68-.14 1.31-.47 1.8-.96l5.11 2.79c-.18.82-.05 1.68.35 2.42a3.52 3.52 0 0 0 4.3 1.59c.78-.3 1.44-.86 1.84-1.6.4-.74.53-1.6.35-2.42a3.55 3.55 0 0 0-1.32-2.06 3.5 3.5 0 0 0-2.34-.69c-.84.06-1.63.41-2.23 1.01l-5.11-2.79c.11-.48.11-.98 0-1.46l5.11-2.79c.6.6 1.39.95 2.23 1.01a3.5 3.5 0 0 0 2.34-.69 3.55 3.55 0 0 0 1.32-2.06c.18-.82.05-1.68-.35-2.42Z" fill="currentColor"/></g></svg>