<svg width="24" height="24" fill="none" xmlns="http://www.w3.org/2000/svg"><mask id="a" style="mask-type:alpha" maskUnits="userSpaceOnUse" x="0" y="0" width="24" height="24"><path d="M24 0H0v24h24V0Z" fill="#fff"/></mask><g mask="url(#a)"><path fill-rule="evenodd" clip-rule="evenodd" d="M20.51 19.918a4.005 4.005 0 0 0-1.17-5.16c-.79-.57-1.76-.83-2.72-.74-.97.09-1.88.54-2.54 1.25l-4.2-2.29c.16-.64.16-1.31 0-1.96l4.2-2.29a3.96 3.96 0 0 0 2.54 1.25c.97.09 1.94-.17 2.72-.74.79-.57 1.35-1.41 1.56-2.36.22-.95.08-1.94-.39-2.8a4.026 4.026 0 0 0-2.14-1.84c-.92-.33-1.92-.32-2.83.04-.91.35-1.65 1.03-2.1 1.89-.44.87-.56 1.87-.32 2.81l-4.2 2.29a4.01 4.01 0 0 0-2.04-1.17 4.02 4.02 0 0 0-2.35.18c-.75.3-1.39.81-1.84 1.47a4.03 4.03 0 0 0-.69 2.25c0 .8.24 1.59.69 2.25a3.91 3.91 0 0 0 1.84 1.47c.75.3 1.57.36 2.35.18a3.94 3.94 0 0 0 2.04-1.17l4.2 2.29c-.24.95-.12 1.95.32 2.81.45.87 1.19 1.54 2.1 1.9.9.35 1.91.37 2.82.03a3.97 3.97 0 0 0 2.15-1.84ZM7.41 13.41c.38-.37.59-.88.59-1.41 0-.53-.21-1.04-.59-1.41C7.04 10.21 6.53 10 6 10c-.53 0-1.04.21-1.41.59-.38.37-.59.88-.59 1.41 0 .53.21 1.04.59 1.41.37.38.88.59 1.41.59.53 0 1.04-.21 1.41-.59Zm11-6c.38-.37.59-.88.59-1.41 0-.53-.21-1.04-.59-1.41C18.04 4.21 17.53 4 17 4c-.53 0-1.04.21-1.41.59-.38.37-.59.88-.59 1.41 0 .53.21 1.04.59 1.41.37.38.88.59 1.41.59.53 0 1.04-.21 1.41-.59Zm0 12c.38-.37.59-.88.59-1.41 0-.53-.21-1.04-.59-1.41-.37-.38-.88-.59-1.41-.59-.53 0-1.04.21-1.41.59-.38.37-.59.88-.59 1.41 0 .53.21 1.04.59 1.41.37.38.88.59 1.41.59.53 0 1.04-.21 1.41-.59Z" fill="currentColor"/></g></svg>