<svg xmlns="http://www.w3.org/2000/svg" xmlns:xlink="http://www.w3.org/1999/xlink" viewBox="0 0 24 24" fill="none"><defs><rect id="path_0" x="0" y="0" width="24" height="24" /></defs><g opacity="1" transform="translate(0 0)  rotate(0 12 12)"><mask id="bg-mask-0" fill="white"><use xlink:href="#path_0"></use></mask><g mask="url(#bg-mask-0)" ><path id="路径 1" fill-rule="evenodd" style="fill:#000000" transform="translate(2.50024 2.4993864347576764)  rotate(0 8.999406836124827 9.50060928773092)" opacity="1" d="M17.57,1.82C17.17,1.09 16.51,0.52 15.73,0.22C14.94,-0.07 14.07,-0.07 13.28,0.22C12.49,0.51 11.84,1.08 11.43,1.81C11.03,2.55 10.9,3.41 11.08,4.23L5.97,7.02C5.48,6.53 4.85,6.2 4.17,6.07C3.5,5.93 2.79,6 2.15,6.27C1.52,6.54 0.97,6.98 0.59,7.56C0.2,8.13 0,8.81 0,9.5C0,10.19 0.2,10.87 0.59,11.44C0.97,12.02 1.52,12.47 2.15,12.73C2.79,13 3.5,13.07 4.17,12.94C4.85,12.8 5.48,12.47 5.97,11.98L11.08,14.77C10.9,15.59 11.03,16.45 11.43,17.19C11.84,17.92 12.49,18.49 13.28,18.78C14.07,19.08 14.94,19.07 15.73,18.78C16.51,18.48 17.17,17.92 17.57,17.18C17.97,16.44 18.1,15.58 17.92,14.76C17.74,13.94 17.27,13.21 16.6,12.7C15.93,12.2 15.1,11.95 14.26,12.01C13.42,12.07 12.63,12.42 12.03,13.02L6.92,10.23C7.03,9.75 7.03,9.25 6.92,8.77L12.03,5.98C12.63,6.58 13.42,6.93 14.26,6.99C15.1,7.05 15.93,6.8 16.6,6.3C17.27,5.79 17.74,5.06 17.92,4.24C18.1,3.42 17.97,2.56 17.57,1.82Z " /></g></g></svg>