<svg xmlns="http://www.w3.org/2000/svg" xmlns:xlink="http://www.w3.org/1999/xlink" viewBox="0 0 24 24" fill="none"><defs><rect id="path_0" x="0" y="0" width="24" height="24" /></defs><g opacity="1" transform="translate(0 0)  rotate(0 12 12)"><mask id="bg-mask-0" fill="white"><use xlink:href="#path_0"></use></mask><g mask="url(#bg-mask-0)" ><path id="分组 1" fill-rule="evenodd" style="fill:#000000" transform="translate(2.999998641393974 2.5)  rotate(0 10.250000679303012 8.5)" opacity="1" d="M10 11.5L10 17L20.5 8.5L10 0L10 5.5C4.48 5.5 0 9.98 0 15.5C0 15.77 0.01 16.04 0.03 16.31C0.8 14.86 1.94 13.64 3.35 12.79C4.75 11.95 6.36 11.5 8 11.5L10 11.5Z M6.673 8.222C5.623 8.702 4.693 9.402 3.943 10.272C5.233 9.762 6.613 9.502 8.003 9.502L12.003 9.502L12.003 12.812L17.323 8.502L12.003 4.192L12.003 7.502L10.003 7.502C8.853 7.502 7.713 7.742 6.673 8.222Z " /></g></g></svg>