<svg xmlns="http://www.w3.org/2000/svg" xmlns:xlink="http://www.w3.org/1999/xlink" viewBox="0 0 24 24" fill="none"><defs><rect id="path_0" x="0" y="0" width="24" height="24" /></defs><g opacity="1" transform="translate(0 0)  rotate(0 12 12)"><mask id="bg-mask-0" fill="white"><use xlink:href="#path_0"></use></mask><g mask="url(#bg-mask-0)" ><path id="分组 1" fill-rule="evenodd" style="fill:#000000" transform="translate(1.9997900000000008 1.9982883250709804)  rotate(0 9.499694863852536 10.001672367496255)" opacity="1" d="M18.51 17.92C18.98 17.07 19.11 16.07 18.9 15.12C18.69 14.17 18.13 13.33 17.34 12.76C16.55 12.19 15.58 11.93 14.62 12.02C13.65 12.11 12.74 12.56 12.08 13.27L7.88 10.98C8.04 10.34 8.04 9.67 7.88 9.02L12.08 6.73C12.75 7.45 13.65 7.89 14.62 7.98C15.59 8.07 16.56 7.81 17.34 7.24C18.13 6.67 18.69 5.83 18.9 4.88C19.12 3.93 18.98 2.94 18.51 2.08C18.04 1.23 17.28 0.57 16.37 0.24C15.45 -0.09 14.45 -0.08 13.54 0.28C12.63 0.63 11.89 1.31 11.44 2.17C11 3.04 10.88 4.04 11.12 4.98L6.92 7.27C6.37 6.68 5.66 6.28 4.88 6.1C4.1 5.92 3.28 5.99 2.53 6.28C1.78 6.58 1.14 7.09 0.69 7.75C0.24 8.42 0 9.2 0 10C0 10.8 0.24 11.59 0.69 12.25C1.14 12.92 1.78 13.43 2.53 13.72C3.28 14.02 4.1 14.08 4.88 13.9C5.66 13.73 6.37 13.32 6.92 12.73L11.12 15.02C11.12 15.02 11.12 15.02 11.12 15.02L11.12 15.02L11.12 15.02C10.88 15.97 11 16.97 11.44 17.83C11.89 18.7 12.63 19.37 13.54 19.73C14.44 20.08 15.45 20.1 16.36 19.76C17.28 19.43 18.04 18.78 18.51 17.92Z M11.12 15.02L11.12 15.02C11.12 15.02 11.12 15.02 11.12 15.02L11.12 15.02Z M5.4102 11.4117C5.7902 11.0417 6.0002 10.5317 6.0002 10.0017C6.0002 9.47167 5.7902 8.96167 5.4102 8.59167C5.0402 8.21167 4.5302 8.00167 4.0002 8.00167C3.4702 8.00167 2.9602 8.21167 2.5902 8.59167C2.2102 8.96167 2.0002 9.47167 2.0002 10.0017C2.0002 10.5317 2.2102 11.0417 2.5902 11.4117C2.9602 11.7917 3.4702 12.0017 4.0002 12.0017C4.5302 12.0017 5.0402 11.7917 5.4102 11.4117Z M16.4102 5.41167C16.7902 5.04167 17.0002 4.53167 17.0002 4.00167C17.0002 3.47167 16.7902 2.96167 16.4102 2.59167C16.0402 2.21167 15.5302 2.00167 15.0002 2.00167C14.4702 2.00167 13.9602 2.21167 13.5902 2.59167C13.2102 2.96167 13.0002 3.47167 13.0002 4.00167C13.0002 4.53167 13.2102 5.04167 13.5902 5.41167C13.9602 5.79167 14.4702 6.00167 15.0002 6.00167C15.5302 6.00167 16.0402 5.79167 16.4102 5.41167Z M16.4102 17.4117C16.7902 17.0417 17.0002 16.5317 17.0002 16.0017C17.0002 15.4717 16.7902 14.9617 16.4102 14.5917C16.0402 14.2117 15.5302 14.0017 15.0002 14.0017C14.4702 14.0017 13.9602 14.2117 13.5902 14.5917C13.2102 14.9617 13.0002 15.4717 13.0002 16.0017C13.0002 16.5317 13.2102 17.0417 13.5902 17.4117C13.9602 17.7917 14.4702 18.0017 15.0002 18.0017C15.5302 18.0017 16.0402 17.7917 16.4102 17.4117Z " /></g></g></svg>