<svg xmlns="http://www.w3.org/2000/svg" xmlns:xlink="http://www.w3.org/1999/xlink" viewBox="0 0 24 24" fill="none"><defs><rect id="path_0" x="0" y="0" width="24" height="24" /></defs><g opacity="1" transform="translate(0 0)  rotate(0 12 12)"><mask id="bg-mask-0" fill="white"><use xlink:href="#path_0"></use></mask><g mask="url(#bg-mask-0)" ><g opacity="1" transform="translate(2 0.6359860000000008)  rotate(0 10.46474449275295 10.182007)"><path id="路径 1" fill-rule="evenodd" style="fill:#000000" transform="translate(0 2.364004)  rotate(0 10 9.000005)" opacity="1" d="M7,0L1,0C0.73,0 0.48,0.11 0.29,0.29C0.11,0.48 0,0.73 0,1L0,17C0,17.27 0.11,17.52 0.29,17.71C0.48,17.89 0.73,18 1,18L19,18C19.27,18 19.52,17.89 19.71,17.71C19.89,17.52 20,17.27 20,17L20,7L18,7L18,16L2,16L2,2L7,2L7,0Z " /><path id="路径 2" fill-rule="evenodd" style="fill:#000000" transform="translate(8 0)  rotate(0 6.464744492752949 7.182007)" opacity="1" d="M4,4.36C2.94,4.36 1.92,4.79 1.17,5.54C0.42,6.29 0,7.3 0,8.36L0,14.36L2,14.36L2,8.36C2,7.83 2.21,7.32 2.59,6.95C2.96,6.57 3.47,6.36 4,6.36L12.33,6.36C12.45,6.36 12.56,6.33 12.66,6.26C12.76,6.2 12.84,6.1 12.88,5.99C12.93,5.88 12.94,5.76 12.92,5.65C12.89,5.53 12.84,5.42 12.75,5.34L7.41,0L6,1.41L8.95,4.36L4,4.36Z " /></g></g></g></svg>