<svg width="24" height="24" fill="none" xmlns="http://www.w3.org/2000/svg"><mask id="a" style="mask-type:alpha" maskUnits="userSpaceOnUse" x="0" y="0" width="24" height="24"><path d="M24 0H0v24h24V0Z" fill="#fff"/></mask><g mask="url(#a)"><path fill-rule="evenodd" clip-rule="evenodd" d="m12 23 6.33-4.22c.82-.55 1.49-1.29 1.96-2.16.47-.87.71-1.84.71-2.83V3.8c0-.23-.08-.45-.22-.62a.981.981 0 0 0-.56-.35L12 1 3.78 2.83c-.22.05-.42.17-.56.35-.14.17-.22.39-.22.62v9.99c0 .99.24 1.96.71 2.83.47.87 1.14 1.61 1.96 2.16L12 23Z" fill="currentColor"/></g></svg>