<svg width="24" height="24" fill="none" xmlns="http://www.w3.org/2000/svg"><mask id="a" style="mask-type:alpha" maskUnits="userSpaceOnUse" x="0" y="0" width="24" height="24"><path d="M24 0H0v24h24V0Z" fill="#fff"/></mask><g mask="url(#a)"><path fill-rule="evenodd" clip-rule="evenodd" d="M5.67 18.78 12 23l6.33-4.22A5.984 5.984 0 0 0 21 13.79V3.8c0-.47-.33-.87-.78-.97L12 1 3.78 2.83c-.45.1-.78.5-.78.97v9.99c0 2.01 1 3.88 2.67 4.99ZM5 13.789c0 1.34.67 2.59 1.78 3.33l5.22 3.48 5.22-3.48a4.003 4.003 0 0 0 1.78-3.33v-9.18l-7-1.56-7 1.56v9.18Zm11.45-5.568-4.95 4.95-2.83-2.83-1.41 1.42 4.24 4.24 6.37-6.37-1.42-1.41Z" fill="currentColor"/></g></svg>