<svg xmlns="http://www.w3.org/2000/svg" xmlns:xlink="http://www.w3.org/1999/xlink" width="24" height="24" viewBox="0 0 24 24" fill="none"><defs><rect id="path_0" x="0" y="0" width="24" height="24" /></defs><g opacity="1" transform="translate(0 0)  rotate(0 12 12)"><mask id="bg-mask-0" fill="white"><use xlink:href="#path_0"></use></mask><g mask="url(#bg-mask-0)" ><path id="分组 1" fill-rule="evenodd" style="fill:#000000" transform="translate(3 1)  rotate(0 9 11)" opacity="1" d="M18 12.79L18 2.8C18 2.57 17.92 2.35 17.78 2.18C17.64 2 17.44 1.88 17.22 1.83L9 0L0.78 1.83C0.56 1.88 0.36 2 0.22 2.18C0.08 2.35 0 2.57 0 2.8L0 12.79C0 13.78 0.24 14.75 0.71 15.62C1.18 16.49 1.85 17.23 2.67 17.78L9 22L15.33 17.78C16.15 17.23 16.82 16.49 17.29 15.62C17.76 14.75 18 13.78 18 12.79Z M16 3.6L9 2.05L2 3.6L2 12.79C2 13.45 2.16 14.1 2.47 14.68C2.78 15.26 3.23 15.75 3.78 16.12L9 19.6L14.22 16.12C14.77 15.75 15.22 15.26 15.53 14.68C15.84 14.1 16 13.45 16 12.79L16 3.6Z " /></g></g></svg>