<svg xmlns="http://www.w3.org/2000/svg" xmlns:xlink="http://www.w3.org/1999/xlink" viewBox="0 0 24 24" fill="none"><defs><rect id="path_0" x="0" y="0" width="24" height="24" /></defs><g opacity="1" transform="translate(0 0)  rotate(0 12 12)"><mask id="bg-mask-0" fill="white"><use xlink:href="#path_0"></use></mask><g mask="url(#bg-mask-0)" ><path id="分组 1" fill-rule="evenodd" style="fill:#000000" transform="translate(3 1)  rotate(0 9 11)" opacity="1" d="M0 12.79C0 14.8 1 16.67 2.67 17.78L9 22L15.33 17.78C17 16.67 18 14.8 18 12.79L18 2.8C18 2.33 17.67 1.93 17.22 1.83L9 0L0.78 1.83C0.33 1.93 0 2.33 0 2.8L0 12.79Z M8.5 12.172L5.67 9.342L4.26 10.762L8.5 15.002L14.87 8.632L13.45 7.222L8.5 12.172Z " /></g></g></svg>