<svg xmlns="http://www.w3.org/2000/svg" xmlns:xlink="http://www.w3.org/1999/xlink" viewBox="0 0 24 24" fill="none"><defs><rect id="path_0" x="0" y="0" width="24" height="24" /></defs><g opacity="1" transform="translate(0 0)  rotate(0 12 12)"><mask id="bg-mask-0" fill="white"><use xlink:href="#path_0"></use></mask><g mask="url(#bg-mask-0)" ><g opacity="1" transform="translate(0.7569580000000009 1.7569599999999994)  rotate(0 10.44954104727399 10.62152)"><path id="路径 1" fill-rule="evenodd" style="fill:#000000" transform="translate(0 0)  rotate(0 10.44954104727399 8.62152)" opacity="1" d="M20.35,3.35C20.21,3.28 20.05,3.24 19.9,3.24L4.66,3.24L1.42,0L0,1.41L3.24,4.66L3.24,16.24C3.24,16.51 3.35,16.76 3.54,16.95C3.72,17.14 3.98,17.24 4.24,17.24L16.24,17.24L16.24,15.24L5.24,15.24L5.24,13.24L17.5,13.24C17.71,13.24 17.92,13.17 18.1,13.05C18.27,12.92 18.4,12.74 18.46,12.53L20.86,4.53C20.9,4.38 20.91,4.22 20.88,4.07C20.86,3.92 20.79,3.77 20.7,3.65C20.61,3.52 20.49,3.42 20.35,3.35Z " /><path id="路径 2" fill-rule="evenodd" style="fill:#000000" transform="translate(3.243002 18.24304)  rotate(0 1.4999999999999998 1.5)" opacity="1" d="M2.56,2.56C2.84,2.28 3,1.9 3,1.5C3,1.1 2.84,0.72 2.56,0.44C2.28,0.16 1.9,0 1.5,0C1.1,0 0.72,0.16 0.44,0.44C0.16,0.72 0,1.1 0,1.5C0,1.9 0.16,2.28 0.44,2.56C0.72,2.84 1.1,3 1.5,3C1.9,3 2.28,2.84 2.56,2.56Z " /><path id="路径 3" fill-rule="evenodd" style="fill:#000000" transform="translate(15.243041999999999 18.24304)  rotate(0 1.5 1.5)" opacity="1" d="M2.56,2.56C2.84,2.28 3,1.9 3,1.5C3,1.1 2.84,0.72 2.56,0.44C2.28,0.16 1.9,0 1.5,0C1.1,0 0.72,0.16 0.44,0.44C0.16,0.72 0,1.1 0,1.5C0,1.9 0.16,2.28 0.44,2.56C0.72,2.84 1.1,3 1.5,3C1.9,3 2.28,2.84 2.56,2.56Z " /></g></g></g></svg>