<svg xmlns="http://www.w3.org/2000/svg" xmlns:xlink="http://www.w3.org/1999/xlink" width="24" height="24" viewBox="0 0 24 24" fill="none"><defs><rect id="path_0" x="0" y="0" width="24" height="24" /></defs><g opacity="1" transform="translate(0 0)  rotate(0 12 12)"><mask id="bg-mask-0" fill="white"><use xlink:href="#path_0"></use></mask><g mask="url(#bg-mask-0)" ><path id="分组 1" fill-rule="evenodd" style="fill:#000000" transform="translate(3 2)  rotate(0 9 10)" opacity="1" d="M17.71 19.71C17.89 19.52 18 19.27 18 19L18 4L15.3 0.4C15.21 0.28 15.09 0.17 14.95 0.11C14.81 0.04 14.66 0 14.5 0L3.5 0C3.34 0 3.19 0.04 3.05 0.11C2.91 0.17 2.79 0.28 2.7 0.4L0 4L0 19C0 19.27 0.11 19.52 0.29 19.71C0.48 19.89 0.73 20 1 20L17 20C17.27 20 17.52 19.89 17.71 19.71Z M14 2L4 2L2.5 4L15.5 4L14 2Z M6 8L4 8L4 10C4 11.33 4.53 12.6 5.46 13.54C6.4 14.47 7.67 15 9 15C10.33 15 11.6 14.47 12.54 13.54C13.47 12.6 14 11.33 14 10L14 8L12 8L12 10C12 10.8 11.68 11.56 11.12 12.12C10.56 12.68 9.8 13 9 13C8.2 13 7.44 12.68 6.88 12.12C6.32 11.56 6 10.8 6 10L6 8Z " /></g></g></svg>