<svg xmlns="http://www.w3.org/2000/svg" xmlns:xlink="http://www.w3.org/1999/xlink" width="24" height="24" viewBox="0 0 24 24" fill="none"><defs><rect id="path_0" x="0" y="0" width="24" height="24" /></defs><g opacity="1" transform="translate(0 0)  rotate(0 12 12)"><mask id="bg-mask-0" fill="white"><use xlink:href="#path_0"></use></mask><g mask="url(#bg-mask-0)" ><path id="分组 1" fill-rule="evenodd" style="fill:#000000" transform="translate(0.7569890000000008 1.7569599999999994)  rotate(0 10.44952554727399 10.62152)" opacity="1" d="M19.9 3.24L4.66 3.24L1.42 0L0 1.41L3.24 4.66L3.24 16.24C3.24 16.51 3.35 16.76 3.54 16.95C3.72 17.14 3.98 17.24 4.24 17.24L16.24 17.24L16.24 15.24L5.24 15.24L5.24 13.24L17.5 13.24C17.71 13.24 17.92 13.17 18.1 13.05C18.27 12.92 18.4 12.74 18.46 12.53L20.86 4.53C20.9 4.38 20.91 4.22 20.88 4.07C20.86 3.92 20.79 3.77 20.7 3.65C20.61 3.52 20.49 3.42 20.35 3.35C20.21 3.28 20.05 3.24 19.9 3.24Z M5.243 11.243L16.753 11.243L18.553 5.243L5.243 5.243L5.243 11.243Z M5.803 20.803C6.083 20.523 6.243 20.143 6.243 19.743C6.243 19.343 6.083 18.963 5.803 18.683C5.523 18.403 5.143 18.243 4.743 18.243C4.343 18.243 3.963 18.403 3.683 18.683C3.403 18.963 3.243 19.343 3.243 19.743C3.243 20.143 3.403 20.523 3.683 20.803C3.963 21.083 4.343 21.243 4.743 21.243C5.143 21.243 5.523 21.083 5.803 20.803Z M17.803 20.803C18.083 20.523 18.243 20.143 18.243 19.743C18.243 19.343 18.083 18.963 17.803 18.683C17.523 18.403 17.143 18.243 16.743 18.243C16.343 18.243 15.963 18.403 15.683 18.683C15.403 18.963 15.243 19.343 15.243 19.743C15.243 20.143 15.403 20.523 15.683 20.803C15.963 21.083 16.343 21.243 16.743 21.243C17.143 21.243 17.523 21.083 17.803 20.803Z " /></g></g></svg>