<svg width="24" height="24" fill="none" xmlns="http://www.w3.org/2000/svg"><mask id="a" style="mask-type:alpha" maskUnits="userSpaceOnUse" x="0" y="0" width="24" height="24"><path d="M24 0H0v24h24V0Z" fill="#fff"/></mask><g mask="url(#a)" fill-rule="evenodd" clip-rule="evenodd" fill="currentColor"><path d="M21.107 5.107c-.14-.07-.3-.11-.45-.11H5.417l-3.24-3.24-1.42 1.41 3.24 3.25v11.58a1 1 0 0 0 .3.71c.18.19.44.29.7.29h12v-2h-11v-2h12.26c.21 0 .42-.07.6-.19.17-.13.3-.31.36-.52l2.4-8c.04-.15.05-.31.02-.46a.928.928 0 0 0-.18-.42.922.922 0 0 0-.35-.3ZM6.56 22.56a1.499 1.499 0 1 0-2.12-2.12 1.499 1.499 0 1 0 2.12 2.12ZM18.56 22.56a1.499 1.499 0 1 0-2.12-2.12 1.499 1.499 0 1 0 2.12 2.12Z"/></g></svg>