<svg width="24" height="24" fill="none" xmlns="http://www.w3.org/2000/svg"><mask id="a" style="mask-type:alpha" maskUnits="userSpaceOnUse" x="0" y="0" width="24" height="24"><path d="M24 0H0v24h24V0Z" fill="#fff"/></mask><g mask="url(#a)"><path fill-rule="evenodd" clip-rule="evenodd" d="M20.71 21.71c.18-.19.29-.44.29-.71V6l-2.7-3.6a.896.896 0 0 0-.35-.29.997.997 0 0 0-.45-.11h-11c-.16 0-.31.04-.45.11-.14.06-.26.17-.35.29L3 6v15c0 .27.11.52.29.71.19.18.44.29.71.29h16c.27 0 .52-.11.71-.29ZM17 4H7L5.5 6h13L17 4Zm-8 6H7v2c0 1.33.53 2.6 1.46 3.54C9.4 16.47 10.67 17 12 17s2.6-.53 3.54-1.46C16.47 14.6 17 13.33 17 12v-2h-2v2c0 .8-.32 1.56-.88 2.12A2.997 2.997 0 0 1 9 12v-2Z" fill="currentColor"/></g></svg>