<svg width="24" height="24" fill="none" xmlns="http://www.w3.org/2000/svg"><mask id="a" style="mask-type:alpha" maskUnits="userSpaceOnUse" x="0" y="0" width="24" height="24"><path d="M24 0H0v24h24V0Z" fill="#fff"/></mask><g mask="url(#a)" fill-rule="evenodd" clip-rule="evenodd" fill="currentColor"><path d="M16.454 7.094a7.877 7.877 0 0 0-2.16-3.09 7.962 7.962 0 0 0-3.35-1.76 8.051 8.051 0 0 0-3.78-.03c-1.24.3-2.4.89-3.37 1.72-.97.83-1.73 1.88-2.21 3.07a8.093 8.093 0 0 0-.55 3.74c.12 1.27.54 2.5 1.23 3.57a7.99 7.99 0 0 0 2.74 2.62v-2.46a5.889 5.889 0 0 1-1.65-2.46 5.88 5.88 0 0 1-.28-2.94c.15-.99.55-1.92 1.16-2.72a6.027 6.027 0 0 1 5.23-2.34c1 .08 1.96.41 2.8.95.84.55 1.53 1.29 2.01 2.17.48.88.73 1.86.73 2.87v.05a3.486 3.486 0 0 1 2.77-1.04c.51.04 1 .19 1.45.44.44.25.83.6 1.13 1.02.29.41.49.89.59 1.39a3.539 3.539 0 0 1-.75 2.87c-.32.39-.73.71-1.19.93v2.13a5.474 5.474 0 0 0 3.26-2.51c.72-1.22.94-2.68.61-4.06a5.49 5.49 0 0 0-2.38-3.36c-1.19-.77-2.64-1.04-4.04-.77Z"/><path d="M7 20h2v-4H7v4ZM15 20h2v-4h-2v4ZM11 23h2v-4h-2v4Z"/></g></svg>