<svg xmlns="http://www.w3.org/2000/svg" xmlns:xlink="http://www.w3.org/1999/xlink" viewBox="0 0 24 24" fill="none"><defs><rect id="path_0" x="0" y="0" width="24" height="24" /></defs><g opacity="1" transform="translate(0 0)  rotate(0 12 12)"><mask id="bg-mask-0" fill="white"><use xlink:href="#path_0"></use></mask><g mask="url(#bg-mask-0)" ><g opacity="1" transform="translate(1.0041480748411278 2.004147006373735)  rotate(0 11.010225271174335 10.497926496813133)"><path id="路径 1" fill-rule="evenodd" style="fill:#000000" transform="translate(0 0)  rotate(0 11.010225271174335 7.894426496813132)" opacity="1" d="M15.45,5.09C14.99,3.9 14.25,2.84 13.29,2C12.33,1.15 11.18,0.55 9.94,0.24C8.7,-0.07 7.4,-0.08 6.16,0.21C4.92,0.51 3.76,1.1 2.79,1.93C1.82,2.76 1.06,3.81 0.58,5C0.1,6.18 -0.08,7.47 0.03,8.74C0.15,10.01 0.57,11.24 1.26,12.31C1.95,13.39 2.89,14.29 4,14.93L4,12.47C3.25,11.8 2.68,10.96 2.35,10.01C2.01,9.07 1.91,8.06 2.07,7.07C2.22,6.08 2.62,5.15 3.23,4.35C3.84,3.56 4.63,2.93 5.55,2.52C6.46,2.11 7.46,1.94 8.46,2.01C9.46,2.09 10.42,2.42 11.26,2.96C12.1,3.51 12.79,4.25 13.27,5.13C13.75,6.01 14,6.99 14,8L14,8.05C14.35,7.68 14.79,7.4 15.27,7.22C15.75,7.04 16.26,6.97 16.77,7.01C17.28,7.05 17.77,7.2 18.22,7.45C18.66,7.7 19.05,8.05 19.35,8.47C19.64,8.88 19.84,9.36 19.94,9.86C20.03,10.36 20.01,10.88 19.88,11.38C19.75,11.87 19.52,12.33 19.19,12.73C18.87,13.12 18.46,13.44 18,13.66L18,15.79C19.37,15.41 20.54,14.51 21.26,13.28C21.98,12.06 22.2,10.6 21.87,9.22C21.54,7.83 20.69,6.63 19.49,5.86C18.3,5.09 16.85,4.82 15.45,5.09Z " /><path id="路径 2" fill-rule="evenodd" style="fill:#000000" transform="translate(5.995851925158872 13.995852993626265)  rotate(0 1 2)" opacity="1" d="M0,4L2,4L2,0L0,0L0,4Z " /><path id="路径 3" fill-rule="evenodd" style="fill:#000000" transform="translate(13.995851925158872 13.995852993626265)  rotate(0 1 2)" opacity="1" d="M0,4L2,4L2,0L0,0L0,4Z " /><path id="路径 4" fill-rule="evenodd" style="fill:#000000" transform="translate(9.995851925158872 16.995852993626265)  rotate(0 1 2)" opacity="1" d="M0,4L2,4L2,0L0,0L0,4Z " /></g></g></g></svg>