<svg xmlns="http://www.w3.org/2000/svg" xmlns:xlink="http://www.w3.org/1999/xlink" width="24" height="24" viewBox="0 0 24 24" fill="none"><defs><rect id="path_0" x="0" y="0" width="24" height="24" /></defs><g opacity="1" transform="translate(0 0)  rotate(0 12 12)"><mask id="bg-mask-0" fill="white"><use xlink:href="#path_0"></use></mask><g mask="url(#bg-mask-0)" ><g opacity="1" transform="translate(1.0041511951753161 2.00305194229437)  rotate(0 10.99373690042093 10.498474028852815)"><path id="路径 1" fill-rule="evenodd" style="fill:#000000" transform="translate(0 0)  rotate(0 10.99373690042093 9.498974028852816)" opacity="1" d="M21.71,12.23C21.95,11.5 22.04,10.74 21.96,9.97C21.89,9.21 21.66,8.47 21.28,7.81C20.91,7.14 20.4,6.56 19.79,6.1C19.17,5.64 18.47,5.31 17.73,5.14C16.98,4.97 16.21,4.95 15.45,5.09C14.96,3.82 14.14,2.69 13.08,1.82C12.02,0.95 10.76,0.37 9.41,0.13C8.06,-0.12 6.67,-0.01 5.38,0.44C4.09,0.89 2.93,1.66 2.02,2.69C1.11,3.71 0.48,4.95 0.18,6.29C-0.11,7.63 -0.05,9.02 0.35,10.33C0.75,11.64 1.48,12.83 2.46,13.78C3.45,14.72 4.67,15.4 6,15.74L6,19L8,19L8,16L14,16L14,16L14,19L16,19L16,16L16.5,16C17.26,16 18.02,15.83 18.72,15.52C19.42,15.21 20.05,14.76 20.56,14.19C21.07,13.63 21.47,12.96 21.71,12.23Z " /><path id="路径 2" fill-rule="evenodd" style="fill:#000000" transform="translate(9.995848804824684 17.99694805770563)  rotate(0 1 1.5)" opacity="1" d="M0,3L2,3L2,0L0,0L0,3Z " /></g></g></g></svg>