<svg width="24" height="24" fill="none" xmlns="http://www.w3.org/2000/svg"><mask id="a" style="mask-type:alpha" maskUnits="userSpaceOnUse" x="0" y="0" width="24" height="24"><path d="M24 0H0v24h24V0Z" fill="#fff"/></mask><g mask="url(#a)" fill-rule="evenodd" clip-rule="evenodd" fill="currentColor"><path d="M22.714 14.233c.24-.73.33-1.49.25-2.26-.07-.76-.3-1.5-.68-2.16-.37-.67-.88-1.25-1.49-1.71a5.55 5.55 0 0 0-2.06-.96c-.75-.17-1.52-.19-2.28-.05a7.976 7.976 0 0 0-6.04-4.96 7.883 7.883 0 0 0-4.03.31 8.04 8.04 0 0 0-5.2 5.85c-.29 1.34-.23 2.73.17 4.04s1.13 2.5 2.11 3.45c.99.94 2.21 1.62 3.54 1.96v3.26h2v-3h6v3h2v-3h.5c.76 0 1.52-.17 2.22-.48.7-.31 1.33-.76 1.84-1.33.51-.56.91-1.23 1.15-1.96Z"/><path d="M11 23h2v-3h-2v3Z"/></g></svg>