<svg xmlns="http://www.w3.org/2000/svg" xmlns:xlink="http://www.w3.org/1999/xlink" viewBox="0 0 24 24" fill="none"><defs><rect id="path_0" x="0" y="0" width="24" height="24" /></defs><g opacity="1" transform="translate(0 0)  rotate(0 12 12)"><mask id="bg-mask-0" fill="white"><use xlink:href="#path_0"></use></mask><g mask="url(#bg-mask-0)" ><path id="路径 1" fill-rule="evenodd" style="fill:#000000" transform="translate(2 2)  rotate(0 10.5 10)" opacity="1" d="M11.8,3.86C10.57,4.8 9.61,6.03 9,7.45L9,7.46L9,7.46C8.3,5.84 7.15,4.46 5.68,3.49C4.21,2.52 2.49,2 0.73,2L0,2L0,4L0.73,4C2.09,4 3.43,4.4 4.58,5.16C5.72,5.91 6.62,6.98 7.16,8.24L7.91,10L7.16,11.76C6.62,13.02 5.72,14.09 4.58,14.84C3.43,15.6 2.09,16 0.73,16L0,16L0,18L0.73,18C2.49,18 4.21,17.48 5.68,16.51C7.15,15.54 8.3,14.16 9,12.55L9,12.54L9,12.55C9.61,13.96 10.57,15.2 11.8,16.14C13.02,17.08 14.47,17.69 16,17.91L16,20L21,17L16,14L16,15.88C14.87,15.67 13.8,15.19 12.9,14.47C12,13.75 11.29,12.82 10.84,11.76L10.09,10L10.84,8.24C11.29,7.18 12,6.25 12.9,5.53C13.8,4.81 14.87,4.33 16,4.12L16,6L21,3L16,0L16,2.09C14.47,2.31 13.03,2.92 11.8,3.86Z " /></g></g></svg>