<svg width="24" height="24" fill="none" xmlns="http://www.w3.org/2000/svg"><mask id="a" style="mask-type:alpha" maskUnits="userSpaceOnUse" x="0" y="0" width="24" height="24"><path d="M24 0H0v24h24V0Z" fill="#fff"/></mask><g mask="url(#a)"><path fill-rule="evenodd" clip-rule="evenodd" d="M13.8 5.86A8.959 8.959 0 0 0 11 9.45v.01c-.7-1.62-1.85-3-3.32-3.97A8.988 8.988 0 0 0 2.73 4H2v2h.73c1.36 0 2.7.4 3.85 1.16 1.14.75 2.04 1.82 2.58 3.08L9.91 12l-.75 1.76a6.981 6.981 0 0 1-2.58 3.08A6.985 6.985 0 0 1 2.73 18H2v2h.73c1.76 0 3.48-.52 4.95-1.49A9.078 9.078 0 0 0 11 14.55v-.01.01a9.027 9.027 0 0 0 2.8 3.59 8.98 8.98 0 0 0 4.2 1.77V22l5-3-5-3v1.88a6.954 6.954 0 0 1-5.16-4.12L12.09 12l.75-1.76A6.954 6.954 0 0 1 18 6.12V8l5-3-5-3v2.09c-1.53.22-2.97.83-4.2 1.77Z" fill="currentColor"/></g></svg>