<svg width="24" height="24" fill="none" xmlns="http://www.w3.org/2000/svg"><mask id="a" style="mask-type:alpha" maskUnits="userSpaceOnUse" x="0" y="0" width="24" height="24"><path d="M24 0H0v24h24V0Z" fill="#fff"/></mask><g mask="url(#a)" fill-rule="evenodd" clip-rule="evenodd" fill="currentColor"><path d="M3.13 7.377C2.39 8.807 2 10.387 2 11.997c0 5.53 4.48 10 10 10s10-4.47 10-10c0-1.61-.39-3.19-1.13-4.62-.74-1.42-1.82-2.65-3.13-3.57l-1.15 1.64a8.02 8.02 0 0 1 2.99 3.98c.54 1.61.56 3.36.05 4.98a7.975 7.975 0 0 1-2.9 4.04 7.972 7.972 0 0 1-4.73 1.55c-1.7 0-3.36-.54-4.73-1.55-1.37-1-2.39-2.42-2.9-4.04a8.07 8.07 0 0 1 .05-4.98 8.02 8.02 0 0 1 2.99-3.98l-1.14-1.64c-1.32.92-2.4 2.15-3.14 3.57Z"/><path d="M13 12V2h-2v10h2Z"/></g></svg>