<svg xmlns="http://www.w3.org/2000/svg" xmlns:xlink="http://www.w3.org/1999/xlink" width="24" height="24" viewBox="0 0 24 24" fill="none"><defs><rect id="path_0" x="0" y="0" width="24" height="24" /></defs><g opacity="1" transform="translate(0 0)  rotate(0 12 12)"><mask id="bg-mask-0" fill="white"><use xlink:href="#path_0"></use></mask><g mask="url(#bg-mask-0)" ><g opacity="1" transform="translate(1.999997400935845 2)  rotate(0 10.000002689912353 10)"><path id="路径 1" fill-rule="evenodd" style="fill:#000000" transform="translate(0 1.807)  rotate(0 10.000002689912353 9.0965)" opacity="1" d="M1.13,3.57C0.39,5 0,6.58 0,8.19C0,13.72 4.48,18.19 10,18.19C15.52,18.19 20,13.72 20,8.19C20,6.58 19.61,5 18.87,3.57C18.13,2.15 17.05,0.92 15.74,0L14.59,1.64C15.98,2.61 17.03,4.01 17.58,5.62C18.12,7.23 18.14,8.98 17.63,10.6C17.12,12.22 16.1,13.64 14.73,14.64C13.36,15.65 11.7,16.19 10,16.19C8.3,16.19 6.64,15.65 5.27,14.64C3.9,13.64 2.88,12.22 2.37,10.6C1.86,8.98 1.88,7.23 2.42,5.62C2.97,4.01 4.02,2.61 5.41,1.64L4.27,0C2.95,0.92 1.87,2.15 1.13,3.57Z " /><path id="路径 2" fill-rule="evenodd" style="fill:#000000" transform="translate(9.000002599064155 0)  rotate(0 1 5)" opacity="1" d="M2,10L2,0L0,0L0,10L2,10Z " /></g></g></g></svg>