<svg width="24" height="24" fill="none" xmlns="http://www.w3.org/2000/svg"><mask id="a" style="mask-type:alpha" maskUnits="userSpaceOnUse" x="0" y="0" width="24" height="24"><path d="M24 0H0v24h24V0Z" fill="#fff"/></mask><g mask="url(#a)"><path fill-rule="evenodd" clip-rule="evenodd" d="M5 4.93v14.14c0 .09.02.18.07.25.05.08.11.14.19.19.08.04.17.06.26.06.09-.01.18-.04.26-.09L16 12.67V19c0 .27.11.52.29.71.19.18.44.29.71.29.27 0 .52-.11.71-.29.18-.19.29-.44.29-.71V5c0-.27-.11-.52-.29-.71-.19-.18-.44-.29-.71-.29-.27 0-.52.11-.71.29-.18.19-.29.44-.29.71v6.33L5.78 4.52a.622.622 0 0 0-.26-.09c-.09 0-.18.02-.26.06-.08.05-.14.11-.19.19a.43.43 0 0 0-.07.25Z" fill="currentColor"/></g></svg>