<svg width="24" height="24" fill="none" xmlns="http://www.w3.org/2000/svg"><mask id="a" style="mask-type:alpha" maskUnits="userSpaceOnUse" x="0" y="0" width="24" height="24"><path d="M24 0H0v24h24V0Z" fill="#fff"/></mask><g mask="url(#a)"><path fill-rule="evenodd" clip-rule="evenodd" d="M6.29 4.29C6.11 4.48 6 4.73 6 5v14c0 .27.11.52.29.71.19.18.44.29.71.29.27 0 .52-.11.71-.29.18-.19.29-.44.29-.71v-6.33l10.22 6.81c.08.05.17.08.26.09.09 0 .18-.02.26-.06.08-.05.14-.11.19-.19a.43.43 0 0 0 .07-.25V4.93a.43.43 0 0 0-.07-.25.575.575 0 0 0-.19-.19.583.583 0 0 0-.26-.06c-.09.01-.18.04-.26.09L8 11.33V5c0-.27-.11-.52-.29-.71C7.52 4.11 7.27 4 7 4c-.27 0-.52.11-.71.29Zm10.706 3.447-6.39 4.26 6.39 4.27v-8.53Z" fill="currentColor"/></g></svg>