<svg xmlns="http://www.w3.org/2000/svg" xmlns:xlink="http://www.w3.org/1999/xlink" viewBox="0 0 24 24" fill="none"><defs><rect id="path_0" x="0" y="0" width="24" height="24" /></defs><g opacity="1" transform="translate(0 0)  rotate(0 12 12)"><mask id="bg-mask-0" fill="white"><use xlink:href="#path_0"></use></mask><g mask="url(#bg-mask-0)" ><path id="路径 1" fill-rule="evenodd" style="fill:#000000" transform="translate(6 4)  rotate(0 6.5 8)" opacity="1" d="M0.29,15.71C0.48,15.89 0.73,16 1,16C1.27,16 1.52,15.89 1.71,15.71C1.89,15.52 2,15.27 2,15L2,8.67L12.22,15.48C12.3,15.53 12.39,15.56 12.48,15.57C12.57,15.57 12.66,15.55 12.74,15.51C12.82,15.46 12.88,15.4 12.93,15.32C12.98,15.25 13,15.16 13,15.07L13,0.93C13,0.84 12.98,0.75 12.93,0.68C12.88,0.6 12.82,0.54 12.74,0.49C12.66,0.45 12.57,0.43 12.48,0.43C12.39,0.44 12.3,0.47 12.22,0.52L2,7.33L2,1C2,0.73 1.89,0.48 1.71,0.29C1.52,0.11 1.27,0 1,0C0.73,0 0.48,0.11 0.29,0.29C0.11,0.48 0,0.73 0,1L0,15C0,15.27 0.11,15.52 0.29,15.71Z " /></g></g></svg>