<svg xmlns="http://www.w3.org/2000/svg" xmlns:xlink="http://www.w3.org/1999/xlink" width="24" height="24" viewBox="0 0 24 24" fill="none"><defs><rect id="path_0" x="0" y="0" width="24" height="24" /></defs><g opacity="1" transform="translate(0 0)  rotate(0 12 12)"><mask id="bg-mask-0" fill="white"><use xlink:href="#path_0"></use></mask><g mask="url(#bg-mask-0)" ><path id="路径 1" fill-rule="evenodd" style="fill:#000000" transform="translate(5 4)  rotate(0 6.5 8)" opacity="1" d="M0,0.93L0,15.07C0,15.16 0.02,15.25 0.07,15.32C0.12,15.4 0.18,15.46 0.26,15.51C0.34,15.55 0.43,15.57 0.52,15.57C0.61,15.56 0.7,15.53 0.78,15.48L11,8.67L11,15C11,15.27 11.11,15.52 11.29,15.71C11.48,15.89 11.73,16 12,16C12.27,16 12.52,15.89 12.71,15.71C12.89,15.52 13,15.27 13,15L13,1C13,0.73 12.89,0.48 12.71,0.29C12.52,0.11 12.27,0 12,0C11.73,0 11.48,0.11 11.29,0.29C11.11,0.48 11,0.73 11,1L11,7.33L0.78,0.52C0.7,0.47 0.61,0.44 0.52,0.43C0.43,0.43 0.34,0.45 0.26,0.49C0.18,0.54 0.12,0.6 0.07,0.68C0.02,0.75 0,0.84 0,0.93Z " /></g></g></svg>