<svg xmlns="http://www.w3.org/2000/svg" xmlns:xlink="http://www.w3.org/1999/xlink" width="24" height="24" viewBox="0 0 24 24" fill="none"><defs><rect id="path_0" x="0" y="0" width="24" height="24" /></defs><g opacity="1" transform="translate(0 0)  rotate(0 12 12)"><mask id="bg-mask-0" fill="white"><use xlink:href="#path_0"></use></mask><g mask="url(#bg-mask-0)" ><g opacity="1" transform="translate(2.999996959549451 3)  rotate(0 9.000001520225275 9.00000747226797)"><path id="路径 1" fill-rule="evenodd" style="fill:#000000" transform="translate(10.000003040450549 0)  rotate(0 1.5 4)" opacity="1" d="M0.44,7.56C0.72,7.84 1.1,8 1.5,8C1.9,8 2.28,7.84 2.56,7.56C2.84,7.28 3,6.9 3,6.5L3,1.5C3,1.1 2.84,0.72 2.56,0.44C2.28,0.16 1.9,0 1.5,0C1.1,0 0.72,0.16 0.44,0.44C0.16,0.72 0,1.1 0,1.5L0,6.5C0,6.9 0.16,7.28 0.44,7.56Z " /><path id="路径 2" fill-rule="evenodd" style="fill:#000000" transform="translate(0 10)  rotate(0 1.5000015202252746 1.500018552825054)" opacity="1" d="M2.07,2.89C2.35,2.77 2.58,2.58 2.75,2.33C2.91,2.09 3,1.8 3,1.5L3,0L1.5,0C1.2,0 0.91,0.09 0.67,0.25C0.42,0.42 0.23,0.65 0.11,0.93C0,1.2 -0.03,1.5 0.03,1.79C0.09,2.08 0.23,2.35 0.44,2.56C0.65,2.77 0.92,2.91 1.21,2.97C1.5,3.03 1.8,3 2.07,2.89Z " /><path id="路径 3" fill-rule="evenodd" style="fill:#000000" transform="translate(10.000003040450549 15)  rotate(0 1.500018552825054 1.5000074722679706)" opacity="1" d="M0,1.5C0,1.8 0.09,2.09 0.25,2.33C0.42,2.58 0.65,2.77 0.93,2.89C1.2,3 1.5,3.03 1.79,2.97C2.08,2.91 2.35,2.77 2.56,2.56C2.77,2.35 2.91,2.08 2.97,1.79C3.03,1.5 3,1.2 2.89,0.93C2.77,0.65 2.58,0.42 2.33,0.25C2.09,0.09 1.8,0 1.5,0L0,0L0,1.5Z " /><path id="路径 4" fill-rule="evenodd" style="fill:#000000" transform="translate(10.000003040450549 10)  rotate(0 4 1.5)" opacity="1" d="M7.56,2.56C7.84,2.28 8,1.9 8,1.5C8,1.1 7.84,0.72 7.56,0.44C7.28,0.16 6.9,0 6.5,0L1.5,0C1.1,0 0.72,0.16 0.44,0.44C0.16,0.72 0,1.1 0,1.5C0,1.9 0.16,2.28 0.44,2.56C0.72,2.84 1.1,3 1.5,3L6.5,3C6.9,3 7.28,2.84 7.56,2.56Z " /><path id="路径 5" fill-rule="evenodd" style="fill:#000000" transform="translate(15.000003040450549 5)  rotate(0 1.5 1.5)" opacity="1" d="M0.44,0.44C0.16,0.72 0,1.1 0,1.5L0,3L1.5,3C1.9,3 2.28,2.84 2.56,2.56C2.84,2.28 3,1.9 3,1.5C3,1.1 2.84,0.72 2.56,0.44C2.28,0.16 1.9,0 1.5,0C1.1,0 0.72,0.16 0.44,0.44Z " /><path id="路径 6" fill-rule="evenodd" style="fill:#000000" transform="translate(0.0000030404505491077316 5)  rotate(0 4 1.5)" opacity="1" d="M1.5,0C1.1,0 0.72,0.16 0.44,0.44C0.16,0.72 0,1.1 0,1.5C0,1.9 0.16,2.28 0.44,2.56C0.72,2.84 1.1,3 1.5,3L6.5,3C6.9,3 7.28,2.84 7.56,2.56C7.84,2.28 8,1.9 8,1.5C8,1.1 7.84,0.72 7.56,0.44C7.28,0.16 6.9,0 6.5,0L1.5,0Z " /><path id="路径 7" fill-rule="evenodd" style="fill:#000000" transform="translate(5.000003040450549 0)  rotate(0 1.5 1.5)" opacity="1" d="M0.44,0.44C0.16,0.72 0,1.1 0,1.5C0,1.9 0.16,2.28 0.44,2.56C0.72,2.84 1.1,3 1.5,3L3,3L3,1.5C3,1.1 2.84,0.72 2.56,0.44C2.28,0.16 1.9,0 1.5,0C1.1,0 0.72,0.16 0.44,0.44Z " /><path id="路径 8" fill-rule="evenodd" style="fill:#000000" transform="translate(5.000003040450549 10)  rotate(0 1.5 4)" opacity="1" d="M1.5,0C1.1,0 0.72,0.16 0.44,0.44C0.16,0.72 0,1.1 0,1.5L0,6.5C0,6.9 0.16,7.28 0.44,7.56C0.72,7.84 1.1,8 1.5,8C1.9,8 2.28,7.84 2.56,7.56C2.84,7.28 3,6.9 3,6.5L3,1.5C3,1.1 2.84,0.72 2.56,0.44C2.28,0.16 1.9,0 1.5,0Z " /></g></g></g></svg>