<svg width="24" height="24" fill="none" xmlns="http://www.w3.org/2000/svg"><mask id="a" style="mask-type:alpha" maskUnits="userSpaceOnUse" x="0" y="0" width="24" height="24"><path d="M24 0H0v24h24V0Z" fill="#fff"/></mask><g mask="url(#a)" fill-rule="evenodd" clip-rule="evenodd" fill="currentColor"><path d="M13.44 10.56A1.499 1.499 0 0 0 16 9.5v-5a1.499 1.499 0 0 0-2.56-1.06c-.28.28-.44.66-.44 1.06v5c0 .4.16.78.44 1.06ZM5.07 15.89A1.5 1.5 0 0 0 6 14.5V13H4.5a1.5 1.5 0 0 0-1.39.93c-.11.27-.14.57-.08.86.06.29.2.56.41.77.21.21.48.35.77.41.29.06.59.03.86-.08ZM13 19.5a1.5 1.5 0 0 0 .93 1.39c.27.11.57.14.86.08.29-.06.56-.2.77-.41.21-.21.35-.48.41-.77.06-.29.03-.59-.08-.86A1.5 1.5 0 0 0 14.5 18H13v1.5ZM20.56 15.56A1.499 1.499 0 0 0 19.5 13h-5a1.499 1.499 0 0 0-1.06 2.56c.28.28.66.44 1.06.44h5c.4 0 .78-.16 1.06-.44ZM18.44 8.44c-.28.28-.44.66-.44 1.06V11h1.5a1.499 1.499 0 0 0 1.06-2.56 1.499 1.499 0 0 0-2.12 0ZM4.5 8a1.499 1.499 0 0 0-1.06 2.56c.28.28.66.44 1.06.44h5a1.499 1.499 0 0 0 1.06-2.56C10.28 8.16 9.9 8 9.5 8h-5ZM8.44 3.44A1.499 1.499 0 0 0 9.5 6H11V4.5a1.499 1.499 0 0 0-2.56-1.06ZM9.5 13A1.499 1.499 0 0 0 8 14.5v5a1.499 1.499 0 0 0 2.56 1.06c.28-.28.44-.66.44-1.06v-5A1.499 1.499 0 0 0 9.5 13Z"/></g></svg>