<svg xmlns="http://www.w3.org/2000/svg" xmlns:xlink="http://www.w3.org/1999/xlink" width="24" height="24" viewBox="0 0 24 24" fill="none"><defs><rect id="path_0" x="0" y="0" width="24" height="24" /></defs><g opacity="1" transform="translate(0 0)  rotate(0 12 12)"><mask id="bg-mask-0" fill="white"><use xlink:href="#path_0"></use></mask><g mask="url(#bg-mask-0)" ><path id="分组 1" fill-rule="evenodd" style="fill:#000000" transform="translate(5 2)  rotate(0 7 10)" opacity="1" d="M2 18L12 18L12 2L2 2L2 18Z M0 1L0 19C0 19.27 0.11 19.52 0.29 19.71C0.48 19.89 0.73 20 1 20L13 20C13.27 20 13.52 19.89 13.71 19.71C13.89 19.52 14 19.27 14 19L14 1C14 0.73 13.89 0.48 13.71 0.29C13.52 0.11 13.27 0 13 0L1 0C0.73 0 0.48 0.11 0.29 0.29C0.11 0.48 0 0.73 0 1Z M6.29 15.29C6.11 15.48 6 15.73 6 16C6 16.27 6.11 16.52 6.29 16.71C6.48 16.89 6.73 17 7 17C7.27 17 7.52 16.89 7.71 16.71C7.89 16.52 8 16.27 8 16C8 15.73 7.89 15.48 7.71 15.29C7.52 15.11 7.27 15 7 15C6.73 15 6.48 15.11 6.29 15.29Z " /></g></g></svg>