<svg xmlns="http://www.w3.org/2000/svg" xmlns:xlink="http://www.w3.org/1999/xlink" width="24" height="24" viewBox="0 0 24 24" fill="none"><defs><rect id="path_0" x="0" y="0" width="24" height="24" /></defs><g opacity="1" transform="translate(0 0)  rotate(0 12 12)"><mask id="bg-mask-0" fill="white"><use xlink:href="#path_0"></use></mask><g mask="url(#bg-mask-0)" ><g opacity="1" transform="translate(1.0052470579873027 1.9999999875212602)  rotate(0 10.733401286851866 10.00000000623937)"><path id="路径 1" fill-rule="evenodd" style="fill:#000000" transform="translate(0 0)  rotate(0 10.733401286851866 7.989000006239371)" opacity="1" d="M15.33,11.85C16.39,12.96 16.99,14.44 16.99,15.98C18.38,15.71 19.62,14.92 20.44,13.78C21.26,12.63 21.61,11.2 21.41,9.8C21.21,8.4 20.48,7.13 19.37,6.26C18.26,5.38 16.86,4.97 15.45,5.1C14.87,3.6 13.84,2.31 12.51,1.4C11.18,0.49 9.61,0 7.99,0C6.14,0 4.34,0.65 2.9,1.83C1.47,3.02 0.5,4.66 0.14,6.49C-0.21,8.31 0.09,10.2 0.98,11.84C1.87,13.47 3.3,14.74 5.02,15.43L5.02,15.43C5.17,13.9 5.9,12.48 7.06,11.47C8.22,10.46 9.73,9.93 11.27,10C12.81,10.07 14.26,10.73 15.33,11.85Z " /><path id="路径 2" fill-rule="evenodd" style="fill:#000000" transform="translate(7.030802942012697 12.00000001247874)  rotate(0 3.9640250000000004 4)" opacity="1" d="M1.96,4L0,5.13L1,6.87L2.96,5.73L2.96,8L4.96,8L4.96,5.73L6.93,6.87L7.93,5.13L5.96,4L7.93,2.86L6.93,1.13L4.96,2.27L4.96,2.27L4.96,0L2.96,0L2.96,2.27L1,1.13L0,2.87L1.96,4Z " /></g></g></g></svg>