<svg width="24" height="24" fill="none" xmlns="http://www.w3.org/2000/svg"><mask id="a" style="mask-type:alpha" maskUnits="userSpaceOnUse" x="0" y="0" width="24" height="24"><path d="M24 0H0v24h24V0Z" fill="#fff"/></mask><g mask="url(#a)" fill-rule="evenodd" clip-rule="evenodd" fill="currentColor"><path d="M16.335 13.85a5.988 5.988 0 0 1 1.66 4.13 5.561 5.561 0 0 0 3.45-2.2c.82-1.15 1.17-2.58.97-3.98-.2-1.4-.93-2.67-2.04-3.54a5.485 5.485 0 0 0-3.92-1.16 7.98 7.98 0 0 0-2.94-3.7c-1.33-.91-2.9-1.4-4.52-1.4-1.85 0-3.65.65-5.09 1.83a8.076 8.076 0 0 0-2.76 4.66c-.35 1.82-.05 3.71.84 5.35a8 8 0 0 0 4.04 3.59c.15-1.53.88-2.95 2.04-3.96a5.984 5.984 0 0 1 8.27.38Z"/><path d="m9.996 18-1.96 1.13 1 1.74 1.96-1.14V22h2v-2.27l1.97 1.14 1-1.74-1.97-1.13 1.97-1.14-1-1.73-1.97 1.14V14h-2v2.27l-1.96-1.14-1 1.74L9.996 18Z"/></g></svg>