<svg xmlns="http://www.w3.org/2000/svg" xmlns:xlink="http://www.w3.org/1999/xlink" width="24" height="24" viewBox="0 0 24 24" fill="none"><defs><rect id="path_0" x="0" y="0" width="24" height="24" /></defs><g opacity="1" transform="translate(0 0)  rotate(0 12 12)"><mask id="bg-mask-0" fill="white"><use xlink:href="#path_0"></use></mask><g mask="url(#bg-mask-0)" ><path id="分组 1" fill-rule="evenodd" style="fill:#000000" transform="translate(1 2.5)  rotate(0 11 9.5)" opacity="1" d="M5.5 0L0 9.5L5.5 19L16.5 19L22 9.5L16.5 0L5.5 0Z M6.651 2L2.311 9.5L6.651 17L15.351 17L19.691 9.5L15.351 2L6.651 2Z M10 14.5L12 14.5L12 12.5L10 12.5L10 14.5Z M10 10.5L12 10.5L12 4.5L10 4.5L10 10.5Z " /></g></g></svg>