<svg xmlns="http://www.w3.org/2000/svg" xmlns:xlink="http://www.w3.org/1999/xlink" width="24" height="24" viewBox="0 0 24 24" fill="none"><defs><rect id="path_0" x="0" y="0" width="24" height="24" /></defs><g opacity="1" transform="translate(0 0)  rotate(0 12 12)"><mask id="bg-mask-0" fill="white"><use xlink:href="#path_0"></use></mask><g mask="url(#bg-mask-0)" ><path id="分组 1" fill-rule="evenodd" style="fill:#000000" transform="translate(3 2)  rotate(0 9 10)" opacity="1" d="M17 20C17.27 20 17.52 19.89 17.71 19.71C17.89 19.52 18 19.27 18 19L18 1C18 0.73 17.89 0.48 17.71 0.29C17.52 0.11 17.27 0 17 0L1 0C0.73 0 0.48 0.11 0.29 0.29C0.11 0.48 0 0.73 0 1L0 19C0 19.27 0.11 19.52 0.29 19.71C0.48 19.89 0.73 20 1 20L17 20Z M12.54 16.54C13.47 15.6 14 14.33 14 13C14 11.67 13.47 10.4 12.54 9.46C11.6 8.53 10.33 8 9 8C7.67 8 6.4 8.53 5.46 9.46C4.53 10.4 4 11.67 4 13C4 14.33 4.53 15.6 5.46 16.54C6.4 17.47 7.67 18 9 18C10.33 18 11.6 17.47 12.54 16.54Z M10.06 5.56C10.34 5.28 10.5 4.9 10.5 4.5C10.5 4.1 10.34 3.72 10.06 3.44C9.78 3.16 9.4 3 9 3C8.6 3 8.22 3.16 7.94 3.44C7.66 3.72 7.5 4.1 7.5 4.5C7.5 4.9 7.66 5.28 7.94 5.56C8.22 5.84 8.6 6 9 6C9.4 6 9.78 5.84 10.06 5.56Z M11.12 15.12C11.68 14.56 12 13.8 12 13C12 12.2 11.68 11.44 11.12 10.88C10.56 10.32 9.8 10 9 10C8.2 10 7.44 10.32 6.88 10.88C6.32 11.44 6 12.2 6 13C6 13.8 6.32 14.56 6.88 15.12C7.44 15.68 8.2 16 9 16C9.8 16 10.56 15.68 11.12 15.12Z " /></g></g></svg>