<svg width="24" height="24" fill="none" xmlns="http://www.w3.org/2000/svg"><mask id="a" style="mask-type:alpha" maskUnits="userSpaceOnUse" x="0" y="0" width="24" height="24"><path d="M24 0H0v24h24V0Z" fill="#fff"/></mask><g mask="url(#a)"><path fill-rule="evenodd" clip-rule="evenodd" d="M5 20h14V4H5v16ZM3.29 2.29C3.11 2.48 3 2.73 3 3v18c0 .27.11.52.29.71.19.18.44.29.71.29h16c.27 0 .52-.11.71-.29.18-.19.29-.44.29-.71V3c0-.27-.11-.52-.29-.71-.19-.18-.44-.29-.71-.29H4c-.27 0-.52.11-.71.29Zm10.48 13.98c.47-.47.73-1.11.73-1.77 0-.66-.26-1.3-.73-1.77S12.66 12 12 12c-.66 0-1.3.26-1.77.73s-.73 1.11-.73 1.77c0 .66.26 1.3.73 1.77S11.34 17 12 17c.66 0 1.3-.26 1.77-.73Zm1.41 1.41c.85-.84 1.32-1.99 1.32-3.18 0-1.19-.47-2.34-1.32-3.18A4.471 4.471 0 0 0 12 10c-1.19 0-2.34.47-3.18 1.32-.85.84-1.32 1.99-1.32 3.18 0 1.19.47 2.34 1.32 3.18.84.85 1.99 1.32 3.18 1.32 1.19 0 2.34-.47 3.18-1.32ZM12 8.5a1.499 1.499 0 0 0 1.06-2.56 1.499 1.499 0 0 0-2.12 0c-.14.14-.25.3-.33.49-.07.18-.11.37-.11.57 0 .2.04.39.11.57.08.19.19.35.33.49s.3.25.49.33c.18.07.37.11.57.11Z" fill="currentColor"/></g></svg>