<svg width="24" height="24" fill="none" xmlns="http://www.w3.org/2000/svg"><mask id="a" style="mask-type:alpha" maskUnits="userSpaceOnUse" x="0" y="0" width="24" height="24"><path d="M24 0H0v24h24V0Z" fill="#fff"/></mask><g mask="url(#a)"><path fill-rule="evenodd" clip-rule="evenodd" d="M20 22c.27 0 .52-.11.71-.29.18-.19.29-.44.29-.71V3c0-.27-.11-.52-.29-.71-.19-.18-.44-.29-.71-.29H4c-.27 0-.52.11-.71.29-.18.19-.29.44-.29.71v18c0 .27.11.52.29.71.19.18.44.29.71.29h16Zm-4.46-3.46C16.47 17.6 17 16.33 17 15s-.53-2.6-1.46-3.54A5.036 5.036 0 0 0 12 10c-1.33 0-2.6.53-3.54 1.46C7.53 12.4 7 13.67 7 15s.53 2.6 1.46 3.54C9.4 19.47 10.67 20 12 20s2.6-.53 3.54-1.46ZM13.06 7.56a1.499 1.499 0 1 0-2.12-2.12 1.499 1.499 0 1 0 2.12 2.12Zm1.06 9.56a2.997 2.997 0 1 0-4.24-4.24 2.997 2.997 0 1 0 4.24 4.24Z" fill="currentColor"/></g></svg>