<svg xmlns="http://www.w3.org/2000/svg" xmlns:xlink="http://www.w3.org/1999/xlink" width="24" height="24" viewBox="0 0 24 24" fill="none"><defs><rect id="path_0" x="0" y="0" width="24" height="24" /></defs><g opacity="1" transform="translate(0 0)  rotate(0 12 12)"><mask id="bg-mask-0" fill="white"><use xlink:href="#path_0"></use></mask><g mask="url(#bg-mask-0)" ><path id="分组 1" fill-rule="evenodd" style="fill:#000000" transform="translate(3 2)  rotate(0 9 10)" opacity="1" d="M2 18L16 18L16 2L2 2L2 18Z M0.29 0.29C0.11 0.48 0 0.73 0 1L0 19C0 19.27 0.11 19.52 0.29 19.71C0.48 19.89 0.73 20 1 20L17 20C17.27 20 17.52 19.89 17.71 19.71C17.89 19.52 18 19.27 18 19L18 1C18 0.73 17.89 0.48 17.71 0.29C17.52 0.11 17.27 0 17 0L1 0C0.73 0 0.48 0.11 0.29 0.29Z M10.77 14.27C11.24 13.8 11.5 13.16 11.5 12.5C11.5 11.84 11.24 11.2 10.77 10.73C10.3 10.26 9.66 10 9 10C8.34 10 7.7 10.26 7.23 10.73C6.76 11.2 6.5 11.84 6.5 12.5C6.5 13.16 6.76 13.8 7.23 14.27C7.7 14.74 8.34 15 9 15C9.66 15 10.3 14.74 10.77 14.27Z M12.18 15.68C13.03 14.84 13.5 13.69 13.5 12.5C13.5 11.31 13.03 10.16 12.18 9.32C11.34 8.47 10.19 8 9 8C7.81 8 6.66 8.47 5.82 9.32C4.97 10.16 4.5 11.31 4.5 12.5C4.5 13.69 4.97 14.84 5.82 15.68C6.66 16.53 7.81 17 9 17C10.19 17 11.34 16.53 12.18 15.68Z M9 6.5C9.4 6.5 9.78 6.34 10.06 6.06C10.34 5.78 10.5 5.4 10.5 5C10.5 4.6 10.34 4.22 10.06 3.94C9.78 3.66 9.4 3.5 9 3.5C8.8 3.5 8.61 3.54 8.43 3.61C8.24 3.69 8.08 3.8 7.94 3.94C7.8 4.08 7.69 4.24 7.61 4.43C7.54 4.61 7.5 4.8 7.5 5C7.5 5.2 7.54 5.39 7.61 5.57C7.69 5.76 7.8 5.92 7.94 6.06C8.08 6.2 8.24 6.31 8.43 6.39C8.61 6.46 8.8 6.5 9 6.5Z " /></g></g></svg>