<svg xmlns="http://www.w3.org/2000/svg" xmlns:xlink="http://www.w3.org/1999/xlink" width="24" height="24" viewBox="0 0 24 24" fill="none"><defs><rect id="path_0" x="0" y="0" width="24" height="24" /></defs><g opacity="1" transform="translate(0 0)  rotate(0 12 12)"><mask id="bg-mask-0" fill="white"><use xlink:href="#path_0"></use></mask><g mask="url(#bg-mask-0)" ><path id="分组 1" fill-rule="evenodd" style="fill:#000000" transform="translate(2 4.434206892413744)  rotate(0 10.7993 7.565730243452691)" opacity="1" d="M0.78 0.08C0.7 0.03 0.61 0 0.52 0C0.43 0 0.34 0.02 0.26 0.06C0.18 0.1 0.12 0.17 0.07 0.24C0.02 0.32 0 0.41 0 0.5L0 14.63C0 14.72 0.02 14.81 0.07 14.89C0.12 14.97 0.18 15.03 0.26 15.07C0.34 15.11 0.43 15.14 0.52 15.13C0.61 15.13 0.7 15.1 0.78 15.05L10 8.9L10 14.63C10 14.72 10.02 14.81 10.07 14.89C10.12 14.97 10.18 15.03 10.26 15.07C10.34 15.11 10.43 15.14 10.52 15.13C10.61 15.13 10.7 15.1 10.78 15.05L21.38 7.98C21.44 7.94 21.5 7.87 21.54 7.8C21.58 7.73 21.6 7.65 21.6 7.57C21.6 7.48 21.58 7.4 21.54 7.33C21.5 7.26 21.44 7.2 21.38 7.15L10.78 0.08C10.7 0.03 10.61 0 10.52 0C10.43 0 10.34 0.02 10.26 0.06C10.18 0.1 10.12 0.17 10.07 0.24C10.02 0.32 10 0.41 10 0.5L10 6.23L0.78 0.08Z M2 3.30274L2 11.8327L8.39 7.56274L2 3.30274Z M12 11.8327L18.39 7.56274L12 3.30274L12 11.8327Z " /></g></g></svg>