<svg width="24" height="24" fill="none" xmlns="http://www.w3.org/2000/svg"><mask id="a" style="mask-type:alpha" maskUnits="userSpaceOnUse" x="0" y="0" width="24" height="24"><path d="M24 0H0v24h24V0Z" fill="#fff"/></mask><g mask="url(#a)"><path fill-rule="evenodd" clip-rule="evenodd" d="m20.082 15.2-8.08 4.85-8.08-4.85-1.21.72c-.07.05-.13.11-.17.18-.05.08-.07.16-.07.25s.02.17.07.25c.04.07.1.13.17.18l8.77 5.26c.16.09.34.14.52.14s.36-.05.51-.14l8.77-5.26c.08-.05.14-.11.18-.18.04-.08.07-.16.07-.25s-.03-.17-.07-.25a.516.516 0 0 0-.18-.18l-1.2-.72Zm-17.61-3.55c0 .09.02.17.07.25.04.07.1.13.17.18l9.29 5.57 9.28-5.57c.08-.05.14-.11.18-.18.04-.08.07-.16.07-.25s-.03-.17-.07-.25a.516.516 0 0 0-.18-.18l-1.2-.72-8.08 4.85-8.08-4.85-1.21.72c-.07.05-.13.11-.17.18-.05.08-.07.16-.07.25Zm9.53-10.484c-.18 0-.36.05-.52.14l-8.77 5.26a.52.52 0 0 0-.17.19.42.42 0 0 0-.07.24c0 .09.02.18.07.25.04.08.1.14.17.18l9.29 5.57 9.28-5.57c.08-.04.14-.1.18-.18a.52.52 0 0 0 .07-.25c0-.08-.03-.17-.07-.24a.469.469 0 0 0-.18-.19l-8.77-5.26c-.15-.09-.33-.14-.51-.14ZM5.887 7.002l6.11 3.67 6.12-3.67-6.12-3.67-6.11 3.67Z" fill="currentColor"/></g></svg>