<svg xmlns="http://www.w3.org/2000/svg" xmlns:xlink="http://www.w3.org/1999/xlink" width="24" height="24" viewBox="0 0 24 24" fill="none"><defs><rect id="path_0" x="0" y="0" width="24" height="24" /></defs><g opacity="1" transform="translate(0 0)  rotate(0 12 12)"><mask id="bg-mask-0" fill="white"><use xlink:href="#path_0"></use></mask><g mask="url(#bg-mask-0)" ><g opacity="1" transform="translate(2.4718 1.1661400000000004)  rotate(0 9.528199999999998 10.50883)"><path id="路径 1" fill-rule="evenodd" style="fill:#000000" transform="translate(0 9.33376)  rotate(0 9.528199999999998 3.5749999999999993)" opacity="1" d="M18.99,0.9C18.95,0.83 18.89,0.77 18.81,0.72L17.61,0L9.53,4.85L1.45,0L0.24,0.72C0.17,0.77 0.11,0.83 0.07,0.9C0.02,0.98 0,1.06 0,1.15C0,1.24 0.02,1.32 0.07,1.4C0.11,1.47 0.17,1.53 0.24,1.58L9.53,7.15L18.81,1.58C18.89,1.53 18.95,1.47 18.99,1.4C19.03,1.32 19.06,1.24 19.06,1.15C19.06,1.06 19.03,0.98 18.99,0.9Z " /><path id="路径 2" fill-rule="evenodd" style="fill:#000000" transform="translate(0 14.03376)  rotate(0 9.528199999999998 3.491950000000001)" opacity="1" d="M18.81,1.58C18.89,1.53 18.95,1.47 18.99,1.4C19.03,1.32 19.06,1.24 19.06,1.15C19.06,1.06 19.03,0.98 18.99,0.9C18.95,0.83 18.89,0.77 18.81,0.72L17.61,0L9.53,4.85L1.45,0L0.24,0.72C0.17,0.77 0.11,0.83 0.07,0.9C0.02,0.98 0,1.06 0,1.15C0,1.24 0.02,1.32 0.07,1.4C0.11,1.47 0.17,1.53 0.24,1.58L9.01,6.84C9.17,6.93 9.35,6.98 9.53,6.98C9.71,6.98 9.89,6.93 10.04,6.84L18.81,1.58Z " /><path id="路径 3" fill-rule="evenodd" style="fill:#000000" transform="translate(0 0)  rotate(0 9.528199999999998 5.91688)" opacity="1" d="M18.99,5.59C18.95,5.51 18.89,5.45 18.81,5.4L10.04,0.14L10.04,0.14C9.89,0.05 9.71,0 9.53,0C9.35,0 9.17,0.05 9.01,0.14L0.24,5.4C0.17,5.45 0.11,5.51 0.07,5.59C0.02,5.66 0,5.75 0,5.83C0,5.92 0.02,6.01 0.07,6.08C0.11,6.16 0.17,6.22 0.24,6.26L9.53,11.83L18.81,6.26C18.89,6.22 18.95,6.16 18.99,6.08C19.03,6.01 19.06,5.92 19.06,5.83C19.06,5.75 19.03,5.66 18.99,5.59Z " /></g></g></g></svg>