<svg xmlns="http://www.w3.org/2000/svg" xmlns:xlink="http://www.w3.org/1999/xlink" viewBox="0 0 24 24" fill="none"><defs><rect id="path_0" x="0" y="0" width="24" height="24" /></defs><g opacity="1" transform="translate(0 0)  rotate(0 12 12)"><mask id="bg-mask-0" fill="white"><use xlink:href="#path_0"></use></mask><g mask="url(#bg-mask-0)" ><path id="分组 1" fill-rule="evenodd" style="fill:#000000" transform="translate(2.4718 1.1661400000000004)  rotate(0 9.528199999999998 10.50883)" opacity="1" d="M17.61 14.0338L9.53 18.8838L1.45 14.0338L0.24 14.7538C0.17 14.8038 0.11 14.8638 0.07 14.9338C0.02 15.0138 0 15.0938 0 15.1838C0 15.2738 0.02 15.3538 0.07 15.4338C0.11 15.5038 0.17 15.5638 0.24 15.6138L9.01 20.8738C9.17 20.9638 9.35 21.0138 9.53 21.0138C9.71 21.0138 9.89 20.9638 10.04 20.8738L18.81 15.6138C18.89 15.5638 18.95 15.5038 18.99 15.4338C19.03 15.3538 19.06 15.2738 19.06 15.1838C19.06 15.0938 19.03 15.0138 18.99 14.9338C18.95 14.8638 18.89 14.8038 18.81 14.7538L17.61 14.0338Z M0 10.4838C0 10.5738 0.02 10.6538 0.07 10.7338C0.11 10.8038 0.17 10.8638 0.24 10.9138L9.53 16.4838L18.81 10.9138C18.89 10.8638 18.95 10.8038 18.99 10.7338C19.03 10.6538 19.06 10.5738 19.06 10.4838C19.06 10.3938 19.03 10.3138 18.99 10.2338C18.95 10.1638 18.89 10.1038 18.81 10.0538L17.61 9.33376L9.53 14.1838L1.45 9.33376L0.24 10.0538C0.17 10.1038 0.11 10.1638 0.07 10.2338C0.02 10.3138 0 10.3938 0 10.4838Z M9.53 0C9.35 0 9.17 0.05 9.01 0.14L0.24 5.4C0.17 5.45 0.11 5.51 0.07 5.59C0.02 5.66 0 5.75 0 5.83C0 5.92 0.02 6.01 0.07 6.08C0.11 6.16 0.17 6.22 0.24 6.26L9.53 11.83L18.81 6.26C18.89 6.22 18.95 6.16 18.99 6.08C19.03 6.01 19.06 5.92 19.06 5.83C19.06 5.75 19.03 5.66 18.99 5.59C18.95 5.51 18.89 5.45 18.81 5.4L10.04 0.14L10.04 0.14C9.89 0.05 9.71 0 9.53 0Z M3.41518 5.83581L9.52518 9.50581L15.6452 5.83581L9.52518 2.16581L3.41518 5.83581Z " /></g></g></svg>