<svg xmlns="http://www.w3.org/2000/svg" xmlns:xlink="http://www.w3.org/1999/xlink" width="24" height="24" viewBox="0 0 24 24" fill="none"><defs><rect id="path_0" x="0" y="0" width="24" height="24" /></defs><g opacity="1" transform="translate(0 0)  rotate(0 12 12)"><mask id="bg-mask-0" fill="white"><use xlink:href="#path_0"></use></mask><g mask="url(#bg-mask-0)" ><path id="分组 1" fill-rule="evenodd" style="fill:#000000" transform="translate(0.5870060000000006 0.5)  rotate(0 11.412997 10.854)" opacity="1" d="M18.47 21.71L16.89 13.78L22.83 8.29L14.8 7.34L11.41 0L8.03 7.34L0 8.29L5.94 13.78L4.36 21.71L11.41 17.76L18.47 21.71Z M4.542 9.765L8.112 13.075L7.162 17.845L11.412 15.465L15.662 17.845L14.712 13.075L18.282 9.765L13.452 9.195L11.412 4.775L9.372 9.195L4.542 9.765Z " /></g></g></svg>