<svg xmlns="http://www.w3.org/2000/svg" xmlns:xlink="http://www.w3.org/1999/xlink" viewBox="0 0 24 24" fill="none"><defs><rect id="path_0" x="0" y="0" width="24" height="24" /></defs><g opacity="1" transform="translate(0 0)  rotate(0 12 12)"><mask id="bg-mask-0" fill="white"><use xlink:href="#path_0"></use></mask><g mask="url(#bg-mask-0)" ><path id="分组 1" fill-rule="evenodd" style="fill:#000000" transform="translate(5 5)  rotate(0 7 7)" opacity="1" d="M2 12L12 12L12 2L2 2L2 12Z M13.71 13.71C13.89 13.52 14 13.27 14 13L14 1C14 0.73 13.89 0.48 13.71 0.29C13.52 0.11 13.27 0 13 0L1 0C0.73 0 0.48 0.11 0.29 0.29C0.11 0.48 0 0.73 0 1L0 13C0 13.27 0.11 13.52 0.29 13.71C0.48 13.89 0.73 14 1 14L13 14C13.27 14 13.52 13.89 13.71 13.71Z " /></g></g></svg>