<svg width="24" height="24" fill="none" xmlns="http://www.w3.org/2000/svg"><mask id="a" style="mask-type:alpha" maskUnits="userSpaceOnUse" x="0" y="0" width="24" height="24"><path d="M24 0H0v24h24V0Z" fill="#fff"/></mask><g mask="url(#a)" fill-rule="evenodd" clip-rule="evenodd" fill="currentColor"><path d="M21 13.999v-2H3v2h11.45l.12.12a2.167 2.167 0 0 1 .65 1.6c-.01 1.47-1.29 2.2-3.84 2.2-1.59 0-3.14-.44-4.66-1.32v2.26c1.6.76 3.23 1.14 4.87 1.14 1.84 0 3.29-.38 4.34-1.13 1.05-.76 1.57-1.81 1.57-3.15 0-.63-.12-1.2-.35-1.72H21ZM9.43 9.55c-.43-.31-.65-.68-.65-1.1 0-1.56 1.24-2.34 3.72-2.34 1.43 0 2.74.34 3.94 1.03V4.98A9.567 9.567 0 0 0 12.22 4c-1.95 0-3.39.43-4.32 1.3-.93.87-1.4 1.92-1.4 3.15 0 .8.22 1.47.65 2.03.14.19.3.36.48.52h5.45c-.74-.28-1.41-.52-2.03-.7-.64-.19-1.18-.44-1.62-.75Z"/></g></svg>