<svg xmlns="http://www.w3.org/2000/svg" xmlns:xlink="http://www.w3.org/1999/xlink" width="24" height="24" viewBox="0 0 24 24" fill="none"><defs><rect id="path_0" x="0" y="0" width="24" height="24" /></defs><g opacity="1" transform="translate(0 0)  rotate(0 12 12)"><mask id="bg-mask-0" fill="white"><use xlink:href="#path_0"></use></mask><g mask="url(#bg-mask-0)" ><g opacity="1" transform="translate(3 4)  rotate(0 9 8)"><path id="路径 1" fill-rule="evenodd" style="fill:#000000" transform="translate(0 7.9990000000000006)  rotate(0 9 4.0005)" opacity="1" d="M18,2L18,0L0,0L0,2L11.45,2L11.57,2.12C11.78,2.33 11.95,2.58 12.06,2.85C12.17,3.13 12.23,3.42 12.22,3.72C12.21,5.19 10.93,5.92 8.38,5.92C6.79,5.92 5.24,5.48 3.72,4.6L3.72,6.86C5.32,7.62 6.95,8 8.59,8C10.43,8 11.88,7.62 12.93,6.87C13.98,6.11 14.5,5.06 14.5,3.72C14.5,3.09 14.38,2.52 14.15,2L14.15,2L18,2Z " /><path id="路径 2" fill-rule="evenodd" style="fill:#000000" transform="translate(3.5 0)  rotate(0 4.9719999999999995 3.5)" opacity="1" d="M2.93,5.55C2.5,5.24 2.28,4.87 2.28,4.45C2.28,2.89 3.52,2.11 6,2.11C7.43,2.11 8.74,2.45 9.94,3.14L9.94,0.98C8.6,0.33 7.19,0 5.72,0C3.77,0 2.33,0.43 1.4,1.3C0.47,2.17 0,3.22 0,4.45C0,5.25 0.22,5.92 0.65,6.48C0.79,6.67 0.95,6.84 1.13,7L6.58,7C5.84,6.72 5.17,6.48 4.55,6.3C3.91,6.11 3.37,5.86 2.93,5.55Z " /></g></g></g></svg>