<svg width="24" height="24" fill="none" xmlns="http://www.w3.org/2000/svg"><mask id="a" style="mask-type:alpha" maskUnits="userSpaceOnUse" x="0" y="0" width="24" height="24"><path d="M24 0H0v24h24V0Z" fill="#fff"/></mask><g mask="url(#a)"><path fill-rule="evenodd" clip-rule="evenodd" d="M9 3c-.55 0-1 .45-1 1v2H3c-.55 0-1 .45-1 1v13c0 .55.45 1 1 1h18c.55 0 1-.45 1-1V7c0-.55-.45-1-1-1h-5V4c0-.55-.45-1-1-1H9ZM8 8v11h8V8H8ZM4 19h2V8H4v11Zm6-14v1h4V5h-4Zm8 14h2V8h-2v11Z" fill="currentColor"/></g></svg>