<svg xmlns="http://www.w3.org/2000/svg" xmlns:xlink="http://www.w3.org/1999/xlink" width="24" height="24" viewBox="0 0 24 24" fill="none"><defs><rect id="path_0" x="0" y="0" width="24" height="24" /></defs><g opacity="1" transform="translate(0 0)  rotate(0 12 12)"><mask id="bg-mask-0" fill="white"><use xlink:href="#path_0"></use></mask><g mask="url(#bg-mask-0)" ><path id="分组 1" fill-rule="evenodd" style="fill:#000000" transform="translate(2 3)  rotate(0 10 9)" opacity="1" d="M7 0C6.45 0 6 0.45 6 1L6 3L1 3C0.45 3 0 3.45 0 4L0 17C0 17.55 0.45 18 1 18L19 18C19.55 18 20 17.55 20 17L20 4C20 3.45 19.55 3 19 3L14 3L14 1C14 0.45 13.55 0 13 0L7 0Z M6 5L6 16L14 16L14 5L6 5Z M2 16L4 16L4 5L2 5L2 16Z M8 2L8 3L12 3L12 2L8 2Z M16 16L18 16L18 5L16 5L16 16Z " /></g></g></svg>