<svg xmlns="http://www.w3.org/2000/svg" xmlns:xlink="http://www.w3.org/1999/xlink" viewBox="0 0 24 24" fill="none"><defs><rect id="path_0" x="0" y="0" width="24" height="24" /></defs><g opacity="1" transform="translate(0 0)  rotate(0 12 12)"><mask id="bg-mask-0" fill="white"><use xlink:href="#path_0"></use></mask><g mask="url(#bg-mask-0)" ><path id="分组 1" fill-rule="evenodd" style="fill:#000000" transform="translate(1.0061013279288016 1.5817864790100025)  rotate(0 10.996632602854488 9.709106760494999)" opacity="1" d="M21.03 4.89C20.82 4.05 20.43 3.25 19.9 2.56C19.37 1.87 18.71 1.29 17.95 0.85C17.19 0.42 16.36 0.15 15.49 0.04C14.62 -0.06 13.75 0.02 12.91 0.26C12.07 0.51 11.29 0.92 10.62 1.47C9.94 2.02 9.38 2.71 8.98 3.48L8.98 3.48C7.89 3.34 6.8 3.43 5.75 3.74C4.7 4.05 3.73 4.57 2.89 5.26C2.05 5.96 1.36 6.82 0.87 7.8C0.37 8.77 0.08 9.83 0.02 10.92C-0.05 12.01 0.1 13.11 0.47 14.13C0.85 15.16 1.42 16.1 2.17 16.89C2.92 17.69 3.82 18.32 4.82 18.76C5.82 19.19 6.9 19.42 7.99 19.42L16.49 19.42C17.6 19.42 18.67 19.09 19.58 18.47C20.49 17.85 21.2 16.97 21.61 15.95C22.01 14.92 22.1 13.8 21.86 12.72C21.62 11.65 21.07 10.67 20.26 9.91C20.72 9.17 21.03 8.34 21.16 7.48C21.29 6.62 21.25 5.74 21.03 4.89Z M13.7089 5.82476C14.4689 6.59476 15.0589 7.51476 15.4489 8.51476C16.4989 8.31476 17.5789 8.42476 18.5689 8.82476C19.0389 7.83476 19.1189 6.71476 18.8189 5.66476C18.5189 4.61476 17.8389 3.70476 16.9189 3.12476C15.9989 2.53476 14.8989 2.30476 13.8189 2.46476C12.7389 2.63476 11.7489 3.18476 11.0489 4.02476L11.0489 4.02476C12.0489 4.43476 12.9489 5.04476 13.7089 5.82476Z " /></g></g></svg>