<svg width="24" height="24" fill="none" xmlns="http://www.w3.org/2000/svg"><mask id="a" style="mask-type:alpha" maskUnits="userSpaceOnUse" x="0" y="0" width="24" height="24"><path d="M24 0H0v24h24V0Z" fill="#fff"/></mask><g mask="url(#a)"><path fill-rule="evenodd" clip-rule="evenodd" d="M22.036 6.472c-.21-.84-.6-1.64-1.13-2.33a6.666 6.666 0 0 0-1.95-1.71c-.76-.43-1.59-.7-2.46-.81-.87-.1-1.74-.02-2.58.22-.84.25-1.62.66-2.29 1.21-.68.55-1.24 1.24-1.64 2.01a7.833 7.833 0 0 0-3.23.26c-1.05.31-2.02.83-2.86 1.52-.84.7-1.53 1.56-2.02 2.54-.5.97-.79 2.03-.85 3.12-.07 1.09.08 2.19.45 3.21a8.083 8.083 0 0 0 4.35 4.63c1 .43 2.08.66 3.17.66h8.5c1.11 0 2.18-.33 3.09-.95.91-.62 1.62-1.5 2.03-2.52.4-1.03.49-2.15.25-3.23a5.494 5.494 0 0 0-1.6-2.81 6.44 6.44 0 0 0 .77-5.02Zm-7.321.935c.76.77 1.35 1.69 1.74 2.69 1.05-.2 2.13-.09 3.12.31.47-.99.55-2.11.25-3.16-.3-1.05-.98-1.96-1.9-2.54a4.51 4.51 0 0 0-3.1-.66c-1.08.17-2.07.72-2.77 1.56 1 .41 1.9 1.02 2.66 1.8Z" fill="currentColor"/></g></svg>