<svg xmlns="http://www.w3.org/2000/svg" xmlns:xlink="http://www.w3.org/1999/xlink" width="24" height="24" viewBox="0 0 24 24" fill="none"><defs><rect id="path_0" x="0" y="0" width="24" height="24" /></defs><g opacity="1" transform="translate(0 0)  rotate(0 12 12)"><mask id="bg-mask-0" fill="white"><use xlink:href="#path_0"></use></mask><g mask="url(#bg-mask-0)" ><g opacity="1" transform="translate(1 1)  rotate(0 11 11)"><path id="路径 1" fill-rule="evenodd" style="fill:#000000" transform="translate(5 5)  rotate(0 6 6)" opacity="1" d="M10.24,10.24C11.37,9.12 12,7.59 12,6C12,4.41 11.37,2.88 10.24,1.76C9.12,0.63 7.59,0 6,0C4.41,0 2.88,0.63 1.76,1.76C0.63,2.88 0,4.41 0,6C0,7.59 0.63,9.12 1.76,10.24C2.88,11.37 4.41,12 6,12C7.59,12 9.12,11.37 10.24,10.24Z " /><path id="路径 2" fill-rule="evenodd" style="fill:#000000" transform="translate(10 0)  rotate(0 1 1.5)" opacity="1" d="M0,3L2,3L2,0L0,0L0,3Z " /><path id="路径 3" fill-rule="evenodd" style="fill:#000000" transform="translate(10 19)  rotate(0 1 1.5)" opacity="1" d="M0,3L2,3L2,0L0,0L0,3Z " /><path id="路径 4" fill-rule="evenodd" style="fill:#000000" transform="translate(2.515 2.515)  rotate(0 1.7674999999999998 1.7674999999999998)" opacity="1" d="M0,1.41L2.12,3.53L3.53,2.12L1.41,0L0,1.41L0,1.41Z " /><path id="路径 5" fill-rule="evenodd" style="fill:#000000" transform="translate(15.95 15.95)  rotate(0 1.7675 1.7675)" opacity="1" d="M2.12,3.54L3.54,2.12L1.41,0L0,1.41L2.12,3.54Z " /><path id="路径 6" fill-rule="evenodd" style="fill:#000000" transform="translate(15.95 2.514)  rotate(0 1.7675 1.768)" opacity="1" d="M2.12,0L0,2.12L1.41,3.54L3.54,1.42L2.12,0L2.12,0Z " /><path id="路径 7" fill-rule="evenodd" style="fill:#000000" transform="translate(2.515 15.95)  rotate(0 1.7674999999999998 1.7675)" opacity="1" d="M0,2.12L1.41,3.54L3.53,1.41L2.12,0L0,2.12Z " /><path id="路径 8" fill-rule="evenodd" style="fill:#000000" transform="translate(19 10)  rotate(0 1.5 1)" opacity="1" d="M0,0L0,2L3,2L3,0L0,0Z " /><path id="路径 9" fill-rule="evenodd" style="fill:#000000" transform="translate(0 10)  rotate(0 1.5 1)" opacity="1" d="M0,0L0,2L3,2L3,0L0,0Z " /></g></g></g></svg>