<svg xmlns="http://www.w3.org/2000/svg" xmlns:xlink="http://www.w3.org/1999/xlink" viewBox="0 0 24 24" fill="none"><defs><rect id="path_0" x="0" y="0" width="24" height="24" /></defs><g opacity="1" transform="translate(0 0)  rotate(0 12 12)"><mask id="bg-mask-0" fill="white"><use xlink:href="#path_0"></use></mask><g mask="url(#bg-mask-0)" ><path id="分组 1" fill-rule="evenodd" style="fill:#000000" transform="translate(1.006041001648617 1.5817864790100025)  rotate(0 10.996627940506231 9.709106760494999)" opacity="1" d="M19.9 2.56C19.37 1.87 18.71 1.29 17.95 0.85C17.19 0.42 16.36 0.15 15.49 0.04C14.62 -0.06 13.75 0.02 12.91 0.26C12.07 0.51 11.29 0.92 10.62 1.47C9.94 2.02 9.38 2.71 8.98 3.48L8.98 3.48C7.89 3.34 6.8 3.43 5.75 3.74C4.7 4.05 3.73 4.57 2.89 5.26C2.05 5.96 1.36 6.82 0.87 7.8C0.37 8.77 0.08 9.83 0.02 10.92C-0.05 12.01 0.1 13.11 0.47 14.13C0.85 15.16 1.42 16.1 2.17 16.89C2.92 17.69 3.82 18.32 4.82 18.76C5.82 19.19 6.9 19.42 7.99 19.42L16.49 19.42C17.6 19.42 18.67 19.09 19.58 18.47C20.49 17.85 21.2 16.97 21.61 15.95C22.01 14.92 22.1 13.8 21.86 12.72C21.62 11.65 21.07 10.67 20.26 9.91C20.72 9.17 21.03 8.34 21.16 7.48C21.29 6.62 21.25 5.74 21.03 4.89C20.82 4.05 20.43 3.25 19.9 2.56Z M13.709 5.82476C14.469 6.59476 15.059 7.51476 15.449 8.51476C16.499 8.31476 17.579 8.42476 18.569 8.82476C19.039 7.83476 19.119 6.71476 18.819 5.66476C18.519 4.61476 17.839 3.70476 16.919 3.12476C15.999 2.53476 14.899 2.30476 13.819 2.46476C12.739 2.63476 11.749 3.18476 11.049 4.02476L11.049 4.02476C12.049 4.43476 12.949 5.04476 13.709 5.82476Z M4.66394 16.4082C5.64394 17.0682 6.80394 17.4182 7.99394 17.4182L16.4939 17.4182C17.0739 17.4182 17.6439 17.2782 18.1439 16.9982C18.6539 16.7282 19.0939 16.3382 19.4039 15.8582C19.7239 15.3782 19.9239 14.8182 19.9739 14.2482C20.0339 13.6782 19.9439 13.0982 19.7239 12.5582C19.4939 12.0282 19.1439 11.5582 18.6939 11.1982C18.2439 10.8382 17.7139 10.5882 17.1539 10.4782C16.5839 10.3682 15.9939 10.4082 15.4439 10.5782C14.8939 10.7482 14.3939 11.0582 13.9939 11.4682L13.9939 11.4182C13.9939 10.2282 13.6439 9.06822 12.9839 8.08822C12.3239 7.09822 11.3839 6.32822 10.2939 5.87822C9.19394 5.41822 7.98394 5.29822 6.82394 5.53822C5.66394 5.76822 4.59394 6.33822 3.75394 7.17822C2.91394 8.01822 2.34394 9.08822 2.11394 10.2482C1.87394 11.4082 1.99394 12.6182 2.45394 13.7182C2.90394 14.8082 3.67394 15.7482 4.66394 16.4082Z " /></g></g></svg>