<svg xmlns="http://www.w3.org/2000/svg" xmlns:xlink="http://www.w3.org/1999/xlink" width="24" height="24" viewBox="0 0 24 24" fill="none"><defs><rect id="path_0" x="0" y="0" width="24" height="24" /></defs><g opacity="1" transform="translate(0 0)  rotate(0 12 12)"><mask id="bg-mask-0" fill="white"><use xlink:href="#path_0"></use></mask><g mask="url(#bg-mask-0)" ><path id="分组 1" fill-rule="evenodd" style="fill:#000000" transform="translate(1 1)  rotate(0 11 11)" opacity="1" d="M15.24 15.24C16.37 14.12 17 12.59 17 11C17 9.41 16.37 7.88 15.24 6.76C14.12 5.63 12.59 5 11 5C9.41 5 7.88 5.63 6.76 6.76C5.63 7.88 5 9.41 5 11C5 12.59 5.63 14.12 6.76 15.24C7.88 16.37 9.41 17 11 17C12.59 17 14.12 16.37 15.24 15.24Z M13.83 13.83C14.58 13.08 15 12.06 15 11C15 9.94 14.58 8.92 13.83 8.17C13.08 7.42 12.06 7 11 7C9.94 7 8.92 7.42 8.17 8.17C7.42 8.92 7 9.94 7 11C7 12.06 7.42 13.08 8.17 13.83C8.92 14.58 9.94 15 11 15C12.06 15 13.08 14.58 13.83 13.83Z M10 3L12 3L12 0L10 0L10 3Z M10 22L12 22L12 19L10 19L10 22Z M2.515 3.925L4.635 6.045L6.045 4.635L3.925 2.515L2.515 3.925L2.515 3.925Z M18.07 19.49L19.49 18.07L17.36 15.95L15.95 17.36L18.07 19.49Z M18.07 2.514L15.95 4.634L17.36 6.054L19.49 3.934L18.07 2.514L18.07 2.514Z M2.515 18.07L3.925 19.49L6.045 17.36L4.635 15.95L2.515 18.07Z M19 10L19 12L22 12L22 10L19 10Z M0 10L0 12L3 12L3 10L0 10Z " /></g></g></svg>