<svg width="24" height="24" fill="none" xmlns="http://www.w3.org/2000/svg"><mask id="a" style="mask-type:alpha" maskUnits="userSpaceOnUse" x="0" y="0" width="24" height="24"><path d="M24 0H0v24h24V0Z" fill="#fff"/></mask><g mask="url(#a)"><path fill-rule="evenodd" clip-rule="evenodd" d="M16.24 16.24A5.97 5.97 0 0 0 18 12c0-1.59-.63-3.12-1.76-4.24A5.97 5.97 0 0 0 12 6c-1.59 0-3.12.63-4.24 1.76A5.97 5.97 0 0 0 6 12c0 1.59.63 3.12 1.76 4.24A5.97 5.97 0 0 0 12 18c1.59 0 3.12-.63 4.24-1.76Zm-1.41-1.41a4.004 4.004 0 0 0 0-5.66 4.004 4.004 0 0 0-5.66 0 4.004 4.004 0 0 0 0 5.66 4.004 4.004 0 0 0 5.66 0ZM11 4h2V1h-2v3Zm0 19h2v-3h-2v3ZM3.515 4.925l2.12 2.12 1.41-1.41-2.12-2.12-1.41 1.41ZM19.07 20.49l1.42-1.42-2.13-2.12-1.41 1.41 2.12 2.13Zm0-16.976-2.12 2.12 1.41 1.42 2.13-2.12-1.42-1.42ZM3.515 19.07l1.41 1.42 2.12-2.13-1.41-1.41-2.12 2.12ZM20 11v2h3v-2h-3ZM1 11v2h3v-2H1Z" fill="currentColor"/></g></svg>