<svg xmlns="http://www.w3.org/2000/svg" xmlns:xlink="http://www.w3.org/1999/xlink" width="24" height="24" viewBox="0 0 24 24" fill="none"><defs><rect id="path_0" x="0" y="0" width="24" height="24" /></defs><g opacity="1" transform="translate(0 0)  rotate(0 12 12)"><mask id="bg-mask-0" fill="white"><use xlink:href="#path_0"></use></mask><g mask="url(#bg-mask-0)" ><path id="分组 1" fill-rule="evenodd" style="fill:#000000" transform="translate(3 3)  rotate(0 9 9)" opacity="1" d="M4.6 0C3.38 0 2.21 0.48 1.35 1.35C0.48 2.21 0 3.38 0 4.6L0 13.4C0 14.62 0.48 15.79 1.35 16.65C2.21 17.52 3.38 18 4.6 18L9 18L9 0L4.6 0Z M4.6 2C3.91 2 3.25 2.27 2.76 2.76C2.27 3.25 2 3.91 2 4.6L2 13.4C2 14.09 2.27 14.75 2.76 15.24C3.25 15.73 3.91 16 4.6 16L7 16L7 2L4.6 2Z M5.56 6.56C5.84 6.28 6 5.9 6 5.5C6 5.1 5.84 4.72 5.56 4.44C5.28 4.16 4.9 4 4.5 4C4.1 4 3.72 4.16 3.44 4.44C3.16 4.72 3 5.1 3 5.5C3 5.9 3.16 6.28 3.44 6.56C3.72 6.84 4.1 7 4.5 7C4.9 7 5.28 6.84 5.56 6.56Z M18 13.4L18 4.6C18 4 17.88 3.4 17.65 2.84C17.42 2.28 17.08 1.77 16.65 1.35C16.23 0.92 15.72 0.58 15.16 0.35C14.6 0.12 14 0 13.4 0L11 0L11 18L13.4 18C14 18 14.6 17.88 15.16 17.65C15.72 17.42 16.23 17.08 16.65 16.65C17.08 16.23 17.42 15.72 17.65 15.16C17.88 14.6 18 14 18 13.4Z M12.2 9.9C12.2 10.38 12.39 10.84 12.73 11.17C13.06 11.51 13.52 11.7 14 11.7C14.24 11.7 14.47 11.65 14.69 11.56C14.91 11.47 15.11 11.34 15.27 11.17C15.44 11.01 15.57 10.81 15.66 10.59C15.75 10.37 15.8 10.14 15.8 9.9C15.8 9.66 15.75 9.43 15.66 9.21C15.57 8.99 15.44 8.79 15.27 8.63C15.11 8.46 14.91 8.33 14.69 8.24C14.47 8.15 14.24 8.1 14 8.1C13.52 8.1 13.06 8.29 12.73 8.63C12.39 8.96 12.2 9.42 12.2 9.9Z " /></g></g></svg>