<svg width="24" height="24" fill="none" xmlns="http://www.w3.org/2000/svg"><mask id="a" style="mask-type:alpha" maskUnits="userSpaceOnUse" x="0" y="0" width="24" height="24"><path d="M24 0H0v24h24V0Z" fill="#fff"/></mask><g mask="url(#a)"><path fill-rule="evenodd" clip-rule="evenodd" d="M7.6 3c-1.22 0-2.39.48-3.25 1.35C3.48 5.21 3 6.38 3 7.6v8.8c0 1.22.48 2.39 1.35 3.25.86.87 2.03 1.35 3.25 1.35H12V3H7.6Zm0 2A2.595 2.595 0 0 0 5 7.6v8.8A2.595 2.595 0 0 0 7.6 19H10V5H7.6Zm.96 4.56a1.499 1.499 0 1 0-2.12-2.12 1.499 1.499 0 1 0 2.12 2.12ZM21 16.4V7.6c0-.6-.12-1.2-.35-1.76-.23-.56-.57-1.07-1-1.49-.42-.43-.93-.77-1.49-1C17.6 3.12 17 3 16.4 3H14v18h2.4c.6 0 1.2-.12 1.76-.35.56-.23 1.07-.57 1.49-1 .43-.42.77-.93 1-1.49.23-.56.35-1.16.35-1.76Zm-5.8-3.5c0 .48.19.94.53 1.27.33.34.79.53 1.27.53.24 0 .47-.05.69-.14.22-.09.42-.22.58-.39.17-.16.3-.36.39-.58.09-.22.14-.45.14-.69 0-.24-.05-.47-.14-.69a1.65 1.65 0 0 0-.39-.58c-.16-.17-.36-.3-.58-.39a1.81 1.81 0 0 0-.69-.14c-.48 0-.94.19-1.27.53-.34.33-.53.79-.53 1.27Z" fill="currentColor"/></g></svg>