<svg xmlns="http://www.w3.org/2000/svg" xmlns:xlink="http://www.w3.org/1999/xlink" viewBox="0 0 24 24" fill="none"><defs><rect id="path_0" x="0" y="0" width="24" height="24" /></defs><g opacity="1" transform="translate(0 0)  rotate(0 12 12)"><mask id="bg-mask-0" fill="white"><use xlink:href="#path_0"></use></mask><g mask="url(#bg-mask-0)" ><path id="分组 1" fill-rule="evenodd" style="fill:#000000" transform="translate(4 2)  rotate(0 8 10)" opacity="1" d="M2 18L14 18L14 2L2 2L2 18Z M0.29 0.29C0.11 0.48 0 0.73 0 1L0 19C0 19.27 0.11 19.52 0.29 19.71C0.48 19.89 0.73 20 1 20L15 20C15.27 20 15.52 19.89 15.71 19.71C15.89 19.52 16 19.27 16 19L16 1C16 0.73 15.89 0.48 15.71 0.29C15.52 0.11 15.27 0 15 0L1 0C0.73 0 0.48 0.11 0.29 0.29Z M7.29 15.29C7.11 15.48 7 15.73 7 16C7 16.27 7.11 16.52 7.29 16.71C7.48 16.89 7.73 17 8 17C8.27 17 8.52 16.89 8.71 16.71C8.89 16.52 9 16.27 9 16C9 15.73 8.89 15.48 8.71 15.29C8.52 15.11 8.27 15 8 15C7.73 15 7.48 15.11 7.29 15.29Z " /></g></g></svg>