<svg xmlns="http://www.w3.org/2000/svg" xmlns:xlink="http://www.w3.org/1999/xlink" width="24" height="24" viewBox="0 0 24 24" fill="none"><g opacity="1" transform="translate(0 0)  rotate(0 12 12)"><path id="分组 1" fill-rule="evenodd" style="fill:#000000" transform="translate(1 1)  rotate(0 11 11)" opacity="1" d="M10 18.94L10 22L12 22L12 18.94C15.63 18.48 18.48 15.63 18.94 12L22 12L22 10L18.94 10C18.48 6.38 15.63 3.52 12 3.06L12 0L10 0L10 3.06C6.37 3.52 3.52 6.37 3.06 10L0 10L0 12L3.06 12C3.52 15.63 6.38 18.48 10 18.94Z M9 11C9 12.1 9.9 13 11 13C12.1 13 13 12.1 13 11C13 9.9 12.1 9 11 9C9.9 9 9 9.9 9 11Z " /></g></svg>