<svg xmlns="http://www.w3.org/2000/svg" xmlns:xlink="http://www.w3.org/1999/xlink" width="24" height="24" viewBox="0 0 24 24" fill="none"><defs><rect id="path_0" x="0" y="0" width="24" height="24" /></defs><g opacity="1" transform="translate(0 0)  rotate(0 12 12)"><mask id="bg-mask-0" fill="white"><use xlink:href="#path_0"></use></mask><g mask="url(#bg-mask-0)" ><path id="分组 1" fill-rule="evenodd" style="fill:#000000" transform="translate(2 3)  rotate(0 10 9)" opacity="1" d="M19.71 0.29C19.52 0.11 19.27 0 19 0L1 0C0.73 0 0.48 0.11 0.29 0.29C0.11 0.48 0 0.73 0 1L0 17C0 17.27 0.11 17.52 0.29 17.71C0.48 17.89 0.73 18 1 18L19 18C19.27 18 19.52 17.89 19.71 17.71C19.89 17.52 20 17.27 20 17L20 1C20 0.73 19.89 0.48 19.71 0.29Z M10 14L16 14L16 12L10 12L10 14Z M3.586 11.827L4.996 13.247L9.246 8.997L4.996 4.757L3.586 6.177L6.416 8.997L3.586 11.827Z " /></g></g></svg>