<svg xmlns="http://www.w3.org/2000/svg" xmlns:xlink="http://www.w3.org/1999/xlink" viewBox="0 0 24 24" fill="none"><defs><rect id="path_0" x="0" y="0" width="24" height="24" /></defs><g opacity="1" transform="translate(0 0)  rotate(0 12 12)"><mask id="bg-mask-0" fill="white"><use xlink:href="#path_0"></use></mask><g mask="url(#bg-mask-0)" ><g opacity="1" transform="translate(0.9999989405516967 3)  rotate(0 11.000000529724153 9.919989178353168)"><path id="路径 1" fill-rule="evenodd" style="fill:#000000" transform="translate(18.000001059448305 0)  rotate(0 2 6)" opacity="1" d="M3.71,11.71C3.89,11.52 4,11.27 4,11L4,1C4,0.73 3.89,0.48 3.71,0.29C3.52,0.11 3.27,0 3,0L0,0L0,12L3,12C3.27,12 3.52,11.89 3.71,11.71Z " /><path id="路径 2" fill-rule="evenodd" style="fill:#000000" transform="translate(0 0)  rotate(0 8.000000529724153 9.919989178353168)" opacity="1" d="M0.15,8.13C0.05,8.38 0,8.63 0,8.9L0,11C0,11.53 0.21,12.04 0.59,12.41C0.96,12.79 1.47,13 2,13L8.4,13L7.25,17.53C7.17,17.82 7.19,18.12 7.29,18.4C7.38,18.68 7.56,18.92 7.8,19.1L8.65,19.74C8.75,19.81 8.87,19.85 8.99,19.84C9.11,19.83 9.22,19.78 9.31,19.69L15.71,13.29C15.89,13.11 16,12.85 16,12.59L16,1C16,0.73 15.89,0.48 15.71,0.29C15.52,0.11 15.27,0 15,0L4.17,0C3.97,0 3.78,0.06 3.61,0.17C3.45,0.28 3.32,0.44 3.25,0.62L0.15,8.13Z " /></g></g></g></svg>