<svg xmlns="http://www.w3.org/2000/svg" xmlns:xlink="http://www.w3.org/1999/xlink" viewBox="0 0 24 24" fill="none"><defs><rect id="path_0" x="0" y="0" width="24" height="24" /></defs><g opacity="1" transform="translate(0 0)  rotate(0 12 12)"><mask id="bg-mask-0" fill="white"><use xlink:href="#path_0"></use></mask><g mask="url(#bg-mask-0)" ><g opacity="1" transform="translate(1 1.1600343550893442)  rotate(0 11.000000657932242 9.919982886124854)"><path id="路径 1" fill-rule="evenodd" style="fill:#000000" transform="translate(0 7.839955644910656)  rotate(0 2 6.000005)" opacity="1" d="M0.29,0.29C0.11,0.48 0,0.73 0,1L0,11C0,11.27 0.11,11.52 0.29,11.71C0.48,11.89 0.73,12 1,12L4,12L4,0L1,0C0.73,0 0.48,0.11 0.29,0.29Z " /><path id="路径 2" fill-rule="evenodd" style="fill:#000000" transform="translate(6 0)  rotate(0 8.000000657932242 9.919982886124854)" opacity="1" d="M0,18.84C0,19.11 0.11,19.36 0.29,19.55C0.48,19.73 0.73,19.84 1,19.84L11.83,19.84C12.03,19.84 12.22,19.78 12.39,19.67C12.55,19.56 12.68,19.4 12.76,19.22L15.85,11.71C15.95,11.46 16,11.21 16,10.94L16,8.84C16,8.31 15.79,7.8 15.41,7.43C15.04,7.05 14.53,6.84 14,6.84L7.6,6.84L8.75,2.31C8.83,2.02 8.81,1.72 8.71,1.44C8.62,1.16 8.44,0.92 8.2,0.74L7.35,0.1C7.25,0.03 7.13,-0.01 7.01,0C6.89,0.01 6.78,0.06 6.69,0.15L0.29,6.55C0.11,6.73 0,6.99 0,7.25L0,18.84Z " /></g></g></g></svg>