<svg width="24" height="24" fill="none" xmlns="http://www.w3.org/2000/svg"><mask id="a" style="mask-type:alpha" maskUnits="userSpaceOnUse" x="0" y="0" width="24" height="24"><path d="M24 0H0v24h24V0Z" fill="#fff"/></mask><g mask="url(#a)"><path fill-rule="evenodd" clip-rule="evenodd" d="M22.71 14.71c.18-.19.29-.44.29-.71V4c0-.27-.11-.52-.29-.71-.19-.18-.44-.29-.71-.29H5.17c-.2 0-.39.06-.56.17-.16.11-.29.27-.36.45l-3.1 7.51c-.1.25-.15.5-.15.77V14c0 .53.21 1.04.59 1.41.37.38.88.59 1.41.59h6.4l-.9 3.55c-.14.55-.09 1.13.15 1.65.23.52.64.94 1.15 1.2l1.82.91c.1.05.23.06.34.04.12-.03.22-.1.29-.2l5.45-7.73c.09-.13.22-.23.36-.31.14-.07.3-.11.46-.11H22c.27 0 .52-.11.71-.29Zm-12.01 5.9.66.33 4.71-6.67c.25-.35.57-.64.93-.86V5H5.84L3 11.9V14h6.4c.3 0 .61.07.88.2.27.14.51.33.7.57.19.24.32.52.38.82.06.3.05.61-.02.9l-.9 3.55a.53.53 0 0 0 .02.33c.05.11.13.19.24.24ZM21 13V5h-2v8h2Z" fill="currentColor"/></g></svg>