<svg width="24" height="24" fill="none" xmlns="http://www.w3.org/2000/svg"><mask id="a" style="mask-type:alpha" maskUnits="userSpaceOnUse" x="0" y="0" width="24" height="24"><path d="M24 0H0v24h24V0Z" fill="#fff"/></mask><g mask="url(#a)" fill-rule="evenodd" clip-rule="evenodd" fill="currentColor"><path d="M22.71 14.71c.18-.19.29-.44.29-.71V4c0-.27-.11-.52-.29-.71-.19-.18-.44-.29-.71-.29h-3v12h3c.27 0 .52-.11.71-.29ZM1.15 11.13c-.1.25-.15.5-.15.77V14c0 .53.21 1.04.59 1.41.37.38.88.59 1.41.59h6.4l-1.15 4.53c-.08.29-.06.59.04.87.09.28.27.52.51.7l.85.64c.1.07.22.11.34.1.12-.01.23-.06.32-.15l6.4-6.4c.18-.18.29-.44.29-.7V4c0-.27-.11-.52-.29-.71-.19-.18-.44-.29-.71-.29H5.17c-.2 0-.39.06-.56.17-.16.11-.29.27-.36.45l-3.1 7.51Z"/></g></svg>