<svg xmlns="http://www.w3.org/2000/svg" xmlns:xlink="http://www.w3.org/1999/xlink" viewBox="0 0 24 24" fill="none"><defs><rect id="path_0" x="0" y="0" width="24" height="24" /></defs><g opacity="1" transform="translate(0 0)  rotate(0 12 12)"><mask id="bg-mask-0" fill="white"><use xlink:href="#path_0"></use></mask><g mask="url(#bg-mask-0)" ><path id="分组 1" fill-rule="evenodd" style="fill:#000000" transform="translate(0.9999989405516967 3)  rotate(0 11.000000529724153 10.180358805100907)" opacity="1" d="M21.71 11.71C21.89 11.52 22 11.27 22 11L22 1C22 0.73 21.89 0.48 21.71 0.29C21.52 0.11 21.27 0 21 0L4.17 0C3.97 0 3.78 0.06 3.61 0.17C3.45 0.28 3.32 0.44 3.25 0.62L0.15 8.13C0.05 8.38 0 8.63 0 8.9L0 11C0 11.53 0.21 12.04 0.59 12.41C0.96 12.79 1.47 13 2 13L8.4 13L7.5 16.55C7.36 17.1 7.41 17.68 7.65 18.2C7.88 18.72 8.29 19.14 8.8 19.4L10.62 20.31C10.72 20.36 10.85 20.37 10.96 20.35C11.08 20.32 11.18 20.25 11.25 20.15L16.7 12.42C16.79 12.29 16.92 12.19 17.06 12.11C17.2 12.04 17.36 12 17.52 12L21 12C21.27 12 21.52 11.89 21.71 11.71Z M9.7 17.61L10.36 17.94L15.07 11.27C15.32 10.92 15.64 10.63 16 10.41L16 2L4.84 2L2 8.9L2 11L8.4 11C8.7 11 9.01 11.07 9.28 11.2C9.55 11.34 9.79 11.53 9.98 11.77C10.17 12.01 10.3 12.29 10.36 12.59C10.42 12.89 10.41 13.2 10.34 13.49L9.44 17.04C9.41 17.15 9.42 17.27 9.46 17.37C9.51 17.48 9.59 17.56 9.7 17.61Z M20 10L20 2L18 2L18 10L20 10Z " /></g></g></svg>