<svg width="24" height="24" fill="none" xmlns="http://www.w3.org/2000/svg"><mask id="a" style="mask-type:alpha" maskUnits="userSpaceOnUse" x="0" y="0" width="24" height="24"><path d="M24 0H0v24h24V0Z" fill="#fff"/></mask><g mask="url(#a)"><path fill-rule="evenodd" clip-rule="evenodd" d="M5.48 8.998H2c-.27 0-.52.11-.71.29-.18.19-.29.45-.29.71v10c0 .27.11.52.29.71.19.19.44.29.71.29h16.83c.2 0 .39-.06.56-.17.16-.11.29-.26.37-.45l3.09-7.51c.1-.24.15-.5.15-.76v-2.11c0-.53-.21-1.04-.59-1.41-.37-.38-.88-.59-1.41-.59h-6.4l.9-3.55c.14-.55.09-1.13-.15-1.65a2.44 2.44 0 0 0-1.15-1.2l-1.82-.91a.497.497 0 0 0-.34-.03c-.12.02-.22.09-.29.19L6.3 8.578c-.09.13-.22.24-.36.31-.14.07-.3.11-.46.11ZM21 12.108v-2.11h-6.4c-.3 0-.61-.07-.88-.2-.27-.14-.51-.33-.7-.57-.19-.24-.32-.52-.38-.82a2.1 2.1 0 0 1 .02-.9l.91-3.55c.02-.11.01-.23-.03-.33a.508.508 0 0 0-.24-.24l-.66-.33-4.71 6.67c-.25.36-.57.65-.93.86v8.41h11.16l2.84-6.89ZM3 11v8h2v-8H3Z" fill="currentColor"/></g></svg>