<svg width="24" height="24" fill="none" xmlns="http://www.w3.org/2000/svg"><mask id="a" style="mask-type:alpha" maskUnits="userSpaceOnUse" x="0" y="0" width="24" height="24"><path d="M24 0H0v24h24V0Z" fill="#fff"/></mask><g mask="url(#a)" fill-rule="evenodd" clip-rule="evenodd" fill="currentColor"><path d="M1.29 9.29c-.18.19-.29.44-.29.71v10c0 .27.11.52.29.71.19.18.44.29.71.29h3V9H2c-.27 0-.52.11-.71.29ZM7 20c0 .27.11.52.29.71.19.18.44.29.71.29h10.83c.2 0 .39-.06.56-.17.16-.11.29-.27.37-.45l3.09-7.51c.1-.25.15-.5.15-.77V10c0-.53-.21-1.04-.59-1.41C22.04 8.21 21.53 8 21 8h-6.4l1.15-4.53c.08-.29.06-.59-.04-.87-.09-.28-.27-.52-.51-.7l-.85-.64a.524.524 0 0 0-.34-.1c-.12.01-.23.06-.32.15l-6.4 6.4c-.18.18-.29.44-.29.7V20Z"/></g></svg>