<svg xmlns="http://www.w3.org/2000/svg" xmlns:xlink="http://www.w3.org/1999/xlink" width="24" height="24" viewBox="0 0 24 24" fill="none"><defs><rect id="path_0" x="0" y="0" width="24" height="24" /></defs><g opacity="1" transform="translate(0 0)  rotate(0 12 12)"><mask id="bg-mask-0" fill="white"><use xlink:href="#path_0"></use></mask><g mask="url(#bg-mask-0)" ><path id="分组 1" fill-rule="evenodd" style="fill:#000000" transform="translate(1 0.638305770084898)  rotate(0 11.000000657932242 10.180847178627078)" opacity="1" d="M4.48 8.36L1 8.36C0.73 8.36 0.48 8.47 0.29 8.65C0.11 8.84 0 9.1 0 9.36L0 19.36C0 19.63 0.11 19.88 0.29 20.07C0.48 20.26 0.73 20.36 1 20.36L17.83 20.36C18.03 20.36 18.22 20.3 18.39 20.19C18.55 20.08 18.68 19.93 18.76 19.74L21.85 12.23C21.95 11.99 22 11.73 22 11.47L22 9.36C22 8.83 21.79 8.32 21.41 7.95C21.04 7.57 20.53 7.36 20 7.36L13.6 7.36L14.5 3.81C14.64 3.26 14.59 2.68 14.35 2.16C14.12 1.64 13.71 1.21 13.2 0.96L11.38 0.05C11.28 0 11.15 -0.01 11.04 0.02C10.92 0.04 10.82 0.11 10.75 0.21L5.3 7.94C5.21 8.07 5.08 8.18 4.94 8.25C4.8 8.32 4.64 8.36 4.48 8.36Z M20 11.4697L20 9.35972L13.6 9.35972C13.3 9.35972 12.99 9.28972 12.72 9.15972C12.45 9.01972 12.21 8.82972 12.02 8.58972C11.83 8.34972 11.7 8.06972 11.64 7.76972C11.58 7.46972 11.59 7.15972 11.66 6.86972L12.57 3.31972C12.59 3.20972 12.58 3.08972 12.54 2.98972C12.49 2.88972 12.41 2.79972 12.3 2.74972L11.64 2.41972L6.93 9.08972C6.68 9.44972 6.36 9.73972 6 9.94972L6 18.3597L17.16 18.3597L20 11.4697Z M2 10.3617L2 18.3617L4 18.3617L4 10.3617L2 10.3617Z " /></g></g></svg>