<svg width="24" height="24" fill="none" xmlns="http://www.w3.org/2000/svg"><mask id="a" style="mask-type:alpha" maskUnits="userSpaceOnUse" x="0" y="0" width="24" height="24"><path d="M24 0H0v24h24V0Z" fill="#fff"/></mask><g mask="url(#a)" fill-rule="evenodd" clip-rule="evenodd" fill="currentColor"><path d="M12.313 9.12c.19-.25.45-.44.75-.53a1.539 1.539 0 0 1 1.66.56c.18.26.28.57.28.88v3.98h2.01c.28-.01.56.07.8.22.23.15.42.36.55.61.12.25.17.53.15.81-.03.28-.14.55-.31.77L16.993 18h.51a5.532 5.532 0 0 0 4.07-1.8c.51-.57.9-1.24 1.14-1.96.25-.73.33-1.5.26-2.26-.07-.77-.3-1.5-.68-2.17-.38-.67-.89-1.25-1.5-1.71-.61-.46-1.31-.79-2.06-.96a5.43 5.43 0 0 0-2.27-.04 8.001 8.001 0 0 0-2.95-3.7 7.986 7.986 0 0 0-9.59.42 7.992 7.992 0 0 0-1.97 9.96 8 8 0 0 0 3.99 3.62l6.37-8.28Z"/><path d="M13 11.5 8 18h3v4.51L16 16h-3v-4.5Z"/></g></svg>