<svg xmlns="http://www.w3.org/2000/svg" xmlns:xlink="http://www.w3.org/1999/xlink" width="24" height="24" viewBox="0 0 24 24" fill="none"><defs><rect id="path_0" x="0" y="0" width="24" height="24" /></defs><g opacity="1" transform="translate(0 0)  rotate(0 12 12)"><mask id="bg-mask-0" fill="white"><use xlink:href="#path_0"></use></mask><g mask="url(#bg-mask-0)" ><g opacity="1" transform="translate(1.002565263774752 1.9999999875212602)  rotate(0 10.9971478812357 10.25250000623937)"><path id="路径 1" fill-rule="evenodd" style="fill:#000000" transform="translate(0 0)  rotate(0 10.9971478812357 8.00000000623937)" opacity="1" d="M11.31,7.12C11.5,6.87 11.76,6.68 12.06,6.59C12.36,6.5 12.68,6.51 12.98,6.61C13.28,6.71 13.53,6.9 13.72,7.15C13.9,7.41 14,7.72 14,8.03L14,12.01L16.01,12.01C16.29,12 16.57,12.08 16.81,12.23C17.04,12.38 17.23,12.59 17.36,12.84C17.48,13.09 17.53,13.37 17.51,13.65C17.48,13.93 17.37,14.2 17.2,14.42L15.99,16L16.5,16C17.26,16 18.02,15.84 18.72,15.53C19.42,15.22 20.05,14.77 20.57,14.2C21.08,13.63 21.47,12.96 21.71,12.24C21.96,11.51 22.04,10.74 21.97,9.98C21.9,9.21 21.67,8.48 21.29,7.81C20.91,7.14 20.4,6.56 19.79,6.1C19.18,5.64 18.48,5.31 17.73,5.14C16.98,4.97 16.21,4.95 15.46,5.1C14.87,3.6 13.85,2.31 12.51,1.4C11.18,0.49 9.61,0 8,0C6.15,0 4.35,0.64 2.92,1.82C1.49,2.99 0.51,4.63 0.15,6.44C-0.21,8.26 0.07,10.14 0.95,11.78C1.82,13.41 3.23,14.69 4.94,15.4L11.31,7.12Z " /><path id="路径 2" fill-rule="evenodd" style="fill:#000000" transform="translate(6.997474736225248 9.50000001247874)  rotate(0 3.99998 5.5024999999999995)" opacity="1" d="M5,0L0,6.5L3,6.5L3,11.01L8,4.5L5,4.5L5,0Z " /></g></g></g></svg>