<svg xmlns="http://www.w3.org/2000/svg" xmlns:xlink="http://www.w3.org/1999/xlink" width="24" height="24" viewBox="0 0 24 24" fill="none"><defs><rect id="path_0" x="0" y="0" width="24" height="24" /></defs><g opacity="1" transform="translate(0 0)  rotate(0 12 12)"><mask id="bg-mask-0" fill="white"><use xlink:href="#path_0"></use></mask><g mask="url(#bg-mask-0)" ><path id="分组 1" fill-rule="evenodd" style="fill:#000000" transform="translate(1 5)  rotate(0 11 7)" opacity="1" d="M7 0C5.14 0 3.36 0.74 2.05 2.05C0.74 3.36 0 5.14 0 7C0 8.86 0.74 10.64 2.05 11.95C3.36 13.26 5.14 14 7 14L15 14C16.86 14 18.64 13.26 19.95 11.95C21.26 10.64 22 8.86 22 7C22 5.14 21.26 3.36 19.95 2.05C18.64 0.74 16.86 0 15 0L7 0Z M17.12 9.12C17.68 8.56 18 7.8 18 7C18 6.2 17.68 5.44 17.12 4.88C16.56 4.32 15.8 4 15 4C14.2 4 13.44 4.32 12.88 4.88C12.32 5.44 12 6.2 12 7C12 7.8 12.32 8.56 12.88 9.12C13.44 9.68 14.2 10 15 10C15.8 10 16.56 9.68 17.12 9.12Z " /></g></g></svg>