<svg width="24" height="24" fill="none" xmlns="http://www.w3.org/2000/svg"><mask id="a" style="mask-type:alpha" maskUnits="userSpaceOnUse" x="0" y="0" width="24" height="24"><path d="M24 0H0v24h24V0Z" fill="#fff"/></mask><g mask="url(#a)"><path fill-rule="evenodd" clip-rule="evenodd" d="M4.46 8.46C3.53 9.4 3 10.67 3 12s.53 2.6 1.46 3.54C5.4 16.47 6.67 17 8 17h8c1.33 0 2.6-.53 3.54-1.46C20.47 14.6 21 13.33 21 12s-.53-2.6-1.46-3.54A5.036 5.036 0 0 0 16 7H8c-1.33 0-2.6.53-3.54 1.46ZM16 19a7.001 7.001 0 1 0 0-14H8a7.001 7.001 0 1 0 0 14h8Zm-5.88-4.88a2.997 2.997 0 1 0-4.24-4.24 2.997 2.997 0 1 0 4.24 4.24Z" fill="currentColor"/></g></svg>