<svg xmlns="http://www.w3.org/2000/svg" xmlns:xlink="http://www.w3.org/1999/xlink" width="24" height="24" viewBox="0 0 24 24" fill="none"><defs><rect id="path_0" x="0" y="0" width="24" height="24" /></defs><g opacity="1" transform="translate(0 0)  rotate(0 12 12)"><mask id="bg-mask-0" fill="white"><use xlink:href="#path_0"></use></mask><g mask="url(#bg-mask-0)" ><path id="分组 1" fill-rule="evenodd" style="fill:#000000" transform="translate(1 5)  rotate(0 11 7)" opacity="1" d="M3.46 3.46C2.53 4.4 2 5.67 2 7C2 8.33 2.53 9.6 3.46 10.54C4.4 11.47 5.67 12 7 12L15 12C16.33 12 17.6 11.47 18.54 10.54C19.47 9.6 20 8.33 20 7C20 5.67 19.47 4.4 18.54 3.46C17.6 2.53 16.33 2 15 2L7 2C5.67 2 4.4 2.53 3.46 3.46Z M15 14C16.86 14 18.64 13.26 19.95 11.95C21.26 10.64 22 8.86 22 7C22 5.14 21.26 3.36 19.95 2.05C18.64 0.74 16.86 0 15 0L7 0C5.14 0 3.36 0.74 2.05 2.05C0.74 3.36 0 5.14 0 7C0 8.86 0.74 10.64 2.05 11.95C3.36 13.26 5.14 14 7 14L15 14Z M9.12 9.12C9.68 8.56 10 7.8 10 7C10 6.2 9.68 5.44 9.12 4.88C8.56 4.32 7.8 4 7 4C6.2 4 5.44 4.32 4.88 4.88C4.32 5.44 4 6.2 4 7C4 7.8 4.32 8.56 4.88 9.12C5.44 9.68 6.2 10 7 10C7.8 10 8.56 9.68 9.12 9.12Z " /></g></g></svg>