<svg width="24" height="24" fill="none" xmlns="http://www.w3.org/2000/svg"><path fill-rule="evenodd" clip-rule="evenodd" d="m16.501 10-4.4 11h2.15l1.2-3h4.09l1.2 3h2.16l-4.4-11h-2ZM16 6V4h-6V2H8v2H2v2h9.91c-.67 1.79-1.66 3.44-2.91 4.88C8.23 9.99 7.56 9.03 7.01 8H4.77c.73 1.56 1.68 3.01 2.82 4.3a14.536 14.536 0 0 1-5.33 3.04l.54 1.93c2.3-.72 4.41-1.93 6.2-3.54.92.82 1.92 1.55 3 2.16l.75-1.88c-.83-.49-1.62-1.07-2.34-1.71A18.12 18.12 0 0 0 14.03 6H16Zm.253 10.005h2.49l-1.24-3.12-1.25 3.12Z" fill="currentColor"/></svg>