<svg xmlns="http://www.w3.org/2000/svg" xmlns:xlink="http://www.w3.org/1999/xlink" width="24" height="24" viewBox="0 0 24 24" fill="none"><g opacity="1" transform="translate(0 0)  rotate(0 12 12)"><path id="分组 1" fill-rule="evenodd" style="fill:#000000" transform="translate(2 2)  rotate(0 10.45 9.5)" opacity="1" d="M14.501 8L10.101 19L12.251 19L13.451 16L17.541 16L18.741 19L20.901 19L16.501 8L14.501 8Z M14 4L14 2L8 2L8 0L6 0L6 2L0 2L0 4L9.91 4C9.24 5.79 8.25 7.44 7 8.88C6.23 7.99 5.56 7.03 5.01 6L2.77 6C3.5 7.56 4.45 9.01 5.59 10.3C4.05 11.68 2.23 12.72 0.26 13.34L0.8 15.27C3.1 14.55 5.21 13.34 7 11.73C7.92 12.55 8.92 13.28 10 13.89L10.75 12.01C9.92 11.52 9.13 10.94 8.41 10.3C10.03 8.47 11.26 6.32 12.03 4L14 4Z M14.253 14.005L16.743 14.005L15.503 10.885L14.253 14.005Z " /></g></svg>