<svg xmlns="http://www.w3.org/2000/svg" xmlns:xlink="http://www.w3.org/1999/xlink" width="24" height="24" viewBox="0 0 24 24" fill="none"><defs><rect id="path_0" x="0" y="0" width="24" height="24" /></defs><g opacity="1" transform="translate(0 0)  rotate(0 12 12)"><mask id="bg-mask-0" fill="white"><use xlink:href="#path_0"></use></mask><g mask="url(#bg-mask-0)" ><path id="分组 1" fill-rule="evenodd" style="fill:#000000" transform="translate(1 5)  rotate(0 11 8.00315)" opacity="1" d="M7.97 13L13.03 13C13.15 13.83 13.57 14.6 14.21 15.15C14.84 15.7 15.66 16.01 16.5 16.01C17.34 16.01 18.16 15.7 18.79 15.15C19.43 14.6 19.85 13.83 19.97 13L22 13L22 7.06L19 3L16 3L16 1C16 0.73 15.89 0.48 15.71 0.29C15.52 0.11 15.27 0 15 0L1 0C0.73 0 0.48 0.11 0.29 0.29C0.11 0.48 0 0.73 0 1L0 13L1.03 13C1.15 13.83 1.57 14.6 2.21 15.15C2.84 15.7 3.66 16.01 4.5 16.01C5.34 16.01 6.16 15.7 6.79 15.15C7.43 14.6 7.85 13.83 7.97 13Z M16 8L20 8L20 7.72L17.99 5L16 5L16 8Z " /></g></g></svg>