<svg width="24" height="24" fill="none" xmlns="http://www.w3.org/2000/svg"><mask id="a" style="mask-type:alpha" maskUnits="userSpaceOnUse" x="0" y="0" width="24" height="24"><path d="M24 0H0v24h24V0Z" fill="#fff"/></mask><g mask="url(#a)"><path fill-rule="evenodd" clip-rule="evenodd" d="M7.79 20.15c.64-.55 1.06-1.32 1.18-2.15h5.06c.12.83.54 1.6 1.18 2.15.63.55 1.45.86 2.29.86.84 0 1.66-.31 2.29-.86.64-.55 1.06-1.32 1.18-2.15H23v-5.94L20 8h-3V6c0-.27-.11-.52-.29-.71-.19-.18-.44-.29-.71-.29H2c-.27 0-.52.11-.71.29-.18.19-.29.44-.29.71v12h1.03c.12.83.54 1.6 1.18 2.15.63.55 1.45.86 2.29.86.84 0 1.66-.31 2.29-.86Zm7.21-5.1V7H3v8.05c.39-.4.88-.7 1.42-.88.53-.17 1.1-.22 1.66-.12.56.09 1.08.32 1.53.66.45.34.81.78 1.05 1.29h5.68c.17-.35.39-.67.66-.95ZM21 13v-.28L18.99 10H17v3h4Zm-2.44 5.559a1.499 1.499 0 1 0-2.12-2.12 1.499 1.499 0 1 0 2.12 2.12ZM6.07 16.11c-.18-.07-.37-.11-.57-.11-.2 0-.39.04-.57.11-.19.08-.35.19-.49.33s-.25.3-.33.49a1.499 1.499 0 0 0 2.45 1.63 1.499 1.499 0 0 0 0-2.12c-.14-.14-.3-.25-.49-.33Z" fill="currentColor"/></g></svg>