<svg xmlns="http://www.w3.org/2000/svg" xmlns:xlink="http://www.w3.org/1999/xlink" width="24" height="24" viewBox="0 0 24 24" fill="none"><defs><rect id="path_0" x="0" y="0" width="24" height="24" /></defs><g opacity="1" transform="translate(0 0)  rotate(0 12 12)"><mask id="bg-mask-0" fill="white"><use xlink:href="#path_0"></use></mask><g mask="url(#bg-mask-0)" ><path id="分组 1" fill-rule="evenodd" style="fill:#000000" transform="translate(1 5)  rotate(0 11 8.00315)" opacity="1" d="M6.79 15.15C7.43 14.6 7.85 13.83 7.97 13L13.03 13C13.15 13.83 13.57 14.6 14.21 15.15C14.84 15.7 15.66 16.01 16.5 16.01C17.34 16.01 18.16 15.7 18.79 15.15C19.43 14.6 19.85 13.83 19.97 13L22 13L22 7.06L19 3L16 3L16 1C16 0.73 15.89 0.48 15.71 0.29C15.52 0.11 15.27 0 15 0L1 0C0.73 0 0.48 0.11 0.29 0.29C0.11 0.48 0 0.73 0 1L0 13L1.03 13C1.15 13.83 1.57 14.6 2.21 15.15C2.84 15.7 3.66 16.01 4.5 16.01C5.34 16.01 6.16 15.7 6.79 15.15Z M14 10.05L14 2L2 2L2 10.05C2.39 9.65 2.88 9.35 3.42 9.17C3.95 9 4.52 8.95 5.08 9.05C5.64 9.14 6.16 9.37 6.61 9.71C7.06 10.05 7.42 10.49 7.66 11L13.34 11C13.51 10.65 13.73 10.33 14 10.05Z M20 8L20 7.72L17.99 5L16 5L16 8L20 8Z M17.5595 13.559C17.8395 13.279 17.9995 12.899 17.9995 12.499C17.9995 12.099 17.8395 11.719 17.5595 11.439C17.2795 11.159 16.8995 10.999 16.4995 10.999C16.0995 10.999 15.7195 11.159 15.4395 11.439C15.1595 11.719 14.9995 12.099 14.9995 12.499C14.9995 12.899 15.1595 13.279 15.4395 13.559C15.7195 13.839 16.0995 13.999 16.4995 13.999C16.8995 13.999 17.2795 13.839 17.5595 13.559Z M5.07 11.11C4.89 11.04 4.7 11 4.5 11C4.3 11 4.11 11.04 3.93 11.11C3.74 11.19 3.58 11.3 3.44 11.44C3.3 11.58 3.19 11.74 3.11 11.93C3.04 12.11 3 12.3 3 12.5C3 12.9 3.16 13.28 3.44 13.56C3.72 13.84 4.1 14 4.5 14C4.9 14 5.28 13.84 5.56 13.56C5.84 13.28 6 12.9 6 12.5C6 12.3 5.96 12.11 5.89 11.93C5.81 11.74 5.7 11.58 5.56 11.44C5.42 11.3 5.26 11.19 5.07 11.11Z " /></g></g></svg>