<svg width="24" height="24" fill="none" xmlns="http://www.w3.org/2000/svg"><mask id="a" style="mask-type:alpha" maskUnits="userSpaceOnUse" x="0" y="0" width="24" height="24"><path d="M24 0H0v24h24V0Z" fill="#fff"/></mask><g mask="url(#a)"><path fill-rule="evenodd" clip-rule="evenodd" d="M8.97 18h5.06c.12.83.54 1.6 1.18 2.15.63.55 1.45.86 2.29.86.84 0 1.66-.31 2.29-.86.64-.55 1.06-1.32 1.18-2.15H23v-5.94L20 8h-3V6c0-.27-.11-.52-.29-.71-.19-.18-.44-.29-.71-.29H2c-.27 0-.52.11-.71.29-.18.19-.29.44-.29.71v12h1.03c.12.83.54 1.6 1.18 2.15.63.55 1.45.86 2.29.86.84 0 1.66-.31 2.29-.86.64-.55 1.06-1.32 1.18-2.15ZM17 13h4v-.28L18.99 10H17v3Z" fill="currentColor"/></g></svg>