<svg width="24" height="24" fill="none" xmlns="http://www.w3.org/2000/svg"><mask id="a" style="mask-type:alpha" maskUnits="userSpaceOnUse" x="0" y="0" width="24" height="24"><path d="M24 0H0v24h24V0Z" fill="#fff"/></mask><g mask="url(#a)"><path fill-rule="evenodd" clip-rule="evenodd" d="M8.59 5h-5.6C2.46 5 2 5.45 2 6v14c0 .13.02.26.07.38s.13.23.22.33c.09.09.2.16.32.21.12.05.25.08.38.08h18.02c.53 0 .99-.45.99-1V6c0-.55-.44-1-.99-1h-5.6l2.54-2.54-1.41-1.41L12.59 5h-1.18L7.46 1.05 6.05 2.46 8.59 5Z" fill="currentColor"/></g></svg>