<svg xmlns="http://www.w3.org/2000/svg" xmlns:xlink="http://www.w3.org/1999/xlink" viewBox="0 0 24 24" fill="none"><defs><rect id="path_0" x="0" y="0" width="24" height="24" /></defs><g opacity="1" transform="translate(0 0)  rotate(0 12 12)"><mask id="bg-mask-0" fill="white"><use xlink:href="#path_0"></use></mask><g mask="url(#bg-mask-0)" ><path id="分组 1" fill-rule="evenodd" style="fill:#000000" transform="translate(2.00000188750888 1.0500500000000006)  rotate(0 9.99999905624556 9.974975)" opacity="1" d="M20 18.95L20 4.95C20 4.4 19.56 3.95 19.01 3.95L13.41 3.95L15.95 1.41L14.54 0L10.59 3.95L9.41 3.95L5.46 0L4.05 1.41L6.59 3.95L0.99 3.95C0.46 3.95 0 4.4 0 4.95L0 18.95C0 19.08 0.02 19.21 0.07 19.33C0.12 19.45 0.2 19.56 0.29 19.66C0.38 19.75 0.49 19.82 0.61 19.87C0.73 19.92 0.86 19.95 0.99 19.95L19.01 19.95C19.54 19.95 20 19.5 20 18.95Z M2.00002 17.95L18 17.95L18 5.95L2.00002 5.95L2.00002 17.95Z " /></g></g></svg>