<svg xmlns="http://www.w3.org/2000/svg" xmlns:xlink="http://www.w3.org/1999/xlink" viewBox="0 0 24 24" fill="none"><defs><rect id="path_0" x="0" y="0" width="24" height="24" /></defs><g opacity="1" transform="translate(0 0)  rotate(0 12 12)"><mask id="bg-mask-0" fill="white"><use xlink:href="#path_0"></use></mask><g mask="url(#bg-mask-0)" ><path id="分组 1" fill-rule="evenodd" style="fill:#000000" transform="translate(3 3)  rotate(0 9 9.399999999999999)" opacity="1" d="M0 16.4L4 16.4L4 18.8L6.9 18.8L9.4 16.4L13.3 16.4L18 11.7L18 0L1.3 0L0 3.2L0 16.4Z M6 14.4L6 16.8L6.1 16.8L8.6 14.4L12.47 14.4L16 10.87L16 2L2 2L2 14.4L6 14.4Z M12 9.7L14 9.7L14 5L12 5L12 9.7Z M7 9.7L9 9.7L9 5L7 5L7 9.7Z " /></g></g></svg>