<svg width="24" height="24" fill="none" xmlns="http://www.w3.org/2000/svg"><path fill-rule="evenodd" clip-rule="evenodd" d="M2.599 9.568c0 1.99 1.4 3.71 3.35 4.1-.61.17-1.26.2-1.89.08.55 1.7 2.12 2.87 3.91 2.9a8.36 8.36 0 0 1-6.19 1.73c1.91 1.23 4.14 1.89 6.41 1.88 7.69 0 11.9-6.37 11.9-11.9 0-.18-.01-.36-.01-.54.82-.59 1.52-1.32 2.08-2.16-.76.34-1.57.56-2.4.66.87-.53 1.53-1.35 1.84-2.32-.82.49-1.72.83-2.65 1.02a4.17 4.17 0 0 0-5.03-.83 4.17 4.17 0 0 0-2.1 4.64c-3.36-.17-6.5-1.76-8.62-4.37a4.19 4.19 0 0 0-.57 2.1c0 1.45.74 2.73 1.86 3.48-.66-.02-1.31-.2-1.89-.52v.05Z" fill="currentColor"/></svg>