<svg xmlns="http://www.w3.org/2000/svg" xmlns:xlink="http://www.w3.org/1999/xlink" viewBox="0 0 24 24" fill="none"><g opacity="1" transform="translate(0 0)  rotate(0 12 12)"><path id="路径 2" fill-rule="evenodd" style="fill:#000000" transform="translate(1.779000000000451 3.6884091259832985)  rotate(0 10.191999999999995 8.286798020553483)" opacity="1" d="M0.82,5.88C0.82,7.87 2.22,9.59 4.17,9.98C3.56,10.15 2.91,10.18 2.28,10.06C2.83,11.76 4.4,12.93 6.19,12.96C4.44,14.34 2.21,14.96 0,14.69C1.91,15.92 4.14,16.58 6.41,16.57C14.1,16.57 18.31,10.2 18.31,4.67C18.31,4.49 18.3,4.31 18.3,4.13C19.12,3.54 19.82,2.81 20.38,1.97L20.38,1.97C19.62,2.31 18.81,2.53 17.98,2.63C18.85,2.1 19.51,1.28 19.82,0.31C19,0.8 18.1,1.14 17.17,1.33C15.87,-0.06 13.81,-0.4 12.14,0.5C10.47,1.39 9.6,3.3 10.04,5.14C6.68,4.97 3.54,3.38 1.42,0.77C1.05,1.41 0.85,2.13 0.85,2.87C0.85,4.32 1.59,5.6 2.71,6.35C2.05,6.33 1.4,6.15 0.82,5.83L0.82,5.88Z " /></g></svg>