<svg width="24" height="24" fill="none" xmlns="http://www.w3.org/2000/svg"><path fill-rule="evenodd" clip-rule="evenodd" d="M9.629 16.5c.01.2-.08.39-.24.51l-1.6 1.16c.95.06 1.85.02 2.6-.13 4.71-.94 7.85-4.49 7.85-10.35 0-.48-1.01-2.14-2.94-2.14-1.58 0-2.87 1.27-2.9 2.85l-.03 1.57c0 .17-.08.33-.21.45-.13.11-.3.16-.47.14l-1.56-.22c-2.05-.28-4.02-1.22-5.91-2.8-.6 3.31.57 5.61 3.39 7.38l1.74 1.09c.17.11.28.29.28.49Zm.776-8.141c-.54-.07-.82-.06-1.98-.54-1.74-.71-3.45-2.06-5.15-4.03-3.6 8.68 1.88 11.91 3.26 12.82-1.63 1.19-4.45 1.5-5.14 1.55 1.36 1.42 6.11 2.49 9.38 1.84 4.77-.95 9.47-4.67 9.47-12.31.71-.98.87-1.69 1.21-3.33-1.35.82-1.96.64-2.67.65a4.9 4.9 0 0 0-8.39 3.35h.01Z" fill="currentColor"/></svg>