<svg xmlns="http://www.w3.org/2000/svg" xmlns:xlink="http://www.w3.org/1999/xlink" viewBox="0 0 24 24" fill="none"><g opacity="1" transform="translate(0 0)  rotate(0 12 12)"><path id="分组 1" fill-rule="evenodd" style="fill:#000000" transform="translate(1.3950000000004366 3.5485660938172714)  rotate(0 10.029499999999999 8.323506028071288)" opacity="1" d="M8.23354 12.9514C8.24354 13.1514 8.15354 13.3414 7.99354 13.4614L6.39354 14.6214C7.34354 14.6814 8.24354 14.6414 8.99354 14.4914C13.7035 13.5514 16.8435 10.0014 16.8435 4.14143C16.8435 3.66143 15.8335 2.00143 13.9035 2.00143C12.3235 2.00143 11.0335 3.27143 11.0035 4.85143L10.9735 6.42143C10.9735 6.59143 10.8935 6.75143 10.7635 6.87143C10.6335 6.98143 10.4635 7.03143 10.2935 7.01143L8.73354 6.79143C6.68354 6.51143 4.71354 5.57143 2.82354 3.99143C2.22354 7.30143 3.39354 9.60143 6.21354 11.3714L7.95354 12.4614C8.12354 12.5714 8.23354 12.7514 8.23354 12.9514Z M9.01 4.81C8.47 4.74 8.19 4.75 7.03 4.27C5.29 3.56 3.58 2.21 1.88 0.24C-1.72 8.92 3.76 12.15 5.14 13.06C3.51 14.25 0.69 14.56 0 14.61C1.36 16.03 6.11 17.1 9.38 16.45C14.15 15.5 18.85 11.78 18.85 4.14C19.56 3.16 19.72 2.45 20.06 0.81C18.71 1.63 18.1 1.45 17.39 1.46C16 0.05 13.91 -0.38 12.08 0.35C10.25 1.08 9.04 2.84 9 4.81L9.01 4.81Z " /></g></svg>