<svg width="24" height="24" fill="none" xmlns="http://www.w3.org/2000/svg"><mask id="a" style="mask-type:alpha" maskUnits="userSpaceOnUse" x="0" y="0" width="24" height="24"><path d="M24 0H0v24h24V0Z" fill="#fff"/></mask><g mask="url(#a)"><path fill-rule="evenodd" clip-rule="evenodd" d="M17 19c0 .53-.21 1.04-.59 1.41-.37.38-.88.59-1.41.59-.53 0-1.04-.21-1.41-.59-.38-.37-.59-.88-.59-1.41v-6h9v-1c0-5.18-3.95-9.45-9-9.95V2c0-.27-.11-.52-.29-.71-.19-.18-.44-.29-.71-.29-.27 0-.52.11-.71.29-.18.19-.29.44-.29.71v.05c-5.05.5-9 4.77-9 9.95v1h9v6c0 1.06.42 2.08 1.17 2.83a4.004 4.004 0 0 0 5.66 0C18.58 21.08 19 20.06 19 19v-1h-2v1Z" fill="currentColor"/></g></svg>