<svg xmlns="http://www.w3.org/2000/svg" xmlns:xlink="http://www.w3.org/1999/xlink" viewBox="0 0 24 24" fill="none"><defs><rect id="path_0" x="0" y="0" width="24" height="24" /></defs><g opacity="1" transform="translate(0 0)  rotate(0 12 12)"><mask id="bg-mask-0" fill="white"><use xlink:href="#path_0"></use></mask><g mask="url(#bg-mask-0)" ><path id="路径 1" fill-rule="evenodd" style="fill:#000000" transform="translate(2 1)  rotate(0 10 11)" opacity="1" d="M15,18C15,18.53 14.79,19.04 14.41,19.41C14.04,19.79 13.53,20 13,20C12.47,20 11.96,19.79 11.59,19.41C11.21,19.04 11,18.53 11,18L11,12L20,12L20,11C20,5.82 16.05,1.55 11,1.05L11,1C11,0.73 10.89,0.48 10.71,0.29C10.52,0.11 10.27,0 10,0C9.73,0 9.48,0.11 9.29,0.29C9.11,0.48 9,0.73 9,1L9,1.05C3.95,1.55 0,5.82 0,11L0,12L9,12L9,18C9,19.06 9.42,20.08 10.17,20.83C10.92,21.58 11.94,22 13,22C14.06,22 15.08,21.58 15.83,20.83C16.58,20.08 17,19.06 17,18L17,17L15,17L15,18Z " /></g></g></svg>