<svg xmlns="http://www.w3.org/2000/svg" xmlns:xlink="http://www.w3.org/1999/xlink" width="24" height="24" viewBox="0 0 24 24" fill="none"><defs><rect id="path_0" x="0" y="0" width="24" height="24" /></defs><g opacity="1" transform="translate(0 0)  rotate(0 12 12)"><mask id="bg-mask-0" fill="white"><use xlink:href="#path_0"></use></mask><g mask="url(#bg-mask-0)" ><g opacity="1" transform="translate(4 3)  rotate(0 8 9.5)"><path id="路径 1" fill-rule="evenodd" style="fill:#000000" transform="translate(2 0)  rotate(0 6 7.5)" opacity="1" d="M6,13C4.94,13 3.92,12.58 3.17,11.83C2.42,11.08 2,10.06 2,9L2,0L0,0L0,9C0,10.59 0.63,12.12 1.76,13.24C2.88,14.37 4.41,15 6,15C7.59,15 9.12,14.37 10.24,13.24C11.37,12.12 12,10.59 12,9L12,0L10,0L10,9C10,10.06 9.58,11.08 8.83,11.83C8.08,12.58 7.06,13 6,13Z " /><path id="路径 2" fill-rule="evenodd" style="fill:#000000" transform="translate(0 17)  rotate(0 8 1)" opacity="1" d="M0,2L16,2L16,0L0,0L0,2Z " /></g></g></g></svg>