<svg width="24" height="24" fill="none" xmlns="http://www.w3.org/2000/svg"><mask id="a" style="mask-type:alpha" maskUnits="userSpaceOnUse" x="0" y="0" width="24" height="24"><path d="M24 0H0v24h24V0Z" fill="#fff"/></mask><g mask="url(#a)" fill-rule="evenodd" clip-rule="evenodd" fill="currentColor"><path d="M12 16c-1.06 0-2.08-.42-2.83-1.17A4.004 4.004 0 0 1 8 12V3H6v9c0 1.59.63 3.12 1.76 4.24A5.97 5.97 0 0 0 12 18c1.59 0 3.12-.63 4.24-1.76A5.97 5.97 0 0 0 18 12V3h-2v9c0 1.06-.42 2.08-1.17 2.83S13.06 16 12 16ZM4 22h16v-2H4v2Z"/></g></svg>