<svg xmlns="http://www.w3.org/2000/svg" xmlns:xlink="http://www.w3.org/1999/xlink" viewBox="0 0 24 24" fill="none"><defs><rect id="path_0" x="0" y="0" width="24" height="24" /></defs><g opacity="1" transform="translate(0 0)  rotate(0 12 12)"><mask id="bg-mask-0" fill="white"><use xlink:href="#path_0"></use></mask><g mask="url(#bg-mask-0)" ><path id="分组 1" fill-rule="evenodd" style="fill:#000000" transform="translate(0.9976795988385128 1.9977999999999998)  rotate(0 11.002380412434185 9.5011)" opacity="1" d="M0.19 14.05C0.51 15.38 1.25 16.57 2.29 17.46C3.34 18.34 4.64 18.88 6 18.98L6 19L16 19L16 18.98C17.37 18.88 18.67 18.34 19.71 17.46C20.76 16.57 21.49 15.38 21.82 14.05C22.14 12.72 22.04 11.32 21.52 10.05C21.01 8.78 20.1 7.71 18.94 6.98C18.69 5.05 17.75 3.28 16.29 1.99C14.83 0.71 12.95 0 11 0C9.06 0 7.18 0.71 5.72 1.99C4.26 3.28 3.31 5.05 3.07 6.98C1.9 7.71 1 8.78 0.48 10.05C-0.04 11.32 -0.14 12.72 0.19 14.05Z M15.0024 11.0022L11.0024 6.00221L7.00238 11.0022L10.0024 11.0022L10.0024 15.0022L12.0024 15.0022L12.0024 11.0022L15.0024 11.0022Z " /></g></g></svg>