<svg xmlns="http://www.w3.org/2000/svg" xmlns:xlink="http://www.w3.org/1999/xlink" width="24" height="24" viewBox="0 0 24 24" fill="none"><defs><rect id="path_0" x="0" y="0" width="24" height="24" /></defs><g opacity="1" transform="translate(0 0)  rotate(0 12 12)"><mask id="bg-mask-0" fill="white"><use xlink:href="#path_0"></use></mask><g mask="url(#bg-mask-0)" ><path id="分组 1" fill-rule="evenodd" style="fill:#000000" transform="translate(0.9999989927978543 1.9977999999999998)  rotate(0 11.001173506462916 9.5011)" opacity="1" d="M11 0C9.05 0 7.18 0.71 5.71 1.99C4.25 3.28 3.31 5.05 3.06 6.98C2.13 7.57 1.35 8.38 0.82 9.35C0.28 10.31 0 11.4 0 12.5C0 15.92 2.64 18.73 6 19L16 18.98C17.37 18.88 18.66 18.34 19.71 17.46C20.75 16.57 21.49 15.38 21.82 14.05C22.14 12.72 22.04 11.32 21.52 10.05C21 8.78 20.1 7.71 18.94 6.98C18.69 5.05 17.75 3.28 16.29 1.99C14.82 0.71 12.95 0 11 0Z M17.8779 8.6834L17.0679 8.1734L16.9479 7.2334C16.7679 5.7934 16.0579 4.4634 14.9579 3.4934C13.8679 2.5334 12.4579 2.0034 10.9979 2.0034C9.53786 2.0034 8.12786 2.5334 7.03786 3.4934C5.93786 4.4634 5.23786 5.7934 5.04786 7.2334L4.92786 8.1734L4.12786 8.6834C3.31786 9.1834 2.68786 9.9234 2.32786 10.8034C1.97786 11.6834 1.89786 12.6534 2.12786 13.5734C2.34786 14.4934 2.85786 15.3134 3.58786 15.9334C4.30786 16.5434 5.20786 16.9134 6.14786 16.9934L6.32786 17.0034L15.6779 17.0034L15.8479 16.9934C16.7979 16.9134 17.6879 16.5434 18.4179 15.9334C19.1379 15.3234 19.6479 14.4934 19.8779 13.5734C20.0979 12.6534 20.0279 11.6834 19.6679 10.8034C19.3079 9.9234 18.6879 9.1834 17.8779 8.6834Z M15 11.0022L11 6.00221L7 11.0022L10 11.0022L10 15.0022L12 15.0022L12 11.0022L15 11.0022Z " /></g></g></svg>