<svg width="24" height="24" fill="none" xmlns="http://www.w3.org/2000/svg"><mask id="a" style="mask-type:alpha" maskUnits="userSpaceOnUse" x="0" y="0" width="24" height="24"><path d="M24 0H0v24h24V0Z" fill="#fff"/></mask><g mask="url(#a)"><path fill-rule="evenodd" clip-rule="evenodd" d="M1.188 16.048a6.494 6.494 0 0 0 2.1 3.41c1.05.88 2.35 1.42 3.71 1.52v.02h10v-.02c1.37-.1 2.67-.64 3.71-1.52a6.51 6.51 0 0 0 2.11-3.41c.32-1.33.22-2.73-.3-4a6.502 6.502 0 0 0-2.58-3.07 8.03 8.03 0 0 0-2.65-4.99 8.026 8.026 0 0 0-5.29-1.99c-1.94 0-3.82.71-5.28 1.99a7.982 7.982 0 0 0-2.65 4.99c-1.17.73-2.07 1.8-2.59 3.07a6.452 6.452 0 0 0-.29 4ZM16 13l-4-5-4 5h3v4h2v-4h3Z" fill="currentColor"/></g></svg>