<svg xmlns="http://www.w3.org/2000/svg" xmlns:xlink="http://www.w3.org/1999/xlink" width="24" height="24" viewBox="0 0 24 24" fill="none"><defs><rect id="path_0" x="0" y="0" width="24" height="24" /></defs><g opacity="1" transform="translate(0 0)  rotate(0 12 12)"><mask id="bg-mask-0" fill="white"><use xlink:href="#path_0"></use></mask><g mask="url(#bg-mask-0)" ><path id="分组 1" fill-rule="evenodd" style="fill:#000000" transform="translate(4 1)  rotate(0 8 10.5)" opacity="1" d="M2.34 15.34C0.84 16.84 0 18.88 0 21L2 21C2 19.41 2.63 17.88 3.76 16.76C4.88 15.63 6.41 15 8 15C9.59 15 11.12 15.63 12.24 16.76C13.37 17.88 14 19.41 14 21L16 21C16 18.88 15.16 16.84 13.66 15.34C12.16 13.84 10.12 13 8 13C5.88 13 3.84 13.84 2.34 15.34Z M14 6C14 2.69 11.32 0 8 0C4.69 0 2 2.69 2 6C2 9.32 4.69 12 8 12C11.32 12 14 9.32 14 6Z M12 6C12 3.79 10.21 2 8 2C5.79 2 4 3.79 4 6C4 8.21 5.79 10 8 10C10.21 10 12 8.21 12 6Z " /></g></g></svg>