<svg width="24" height="24" fill="none" xmlns="http://www.w3.org/2000/svg"><mask id="a" style="mask-type:alpha" maskUnits="userSpaceOnUse" x="0" y="0" width="24" height="24"><path d="M24 0H0v24h24V0Z" fill="#fff"/></mask><g mask="url(#a)"><path fill-rule="evenodd" clip-rule="evenodd" d="M6.67 19.237a6.01 6.01 0 0 1 4.51-3.18c.95-.13 1.91-.03 2.82.29V14.247a8.15 8.15 0 0 0-3.61-.09c-1.2.25-2.32.77-3.29 1.52-.97.74-1.75 1.7-2.28 2.8-.54 1.1-.82 2.3-.82 3.52h2c0-.96.23-1.9.67-2.76ZM18 7c0-3.31-2.68-6-6-6-3.31 0-6 2.69-6 6 0 3.32 2.69 6 6 6 3.32 0 6-2.68 6-6Zm-2 0c0-2.21-1.79-4-4-4S8 4.79 8 7s1.79 4 4 4 4-1.79 4-4Zm1.797 12.919-2.12-2.13-1.42 1.42 3.54 3.53 4.95-4.95-1.42-1.41-3.53 3.54Z" fill="currentColor"/></g></svg>