<svg width="24" height="24" fill="none" xmlns="http://www.w3.org/2000/svg"><mask id="a" style="mask-type:alpha" maskUnits="userSpaceOnUse" x="0" y="0" width="24" height="24"><path d="M24 0H0v24h24V0Z" fill="#fff"/></mask><g mask="url(#a)" fill-rule="evenodd" clip-rule="evenodd" fill="currentColor"><path d="M9.65 14.35A8.002 8.002 0 0 0 4 22h9v-7.94a8.064 8.064 0 0 0-3.35.29ZM18 7c0-3.31-2.68-6-6-6-3.31 0-6 2.69-6 6 0 3.32 2.69 6 6 6 3.32 0 6-2.68 6-6ZM17.797 19.919l-2.12-2.13-1.42 1.42 3.54 3.53 4.95-4.95-1.42-1.41-3.53 3.54Z"/></g></svg>