<svg xmlns="http://www.w3.org/2000/svg" xmlns:xlink="http://www.w3.org/1999/xlink" viewBox="0 0 24 24" fill="none"><defs><rect id="path_0" x="0" y="0" width="24" height="24" /></defs><g opacity="1" transform="translate(0 0)  rotate(0 12 12)"><mask id="bg-mask-0" fill="white"><use xlink:href="#path_0"></use></mask><g mask="url(#bg-mask-0)" ><g opacity="1" transform="translate(4 1)  rotate(0 8 10.5)"><path id="路径 1" fill-rule="evenodd" style="fill:#000000" transform="translate(0 13)  rotate(0 8 4)" opacity="1" d="M16,8C16,5.88 15.16,3.84 13.66,2.34C12.16,0.84 10.12,0 8,0C5.88,0 3.84,0.84 2.34,2.34C0.84,3.84 0,5.88 0,8L16,8Z " /><path id="路径 2" fill-rule="evenodd" style="fill:#000000" transform="translate(2 0)  rotate(0 6 6)" opacity="1" d="M12,6C12,2.69 9.32,0 6,0C2.69,0 0,2.69 0,6C0,9.32 2.69,12 6,12C9.32,12 12,9.32 12,6Z " /></g></g></g></svg>