<svg xmlns="http://www.w3.org/2000/svg" xmlns:xlink="http://www.w3.org/1999/xlink" width="24" height="24" viewBox="0 0 24 24" fill="none"><defs><rect id="path_0" x="0" y="0" width="24" height="24" /></defs><g opacity="1" transform="translate(0 0)  rotate(0 12 12)"><mask id="bg-mask-0" fill="white"><use xlink:href="#path_0"></use></mask><g mask="url(#bg-mask-0)" ><g opacity="1" transform="translate(3.99999996242995 1)  rotate(0 9.371500018785024 10.8715)"><path id="路径 1" fill-rule="evenodd" style="fill:#000000" transform="translate(0 12.999246423704918)  rotate(0 4.500000018785025 4.000376788147541)" opacity="1" d="M5.65,0.35C4.56,0.69 3.56,1.25 2.71,2C1.86,2.75 1.18,3.67 0.71,4.71C0.24,5.74 0,6.87 0,8L9,8L9,0.06C7.87,-0.08 6.73,0.02 5.65,0.35Z " /><path id="路径 2" fill-rule="evenodd" style="fill:#000000" transform="translate(2.0000000375700506 0)  rotate(0 6 6)" opacity="1" d="M12,6C12,2.69 9.32,0 6,0C2.69,0 0,2.69 0,6C0,9.32 2.69,12 6,12C9.32,12 12,9.32 12,6Z " /><path id="路径 3" fill-rule="evenodd" style="fill:#000000" transform="translate(10.25700003757005 15.379000000000001)  rotate(0 4.242999999999999 3.1819999999999986)" opacity="1" d="M3.54,3.54L1.42,1.41L0,2.83L3.54,6.36L8.49,1.41L7.07,0L3.54,3.54L3.54,3.54Z " /></g></g></g></svg>