<svg xmlns="http://www.w3.org/2000/svg" xmlns:xlink="http://www.w3.org/1999/xlink" width="24" height="24" viewBox="0 0 24 24" fill="none"><defs><rect id="path_0" x="0" y="0" width="24" height="24" /></defs><g opacity="1" transform="translate(0 0)  rotate(0 12 12)"><mask id="bg-mask-0" fill="white"><use xlink:href="#path_0"></use></mask><g mask="url(#bg-mask-0)" ><path id="分组 1" fill-rule="evenodd" style="fill:#000000" transform="translate(3.9999997421620552 1)  rotate(0 9.37150012891897 10.8715)" opacity="1" d="M2.67 18.237C3.11 17.387 3.75 16.657 4.54 16.097C5.32 15.547 6.22 15.187 7.18 15.057C8.13 14.927 9.09 15.027 10 15.347L10 13.257L10 13.247C8.82 12.947 7.58 12.917 6.39 13.157C5.19 13.407 4.07 13.927 3.1 14.677C2.13 15.417 1.35 16.377 0.82 17.477C0.28 18.577 0 19.777 0 20.997L2 20.997C2 20.037 2.23 19.097 2.67 18.237Z M14 6C14 2.69 11.32 0 8 0C4.69 0 2 2.69 2 6C2 9.32 4.69 12 8 12C11.32 12 14 9.32 14 6Z M12 6C12 3.79 10.21 2 8 2C5.79 2 4 3.79 4 6C4 8.21 5.79 10 8 10C10.21 10 12 8.21 12 6Z M13.797 18.919L11.677 16.789L10.257 18.209L13.797 21.739L18.747 16.789L17.327 15.379L13.797 18.919L13.797 18.919Z " /></g></g></svg>