<svg width="24" height="24" fill="none" xmlns="http://www.w3.org/2000/svg"><mask id="a" style="mask-type:alpha" maskUnits="userSpaceOnUse" x="0" y="0" width="24" height="24"><path d="M24 0H0v24h24V0Z" fill="#fff"/></mask><g mask="url(#a)"><path fill-rule="evenodd" clip-rule="evenodd" d="M6.34 16.34A8.008 8.008 0 0 0 4 22h2c0-1.59.63-3.12 1.76-4.24A5.97 5.97 0 0 1 12 16v-2c-2.12 0-4.16.84-5.66 2.34ZM18 7c0-3.31-2.68-6-6-6-3.31 0-6 2.69-6 6 0 3.32 2.69 6 6 6 3.32 0 6-2.68 6-6Zm-2 0c0-2.21-1.79-4-4-4S8 4.79 8 7s1.79 4 4 4 4-1.79 4-4Zm-.935 16.05 2.94-1.55 2.93 1.55-.56-3.28 2.38-2.32-3.29-.47-1.46-2.98-1.47 2.98-3.29.47 2.38 2.32-.56 3.28Z" fill="currentColor"/></g></svg>