<svg xmlns="http://www.w3.org/2000/svg" xmlns:xlink="http://www.w3.org/1999/xlink" width="24" height="24" viewBox="0 0 24 24" fill="none"><defs><rect id="path_0" x="0" y="0" width="24" height="24" /></defs><g opacity="1" transform="translate(0 0)  rotate(0 12 12)"><mask id="bg-mask-0" fill="white"><use xlink:href="#path_0"></use></mask><g mask="url(#bg-mask-0)" ><g opacity="1" transform="translate(4 1)  rotate(0 9.3775 11.0225)"><path id="路径 1" fill-rule="evenodd" style="fill:#000000" transform="translate(0 13)  rotate(0 4 4)" opacity="1" d="M2.34,2.34C0.84,3.84 0,5.88 0,8L8,8L8,0C5.88,0 3.84,0.84 2.34,2.34Z " /><path id="路径 2" fill-rule="evenodd" style="fill:#000000" transform="translate(9.245 13)  rotate(0 4.755 4.522500000000001)" opacity="1" d="M4.76,7.5L7.69,9.05L7.13,5.77L9.51,3.45L6.22,2.98L4.76,0L3.29,2.98L0,3.45L2.38,5.77L1.82,9.05L4.76,7.5Z " /><path id="路径 3" fill-rule="evenodd" style="fill:#000000" transform="translate(2 0)  rotate(0 6 6)" opacity="1" d="M12,6C12,2.69 9.32,0 6,0C2.69,0 0,2.69 0,6C0,9.32 2.69,12 6,12C9.32,12 12,9.32 12,6Z " /></g></g></g></svg>