<svg width="24" height="24" fill="none" xmlns="http://www.w3.org/2000/svg"><mask id="a" style="mask-type:alpha" maskUnits="userSpaceOnUse" x="0" y="0" width="24" height="24"><path d="M24 0H0v24h24V0Z" fill="#fff"/></mask><g mask="url(#a)" fill-rule="evenodd" clip-rule="evenodd" fill="currentColor"><path d="M10.39 14.158c-1.2.25-2.32.77-3.29 1.52-.97.74-1.75 1.7-2.28 2.8-.54 1.1-.82 2.3-.82 3.52h10v-7.75a8.15 8.15 0 0 0-3.61-.09ZM18 7c0-3.31-2.68-6-6-6-3.31 0-6 2.69-6 6 0 3.32 2.69 6 6 6 3.32 0 6-2.68 6-6ZM18 22h2v-3h3v-2h-3v-3h-2v3h-3v2h3v3Z"/></g></svg>