<svg xmlns="http://www.w3.org/2000/svg" xmlns:xlink="http://www.w3.org/1999/xlink" width="24" height="24" viewBox="0 0 24 24" fill="none"><defs><rect id="path_0" x="0" y="0" width="24" height="24" /></defs><g opacity="1" transform="translate(0 0)  rotate(0 12 12)"><mask id="bg-mask-0" fill="white"><use xlink:href="#path_0"></use></mask><g mask="url(#bg-mask-0)" ><g opacity="1" transform="translate(3.9999997421620552 1)  rotate(0 9.500000128918973 10.5)"><path id="路径 1" fill-rule="evenodd" style="fill:#000000" transform="translate(0 12.997969931256506)  rotate(0 5.000000128918972 4.001015034371747)" opacity="1" d="M6.39,0.16C5.19,0.41 4.07,0.93 3.1,1.68C2.13,2.42 1.35,3.38 0.82,4.48C0.28,5.58 0,6.78 0,8L10,8L10,0.25C8.82,-0.05 7.58,-0.08 6.39,0.16Z " /><path id="路径 2" fill-rule="evenodd" style="fill:#000000" transform="translate(2.000000257837945 0)  rotate(0 6 6)" opacity="1" d="M12,6C12,2.69 9.32,0 6,0C2.69,0 0,2.69 0,6C0,9.32 2.69,12 6,12C9.32,12 12,9.32 12,6Z " /><path id="路径 3" fill-rule="evenodd" style="fill:#000000" transform="translate(11.000000257837945 13)  rotate(0 4 4)" opacity="1" d="M3,8L5,8L5,5L8,5L8,3L5,3L5,0L3,0L3,3L0,3L0,5L3,5L3,8Z " /></g></g></g></svg>