<svg xmlns="http://www.w3.org/2000/svg" xmlns:xlink="http://www.w3.org/1999/xlink" width="24" height="24" viewBox="0 0 24 24" fill="none"><defs><rect id="path_0" x="0" y="0" width="24" height="24" /></defs><g opacity="1" transform="translate(0 0)  rotate(0 12 12)"><mask id="bg-mask-0" fill="white"><use xlink:href="#path_0"></use></mask><g mask="url(#bg-mask-0)" ><path id="分组 1" fill-rule="evenodd" style="fill:#000000" transform="translate(1 4)  rotate(0 11.00000014941267 8)" opacity="1" d="M21.73 14.48C21.81 14.44 21.88 14.38 21.93 14.3C21.98 14.22 22 14.13 22 14.04L22 1.96C22 1.87 21.98 1.78 21.93 1.7C21.88 1.62 21.81 1.56 21.73 1.52C21.65 1.47 21.56 1.45 21.47 1.46C21.38 1.47 21.29 1.5 21.21 1.55L16 5.2L16 1C16 0.73 15.89 0.48 15.71 0.29C15.52 0.11 15.27 0 15 0L1 0C0.73 0 0.48 0.11 0.29 0.29C0.11 0.48 0 0.73 0 1L0 15C0 15.27 0.11 15.52 0.29 15.71C0.48 15.89 0.73 16 1 16L15 16C15.27 16 15.52 15.89 15.71 15.71C15.89 15.52 16 15.27 16 15L16 10.8L21.21 14.45C21.29 14.5 21.38 14.53 21.47 14.54C21.56 14.55 21.65 14.53 21.73 14.48Z M20 11.16L20 4.84L16 7.64L16 8.36L16 8.36L20 11.16Z M2 14L14 14L14 2L2 2L2 14Z M4 6L6 6L6 4L4 4L4 6Z " /></g></g></svg>