<svg width="24" height="24" fill="none" xmlns="http://www.w3.org/2000/svg"><mask id="a" style="mask-type:alpha" maskUnits="userSpaceOnUse" x="0" y="0" width="24" height="24"><path d="M24 0H0v24h24V0Z" fill="#fff"/></mask><g mask="url(#a)"><path fill-rule="evenodd" clip-rule="evenodd" d="M22.73 18.48c.08-.04.15-.1.2-.18.05-.08.07-.17.07-.26V5.96c0-.09-.02-.18-.07-.26a.494.494 0 0 0-.2-.18.402.402 0 0 0-.26-.06c-.09.01-.18.04-.26.09L17 9.2V5c0-.27-.11-.52-.29-.71-.19-.18-.44-.29-.71-.29H2c-.27 0-.52.11-.71.29-.18.19-.29.44-.29.71v14c0 .27.11.52.29.71.19.18.44.29.71.29h14c.27 0 .52-.11.71-.29.18-.19.29-.44.29-.71v-4.2l5.21 3.65c.08.05.17.08.26.09.09.01.18-.01.26-.06ZM21 15.16V8.84l-4 2.8v.72l4 2.8ZM3 18h12V6H3v12Zm2-8h2V8H5v2Z" fill="currentColor"/></g></svg>