<svg xmlns="http://www.w3.org/2000/svg" xmlns:xlink="http://www.w3.org/1999/xlink" viewBox="0 0 24 24" fill="none"><defs><rect id="path_0" x="0" y="0" width="24" height="24" /></defs><g opacity="1" transform="translate(0 0)  rotate(0 12 12)"><mask id="bg-mask-0" fill="white"><use xlink:href="#path_0"></use></mask><g mask="url(#bg-mask-0)" ><g opacity="1" transform="translate(1 3.5546847728516973)  rotate(0 11.475 8.445335521126507)"><path id="路径 1" fill-rule="evenodd" style="fill:#000000" transform="translate(0 0)  rotate(0 5.5000001388993685 8.445335521126507)" opacity="1" d="M4.89,12.45L10.18,16.78C10.26,16.84 10.35,16.88 10.44,16.89C10.53,16.9 10.63,16.88 10.71,16.84C10.8,16.8 10.87,16.74 10.92,16.66C10.97,16.58 11,16.49 11,16.39L11,0.5C11,0.41 10.97,0.31 10.92,0.23C10.87,0.15 10.8,0.09 10.71,0.05C10.63,0.01 10.53,-0.01 10.44,0C10.35,0.02 10.26,0.05 10.18,0.11L4.89,4.45L1,4.45C0.73,4.45 0.48,4.55 0.29,4.74C0.11,4.93 0,5.18 0,5.45L0,11.45C0,11.71 0.11,11.96 0.29,12.15C0.48,12.34 0.73,12.45 1,12.45L4.89,12.45L4.89,12.45Z " /><path id="路径 2" fill-rule="evenodd" style="fill:#000000" transform="translate(13.05 3.4953352271483027)  rotate(0 4.949999999999999 4.94999)" opacity="1" d="M4.95,3.54L1.41,0L0,1.41L3.54,4.95L0,8.49L1.41,9.9L4.95,6.36L8.49,9.9L9.9,8.49L6.36,4.95L9.9,1.41L8.49,0L4.95,3.54Z " /></g></g></g></svg>