<svg xmlns="http://www.w3.org/2000/svg" xmlns:xlink="http://www.w3.org/1999/xlink" width="24" height="24" viewBox="0 0 24 24" fill="none"><defs><rect id="path_0" x="0" y="0" width="24" height="24" /></defs><g opacity="1" transform="translate(0 0)  rotate(0 12 12)"><mask id="bg-mask-0" fill="white"><use xlink:href="#path_0"></use></mask><g mask="url(#bg-mask-0)" ><g opacity="1" transform="translate(1 3.5546847728516973)  rotate(0 11.000002756391254 8.445335521126507)"><path id="路径 1" fill-rule="evenodd" style="fill:#000000" transform="translate(0 0)  rotate(0 5.5000001388993685 8.445335521126507)" opacity="1" d="M0,5.45L0,11.45C0,11.71 0.11,11.96 0.29,12.15C0.48,12.34 0.73,12.45 1,12.45L4.89,12.45L4.89,12.45L10.18,16.78C10.26,16.84 10.35,16.88 10.44,16.89C10.53,16.9 10.63,16.88 10.71,16.84C10.8,16.8 10.87,16.74 10.92,16.66C10.97,16.58 11,16.49 11,16.39L11,0.5C11,0.41 10.97,0.31 10.92,0.23C10.87,0.15 10.8,0.09 10.71,0.05C10.63,0.01 10.53,-0.01 10.44,0C10.35,0.02 10.26,0.05 10.18,0.11L4.89,4.45L1,4.45C0.73,4.45 0.48,4.55 0.29,4.74C0.11,4.93 0,5.18 0,5.45Z " /><path id="路径 2" fill-rule="evenodd" style="fill:#000000" transform="translate(16.696 0.057335227148302526)  rotate(0 2.652002756391253 8.26099)" opacity="1" d="M1.42,0L0,1.42C1.03,2.26 1.87,3.33 2.44,4.53C3.01,5.74 3.31,7.05 3.3,8.39C3.31,9.66 3.04,10.91 2.52,12.07C2,13.23 1.24,14.26 0.29,15.11L1.71,16.52C3.92,14.51 5.3,11.61 5.3,8.39C5.31,6.79 4.96,5.21 4.29,3.77C3.62,2.32 2.64,1.03 1.42,0Z " /><path id="路径 3" fill-rule="evenodd" style="fill:#000000" transform="translate(13.12 3.6143352271483025)  rotate(0 1.9400010840639217 4.710990000000001)" opacity="1" d="M3.88,4.83C3.88,3.89 3.66,2.96 3.24,2.12C2.81,1.28 2.2,0.56 1.44,0L0,1.44C1.13,2.15 1.88,3.4 1.88,4.83C1.88,5.44 1.74,6.05 1.47,6.6C1.2,7.15 0.81,7.63 0.32,8L1.74,9.42C3.05,8.32 3.88,6.67 3.88,4.83Z " /></g></g></g></svg>