<svg xmlns="http://www.w3.org/2000/svg" xmlns:xlink="http://www.w3.org/1999/xlink" width="24" height="24" viewBox="0 0 24 24" fill="none"><defs><rect id="path_0" x="0" y="0" width="24" height="24" /></defs><g opacity="1" transform="translate(0 0)  rotate(0 12 12)"><mask id="bg-mask-0" fill="white"><use xlink:href="#path_0"></use></mask><g mask="url(#bg-mask-0)" ><path id="分组 1" fill-rule="evenodd" style="fill:#000000" transform="translate(1 3.5546847728516973)  rotate(0 11.000002756391254 8.445335521126507)" opacity="1" d="M5.6 6.44534L2 6.44534L2 10.4453L5.6 10.4453L9 13.2253L9 3.66534L5.6 6.44534Z M0 11.45C0 11.71 0.11 11.96 0.29 12.15C0.48 12.34 0.73 12.45 1 12.45L4.89 12.45L4.89 12.45L10.18 16.78C10.26 16.84 10.35 16.88 10.44 16.89C10.53 16.9 10.63 16.88 10.71 16.84C10.8 16.8 10.87 16.74 10.92 16.66C10.97 16.58 11 16.49 11 16.39L11 0.5C11 0.41 10.97 0.31 10.92 0.23C10.87 0.15 10.8 0.09 10.71 0.05C10.63 0.01 10.53 -0.01 10.44 0C10.35 0.02 10.26 0.05 10.18 0.11L4.89 4.45L1 4.45C0.73 4.45 0.48 4.55 0.29 4.74C0.11 4.93 0 5.18 0 5.45L0 11.45Z M16.986 15.1673L18.406 16.5773C20.616 14.5673 21.996 11.6673 21.996 8.44734C22.006 6.84734 21.656 5.26734 20.986 3.82734C20.316 2.37734 19.336 1.08734 18.116 0.0573352L16.696 1.47734C17.726 2.31734 18.566 3.38734 19.136 4.58734C19.706 5.79734 20.006 7.10734 19.996 8.44734C20.006 9.71733 19.736 10.9673 19.216 12.1273C18.696 13.2873 17.936 14.3173 16.986 15.1673Z M17 8.44433C17 7.50434 16.78 6.57434 16.36 5.73433C15.93 4.89434 15.32 4.17434 14.56 3.61434L13.12 5.05434C14.25 5.76434 15 7.01434 15 8.44433C15 9.05434 14.86 9.66434 14.59 10.2143C14.32 10.7643 13.93 11.2443 13.44 11.6143L14.86 13.0343C16.17 11.9343 17 10.2843 17 8.44433Z " /></g></g></svg>