<svg width="24" height="24" fill="none" xmlns="http://www.w3.org/2000/svg"><mask id="a" style="mask-type:alpha" maskUnits="userSpaceOnUse" x="0" y="0" width="24" height="24"><path d="M24 0H0v24h24V0Z" fill="#fff"/></mask><g mask="url(#a)"><path fill-rule="evenodd" clip-rule="evenodd" d="M9.6 10H6v4h3.6l3.4 2.78V7.22L9.6 10Zm-.71-1.995H5c-.27 0-.52.1-.71.29-.18.19-.29.44-.29.71v6c0 .26.11.51.29.7a1 1 0 0 0 .71.3h3.89l5.29 4.33c.08.06.17.1.26.11.09.01.19-.01.27-.05.09-.04.16-.1.21-.18.05-.08.08-.17.08-.27V4.055a.53.53 0 0 0-.08-.27.463.463 0 0 0-.21-.18.503.503 0 0 0-.27-.05.66.66 0 0 0-.26.11l-5.29 4.34ZM21 11.999c0-.94-.22-1.87-.64-2.71a6.038 6.038 0 0 0-1.8-2.12l-1.44 1.44c1.13.71 1.88 1.96 1.88 3.39 0 .61-.14 1.22-.41 1.77-.27.55-.66 1.03-1.15 1.4l1.42 1.42a5.98 5.98 0 0 0 2.14-4.59Z" fill="currentColor"/></g></svg>