<svg width="24" height="24" fill="none" xmlns="http://www.w3.org/2000/svg"><mask id="a" style="mask-type:alpha" maskUnits="userSpaceOnUse" x="0" y="0" width="24" height="24"><path d="M24 0H0v24h24V0Z" fill="#fff"/></mask><g mask="url(#a)" fill-rule="evenodd" clip-rule="evenodd" fill="currentColor"><path d="M1 9.005v6c0 .26.11.51.29.7a1 1 0 0 0 .71.3h3.89l5.29 4.33c.08.06.17.1.26.11.09.01.19-.01.27-.05.09-.04.16-.1.21-.18.05-.08.08-.17.08-.27V4.055a.53.53 0 0 0-.08-.27.463.463 0 0 0-.21-.18.503.503 0 0 0-.27-.05.66.66 0 0 0-.26.11l-5.29 4.34H2c-.27 0-.52.1-.71.29-.18.19-.29.44-.29.71ZM19.116 3.612l-1.42 1.42c1.03.84 1.87 1.91 2.44 3.11.57 1.21.87 2.52.86 3.86.01 1.27-.26 2.52-.78 3.68a9.038 9.038 0 0 1-2.23 3.04l1.42 1.41c2.21-2.01 3.59-4.91 3.59-8.13.01-1.6-.34-3.18-1.01-4.62-.67-1.45-1.65-2.74-2.87-3.77Z"/><path d="M18 11.999c0-.94-.22-1.87-.64-2.71a6.038 6.038 0 0 0-1.8-2.12l-1.44 1.44c1.13.71 1.88 1.96 1.88 3.39 0 .61-.14 1.22-.41 1.77-.27.55-.66 1.03-1.15 1.4l1.42 1.42a5.98 5.98 0 0 0 2.14-4.59Z"/></g></svg>