<svg width="24" height="24" fill="none" xmlns="http://www.w3.org/2000/svg"><mask id="a" style="mask-type:alpha" maskUnits="userSpaceOnUse" x="0" y="0" width="24" height="24"><path d="M24 0H0v24h24V0Z" fill="#fff"/></mask><g mask="url(#a)"><path fill-rule="evenodd" clip-rule="evenodd" d="M6.6 10H3v4h3.6l3.4 2.78V7.22L6.6 10ZM2 16.005h3.89l5.29 4.33c.08.06.17.1.26.11.09.01.19-.01.27-.05.09-.04.16-.1.21-.18.05-.08.08-.17.08-.27V4.055a.53.53 0 0 0-.08-.27.463.463 0 0 0-.21-.18.503.503 0 0 0-.27-.05.66.66 0 0 0-.26.11l-5.29 4.34H2c-.27 0-.52.1-.71.29-.18.19-.29.44-.29.71v6c0 .26.11.51.29.7a1 1 0 0 0 .71.3ZM23.95 8.46l-1.41-1.41L19 10.59l-3.54-3.54-1.41 1.41L17.59 12l-3.54 3.54 1.41 1.41L19 13.41l3.54 3.54 1.41-1.41L20.41 12l3.54-3.54Z" fill="currentColor"/></g></svg>