<svg width="24" height="24" fill="none" xmlns="http://www.w3.org/2000/svg"><path fill-rule="evenodd" clip-rule="evenodd" d="M7.96 14.7c.68.09 1.37.08 2.04-.02v-.07c0-2.5 2.02-4.61 4.75-5.23-.36-2.3-2.79-4.18-5.85-4.18C5.58 5.2 3 7.41 3 9.98c0 .97.36 1.9 1.04 2.7.03.04.08.09.15.16.59.61.94 1.4 1 2.24a3.63 3.63 0 0 1 2.37-.44c.16.03.3.05.4.06ZM8.9 3.2C4.54 3.2 1 6.24 1 9.98c0 1.49.56 2.88 1.52 4 .07.08.15.17.24.26.31.32.47.77.44 1.22l-.15 1.78c-.02.21.05.42.18.58.14.16.34.26.55.27.17.02.34-.02.49-.12l1.9-1.14c.32-.2.71-.27 1.08-.22a9.453 9.453 0 0 0 3.21.02c.94 1.99 3.25 3.4 5.94 3.4.33 0 .65-.02.97-.06.1-.02.22-.03.37-.06.3-.04.61.02.87.17l1.54.92c.12.07.26.1.4.09.17-.01.33-.09.44-.21.11-.13.16-.3.15-.47l-.12-1.42c-.03-.36.1-.72.36-.98.08-.08.14-.15.19-.21.77-.89 1.23-1.99 1.23-3.19 0-2.89-2.68-5.25-6.05-5.4C16.3 5.83 12.96 3.2 8.9 3.2Zm11.16 13.3c.49-.57.74-1.22.74-1.89 0-1.8-1.9-3.41-4.4-3.41-2.5 0-4.4 1.61-4.4 3.41 0 1.81 1.9 3.42 4.4 3.42.24 0 .48-.02.71-.05.08-.01.19-.02.32-.04.57-.09 1.15-.03 1.68.17.14-.57.43-1.09.84-1.5l.11-.11Z" fill="currentColor"/></svg>