<svg xmlns="http://www.w3.org/2000/svg" xmlns:xlink="http://www.w3.org/1999/xlink" width="24" height="24" viewBox="0 0 24 24" fill="none"><g opacity="1" transform="translate(0 0)  rotate(0 12 12)"><path id="分组 1" fill-rule="evenodd" style="fill:#000000" transform="translate(1 3)  rotate(0 10.999999999999996 8.88300113798133)" opacity="1" d="M18.476 9.815C18.476 9.315 18.076 8.915 17.576 8.915C17.076 8.915 16.676 9.315 16.676 9.815C16.676 10.315 17.076 10.715 17.576 10.715C18.066 10.705 18.466 10.305 18.476 9.815Z M14.051 9.815C14.051 9.315 13.651 8.915 13.151 8.915C12.651 8.915 12.251 9.315 12.251 9.815C12.251 10.315 12.651 10.715 13.151 10.715C13.641 10.705 14.041 10.305 14.051 9.815Z M19.827 17.703C19.867 17.663 19.887 17.603 19.887 17.543C19.887 17.493 19.867 17.443 19.867 17.373C19.867 17.353 19.667 16.683 19.567 16.263C19.547 16.213 19.547 16.173 19.547 16.123C19.517 15.973 19.587 15.823 19.717 15.753L19.717 15.753C21.117 14.743 21.997 13.243 21.997 11.593C21.997 8.553 19.057 6.093 15.397 6.093C11.737 6.093 8.787 8.553 8.787 11.593C8.787 14.643 11.737 17.103 15.397 17.103C16.157 17.103 16.867 17.003 17.557 16.803C17.607 16.783 17.677 16.783 17.747 16.783C17.867 16.793 17.987 16.823 18.097 16.883L19.547 17.713C19.597 17.743 19.617 17.763 19.667 17.763C19.727 17.763 19.777 17.743 19.827 17.703Z M2.54 13.71C2.54 13.86 2.66 13.98 2.81 13.98C2.85 13.98 2.9 13.96 2.95 13.93L4.7 12.93C4.83 12.85 4.97 12.81 5.12 12.81C5.19 12.81 5.27 12.81 5.34 12.83C6.18 13.07 7.05 13.19 7.93 13.2L8.01 13.2C7.87 12.69 7.79 12.15 7.79 11.6C7.79 7.95 11.22 5.09 15.39 5.09C15.49 5.09 15.58 5.1 15.67 5.1L15.67 5.1C14.88 2.17 11.72 0 7.95 0C3.57 0 0 2.95 0 6.6C0 8.59 1.06 10.38 2.76 11.58C2.9 11.68 2.98 11.85 2.98 12.02C2.98 12.07 2.95 12.14 2.95 12.19C2.83 12.68 2.61 13.49 2.58 13.52C2.56 13.59 2.54 13.64 2.54 13.71Z M11.543 4.495C11.543 3.915 11.093 3.465 10.523 3.465C9.943 3.465 9.493 3.915 9.493 4.495C9.493 5.065 9.943 5.515 10.523 5.515C11.093 5.515 11.543 5.035 11.543 4.495Z M6.283 4.495C6.283 3.915 5.833 3.465 5.263 3.465C4.683 3.465 4.233 3.915 4.233 4.495C4.233 5.065 4.683 5.515 5.263 5.515C5.833 5.515 6.283 5.035 6.283 4.495Z " /></g></svg>