<svg width="24" height="24" fill="none" xmlns="http://www.w3.org/2000/svg"><path fill-rule="evenodd" clip-rule="evenodd" d="M19.476 12.815c0-.5-.4-.9-.9-.9s-.9.4-.9.9.4.9.9.9c.49-.01.89-.41.9-.9Zm-4.425 0c0-.5-.4-.9-.9-.9s-.9.4-.9.9.4.9.9.9c.49-.01.89-.41.9-.9Zm5.776 7.888c.04-.04.06-.1.06-.16 0-.05-.02-.1-.02-.17 0-.02-.2-.69-.3-1.11-.02-.05-.02-.09-.02-.14-.03-.15.04-.3.17-.37 1.4-1.01 2.28-2.51 2.28-4.16 0-3.04-2.94-5.5-6.6-5.5-3.66 0-6.61 2.46-6.61 5.5 0 3.05 2.95 5.51 6.61 5.51.76 0 1.47-.1 2.16-.3.05-.02.12-.02.19-.02.12.01.24.04.35.1l1.45.83c.05.03.07.05.12.05.06 0 .11-.02.16-.06ZM3.54 16.71c0 .15.12.27.27.27.04 0 .09-.02.14-.05l1.75-1c.13-.08.27-.12.42-.12.07 0 .15 0 .22.02.84.24 1.71.36 2.59.37h.08c-.14-.51-.22-1.05-.22-1.6 0-3.65 3.43-6.51 7.6-6.51.1 0 .19.01.28.01C15.88 5.17 12.72 3 8.95 3 4.57 3 1 5.95 1 9.6c0 1.99 1.06 3.78 2.76 4.98.14.1.22.27.22.44 0 .05-.03.12-.03.17-.12.49-.34 1.3-.37 1.33-.02.07-.04.12-.04.19Zm9.003-9.215c0-.58-.45-1.03-1.02-1.03-.58 0-1.03.45-1.03 1.03 0 .57.45 1.02 1.03 1.02.57 0 1.02-.48 1.02-1.02Zm-5.26 0c0-.58-.45-1.03-1.02-1.03-.58 0-1.03.45-1.03 1.03 0 .57.45 1.02 1.03 1.02.57 0 1.02-.48 1.02-1.02Z" fill="currentColor"/></svg>