<svg xmlns="http://www.w3.org/2000/svg" xmlns:xlink="http://www.w3.org/1999/xlink" viewBox="0 0 24 24" fill="none"><g opacity="1" transform="translate(0 0)  rotate(0 12 12)"><path id="分组 1" fill-rule="evenodd" style="fill:#000000" transform="translate(1 3.2000000000000455)  rotate(0 10.9 8.947601674617564)" opacity="1" d="M6.96 11.5C7.64 11.59 8.33 11.58 9 11.48L9 11.48L9 11.41C9 8.91 11.02 6.8 13.75 6.18C13.39 3.88 10.96 2 7.9 2C4.58 2 2 4.21 2 6.78C2 7.75 2.36 8.68 3.04 9.48C3.07 9.52 3.12 9.57 3.19 9.64C3.78 10.25 4.13 11.04 4.19 11.88C4.91 11.47 5.74 11.31 6.56 11.44C6.72 11.47 6.86 11.49 6.96 11.5Z M7.9 0C3.54 0 0 3.04 0 6.78C0 8.27 0.56 9.66 1.52 10.78C1.59 10.86 1.67 10.95 1.76 11.04C2.07 11.36 2.23 11.81 2.2 12.26L2.05 14.04C2.03 14.25 2.1 14.46 2.23 14.62C2.37 14.78 2.57 14.88 2.78 14.89C2.95 14.91 3.12 14.87 3.27 14.77L5.17 13.63C5.49 13.43 5.88 13.36 6.25 13.41C6.4 13.44 6.55 13.46 6.7 13.48C7.62 13.6 8.55 13.58 9.46 13.43C10.4 15.42 12.71 16.83 15.4 16.83C15.73 16.83 16.05 16.81 16.37 16.77C16.47 16.75 16.59 16.74 16.74 16.71C17.04 16.67 17.35 16.73 17.61 16.88L19.15 17.8C19.27 17.87 19.41 17.9 19.55 17.89C19.72 17.88 19.88 17.8 19.99 17.68C20.1 17.55 20.15 17.38 20.14 17.21L20.02 15.79C19.99 15.43 20.12 15.07 20.38 14.81C20.46 14.73 20.52 14.66 20.57 14.6C21.34 13.71 21.8 12.61 21.8 11.41C21.8 8.52 19.12 6.16 15.75 6.01C15.3 2.63 11.96 0 7.9 0Z M19.06 13.3C19.55 12.73 19.8 12.08 19.8 11.41C19.8 9.61 17.9 8 15.4 8C12.9 8 11 9.61 11 11.41C11 13.22 12.9 14.83 15.4 14.83C15.64 14.83 15.88 14.81 16.11 14.78C16.19 14.77 16.3 14.76 16.43 14.74L16.43 14.74C17 14.65 17.58 14.71 18.11 14.91C18.25 14.34 18.54 13.82 18.95 13.41C19 13.36 19.04 13.32 19.06 13.3Z " /></g></svg>