<svg viewBox="0 0 24 24" fill="none" xmlns="http://www.w3.org/2000/svg"><path d="M17.525 11.378c1.263.392 2.669 1.336 2.669 3.004 0 2.763-3.98 6.239-9.964 6.239-4.565 0-9.23-2.213-9.23-5.852 0-1.902 1.204-4.102 3.277-6.177 2.773-2.77 6.004-4.033 7.219-2.816.537.537.588 1.464.244 2.572-.178.557.525.25.525.25 2.24-.938 4.196-.994 4.909.027.38.543.343 1.306-.008 2.19-.163.407.048.471.36.563h-.001Zm-7.282 7.939c3.641-.362 6.401-2.592 6.167-4.983-.237-2.391-3.382-4.038-7.023-3.677-3.64.36-6.403 2.59-6.167 4.98.237 2.394 3.382 4.039 7.023 3.68ZM6.16 14.438c.754-1.527 2.712-2.39 4.446-1.94 1.793.463 2.707 2.154 1.976 3.8-.744 1.682-2.882 2.578-4.695 1.993-1.752-.566-2.493-2.294-1.727-3.853Zm1.446 2.587c.568.257 1.325.013 1.676-.55.346-.568.163-1.217-.407-1.459-.563-.237-1.291.008-1.64.553-.354.547-.189 1.202.371 1.456Zm2.206-1.808c.219.092.501-.012.628-.231.123-.22.044-.466-.178-.548-.216-.084-.486.018-.613.232-.123.214-.054.458.163.547ZM19.873 9.5a.726.726 0 1 1-1.378-.451 1.38 1.38 0 0 0-.892-1.745 1.395 1.395 0 0 0-.717-.037.724.724 0 0 1-.303-1.416 2.836 2.836 0 0 1 3.29 3.649Zm-3.916-6.575a5.831 5.831 0 0 1 6.763 7.499.84.84 0 0 1-1.55.121.844.844 0 0 1-.052-.643 4.144 4.144 0 0 0-4.807-5.327.845.845 0 0 1-.354-1.65Z" fill="currentColor"/></svg>