<svg xmlns="http://www.w3.org/2000/svg" xmlns:xlink="http://www.w3.org/1999/xlink" viewBox="0 0 24 24" fill="none"><g opacity="1" transform="translate(0 0)  rotate(0 12 12)"><path id="分组 1" fill-rule="evenodd" style="fill:#000000" transform="translate(1 2.7967997448809)  rotate(0 11.001462031061617 8.912100127559562)" opacity="1" d="M3.28 5.79577C1.2 7.86577 0 10.0658 0 11.9758C0 15.6158 4.67 17.8258 9.23 17.8258C15.21 17.8258 19.19 14.3458 19.19 11.5858C19.19 9.91577 17.79 8.97577 16.52 8.58577L16.53 8.58577C16.21 8.48577 16 8.42577 16.17 8.01577C16.52 7.13577 16.55 6.37577 16.17 5.82577C15.46 4.80577 13.51 4.86577 11.26 5.80577C11.26 5.80577 10.56 6.10577 10.74 5.55577C11.08 4.44577 11.03 3.51577 10.5 2.97577C9.28 1.76577 6.05 3.02577 3.28 5.79577Z M15.4059 11.5406C15.1759 9.15057 12.0259 7.50057 8.38594 7.86057C4.74594 8.22056 1.98594 10.4506 2.21594 12.8406C2.45594 15.2306 5.60594 16.8806 9.24594 16.5206C12.8859 16.1606 15.6459 13.9306 15.4059 11.5406Z M6.88928 15.492C8.69928 16.082 10.8393 15.182 11.5793 13.502C12.3093 11.852 11.3993 10.162 9.60928 9.70204C7.86928 9.25204 5.90928 10.112 5.15928 11.642C4.38928 13.202 5.13928 14.932 6.88928 15.492Z M8.27866 13.6789C8.62866 13.1089 8.44866 12.4589 7.87866 12.2189C7.30866 11.9789 6.58866 12.2289 6.23866 12.7689C5.87866 13.3189 6.04866 13.9789 6.60866 14.2289C7.17866 14.4889 7.92866 14.2389 8.27866 13.6789Z M9.43837 12.1918C9.55837 11.9718 9.48837 11.7218 9.25837 11.6418C9.04837 11.5618 8.77837 11.6618 8.64837 11.8718C8.52837 12.0918 8.59837 12.3318 8.80837 12.4218C9.02837 12.5118 9.30837 12.4118 9.43837 12.1918Z M15.0505 3.54154C14.9705 3.78154 15.0205 4.05154 15.2005 4.25154C15.3705 4.44154 15.6305 4.52154 15.8905 4.47154C16.3705 4.37154 16.8705 4.53154 17.2105 4.89154C17.5405 5.26154 17.6505 5.78154 17.4905 6.25154C17.4105 6.50154 17.4705 6.77154 17.6405 6.97154C17.8105 7.16154 18.0805 7.25154 18.3305 7.19154C18.5905 7.14154 18.7905 6.95154 18.8705 6.70154C19.1905 5.74154 18.9605 4.68154 18.2805 3.93154C17.6005 3.17154 16.5705 2.84154 15.5805 3.05154C15.3305 3.11154 15.1205 3.29154 15.0505 3.54154Z M14.3533 1.12C14.4433 1.56 14.8633 1.85 15.3133 1.78C16.7533 1.47 18.2633 1.96 19.2533 3.05C20.2433 4.15 20.5733 5.7 20.1133 7.11C19.9733 7.55 20.2133 8.02 20.6633 8.17C20.8733 8.24 21.1033 8.22 21.3033 8.12C21.5033 8.02 21.6533 7.84 21.7233 7.63C22.3633 5.64 21.8933 3.47 20.5033 1.92C19.1033 0.38 16.9933 -0.31 14.9533 0.13C14.5233 0.25 14.2533 0.68 14.3533 1.12Z " /></g></svg>