<svg width="24" height="24" fill="none" xmlns="http://www.w3.org/2000/svg"><path fill-rule="evenodd" clip-rule="evenodd" d="M4.28 8.593C2.2 10.663 1 12.863 1 14.773c0 3.64 4.67 5.85 9.23 5.85 5.98 0 9.96-3.48 9.96-6.24 0-1.67-1.4-2.61-2.67-3h.01c-.32-.1-.53-.16-.36-.57.35-.88.38-1.64 0-2.19-.71-1.02-2.66-.96-4.91-.02 0 0-.7.3-.52-.25.34-1.11.29-2.04-.24-2.58-1.22-1.21-4.45.05-7.22 2.82Zm12.126 5.744c-.23-2.39-3.38-4.04-7.02-3.68-3.64.36-6.4 2.59-6.17 4.98.24 2.39 3.39 4.04 7.03 3.68 3.64-.36 6.4-2.59 6.16-4.98ZM7.889 18.29c1.81.59 3.95-.31 4.69-1.99.73-1.65-.18-3.34-1.97-3.8-1.74-.45-3.7.41-4.45 1.94-.77 1.56-.02 3.29 1.73 3.85Zm1.39-1.813c.35-.57.17-1.22-.4-1.46-.57-.24-1.29.01-1.64.55-.36.55-.19 1.21.37 1.46.57.26 1.32.01 1.67-.55Zm1.16-1.487c.12-.22.05-.47-.18-.55-.21-.08-.48.02-.61.23-.12.22-.05.46.16.55.22.09.5-.01.63-.23Zm5.611-8.65c-.08.24-.03.51.15.71.17.19.43.27.69.22.48-.1.98.06 1.32.42.33.37.44.89.28 1.36-.08.25-.02.52.15.72.17.19.44.28.69.22a.71.71 0 0 0 .54-.49c.32-.96.09-2.02-.59-2.77a2.83 2.83 0 0 0-2.7-.88c-.25.06-.46.24-.53.49Zm-.697-2.422c.09.44.51.73.96.66a4.16 4.16 0 0 1 3.94 1.27 4.15 4.15 0 0 1 .86 4.06.846.846 0 0 0 1.61.52 5.86 5.86 0 0 0-1.22-5.71 5.838 5.838 0 0 0-5.55-1.79c-.43.12-.7.55-.6.99Z" fill="currentColor"/></svg>