<svg width="24" height="24" fill="none" xmlns="http://www.w3.org/2000/svg"><path fill-rule="evenodd" clip-rule="evenodd" d="M12 4c-4.42 0-8 3.58-8 8 0 1.44.38 2.81 1.08 4.02l.43.73-.66 2.4 2.4-.66.73.43C9.2 19.63 10.59 20 12 20c4.42 0 8-3.58 8-8s-3.58-8-8-8ZM6.97 20.64C8.5 21.54 10.23 22 12 22c5.52 0 10-4.48 10-10S17.52 2 12 2 2 6.48 2 12c0 1.77.47 3.5 1.36 5.03L2 22l4.97-1.36Zm9.93-6.35a.383.383 0 0 0-.19-.27l-.59-.26-1.4-.62a.329.329 0 0 0-.17-.04.475.475 0 0 0-.38.12c-.01 0-.07.06-.8.94-.08.11-.23.16-.36.13-.07-.02-.13-.04-.19-.07-.13-.05-.17-.07-.26-.11-.57-.25-1.1-.59-1.57-1-.13-.11-.24-.23-.36-.35-.42-.41-.77-.84-1.02-1.27l-.06-.09a.854.854 0 0 1-.11-.21c-.03-.14.07-.26.07-.26s.24-.27.35-.41c.1-.12.18-.25.26-.37.12-.19.16-.39.1-.54-.28-.68-.57-1.36-.87-2.04-.06-.13-.23-.23-.39-.25-.06-.01-.11-.01-.17-.02-.13 0-.26 0-.4.01-.13.01-.26.04-.37.1-.09.04-.17.11-.29.23-.12.11-.19.21-.27.3a2.74 2.74 0 0 0-.56 1.68c.01.49.12.97.33 1.41.41.91 1.08 1.86 1.97 2.75.22.21.42.42.65.62 1.1.97 2.42 1.67 3.84 2.05 0 0 .56.09.57.09.18.01.37-.01.55-.02.3-.01.58-.09.84-.23.13-.07.26-.14.38-.22.04-.03.08-.06.13-.09.11-.08.22-.18.33-.29.08-.09.15-.19.21-.3.07-.16.15-.47.18-.73.03-.2.02-.31.02-.37Z" fill="currentColor"/></svg>