<svg width="24" height="24" fill="none" xmlns="http://www.w3.org/2000/svg"><path fill-rule="evenodd" clip-rule="evenodd" d="M6.97 20.64C8.5 21.54 10.23 22 12 22c5.52 0 10-4.48 10-10S17.52 2 12 2 2 6.48 2 12c0 1.77.47 3.5 1.36 5.03L2 22l4.97-1.36Zm2.88-6.241c1.1.97 2.42 1.67 3.84 2.05l.57.09c.18.01.37-.01.55-.02.3-.01.58-.09.84-.23.16-.09.24-.13.38-.22 0 0 .04-.03.13-.09.13-.1.21-.17.33-.29.08-.08.15-.18.21-.3.07-.16.15-.47.18-.73.03-.2.02-.31.02-.37a.382.382 0 0 0-.19-.27l-.58-.26s-.87-.38-1.41-.62a.329.329 0 0 0-.17-.04.475.475 0 0 0-.38.12c-.01 0-.07.06-.8.94-.08.11-.23.16-.36.13-.07-.02-.13-.04-.19-.07-.13-.05-.17-.07-.26-.11-.57-.25-1.1-.59-1.57-1-.13-.11-.24-.23-.36-.35-.4-.37-.74-.8-1.02-1.27l-.06-.09a.698.698 0 0 1-.11-.21c-.03-.14.07-.26.07-.26s.24-.27.35-.41c.1-.12.18-.25.26-.37.12-.19.16-.39.1-.54-.28-.68-.57-1.36-.87-2.04-.06-.13-.23-.23-.39-.25-.06-.01-.11-.01-.17-.02-.13 0-.26 0-.4.01-.13.01-.25.04-.37.1-.11.06-.21.14-.29.23-.12.11-.19.21-.26.3-.37.48-.57 1.07-.57 1.68 0 .49.13.97.33 1.41.41.91 1.08 1.86 1.97 2.75.22.21.42.42.65.62Z" fill="currentColor"/></svg>