<svg xmlns="http://www.w3.org/2000/svg" xmlns:xlink="http://www.w3.org/1999/xlink" viewBox="0 0 24 24" fill="none"><g opacity="1" transform="translate(0 0)  rotate(0 12 12)"><path id="分组 1" fill-rule="evenodd" style="fill:#000000" transform="translate(1.9999865677591515 2)  rotate(0 10.000006716120332 10.000006484359462)" opacity="1" d="M10 2C5.58001 2 2.00001 5.58 2.00001 10C2.00001 11.44 2.38001 12.81 3.08001 14.02L3.51001 14.75L2.85001 17.15L5.25001 16.49L5.98001 16.92C7.20001 17.63 8.59001 18 10 18C14.42 18 18 14.42 18 10C18 5.58 14.42 2 10 2Z M4.97 18.64C6.5 19.54 8.23 20 10 20C15.52 20 20 15.52 20 10C20 4.48 15.52 0 10 0C4.48 0 0 4.48 0 10C0 11.77 0.47 13.5 1.36 15.03L0 20L4.97 18.64Z M14.9 12.2899C14.8899 12.1799 14.7999 12.0699 14.71 12.0199L14.12 11.7599C14.12 11.7599 13.26 11.3799 12.72 11.1399C12.67 11.1099 12.61 11.0999 12.55 11.0999C12.41 11.0799 12.27 11.1299 12.17 11.2199L12.17 11.2199C12.16 11.2199 12.1 11.2799 11.37 12.1599C11.29 12.2699 11.1399 12.3199 11.01 12.2899C10.94 12.2699 10.88 12.2499 10.82 12.2199C10.69 12.1699 10.65 12.1499 10.5599 12.1099L10.5599 12.1099C9.98995 11.8599 9.45995 11.5199 8.98995 11.1099C8.85995 10.9999 8.74995 10.8799 8.62995 10.7599C8.20995 10.3499 7.85995 9.9199 7.60995 9.48991L7.54995 9.39991C7.49995 9.32991 7.45995 9.24991 7.43995 9.18991C7.40995 9.04991 7.50995 8.9299 7.50995 8.9299C7.50995 8.9299 7.74995 8.65991 7.85995 8.51991C7.95995 8.39991 8.03995 8.26991 8.11995 8.14991C8.23995 7.95991 8.27995 7.75991 8.21995 7.60991C7.93995 6.92991 7.64995 6.24991 7.34995 5.56991C7.28995 5.43991 7.11995 5.33991 6.95995 5.31991C6.89995 5.30991 6.84995 5.30991 6.78995 5.29991C6.65995 5.29991 6.52995 5.29991 6.38995 5.30991L6.38995 5.30991C6.25995 5.31991 6.12995 5.34991 6.01995 5.40991C5.92995 5.44991 5.84995 5.51991 5.72995 5.63991C5.60995 5.74991 5.53995 5.84991 5.45995 5.93991C5.08995 6.41991 4.89995 7.00991 4.89995 7.61991C4.90995 8.10991 5.01995 8.5899 5.22995 9.02991C5.63995 9.93991 6.30995 10.8899 7.19995 11.7799C7.41995 11.9899 7.61995 12.1999 7.84995 12.3999C8.94995 13.3699 10.27 14.0699 11.69 14.4499C11.69 14.4499 12.25 14.5399 12.26 14.5399C12.44 14.5499 12.63 14.5299 12.8099 14.5199C13.11 14.5099 13.3899 14.4299 13.65 14.2899C13.78 14.2199 13.91 14.1499 14.03 14.0699C14.07 14.0399 14.11 14.0099 14.16 13.9799C14.27 13.8999 14.3799 13.7999 14.49 13.6899C14.57 13.5999 14.6399 13.4999 14.7 13.3899C14.77 13.2299 14.85 12.9199 14.8799 12.6599C14.91 12.4599 14.9 12.3499 14.9 12.2899Z " /></g></svg>