<svg xmlns="http://www.w3.org/2000/svg" xmlns:xlink="http://www.w3.org/1999/xlink" viewBox="0 0 24 24" fill="none"><g opacity="1" transform="translate(0 0)  rotate(0 12 12)"><path id="分组 1" fill-rule="evenodd" style="fill:#000000" transform="translate(1.9999865677591515 2)  rotate(0 10.000006716120332 10.000006484359462)" opacity="1" d="M4.97 18.64C6.5 19.54 8.23 20 10 20C15.52 20 20 15.52 20 10C20 4.48 15.52 0 10 0C4.48 0 0 4.48 0 10C0 11.77 0.47 13.5 1.36 15.03L0 20L4.97 18.64Z M7.84997 12.3988C8.94997 13.3688 10.27 14.0688 11.69 14.4488L12.26 14.5388C12.44 14.5488 12.63 14.5288 12.81 14.5188C13.11 14.5088 13.39 14.4288 13.65 14.2888C13.81 14.1988 13.89 14.1588 14.03 14.0688C14.03 14.0688 14.07 14.0388 14.16 13.9788C14.29 13.8788 14.37 13.8088 14.49 13.6888C14.57 13.6088 14.64 13.5088 14.7 13.3888C14.77 13.2288 14.85 12.9188 14.88 12.6588C14.91 12.4588 14.9 12.3488 14.9 12.2888C14.89 12.1788 14.8 12.0688 14.71 12.0188L14.13 11.7588C14.13 11.7588 13.26 11.3788 12.72 11.1388C12.67 11.1088 12.61 11.0988 12.55 11.0988C12.41 11.0788 12.27 11.1288 12.17 11.2188L12.17 11.2188C12.16 11.2188 12.1 11.2788 11.37 12.1588C11.29 12.2688 11.14 12.3188 11.01 12.2888C10.94 12.2688 10.88 12.2488 10.82 12.2188C10.69 12.1688 10.65 12.1488 10.56 12.1088L10.56 12.1088C9.98997 11.8588 9.45997 11.5188 8.98997 11.1088C8.85997 10.9988 8.74997 10.8788 8.62997 10.7588C8.22997 10.3888 7.88997 9.95883 7.60997 9.48883L7.54997 9.39883C7.49997 9.33883 7.46997 9.26883 7.43997 9.18883C7.40997 9.04883 7.50997 8.92883 7.50997 8.92883C7.50997 8.92883 7.74997 8.65883 7.85997 8.51883C7.95997 8.39883 8.03997 8.26883 8.11997 8.14883C8.23997 7.95883 8.27997 7.75883 8.21997 7.60883C7.93997 6.92883 7.64997 6.24883 7.34997 5.56883C7.28997 5.43883 7.11997 5.33883 6.95997 5.31883C6.89997 5.30883 6.84997 5.30883 6.78997 5.29883C6.65997 5.29883 6.52997 5.29883 6.38997 5.30883L6.38997 5.30883C6.25997 5.31883 6.13997 5.34883 6.01997 5.40883C5.90997 5.46883 5.80997 5.54883 5.72997 5.63883C5.60997 5.74883 5.53997 5.84883 5.46997 5.93883C5.09997 6.41883 4.89997 7.00883 4.89997 7.61883C4.89997 8.10883 5.02997 8.58883 5.22997 9.02883C5.63997 9.93883 6.30997 10.8888 7.19997 11.7788C7.41997 11.9888 7.61997 12.1988 7.84997 12.3988Z " /></g></svg>