<svg width="24" height="24" fill="none" xmlns="http://www.w3.org/2000/svg"><mask id="a" style="mask-type:alpha" maskUnits="userSpaceOnUse" x="0" y="0" width="24" height="24"><path d="M24 0H0v24h24V0Z" fill="#fff"/></mask><g mask="url(#a)" fill-rule="evenodd" clip-rule="evenodd" fill="currentColor"><path d="M1.95 8.55C4.69 6.33 8.19 5 12 5c3.66-.01 7.21 1.25 10.05 3.55L23.31 7C20.22 4.5 16.28 3 12 3 7.88 2.99 3.89 4.41.69 7l1.26 1.55Z"/><path d="M12.001 10c-2.62 0-5.02.91-6.91 2.44l-1.26-1.55C6.141 9.01 9.031 8 12.001 8c3.09 0 5.94 1.08 8.17 2.89l-1.26 1.55a10.972 10.972 0 0 0-6.91-2.44ZM12.003 15c-1.43 0-2.74.5-3.77 1.33l-1.26-1.55a7.944 7.944 0 0 1 5.03-1.78c1.9 0 3.65.67 5.02 1.78l-1.25 1.55a6.02 6.02 0 0 0-3.77-1.33ZM13.885 18.67 11.995 21l-1.88-2.33c.53-.44 1.2-.67 1.88-.67.72 0 1.37.25 1.89.67Z"/></g></svg>