<svg viewBox="0 0 24 24" fill="none" xmlns="http://www.w3.org/2000/svg"><path d="M12 18c.714 0 1.37.25 1.886.666L12 21l-1.886-2.334A2.987 2.987 0 0 1 12 18ZM2.808 1.393 20.485 19.07l-1.414 1.414-5.18-5.18A5.998 5.998 0 0 0 12 15c-1.428 0-2.74.499-3.77 1.332l-1.256-1.556a7.964 7.964 0 0 1 4.622-1.766L9 10.414a10.97 10.97 0 0 0-3.912 2.029L3.83 10.887A12.986 12.986 0 0 1 7.416 8.83L5.132 6.545a16.009 16.009 0 0 0-3.185 2.007L.689 6.997a18.018 18.018 0 0 1 2.952-1.942L1.393 2.808l1.415-1.415ZM14.5 10.285l-2.284-2.283L12 8a12.94 12.94 0 0 1 8.17 2.887l-1.258 1.556a10.96 10.96 0 0 0-4.412-2.158ZM12 3c4.285 0 8.22 1.497 11.31 3.997l-1.257 1.555A15.933 15.933 0 0 0 12 5c-.878 0-1.74.07-2.58.207L7.725 3.51A18.077 18.077 0 0 1 12 3Z" fill="currentColor"/></svg>