<svg xmlns="http://www.w3.org/2000/svg" xmlns:xlink="http://www.w3.org/1999/xlink" viewBox="0 0 24 24" fill="none"><defs><rect id="path_0" x="0" y="0" width="24" height="24" /></defs><g opacity="1" transform="translate(0 0)  rotate(0 12 12)"><mask id="bg-mask-0" fill="white"><use xlink:href="#path_0"></use></mask><g mask="url(#bg-mask-0)" ><g opacity="1" transform="translate(0.6889950000000002 1.3929399999999994)  rotate(0 11.310502499999998 9.80348)"><path id="路径 1" fill-rule="evenodd" style="fill:#000000" transform="translate(9.425005 16.60695463976955)  rotate(0 1.8859999999999992 1.5000026801152249)" opacity="1" d="M0,0.67L1.89,3L3.77,0.67C3.26,0.25 2.6,0 1.89,0C1.2,0 0.53,0.23 0,0.67Z " /><path id="路径 2" fill-rule="evenodd" style="fill:#000000" transform="translate(0 0)  rotate(0 9.8980025 9.54598)" opacity="1" d="M19.8,17.68L2.12,0L0.7,1.41L2.95,3.66C1.9,4.21 0.92,4.86 0,5.6L1.26,7.16C2.24,6.37 3.31,5.69 4.44,5.15L6.73,7.44C5.43,7.93 4.22,8.62 3.14,9.49L4.4,11.05C5.55,10.12 6.88,9.43 8.31,9.02L10.91,11.62C9.22,11.7 7.6,12.32 6.29,13.38L7.54,14.94C8.57,14.11 9.88,13.61 11.31,13.61C11.95,13.61 12.59,13.71 13.2,13.91L18.38,19.09L19.8,17.68Z " /><path id="路径 3" fill-rule="evenodd" style="fill:#000000" transform="translate(11.311005 6.606999999999999)  rotate(0 4.085000000000001 2.22148)" opacity="1" d="M6.91,4.44L8.17,2.89C5.94,1.08 3.1,0 0,0L0.22,0L2.5,2.28C4.11,2.66 5.62,3.4 6.91,4.44Z " /><path id="路径 4" fill-rule="evenodd" style="fill:#000000" transform="translate(7.036004999999999 1.607)  rotate(0 7.7924999999999995 2.776)" opacity="1" d="M0,0.51L1.7,2.21C2.54,2.07 3.4,2 4.28,2C7.93,1.99 11.48,3.25 14.33,5.55L15.59,4C12.5,1.5 8.56,0 4.28,0C2.8,0 1.37,0.18 0,0.51Z " /></g></g></g></svg>