<svg width="24" height="24" fill="none" xmlns="http://www.w3.org/2000/svg"><mask id="a" style="mask-type:alpha" maskUnits="userSpaceOnUse" x="0" y="0" width="24" height="24"><path d="M24 0H0v24h24V0Z" fill="#fff"/></mask><g mask="url(#a)" fill-rule="evenodd" clip-rule="evenodd" fill="currentColor"><path d="m10.114 18.67 1.89 2.33 1.88-2.33c-.51-.42-1.17-.67-1.88-.67-.69 0-1.36.23-1.89.67Z"/><path d="M20.489 19.073 2.809 1.393l-1.42 1.41 2.25 2.25c-1.05.55-2.03 1.2-2.95 1.94l1.26 1.56c.98-.79 2.05-1.47 3.18-2.01l2.29 2.29c-1.3.49-2.51 1.18-3.59 2.05l1.26 1.56c1.15-.93 2.48-1.62 3.91-2.03l2.6 2.6c-1.69.08-3.31.7-4.62 1.76l1.25 1.56a5.987 5.987 0 0 1 3.77-1.33c.64 0 1.28.1 1.89.3l5.18 5.18 1.42-1.41ZM18.91 12.44l1.26-1.55A12.91 12.91 0 0 0 12 8h.22l2.28 2.28c1.61.38 3.12 1.12 4.41 2.16ZM7.725 3.51l1.7 1.7c.84-.14 1.7-.21 2.58-.21 3.65-.01 7.2 1.25 10.05 3.55L23.315 7c-3.09-2.5-7.03-4-11.31-4-1.48 0-2.91.18-4.28.51Z"/></g></svg>