<svg xmlns="http://www.w3.org/2000/svg" xmlns:xlink="http://www.w3.org/1999/xlink" viewBox="0 0 24 24" fill="none"><defs><rect id="path_0" x="0" y="0" width="24" height="24" /></defs><g opacity="1" transform="translate(0 0)  rotate(0 12 12)"><mask id="bg-mask-0" fill="white"><use xlink:href="#path_0"></use></mask><g mask="url(#bg-mask-0)" ><g opacity="1" transform="translate(0.6900019999999998 3.000000374314439)  rotate(0 11.309999 8.99999981284278)"><path id="路径 1" fill-rule="evenodd" style="fill:#000000" transform="translate(0 0)  rotate(0 11.309999 2.7765098128427805)" opacity="1" d="M1.26,5.55C4,3.33 7.5,2 11.31,2C14.97,1.99 18.52,3.25 21.36,5.55L22.62,4C19.53,1.5 15.59,0 11.31,0C7.19,-0.01 3.2,1.41 0,4L1.26,5.55Z " /><path id="路径 2" fill-rule="evenodd" style="fill:#000000" transform="translate(3.1409979999999997 5.000005053733183)  rotate(0 8.169 2.220997285976189)" opacity="1" d="M8.17 2C5.55 2 3.15 2.91 1.26 4.44L0 2.89C2.31 1.01 5.2 0 8.17 0C11.26 0 14.11 1.08 16.34 2.89L15.08 4.44C13.13 2.86 10.69 2 8.17 2Z" /><path id="路径 3" fill-rule="evenodd" style="fill:#000000" transform="translate(6.282998 9.999991578416953)  rotate(0 5.027000000000001 1.6660040236343043)" opacity="1" d="M5.03 2C3.6 2 2.29 2.5 1.26 3.33L0 1.78C1.42 0.62 3.2 0 5.03 0C6.93 0 8.68 0.67 10.05 1.78L8.8 3.33C7.73 2.47 6.4 2 5.03 2Z" /><path id="路径 4" fill-rule="evenodd" style="fill:#000000" transform="translate(9.424998 14.999997594177803)  rotate(0 1.8849999999999998 1.5000010157538792)" opacity="1" d="M3.77 0.67L1.88 3L0 0.67C0.53 0.23 1.2 0 1.88 0C2.6 0 3.25 0.25 3.77 0.67Z" /></g></g></g></svg>