<svg width="24" height="24" fill="none" xmlns="http://www.w3.org/2000/svg"><mask id="a" style="mask-type:alpha" maskUnits="userSpaceOnUse" x="0" y="0" width="24" height="24"><path d="M24 0H0v24h24V0Z" fill="#fff"/></mask><g mask="url(#a)" fill-rule="evenodd" clip-rule="evenodd" fill="currentColor"><path d="M7.22 19.73c.23.6.61 1.12 1.11 1.52.5.39 1.1.64 1.74.72.63.08 1.27-.01 1.86-.28.58-.26 1.08-.67 1.45-1.2.36-.52.57-1.14.61-1.77.04-.64-.09-1.28-.39-1.84-.3-.57-.74-1.04-1.29-1.37-.54-.33-1.17-.51-1.81-.51H4v2h6.5c.27 0 .54.08.78.22.23.14.42.34.55.58.13.25.18.52.17.79-.02.28-.11.54-.27.76-.15.23-.37.41-.62.52-.25.11-.52.15-.8.12-.27-.04-.52-.14-.74-.31-.21-.17-.38-.4-.47-.65l-1.88.7Z"/><path d="M14.11 4.132c.25.11.47.29.62.51.16.23.25.49.27.76a1.525 1.525 0 0 1-.72 1.38c-.24.14-.51.22-.78.22H5c-.8 0-1.56.31-2.12.88-.56.56-.88 1.32-.88 2.12 0 .79.32 1.56.88 2.12s1.32.88 2.12.88h13.5c.27 0 .54.07.78.21.23.15.42.35.55.59.13.24.18.52.17.79-.02.27-.11.54-.27.76-.15.23-.37.41-.62.52-.25.11-.52.15-.8.12-.27-.04-.52-.14-.74-.31-.21-.17-.38-.4-.47-.66l-1.88.71c.23.6.61 1.12 1.11 1.52a3.51 3.51 0 0 0 5.05-.76c.36-.52.57-1.14.61-1.78a3.482 3.482 0 0 0-1.68-3.21c-.54-.33-1.17-.5-1.81-.5H5a1.009 1.009 0 0 1-1-1c0-.27.11-.52.29-.71a.99.99 0 0 1 .71-.29h8.5c.93 0 1.82-.37 2.47-1.03.66-.65 1.03-1.54 1.03-2.47a3.487 3.487 0 0 0-2.88-3.44c-.8-.15-1.64-.01-2.35.4-.71.4-1.26 1.04-1.55 1.81l1.88.7c.09-.26.26-.48.47-.65.22-.17.47-.28.74-.31.28-.03.55.01.8.12Z"/></g></svg>