<svg xmlns="http://www.w3.org/2000/svg" xmlns:xlink="http://www.w3.org/1999/xlink" viewBox="0 0 24 24" fill="none"><defs><rect id="path_0" x="0" y="0" width="24" height="24" /></defs><g opacity="1" transform="translate(0 0)  rotate(0 12 12)"><mask id="bg-mask-0" fill="white"><use xlink:href="#path_0"></use></mask><g mask="url(#bg-mask-0)" ><g opacity="1" transform="translate(2 2.002195490658133)  rotate(0 9.999365332177163 9.9989079032684)"><path id="路径 1" fill-rule="evenodd" style="fill:#000000" transform="translate(2 12.997804509341867)  rotate(0 4.999365332177162 3.5000056485974653)" opacity="1" d="M3.22,4.73C3.45,5.33 3.83,5.85 4.33,6.25C4.83,6.64 5.43,6.89 6.07,6.97C6.7,7.05 7.34,6.96 7.93,6.69C8.51,6.43 9.01,6.02 9.38,5.49C9.74,4.97 9.95,4.35 9.99,3.72C10.03,3.08 9.9,2.44 9.6,1.88C9.3,1.31 8.86,0.84 8.31,0.51C7.77,0.18 7.14,0 6.5,0L0,0L0,2L6.5,2C6.77,2 7.04,2.08 7.28,2.22C7.51,2.36 7.7,2.56 7.83,2.8C7.96,3.05 8.01,3.32 8,3.59C7.98,3.87 7.89,4.13 7.73,4.35C7.58,4.58 7.36,4.76 7.11,4.87C6.86,4.98 6.59,5.02 6.31,4.99C6.04,4.95 5.79,4.85 5.57,4.68C5.36,4.51 5.19,4.28 5.1,4.03L3.22,4.73Z " /><path id="路径 2" fill-rule="evenodd" style="fill:#000000" transform="translate(0 0)  rotate(0 9.999365332177163 7.998907903268399)" opacity="1" d="M12.11,2.13C12.36,2.24 12.58,2.42 12.73,2.64C12.89,2.87 12.98,3.13 13,3.4C13.01,3.68 12.96,3.95 12.83,4.19C12.7,4.44 12.51,4.64 12.28,4.78C12.04,4.92 11.77,5 11.5,5L3,5C2.2,5 1.44,5.31 0.88,5.88C0.32,6.44 0,7.2 0,8C0,8.79 0.32,9.56 0.88,10.12C1.44,10.68 2.2,11 3,11L16.5,11C16.77,11 17.04,11.07 17.28,11.21C17.51,11.36 17.7,11.56 17.83,11.8C17.96,12.04 18.01,12.32 18,12.59C17.98,12.86 17.89,13.13 17.73,13.35C17.58,13.58 17.36,13.76 17.11,13.87C16.86,13.98 16.59,14.02 16.31,13.99C16.04,13.95 15.79,13.85 15.57,13.68C15.36,13.51 15.19,13.28 15.1,13.02L13.22,13.73C13.45,14.33 13.83,14.85 14.33,15.25C14.83,15.64 15.43,15.89 16.07,15.97C16.7,16.05 17.34,15.95 17.93,15.69C18.51,15.43 19.01,15.02 19.38,14.49C19.74,13.97 19.95,13.35 19.99,12.71C20.03,12.08 19.9,11.44 19.6,10.87C19.3,10.31 18.86,9.83 18.31,9.5C17.77,9.17 17.14,9 16.5,9L3,9C2.73,9 2.48,8.89 2.29,8.7C2.11,8.52 2,8.26 2,8C2,7.73 2.11,7.48 2.29,7.29C2.48,7.1 2.73,7 3,7L11.5,7C12.43,7 13.32,6.63 13.97,5.97C14.63,5.32 15,4.43 15,3.5C15,2.68 14.71,1.88 14.19,1.26C13.66,0.63 12.93,0.2 12.12,0.06C11.32,-0.09 10.48,0.05 9.77,0.46C9.06,0.86 8.51,1.5 8.22,2.27L10.1,2.97C10.19,2.71 10.36,2.49 10.57,2.32C10.79,2.15 11.04,2.04 11.31,2.01C11.59,1.98 11.86,2.02 12.11,2.13Z " /></g></g></g></svg>