<svg xmlns="http://www.w3.org/2000/svg" xmlns:xlink="http://www.w3.org/1999/xlink" viewBox="0 0 24 24" fill="none"><defs><rect id="path_0" x="0" y="0" width="24" height="24" /></defs><g opacity="1" transform="translate(0 0)  rotate(0 12 12)"><mask id="bg-mask-0" fill="white"><use xlink:href="#path_0"></use></mask><g mask="url(#bg-mask-0)" ><path id="分组 1" fill-rule="evenodd" style="fill:#000000" transform="translate(2 2)  rotate(0 10 10)" opacity="1" d="M7.27999 6.523C6.03999 5.273 5.11999 4.593 4.46999 4.223C3.68999 4.973 3.05999 5.863 2.63999 6.863C2.21999 7.853 1.99999 8.923 1.99999 10.003C1.99999 11.253 2.28999 12.433 2.79999 13.483C3.91999 10.963 5.99999 8.043 7.27999 6.523Z M9.998 3.95999L9.998 3.94999C9.998 3.94999 11.548 3.04999 13.148 2.63999C12.158 2.21999 11.088 1.99999 9.998 1.99999C8.878 1.99999 7.818 2.22999 6.848 2.64999C8.448 3.04999 9.998 3.95999 9.998 3.95999Z M12.718 6.523C14.008 8.043 16.078 10.963 17.208 13.483C17.728 12.393 17.998 11.203 17.998 10.003C17.998 7.733 17.058 5.683 15.538 4.223C14.878 4.593 13.968 5.273 12.718 6.523Z M9.999 9.013C8.149 10.413 5.459 13.123 4.059 15.363C4.809 16.193 5.729 16.853 6.749 17.313C7.769 17.763 8.879 18.003 9.999 18.003C11.119 18.003 12.229 17.763 13.249 17.313C14.279 16.853 15.189 16.193 15.939 15.353C14.539 13.123 11.849 10.413 9.999 9.013Z M20 10C20 4.48 15.52 0 10 0C4.48 0 0 4.48 0 10C0 15.52 4.48 20 10 20C15.52 20 20 15.52 20 10Z " /></g></g></svg>