<svg width="24" height="24" fill="none" xmlns="http://www.w3.org/2000/svg"><mask id="a" style="mask-type:alpha" maskUnits="userSpaceOnUse" x="0" y="0" width="24" height="24"><path d="M24 0H0v24h24V0Z" fill="#fff"/></mask><g mask="url(#a)"><path fill-rule="evenodd" clip-rule="evenodd" d="M9.28 8.523c-1.24-1.25-2.16-1.93-2.81-2.3a7.93 7.93 0 0 0-1.83 2.64 8.05 8.05 0 0 0-.64 3.14c0 1.25.29 2.43.8 3.48 1.12-2.52 3.2-5.44 4.48-6.96Zm2.718-2.563v-.01s1.55-.9 3.15-1.31c-.99-.42-2.06-.64-3.15-.64-1.12 0-2.18.23-3.15.65 1.6.4 3.15 1.31 3.15 1.31Zm2.72 2.563c1.29 1.52 3.36 4.44 4.49 6.96.52-1.09.79-2.28.79-3.48 0-2.27-.94-4.32-2.46-5.78-.66.37-1.57 1.05-2.82 2.3Zm-2.719 2.49c-1.85 1.4-4.54 4.11-5.94 6.35a8.12 8.12 0 0 0 2.69 1.95c1.02.45 2.13.69 3.25.69s2.23-.24 3.25-.69a7.912 7.912 0 0 0 2.69-1.96c-1.4-2.23-4.09-4.94-5.94-6.34ZM22 12c0-5.52-4.48-10-10-10S2 6.48 2 12s4.48 10 10 10 10-4.48 10-10Z" fill="currentColor"/></g></svg>