<svg xmlns="http://www.w3.org/2000/svg" xmlns:xlink="http://www.w3.org/1999/xlink" width="24" height="24" viewBox="0 0 24 24" fill="none"><defs><rect id="path_0" x="0" y="0" width="24" height="24" /></defs><g opacity="1" transform="translate(0 0)  rotate(0 12 12)"><mask id="bg-mask-0" fill="white"><use xlink:href="#path_0"></use></mask><g mask="url(#bg-mask-0)" ><path id="分组 1" fill-rule="evenodd" style="fill:#000000" transform="translate(2.0000019728105265 2)  rotate(0 10.000005191301991 10.000005505908533)" opacity="1" d="M9.99813 20.003C12.4181 20.003 14.7681 19.123 16.5881 17.523C18.1481 15.933 12.9881 10.273 9.99813 8.013C7.01813 10.273 1.84813 15.933 3.41813 17.523C5.23813 19.123 7.57813 20.003 9.99813 20.003Z M17.778 16.2869C19.218 14.5069 20.008 12.2869 19.998 10.0069C19.998 8.67693 19.738 7.36693 19.228 6.14693C18.718 4.92693 17.968 3.81693 17.028 2.88693C17.028 2.88693 17.008 2.87693 16.958 2.85693C16.878 2.82693 16.798 2.81693 16.718 2.81693C16.228 2.81693 15.068 3.17693 12.718 5.52693C14.798 7.98693 18.958 14.1169 17.778 16.2869Z M3.05 2.85768C3 2.87768 2.98 2.88768 2.97 2.88768C2.03 3.81768 1.28 4.92768 0.77 6.14768C0.26 7.36768 0 8.67768 0 10.0077C0 12.3777 0.83 14.5677 2.22 16.2777C1.05 14.1077 5.2 7.98768 7.28 5.52768C4.93 3.17768 3.77 2.81768 3.28 2.81768C3.2 2.81768 3.12 2.82768 3.05 2.85768L3.05 2.85768L3.05 2.85768Z M10.002 2.96C10.002 2.96 12.452 1.52 14.372 1.46C15.112 1.43 15.562 1.69 15.632 1.73C13.832 0.54 11.942 0 10.002 0L9.98201 0C8.05201 0 6.15201 0.54 4.36201 1.74C4.42201 1.7 4.88201 1.43 5.63201 1.46C7.54201 1.52 10.002 2.96 10.002 2.96L10.002 2.96Z M15.642 1.74C15.632 1.74 15.632 1.74 15.632 1.73C15.632 1.74 15.632 1.74 15.642 1.74Z " /></g></g></svg>