<svg width="24" height="24" fill="none" xmlns="http://www.w3.org/2000/svg"><mask id="a" style="mask-type:alpha" maskUnits="userSpaceOnUse" x="0" y="0" width="24" height="24"><path d="M24 0H0v24h24V0Z" fill="#fff"/></mask><g mask="url(#a)"><path fill-rule="evenodd" clip-rule="evenodd" d="M11.998 22.003c2.42 0 4.77-.88 6.59-2.48 1.56-1.59-3.6-7.25-6.59-9.51-2.98 2.26-8.15 7.92-6.58 9.51a9.966 9.966 0 0 0 6.58 2.48Zm7.78-3.716a9.93 9.93 0 0 0 2.22-6.28 9.997 9.997 0 0 0-2.97-7.12s-.02-.01-.07-.03a.672.672 0 0 0-.24-.04c-.49 0-1.65.36-4 2.71 2.08 2.46 6.24 8.59 5.06 10.76ZM5.05 4.857c-.05.02-.07.03-.08.03A9.997 9.997 0 0 0 2 12.008c0 2.37.83 4.56 2.22 6.27-1.17-2.17 2.98-8.29 5.06-10.75-2.35-2.35-3.51-2.71-4-2.71-.08 0-.16.01-.23.04Zm6.952.103s2.45-1.44 4.37-1.5c.74-.03 1.19.23 1.26.27-1.8-1.19-3.69-1.73-5.63-1.73h-.02c-1.93 0-3.83.54-5.62 1.74.06-.04.52-.31 1.27-.28 1.91.06 4.37 1.5 4.37 1.5Zm5.64-1.22c-.01 0-.01 0-.01-.01 0 .01 0 .01.01.01Z" fill="currentColor"/></g></svg>