<svg xmlns="http://www.w3.org/2000/svg" xmlns:xlink="http://www.w3.org/1999/xlink" width="24" height="24" viewBox="0 0 24 24" fill="none"><defs><rect id="path_0" x="0" y="0" width="24" height="24" /></defs><g opacity="1" transform="translate(0 0)  rotate(0 12 12)"><mask id="bg-mask-0" fill="white"><use xlink:href="#path_0"></use></mask><g mask="url(#bg-mask-0)" ><path id="分组 1" fill-rule="evenodd" style="fill:#000000" transform="translate(2 4)  rotate(0 10 8)" opacity="1" d="M19.54 13.5C20 11.72 20 8 20 8C20 8 20 4.28 19.54 2.5C19.29 1.52 18.55 0.74 17.61 0.48C15.9 0 10 0 10 0C10 0 4.11 0 2.39 0.48C1.45 0.74 0.71 1.51 0.46 2.5C0 4.28 0 8 0 8C0 8 0 11.72 0.46 13.5C0.71 14.48 1.45 15.26 2.39 15.52C4.11 16 10 16 10 16C10 16 15.9 16 17.61 15.52C18.55 15.26 19.29 14.49 19.54 13.5Z M14 8L8 4.5L8 11.5L14 8Z " /></g></g></svg>