<svg width="24" height="24" fill="none" xmlns="http://www.w3.org/2000/svg"><mask id="a" style="mask-type:alpha" maskUnits="userSpaceOnUse" x="0" y="0" width="24" height="24"><path d="M24 0H0v24h24V0Z" fill="#fff"/></mask><g mask="url(#a)"><path fill-rule="evenodd" clip-rule="evenodd" d="M21.54 17.5C22 15.72 22 12 22 12s0-3.72-.46-5.5c-.25-.98-.99-1.76-1.93-2.02C17.9 4 12 4 12 4s-5.89 0-7.61.48c-.94.26-1.68 1.03-1.93 2.02C2 8.28 2 12 2 12s0 3.72.46 5.5c.25.98.99 1.76 1.93 2.02C6.11 20 12 20 12 20s5.9 0 7.61-.48c.94-.26 1.68-1.03 1.93-2.02ZM16 12l-6-3.5v7l6-3.5Z" fill="currentColor"/></g></svg>