<svg width="24" height="24" fill="none" xmlns="http://www.w3.org/2000/svg"><mask id="a" style="mask-type:alpha" maskUnits="userSpaceOnUse" x="0" y="0" width="24" height="24"><path d="M24 0H0v24h24V0Z" fill="#fff"/></mask><g mask="url(#a)"><path fill-rule="evenodd" clip-rule="evenodd" d="M20 11a9 9 0 1 0-3.38 7.03l4.28 4.28 1.41-1.41-4.28-4.28A8.988 8.988 0 0 0 20 11Zm-2 0c0-3.87-3.13-7-7-7s-7 3.13-7 7 3.13 7 7 7c1.82 0 3.57-.71 4.88-1.98l.14-.14A7.012 7.012 0 0 0 18 11Zm-8-1H7v2h3v3h2v-3h3v-2h-3V7h-2v3Z" fill="currentColor"/></g></svg>