<svg xmlns="http://www.w3.org/2000/svg" xmlns:xlink="http://www.w3.org/1999/xlink" viewBox="0 0 24 24" fill="none"><defs><rect id="path_0" x="0" y="0" width="24" height="24" /></defs><g opacity="1" transform="translate(0 0)  rotate(0 12 12)"><mask id="bg-mask-0" fill="white"><use xlink:href="#path_0"></use></mask><g mask="url(#bg-mask-0)" ><path id="分组 1" fill-rule="evenodd" style="fill:#000000" transform="translate(2 2)  rotate(0 10.157 10.157)" opacity="1" d="M18 9C18 4.03 13.97 0 9 0C4.03 0 0 4.03 0 9C0 13.97 4.03 18 9 18C11.04 18 13.02 17.31 14.62 16.03L18.9 20.31L20.31 18.9L16.03 14.62C17.31 13.02 18 11.04 18 9Z M5 10L13 10L13 8L5 8L5 10Z " /></g></g></svg>